<?xml version="1.0" encoding="utf-8"?>
<!-- Generator: Adobe Illustrator 24.0.0, SVG Export Plug-In . SVG Version: 6.00 Build 0)  -->
<svg version="1.1" id="Capa_1" xmlns="http://www.w3.org/2000/svg" xmlns:xlink="http://www.w3.org/1999/xlink" x="0px" y="0px"
	 viewBox="0 0 1920 1080" style="enable-background:new 0 0 1920 1080;" xml:space="preserve">
<style type="text/css">
	.st0{fill:#FFFFFF;}
</style>
<g>
	<path class="st0" d="M756.25,460.37c-2.39,0-3.57-1.19-3.57-3.59v-17.92c0-2.39,1.18-3.58,3.57-3.58h18.69v-81.89h-18.69
		c-2.39,0-3.57-1.19-3.57-3.59v-17.92c0-2.39,1.18-3.59,3.57-3.59h66.98c2.51,0,3.78,1.19,3.78,3.59v17.92
		c0,2.39-1.27,3.59-3.78,3.59h-18.68v81.89h18.68c2.51,0,3.78,1.18,3.78,3.58v17.92c0,2.39-1.27,3.59-3.78,3.59H756.25z"/>
	<path class="st0" d="M846.08,460.37c-2.4,0-3.6-1.19-3.6-3.59v-17.92c0-2.39,1.2-3.58,3.6-3.58h18.66v-81.89h-18.66
		c-2.4,0-3.6-1.19-3.6-3.59v-17.92c0-2.39,1.2-3.59,3.6-3.59h66.98c2.51,0,3.77,1.19,3.77,3.59v17.92c0,2.39-1.26,3.59-3.77,3.59
		h-18.69v81.89h18.69c2.51,0,3.77,1.18,3.77,3.58v17.92c0,2.39-1.26,3.59-3.77,3.59H846.08z"/>
	<path class="st0" d="M1040.41,349.42c0,2.27-1.21,3.39-3.57,3.39H968.9v30h59.06c2.37,0,3.57,1.13,3.57,3.39v17.35
		c0,2.39-1.2,3.59-3.57,3.59H968.9v28.69h67.94c2.36,0,3.57,1.13,3.57,3.39v17.54c0,2.4-1.21,3.59-3.57,3.59h-93.79
		c-2.53,0-3.78-1.18-3.78-3.59v-124.9c0-2.39,1.25-3.59,3.78-3.59h93.79c2.36,0,3.57,1.19,3.57,3.59V349.42z"/>
	<path class="st0" d="M1124.94,463.2c-21.26,0-38.44-6.35-51.52-19.06c-13.08-12.7-19.61-29.37-19.61-49.99
		c0-20.64,6.5-37.26,19.53-49.9c13.02-12.65,30.21-18.96,51.61-18.96c16.48,0,30.84,4.05,43.11,12.17
		c12.26,8.11,20.43,19.03,24.43,32.74c0.76,2.63-0.25,3.96-3.02,3.96h-24.15c-2.02,0-3.4-0.95-4.16-2.83
		c-2.76-6.04-7.35-10.85-13.75-14.44c-6.42-3.59-13.79-5.38-22.08-5.38c-12.47,0-22.48,3.94-30.11,11.79
		c-7.59,7.87-11.41,18.16-11.41,30.85c0,12.96,3.85,23.37,11.53,31.22c7.65,7.87,17.65,11.81,29.99,11.81
		c8.42,0,15.94-2.3,22.54-6.89c6.6-4.59,11.11-10.6,13.5-18.02h-33.77c-2.4,0-3.6-1.19-3.6-3.59v-16.04c0-2.39,1.2-3.58,3.6-3.58
		h63.56c2.27,0,3.41,1.19,3.41,3.58c0,21.64-6.26,38.81-18.79,51.51C1163.26,456.85,1146.31,463.2,1124.94,463.2"/>
	<path class="st0" d="M751.3,562.2c-1.08,0-1.61-0.54-1.61-1.62v-8.13c0-1.09,0.54-1.63,1.61-1.63h8.49v-37.15h-8.49
		c-1.08,0-1.61-0.55-1.61-1.65v-8.12c0-1.08,0.54-1.63,1.61-1.63h30.4c1.15,0,1.71,0.55,1.71,1.63v8.12c0,1.09-0.56,1.65-1.71,1.65
		h-8.49v37.15h8.49c1.15,0,1.71,0.54,1.71,1.63v8.13c0,1.08-0.56,1.62-1.71,1.62H751.3z"/>
	<path class="st0" d="M819.81,519.31c5.6,0,10.12,1.72,13.54,5.17c3.43,3.45,5.13,8.04,5.13,13.75v22.34c0,1.08-0.54,1.62-1.62,1.62
		h-9.58c-1.16,0-1.73-0.54-1.73-1.62v-20.64c0-2.92-0.81-5.25-2.44-7.02c-1.62-1.76-3.81-2.66-6.55-2.66
		c-2.86,0-5.14,0.85-6.88,2.53c-1.75,1.69-2.6,3.92-2.6,6.71v21.07c0,1.08-0.56,1.62-1.63,1.62h-9.6c-1.08,0-1.62-0.54-1.62-1.62
		v-26.89c0-2.23-1.13-3.35-3.34-3.35c-0.24,0-0.86,0.1-1.9,0.27c-1.24,0-1.87-0.45-1.87-1.36v-7.02c0-0.97,0.43-1.6,1.27-1.89
		c1.8-0.68,3.83-1.02,6.18-1.02c4.91,0,8.31,1.79,10.28,5.39C808.42,521.1,813.4,519.31,819.81,519.31"/>
	<path class="st0" d="M865.88,563.57c-6,0-10.87-1.19-14.65-3.56c-3.78-2.36-5.97-5.67-6.59-9.89c-0.18-1.13,0.37-1.71,1.61-1.71
		l8.39,0.08c0.76,0,1.39,0.4,1.91,1.21c1.18,3.08,4.28,4.61,9.32,4.61c2.12,0,3.81-0.34,5.08-1.03c1.3-0.68,1.92-1.59,1.92-2.73
		c0-1.49-0.91-2.56-2.74-3.22c-1.81-0.66-4.05-1.13-6.68-1.45c-2.62-0.32-5.23-0.8-7.86-1.42c-2.65-0.63-4.86-1.92-6.7-3.86
		c-1.81-1.93-2.72-4.56-2.72-7.87c0-4.05,1.73-7.31,5.22-9.76c3.48-2.45,8.07-3.68,13.79-3.68c5.37,0,9.86,1.12,13.46,3.38
		c3.66,2.25,5.74,5.24,6.3,8.95c0.18,1.15-0.34,1.71-1.55,1.71h-8.46c-0.75,0-1.32-0.34-1.72-1.02c-0.51-1.26-1.5-2.29-2.95-3.04
		c-1.45-0.78-3.09-1.16-4.92-1.16c-2,0-3.6,0.34-4.84,0.98c-1.22,0.66-1.82,1.53-1.82,2.6c0,1.55,0.92,2.69,2.78,3.44
		c1.84,0.73,4.1,1.3,6.76,1.66c2.65,0.37,5.29,0.87,7.93,1.5c2.61,0.63,4.86,1.92,6.71,3.85c1.86,1.95,2.78,4.54,2.78,7.8
		c0,4.17-1.76,7.48-5.32,9.93C876.81,562.35,871.97,563.57,865.88,563.57"/>
	<path class="st0" d="M916.03,563.57c-5.58,0-9.98-1.59-13.23-4.76c-3.22-3.18-4.82-7.49-4.82-12.97v-14.81h-7.9
		c-1.08,0-1.61-0.55-1.61-1.62v-7.11c0-1.08,0.53-1.63,1.61-1.63h7.9V509.8c0-1.09,0.53-1.63,1.62-1.63h9.59
		c1.09,0,1.65,0.54,1.65,1.63v10.87h13.42c1.08,0,1.63,0.55,1.63,1.63v7.11c0,1.08-0.55,1.62-1.63,1.62h-13.42v14.39
		c0,2.17,0.62,3.87,1.91,5.13c1.28,1.25,3.02,1.88,5.19,1.88c2.21,0,4.35-0.26,6.4-0.76c1.08-0.18,1.71,0.24,1.91,1.27l1.11,7.36
		c0.04,0.92-0.38,1.55-1.31,1.89C922.41,563.11,919.07,563.57,916.03,563.57"/>
	<path class="st0" d="M945.96,510.99c-1.44,1.37-3.26,2.06-5.42,2.06c-2.18,0-3.98-0.69-5.43-2.06c-1.49-1.36-2.2-3.05-2.2-5.04
		c0-2.02,0.71-3.68,2.2-5.02c1.45-1.34,3.24-2.01,5.43-2.01c2.16,0,3.98,0.66,5.42,2.01c1.47,1.34,2.19,3,2.19,5.02
		C948.15,507.94,947.43,509.63,945.96,510.99 M935.75,562.2c-1.1,0-1.63-0.54-1.63-1.62V522.3c0-1.08,0.53-1.63,1.63-1.63h9.57
		c1.1,0,1.64,0.55,1.64,1.63v38.27c0,1.08-0.54,1.62-1.64,1.62H935.75z"/>
	<path class="st0" d="M979.32,563.57c-5.6,0-10-1.59-13.23-4.76c-3.23-3.18-4.85-7.49-4.85-12.97v-14.81h-7.86
		c-1.09,0-1.63-0.55-1.63-1.62v-7.11c0-1.08,0.54-1.63,1.63-1.63h7.86V509.8c0-1.09,0.55-1.63,1.64-1.63h9.59
		c1.08,0,1.65,0.54,1.65,1.63v10.87h13.43c1.08,0,1.65,0.55,1.65,1.63v7.11c0,1.08-0.56,1.62-1.65,1.62h-13.43v14.39
		c0,2.17,0.62,3.87,1.91,5.13c1.29,1.25,3.01,1.88,5.18,1.88c2.21,0,4.36-0.26,6.43-0.76c1.08-0.18,1.71,0.24,1.88,1.27l1.1,7.36
		c0.07,0.92-0.35,1.55-1.27,1.89C985.69,563.11,982.35,563.57,979.32,563.57"/>
	<path class="st0" d="M1048.92,560.74c0.07,0.97-0.36,1.57-1.26,1.8c-2.41,0.68-4.57,1.03-6.53,1.03c-5.53,0-9.36-1.66-11.47-4.97
		c-3.6,3.31-8.44,4.97-14.56,4.97c-5.53,0-10-1.73-13.39-5.18c-3.38-3.45-5.09-8.04-5.09-13.74V522.3c0-1.08,0.55-1.64,1.63-1.64
		h9.58c1.08,0,1.63,0.55,1.63,1.64v20.63c0,2.92,0.81,5.25,2.45,7.02c1.61,1.77,3.81,2.66,6.53,2.66c2.87,0,5.15-0.84,6.86-2.54
		c1.71-1.68,2.58-3.91,2.58-6.7V522.3c0-1.08,0.53-1.64,1.62-1.64h9.67c1.09,0,1.65,0.55,1.65,1.64v26.88
		c0,2.23,0.93,3.34,2.81,3.34c1.02,0,1.92-0.08,2.66-0.25c1.08-0.12,1.71,0.34,1.87,1.37L1048.92,560.74z"/>
	<path class="st0" d="M1078.04,563.57c-5.59,0-10-1.59-13.23-4.76c-3.21-3.18-4.83-7.49-4.83-12.97v-14.81h-7.89
		c-1.08,0-1.61-0.55-1.61-1.62v-7.11c0-1.08,0.54-1.63,1.61-1.63h7.89V509.8c0-1.09,0.54-1.63,1.62-1.63h9.6
		c1.08,0,1.64,0.54,1.64,1.63v10.87h13.44c1.08,0,1.62,0.55,1.62,1.63v7.11c0,1.08-0.55,1.62-1.62,1.62h-13.44v14.39
		c0,2.17,0.63,3.87,1.91,5.13c1.29,1.25,3.02,1.88,5.2,1.88c2.21,0,4.34-0.26,6.41-0.76c1.07-0.18,1.7,0.24,1.88,1.27l1.11,7.36
		c0.06,0.92-0.37,1.55-1.29,1.89C1084.41,563.11,1081.06,563.57,1078.04,563.57"/>
	<path class="st0" d="M1134.5,557.48c-4.31,4.06-9.99,6.09-17.08,6.09c-7.07,0-12.77-2.03-17.08-6.09
		c-4.3-4.05-6.45-9.39-6.45-16.01c0-6.68,2.15-12.04,6.45-16.1c4.31-4.06,10.02-6.07,17.08-6.07c7.09,0,12.77,2.02,17.08,6.07
		c4.33,4.06,6.47,9.42,6.47,16.1C1140.97,548.1,1138.83,553.43,1134.5,557.48 M1109.24,549.82c2.08,2.09,4.81,3.12,8.18,3.12
		c3.37,0,6.09-1.03,8.18-3.12c2.08-2.08,3.12-4.86,3.12-8.34s-1.03-6.28-3.12-8.39c-2.09-2.13-4.81-3.18-8.18-3.18
		c-3.37,0-6.09,1.05-8.18,3.18c-2.08,2.11-3.12,4.9-3.12,8.39S1107.17,547.75,1109.24,549.82"/>
	<path class="st0" d="M1222.48,560.74c0.17,0.98-0.26,1.57-1.29,1.8c-2.34,0.68-4.53,1.03-6.58,1.03c-5.33,0-8.91-1.81-10.79-5.39
		c-3.76,3.59-8.51,5.39-14.23,5.39c-6.6,0-12.01-2.06-16.2-6.17c-4.22-4.11-6.32-9.41-6.32-15.93c0-6.55,2.1-11.91,6.32-16.01
		c4.19-4.11,9.6-6.15,16.2-6.15c4.57,0,8.54,1.23,11.9,3.67v-22.52c0-1.08,0.55-1.63,1.64-1.63h9.68c1.08,0,1.61,0.55,1.61,1.63
		v48.81c0,2.17,0.97,3.25,2.84,3.25c1.02,0,1.89-0.08,2.58-0.25c1.19-0.13,1.81,0.34,1.88,1.37L1222.48,560.74z M1190.71,553.55
		c3.2,0,5.81-1.13,7.79-3.38c2.01-2.26,2.99-5.15,2.99-8.7c0-3.59-0.98-6.52-2.99-8.77c-1.98-2.26-4.59-3.39-7.79-3.39
		c-3.25,0-5.9,1.13-7.96,3.39c-2.05,2.25-3.08,5.18-3.08,8.77c0,3.55,1.03,6.44,3.08,8.7
		C1184.82,552.42,1187.46,553.55,1190.71,553.55"/>
	<path class="st0" d="M1250.72,563.58c-7.01,0-12.7-2.04-17.02-6.09c-4.34-4.05-6.52-9.39-6.52-16.01c0-6.68,2.11-12.04,6.3-16.1
		c4.2-4.06,9.68-6.07,16.48-6.07c6.85,0,12.29,1.99,16.32,5.99c4.01,4,6.04,9.28,6.04,15.84c0,0.34,0,0.83-0.04,1.49
		c-0.03,0.67-0.05,1.13-0.05,1.42c-0.17,0.98-0.76,1.45-1.81,1.45h-30.72c0.69,2.57,2.03,4.6,4.07,6.09
		c2.02,1.48,4.43,2.23,7.23,2.23c3.14,0,5.48-0.87,7.02-2.57c0.74-0.58,1.43-0.87,2.06-0.87h9.58c0.64,0,1.07,0.16,1.34,0.47
		c0.27,0.33,0.28,0.74,0.05,1.24c-1.49,3.54-4.02,6.34-7.63,8.39C1259.8,562.54,1255.59,563.58,1250.72,563.58 M1239.61,537.88
		h20.46c-0.13-2.68-1.07-4.87-2.82-6.55c-1.76-1.69-4.08-2.54-6.93-2.54c-2.81,0-5.18,0.85-7.15,2.54
		C1241.18,533.01,1239.99,535.2,1239.61,537.88"/>
	<path class="st0" d="M1299.29,562.2c-1.08,0-1.62-0.54-1.62-1.62v-8.13c0-1.09,0.54-1.63,1.62-1.63h8.48v-37.15h-8.48
		c-1.08,0-1.62-0.55-1.62-1.65v-8.12c0-1.08,0.54-1.63,1.62-1.63h30.39c1.15,0,1.71,0.55,1.71,1.63v8.12c0,1.09-0.55,1.65-1.71,1.65
		h-8.48v37.15h8.48c1.15,0,1.71,0.54,1.71,1.63v8.13c0,1.08-0.55,1.62-1.71,1.62H1299.29z"/>
	<path class="st0" d="M1367.78,519.31c5.61,0,10.11,1.72,13.54,5.17c3.43,3.45,5.12,8.04,5.12,13.75v22.34
		c0,1.08-0.55,1.62-1.63,1.62h-9.58c-1.13,0-1.71-0.54-1.71-1.62v-20.64c0-2.92-0.81-5.25-2.44-7.02c-1.63-1.76-3.82-2.66-6.56-2.66
		c-2.86,0-5.15,0.85-6.88,2.53c-1.73,1.69-2.62,3.92-2.62,6.71v21.07c0,1.08-0.54,1.62-1.62,1.62h-9.59c-1.08,0-1.63-0.54-1.63-1.62
		v-26.89c0-2.23-1.11-3.35-3.34-3.35c-0.23,0-0.83,0.1-1.89,0.27c-1.24,0-1.87-0.45-1.87-1.36v-7.02c0-0.97,0.42-1.6,1.29-1.89
		c1.77-0.68,3.81-1.02,6.16-1.02c4.92,0,8.34,1.79,10.28,5.39C1356.4,521.1,1361.39,519.31,1367.78,519.31"/>
	<path class="st0" d="M1403.22,562.2c-1.07,0-1.61-0.54-1.61-1.62v-29.54h-9.41c-1.11,0-1.66-0.54-1.66-1.62v-7.11
		c0-1.08,0.55-1.63,1.66-1.63h9.41v-4.97c0-5.58,1.73-10.03,5.18-13.31c3.45-3.28,8.12-4.92,14.01-4.92c3.88,0,7.36,0.48,10.43,1.45
		c0.98,0.29,1.38,0.87,1.2,1.8l-1.1,7.1c-0.17,1.2-0.81,1.66-1.9,1.37c-2.11-0.56-4.31-0.86-6.6-0.86c-2.5,0-4.51,0.67-6.02,2.01
		c-1.5,1.35-2.27,3.13-2.27,5.35v4.97h14.31c1.08,0,1.61,0.55,1.61,1.63v7.11c0,1.08-0.52,1.62-1.61,1.62h-14.31v29.54
		c0,1.08-0.55,1.62-1.63,1.62H1403.22z"/>
	<path class="st0" d="M1473.66,557.48c-4.31,4.06-10.02,6.09-17.08,6.09c-7.09,0-12.78-2.03-17.1-6.09
		c-4.3-4.05-6.45-9.39-6.45-16.01c0-6.68,2.15-12.04,6.45-16.1c4.32-4.06,10.01-6.07,17.1-6.07c7.06,0,12.77,2.02,17.08,6.07
		c4.31,4.06,6.46,9.42,6.46,16.1C1480.12,548.1,1477.97,553.43,1473.66,557.48 M1448.4,549.82c2.07,2.09,4.81,3.12,8.18,3.12
		c3.36,0,6.09-1.03,8.15-3.12c2.09-2.08,3.15-4.86,3.15-8.34s-1.06-6.28-3.15-8.39c-2.06-2.13-4.79-3.18-8.15-3.18
		c-3.37,0-6.1,1.05-8.18,3.18c-2.09,2.11-3.13,4.9-3.13,8.39S1446.31,547.75,1448.4,549.82"/>
	<path class="st0" d="M1522.4,520.08c0.98,0.22,1.39,0.85,1.29,1.88l-1.11,8.21c-0.18,1.03-0.78,1.46-1.88,1.29
		c-1.41-0.28-3.01-0.42-4.7-0.42c-3.32,0-6.03,1-8.14,3c-2.12,1.99-3.16,4.7-3.16,8.12v18.41c0,1.08-0.55,1.63-1.64,1.63h-9.58
		c-1.1,0-1.65-0.55-1.65-1.63v-26.89c0-2.23-1.11-3.34-3.33-3.34c-0.23,0-0.87,0.08-1.89,0.25c-1.26,0-1.88-0.45-1.88-1.36v-7.02
		c0-0.96,0.43-1.6,1.29-1.89c1.99-0.68,4.06-1.02,6.18-1.02c5.12,0,8.58,1.95,10.36,5.82c3.55-3.87,8.18-5.82,13.95-5.82
		C1518.9,519.3,1520.88,519.56,1522.4,520.08"/>
	<path class="st0" d="M1587.83,519.31c5.6,0,10.08,1.72,13.48,5.17c3.39,3.45,5.1,8.04,5.1,13.75v22.34c0,1.08-0.56,1.62-1.71,1.62
		h-9.58c-1.11,0-1.63-0.54-1.63-1.62v-20.64c0-2.92-0.81-5.25-2.41-7.02c-1.6-1.76-3.75-2.66-6.42-2.66c-2.34,0-4.23,0.85-5.65,2.53
		c-1.41,1.69-2.13,3.92-2.13,6.71v21.07c0,1.08-0.55,1.62-1.63,1.62h-9.68c-1.08,0-1.63-0.54-1.63-1.62v-20.64
		c0-2.92-0.73-5.25-2.22-7.02c-1.49-1.76-3.46-2.66-5.92-2.66c-2.62,0-4.71,0.85-6.29,2.53c-1.57,1.69-2.34,3.92-2.34,6.71v21.07
		c0,1.08-0.55,1.62-1.62,1.62h-9.59c-1.09,0-1.65-0.54-1.65-1.62v-26.89c0-2.23-1.11-3.35-3.34-3.35c-0.22,0-0.82,0.1-1.87,0.27
		c-1.26,0-1.88-0.45-1.88-1.36v-7.02c0-0.97,0.41-1.6,1.28-1.89c1.76-0.68,3.81-1.02,6.16-1.02c4.92,0,8.28,1.73,10.12,5.22
		c3.48-3.49,8.33-5.22,14.54-5.22c5.76,0,10.29,2.02,13.54,6.07C1576.38,521.32,1581.37,519.31,1587.83,519.31"/>
	<path class="st0" d="M1669.01,560.74c0.1,0.98-0.35,1.57-1.38,1.8c-2.34,0.68-4.46,1.03-6.42,1.03c-5.27,0-8.85-1.75-10.79-5.23
		c-4,3.48-8.81,5.23-14.39,5.23c-6.61,0-12.02-2.06-16.22-6.17c-4.2-4.11-6.3-9.41-6.3-15.93c0-6.55,2.1-11.91,6.3-16.01
		c4.19-4.11,9.6-6.15,16.22-6.15c4.74,0,8.8,1.3,12.16,3.93v-0.94c0-1.08,0.55-1.63,1.64-1.63h9.4c1.1,0,1.64,0.55,1.64,1.63v26.87
		c0,2.23,0.95,3.35,2.82,3.35c1.04,0,1.92-0.08,2.65-0.25c1.14-0.13,1.74,0.34,1.79,1.37L1669.01,560.74z M1637.15,553.55
		c3.2,0,5.79-1.13,7.79-3.38c2.01-2.26,3-5.15,3-8.7c0-3.59-0.99-6.52-3-8.77c-2-2.26-4.59-3.39-7.79-3.39
		c-3.27,0-5.9,1.13-7.96,3.39c-2.05,2.25-3.09,5.18-3.09,8.77c0,3.55,1.04,6.44,3.09,8.7
		C1631.25,552.42,1633.88,553.55,1637.15,553.55"/>
	<path class="st0" d="M1697,563.57c-7.1,0-12.76-2.03-17.08-6.09c-4.31-4.05-6.46-9.39-6.46-16.01c0-6.68,2.15-12.03,6.46-16.1
		c4.32-4.05,9.98-6.07,17.08-6.07c5.7,0,10.5,1.39,14.38,4.18c3.9,2.8,6.29,6.58,7.19,11.31c0.18,1.14-0.31,1.71-1.44,1.71h-9.18
		c-0.79,0-1.39-0.45-1.78-1.36c-0.62-1.66-1.76-2.97-3.4-3.98c-1.62-1-3.54-1.5-5.77-1.5c-3.36,0-6.07,1.08-8.13,3.25
		c-2.05,2.16-3.09,5.02-3.09,8.56c0,3.55,1.04,6.38,3.09,8.53c2.06,2.13,4.77,3.2,8.13,3.2c2.23,0,4.15-0.48,5.83-1.45
		c1.66-0.97,2.76-2.31,3.34-4.03c0.45-0.9,1.05-1.36,1.78-1.36h9.18c1.13,0,1.61,0.57,1.44,1.71c-0.9,4.75-3.29,8.52-7.19,11.31
		C1707.5,562.16,1702.7,563.57,1697,563.57"/>
	<path class="st0" d="M1738.3,510.99c-1.45,1.37-3.27,2.06-5.43,2.06c-2.18,0-3.99-0.69-5.43-2.06c-1.47-1.36-2.21-3.05-2.21-5.04
		c0-2.02,0.74-3.68,2.21-5.02c1.44-1.34,3.24-2.01,5.43-2.01c2.16,0,3.97,0.66,5.43,2.01c1.47,1.34,2.18,3,2.18,5.02
		C1740.49,507.94,1739.77,509.63,1738.3,510.99 M1728.08,562.2c-1.09,0-1.63-0.54-1.63-1.62V522.3c0-1.08,0.54-1.63,1.63-1.63h9.6
		c1.08,0,1.61,0.55,1.61,1.63v38.27c0,1.08-0.53,1.62-1.61,1.62H1728.08z"/>
	<path class="st0" d="M1787.64,557.48c-4.33,4.06-10.02,6.09-17.1,6.09c-7.08,0-12.77-2.03-17.08-6.09
		c-4.32-4.05-6.47-9.39-6.47-16.01c0-6.68,2.15-12.04,6.47-16.1c4.31-4.05,10-6.07,17.08-6.07c7.08,0,12.77,2.02,17.1,6.07
		c4.29,4.06,6.45,9.42,6.45,16.1C1794.09,548.1,1791.93,553.43,1787.64,557.48 M1762.37,549.82c2.08,2.09,4.81,3.13,8.18,3.13
		c3.38,0,6.09-1.03,8.17-3.13c2.08-2.08,3.13-4.86,3.13-8.34c0-3.49-1.05-6.28-3.13-8.39c-2.08-2.13-4.79-3.18-8.17-3.18
		c-3.37,0-6.1,1.05-8.18,3.18c-2.09,2.11-3.12,4.9-3.12,8.39C1759.25,544.96,1760.27,547.75,1762.37,549.82 M1766.26,513.82
		c-0.56,0-0.97-0.18-1.23-0.55c-0.25-0.37-0.24-0.82,0.03-1.32l5.65-10.54c0.4-0.8,1.03-1.2,1.87-1.2h10.11
		c0.64,0,1.04,0.18,1.24,0.51c0.18,0.34,0.1,0.83-0.3,1.46l-7.28,10.7c-0.45,0.61-1.11,0.93-1.97,0.93H1766.26z"/>
	<path class="st0" d="M1831.42,519.31c5.6,0,10.11,1.72,13.53,5.17c3.43,3.45,5.14,8.04,5.14,13.75v22.34
		c0,1.08-0.54,1.62-1.64,1.62h-9.58c-1.14,0-1.71-0.54-1.71-1.62v-20.64c0-2.92-0.81-5.25-2.45-7.02c-1.62-1.76-3.81-2.66-6.55-2.66
		c-2.86,0-5.15,0.85-6.86,2.53c-1.75,1.69-2.63,3.92-2.63,6.71v21.07c0,1.08-0.55,1.62-1.61,1.62h-9.6c-1.09,0-1.63-0.54-1.63-1.62
		v-26.89c0-2.23-1.11-3.35-3.34-3.35c-0.23,0-0.85,0.1-1.89,0.27c-1.24,0-1.87-0.45-1.87-1.36v-7.02c0-0.97,0.42-1.6,1.29-1.89
		c1.77-0.68,3.82-1.02,6.18-1.02c4.9,0,8.33,1.79,10.25,5.39C1820.04,521.1,1825.02,519.31,1831.42,519.31"/>
	<path class="st0" d="M798.74,612.53c0,1.03-0.54,1.55-1.61,1.55H766.3v13.61h26.79c1.08,0,1.64,0.51,1.64,1.54v7.88
		c0,1.08-0.55,1.62-1.64,1.62H766.3v13.02h30.83c1.08,0,1.61,0.51,1.61,1.54v7.97c0,1.08-0.54,1.62-1.61,1.62h-42.55
		c-1.17,0-1.71-0.54-1.71-1.62v-56.69c0-1.08,0.55-1.63,1.71-1.63h42.55c1.08,0,1.61,0.55,1.61,1.63V612.53z"/>
	<path class="st0" d="M824.94,664.25c-5.98,0-10.86-1.19-14.63-3.55c-3.76-2.38-5.98-5.67-6.6-9.9c-0.17-1.14,0.36-1.71,1.62-1.71
		l8.39,0.08c0.74,0,1.37,0.4,1.89,1.2c1.21,3.08,4.3,4.63,9.32,4.63c2.12,0,3.81-0.35,5.11-1.04c1.28-0.68,1.93-1.57,1.93-2.73
		c0-1.49-0.93-2.56-2.76-3.21c-1.83-0.65-4.04-1.14-6.68-1.45c-2.62-0.32-5.23-0.78-7.87-1.41c-2.61-0.64-4.85-1.92-6.68-3.85
		c-1.81-1.95-2.74-4.57-2.74-7.88c0-4.05,1.73-7.3,5.22-9.76c3.48-2.45,8.08-3.69,13.79-3.69c5.38,0,9.86,1.13,13.48,3.39
		c3.63,2.25,5.76,5.24,6.3,8.95c0.19,1.14-0.34,1.72-1.53,1.72h-8.49c-0.73,0-1.31-0.36-1.71-1.04c-0.51-1.25-1.5-2.27-2.96-3.02
		c-1.45-0.78-3.1-1.17-4.92-1.17c-1.99,0-3.61,0.33-4.85,0.98c-1.21,0.66-1.82,1.54-1.82,2.6c0,1.55,0.92,2.69,2.77,3.43
		c1.85,0.75,4.11,1.3,6.77,1.67c2.65,0.37,5.29,0.88,7.92,1.5c2.61,0.63,4.88,1.92,6.71,3.85c1.86,1.95,2.79,4.55,2.79,7.81
		c0,4.16-1.78,7.48-5.32,9.93C835.89,663.03,831.05,664.25,824.94,664.25"/>
	<path class="st0" d="M875.13,664.25c-5.6,0-10.02-1.58-13.23-4.75c-3.23-3.18-4.86-7.49-4.86-12.97v-14.82h-7.87
		c-1.08,0-1.62-0.54-1.62-1.61v-7.12c0-1.08,0.54-1.62,1.62-1.62h7.87v-10.87c0-1.09,0.56-1.63,1.65-1.63h9.59
		c1.08,0,1.63,0.54,1.63,1.63v10.87h13.44c1.08,0,1.61,0.55,1.61,1.62v7.12c0,1.08-0.53,1.61-1.61,1.61H869.9v14.39
		c0,2.17,0.64,3.88,1.91,5.13c1.29,1.27,3.02,1.89,5.19,1.89c2.22,0,4.37-0.26,6.4-0.78c1.1-0.17,1.73,0.26,1.92,1.29l1.1,7.36
		c0.05,0.91-0.38,1.54-1.29,1.88C881.49,663.79,878.15,664.25,875.13,664.25"/>
	<path class="st0" d="M946.46,661.42c0.11,0.98-0.34,1.58-1.4,1.81c-2.31,0.69-4.45,1.03-6.41,1.03c-5.25,0-8.82-1.74-10.78-5.22
		c-3.99,3.48-8.8,5.22-14.38,5.22c-6.62,0-12.02-2.06-16.22-6.17c-4.21-4.11-6.3-9.41-6.3-15.92c0-6.56,2.09-11.91,6.3-16.01
		c4.2-4.11,9.6-6.16,16.22-6.16c4.74,0,8.8,1.32,12.14,3.94v-0.95c0-1.08,0.54-1.62,1.65-1.62h9.4c1.08,0,1.63,0.55,1.63,1.62v26.9
		c0,2.21,0.95,3.34,2.81,3.34c1.03,0,1.93-0.09,2.68-0.27c1.13-0.12,1.73,0.34,1.79,1.38L946.46,661.42z M914.6,654.23
		c3.2,0,5.78-1.13,7.79-3.39c2-2.26,3-5.15,3-8.69c0-3.59-1-6.52-3-8.77c-2.01-2.26-4.59-3.39-7.79-3.39
		c-3.26,0-5.92,1.13-7.97,3.39c-2.05,2.25-3.07,5.18-3.07,8.77c0,3.54,1.03,6.43,3.07,8.69
		C908.68,653.11,911.34,654.23,914.6,654.23"/>
	<path class="st0" d="M1006.29,661.42c0.17,0.98-0.25,1.58-1.28,1.81c-2.35,0.69-4.54,1.03-6.59,1.03c-5.33,0-8.92-1.79-10.78-5.39
		c-3.77,3.6-8.52,5.39-14.23,5.39c-6.6,0-12.02-2.06-16.22-6.17c-4.2-4.11-6.3-9.41-6.3-15.92c0-6.56,2.1-11.91,6.3-16.01
		c4.21-4.11,9.62-6.16,16.22-6.16c4.56,0,8.54,1.23,11.91,3.68v-22.51c0-1.08,0.53-1.64,1.62-1.64h9.68c1.1,0,1.62,0.55,1.62,1.64
		v48.79c0,2.17,0.96,3.27,2.84,3.27c1.03,0,1.87-0.09,2.56-0.27c1.19-0.12,1.81,0.34,1.87,1.38L1006.29,661.42z M974.52,654.23
		c3.2,0,5.79-1.13,7.81-3.39c1.99-2.26,2.99-5.15,2.99-8.69c0-3.59-1-6.52-2.99-8.77c-2.02-2.26-4.6-3.39-7.81-3.39
		c-3.25,0-5.9,1.13-7.96,3.39c-2.05,2.25-3.08,5.18-3.08,8.77c0,3.54,1.03,6.43,3.08,8.69
		C968.62,653.11,971.27,654.23,974.52,654.23"/>
	<path class="st0" d="M1024.19,621.35c1.09,0,1.62,0.55,1.62,1.63v38.27c0,1.08-0.53,1.63-1.62,1.63h-9.59
		c-1.08,0-1.65-0.55-1.65-1.63v-38.27c0-1.08,0.57-1.63,1.65-1.63H1024.19z M1015.11,614.51c-0.58,0-0.98-0.18-1.24-0.56
		c-0.25-0.37-0.23-0.82,0.03-1.32l5.65-10.54c0.4-0.8,1.02-1.19,1.9-1.19h10.1c0.62,0,1.04,0.17,1.24,0.51
		c0.2,0.34,0.1,0.83-0.32,1.45l-7.27,10.7c-0.46,0.63-1.11,0.95-1.97,0.95H1015.11z"/>
	<path class="st0" d="M1053.99,664.25c-6,0-10.89-1.19-14.66-3.55c-3.75-2.38-5.96-5.67-6.58-9.9c-0.17-1.14,0.38-1.71,1.64-1.71
		l8.38,0.08c0.75,0,1.39,0.4,1.89,1.2c1.2,3.08,4.3,4.63,9.33,4.63c2.1,0,3.81-0.35,5.09-1.04c1.28-0.68,1.93-1.57,1.93-2.73
		c0-1.49-0.93-2.56-2.75-3.21c-1.82-0.65-4.06-1.14-6.67-1.45c-2.64-0.32-5.27-0.78-7.89-1.41c-2.61-0.64-4.86-1.92-6.68-3.85
		c-1.83-1.95-2.74-4.57-2.74-7.88c0-4.05,1.75-7.3,5.22-9.76c3.48-2.45,8.08-3.69,13.79-3.69c5.37,0,9.86,1.13,13.49,3.39
		c3.63,2.25,5.72,5.24,6.29,8.95c0.17,1.14-0.33,1.72-1.53,1.72h-8.5c-0.74,0-1.3-0.36-1.69-1.04c-0.52-1.25-1.51-2.27-2.97-3.02
		c-1.44-0.78-3.11-1.17-4.93-1.17c-2,0-3.61,0.33-4.84,0.98c-1.23,0.66-1.83,1.54-1.83,2.6c0,1.55,0.92,2.69,2.8,3.43
		c1.83,0.75,4.1,1.3,6.76,1.67c2.65,0.37,5.3,0.88,7.92,1.5c2.6,0.63,4.86,1.92,6.71,3.85c1.87,1.95,2.8,4.55,2.8,7.81
		c0,4.16-1.77,7.48-5.32,9.93C1064.9,663.03,1060.08,664.25,1053.99,664.25"/>
	<path class="st0" d="M1104.15,664.25c-5.58,0-10-1.58-13.23-4.75c-3.22-3.18-4.83-7.49-4.83-12.97v-14.82h-7.89
		c-1.07,0-1.61-0.54-1.61-1.61v-7.12c0-1.08,0.54-1.62,1.61-1.62h7.89v-10.87c0-1.09,0.55-1.63,1.61-1.63h9.6
		c1.08,0,1.65,0.54,1.65,1.63v10.87h13.42c1.09,0,1.62,0.55,1.62,1.62v7.12c0,1.08-0.53,1.61-1.62,1.61h-13.42v14.39
		c0,2.17,0.64,3.88,1.89,5.13c1.31,1.27,3.02,1.89,5.2,1.89c2.21,0,4.35-0.26,6.41-0.78c1.08-0.17,1.71,0.26,1.9,1.29l1.1,7.36
		c0.07,0.91-0.36,1.54-1.29,1.88C1110.53,663.79,1107.19,664.25,1104.15,664.25"/>
	<path class="st0" d="M1134.09,611.68c-1.47,1.37-3.29,2.06-5.44,2.06c-2.18,0-3.99-0.69-5.44-2.06c-1.45-1.37-2.19-3.05-2.19-5.04
		c0-2.02,0.74-3.68,2.19-5.02c1.45-1.34,3.27-2.01,5.44-2.01c2.14,0,3.97,0.66,5.44,2.01c1.45,1.34,2.18,3,2.18,5.02
		C1136.28,608.63,1135.54,610.31,1134.09,611.68 M1123.85,662.88c-1.07,0-1.62-0.54-1.62-1.62v-38.28c0-1.08,0.55-1.62,1.62-1.62
		h9.59c1.09,0,1.63,0.55,1.63,1.62v38.28c0,1.08-0.54,1.62-1.63,1.62H1123.85z"/>
	<path class="st0" d="M1166.31,664.25c-7.07,0-12.76-2.02-17.08-6.08c-4.3-4.05-6.44-9.39-6.44-16.01c0-6.67,2.14-12.03,6.44-16.09
		c4.32-4.05,10.02-6.08,17.08-6.08c5.72,0,10.51,1.39,14.4,4.2c3.86,2.79,6.27,6.57,7.18,11.3c0.17,1.14-0.3,1.71-1.45,1.71h-9.16
		c-0.81,0-1.41-0.45-1.81-1.38c-0.62-1.65-1.74-2.97-3.39-3.97c-1.6-1.02-3.53-1.5-5.77-1.5c-3.37,0-6.06,1.08-8.13,3.25
		c-2.06,2.17-3.08,5.03-3.08,8.55c0,3.56,1.03,6.39,3.08,8.53c2.07,2.14,4.76,3.22,8.13,3.22c2.24,0,4.18-0.5,5.82-1.46
		c1.65-0.97,2.77-2.32,3.34-4.02c0.46-0.91,1.06-1.38,1.81-1.38h9.16c1.14,0,1.61,0.58,1.45,1.71c-0.91,4.76-3.31,8.52-7.18,11.32
		C1176.82,662.85,1172.03,664.25,1166.31,664.25"/>
	<path class="st0" d="M1249.2,661.42c0.12,0.98-0.34,1.58-1.38,1.81c-2.34,0.69-4.46,1.03-6.42,1.03c-5.25,0-8.85-1.74-10.79-5.22
		c-3.99,3.48-8.79,5.22-14.38,5.22c-6.62,0-12.02-2.06-16.22-6.17c-4.19-4.11-6.3-9.41-6.3-15.92c0-6.56,2.11-11.91,6.3-16.01
		c4.21-4.11,9.6-6.16,16.22-6.16c4.75,0,8.81,1.32,12.17,3.94v-0.95c0-1.08,0.53-1.62,1.64-1.62h9.4c1.08,0,1.62,0.55,1.62,1.62
		v26.9c0,2.21,0.95,3.34,2.82,3.34c1.04,0,1.92-0.09,2.65-0.27c1.14-0.12,1.74,0.34,1.79,1.38L1249.2,661.42z M1217.34,654.23
		c3.2,0,5.79-1.13,7.81-3.39c2.01-2.26,2.99-5.15,2.99-8.69c0-3.59-0.98-6.52-2.99-8.77c-2.02-2.26-4.6-3.39-7.81-3.39
		c-3.25,0-5.9,1.13-7.96,3.39c-2.05,2.25-3.07,5.18-3.07,8.77c0,3.54,1.02,6.43,3.07,8.69
		C1211.44,653.11,1214.09,654.23,1217.34,654.23"/>
	<path class="st0" d="M1323.94,621.36c0.64,0,1.04,0.18,1.24,0.52c0.2,0.34,0.2,0.79-0.05,1.35l-21.31,47.44
		c-4.12,9.02-10.48,13.53-19.11,13.53c-3.76,0-7.13-0.45-10.09-1.36c-1.03-0.24-1.47-0.83-1.29-1.79l1.11-7.38
		c0.29-1.14,0.92-1.6,1.89-1.37c2.34,0.51,4.5,0.77,6.5,0.77c4.29,0,7.25-1.85,8.9-5.57l1.81-3.86l-20.28-40.41
		c-0.29-0.56-0.32-1.02-0.06-1.35c0.25-0.34,0.71-0.52,1.34-0.52h10.17c0.81,0,1.43,0.39,1.91,1.2l13.25,26.71l11.99-26.71
		c0.34-0.81,0.99-1.2,1.89-1.2H1323.94z"/>
	<path class="st0" d="M1383.8,664.17c-9.65,0-17.45-2.89-23.39-8.65c-5.93-5.76-8.89-13.33-8.89-22.69c0-9.36,2.94-16.91,8.86-22.65
		c5.92-5.73,13.72-8.6,23.43-8.6c7.47,0,13.99,1.85,19.54,5.52c5.57,3.69,9.28,8.63,11.1,14.86c0.34,1.19-0.12,1.79-1.37,1.79
		h-10.96c-0.92,0-1.54-0.42-1.87-1.29c-1.25-2.73-3.34-4.92-6.24-6.55c-2.92-1.63-6.25-2.43-10.02-2.43
		c-5.66,0-10.2,1.77-13.68,5.34c-3.45,3.56-5.18,8.23-5.18,14c0,5.88,1.76,10.6,5.23,14.17c3.48,3.56,8.02,5.34,13.63,5.34
		c3.83,0,7.23-1.04,10.23-3.12c3-2.09,5.03-4.81,6.12-8.18h-15.33c-1.08,0-1.64-0.54-1.64-1.62v-7.29c0-1.07,0.56-1.61,1.64-1.61
		h28.85c1.04,0,1.55,0.55,1.55,1.61c0,9.83-2.84,17.62-8.51,23.38C1401.2,661.28,1393.5,664.17,1383.8,664.17"/>
	<path class="st0" d="M1446.55,664.26c-7.02,0-12.7-2.03-17.03-6.08c-4.34-4.05-6.52-9.39-6.52-16.01c0-6.67,2.11-12.03,6.29-16.09
		c4.21-4.06,9.69-6.08,16.48-6.08c6.86,0,12.3,2,16.33,6c4.01,3.99,6.02,9.27,6.02,15.84c0,0.34,0,0.84-0.03,1.5
		c-0.03,0.66-0.06,1.13-0.06,1.4c-0.17,0.98-0.76,1.46-1.81,1.46h-30.74c0.69,2.56,2.05,4.6,4.07,6.08
		c2.03,1.49,4.44,2.23,7.24,2.23c3.13,0,5.48-0.86,7.02-2.56c0.72-0.58,1.42-0.87,2.05-0.87h9.58c0.62,0,1.08,0.16,1.34,0.49
		c0.25,0.31,0.27,0.72,0.04,1.24c-1.5,3.54-4.03,6.34-7.64,8.39C1455.63,663.23,1451.42,664.26,1446.55,664.26 M1435.42,638.57
		h20.47c-0.12-2.69-1.06-4.86-2.81-6.55c-1.78-1.68-4.1-2.53-6.97-2.53c-2.78,0-5.16,0.85-7.14,2.53
		C1436.99,633.71,1435.82,635.88,1435.42,638.57"/>
	<path class="st0" d="M1514.66,658.17c-4.29,4.06-9.99,6.08-17.08,6.08c-7.07,0-12.77-2.02-17.08-6.08
		c-4.3-4.05-6.47-9.39-6.47-16.01c0-6.67,2.17-12.03,6.47-16.09c4.31-4.06,10.02-6.08,17.08-6.08c7.09,0,12.79,2.02,17.08,6.08
		c4.33,4.06,6.47,9.42,6.47,16.09C1521.13,648.78,1518.99,654.12,1514.66,658.17 M1489.4,650.51c2.09,2.08,4.82,3.13,8.18,3.13
		c3.37,0,6.09-1.04,8.18-3.13c2.07-2.08,3.12-4.86,3.12-8.35c0-3.47-1.05-6.28-3.12-8.39c-2.09-2.11-4.81-3.18-8.18-3.18
		c-3.35,0-6.08,1.07-8.18,3.18c-2.08,2.11-3.12,4.92-3.12,8.39C1486.29,645.64,1487.33,648.43,1489.4,650.51"/>
	<path class="st0" d="M1573.01,621.35c1.08,0,1.62,0.55,1.62,1.63v40.94c0,6.03-2.11,10.94-6.34,14.68
		c-4.21,3.73-9.75,5.6-16.59,5.6c-6.18,0-11.33-1.43-15.46-4.28c-4.14-2.87-6.65-6.66-7.5-11.4c-0.29-1.08,0.23-1.61,1.57-1.61h9.59
		c0.77,0,1.39,0.42,1.87,1.28c0.58,1.71,1.73,3.08,3.5,4.08c1.77,0.99,3.9,1.49,6.35,1.49c3.07,0,5.52-0.88,7.34-2.65
		c1.83-1.77,2.75-4.14,2.75-7.12v-3.59c-3.24,2.45-7.22,3.68-11.91,3.68c-6.55,0-11.96-2.07-16.15-6.21
		c-4.26-4.14-6.36-9.42-6.36-15.88c0-6.44,2.1-11.73,6.36-15.85c4.19-4.11,9.6-6.16,16.15-6.16c4.75,0,8.81,1.32,12.17,3.94v-0.94
		c0-1.08,0.55-1.63,1.66-1.63H1573.01z M1550.93,653.97c3.18,0,5.79-1.11,7.79-3.33c2.01-2.23,2.99-5.12,2.99-8.65
		c0-3.55-1-6.42-3.03-8.65c-2.03-2.23-4.6-3.34-7.75-3.34c-3.2,0-5.84,1.13-7.92,3.39c-2.07,2.25-3.1,5.12-3.1,8.6
		c0,3.54,1.02,6.43,3.05,8.65C1545.03,652.86,1547.67,653.97,1550.93,653.97"/>
	<path class="st0" d="M1618.91,620.76c0.96,0.23,1.39,0.87,1.28,1.89l-1.1,8.21c-0.18,1.03-0.8,1.46-1.91,1.28
		c-1.41-0.28-2.98-0.42-4.7-0.42c-3.3,0-6.03,1.01-8.14,3.01c-2.1,1.98-3.14,4.71-3.14,8.12v18.42c0,1.08-0.55,1.63-1.64,1.63h-9.58
		c-1.1,0-1.65-0.55-1.65-1.63v-26.89c0-2.24-1.1-3.34-3.34-3.34c-0.21,0-0.85,0.08-1.87,0.26c-1.26,0-1.88-0.46-1.88-1.38v-7.02
		c0-0.97,0.41-1.6,1.29-1.89c1.99-0.68,4.04-1.03,6.17-1.03c5.13,0,8.59,1.95,10.35,5.82c3.55-3.87,8.18-5.82,13.96-5.82
		C1615.4,619.98,1617.36,620.24,1618.91,620.76"/>
	<path class="st0" d="M1678.85,661.42c0.11,0.97-0.34,1.58-1.37,1.81c-2.36,0.69-4.49,1.03-6.43,1.03c-5.25,0-8.86-1.74-10.78-5.22
		c-4.01,3.48-8.78,5.22-14.39,5.22c-6.62,0-12.03-2.04-16.22-6.17c-4.18-4.12-6.3-9.42-6.3-15.93c0-6.55,2.12-11.9,6.3-16.01
		c4.19-4.11,9.6-6.17,16.22-6.17c4.72,0,8.8,1.33,12.17,3.94v-0.94c0-1.08,0.55-1.63,1.61-1.63h9.42c1.09,0,1.61,0.55,1.61,1.63
		v26.9c0,2.21,0.96,3.34,2.85,3.34c1.02,0,1.9-0.08,2.64-0.27c1.15-0.11,1.75,0.34,1.81,1.38L1678.85,661.42z M1646.99,654.24
		c3.2,0,5.8-1.13,7.79-3.39c2.01-2.25,3-5.14,3-8.69c0-3.59-0.99-6.51-3-8.77c-1.99-2.25-4.59-3.38-7.79-3.38
		c-3.24,0-5.89,1.13-7.96,3.38c-2.07,2.26-3.08,5.18-3.08,8.77c0,3.55,1.01,6.44,3.08,8.69
		C1641.1,653.11,1643.74,654.24,1646.99,654.24 M1643.4,614.51c-0.57,0-0.98-0.18-1.24-0.56c-0.27-0.37-0.25-0.82,0.04-1.32
		l5.65-10.54c0.39-0.8,1.03-1.19,1.87-1.19h10.12c0.61,0,1.03,0.17,1.24,0.51c0.18,0.34,0.08,0.83-0.31,1.45l-7.28,10.7
		c-0.46,0.63-1.12,0.95-1.97,0.95H1643.4z"/>
	<path class="st0" d="M1692.98,662.89c-1.09,0-1.63-0.55-1.63-1.63v-29.54h-9.42c-1.07,0-1.63-0.54-1.63-1.62v-7.11
		c0-1.08,0.56-1.63,1.63-1.63h9.42v-4.97c0-5.6,1.73-10.03,5.18-13.32c3.45-3.28,8.13-4.92,14.01-4.92c3.71,0,7.06,0.45,10.02,1.37
		c0.97,0.29,1.35,0.88,1.19,1.79l-1.11,7.11c-0.16,1.21-0.83,1.66-1.97,1.37c-1.82-0.5-3.85-0.77-6.1-0.77
		c-2.5,0-4.51,0.68-6.02,2.02c-1.5,1.34-2.25,3.13-2.25,5.34v4.97h32.02c1.08,0,1.63,0.55,1.63,1.63v38.27
		c0,1.08-0.55,1.63-1.63,1.63h-9.68c-1.09,0-1.61-0.55-1.61-1.63v-29.54h-20.73v29.54c0,1.08-0.56,1.63-1.64,1.63H1692.98z
		 M1731.5,613.74c-2.18,0-4-0.69-5.48-2.06c-1.49-1.37-2.22-3.05-2.22-5.05c0-2.01,0.73-3.67,2.22-5.01
		c1.48-1.35,3.3-2.02,5.48-2.02c2.11,0,3.91,0.66,5.39,2.02c1.48,1.34,2.23,3,2.23,5.01c0,2-0.75,3.68-2.23,5.05
		S1733.61,613.74,1731.5,613.74"/>
	<path class="st0" d="M1769.09,664.25c-7.07,0-12.76-2.02-17.08-6.08c-4.29-4.05-6.44-9.39-6.44-16.01c0-6.67,2.15-12.03,6.44-16.09
		c4.32-4.05,10.02-6.08,17.08-6.08c5.7,0,10.5,1.39,14.39,4.2c3.88,2.79,6.28,6.57,7.18,11.3c0.18,1.14-0.32,1.71-1.46,1.71h-9.16
		c-0.79,0-1.39-0.45-1.78-1.38c-0.64-1.65-1.76-2.97-3.39-3.97c-1.64-1.02-3.55-1.5-5.79-1.5c-3.36,0-6.08,1.08-8.13,3.25
		c-2.06,2.17-3.08,5.03-3.08,8.55c0,3.56,1.03,6.39,3.08,8.53c2.05,2.14,4.76,3.22,8.13,3.22c2.24,0,4.17-0.5,5.83-1.46
		c1.66-0.97,2.76-2.32,3.34-4.02c0.45-0.91,1.05-1.38,1.78-1.38h9.16c1.14,0,1.64,0.58,1.46,1.71c-0.91,4.76-3.3,8.52-7.18,11.32
		C1779.59,662.85,1774.79,664.25,1769.09,664.25"/>
	<path class="st0" d="M1851.99,661.42c0.1,0.98-0.36,1.58-1.39,1.81c-2.34,0.69-4.47,1.03-6.43,1.03c-5.24,0-8.84-1.74-10.78-5.22
		c-4,3.48-8.78,5.22-14.39,5.22c-6.6,0-12.01-2.06-16.22-6.17c-4.19-4.11-6.29-9.41-6.29-15.92c0-6.56,2.1-11.91,6.29-16.01
		c4.21-4.11,9.62-6.16,16.22-6.16c4.74,0,8.81,1.32,12.16,3.94v-0.95c0-1.08,0.56-1.62,1.65-1.62h9.41c1.08,0,1.61,0.55,1.61,1.62
		v26.9c0,2.21,0.95,3.34,2.84,3.34c1.01,0,1.89-0.09,2.64-0.27c1.14-0.12,1.76,0.34,1.8,1.38L1851.99,661.42z M1820.13,654.23
		c3.2,0,5.8-1.13,7.78-3.39c2.01-2.26,2.99-5.15,2.99-8.69c0-3.59-0.98-6.52-2.99-8.77c-1.98-2.26-4.58-3.39-7.78-3.39
		c-3.26,0-5.91,1.13-7.98,3.39c-2.03,2.25-3.04,5.18-3.04,8.77c0,3.54,1.01,6.43,3.04,8.69
		C1814.22,653.11,1816.87,654.23,1820.13,654.23"/>
	<path class="st0" d="M805.94,762.11c0.17,0.97-0.26,1.56-1.29,1.79c-2.34,0.68-4.53,1.03-6.59,1.03c-5.31,0-8.91-1.78-10.78-5.38
		c-3.79,3.6-8.52,5.38-14.23,5.38c-6.6,0-12.02-2.04-16.22-6.15c-4.19-4.11-6.29-9.43-6.29-15.93c0-6.56,2.1-11.9,6.29-16.01
		c4.2-4.11,9.61-6.17,16.22-6.17c4.57,0,8.54,1.22,11.91,3.67v-22.51c0-1.08,0.53-1.64,1.61-1.64h9.68c1.09,0,1.63,0.55,1.63,1.64
		v48.8c0,2.18,0.95,3.26,2.81,3.26c1.04,0,1.9-0.08,2.58-0.24c1.2-0.13,1.83,0.34,1.87,1.35L805.94,762.11z M774.18,754.92
		c3.18,0,5.79-1.13,7.79-3.38c1.99-2.26,3-5.18,3-8.7c0-3.6-1.01-6.52-3-8.76c-2-2.26-4.6-3.39-7.79-3.39
		c-3.28,0-5.9,1.13-7.98,3.39c-2.03,2.24-3.06,5.17-3.06,8.76c0,3.52,1.03,6.44,3.06,8.7C768.28,753.8,770.9,754.92,774.18,754.92"
		/>
	<path class="st0" d="M834.19,764.93c-7.02,0-12.7-2.02-17.04-6.07c-4.34-4.06-6.5-9.4-6.5-16.01c0-6.67,2.09-12.06,6.29-16.1
		c4.19-4.06,9.69-6.08,16.48-6.08c6.85,0,12.3,1.99,16.31,5.99c4.02,4.01,6.04,9.28,6.04,15.84c0,0.35,0,0.85-0.04,1.5
		c-0.04,0.66-0.06,1.13-0.06,1.42c-0.17,0.97-0.76,1.45-1.8,1.45h-30.73c0.7,2.58,2.03,4.6,4.06,6.08c2.03,1.49,4.44,2.22,7.24,2.22
		c3.13,0,5.48-0.85,7.03-2.56c0.72-0.57,1.4-0.87,2.05-0.87h9.58c0.64,0,1.07,0.17,1.33,0.49c0.27,0.3,0.29,0.72,0.04,1.24
		c-1.49,3.55-4.02,6.34-7.61,8.38C843.27,763.91,839.05,764.93,834.19,764.93 M823.07,739.25h20.47c-0.13-2.67-1.07-4.86-2.83-6.55
		c-1.79-1.68-4.08-2.53-6.95-2.53c-2.8,0-5.16,0.85-7.15,2.53C824.64,734.39,823.45,736.58,823.07,739.25"/>
	<path class="st0" d="M903.97,764.93c-6.61,0-12.07-1.73-16.34-5.2c-4.27-3.5-6.76-8.21-7.38-14.15c-0.18-1.13,0.38-1.71,1.62-1.71
		h10.11c0.94,0,1.45,0.49,1.63,1.45c0.45,2.45,1.67,4.41,3.68,5.86c1.99,1.46,4.46,2.18,7.37,2.18c3.26,0,5.86-1.12,7.85-3.34
		c1.95-2.23,2.93-5.17,2.93-8.82v-26.2h-25.07c-1.1,0-1.63-0.54-1.63-1.63v-8.13c0-1.08,0.53-1.62,1.63-1.62h37.07
		c1.08,0,1.61,0.55,1.61,1.62v35.79c0,7.6-2.17,13.48-6.55,17.64C918.15,762.86,911.96,764.93,903.97,764.93"/>
	<path class="st0" d="M991.92,762.11c0.1,0.97-0.36,1.56-1.39,1.79c-2.34,0.68-4.47,1.03-6.43,1.03c-5.25,0-8.83-1.73-10.78-5.23
		c-4,3.5-8.8,5.23-14.39,5.23c-6.6,0-12.02-2.04-16.21-6.15c-4.22-4.11-6.3-9.43-6.3-15.93c0-6.56,2.08-11.9,6.3-16.01
		c4.19-4.11,9.6-6.17,16.21-6.17c4.74,0,8.8,1.32,12.15,3.94v-0.95c0-1.08,0.55-1.62,1.66-1.62h9.41c1.08,0,1.61,0.54,1.61,1.62
		v26.89c0,2.23,0.96,3.34,2.84,3.34c1.02,0,1.9-0.08,2.66-0.24c1.13-0.13,1.73,0.34,1.79,1.35L991.92,762.11z M960.06,754.92
		c3.2,0,5.79-1.13,7.79-3.38c2-2.26,2.98-5.18,2.98-8.7c0-3.6-0.98-6.52-2.98-8.76c-2-2.26-4.59-3.39-7.79-3.39
		c-3.26,0-5.92,1.13-7.98,3.39c-2.03,2.24-3.06,5.17-3.06,8.76c0,3.52,1.03,6.44,3.06,8.7C954.15,753.8,956.8,754.92,960.06,754.92"
		/>
	<path class="st0" d="M1011.69,764.93c-3.99,0-7.18-0.89-9.56-2.72c-2.35-1.83-3.55-4.33-3.55-7.45v-52.93
		c0-1.08,0.55-1.63,1.64-1.63h9.59c1.08,0,1.62,0.55,1.62,1.63v48.81c0,2.18,0.97,3.27,2.91,3.27c0.97,0,1.83-0.09,2.58-0.26
		c1.13-0.13,1.73,0.34,1.8,1.35l0.85,7.12c0.11,0.96-0.34,1.56-1.38,1.79C1015.92,764.59,1013.72,764.93,1011.69,764.93"/>
	<path class="st0" d="M1038.1,712.37c-1.45,1.36-3.27,2.05-5.44,2.05c-2.17,0-3.98-0.69-5.42-2.05c-1.48-1.38-2.19-3.05-2.19-5.05
		c0-1.99,0.71-3.67,2.19-5.01c1.44-1.34,3.25-2.01,5.42-2.01c2.17,0,3.98,0.66,5.44,2.01c1.45,1.34,2.19,3.02,2.19,5.01
		C1040.29,709.32,1039.55,710.99,1038.1,712.37 M1027.87,763.58c-1.08,0-1.63-0.55-1.63-1.64v-38.27c0-1.08,0.55-1.62,1.63-1.62
		h9.59c1.08,0,1.62,0.54,1.62,1.62v38.27c0,1.08-0.54,1.64-1.62,1.64H1027.87z"/>
	<path class="st0" d="M1067.26,764.93c-6,0-10.89-1.18-14.65-3.55c-3.76-2.36-5.96-5.66-6.6-9.88c-0.17-1.15,0.39-1.73,1.65-1.73
		l8.38,0.09c0.76,0,1.38,0.4,1.89,1.2c1.2,3.08,4.3,4.62,9.34,4.62c2.11,0,3.81-0.34,5.08-1.03c1.29-0.68,1.94-1.59,1.94-2.74
		c0-1.49-0.92-2.55-2.76-3.22c-1.81-0.65-4.07-1.14-6.66-1.45c-2.64-0.32-5.25-0.77-7.89-1.41c-2.61-0.63-4.85-1.91-6.67-3.84
		c-1.84-1.95-2.75-4.58-2.75-7.89c0-4.04,1.75-7.29,5.23-9.76c3.49-2.45,8.07-3.68,13.79-3.68c5.36,0,9.86,1.14,13.49,3.39
		c3.63,2.25,5.72,5.23,6.29,8.95c0.17,1.13-0.34,1.72-1.54,1.72h-8.48c-0.75,0-1.31-0.36-1.71-1.04c-0.52-1.24-1.5-2.26-2.96-3.03
		c-1.45-0.78-3.1-1.15-4.92-1.15c-2,0-3.62,0.32-4.84,0.98c-1.24,0.66-1.84,1.52-1.84,2.6c0,1.55,0.92,2.69,2.81,3.43
		c1.82,0.74,4.08,1.29,6.72,1.66c2.67,0.38,5.31,0.88,7.93,1.5c2.61,0.63,4.86,1.92,6.71,3.85c1.86,1.95,2.8,4.55,2.8,7.8
		c0,4.18-1.76,7.48-5.31,9.92C1078.17,763.7,1073.36,764.93,1067.26,764.93"/>
	<path class="st0" d="M1116.32,764.93c-7.09,0-12.78-2.02-17.08-6.07c-4.32-4.06-6.47-9.39-6.47-16.01c0-6.67,2.15-12.05,6.47-16.1
		c4.3-4.05,9.99-6.08,17.08-6.08c5.7,0,10.5,1.4,14.37,4.19c3.89,2.79,6.28,6.58,7.2,11.32c0.19,1.13-0.32,1.7-1.46,1.7h-9.14
		c-0.8,0-1.42-0.45-1.81-1.36c-0.62-1.66-1.76-2.98-3.39-3.98c-1.63-1-3.54-1.5-5.77-1.5c-3.38,0-6.08,1.1-8.13,3.27
		c-2.07,2.15-3.1,5.02-3.1,8.55c0,3.55,1.03,6.38,3.1,8.52c2.05,2.14,4.76,3.21,8.13,3.21c2.23,0,4.16-0.49,5.81-1.46
		c1.66-0.97,2.76-2.31,3.34-4.02c0.45-0.92,1.05-1.37,1.81-1.37h9.14c1.14,0,1.65,0.57,1.46,1.71c-0.92,4.74-3.31,8.51-7.2,11.31
		C1126.83,763.54,1122.02,764.93,1116.32,764.93"/>
	<path class="st0" d="M1184.35,758.87c-4.31,4.05-10.01,6.07-17.08,6.07c-7.08,0-12.78-2.02-17.1-6.07
		c-4.29-4.06-6.45-9.39-6.45-16.01c0-6.67,2.16-12.06,6.45-16.1c4.32-4.06,10.02-6.08,17.1-6.08c7.07,0,12.77,2.02,17.08,6.08
		c4.31,4.04,6.44,9.43,6.44,16.1C1190.79,749.47,1188.66,754.81,1184.35,758.87 M1159.07,751.2c2.09,2.09,4.82,3.12,8.19,3.12
		c3.36,0,6.09-1.03,8.16-3.12c2.1-2.08,3.13-4.86,3.13-8.34s-1.03-6.28-3.13-8.39c-2.07-2.11-4.8-3.17-8.16-3.17
		c-3.37,0-6.1,1.06-8.19,3.17c-2.08,2.12-3.12,4.92-3.12,8.39S1157,749.11,1159.07,751.2"/>
	<path class="st0" d="M450.72,402.05v349.46l-29.22,0.25V498.25l-30.77-0.13l38.11-73.03l0.36-0.91
		c10.89-29.09,7.01-61.87-10.39-87.66c-17.39-25.79-45.06-41.02-75.96-41.79c-1.71-0.05-3.42-0.05-5.11,0
		c-30.88,0.77-58.56,16.01-75.96,41.79c-17.4,25.79-21.27,58.57-10.37,87.66l0.35,0.91l37.85,72.58l-30.53-0.16v253.82l-30.25,0.03
		V592.12H67.46v191.66h33.99V626.1h93.43v159.28l98.2-0.12V531.65l14.33,0.07l32.89,63.03l32.73-62.74l14.51,0.07v253.93l97.16-0.8
		v-349.2h93.44v347.78h33.97V402.05H450.72z M354.88,497.95l-14.6,27.95l-14.64-28.07l-44.73-85.69
		c-7.01-19.51-4.37-40.53,7.29-57.81c11.55-17.13,29.9-27.25,50.35-27.76c1.14-0.03,2.33-0.03,3.5,0
		c20.44,0.51,38.78,10.63,50.33,27.76c11.66,17.27,14.29,38.3,7.27,57.81L354.88,497.95z"/>
	<path class="st0" d="M339.78,434.94c-26.35,0-47.78-21.43-47.78-47.77s21.43-47.77,47.78-47.77c26.35,0,47.78,21.43,47.78,47.77
		S366.13,434.94,339.78,434.94 M339.78,371.25c-8.8,0-15.93,7.15-15.93,15.92s7.13,15.92,15.93,15.92c8.79,0,15.93-7.15,15.93-15.92
		S348.57,371.25,339.78,371.25"/>
</g>
</svg>
