<svg width="640" height="480" xmlns="http://www.w3.org/2000/svg">
 <style type="text/css">.st0{fill:#FFFFFF;}</style>

 <g>
  <title>background</title>
  <rect fill="none" id="canvas_background" height="482" width="642" y="-1" x="-1"/>
 </g>
 <g>
  <title>Layer 1</title>
  <g stroke="null" id="svg_1">
   <path stroke="null" id="svg_2" d="m740.615677,161.561191c-2.521249,0 -3.76605,-1.117338 -3.76605,-3.370793l0,-16.825798c0,-2.244066 1.244801,-3.361404 3.76605,-3.361404l19.71638,0l0,-76.889767l-19.71638,0c-2.521249,0 -3.76605,-1.117338 -3.76605,-3.370793l0,-16.825798c0,-2.244066 1.244801,-3.370793 3.76605,-3.370793l70.658272,0c2.647839,0 3.987582,1.117338 3.987582,3.370793l0,16.825798c0,2.244066 -1.339743,3.370793 -3.987582,3.370793l-19.70583,0l0,76.889767l19.70583,0c2.647839,0 3.987582,1.107949 3.987582,3.361404l0,16.825798c0,2.244066 -1.339743,3.370793 -3.987582,3.370793l-70.658272,0z" class="st0"/>
   <path stroke="null" id="svg_3" d="m835.378779,161.561191c-2.531798,0 -3.797698,-1.117338 -3.797698,-3.370793l0,-16.825798c0,-2.244066 1.265899,-3.361404 3.797698,-3.361404l19.684732,0l0,-76.889767l-19.684732,0c-2.531798,0 -3.797698,-1.117338 -3.797698,-3.370793l0,-16.825798c0,-2.244066 1.265899,-3.370793 3.797698,-3.370793l70.658272,0c2.647839,0 3.977033,1.117338 3.977033,3.370793l0,16.825798c0,2.244066 -1.329194,3.370793 -3.977033,3.370793l-19.71638,0l0,76.889767l19.71638,0c2.647839,0 3.977033,1.107949 3.977033,3.361404l0,16.825798c0,2.244066 -1.329194,3.370793 -3.977033,3.370793l-70.658272,0z" class="st0"/>
   <path stroke="null" id="svg_4" d="m1040.3806,57.385839c0,2.131393 -1.276448,3.183005 -3.76605,3.183005l-71.670991,0l0,28.168189l62.303337,0c2.500151,0 3.76605,1.061002 3.76605,3.183005l0,16.290603c0,2.244066 -1.265899,3.370793 -3.76605,3.370793l-62.303337,0l0,26.938178l71.670991,0c2.489602,0 3.76605,1.061002 3.76605,3.183005l0,16.469001c0,2.253455 -1.276448,3.370793 -3.76605,3.370793l-98.940569,0c-2.668937,0 -3.987582,-1.107949 -3.987582,-3.370793l0,-117.27356c0,-2.244066 1.318645,-3.370793 3.987582,-3.370793l98.940569,0c2.489602,0 3.76605,1.117338 3.76605,3.370793l0,16.48778z" class="st0"/>
   <path stroke="null" id="svg_5" d="m1129.552648,164.21839c-22.427514,0 -40.55097,-5.962267 -54.349271,-17.896189c-13.798301,-11.924533 -20.686902,-27.576657 -20.686902,-46.937592c0,-19.379714 6.856954,-34.984891 20.602509,-46.853088c13.735006,-11.877586 31.869012,-17.802295 54.444213,-17.802295c17.385015,0 32.533609,3.802706 45.477428,11.426895c12.93327,7.6148 21.551933,17.868021 25.771597,30.740884c0.801736,2.469411 -0.263729,3.718201 -3.185846,3.718201l-25.476221,0c-2.13093,0 -3.586714,-0.891993 -4.38845,-2.657199c-2.911568,-5.671195 -7.753632,-10.187495 -14.505095,-13.558288c-6.772561,-3.370793 -14.547291,-5.051495 -23.292545,-5.051495c-13.154802,0 -23.714511,3.699422 -31.76352,11.070098c-8.006812,7.389455 -12.036591,17.051144 -12.036591,28.966288c0,12.168658 4.061427,21.943019 12.163181,29.313695c8.070107,7.389455 18.619267,11.088877 31.63693,11.088877c8.882393,0 16.815361,-2.159561 23.777806,-6.469294c6.962445,-4.309733 11.720116,-9.95276 14.241366,-16.919692l-35.624512,0c-2.531798,0 -3.797698,-1.117338 -3.797698,-3.370793l0,-15.060592c0,-2.244066 1.265899,-3.361404 3.797698,-3.361404l67.050459,0c2.394659,0 3.597263,1.117338 3.597263,3.361404c0,20.318654 -6.603774,36.440247 -19.821871,48.364781c-13.207548,11.924533 -31.088374,17.8868 -53.631928,17.8868" class="st0"/>
   <path stroke="null" id="svg_6" d="m735.393843,257.173414c-1.139309,0 -1.698415,-0.507027 -1.698415,-1.521082l0,-7.633579c0,-1.023444 0.569655,-1.530472 1.698415,-1.530472l8.956237,0l0,-34.881607l-8.956237,0c-1.139309,0 -1.698415,-0.516417 -1.698415,-1.54925l0,-7.62419c0,-1.014055 0.569655,-1.530472 1.698415,-1.530472l32.069446,0c1.213153,0 1.803906,0.516417 1.803906,1.530472l0,7.62419c0,1.023444 -0.590753,1.54925 -1.803906,1.54925l-8.956237,0l0,34.881607l8.956237,0c1.213153,0 1.803906,0.507027 1.803906,1.530472l0,7.633579c0,1.014055 -0.590753,1.521082 -1.803906,1.521082l-32.069446,0z" class="st0"/>
   <path stroke="null" id="svg_7" d="m807.666136,216.902293c5.907529,0 10.67575,1.614976 14.283562,4.854318c3.618362,3.239342 5.411719,7.549075 5.411719,12.91042l0,20.975911c0,1.014055 -0.569655,1.521082 -1.708964,1.521082l-10.106095,0c-1.223703,0 -1.825005,-0.507027 -1.825005,-1.521082l0,-19.379714c0,-2.741704 -0.854482,-4.929433 -2.573995,-6.591356c-1.708964,-1.652534 -4.01923,-2.497579 -6.9097,-2.497579c-3.01706,0 -5.422268,0.798099 -7.257822,2.375517c-1.846103,1.586808 -2.742782,3.680643 -2.742782,6.300285l0,19.783458c0,1.014055 -0.590753,1.521082 -1.719513,1.521082l-10.127193,0c-1.139309,0 -1.708964,-0.507027 -1.708964,-1.521082l0,-25.248087c0,-2.093835 -1.192055,-3.145448 -3.523419,-3.145448c-0.25318,0 -0.907228,0.093894 -2.00434,0.253514c-1.308096,0 -1.972693,-0.422523 -1.972693,-1.276958l0,-6.591356c0,-0.910771 0.453614,-1.502303 1.339743,-1.774596c1.898849,-0.638479 4.040328,-0.957718 6.519381,-0.957718c5.179637,0 8.766352,1.680702 10.844536,5.060885c3.76605,-3.370793 9.019532,-5.051495 15.781543,-5.051495" class="st0"/>
   <path stroke="null" id="svg_8" d="m856.266115,258.459761c-6.329496,0 -11.466937,-1.117338 -15.454519,-3.342625c-3.987582,-2.215898 -6.297848,-5.323788 -6.951896,-9.286113c-0.189885,-1.061002 0.390319,-1.605587 1.698415,-1.605587l8.850745,0.075115c0.801736,0 1.466333,0.375576 2.01489,1.136117c1.244801,2.891934 4.51504,4.328512 9.831817,4.328512c2.236422,0 4.01923,-0.319239 5.358973,-0.967108c1.371391,-0.638479 2.025439,-1.492914 2.025439,-2.563305c0,-1.39902 -0.959974,-2.403685 -2.89047,-3.023386c-1.909398,-0.6197 -4.27241,-1.061002 -7.046839,-1.361462c-2.76388,-0.300461 -5.517211,-0.751152 -8.29164,-1.333294c-2.795527,-0.591532 -5.126892,-1.802764 -7.067937,-3.624307c-1.909398,-1.812153 -2.869371,-4.281565 -2.869371,-7.389455c0,-3.802706 1.825005,-6.863649 5.506661,-9.164051c3.671108,-2.300402 8.513172,-3.455298 14.547291,-3.455298c5.664899,0 10.401472,1.051612 14.199169,3.173616c3.860992,2.112614 6.055218,4.920044 6.645971,8.40351c0.189885,1.079781 -0.358671,1.605587 -1.63512,1.605587l-8.924589,0c-0.791187,0 -1.392489,-0.319239 -1.814455,-0.957718c-0.538007,-1.183064 -1.582374,-2.150172 -3.112002,-2.854376c-1.529628,-0.732373 -3.25969,-1.08917 -5.190187,-1.08917c-2.109832,0 -3.797698,0.319239 -5.105793,0.920161c-1.286997,0.6197 -1.919947,1.436578 -1.919947,2.441243c0,1.455356 0.970523,2.525748 2.932666,3.229952c1.941045,0.685426 4.325155,1.220622 7.131232,1.55864c2.795527,0.347408 5.580506,0.816877 8.365484,1.408409c2.753331,0.591532 5.126892,1.802764 7.078486,3.614918c1.962144,1.830932 2.932666,4.262786 2.932666,7.323729c0,3.915378 -1.856652,7.023268 -5.612153,9.323671c-3.702755,2.32857 -8.808548,3.474077 -15.232987,3.474077" class="st0"/>
   <path stroke="null" id="svg_9" d="m909.170151,258.459761c-5.886431,0 -10.528061,-1.492914 -13.956538,-4.469353c-3.396829,-2.985828 -5.084695,-7.032658 -5.084695,-12.178047l0,-13.905696l-8.333836,0c-1.139309,0 -1.698415,-0.516417 -1.698415,-1.521082l0,-6.675861c0,-1.014055 0.559105,-1.530472 1.698415,-1.530472l8.333836,0l0,-10.206274c0,-1.023444 0.559105,-1.530472 1.708964,-1.530472l10.116644,0c1.149858,0 1.740611,0.507027 1.740611,1.530472l0,10.206274l14.156972,0c1.139309,0 1.719513,0.516417 1.719513,1.530472l0,6.675861c0,1.014055 -0.580204,1.521082 -1.719513,1.521082l-14.156972,0l0,13.511341c0,2.037499 0.654048,3.633696 2.01489,4.81676c1.350292,1.173675 3.185846,1.765207 5.475014,1.765207c2.331364,0 4.588884,-0.244124 6.751462,-0.713594c1.139309,-0.169009 1.803906,0.225346 2.01489,1.192453l1.170957,6.910596c0.042197,0.863824 -0.400868,1.455356 -1.38194,1.774596c-3.839894,0.863824 -7.363313,1.295737 -10.570258,1.295737" class="st0"/>
   <path stroke="null" id="svg_10" d="m940.743786,209.090315c-1.519079,1.286347 -3.439026,1.934216 -5.717645,1.934216c-2.299717,0 -4.198566,-0.647868 -5.728194,-1.934216c-1.571825,-1.276958 -2.320815,-2.863766 -2.320815,-4.732256c0,-1.896658 0.74899,-3.455298 2.320815,-4.713477c1.529628,-1.258179 3.417928,-1.887269 5.728194,-1.887269c2.278619,0 4.198566,0.6197 5.717645,1.887269c1.550726,1.258179 2.310266,2.816819 2.310266,4.713477c0,1.86849 -0.75954,3.455298 -2.310266,4.732256m-10.770692,48.083099c-1.160408,0 -1.719513,-0.507027 -1.719513,-1.521082l0,-35.942609c0,-1.014055 0.559105,-1.530472 1.719513,-1.530472l10.095546,0c1.160408,0 1.730062,0.516417 1.730062,1.530472l0,35.93322c0,1.014055 -0.569655,1.521082 -1.730062,1.521082l-10.095546,0l0,0.009389z" class="st0"/>
   <path stroke="null" id="svg_11" d="m975.935783,258.459761c-5.907529,0 -10.54916,-1.492914 -13.956538,-4.469353c-3.407379,-2.985828 -5.116342,-7.032658 -5.116342,-12.178047l0,-13.905696l-8.29164,0c-1.149858,0 -1.719513,-0.516417 -1.719513,-1.521082l0,-6.675861c0,-1.014055 0.569655,-1.530472 1.719513,-1.530472l8.29164,0l0,-10.206274c0,-1.023444 0.580204,-1.530472 1.730062,-1.530472l10.116644,0c1.139309,0 1.740611,0.507027 1.740611,1.530472l0,10.206274l14.167522,0c1.139309,0 1.740611,0.516417 1.740611,1.530472l0,6.675861c0,1.014055 -0.590753,1.521082 -1.740611,1.521082l-14.167522,0l0,13.511341c0,2.037499 0.654048,3.633696 2.01489,4.81676c1.360842,1.173675 3.175297,1.765207 5.464465,1.765207c2.331364,0 4.599434,-0.244124 6.78311,-0.713594c1.139309,-0.169009 1.803906,0.225346 1.983242,1.192453l1.160408,6.910596c0.073844,0.863824 -0.369221,1.455356 -1.339743,1.774596c-3.860992,0.863824 -7.384412,1.295737 -10.580807,1.295737" class="st0"/>
   <path stroke="null" id="svg_12" d="m1049.357935,255.802562c0.073844,0.910771 -0.37977,1.474135 -1.329194,1.690091c-2.542347,0.638479 -4.820966,0.967108 -6.888601,0.967108c-5.833685,0 -9.874014,-1.55864 -12.099886,-4.66653c-3.797698,3.10789 -8.903491,4.66653 -15.359577,4.66653c-5.833685,0 -10.54916,-1.624366 -14.125325,-4.863707c-3.565616,-3.239342 -5.369522,-7.549075 -5.369522,-12.901031l0,-20.985301c0,-1.014055 0.580204,-1.539861 1.719513,-1.539861l10.106095,0c1.139309,0 1.719513,0.516417 1.719513,1.539861l0,19.370325c0,2.741704 0.854482,4.929433 2.584544,6.591356c1.698415,1.661923 4.01923,2.497579 6.888601,2.497579c3.027609,0 5.432817,-0.788709 7.236724,-2.384907c1.803906,-1.577419 2.721683,-3.671254 2.721683,-6.290896l0,-19.783458c0,-1.014055 0.559105,-1.539861 1.708964,-1.539861l10.201037,0c1.149858,0 1.740611,0.516417 1.740611,1.539861l0,25.238697c0,2.093835 0.981072,3.136058 2.964314,3.136058c1.076014,0 2.025439,-0.075115 2.806076,-0.234735c1.139309,-0.112673 1.803906,0.319239 1.972693,1.286347l0.801736,6.666471z" class="st0"/>
   <path stroke="null" id="svg_13" d="m1080.077088,258.459761c-5.89698,0 -10.54916,-1.492914 -13.956538,-4.469353c-3.38628,-2.985828 -5.095244,-7.032658 -5.095244,-12.178047l0,-13.905696l-8.323287,0c-1.139309,0 -1.698415,-0.516417 -1.698415,-1.521082l0,-6.675861c0,-1.014055 0.569655,-1.530472 1.698415,-1.530472l8.323287,0l0,-10.206274c0,-1.023444 0.569655,-1.530472 1.708964,-1.530472l10.127193,0c1.139309,0 1.730062,0.507027 1.730062,1.530472l0,10.206274l14.178071,0c1.139309,0 1.708964,0.516417 1.708964,1.530472l0,6.675861c0,1.014055 -0.580204,1.521082 -1.708964,1.521082l-14.178071,0l0,13.511341c0,2.037499 0.664597,3.633696 2.01489,4.81676c1.360842,1.173675 3.185846,1.765207 5.485563,1.765207c2.331364,0 4.578335,-0.244124 6.762011,-0.713594c1.12876,-0.169009 1.793357,0.225346 1.983242,1.192453l1.170957,6.910596c0.063295,0.863824 -0.390319,1.455356 -1.360842,1.774596c-3.850443,0.863824 -7.384412,1.295737 -10.570258,1.295737" class="st0"/>
   <path stroke="null" id="svg_14" d="m1139.637644,252.741619c-4.546688,3.812095 -10.538611,5.718142 -18.017965,5.718142c-7.458256,0 -13.471277,-1.906047 -18.017965,-5.718142c-4.536139,-3.802706 -6.804208,-8.816643 -6.804208,-15.032424c0,-6.272117 2.268069,-11.304833 6.804208,-15.116928c4.546688,-3.812095 10.570258,-5.699364 18.017965,-5.699364c7.479354,0 13.471277,1.896658 18.017965,5.699364c4.567786,3.812095 6.825306,8.844811 6.825306,15.116928c0,6.22517 -2.25752,11.229718 -6.825306,15.032424m-26.647178,-7.192278c2.194225,1.962384 5.074146,2.929492 8.629213,2.929492c3.555067,0 6.424438,-0.967108 8.629213,-2.929492c2.194225,-1.952994 3.291338,-4.563247 3.291338,-7.830757s-1.086563,-5.896541 -3.291338,-7.877704c-2.204774,-1.999941 -5.074146,-2.985828 -8.629213,-2.985828c-3.555067,0 -6.424438,0.985887 -8.629213,2.985828c-2.194225,1.981163 -3.291338,4.600804 -3.291338,7.877704s1.107662,5.887152 3.291338,7.830757" class="st0"/>
   <path stroke="null" id="svg_15" d="m1232.449152,255.802562c0.179336,0.920161 -0.274278,1.474135 -1.360842,1.690091c-2.468503,0.638479 -4.778769,0.967108 -6.941347,0.967108c-5.622702,0 -9.399301,-1.699481 -11.382543,-5.060885c-3.966484,3.370793 -8.977335,5.060885 -15.011454,5.060885c-6.962445,0 -12.669541,-1.934216 -17.089639,-5.793258c-4.451745,-3.859042 -6.667069,-8.835422 -6.667069,-14.957308c0,-6.150055 2.215324,-11.182771 6.667069,-15.032424c4.420098,-3.859042 10.127193,-5.774479 17.089639,-5.774479c4.820966,0 9.008982,1.154896 12.5535,3.445908l0,-21.144921c0,-1.014055 0.580204,-1.530472 1.730062,-1.530472l10.211587,0c1.139309,0 1.698415,0.516417 1.698415,1.530472l0,45.829644c0,2.037499 1.023268,3.051554 2.995961,3.051554c1.076014,0 1.993791,-0.075115 2.721683,-0.234735c1.25535,-0.122062 1.909398,0.319239 1.983242,1.286347l0.801736,6.666471zm-33.51468,-6.750976c3.375731,0 6.129062,-1.061002 8.217795,-3.173616c2.120381,-2.122004 3.154199,-4.835539 3.154199,-8.168775c0,-3.370793 -1.033818,-6.121886 -3.154199,-8.234501c-2.088734,-2.122004 -4.842064,-3.183005 -8.217795,-3.183005c-3.428477,0 -6.224004,1.061002 -8.397131,3.183005c-2.162578,2.112614 -3.249141,4.863707 -3.249141,8.234501c0,3.333236 1.086563,6.046771 3.249141,8.168775c2.183676,2.112614 4.968654,3.173616 8.397131,3.173616" class="st0"/>
   <path stroke="null" id="svg_16" d="m1262.239979,258.469151c-7.394961,0 -13.397433,-1.915437 -17.95467,-5.718142c-4.578335,-3.802706 -6.878052,-8.816643 -6.878052,-15.032424c0,-6.272117 2.225873,-11.304833 6.645971,-15.116928c4.430647,-3.812095 10.211587,-5.699364 17.385015,-5.699364c7.226174,0 12.964917,1.86849 17.216229,5.624248c4.230213,3.755759 6.371692,8.71336 6.371692,14.872804c0,0.319239 0,0.77932 -0.042197,1.39902c-0.031647,0.62909 -0.052746,1.061002 -0.052746,1.333294c-0.179336,0.920161 -0.801736,1.361462 -1.909398,1.361462l-32.407019,0c0.727892,2.413075 2.141479,4.319122 4.293508,5.718142c2.13093,1.389631 4.673278,2.093835 7.627042,2.093835c3.312436,0 5.78094,-0.816877 7.40551,-2.413075c0.780638,-0.544585 1.50853,-0.816877 2.173127,-0.816877l10.106095,0c0.675146,0 1.12876,0.15023 1.413587,0.441302c0.284827,0.30985 0.295376,0.694815 0.052746,1.164285c-1.571825,3.323846 -4.240762,5.952877 -8.049009,7.877704c-3.818796,1.934216 -8.259992,2.910713 -13.397433,2.910713m-11.720116,-24.130749l21.583581,0c-0.137139,-2.516358 -1.12876,-4.572636 -2.974863,-6.150055c-1.856652,-1.586808 -4.304057,-2.384907 -7.310568,-2.384907c-2.964314,0 -5.464465,0.798099 -7.542649,2.384907c-2.099283,1.577419 -3.354633,3.633696 -3.755501,6.150055" class="st0"/>
   <path stroke="null" id="svg_17" d="m1313.477248,257.173414c-1.139309,0 -1.708964,-0.507027 -1.708964,-1.521082l0,-7.633579c0,-1.023444 0.569655,-1.530472 1.708964,-1.530472l8.945687,0l0,-34.881607l-8.945687,0c-1.139309,0 -1.708964,-0.516417 -1.708964,-1.54925l0,-7.62419c0,-1.014055 0.569655,-1.530472 1.708964,-1.530472l32.058896,0c1.213153,0 1.803906,0.516417 1.803906,1.530472l0,7.62419c0,1.023444 -0.580204,1.54925 -1.803906,1.54925l-8.945687,0l0,34.881607l8.945687,0c1.213153,0 1.803906,0.507027 1.803906,1.530472l0,7.633579c0,1.014055 -0.580204,1.521082 -1.803906,1.521082l-32.058896,0z" class="st0"/>
   <path stroke="null" id="svg_18" d="m1385.728443,216.902293c5.918079,0 10.6652,1.614976 14.283562,4.854318c3.618362,3.239342 5.40117,7.549075 5.40117,12.91042l0,20.975911c0,1.014055 -0.580204,1.521082 -1.719513,1.521082l-10.106095,0c-1.192055,0 -1.803906,-0.507027 -1.803906,-1.521082l0,-19.379714c0,-2.741704 -0.854482,-4.929433 -2.573995,-6.591356c-1.719513,-1.652534 -4.029779,-2.497579 -6.920249,-2.497579c-3.01706,0 -5.432817,0.798099 -7.257822,2.375517c-1.825005,1.586808 -2.76388,3.680643 -2.76388,6.300285l0,19.783458c0,1.014055 -0.569655,1.521082 -1.708964,1.521082l-10.116644,0c-1.139309,0 -1.719513,-0.507027 -1.719513,-1.521082l0,-25.248087c0,-2.093835 -1.170957,-3.145448 -3.523419,-3.145448c-0.242631,0 -0.87558,0.093894 -1.993791,0.253514c-1.308096,0 -1.972693,-0.422523 -1.972693,-1.276958l0,-6.591356c0,-0.910771 0.443065,-1.502303 1.360842,-1.774596c1.867201,-0.638479 4.01923,-0.957718 6.498282,-0.957718c5.190187,0 8.797999,1.680702 10.844536,5.060885c3.787148,-3.370793 9.051179,-5.051495 15.792092,-5.051495" class="st0"/>
   <path stroke="null" id="svg_19" d="m1423.114665,257.173414c-1.12876,0 -1.698415,-0.507027 -1.698415,-1.521082l0,-27.736277l-9.926759,0c-1.170957,0 -1.751161,-0.507027 -1.751161,-1.521082l0,-6.675861c0,-1.014055 0.580204,-1.530472 1.751161,-1.530472l9.926759,0l0,-4.66653c0,-5.239283 1.825005,-9.417565 5.464465,-12.497287c3.63946,-3.079722 8.565918,-4.619583 14.779373,-4.619583c4.093074,0 7.764182,0.450691 11.002774,1.361462c1.033818,0.272292 1.455784,0.816877 1.265899,1.690091l-1.160408,6.666471c-0.179336,1.126728 -0.854482,1.55864 -2.00434,1.286347c-2.225873,-0.525806 -4.546688,-0.807488 -6.962445,-0.807488c-2.63729,0 -4.757671,0.62909 -6.350594,1.887269c-1.582374,1.267569 -2.394659,2.938881 -2.394659,5.023327l0,4.66653l15.095848,0c1.139309,0 1.698415,0.516417 1.698415,1.530472l0,6.675861c0,1.014055 -0.548556,1.521082 -1.698415,1.521082l-15.095848,0l0,27.736277c0,1.014055 -0.580204,1.521082 -1.719513,1.521082l-10.222136,0l0,0.009389z" class="st0"/>
   <path stroke="null" id="svg_20" d="m1497.422946,252.741619c-4.546688,3.812095 -10.570258,5.718142 -18.017965,5.718142c-7.479354,0 -13.481826,-1.906047 -18.039063,-5.718142c-4.536139,-3.802706 -6.804208,-8.816643 -6.804208,-15.032424c0,-6.272117 2.268069,-11.304833 6.804208,-15.116928c4.557237,-3.812095 10.559709,-5.699364 18.039063,-5.699364c7.447707,0 13.471277,1.896658 18.017965,5.699364c4.546688,3.812095 6.814757,8.844811 6.814757,15.116928c0,6.22517 -2.268069,11.229718 -6.814757,15.032424m-26.647178,-7.192278c2.183676,1.962384 5.074146,2.929492 8.629213,2.929492c3.544518,0 6.424438,-0.967108 8.597565,-2.929492c2.204774,-1.952994 3.322985,-4.563247 3.322985,-7.830757s-1.118211,-5.896541 -3.322985,-7.877704c-2.173127,-1.999941 -5.053048,-2.985828 -8.597565,-2.985828c-3.555067,0 -6.434987,0.985887 -8.629213,2.985828c-2.204774,1.981163 -3.301887,4.600804 -3.301887,7.877704s1.097113,5.887152 3.301887,7.830757" class="st0"/>
   <path stroke="null" id="svg_21" d="m1548.839551,217.625277c1.033818,0.206567 1.466333,0.798099 1.360842,1.765207l-1.170957,7.708694c-0.189885,0.967108 -0.822834,1.370852 -1.983242,1.211232c-1.487432,-0.262903 -3.175297,-0.394355 -4.958105,-0.394355c-3.502321,0 -6.361143,0.93894 -8.587016,2.816819c-2.236422,1.86849 -3.333534,4.413016 -3.333534,7.62419l0,17.285879c0,1.014055 -0.580204,1.530472 -1.730062,1.530472l-10.106095,0c-1.160408,0 -1.740611,-0.516417 -1.740611,-1.530472l0,-25.248087c0,-2.093835 -1.170957,-3.136058 -3.51287,-3.136058c-0.242631,0 -0.917777,0.075115 -1.993791,0.234735c-1.329194,0 -1.983242,-0.422523 -1.983242,-1.276958l0,-6.591356c0,-0.901382 0.453614,-1.502303 1.360842,-1.774596c2.099283,-0.638479 4.282959,-0.957718 6.519381,-0.957718c5.40117,0 9.051179,1.830932 10.928929,5.464629c3.744952,-3.633696 8.629213,-5.464629 14.716078,-5.464629c2.521249,0 4.609983,0.244124 6.213455,0.732373" class="st0"/>
   <path stroke="null" id="svg_22" d="m1617.862703,216.902293c5.907529,0 10.633553,1.614976 14.220267,4.854318c3.576165,3.239342 5.380071,7.549075 5.380071,12.91042l0,20.975911c0,1.014055 -0.590753,1.521082 -1.803906,1.521082l-10.106095,0c-1.170957,0 -1.719513,-0.507027 -1.719513,-1.521082l0,-19.379714c0,-2.741704 -0.854482,-4.929433 -2.542347,-6.591356c-1.687866,-1.652534 -3.955935,-2.497579 -6.772561,-2.497579c-2.468503,0 -4.462295,0.798099 -5.960275,2.375517c-1.487432,1.586808 -2.246971,3.680643 -2.246971,6.300285l0,19.783458c0,1.014055 -0.580204,1.521082 -1.719513,1.521082l-10.211587,0c-1.139309,0 -1.719513,-0.507027 -1.719513,-1.521082l0,-19.379714c0,-2.741704 -0.770089,-4.929433 -2.341913,-6.591356c-1.571825,-1.652534 -3.650009,-2.497579 -6.245103,-2.497579c-2.76388,0 -4.968654,0.798099 -6.635421,2.375517c-1.656218,1.586808 -2.468503,3.680643 -2.468503,6.300285l0,19.783458c0,1.014055 -0.580204,1.521082 -1.708964,1.521082l-10.116644,0c-1.149858,0 -1.740611,-0.507027 -1.740611,-1.521082l0,-25.248087c0,-2.093835 -1.170957,-3.145448 -3.523419,-3.145448c-0.232082,0 -0.865031,0.093894 -1.972693,0.253514c-1.329194,0 -1.983242,-0.422523 -1.983242,-1.276958l0,-6.591356c0,-0.910771 0.432516,-1.502303 1.350292,-1.774596c1.856652,-0.638479 4.01923,-0.957718 6.498282,-0.957718c5.190187,0 8.734704,1.624366 10.67575,4.901265c3.671108,-3.276899 8.78745,-4.901265 15.338478,-4.901265c6.076316,0 10.855085,1.896658 14.283562,5.699364c3.713304,-3.793316 8.977335,-5.680585 15.792092,-5.680585" class="st0"/>
   <path stroke="null" id="svg_23" d="m1703.500782,255.802562c0.105492,0.920161 -0.369221,1.474135 -1.455784,1.690091c-2.468503,0.638479 -4.704925,0.967108 -6.772561,0.967108c-5.559407,0 -9.336006,-1.643144 -11.382543,-4.910654c-4.219664,3.26751 -9.29381,4.910654 -15.180241,4.910654c-6.972995,0 -12.68009,-1.934216 -17.110737,-5.793258c-4.430647,-3.859042 -6.645971,-8.835422 -6.645971,-14.957308c0,-6.150055 2.215324,-11.182771 6.645971,-15.032424c4.420098,-3.859042 10.127193,-5.774479 17.110737,-5.774479c5.000302,0 9.283261,1.220622 12.827778,3.690033l0,-0.882603c0,-1.014055 0.580204,-1.530472 1.730062,-1.530472l9.91621,0c1.160408,0 1.730062,0.516417 1.730062,1.530472l0,25.229308c0,2.093835 1.00217,3.145448 2.974863,3.145448c1.097113,0 2.025439,-0.075115 2.795527,-0.234735c1.202604,-0.122062 1.835554,0.319239 1.8883,1.286347l0.928326,6.666471zm-33.609623,-6.750976c3.375731,0 6.107963,-1.061002 8.217795,-3.173616c2.120381,-2.122004 3.164748,-4.835539 3.164748,-8.168775c0,-3.370793 -1.044367,-6.121886 -3.164748,-8.234501c-2.109832,-2.122004 -4.842064,-3.183005 -8.217795,-3.183005c-3.449575,0 -6.224004,1.061002 -8.397131,3.183005c-2.162578,2.112614 -3.25969,4.863707 -3.25969,8.234501c0,3.333236 1.097113,6.046771 3.25969,8.168775c2.173127,2.112614 4.947556,3.173616 8.397131,3.173616" class="st0"/>
   <path stroke="null" id="svg_24" d="m1733.02788,258.459761c-7.489903,0 -13.460728,-1.906047 -18.017965,-5.718142c-4.546688,-3.802706 -6.814757,-8.816643 -6.814757,-15.032424c0,-6.272117 2.268069,-11.295444 6.814757,-15.116928c4.557237,-3.802706 10.528061,-5.699364 18.017965,-5.699364c6.013021,0 11.076618,1.305126 15.169692,3.924768c4.114172,2.629031 6.635421,6.178223 7.584846,10.619407c0.189885,1.070391 -0.327024,1.605587 -1.519079,1.605587l-9.684129,0c-0.833384,0 -1.466333,-0.422523 -1.87775,-1.276958c-0.654048,-1.55864 -1.856652,-2.788651 -3.586714,-3.73698c-1.708964,-0.93894 -3.734403,-1.408409 -6.086865,-1.408409c-3.544518,0 -6.40334,1.014055 -8.576467,3.051554c-2.162578,2.02811 -3.25969,4.713477 -3.25969,8.037323c0,3.333236 1.097113,5.990435 3.25969,8.009155c2.173127,1.999941 5.031949,3.004607 8.576467,3.004607c2.352463,0 4.377901,-0.450691 6.15016,-1.361462c1.751161,-0.910771 2.911568,-2.168951 3.523419,-3.783927c0.474712,-0.845046 1.107662,-1.276958 1.87775,-1.276958l9.684129,0c1.192055,0 1.698415,0.535196 1.519079,1.605587c-0.949424,4.459963 -3.470674,7.999766 -7.584846,10.619407c-4.093074,2.610252 -9.156671,3.934157 -15.169692,3.934157" class="st0"/>
   <path stroke="null" id="svg_25" d="m1776.595909,209.090315c-1.529628,1.286347 -3.449575,1.934216 -5.728194,1.934216c-2.299717,0 -4.209115,-0.647868 -5.728194,-1.934216c-1.550726,-1.276958 -2.331364,-2.863766 -2.331364,-4.732256c0,-1.896658 0.780638,-3.455298 2.331364,-4.713477c1.519079,-1.258179 3.417928,-1.887269 5.728194,-1.887269c2.278619,0 4.188016,0.6197 5.728194,1.887269c1.550726,1.258179 2.299717,2.816819 2.299717,4.713477c0.010549,1.86849 -0.74899,3.455298 -2.299717,4.732256m-10.781241,48.083099c-1.149858,0 -1.719513,-0.507027 -1.719513,-1.521082l0,-35.942609c0,-1.014055 0.569655,-1.530472 1.719513,-1.530472l10.127193,0c1.139309,0 1.698415,0.516417 1.698415,1.530472l0,35.93322c0,1.014055 -0.559105,1.521082 -1.698415,1.521082l-10.127193,0l0,0.009389z" class="st0"/>
   <path stroke="null" id="svg_26" d="m1828.645464,252.741619c-4.567786,3.812095 -10.570258,5.718142 -18.039063,5.718142c-7.468805,0 -13.471277,-1.906047 -18.017965,-5.718142c-4.557237,-3.802706 -6.825306,-8.816643 -6.825306,-15.032424c0,-6.272117 2.268069,-11.304833 6.825306,-15.116928c4.546688,-3.802706 10.54916,-5.699364 18.017965,-5.699364c7.468805,0 13.471277,1.896658 18.039063,5.699364c4.52559,3.812095 6.804208,8.844811 6.804208,15.116928c0,6.22517 -2.278619,11.229718 -6.804208,15.032424m-26.657727,-7.192278c2.194225,1.962384 5.074146,2.938881 8.629213,2.938881c3.565616,0 6.424438,-0.967108 8.618664,-2.938881c2.194225,-1.952994 3.301887,-4.563247 3.301887,-7.830757c0,-3.276899 -1.107662,-5.896541 -3.301887,-7.877704c-2.194225,-1.999941 -5.053048,-2.985828 -8.618664,-2.985828c-3.555067,0 -6.434987,0.985887 -8.629213,2.985828c-2.204774,1.981163 -3.291338,4.600804 -3.291338,7.877704c0,3.26751 1.076014,5.887152 3.291338,7.830757m4.103623,-33.801827c-0.590753,0 -1.023268,-0.169009 -1.297547,-0.516417c-0.263729,-0.347408 -0.25318,-0.76993 0.031647,-1.2394l5.960275,-9.896424c0.421966,-0.751152 1.086563,-1.126728 1.972693,-1.126728l10.6652,0c0.675146,0 1.097113,0.169009 1.308096,0.478859c0.189885,0.319239 0.105492,0.77932 -0.316475,1.370852l-7.679788,10.046654c-0.474712,0.572753 -1.170957,0.873214 -2.078184,0.873214l-8.565918,0l0,0.009389z" class="st0"/>
   <path stroke="null" id="svg_27" d="m1874.829685,216.902293c5.907529,0 10.6652,1.614976 14.273013,4.854318c3.618362,3.239342 5.422268,7.549075 5.422268,12.91042l0,20.975911c0,1.014055 -0.569655,1.521082 -1.730062,1.521082l-10.106095,0c-1.202604,0 -1.803906,-0.507027 -1.803906,-1.521082l0,-19.379714c0,-2.741704 -0.854482,-4.929433 -2.584544,-6.591356c-1.708964,-1.652534 -4.01923,-2.497579 -6.9097,-2.497579c-3.01706,0 -5.432817,0.798099 -7.236724,2.375517c-1.846103,1.586808 -2.774429,3.680643 -2.774429,6.300285l0,19.783458c0,1.014055 -0.580204,1.521082 -1.698415,1.521082l-10.127193,0c-1.149858,0 -1.719513,-0.507027 -1.719513,-1.521082l0,-25.248087c0,-2.093835 -1.170957,-3.145448 -3.523419,-3.145448c-0.242631,0 -0.896679,0.093894 -1.993791,0.253514c-1.308096,0 -1.972693,-0.422523 -1.972693,-1.276958l0,-6.591356c0,-0.910771 0.443065,-1.502303 1.360842,-1.774596c1.867201,-0.638479 4.029779,-0.957718 6.519381,-0.957718c5.169088,0 8.78745,1.680702 10.812889,5.060885c3.787148,-3.370793 9.04063,-5.051495 15.792092,-5.051495" class="st0"/>
   <path stroke="null" id="svg_28" d="m785.439057,304.430246c0,0.967108 -0.569655,1.455356 -1.698415,1.455356l-32.523059,0l0,12.778968l28.261199,0c1.139309,0 1.730062,0.478859 1.730062,1.445967l0,7.398844c0,1.014055 -0.580204,1.521082 -1.730062,1.521082l-28.261199,0l0,12.224994l32.523059,0c1.139309,0 1.698415,0.478859 1.698415,1.445967l0,7.483349c0,1.014055 -0.569655,1.521082 -1.698415,1.521082l-44.886675,0c-1.234252,0 -1.803906,-0.507027 -1.803906,-1.521082l0,-53.228488c0,-1.014055 0.580204,-1.530472 1.803906,-1.530472l44.886675,0c1.139309,0 1.698415,0.516417 1.698415,1.530472l0,7.473959z" class="st0"/>
   <path stroke="null" id="svg_29" d="m813.077855,352.992204c-6.308398,0 -11.456387,-1.117338 -15.433421,-3.333236c-3.966484,-2.234676 -6.308398,-5.323788 -6.962445,-9.295502c-0.179336,-1.070391 0.37977,-1.605587 1.708964,-1.605587l8.850745,0.075115c0.780638,0 1.445235,0.375576 1.993791,1.126728c1.276448,2.891934 4.536139,4.347291 9.831817,4.347291c2.236422,0 4.01923,-0.328629 5.390621,-0.976497c1.350292,-0.638479 2.035988,-1.474135 2.035988,-2.563305c0,-1.39902 -0.981072,-2.403685 -2.911568,-3.013996c-1.930496,-0.610311 -4.261861,-1.070391 -7.046839,-1.361462c-2.76388,-0.300461 -5.517211,-0.732373 -8.302189,-1.323905c-2.753331,-0.600921 -5.116342,-1.802764 -7.046839,-3.614918c-1.909398,-1.830932 -2.89047,-4.290954 -2.89047,-7.398844c0,-3.802706 1.825005,-6.854259 5.506661,-9.164051c3.671108,-2.300402 8.523721,-3.464687 14.547291,-3.464687c5.675448,0 10.401472,1.061002 14.220267,3.183005c3.829345,2.112614 6.076316,4.920044 6.645971,8.40351c0.200434,1.070391 -0.358671,1.614976 -1.614021,1.614976l-8.956237,0c-0.770089,0 -1.38194,-0.338018 -1.803906,-0.976497c-0.538007,-1.173675 -1.582374,-2.131393 -3.122551,-2.835598c-1.529628,-0.732373 -3.27024,-1.098559 -5.190187,-1.098559c-2.099283,0 -3.808247,0.30985 -5.116342,0.920161c-1.276448,0.6197 -1.919947,1.445967 -1.919947,2.441243c0,1.455356 0.970523,2.525748 2.922117,3.220563c1.951595,0.704205 4.335705,1.220622 7.141781,1.568029c2.795527,0.347408 5.580506,0.826267 8.354935,1.408409c2.753331,0.591532 5.14799,1.802764 7.078486,3.614918c1.962144,1.830932 2.943216,4.272175 2.943216,7.333119c0,3.905989 -1.87775,7.023268 -5.612153,9.323671c-3.692206,2.300402 -8.797999,3.445908 -15.243536,3.445908" class="st0"/>
   <path stroke="null" id="svg_30" d="m866.024088,352.992204c-5.907529,0 -10.570258,-1.483525 -13.956538,-4.459963c-3.407379,-2.985828 -5.126892,-7.032658 -5.126892,-12.178047l0,-13.915085l-8.302189,0c-1.139309,0 -1.708964,-0.507027 -1.708964,-1.511693l0,-6.68525c0,-1.014055 0.569655,-1.521082 1.708964,-1.521082l8.302189,0l0,-10.206274c0,-1.023444 0.590753,-1.530472 1.740611,-1.530472l10.116644,0c1.139309,0 1.719513,0.507027 1.719513,1.530472l0,10.206274l14.178071,0c1.139309,0 1.698415,0.516417 1.698415,1.521082l0,6.68525c0,1.014055 -0.559105,1.511693 -1.698415,1.511693l-14.18862,0l0,13.511341c0,2.037499 0.675146,3.643086 2.01489,4.81676c1.360842,1.192453 3.185846,1.774596 5.475014,1.774596c2.341913,0 4.609983,-0.244124 6.751462,-0.732373c1.160408,-0.15962 1.825005,0.244124 2.025439,1.211232l1.160408,6.910596c0.052746,0.854435 -0.400868,1.445967 -1.360842,1.765207c-3.839894,0.863824 -7.363313,1.295737 -10.54916,1.295737" class="st0"/>
   <path stroke="null" id="svg_31" d="m941.271244,350.335005c0.116041,0.920161 -0.358671,1.483525 -1.476882,1.699481c-2.436856,0.647868 -4.694376,0.967108 -6.762011,0.967108c-5.538309,0 -9.304359,-1.633755 -11.371994,-4.901265c-4.209115,3.26751 -9.283261,4.901265 -15.169692,4.901265c-6.983544,0 -12.68009,-1.934216 -17.110737,-5.793258c-4.441196,-3.859042 -6.645971,-8.835422 -6.645971,-14.947919c0,-6.159444 2.204774,-11.182771 6.645971,-15.032424c4.430647,-3.859042 10.127193,-5.783868 17.110737,-5.783868c5.000302,0 9.283261,1.2394 12.80668,3.699422l0,-0.891993c0,-1.014055 0.569655,-1.521082 1.740611,-1.521082l9.91621,0c1.139309,0 1.719513,0.516417 1.719513,1.521082l0,25.257476c0,2.075057 1.00217,3.136058 2.964314,3.136058c1.086563,0 2.035988,-0.084505 2.827175,-0.253514c1.192055,-0.112673 1.825005,0.319239 1.8883,1.295737l0.917777,6.647693zm-33.609623,-6.750976c3.375731,0 6.097414,-1.061002 8.217795,-3.183005c2.109832,-2.122004 3.164748,-4.835539 3.164748,-8.159385c0,-3.370793 -1.054916,-6.121886 -3.164748,-8.234501c-2.120381,-2.122004 -4.842064,-3.183005 -8.217795,-3.183005c-3.439026,0 -6.245103,1.061002 -8.40768,3.183005c-2.162578,2.112614 -3.238592,4.863707 -3.238592,8.234501c0,3.323846 1.086563,6.037382 3.238592,8.159385c2.162578,2.131393 4.968654,3.183005 8.40768,3.183005" class="st0"/>
   <path stroke="null" id="svg_32" d="m1004.386867,350.335005c0.179336,0.920161 -0.263729,1.483525 -1.350292,1.699481c-2.479053,0.647868 -4.789319,0.967108 -6.951896,0.967108c-5.622702,0 -9.40985,-1.680702 -11.371994,-5.060885c-3.977033,3.380183 -8.987884,5.060885 -15.011454,5.060885c-6.962445,0 -12.68009,-1.934216 -17.110737,-5.793258c-4.430647,-3.859042 -6.645971,-8.835422 -6.645971,-14.947919c0,-6.159444 2.215324,-11.182771 6.645971,-15.032424c4.441196,-3.859042 10.148292,-5.783868 17.110737,-5.783868c4.810417,0 9.008982,1.154896 12.564049,3.455298l0,-21.135531c0,-1.014055 0.559105,-1.539861 1.708964,-1.539861l10.211587,0c1.160408,0 1.708964,0.516417 1.708964,1.539861l0,45.810865c0,2.037499 1.012719,3.070333 2.995961,3.070333c1.086563,0 1.972693,-0.084505 2.700585,-0.253514c1.25535,-0.112673 1.909398,0.319239 1.972693,1.295737l0.822834,6.647693zm-33.51468,-6.750976c3.375731,0 6.107963,-1.061002 8.238894,-3.183005c2.099283,-2.122004 3.154199,-4.835539 3.154199,-8.159385c0,-3.370793 -1.054916,-6.121886 -3.154199,-8.234501c-2.13093,-2.122004 -4.852613,-3.183005 -8.238894,-3.183005c-3.428477,0 -6.224004,1.061002 -8.397131,3.183005c-2.162578,2.112614 -3.249141,4.863707 -3.249141,8.234501c0,3.323846 1.086563,6.037382 3.249141,8.159385c2.173127,2.131393 4.968654,3.183005 8.397131,3.183005" class="st0"/>
   <path stroke="null" id="svg_33" d="m1023.269863,312.711693c1.149858,0 1.708964,0.516417 1.708964,1.530472l0,35.93322c0,1.014055 -0.559105,1.530472 -1.708964,1.530472l-10.116644,0c-1.139309,0 -1.740611,-0.516417 -1.740611,-1.530472l0,-35.93322c0,-1.014055 0.601302,-1.530472 1.740611,-1.530472l10.116644,0zm-9.578637,-6.422347c-0.611851,0 -1.033818,-0.169009 -1.308096,-0.525806c-0.263729,-0.347408 -0.242631,-0.76993 0.031647,-1.2394l5.960275,-9.896424c0.421966,-0.751152 1.076014,-1.117338 2.00434,-1.117338l10.654651,0c0.654048,0 1.097113,0.15962 1.308096,0.478859c0.210983,0.319239 0.105492,0.77932 -0.337573,1.361462l-7.669239,10.046654c-0.485261,0.591532 -1.170957,0.891993 -2.078184,0.891993l-8.565918,0z" class="st0"/>
   <path stroke="null" id="svg_34" d="m1054.706359,352.992204c-6.329496,0 -11.488035,-1.117338 -15.465068,-3.333236c-3.955935,-2.234676 -6.287299,-5.323788 -6.941347,-9.295502c-0.179336,-1.070391 0.400868,-1.605587 1.730062,-1.605587l8.840196,0.075115c0.791187,0 1.466333,0.375576 1.993791,1.126728c1.265899,2.891934 4.536139,4.347291 9.842366,4.347291c2.215324,0 4.01923,-0.328629 5.369522,-0.976497c1.350292,-0.638479 2.035988,-1.474135 2.035988,-2.563305c0,-1.39902 -0.981072,-2.403685 -2.901019,-3.013996c-1.919947,-0.610311 -4.282959,-1.070391 -7.03629,-1.361462c-2.784978,-0.300461 -5.559407,-0.732373 -8.323287,-1.323905c-2.753331,-0.600921 -5.126892,-1.802764 -7.046839,-3.614918c-1.930496,-1.830932 -2.89047,-4.290954 -2.89047,-7.398844c0,-3.802706 1.846103,-6.854259 5.506661,-9.164051c3.671108,-2.300402 8.523721,-3.464687 14.547291,-3.464687c5.664899,0 10.401472,1.061002 14.230816,3.183005c3.829345,2.112614 6.034119,4.920044 6.635421,8.40351c0.179336,1.070391 -0.348122,1.614976 -1.614021,1.614976l-8.966786,0c-0.780638,0 -1.371391,-0.338018 -1.782808,-0.976497c-0.548556,-1.173675 -1.592923,-2.131393 -3.1331,-2.835598c-1.519079,-0.732373 -3.280789,-1.098559 -5.200736,-1.098559c-2.109832,0 -3.808247,0.30985 -5.105793,0.920161c-1.297547,0.6197 -1.930496,1.445967 -1.930496,2.441243c0,1.455356 0.970523,2.525748 2.953765,3.220563c1.930496,0.704205 4.325155,1.220622 7.131232,1.568029c2.795527,0.347408 5.591055,0.826267 8.354935,1.408409c2.742782,0.591532 5.126892,1.802764 7.078486,3.614918c1.972693,1.830932 2.953765,4.272175 2.953765,7.333119c0,3.905989 -1.867201,7.023268 -5.612153,9.323671c-3.744952,2.300402 -8.829647,3.445908 -15.254085,3.445908" class="st0"/>
   <path stroke="null" id="svg_35" d="m1107.620944,352.992204c-5.886431,0 -10.54916,-1.483525 -13.956538,-4.459963c-3.396829,-2.985828 -5.095244,-7.032658 -5.095244,-12.178047l0,-13.915085l-8.323287,0c-1.12876,0 -1.698415,-0.507027 -1.698415,-1.511693l0,-6.68525c0,-1.014055 0.569655,-1.521082 1.698415,-1.521082l8.323287,0l0,-10.206274c0,-1.023444 0.580204,-1.530472 1.698415,-1.530472l10.127193,0c1.139309,0 1.740611,0.507027 1.740611,1.530472l0,10.206274l14.156972,0c1.149858,0 1.708964,0.516417 1.708964,1.521082l0,6.68525c0,1.014055 -0.559105,1.511693 -1.708964,1.511693l-14.156972,0l0,13.511341c0,2.037499 0.675146,3.643086 1.993791,4.81676c1.38194,1.192453 3.185846,1.774596 5.485563,1.774596c2.331364,0 4.588884,-0.244124 6.762011,-0.732373c1.139309,-0.15962 1.803906,0.244124 2.00434,1.211232l1.160408,6.910596c0.073844,0.854435 -0.37977,1.445967 -1.360842,1.765207c-3.829345,0.863824 -7.352764,1.295737 -10.559709,1.295737" class="st0"/>
   <path stroke="null" id="svg_36" d="m1139.205129,303.632147c-1.550726,1.286347 -3.470674,1.934216 -5.738743,1.934216c-2.299717,0 -4.209115,-0.647868 -5.738743,-1.934216c-1.529628,-1.286347 -2.310266,-2.863766 -2.310266,-4.732256c0,-1.896658 0.780638,-3.455298 2.310266,-4.713477c1.529628,-1.258179 3.449575,-1.887269 5.738743,-1.887269c2.25752,0 4.188016,0.6197 5.738743,1.887269c1.529628,1.258179 2.299717,2.816819 2.299717,4.713477c0.010549,1.86849 -0.770089,3.445908 -2.299717,4.732256m-10.80234,48.073709c-1.12876,0 -1.708964,-0.507027 -1.708964,-1.521082l0,-35.942609c0,-1.014055 0.580204,-1.521082 1.708964,-1.521082l10.116644,0c1.149858,0 1.719513,0.516417 1.719513,1.521082l0,35.942609c0,1.014055 -0.569655,1.521082 -1.719513,1.521082l-10.116644,0z" class="st0"/>
   <path stroke="null" id="svg_37" d="m1173.194521,352.992204c-7.458256,0 -13.460728,-1.896658 -18.017965,-5.708753c-4.536139,-3.802706 -6.793659,-8.816643 -6.793659,-15.032424c0,-6.262727 2.25752,-11.295444 6.793659,-15.107539c4.557237,-3.802706 10.570258,-5.708753 18.017965,-5.708753c6.034119,0 11.087167,1.305126 15.19079,3.943546c4.071976,2.619642 6.614323,6.168833 7.574297,10.610018c0.179336,1.070391 -0.316475,1.605587 -1.529628,1.605587l-9.66303,0c-0.854482,0 -1.487432,-0.422523 -1.909398,-1.295737c-0.654048,-1.54925 -1.835554,-2.788651 -3.576165,-3.72759c-1.687866,-0.957718 -3.723853,-1.408409 -6.086865,-1.408409c-3.555067,0 -6.392791,1.014055 -8.576467,3.051554c-2.173127,2.037499 -3.249141,4.722866 -3.249141,8.027934c0,3.342625 1.086563,5.999824 3.249141,8.009155c2.183676,2.009331 5.0214,3.023386 8.576467,3.023386c2.363012,0 4.409549,-0.46947 6.139611,-1.370852c1.740611,-0.910771 2.922117,-2.17834 3.523419,-3.774537c0.485261,-0.854435 1.118211,-1.295737 1.909398,-1.295737l9.66303,0c1.202604,0 1.698415,0.544585 1.529628,1.605587c-0.959974,4.469353 -3.491772,7.999766 -7.574297,10.628797c-4.103623,2.610252 -9.156671,3.924768 -15.19079,3.924768" class="st0"/>
   <path stroke="null" id="svg_38" d="m1260.636506,350.335005c0.12659,0.920161 -0.358671,1.483525 -1.455784,1.699481c-2.468503,0.647868 -4.704925,0.967108 -6.772561,0.967108c-5.538309,0 -9.336006,-1.633755 -11.382543,-4.901265c-4.209115,3.26751 -9.272711,4.901265 -15.169692,4.901265c-6.983544,0 -12.68009,-1.934216 -17.110737,-5.793258c-4.420098,-3.859042 -6.645971,-8.835422 -6.645971,-14.947919c0,-6.159444 2.225873,-11.182771 6.645971,-15.032424c4.441196,-3.859042 10.127193,-5.783868 17.110737,-5.783868c5.010851,0 9.29381,1.2394 12.838327,3.699422l0,-0.891993c0,-1.014055 0.559105,-1.521082 1.730062,-1.521082l9.91621,0c1.139309,0 1.708964,0.516417 1.708964,1.521082l0,25.257476c0,2.075057 1.00217,3.136058 2.974863,3.136058c1.097113,0 2.025439,-0.084505 2.795527,-0.253514c1.202604,-0.112673 1.835554,0.319239 1.8883,1.295737l0.928326,6.647693zm-33.609623,-6.750976c3.375731,0 6.107963,-1.061002 8.238894,-3.183005c2.120381,-2.122004 3.154199,-4.835539 3.154199,-8.159385c0,-3.370793 -1.033818,-6.121886 -3.154199,-8.234501c-2.13093,-2.122004 -4.852613,-3.183005 -8.238894,-3.183005c-3.428477,0 -6.224004,1.061002 -8.397131,3.183005c-2.162578,2.112614 -3.238592,4.863707 -3.238592,8.234501c0,3.323846 1.076014,6.037382 3.238592,8.159385c2.173127,2.131393 4.968654,3.183005 8.397131,3.183005" class="st0"/>
   <path stroke="null" id="svg_39" d="m1339.480926,312.721083c0.675146,0 1.097113,0.169009 1.308096,0.488249c0.210983,0.319239 0.210983,0.741762 -0.052746,1.267569l-22.480259,44.543296c-4.346254,8.469235 -11.055519,12.703853 -20.159444,12.703853c-3.966484,0 -7.521551,-0.422523 -10.644102,-1.276958c-1.086563,-0.225346 -1.550726,-0.77932 -1.360842,-1.680702l1.170957,-6.929374c0.305926,-1.070391 0.970523,-1.502303 1.993791,-1.286347c2.468503,0.478859 4.747122,0.722984 6.856954,0.722984c4.52559,0 7.648141,-1.737038 9.388752,-5.229894l1.909398,-3.624307l-21.393696,-37.942551c-0.305926,-0.525806 -0.337573,-0.957718 -0.063295,-1.267569c0.263729,-0.319239 0.74899,-0.488249 1.413587,-0.488249l10.728495,0c0.854482,0 1.50853,0.366186 2.01489,1.126728l13.977637,25.079078l12.648443,-25.079078c0.358671,-0.760541 1.044367,-1.126728 1.993791,-1.126728l10.749594,0z" class="st0"/>
   <path stroke="null" id="svg_40" d="m1402.628197,352.917089c-10.179939,0 -18.408284,-2.713536 -24.674485,-8.121828c-6.255652,-5.408292 -9.378203,-12.516065 -9.378203,-21.30454c0,-8.788475 3.101453,-15.877469 9.346556,-21.266983c6.245103,-5.380124 14.473447,-8.074881 24.716681,-8.074881c7.880222,0 14.758274,1.737038 20.613058,5.182947c5.875882,3.464687 9.78962,8.103049 11.709567,13.952643c0.358671,1.117338 -0.12659,1.680702 -1.445235,1.680702l-11.561879,0c-0.970523,0 -1.624571,-0.394355 -1.972693,-1.211232c-1.318645,-2.563305 -3.523419,-4.619583 -6.582676,-6.150055c-3.080355,-1.530472 -6.593225,-2.281623 -10.570258,-2.281623c-5.970824,0 -10.760143,1.661923 -14.431251,5.013938c-3.63946,3.342625 -5.464465,7.727473 -5.464465,13.145155c0,5.520965 1.856652,9.95276 5.517211,13.304775c3.671108,3.342625 8.460426,5.013938 14.378505,5.013938c4.040328,0 7.627042,-0.976497 10.79179,-2.929492c3.164748,-1.962384 5.306227,-4.5163 6.456086,-7.680526l-16.171862,0c-1.139309,0 -1.730062,-0.507027 -1.730062,-1.521082l0,-6.84487c0,-1.004665 0.590753,-1.511693 1.730062,-1.511693l30.434326,0c1.097113,0 1.63512,0.516417 1.63512,1.511693c0,9.229777 -2.995961,16.544116 -8.977335,21.952409c-6.013021,5.427071 -14.135874,8.140607 -24.368559,8.140607" class="st0"/>
   <path stroke="null" id="svg_41" d="m1468.824174,353.001593c-7.40551,0 -13.397433,-1.906047 -17.965219,-5.708753c-4.578335,-3.802706 -6.878052,-8.816643 -6.878052,-15.032424c0,-6.262727 2.225873,-11.295444 6.635421,-15.107539c4.441196,-3.812095 10.222136,-5.708753 17.385015,-5.708753c7.236724,0 12.975466,1.877879 17.226778,5.633638c4.230213,3.746369 6.350594,8.70397 6.350594,14.872804c0,0.319239 0,0.788709 -0.031647,1.408409c-0.031647,0.6197 -0.063295,1.061002 -0.063295,1.314515c-0.179336,0.920161 -0.801736,1.370852 -1.909398,1.370852l-32.428117,0c0.727892,2.403685 2.162578,4.319122 4.293508,5.708753c2.141479,1.39902 4.683827,2.093835 7.637592,2.093835c3.301887,0 5.78094,-0.807488 7.40551,-2.403685c0.75954,-0.544585 1.497981,-0.816877 2.162578,-0.816877l10.106095,0c0.654048,0 1.139309,0.15023 1.413587,0.46008c0.263729,0.291071 0.284827,0.676037 0.042197,1.164285c-1.582374,3.323846 -4.251311,5.952877 -8.059558,7.877704c-3.744952,1.906047 -8.186148,2.873155 -13.323589,2.873155m-11.741215,-24.121359l21.59413,0c-0.12659,-2.525748 -1.118211,-4.563247 -2.964314,-6.150055c-1.87775,-1.577419 -4.325155,-2.375517 -7.352764,-2.375517c-2.932666,0 -5.443366,0.798099 -7.5321,2.375517c-2.088734,1.586808 -3.322985,3.624307 -3.744952,6.150055" class="st0"/>
   <path stroke="null" id="svg_42" d="m1540.674501,347.283451c-4.52559,3.812095 -10.538611,5.708753 -18.017965,5.708753c-7.458256,0 -13.471277,-1.896658 -18.017965,-5.708753c-4.536139,-3.802706 -6.825306,-8.816643 -6.825306,-15.032424c0,-6.262727 2.289168,-11.295444 6.825306,-15.107539c4.546688,-3.812095 10.570258,-5.708753 18.017965,-5.708753c7.479354,0 13.492375,1.896658 18.017965,5.708753c4.567786,3.812095 6.825306,8.844811 6.825306,15.107539c0,6.21578 -2.25752,11.229718 -6.825306,15.032424m-26.647178,-7.192278c2.204774,1.952994 5.084695,2.938881 8.629213,2.938881c3.555067,0 6.424438,-0.976497 8.629213,-2.938881c2.183676,-1.952994 3.291338,-4.563247 3.291338,-7.840146c0,-3.258121 -1.107662,-5.896541 -3.291338,-7.877704c-2.204774,-1.981163 -5.074146,-2.985828 -8.629213,-2.985828c-3.533969,0 -6.413889,1.004665 -8.629213,2.985828c-2.194225,1.981163 -3.291338,4.619583 -3.291338,7.877704c0.010549,3.26751 1.107662,5.887152 3.291338,7.840146" class="st0"/>
   <path stroke="null" id="svg_43" d="m1602.228848,312.711693c1.139309,0 1.708964,0.516417 1.708964,1.530472l0,38.440189c0,5.661806 -2.225873,10.272 -6.688167,13.783634c-4.441196,3.502245 -10.285431,5.258062 -17.501056,5.258062c-6.519381,0 -11.952198,-1.342684 -16.309001,-4.018662c-4.367352,-2.694757 -7.015191,-6.253338 -7.91187,-10.703912c-0.305926,-1.014055 0.242631,-1.511693 1.656218,-1.511693l10.116644,0c0.812285,0 1.466333,0.394355 1.972693,1.201843c0.611851,1.605587 1.825005,2.891934 3.692206,3.830874c1.867201,0.92955 4.114172,1.39902 6.698716,1.39902c3.238592,0 5.823136,-0.826267 7.743083,-2.48819c1.930496,-1.661923 2.901019,-3.88721 2.901019,-6.68525l0,-3.370793c-3.417928,2.300402 -7.616493,3.455298 -12.564049,3.455298c-6.9097,0 -12.616795,-1.943605 -17.036893,-5.830815c-4.493942,-3.88721 -6.709266,-8.844811 -6.709266,-14.910361c0,-6.046771 2.215324,-11.013762 6.709266,-14.882193c4.420098,-3.859042 10.127193,-5.783868 17.036893,-5.783868c5.010851,0 9.29381,1.2394 12.838327,3.699422l0,-0.882603c0,-1.014055 0.580204,-1.530472 1.751161,-1.530472l9.895112,0zm-23.292545,30.628211c3.354633,0 6.107963,-1.042223 8.217795,-3.126669c2.120381,-2.093835 3.154199,-4.807371 3.154199,-8.121828c0,-3.333236 -1.054916,-6.027992 -3.196395,-8.121828c-2.141479,-2.093835 -4.852613,-3.136058 -8.175599,-3.136058c-3.375731,0 -6.160709,1.061002 -8.354935,3.183005c-2.183676,2.112614 -3.27024,4.807371 -3.27024,8.074881c0,3.323846 1.076014,6.037382 3.217494,8.121828c2.183676,2.084446 4.968654,3.126669 8.40768,3.126669" class="st0"/>
   <path stroke="null" id="svg_44" d="m1650.649491,312.157719c1.012719,0.215956 1.466333,0.816877 1.350292,1.774596l-1.160408,7.708694c-0.189885,0.967108 -0.843933,1.370852 -2.01489,1.201843c-1.487432,-0.262903 -3.14365,-0.394355 -4.958105,-0.394355c-3.481223,0 -6.361143,0.948329 -8.587016,2.826208c-2.215324,1.8591 -3.312436,4.422406 -3.312436,7.62419l0,17.295268c0,1.014055 -0.580204,1.530472 -1.730062,1.530472l-10.106095,0c-1.160408,0 -1.740611,-0.516417 -1.740611,-1.530472l0,-25.248087c0,-2.103225 -1.160408,-3.136058 -3.523419,-3.136058c-0.221532,0 -0.896679,0.075115 -1.972693,0.244124c-1.329194,0 -1.983242,-0.431912 -1.983242,-1.295737l0,-6.591356c0,-0.910771 0.432516,-1.502303 1.360842,-1.774596c2.099283,-0.638479 4.261861,-0.967108 6.508832,-0.967108c5.411719,0 9.061728,1.830932 10.91838,5.464629c3.744952,-3.633696 8.629213,-5.464629 14.726627,-5.464629c2.521249,0 4.588884,0.244124 6.224004,0.732373" class="st0"/>
   <path stroke="null" id="svg_45" d="m1713.881155,350.335005c0.116041,0.910771 -0.358671,1.483525 -1.445235,1.699481c-2.489602,0.647868 -4.736573,0.967108 -6.78311,0.967108c-5.538309,0 -9.346556,-1.633755 -11.371994,-4.901265c-4.230213,3.26751 -9.262162,4.901265 -15.180241,4.901265c-6.983544,0 -12.690639,-1.915437 -17.110737,-5.793258c-4.409549,-3.868431 -6.645971,-8.844811 -6.645971,-14.957308c0,-6.150055 2.236422,-11.173382 6.645971,-15.032424c4.420098,-3.859042 10.127193,-5.793258 17.110737,-5.793258c4.979203,0 9.283261,1.24879 12.838327,3.699422l0,-0.882603c0,-1.014055 0.580204,-1.530472 1.698415,-1.530472l9.937308,0c1.149858,0 1.698415,0.516417 1.698415,1.530472l0,25.257476c0,2.075057 1.012719,3.136058 3.006511,3.136058c1.076014,0 2.00434,-0.075115 2.784978,-0.253514c1.213153,-0.103283 1.846103,0.319239 1.909398,1.295737l0.907228,6.657082zm-33.609623,-6.741587c3.375731,0 6.118513,-1.061002 8.217795,-3.183005c2.120381,-2.112614 3.164748,-4.82615 3.164748,-8.159385c0,-3.370793 -1.044367,-6.112497 -3.164748,-8.234501c-2.099283,-2.112614 -4.842064,-3.173616 -8.217795,-3.173616c-3.417928,0 -6.213455,1.061002 -8.397131,3.173616c-2.183676,2.122004 -3.249141,4.863707 -3.249141,8.234501c0,3.333236 1.065465,6.046771 3.249141,8.159385c2.183676,2.122004 4.968654,3.183005 8.397131,3.183005m-3.787148,-37.304072c-0.601302,0 -1.033818,-0.169009 -1.308096,-0.525806c-0.284827,-0.347408 -0.263729,-0.76993 0.042197,-1.2394l5.960275,-9.896424c0.411417,-0.751152 1.086563,-1.117338 1.972693,-1.117338l10.67575,0c0.643499,0 1.086563,0.15962 1.308096,0.478859c0.189885,0.319239 0.084393,0.77932 -0.327024,1.361462l-7.679788,10.046654c-0.485261,0.591532 -1.181506,0.891993 -2.078184,0.891993l-8.565918,0z" class="st0"/>
   <path stroke="null" id="svg_46" d="m1728.787117,351.715246c-1.149858,0 -1.719513,-0.516417 -1.719513,-1.530472l0,-27.736277l-9.937308,0c-1.12876,0 -1.719513,-0.507027 -1.719513,-1.521082l0,-6.675861c0,-1.014055 0.590753,-1.530472 1.719513,-1.530472l9.937308,0l0,-4.66653c0,-5.258062 1.825005,-9.417565 5.464465,-12.506676c3.63946,-3.079722 8.576467,-4.619583 14.779373,-4.619583c3.913738,0 7.447707,0.422523 10.570258,1.286347c1.023268,0.272292 1.424137,0.826267 1.25535,1.680702l-1.170957,6.675861c-0.168787,1.136117 -0.87558,1.55864 -2.078184,1.286347c-1.919947,-0.46947 -4.061427,-0.722984 -6.434987,-0.722984c-2.63729,0 -4.757671,0.638479 -6.350594,1.896658c-1.582374,1.258179 -2.373561,2.938881 -2.373561,5.013938l0,4.66653l33.778409,0c1.139309,0 1.719513,0.516417 1.719513,1.530472l0,35.93322c0,1.014055 -0.580204,1.530472 -1.719513,1.530472l-10.211587,0c-1.149858,0 -1.698415,-0.516417 -1.698415,-1.530472l0,-27.736277l-21.868408,0l0,27.736277c0,1.014055 -0.590753,1.530472 -1.730062,1.530472l-10.211587,0l0,0.009389zm40.635363,-46.148883c-2.299717,0 -4.219664,-0.647868 -5.78094,-1.934216c-1.571825,-1.286347 -2.341913,-2.863766 -2.341913,-4.741645c0,-1.887269 0.770089,-3.445908 2.341913,-4.704088c1.561276,-1.267569 3.481223,-1.896658 5.78094,-1.896658c2.225873,0 4.124721,0.6197 5.685997,1.896658c1.561276,1.258179 2.352463,2.816819 2.352463,4.704088c0,1.877879 -0.791187,3.455298 -2.352463,4.741645s-3.460124,1.934216 -5.685997,1.934216" class="st0"/>
   <path stroke="null" id="svg_47" d="m1809.076772,352.992204c-7.458256,0 -13.460728,-1.896658 -18.017965,-5.708753c-4.52559,-3.802706 -6.793659,-8.816643 -6.793659,-15.032424c0,-6.262727 2.268069,-11.295444 6.793659,-15.107539c4.557237,-3.802706 10.570258,-5.708753 18.017965,-5.708753c6.013021,0 11.076618,1.305126 15.180241,3.943546c4.093074,2.619642 6.624872,6.168833 7.574297,10.610018c0.189885,1.070391 -0.337573,1.605587 -1.540177,1.605587l-9.66303,0c-0.833384,0 -1.466333,-0.422523 -1.87775,-1.295737c-0.675146,-1.54925 -1.856652,-2.788651 -3.576165,-3.72759c-1.730062,-0.957718 -3.744952,-1.408409 -6.107963,-1.408409c-3.544518,0 -6.413889,1.014055 -8.576467,3.051554c-2.173127,2.037499 -3.249141,4.722866 -3.249141,8.027934c0,3.342625 1.086563,5.999824 3.249141,8.009155c2.162578,2.009331 5.0214,3.023386 8.576467,3.023386c2.363012,0 4.399,-0.46947 6.15016,-1.370852c1.751161,-0.910771 2.911568,-2.17834 3.523419,-3.774537c0.474712,-0.854435 1.107662,-1.295737 1.87775,-1.295737l9.66303,0c1.202604,0 1.730062,0.544585 1.540177,1.605587c-0.959974,4.469353 -3.481223,7.999766 -7.574297,10.628797c-4.093074,2.610252 -9.156671,3.924768 -15.169692,3.924768" class="st0"/>
   <path stroke="null" id="svg_48" d="m1896.529306,350.335005c0.105492,0.920161 -0.37977,1.483525 -1.466333,1.699481c-2.468503,0.647868 -4.715474,0.967108 -6.78311,0.967108c-5.52776,0 -9.325457,-1.633755 -11.371994,-4.901265c-4.219664,3.26751 -9.262162,4.901265 -15.180241,4.901265c-6.962445,0 -12.669541,-1.934216 -17.110737,-5.793258c-4.420098,-3.859042 -6.635421,-8.835422 -6.635421,-14.947919c0,-6.159444 2.215324,-11.182771 6.635421,-15.032424c4.441196,-3.859042 10.148292,-5.783868 17.110737,-5.783868c5.000302,0 9.29381,1.2394 12.827778,3.699422l0,-0.891993c0,-1.014055 0.590753,-1.521082 1.740611,-1.521082l9.926759,0c1.139309,0 1.698415,0.516417 1.698415,1.521082l0,25.257476c0,2.075057 1.00217,3.136058 2.995961,3.136058c1.065465,0 1.993791,-0.084505 2.784978,-0.253514c1.202604,-0.112673 1.856652,0.319239 1.898849,1.295737l0.928326,6.647693zm-33.609623,-6.750976c3.375731,0 6.118513,-1.061002 8.207246,-3.183005c2.120381,-2.122004 3.154199,-4.835539 3.154199,-8.159385c0,-3.370793 -1.033818,-6.121886 -3.154199,-8.234501c-2.088734,-2.122004 -4.831515,-3.183005 -8.207246,-3.183005c-3.439026,0 -6.234553,1.061002 -8.418229,3.183005c-2.141479,2.112614 -3.206945,4.863707 -3.206945,8.234501c0,3.323846 1.065465,6.037382 3.206945,8.159385c2.183676,2.131393 4.979203,3.183005 8.418229,3.183005" class="st0"/>
   <path stroke="null" id="svg_49" d="m793.034452,444.876836c0.179336,0.910771 -0.274278,1.464746 -1.360842,1.680702c-2.468503,0.638479 -4.778769,0.967108 -6.951896,0.967108c-5.601604,0 -9.399301,-1.671313 -11.371994,-5.051495c-3.998132,3.380183 -8.987884,5.051495 -15.011454,5.051495c-6.962445,0 -12.68009,-1.915437 -17.110737,-5.774479c-4.420098,-3.859042 -6.635421,-8.854201 -6.635421,-14.957308c0,-6.159444 2.215324,-11.173382 6.635421,-15.032424c4.430647,-3.859042 10.137743,-5.793258 17.110737,-5.793258c4.820966,0 9.008982,1.145506 12.564049,3.445908l0,-21.135531c0,-1.014055 0.559105,-1.539861 1.698415,-1.539861l10.211587,0c1.149858,0 1.719513,0.516417 1.719513,1.539861l0,45.820254c0,2.046888 1.00217,3.060943 2.964314,3.060943c1.097113,0 2.00434,-0.075115 2.721683,-0.225346c1.265899,-0.122062 1.930496,0.319239 1.972693,1.267569l0.843933,6.675861zm-33.504131,-6.750976c3.354633,0 6.107963,-1.061002 8.217795,-3.173616c2.099283,-2.122004 3.164748,-4.863707 3.164748,-8.168775c0,-3.380183 -1.065465,-6.121886 -3.164748,-8.225111c-2.109832,-2.122004 -4.852613,-3.183005 -8.217795,-3.183005c-3.460124,0 -6.224004,1.061002 -8.418229,3.183005c-2.141479,2.103225 -3.228043,4.854318 -3.228043,8.225111c0,3.305068 1.086563,6.046771 3.228043,8.168775c2.194225,2.122004 4.958105,3.173616 8.418229,3.173616" class="st0"/>
   <path stroke="null" id="svg_50" d="m822.835828,447.524646c-7.40551,0 -13.397433,-1.896658 -17.975768,-5.699364c-4.578335,-3.812095 -6.856954,-8.826033 -6.856954,-15.032424c0,-6.262727 2.204774,-11.323612 6.635421,-15.116928c4.420098,-3.812095 10.222136,-5.708753 17.385015,-5.708753c7.226174,0 12.975466,1.86849 17.20568,5.624248c4.240762,3.765148 6.371692,8.71336 6.371692,14.872804c0,0.328629 0,0.798099 -0.042197,1.408409c-0.042197,0.6197 -0.063295,1.061002 -0.063295,1.333294c-0.179336,0.910771 -0.801736,1.361462 -1.898849,1.361462l-32.417568,0c0.738441,2.422464 2.141479,4.319122 4.282959,5.708753c2.141479,1.39902 4.683827,2.084446 7.637592,2.084446c3.301887,0 5.78094,-0.798099 7.416059,-2.403685c0.75954,-0.535196 1.476882,-0.816877 2.162578,-0.816877l10.106095,0c0.675146,0 1.12876,0.15962 1.403038,0.46008c0.284827,0.281682 0.305926,0.676037 0.042197,1.164285c-1.571825,3.333236 -4.240762,5.952877 -8.027911,7.868314c-3.787148,1.934216 -8.238894,2.891934 -13.365785,2.891934m-11.730666,-24.11197l21.59413,0c-0.137139,-2.506969 -1.12876,-4.563247 -2.985412,-6.150055c-1.8883,-1.577419 -4.304057,-2.375517 -7.331666,-2.375517c-2.953765,0 -5.443366,0.798099 -7.542649,2.375517c-2.078184,1.586808 -3.333534,3.643086 -3.734403,6.150055" class="st0"/>
   <path stroke="null" id="svg_51" d="m896.447865,447.524646c-6.972995,0 -12.732836,-1.624366 -17.237327,-4.882486c-4.504491,-3.286289 -7.131232,-7.708694 -7.78528,-13.285996c-0.189885,-1.061002 0.400868,-1.605587 1.708964,-1.605587l10.6652,0c0.991621,0 1.529628,0.46008 1.719513,1.361462c0.474712,2.300402 1.76171,4.140724 3.882091,5.502186c2.099283,1.370852 4.704925,2.046888 7.774731,2.046888c3.439026,0 6.181808,-1.051612 8.28109,-3.136058c2.057086,-2.093835 3.090904,-4.854318 3.090904,-8.281448l0,-24.600218l-26.446743,0c-1.160408,0 -1.719513,-0.507027 -1.719513,-1.530472l0,-7.633579c0,-1.014055 0.559105,-1.521082 1.719513,-1.521082l39.105735,0c1.139309,0 1.698415,0.516417 1.698415,1.521082l0,33.60465c0,7.135941 -2.289168,12.656906 -6.9097,16.562895c-4.588884,3.934157 -11.118814,5.877762 -19.547593,5.877762" class="st0"/>
   <path stroke="null" id="svg_52" d="m989.227725,444.876836c0.105492,0.910771 -0.37977,1.464746 -1.466333,1.680702c-2.468503,0.638479 -4.715474,0.967108 -6.78311,0.967108c-5.538309,0 -9.314908,-1.624366 -11.371994,-4.910654c-4.219664,3.286289 -9.283261,4.910654 -15.180241,4.910654c-6.962445,0 -12.68009,-1.915437 -17.100188,-5.774479c-4.451745,-3.859042 -6.645971,-8.854201 -6.645971,-14.957308c0,-6.159444 2.194225,-11.173382 6.645971,-15.032424c4.420098,-3.859042 10.127193,-5.793258 17.100188,-5.793258c5.000302,0 9.283261,1.2394 12.817229,3.699422l0,-0.891993c0,-1.014055 0.580204,-1.521082 1.751161,-1.521082l9.926759,0c1.139309,0 1.698415,0.507027 1.698415,1.521082l0,25.248087c0,2.093835 1.012719,3.136058 2.995961,3.136058c1.076014,0 2.00434,-0.075115 2.806076,-0.225346c1.192055,-0.122062 1.825005,0.319239 1.8883,1.267569l0.917777,6.675861zm-33.609623,-6.750976c3.375731,0 6.107963,-1.061002 8.217795,-3.173616c2.109832,-2.122004 3.14365,-4.863707 3.14365,-8.168775c0,-3.380183 -1.033818,-6.121886 -3.14365,-8.225111c-2.109832,-2.122004 -4.842064,-3.183005 -8.217795,-3.183005c-3.439026,0 -6.245103,1.061002 -8.418229,3.183005c-2.141479,2.103225 -3.228043,4.854318 -3.228043,8.225111c0,3.305068 1.086563,6.046771 3.228043,8.168775c2.183676,2.122004 4.979203,3.173616 8.418229,3.173616" class="st0"/>
   <path stroke="null" id="svg_53" d="m1010.083413,447.524646c-4.209115,0 -7.574297,-0.835656 -10.084997,-2.553916c-2.479053,-1.71826 -3.744952,-4.065609 -3.744952,-6.9951l0,-49.698075c0,-1.014055 0.580204,-1.530472 1.730062,-1.530472l10.116644,0c1.139309,0 1.708964,0.516417 1.708964,1.530472l0,45.829644c0,2.046888 1.023268,3.070333 3.069805,3.070333c1.023268,0 1.930496,-0.084505 2.721683,-0.244124c1.192055,-0.122062 1.825005,0.319239 1.898849,1.267569l0.896679,6.68525c0.116041,0.901382 -0.358671,1.464746 -1.455784,1.680702c-2.394659,0.638479 -4.715474,0.957718 -6.856954,0.957718" class="st0"/>
   <path stroke="null" id="svg_54" d="m1037.943744,398.173979c-1.529628,1.276958 -3.449575,1.924826 -5.738743,1.924826c-2.289168,0 -4.198566,-0.647868 -5.717645,-1.924826c-1.561276,-1.295737 -2.310266,-2.863766 -2.310266,-4.741645c0,-1.86849 0.74899,-3.445908 2.310266,-4.704088c1.519079,-1.258179 3.428477,-1.887269 5.717645,-1.887269c2.289168,0 4.198566,0.6197 5.738743,1.887269c1.529628,1.258179 2.310266,2.835598 2.310266,4.704088c0,1.877879 -0.780638,3.445908 -2.310266,4.741645m-10.79179,48.083099c-1.139309,0 -1.719513,-0.516417 -1.719513,-1.539861l0,-35.93322c0,-1.014055 0.580204,-1.521082 1.719513,-1.521082l10.116644,0c1.139309,0 1.708964,0.507027 1.708964,1.521082l0,35.93322c0,1.014055 -0.569655,1.539861 -1.708964,1.539861l-10.116644,0z" class="st0"/>
   <path stroke="null" id="svg_55" d="m1068.705094,447.524646c-6.329496,0 -11.488035,-1.107949 -15.454519,-3.333236c-3.966484,-2.215898 -6.287299,-5.314398 -6.962445,-9.276724c-0.179336,-1.079781 0.411417,-1.624366 1.740611,-1.624366l8.840196,0.084505c0.801736,0 1.455784,0.375576 1.993791,1.126728c1.265899,2.891934 4.536139,4.337901 9.852915,4.337901c2.225873,0 4.01923,-0.319239 5.358973,-0.967108c1.360842,-0.638479 2.046537,-1.492914 2.046537,-2.572695c0,-1.39902 -0.970523,-2.394296 -2.911568,-3.023386c-1.909398,-0.610311 -4.293508,-1.070391 -7.02574,-1.361462c-2.784978,-0.300461 -5.538309,-0.722984 -8.323287,-1.323905c-2.753331,-0.591532 -5.116342,-1.793375 -7.03629,-3.605528c-1.941045,-1.830932 -2.901019,-4.300344 -2.901019,-7.408234c0,-3.793316 1.846103,-6.84487 5.517211,-9.164051c3.681657,-2.300402 8.513172,-3.455298 14.547291,-3.455298c5.65435,0 10.401472,1.070391 14.230816,3.183005c3.829345,2.112614 6.034119,4.910654 6.635421,8.40351c0.179336,1.061002 -0.358671,1.614976 -1.624571,1.614976l-8.945687,0c-0.791187,0 -1.38194,-0.338018 -1.803906,-0.976497c-0.548556,-1.164285 -1.582374,-2.122004 -3.122551,-2.844987c-1.529628,-0.732373 -3.27024,-1.079781 -5.190187,-1.079781c-2.109832,0 -3.818796,0.300461 -5.105793,0.920161c-1.308096,0.6197 -1.941045,1.427188 -1.941045,2.441243c0,1.455356 0.970523,2.525748 2.964314,3.220563c1.919947,0.694815 4.304057,1.211232 7.089035,1.55864c2.816626,0.356797 5.601604,0.826267 8.365484,1.408409c2.753331,0.591532 5.126892,1.802764 7.078486,3.614918c1.962144,1.830932 2.953765,4.272175 2.953765,7.323729c0,3.924768 -1.856652,7.023268 -5.601604,9.314281c-3.755501,2.309791 -8.829647,3.464687 -15.264634,3.464687" class="st0"/>
   <path stroke="null" id="svg_56" d="m1120.459272,447.524646c-7.479354,0 -13.481826,-1.896658 -18.017965,-5.699364c-4.557237,-3.812095 -6.825306,-8.816643 -6.825306,-15.032424c0,-6.262727 2.268069,-11.314223 6.825306,-15.116928c4.536139,-3.802706 10.538611,-5.708753 18.017965,-5.708753c6.013021,0 11.076618,1.314515 15.159143,3.934157c4.103623,2.619642 6.624872,6.178223 7.595395,10.628797c0.200434,1.061002 -0.337573,1.596197 -1.540177,1.596197l-9.641932,0c-0.843933,0 -1.497981,-0.422523 -1.909398,-1.276958c-0.654048,-1.55864 -1.856652,-2.79804 -3.576165,-3.73698c-1.719513,-0.93894 -3.734403,-1.408409 -6.086865,-1.408409c-3.565616,0 -6.413889,1.032834 -8.576467,3.070333c-2.183676,2.01872 -3.27024,4.713477 -3.27024,8.027934c0,3.333236 1.086563,5.990435 3.27024,7.999766c2.162578,2.009331 5.0214,3.013996 8.576467,3.013996c2.352463,0 4.38845,-0.46008 6.129062,-1.370852c1.751161,-0.910771 2.911568,-2.168951 3.523419,-3.774537c0.474712,-0.863824 1.107662,-1.286347 1.909398,-1.286347l9.641932,0c1.202604,0 1.740611,0.535196 1.540177,1.605587c-0.970523,4.450574 -3.491772,7.990376 -7.595395,10.619407c-4.061427,2.610252 -9.135572,3.915378 -15.148593,3.915378" class="st0"/>
   <path stroke="null" id="svg_57" d="m1192.225206,441.834672c-4.546688,3.802706 -10.559709,5.699364 -18.017965,5.699364c-7.468805,0 -13.481826,-1.896658 -18.039063,-5.699364c-4.52559,-3.812095 -6.804208,-8.816643 -6.804208,-15.032424c0,-6.262727 2.278619,-11.323612 6.804208,-15.116928c4.557237,-3.812095 10.570258,-5.708753 18.039063,-5.708753c7.458256,0 13.471277,1.896658 18.017965,5.708753c4.546688,3.793316 6.793659,8.854201 6.793659,15.116928c0,6.206391 -2.246971,11.220329 -6.793659,15.032424m-26.668276,-7.201667c2.204774,1.962384 5.084695,2.929492 8.639762,2.929492c3.544518,0 6.424438,-0.967108 8.608114,-2.929492c2.215324,-1.952994 3.301887,-4.563247 3.301887,-7.830757s-1.086563,-5.896541 -3.301887,-7.877704c-2.183676,-1.981163 -5.063597,-2.976439 -8.608114,-2.976439c-3.555067,0 -6.434987,0.995276 -8.639762,2.976439c-2.194225,1.990552 -3.291338,4.619583 -3.291338,7.877704s1.107662,5.868373 3.291338,7.830757" class="st0"/>
   <path stroke="null" id="svg_58" d="m418.307199,106.802232l0,328.121845l-30.824645,0.234735l0,-238.030587l-32.459765,-0.122062l40.202848,-68.570761l0.37977,-0.854435c11.488035,-27.313754 7.394961,-58.092195 -10.960577,-82.307448c-18.344989,-24.215253 -47.534514,-38.515304 -80.131417,-39.238287c-1.803906,-0.046947 -3.607813,-0.046947 -5.390621,0c-32.575805,0.722984 -61.775879,15.032424 -80.131417,39.238287c-18.355538,24.215253 -22.438063,54.993694 -10.939479,82.307448l0.369221,0.854435l39.92857,68.148239l-32.206585,-0.15023l0,238.321658l-31.911208,0.028168l0,-149.516747l-170.231791,0l0,179.95717l35.856594,0l0,-148.052002l98.560799,0l0,149.554305l103.592749,-0.112673l0,-238.124481l15.116946,0.065726l34.696186,59.181365l34.5274,-58.909073l15.306831,0.065726l0,238.424941l102.495636,-0.751152l0,-327.87772l98.571349,0l0,326.544426l35.835496,0l0,-358.430816l-170.252889,0zm-101.103147,90.044311l-15.401773,26.243363l-15.44397,-26.356036l-47.186392,-80.457737c-7.394961,-18.318712 -4.609983,-38.055223 7.690337,-54.2801c12.18428,-16.084036 31.541988,-25.586105 53.115019,-26.064964c1.202604,-0.028168 2.457954,-0.028168 3.692206,0c21.562483,0.478859 40.909641,9.980928 53.093921,26.064964c12.30032,16.215487 15.074749,35.961388 7.669239,54.2801l-47.228588,80.57041z" class="st0"/>
   <path stroke="null" id="svg_59" d="m301.274821,137.683956c-27.797036,0 -50.403885,-20.121476 -50.403885,-44.853146s22.606849,-44.853146 50.403885,-44.853146c27.797036,0 50.403885,20.121476 50.403885,44.853146s-22.606849,44.853146 -50.403885,44.853146m0,-59.801065c-9.283261,0 -16.804811,6.713418 -16.804811,14.947919s7.521551,14.947919 16.804811,14.947919c9.272711,0 16.804811,-6.713418 16.804811,-14.947919s-7.5321,-14.947919 -16.804811,-14.947919" class="st0"/>
  </g>
 </g>
</svg>