<svg xmlns="http://www.w3.org/2000/svg" width="314.047" height="54.867" viewBox="0 0 314.047 54.867">
  <g id="ico_sisemh" transform="translate(0 0)">
    <g id="Group_4302" data-name="Group 4302" transform="translate(0 0)">
      <path id="Path_15836" data-name="Path 15836" d="M1313.6,2014.807h0a9.121,9.121,0,0,1,9.122-9.122H1336.4v-4.56h-13.682a13.68,13.68,0,0,0-13.682,13.682h0v13.682h-4.565v4.563h4.565v4.7h4.56v-4.7h4.56v-4.562h-4.56Z" transform="translate(-1304.478 -1982.881)" fill="#e7004c"/>
      <path id="Path_15837" data-name="Path 15837" d="M1344.266,2002.8l-9.122-9.122-9.121,9.122h6.842v13.687a9.127,9.127,0,0,1-9.12,9.12v0H1310.06v4.56h13.682v0a13.677,13.677,0,0,0,13.67-13.417h.012v-.265h0V2002.8Z" transform="translate(-1296.376 -1993.683)" fill="#e7004c"/>
      <g id="Group_4300" data-name="Group 4300" transform="translate(64.965 7.833)">
        <path id="Path_15838" data-name="Path 15838" d="M1331.339,2010.566a.32.32,0,0,1-.361-.363V2008.4a.32.32,0,0,1,.361-.363h1.887v-8.267h-1.887a.319.319,0,0,1-.361-.361v-1.81a.318.318,0,0,1,.361-.361h6.764c.252,0,.38.118.38.361v1.81c0,.241-.129.361-.38.361h-1.887v8.267h1.887c.252,0,.38.12.38.363v1.808c0,.243-.129.363-.38.363Z" transform="translate(-1330.978 -1996.47)" fill="#e7004c"/>
        <path id="Path_15839" data-name="Path 15839" d="M1345.269,1999.3a.319.319,0,0,1,.361.361v9.1a4.151,4.151,0,0,1-1.41,3.267,5.366,5.366,0,0,1-3.695,1.246,5.911,5.911,0,0,1-3.439-.952,3.8,3.8,0,0,1-1.666-2.534c-.064-.239.052-.359.344-.359h2.132a.461.461,0,0,1,.419.286,1.621,1.621,0,0,0,.782.9,2.826,2.826,0,0,0,1.408.335,2.263,2.263,0,0,0,1.638-.591,2.1,2.1,0,0,0,.611-1.582v-.8a4.272,4.272,0,0,1-2.648.819,4.947,4.947,0,0,1-3.6-1.38,5.127,5.127,0,0,1,0-7.059,4.948,4.948,0,0,1,3.6-1.371,4.274,4.274,0,0,1,2.7.875v-.208a.321.321,0,0,1,.363-.361Zm-4.916,7.256a2.219,2.219,0,0,0,1.735-.744,2.773,2.773,0,0,0,.667-1.921,2.741,2.741,0,0,0-.677-1.924,2.224,2.224,0,0,0-1.724-.746,2.293,2.293,0,0,0-1.76.755,3.008,3.008,0,0,0-.011,3.836A2.3,2.3,0,0,0,1340.353,2006.558Z" transform="translate(-1326.241 -1994.444)" fill="#e7004c"/>
        <path id="Path_15840" data-name="Path 15840" d="M1352.666,2008.051a.347.347,0,0,1-.286.4,5.314,5.314,0,0,1-1.446.23,2.786,2.786,0,0,1-2.554-1.107,4.585,4.585,0,0,1-3.239,1.107,3.994,3.994,0,0,1-2.981-1.154,4.173,4.173,0,0,1-1.132-3.056V1999.5a.32.32,0,0,1,.363-.361h2.132a.321.321,0,0,1,.363.361v4.591a2.206,2.206,0,0,0,.542,1.56,1.874,1.874,0,0,0,1.457.591,2.082,2.082,0,0,0,1.524-.561,2.01,2.01,0,0,0,.572-1.5V1999.5a.319.319,0,0,1,.361-.361h2.154a.32.32,0,0,1,.361.361v5.982q0,.741.627.741a2.488,2.488,0,0,0,.591-.058.339.339,0,0,1,.42.305Z" transform="translate(-1319.428 -1994.281)" fill="#e7004c"/>
        <path id="Path_15841" data-name="Path 15841" d="M1359.35,2008.215a.333.333,0,0,1-.3.4,5.128,5.128,0,0,1-1.429.23,2.5,2.5,0,0,1-2.4-1.163,4.7,4.7,0,0,1-3.2,1.163,4.941,4.941,0,0,1-3.609-1.372,5.21,5.21,0,0,1,0-7.105,4.933,4.933,0,0,1,3.609-1.371,4.28,4.28,0,0,1,2.706.875v-.208a.319.319,0,0,1,.361-.361h2.1a.319.319,0,0,1,.361.361v5.982q0,.741.63.741a2.473,2.473,0,0,0,.589-.058c.256-.024.389.077.4.305Zm-7.084-1.6a2.2,2.2,0,0,0,1.732-.755,2.8,2.8,0,0,0,.666-1.932,2.828,2.828,0,0,0-.666-1.951,2.212,2.212,0,0,0-1.732-.755,2.287,2.287,0,0,0-1.771.755,2.78,2.78,0,0,0-.688,1.951,2.75,2.75,0,0,0,.688,1.932A2.28,2.28,0,0,0,1352.266,2006.616Z" transform="translate(-1312.552 -1994.444)" fill="#e7004c"/>
        <path id="Path_15842" data-name="Path 15842" d="M1356.445,2011.279a3.39,3.39,0,0,1-2.123-.611,1.981,1.981,0,0,1-.791-1.657v-11.77a.32.32,0,0,1,.363-.363h2.132a.321.321,0,0,1,.363.363V2008.1q0,.722.647.722a2.365,2.365,0,0,0,.57-.058c.256-.024.389.078.4.305l.189,1.582a.333.333,0,0,1-.3.4A5.048,5.048,0,0,1,1356.445,2011.279Z" transform="translate(-1305.056 -1996.878)" fill="#e7004c"/>
        <path id="Path_15843" data-name="Path 15843" d="M1368.592,2010.649a.314.314,0,0,1-.286.4,5.215,5.215,0,0,1-1.466.23,2.458,2.458,0,0,1-2.4-1.2,4.4,4.4,0,0,1-3.162,1.2,4.939,4.939,0,0,1-3.608-1.372,5.209,5.209,0,0,1,0-7.106,4.932,4.932,0,0,1,3.608-1.371,4.375,4.375,0,0,1,2.649.819v-5.008a.32.32,0,0,1,.363-.363h2.151a.32.32,0,0,1,.361.363V2008.1q0,.722.63.722a2.239,2.239,0,0,0,.569-.058c.269-.024.408.078.421.305Zm-7.065-1.6a2.206,2.206,0,0,0,1.732-.755,2.8,2.8,0,0,0,.667-1.932,2.828,2.828,0,0,0-.667-1.951,2.212,2.212,0,0,0-1.732-.755,2.294,2.294,0,0,0-1.773.755,2.788,2.788,0,0,0-.686,1.951,2.759,2.759,0,0,0,.686,1.932A2.288,2.288,0,0,0,1361.527,2009.05Z" transform="translate(-1301.908 -1996.878)" fill="#e7004c"/>
        <path id="Path_15844" data-name="Path 15844" d="M1374.912,2008.215a.334.334,0,0,1-.3.4,5.117,5.117,0,0,1-1.429.23,2.5,2.5,0,0,1-2.4-1.163,4.7,4.7,0,0,1-3.2,1.163,4.943,4.943,0,0,1-3.611-1.372,5.21,5.21,0,0,1,0-7.105,4.935,4.935,0,0,1,3.611-1.371,4.272,4.272,0,0,1,2.7.875v-.208a.32.32,0,0,1,.363-.361h2.094a.321.321,0,0,1,.364.361v5.982q0,.741.627.741a2.486,2.486,0,0,0,.591-.058c.254-.024.387.077.4.305Zm-7.084-1.6a2.208,2.208,0,0,0,1.735-.755,2.806,2.806,0,0,0,.666-1.932,2.837,2.837,0,0,0-.666-1.951,2.214,2.214,0,0,0-1.735-.755,2.287,2.287,0,0,0-1.771.755,2.778,2.778,0,0,0-.686,1.951,2.748,2.748,0,0,0,.686,1.932A2.28,2.28,0,0,0,1367.827,2006.616Z" transform="translate(-1294.667 -1994.444)" fill="#e7004c"/>
        <path id="Path_15845" data-name="Path 15845" d="M1381.2,2010.649a.313.313,0,0,1-.284.4,5.24,5.24,0,0,1-1.468.23,2.459,2.459,0,0,1-2.4-1.2,4.4,4.4,0,0,1-3.162,1.2,4.941,4.941,0,0,1-3.609-1.372,5.21,5.21,0,0,1,0-7.106,4.934,4.934,0,0,1,3.609-1.371,4.373,4.373,0,0,1,2.648.819v-5.008a.32.32,0,0,1,.363-.363h2.152a.32.32,0,0,1,.361.363V2008.1c0,.481.211.722.63.722a2.259,2.259,0,0,0,.572-.058c.266-.024.406.078.419.305Zm-7.065-1.6a2.205,2.205,0,0,0,1.732-.755,2.8,2.8,0,0,0,.667-1.932,2.827,2.827,0,0,0-.667-1.951,2.212,2.212,0,0,0-1.732-.755,2.3,2.3,0,0,0-1.773.755,2.787,2.787,0,0,0-.686,1.951,2.757,2.757,0,0,0,.686,1.932A2.288,2.288,0,0,0,1374.137,2009.05Z" transform="translate(-1287.414 -1996.878)" fill="#e7004c"/>
        <path id="Path_15846" data-name="Path 15846" d="M1383.556,2011.014a7.2,7.2,0,0,1-4.144-1.135,4.245,4.245,0,0,1-1.932-3.018c-.038-.254.075-.383.342-.383h2.268a.411.411,0,0,1,.4.305,2.176,2.176,0,0,0,1.077,1.333,4.015,4.015,0,0,0,2.066.5,3.047,3.047,0,0,0,1.668-.4,1.239,1.239,0,0,0,.619-1.085,1.188,1.188,0,0,0-.438-.954,2.845,2.845,0,0,0-1.135-.533q-.693-.171-1.541-.3a13.951,13.951,0,0,1-1.7-.381,7.388,7.388,0,0,1-1.543-.638,2.925,2.925,0,0,1-1.133-1.182,3.892,3.892,0,0,1-.438-1.913,3.6,3.6,0,0,1,1.477-2.99,6.115,6.115,0,0,1,3.856-1.144,6.807,6.807,0,0,1,3.811,1.036,4.081,4.081,0,0,1,1.885,2.792c.063.241-.051.364-.341.364h-2.287a.44.44,0,0,1-.419-.286,1.9,1.9,0,0,0-.857-1.143,3.033,3.033,0,0,0-1.619-.4,2.868,2.868,0,0,0-1.638.426,1.338,1.338,0,0,0-.63,1.155,1.3,1.3,0,0,0,.582,1.115,3.443,3.443,0,0,0,1.458.55c.583.1,1.213.224,1.885.383a15.074,15.074,0,0,1,1.885.57,3.122,3.122,0,0,1,1.457,1.154,3.5,3.5,0,0,1,.583,2.074,3.564,3.564,0,0,1-1.516,3A6.526,6.526,0,0,1,1383.556,2011.014Z" transform="translate(-1277.538 -1996.633)" fill="#e7004c"/>
        <path id="Path_15847" data-name="Path 15847" d="M1395.459,2008.051a.348.348,0,0,1-.286.4,5.332,5.332,0,0,1-1.449.23,2.782,2.782,0,0,1-2.551-1.107,4.585,4.585,0,0,1-3.239,1.107,3.993,3.993,0,0,1-2.981-1.154,4.172,4.172,0,0,1-1.133-3.056V1999.5a.319.319,0,0,1,.361-.361h2.135a.319.319,0,0,1,.361.361v4.591a2.207,2.207,0,0,0,.544,1.56,1.875,1.875,0,0,0,1.458.591,2.083,2.083,0,0,0,1.524-.561,2.009,2.009,0,0,0,.57-1.5V1999.5a.321.321,0,0,1,.363-.361h2.154a.32.32,0,0,1,.361.361v5.982c0,.494.208.741.628.741a2.5,2.5,0,0,0,.591-.058.339.339,0,0,1,.419.305Z" transform="translate(-1270.242 -1994.281)" fill="#e7004c"/>
        <path id="Path_15848" data-name="Path 15848" d="M1394.432,2008.845a6.026,6.026,0,0,1-3.256-.791,3.023,3.023,0,0,1-1.468-2.2c-.039-.252.084-.38.363-.38l1.865.019a.494.494,0,0,1,.419.266q.4,1.029,2.076,1.029a2.413,2.413,0,0,0,1.133-.23.686.686,0,0,0,.43-.608c0-.331-.2-.57-.611-.716a6.821,6.821,0,0,0-1.485-.322,15.588,15.588,0,0,1-1.752-.316,2.92,2.92,0,0,1-1.487-.858,2.449,2.449,0,0,1-.608-1.752,2.535,2.535,0,0,1,1.161-2.171,5.218,5.218,0,0,1,3.067-.819,5.591,5.591,0,0,1,3,.752,2.793,2.793,0,0,1,1.4,1.99c.039.256-.075.381-.342.381h-1.887a.42.42,0,0,1-.381-.228,1.36,1.36,0,0,0-.658-.677,2.6,2.6,0,0,0-2.171-.036.653.653,0,0,0-.411.58.817.817,0,0,0,.619.761,6.437,6.437,0,0,0,1.507.372c.589.084,1.178.193,1.76.333a2.986,2.986,0,0,1,1.5.858,2.4,2.4,0,0,1,.619,1.732,2.56,2.56,0,0,1-1.182,2.212A5.562,5.562,0,0,1,1394.432,2008.845Z" transform="translate(-1263.482 -1994.444)" fill="#e7004c"/>
        <path id="Path_15849" data-name="Path 15849" d="M1400.463,2010.169a4.017,4.017,0,0,1-2.942-1.057,3.861,3.861,0,0,1-1.075-2.887v-3.3h-1.754a.319.319,0,0,1-.361-.361v-1.582a.319.319,0,0,1,.361-.361h1.754v-2.42a.321.321,0,0,1,.361-.363h2.134a.321.321,0,0,1,.361.363v2.42h2.99a.319.319,0,0,1,.361.361v1.582a.319.319,0,0,1-.361.361h-2.99v3.2a1.524,1.524,0,0,0,.427,1.143,1.58,1.58,0,0,0,1.154.419,5.858,5.858,0,0,0,1.427-.172.32.32,0,0,1,.42.286l.247,1.638a.39.39,0,0,1-.286.419A9.326,9.326,0,0,1,1400.463,2010.169Z" transform="translate(-1258.161 -1995.769)" fill="#e7004c"/>
        <path id="Path_15850" data-name="Path 15850" d="M1411.271,2008.215a.333.333,0,0,1-.3.4,5.115,5.115,0,0,1-1.429.23,2.5,2.5,0,0,1-2.4-1.163,4.7,4.7,0,0,1-3.2,1.163,4.946,4.946,0,0,1-3.611-1.372,5.21,5.21,0,0,1,0-7.105,4.938,4.938,0,0,1,3.611-1.371,4.273,4.273,0,0,1,2.7.875v-.208a.32.32,0,0,1,.363-.361h2.093a.321.321,0,0,1,.364.361v5.982c0,.494.208.741.627.741a2.485,2.485,0,0,0,.591-.058c.254-.024.387.077.4.305Zm-7.084-1.6a2.207,2.207,0,0,0,1.734-.755,2.806,2.806,0,0,0,.667-1.932,2.837,2.837,0,0,0-.667-1.951,2.213,2.213,0,0,0-1.734-.755,2.287,2.287,0,0,0-1.771.755,2.779,2.779,0,0,0-.686,1.951,2.749,2.749,0,0,0,.686,1.932A2.281,2.281,0,0,0,1404.187,2006.616Z" transform="translate(-1252.876 -1994.444)" fill="#e7004c"/>
        <path id="Path_15851" data-name="Path 15851" d="M1412.392,1999a4.047,4.047,0,0,1,3.01,1.152,4.162,4.162,0,0,1,1.143,3.058v4.97a.32.32,0,0,1-.361.363h-2.134c-.254,0-.382-.12-.382-.363v-4.589a2.21,2.21,0,0,0-.542-1.562,1.882,1.882,0,0,0-1.457-.591,2.105,2.105,0,0,0-1.532.563,1.977,1.977,0,0,0-.58,1.5v4.684a.321.321,0,0,1-.363.363h-2.132a.321.321,0,0,1-.364-.363v-5.98a.656.656,0,0,0-.744-.743,4.192,4.192,0,0,0-.417.056c-.28,0-.419-.1-.419-.3v-1.563a.4.4,0,0,1,.286-.419,3.771,3.771,0,0,1,1.369-.228,2.372,2.372,0,0,1,2.287,1.2A4.506,4.506,0,0,1,1412.392,1999Z" transform="translate(-1245.766 -1994.444)" fill="#e7004c"/>
        <path id="Path_15852" data-name="Path 15852" d="M1417.088,2010.169a4.017,4.017,0,0,1-2.942-1.057,3.863,3.863,0,0,1-1.077-2.887v-3.3h-1.752a.318.318,0,0,1-.361-.361v-1.582a.318.318,0,0,1,.361-.361h1.752v-2.42a.321.321,0,0,1,.361-.363h2.134a.321.321,0,0,1,.361.363v2.42h2.992a.319.319,0,0,1,.361.361v1.582a.319.319,0,0,1-.361.361h-2.992v3.2a1.526,1.526,0,0,0,.43,1.143,1.574,1.574,0,0,0,1.152.419,5.875,5.875,0,0,0,1.429-.172.32.32,0,0,1,.419.286l.247,1.638a.392.392,0,0,1-.286.419A9.322,9.322,0,0,1,1417.088,2010.169Z" transform="translate(-1239.053 -1995.769)" fill="#e7004c"/>
        <path id="Path_15853" data-name="Path 15853" d="M1418.549,1999.575a1.835,1.835,0,0,1-2.42,0,1.488,1.488,0,0,1-.486-1.124,1.459,1.459,0,0,1,.486-1.116,1.854,1.854,0,0,1,2.42,0,1.457,1.457,0,0,1,.486,1.116A1.487,1.487,0,0,1,1418.549,1999.575Zm-2.276,11.39a.321.321,0,0,1-.363-.364v-8.513a.321.321,0,0,1,.363-.361h2.132a.321.321,0,0,1,.363.361v8.513a.321.321,0,0,1-.363.364Z" transform="translate(-1233.666 -1996.869)" fill="#e7004c"/>
        <path id="Path_15854" data-name="Path 15854" d="M1422.208,2008.376a.4.4,0,0,1-.4-.269l-3.981-8.55q-.155-.419.284-.419h2.267a.419.419,0,0,1,.419.266l2.476,5.522,2.515-5.522a.4.4,0,0,1,.4-.266h2.248a.32.32,0,0,1,.286.114.33.33,0,0,1,0,.305l-3.983,8.55a.4.4,0,0,1-.4.269Z" transform="translate(-1231.202 -1994.281)" fill="#e7004c"/>
        <path id="Path_15855" data-name="Path 15855" d="M1435.712,2008.215a.333.333,0,0,1-.3.4,5.118,5.118,0,0,1-1.429.23,2.5,2.5,0,0,1-2.4-1.163,4.7,4.7,0,0,1-3.2,1.163,4.943,4.943,0,0,1-3.611-1.372,5.209,5.209,0,0,1,0-7.105,4.934,4.934,0,0,1,3.611-1.371,4.272,4.272,0,0,1,2.7.875v-.208a.32.32,0,0,1,.363-.361h2.094a.321.321,0,0,1,.363.361v5.982q0,.741.628.741a2.487,2.487,0,0,0,.591-.058c.254-.024.387.077.4.305Zm-7.084-1.6a2.2,2.2,0,0,0,1.733-.755,2.8,2.8,0,0,0,.668-1.932,2.831,2.831,0,0,0-.668-1.951,2.211,2.211,0,0,0-1.733-.755,2.287,2.287,0,0,0-1.771.755,2.779,2.779,0,0,0-.686,1.951,2.75,2.75,0,0,0,.686,1.932A2.28,2.28,0,0,0,1428.628,2006.616Z" transform="translate(-1224.783 -1994.444)" fill="#e7004c"/>
      </g>
      <g id="Group_4301" data-name="Group 4301" transform="translate(65.173 30.689)">
        <path id="Path_15856" data-name="Path 15856" d="M1336.314,2019.479a5.326,5.326,0,0,1-3.791-1.354,4.64,4.64,0,0,1-1.449-3.559,4.748,4.748,0,0,1,1.4-3.583,5.056,5.056,0,0,1,3.664-1.352,4.931,4.931,0,0,1,3.63,1.333,4.751,4.751,0,0,1,1.343,3.525c0,.077,0,.187-.011.333s-.008.251-.008.313a.362.362,0,0,1-.4.325h-6.839a2.371,2.371,0,0,0,.905,1.352,2.655,2.655,0,0,0,1.61.495,1.992,1.992,0,0,0,1.561-.57.764.764,0,0,1,.458-.191h2.134a.363.363,0,0,1,.295.1.257.257,0,0,1,.011.279,3.837,3.837,0,0,1-1.7,1.866A5.6,5.6,0,0,1,1336.314,2019.479Zm-2.478-5.715h4.553a2.045,2.045,0,0,0-.628-1.458,2.148,2.148,0,0,0-1.544-.561,2.371,2.371,0,0,0-1.59.561A2.3,2.3,0,0,0,1333.836,2013.763Z" transform="translate(-1331.074 -2005.078)" fill="#e7004c"/>
        <path id="Path_15857" data-name="Path 15857" d="M1343.6,2009.63a4.054,4.054,0,0,1,3.009,1.152,4.155,4.155,0,0,1,1.143,3.057v4.971a.32.32,0,0,1-.363.363h-2.132c-.256,0-.382-.12-.382-.363v-4.589a2.212,2.212,0,0,0-.542-1.563,1.882,1.882,0,0,0-1.457-.591,2.1,2.1,0,0,0-1.532.563,1.974,1.974,0,0,0-.58,1.494v4.686a.321.321,0,0,1-.363.363h-2.132a.32.32,0,0,1-.363-.363v-5.98a.658.658,0,0,0-.743-.744,3.833,3.833,0,0,0-.417.058c-.28,0-.419-.1-.419-.305v-1.56a.4.4,0,0,1,.286-.422,3.774,3.774,0,0,1,1.369-.228,2.372,2.372,0,0,1,2.287,1.2A4.508,4.508,0,0,1,1343.6,2009.63Z" transform="translate(-1325.044 -2005.078)" fill="#e7004c"/>
        <path id="Path_15858" data-name="Path 15858" d="M1348.294,2020.8a4.016,4.016,0,0,1-2.943-1.058,3.861,3.861,0,0,1-1.077-2.886v-3.3h-1.752a.319.319,0,0,1-.361-.363v-1.58a.318.318,0,0,1,.361-.361h1.752v-2.418a.32.32,0,0,1,.361-.363h2.134a.32.32,0,0,1,.361.363v2.418h2.992a.319.319,0,0,1,.361.361v1.58a.32.32,0,0,1-.361.363h-2.992v3.2a1.521,1.521,0,0,0,.43,1.141,1.577,1.577,0,0,0,1.152.419,5.913,5.913,0,0,0,1.429-.17.318.318,0,0,1,.419.286l.248,1.638a.389.389,0,0,1-.286.419A9.315,9.315,0,0,1,1348.294,2020.8Z" transform="translate(-1318.332 -2006.401)" fill="#e7004c"/>
        <path id="Path_15859" data-name="Path 15859" d="M1355.017,2009.8a.345.345,0,0,1,.286.419l-.249,1.829c-.036.228-.176.322-.419.286a5.248,5.248,0,0,0-1.047-.1,2.528,2.528,0,0,0-1.81.666,2.377,2.377,0,0,0-.7,1.81v4.095a.321.321,0,0,1-.363.363h-2.132a.32.32,0,0,1-.363-.363v-5.98a.658.658,0,0,0-.743-.744,3.837,3.837,0,0,0-.417.058c-.279,0-.419-.1-.419-.305v-1.56a.4.4,0,0,1,.284-.422,4.206,4.206,0,0,1,1.371-.228,2.285,2.285,0,0,1,2.306,1.3,4,4,0,0,1,3.1-1.3A4.26,4.26,0,0,1,1355.017,2009.8Z" transform="translate(-1313.188 -2005.078)" fill="#e7004c"/>
        <path id="Path_15860" data-name="Path 15860" d="M1356.492,2019.479a5.327,5.327,0,0,1-3.792-1.354,4.64,4.64,0,0,1-1.446-3.559,4.756,4.756,0,0,1,1.4-3.583,5.06,5.06,0,0,1,3.667-1.352,4.925,4.925,0,0,1,3.628,1.333,4.744,4.744,0,0,1,1.343,3.525c0,.077,0,.187-.011.333s-.008.251-.008.313a.36.36,0,0,1-.4.325h-6.839a2.376,2.376,0,0,0,.907,1.352,2.65,2.65,0,0,0,1.608.495,2,2,0,0,0,1.562-.57.764.764,0,0,1,.458-.191h2.132a.37.37,0,0,1,.3.1.261.261,0,0,1,.009.279,3.835,3.835,0,0,1-1.7,1.866A5.6,5.6,0,0,1,1356.492,2019.479Zm-2.476-5.715h4.553a2.057,2.057,0,0,0-.63-1.458,2.147,2.147,0,0,0-1.543-.561,2.372,2.372,0,0,0-1.591.561A2.3,2.3,0,0,0,1354.016,2013.763Z" transform="translate(-1307.881 -2005.078)" fill="#e7004c"/>
        <path id="Path_15861" data-name="Path 15861" d="M1359.5,2021.2c-.254,0-.381-.12-.381-.363v-12.608c0-.241.127-.364.381-.364h1.562a.524.524,0,0,1,.436.228l4.858,7.411,4.858-7.411a.528.528,0,0,1,.438-.228h1.6a.32.32,0,0,1,.361.364v12.608a.319.319,0,0,1-.361.363h-2.265a.321.321,0,0,1-.363-.363V2013.6l-3.295,5.122a.464.464,0,0,1-.438.232h-1.027a.523.523,0,0,1-.439-.232l-3.334-5.177v7.292a.32.32,0,0,1-.361.363Z" transform="translate(-1298.837 -2007.104)" fill="#e7004c"/>
        <path id="Path_15862" data-name="Path 15862" d="M1378.578,2018.685a.348.348,0,0,1-.286.4,5.334,5.334,0,0,1-1.449.23,2.791,2.791,0,0,1-2.551-1.1,4.6,4.6,0,0,1-3.239,1.1,4,4,0,0,1-2.981-1.152,4.18,4.18,0,0,1-1.133-3.059v-4.972a.32.32,0,0,1,.363-.361h2.132a.319.319,0,0,1,.361.361v4.592a2.214,2.214,0,0,0,.544,1.562,1.883,1.883,0,0,0,1.458.591,2.082,2.082,0,0,0,1.524-.563,2,2,0,0,0,.572-1.494v-4.688a.319.319,0,0,1,.361-.361h2.154a.32.32,0,0,1,.361.361v5.982c0,.494.209.744.628.744a2.758,2.758,0,0,0,.591-.058.337.337,0,0,1,.419.305Z" transform="translate(-1289.854 -2004.914)" fill="#e7004c"/>
        <path id="Path_15863" data-name="Path 15863" d="M1372.924,2026.338a.366.366,0,0,1-.4-.342l-.247-1.582c-.039-.217.088-.354.38-.419a1.92,1.92,0,0,0,1.191-.483,1.768,1.768,0,0,0,.333-1.191v-9.6a.319.319,0,0,1,.361-.361h2.153a.319.319,0,0,1,.361.361V2022a4.58,4.58,0,0,1-1.008,3.228A4.21,4.21,0,0,1,1372.924,2026.338Zm2.7-15.675a1.734,1.734,0,0,1-1.219-.458,1.475,1.475,0,0,1-.494-1.124,1.445,1.445,0,0,1,.494-1.113,1.763,1.763,0,0,1,1.219-.447,1.737,1.737,0,0,1,1.2.447,1.444,1.444,0,0,1,.494,1.113,1.473,1.473,0,0,1-.494,1.124A1.708,1.708,0,0,1,1375.628,2010.663Z" transform="translate(-1283.725 -2007.501)" fill="#e7004c"/>
        <path id="Path_15864" data-name="Path 15864" d="M1380.64,2019.479a5.318,5.318,0,0,1-3.789-1.354,4.634,4.634,0,0,1-1.449-3.559,4.757,4.757,0,0,1,1.4-3.583,5.064,5.064,0,0,1,3.667-1.352,4.933,4.933,0,0,1,3.63,1.333,4.75,4.75,0,0,1,1.341,3.525c0,.077,0,.187-.009.333s-.011.251-.011.313a.358.358,0,0,1-.4.325h-6.837a2.37,2.37,0,0,0,.9,1.352,2.653,2.653,0,0,0,1.61.495,2,2,0,0,0,1.561-.57.762.762,0,0,1,.458-.191h2.132a.372.372,0,0,1,.3.1.257.257,0,0,1,.008.279,3.831,3.831,0,0,1-1.694,1.866A5.611,5.611,0,0,1,1380.64,2019.479Zm-2.476-5.715h4.552a2.047,2.047,0,0,0-.63-1.458,2.145,2.145,0,0,0-1.541-.561,2.368,2.368,0,0,0-1.591.561A2.293,2.293,0,0,0,1378.164,2013.763Z" transform="translate(-1280.126 -2005.078)" fill="#e7004c"/>
        <path id="Path_15865" data-name="Path 15865" d="M1389.028,2009.8a.345.345,0,0,1,.288.419l-.25,1.829a.32.32,0,0,1-.419.286,5.244,5.244,0,0,0-1.046-.1,2.525,2.525,0,0,0-1.81.666,2.372,2.372,0,0,0-.705,1.81v4.095a.32.32,0,0,1-.361.363h-2.135a.32.32,0,0,1-.361-.363v-5.98a.659.659,0,0,0-.744-.744,3.918,3.918,0,0,0-.419.058c-.28,0-.419-.1-.419-.305v-1.56a.4.4,0,0,1,.286-.422,4.209,4.209,0,0,1,1.371-.228,2.286,2.286,0,0,1,2.306,1.3,4,4,0,0,1,3.1-1.3A4.233,4.233,0,0,1,1389.028,2009.8Z" transform="translate(-1274.097 -2005.078)" fill="#e7004c"/>
        <path id="Path_15866" data-name="Path 15866" d="M1390.505,2019.479a5.328,5.328,0,0,1-3.792-1.354,4.642,4.642,0,0,1-1.448-3.559,4.75,4.75,0,0,1,1.4-3.583,5.054,5.054,0,0,1,3.665-1.352,4.93,4.93,0,0,1,3.63,1.333,4.751,4.751,0,0,1,1.344,3.525c0,.077,0,.187-.011.333s-.009.251-.009.313a.361.361,0,0,1-.4.325h-6.838a2.375,2.375,0,0,0,.905,1.352,2.657,2.657,0,0,0,1.61.495,1.992,1.992,0,0,0,1.56-.57.763.763,0,0,1,.458-.191h2.134a.362.362,0,0,1,.294.1.257.257,0,0,1,.011.279,3.836,3.836,0,0,1-1.7,1.866A5.606,5.606,0,0,1,1390.505,2019.479Zm-2.478-5.715h4.552a2.056,2.056,0,0,0-.628-1.458,2.147,2.147,0,0,0-1.543-.561,2.371,2.371,0,0,0-1.59.561A2.3,2.3,0,0,0,1388.027,2013.763Z" transform="translate(-1268.791 -2005.078)" fill="#e7004c"/>
        <path id="Path_15867" data-name="Path 15867" d="M1395.266,2019.479a6.03,6.03,0,0,1-3.256-.791,3.026,3.026,0,0,1-1.468-2.2c-.039-.253.084-.381.363-.381l1.865.02a.494.494,0,0,1,.419.267q.4,1.028,2.076,1.027a2.406,2.406,0,0,0,1.133-.228.685.685,0,0,0,.43-.61q0-.493-.61-.712a6.784,6.784,0,0,0-1.485-.325,15,15,0,0,1-1.752-.316,2.949,2.949,0,0,1-1.487-.855,2.456,2.456,0,0,1-.608-1.752,2.538,2.538,0,0,1,1.161-2.173,5.234,5.234,0,0,1,3.067-.819,5.589,5.589,0,0,1,3,.752,2.8,2.8,0,0,1,1.4,1.99c.039.254-.075.383-.342.383h-1.887a.418.418,0,0,1-.38-.23,1.358,1.358,0,0,0-.656-.677,2.332,2.332,0,0,0-1.1-.258,2.281,2.281,0,0,0-1.077.221.655.655,0,0,0-.411.58.82.82,0,0,0,.619.763,6.456,6.456,0,0,0,1.506.37c.589.082,1.178.2,1.761.335a2.979,2.979,0,0,1,1.5.855,2.411,2.411,0,0,1,.619,1.735,2.557,2.557,0,0,1-1.182,2.21A5.581,5.581,0,0,1,1395.266,2019.479Z" transform="translate(-1262.733 -2005.078)" fill="#e7004c"/>
        <path id="Path_15868" data-name="Path 15868" d="M1408.869,2009.771a.291.291,0,0,1,.275.114.334.334,0,0,1-.009.3l-4.743,10.556a4.48,4.48,0,0,1-4.247,3.007,7.7,7.7,0,0,1-2.248-.3.316.316,0,0,1-.284-.4l.247-1.638q.093-.38.419-.3a6.768,6.768,0,0,0,1.447.172,2,2,0,0,0,1.981-1.238l.4-.86-4.516-8.991a.28.28,0,0,1-.008-.3.353.353,0,0,1,.3-.114h2.266a.463.463,0,0,1,.419.267l2.954,5.943,2.667-5.943a.415.415,0,0,1,.419-.267Z" transform="translate(-1254.679 -2004.914)" fill="#e7004c"/>
        <path id="Path_15869" data-name="Path 15869" d="M1406.382,2021.2c-.253,0-.38-.12-.38-.363v-12.608c0-.241.127-.364.38-.364h2.248a.321.321,0,0,1,.361.364v5.1h6.173v-5.1a.321.321,0,0,1,.361-.364h2.248c.254,0,.38.123.38.364v12.608c0,.243-.127.363-.38.363h-2.248a.32.32,0,0,1-.361-.363v-4.971h-6.173v4.971a.32.32,0,0,1-.361.363Z" transform="translate(-1244.956 -2007.104)" fill="#e7004c"/>
        <path id="Path_15870" data-name="Path 15870" d="M1421.624,2018.124a6.009,6.009,0,0,1-7.6,0,5.154,5.154,0,0,1,0-7.142,6.017,6.017,0,0,1,7.6,0,5.154,5.154,0,0,1,0,7.142Zm-5.619-1.7a2.721,2.721,0,0,0,3.637,0,2.5,2.5,0,0,0,.7-1.855,2.539,2.539,0,0,0-.7-1.868,2.7,2.7,0,0,0-3.637,0,2.54,2.54,0,0,0-.7,1.868A2.5,2.5,0,0,0,1416.005,2016.42Z" transform="translate(-1237.388 -2005.078)" fill="#e7004c"/>
        <path id="Path_15871" data-name="Path 15871" d="M1431.511,2009.63a4.017,4.017,0,0,1,3,1.152,4.166,4.166,0,0,1,1.135,3.057v4.971c0,.243-.126.363-.382.363h-2.132a.32.32,0,0,1-.363-.363v-4.589a2.237,2.237,0,0,0-.533-1.563,1.834,1.834,0,0,0-1.429-.591,1.558,1.558,0,0,0-1.255.563,2.228,2.228,0,0,0-.478,1.494v4.686a.32.32,0,0,1-.361.363h-2.154a.32.32,0,0,1-.361-.363v-4.589a2.348,2.348,0,0,0-.5-1.563,1.627,1.627,0,0,0-1.313-.591,1.814,1.814,0,0,0-1.4.563,2.1,2.1,0,0,0-.524,1.494v4.686a.32.32,0,0,1-.361.363h-2.134a.32.32,0,0,1-.361-.363v-5.98a.658.658,0,0,0-.743-.744,3.918,3.918,0,0,0-.419.058c-.28,0-.42-.1-.42-.305v-1.56a.4.4,0,0,1,.286-.422,3.787,3.787,0,0,1,1.371-.228,2.309,2.309,0,0,1,2.248,1.163,4.377,4.377,0,0,1,3.237-1.163,3.651,3.651,0,0,1,3.011,1.352A4.19,4.19,0,0,1,1431.511,2009.63Z" transform="translate(-1231.134 -2005.078)" fill="#e7004c"/>
        <path id="Path_15872" data-name="Path 15872" d="M1432.767,2012.064a4.966,4.966,0,0,1,3.628,1.371,5.207,5.207,0,0,1,0,7.1,4.959,4.959,0,0,1-3.628,1.374,4.323,4.323,0,0,1-2.667-.84v.172c0,.243-.127.363-.383.363h-2.094a.321.321,0,0,1-.363-.363v-13.371a.322.322,0,0,1,.363-.361h2.152a.322.322,0,0,1,.363.361v4.991A4.415,4.415,0,0,1,1432.767,2012.064Zm-1.973,6.867a2.239,2.239,0,0,0,1.743.752,2.3,2.3,0,0,0,1.762-.752,3.059,3.059,0,0,0,0-3.886,2.292,2.292,0,0,0-1.762-.752,2.232,2.232,0,0,0-1.743.752,3.134,3.134,0,0,0,0,3.886Z" transform="translate(-1220.521 -2007.512)" fill="#e7004c"/>
        <path id="Path_15873" data-name="Path 15873" d="M1441.109,2009.8a.345.345,0,0,1,.288.419l-.249,1.829a.32.32,0,0,1-.419.286,5.246,5.246,0,0,0-1.047-.1,2.524,2.524,0,0,0-1.81.666,2.371,2.371,0,0,0-.705,1.81v4.095a.32.32,0,0,1-.361.363h-2.134a.32.32,0,0,1-.361-.363v-5.98a.659.659,0,0,0-.744-.744,3.927,3.927,0,0,0-.419.058c-.279,0-.419-.1-.419-.305v-1.56a.4.4,0,0,1,.286-.422,4.206,4.206,0,0,1,1.371-.228,2.287,2.287,0,0,1,2.306,1.3,4,4,0,0,1,3.1-1.3A4.234,4.234,0,0,1,1441.109,2009.8Z" transform="translate(-1214.236 -2005.078)" fill="#e7004c"/>
        <path id="Path_15874" data-name="Path 15874" d="M1442.586,2019.479a5.327,5.327,0,0,1-3.792-1.354,4.642,4.642,0,0,1-1.449-3.559,4.757,4.757,0,0,1,1.4-3.583,5.059,5.059,0,0,1,3.667-1.352,4.928,4.928,0,0,1,3.628,1.333,4.751,4.751,0,0,1,1.343,3.525c0,.077,0,.187-.011.333s-.008.251-.008.313a.361.361,0,0,1-.4.325h-6.839a2.372,2.372,0,0,0,.9,1.352,2.657,2.657,0,0,0,1.61.495,2,2,0,0,0,1.562-.57.753.753,0,0,1,.456-.191h2.134a.363.363,0,0,1,.295.1.257.257,0,0,1,.011.279,3.837,3.837,0,0,1-1.7,1.866A5.6,5.6,0,0,1,1442.586,2019.479Zm-2.479-5.715h4.552a2.046,2.046,0,0,0-.628-1.458,2.147,2.147,0,0,0-1.543-.561,2.371,2.371,0,0,0-1.59.561A2.3,2.3,0,0,0,1440.108,2013.763Z" transform="translate(-1208.93 -2005.078)" fill="#e7004c"/>
        <path id="Path_15875" data-name="Path 15875" d="M1447.347,2019.479a6.03,6.03,0,0,1-3.256-.791,3.026,3.026,0,0,1-1.468-2.2c-.039-.253.084-.381.363-.381l1.866.02a.491.491,0,0,1,.419.267q.4,1.028,2.076,1.027a2.407,2.407,0,0,0,1.133-.228.685.685,0,0,0,.43-.61q0-.493-.61-.712a6.789,6.789,0,0,0-1.485-.325,15,15,0,0,1-1.752-.316,2.948,2.948,0,0,1-1.487-.855,2.456,2.456,0,0,1-.608-1.752,2.535,2.535,0,0,1,1.163-2.173,5.222,5.222,0,0,1,3.065-.819,5.581,5.581,0,0,1,3,.752,2.8,2.8,0,0,1,1.4,1.99c.039.254-.075.383-.342.383h-1.887a.418.418,0,0,1-.38-.23,1.358,1.358,0,0,0-.656-.677,2.332,2.332,0,0,0-1.1-.258,2.281,2.281,0,0,0-1.077.221.655.655,0,0,0-.41.58.822.822,0,0,0,.619.763,6.455,6.455,0,0,0,1.507.37c.589.082,1.178.2,1.76.335a2.982,2.982,0,0,1,1.5.855,2.411,2.411,0,0,1,.619,1.735,2.558,2.558,0,0,1-1.18,2.21A5.59,5.59,0,0,1,1447.347,2019.479Z" transform="translate(-1202.873 -2005.078)" fill="#e7004c"/>
      </g>
    </g>
  </g>
</svg>
