<svg xmlns="http://www.w3.org/2000/svg" xmlns:xlink="http://www.w3.org/1999/xlink" viewBox="0 0 926.91 130.89"><defs><style>.cls-1{fill:none;}.cls-2{clip-path:url(#clip-path);}.cls-3{clip-path:url(#clip-path-2);}.cls-4{fill:#7b868c;}.cls-5{fill:#80858a;}</style><clipPath id="clip-path"><rect class="cls-1" x="514.51" width="412.4" height="130.89"/></clipPath><clipPath id="clip-path-2"><rect class="cls-1" x="514.51" width="412.4" height="130.89"/></clipPath></defs><g id="Capa_2" data-name="Capa 2"><g id="Capa_1-2" data-name="Capa 1"><g id="Ilustración_4" data-name="Ilustración 4"><g class="cls-2"><g class="cls-3"><path class="cls-4" d="M773,92.34a1.15,1.15,0,0,1-.83,1.24,15.33,15.33,0,0,1-4.68.83q-5.92,0-8-4.27a16.78,16.78,0,0,1-11.36,4.27A18.16,18.16,0,0,1,735,89.48a16.74,16.74,0,0,1-5.13-12.64A16.77,16.77,0,0,1,735,64.2a18.2,18.2,0,0,1,13.13-4.92,16.16,16.16,0,0,1,9.7,3v-1a.91.91,0,0,1,1-1h6.34a.91.91,0,0,1,1,1V84.49a2.62,2.62,0,0,0,.65,1.86,2.31,2.31,0,0,0,1.76.69,13.36,13.36,0,0,0,2.55-.28c.74-.13,1.15.14,1.24.82Zm-24.8-4.82a8.91,8.91,0,0,0,7-3,11.08,11.08,0,0,0,2.68-7.68,11.08,11.08,0,0,0-2.68-7.68,8.91,8.91,0,0,0-7-3,9.31,9.31,0,0,0-7.13,3,10.83,10.83,0,0,0-2.79,7.68,10.83,10.83,0,0,0,2.79,7.68,9.31,9.31,0,0,0,7.13,3"/><path class="cls-4" d="M787.56,94.41a10.94,10.94,0,0,1-7-2.1,6.72,6.72,0,0,1-2.65-5.55V45.67a.91.91,0,0,1,1-1h6.34a.91.91,0,0,1,1,1V84.48a2.59,2.59,0,0,0,.66,1.87,2.3,2.3,0,0,0,1.76.69,13.26,13.26,0,0,0,2.54-.28c.74-.14,1.15.14,1.24.83l.55,4.75a1.05,1.05,0,0,1-.82,1.24,15.33,15.33,0,0,1-4.69.83"/><path class="cls-4" d="M802.17,53.08a5.26,5.26,0,0,1-3.72-1.41,4.6,4.6,0,0,1,0-6.83,5.56,5.56,0,0,1,7.4,0,4.54,4.54,0,0,1,0,6.83,5.28,5.28,0,0,1-3.68,1.41m5.44,41.33a10.9,10.9,0,0,1-7-2.1A6.73,6.73,0,0,1,798,86.76V61.34a.91.91,0,0,1,1-1h6.33a.91.91,0,0,1,1,1V84.48a2.58,2.58,0,0,0,.65,1.87,2.31,2.31,0,0,0,1.76.69,13.36,13.36,0,0,0,2.55-.28c.73-.14,1.14.14,1.24.83l.55,4.75a1.07,1.07,0,0,1-.83,1.24,15.33,15.33,0,0,1-4.68.83"/><path class="cls-4" d="M832,94.41q-7,0-11.33-2.9a11.29,11.29,0,0,1-5.07-8.06c-.09-.73.26-1.1,1-1.1l5.79.07a1.1,1.1,0,0,1,1.1.89Q825,87.93,832,87.93a9.85,9.85,0,0,0,4.82-1,3.05,3.05,0,0,0,1.86-2.69,3.09,3.09,0,0,0-2.27-2.93,22.54,22.54,0,0,0-5.48-1.34c-2.13-.27-4.27-.64-6.4-1.1A10.87,10.87,0,0,1,819,75.91a8.27,8.27,0,0,1-2.27-6.16,8.94,8.94,0,0,1,4-7.58q4-2.89,10.54-2.89A18.36,18.36,0,0,1,841.5,62a10.13,10.13,0,0,1,4.82,7.1c.09.73-.26,1.1-1,1.1H839.5c-.6,0-1-.21-1.1-.62a5.48,5.48,0,0,0-2.59-3,8.88,8.88,0,0,0-4.51-1.13,9.1,9.1,0,0,0-4.51,1,2.9,2.9,0,0,0-1.69,2.55,3.18,3.18,0,0,0,1.62,2.82,9.27,9.27,0,0,0,4,1.31c1.58.18,3.31.48,5.2.86a47.6,47.6,0,0,1,5.2,1.38,8.25,8.25,0,0,1,4,2.93,8.75,8.75,0,0,1,1.62,5.44,9.17,9.17,0,0,1-4.06,7.78q-4.06,3-10.68,3"/><path class="cls-4" d="M869.26,94.41c-5.52,0-9.94-1.61-13.3-4.83s-5-7.45-5-12.74,1.68-9.53,5-12.74,7.78-4.82,13.3-4.82a18.51,18.51,0,0,1,11,3.23,13.61,13.61,0,0,1,5.61,8.61c.14.74-.15,1.11-.89,1.11h-6.54a1.11,1.11,0,0,1-1.11-.9,6.62,6.62,0,0,0-3-3.55,9.77,9.77,0,0,0-5.16-1.34,9.45,9.45,0,0,0-7.2,2.86,10.47,10.47,0,0,0-2.72,7.54,10.49,10.49,0,0,0,2.72,7.55,9.48,9.48,0,0,0,7.2,2.85,9.68,9.68,0,0,0,5.16-1.34,6.62,6.62,0,0,0,3-3.55,1.11,1.11,0,0,1,1.11-.89H885c.74,0,1,.36.89,1.1a13.61,13.61,0,0,1-5.61,8.61,18.45,18.45,0,0,1-11,3.24"/><path class="cls-4" d="M921.85,89.58q-5.07,4.83-13.33,4.82t-13.33-4.82q-5.06-4.81-5.06-12.74t5.06-12.74q5.07-4.83,13.33-4.82t13.33,4.82q5.05,4.82,5.06,12.74t-5.06,12.74m-20.56-5.23a10.68,10.68,0,0,0,14.46,0,10.28,10.28,0,0,0,2.75-7.51,10.28,10.28,0,0,0-2.75-7.51,10.68,10.68,0,0,0-14.46,0,10.28,10.28,0,0,0-2.76,7.51,10.28,10.28,0,0,0,2.76,7.51"/><path class="cls-4" d="M723.3,45.15a1,1,0,0,1,1,1V76q0,8.67-5.09,13.57t-14.13,4.89q-7.71,0-12.71-4.07a15.36,15.36,0,0,1-5.68-10.81c-.09-.73.25-1.1,1-1.1h6.76a1,1,0,0,1,1,1,7.94,7.94,0,0,0,3.27,5.3,11.21,11.21,0,0,0,6.85,2,9,9,0,0,0,7.1-3,11.6,11.6,0,0,0,2.69-8V55c0-2.76-3-3.36-4.76-3.47h-.53a.84.84,0,0,1-.84-.84V46a.85.85,0,0,1,.84-.84Z"/><path class="cls-4" d="M709.09,109.33a4.72,4.72,0,0,1,4.91,3.42h-1.8a3.12,3.12,0,0,0-3.12-1.78,3.65,3.65,0,0,0-3.67,4c0,2.31,1.41,4,3.67,4,1.87,0,3.23-.75,3.53-2.84H709.2V114.5h5.13c.12,3.26-1.49,6-5.25,6a5.61,5.61,0,0,1,0-11.21"/><path class="cls-4" d="M722.56,120.55a5.61,5.61,0,1,1,5.6-5.61,5.34,5.34,0,0,1-5.6,5.61m0-1.72a3.9,3.9,0,1,0-3.74-3.89,3.61,3.61,0,0,0,3.74,3.89"/><path class="cls-4" d="M738.2,114.72a2.49,2.49,0,0,1,1.76,2.53c0,2-1.34,3.15-3.46,3.15h-4.9V109.47H736c2,0,3.44,1,3.44,3.11a2.29,2.29,0,0,1-1.28,2.14M733.42,111v3.08h2.5c1.05,0,1.76-.44,1.77-1.49S737,111,735.92,111Zm0,4.57v3.2h3a1.57,1.57,0,0,0,1.77-1.56,1.6,1.6,0,0,0-.56-1.3,2.28,2.28,0,0,0-1.42-.34Z"/><polygon class="cls-4" points="747.97 118.94 747.97 120.4 742.69 120.4 742.69 118.94 744.42 118.94 744.42 110.92 742.83 110.92 742.83 109.47 747.83 109.47 747.83 110.92 746.23 110.92 746.23 118.94 747.97 118.94"/><polygon class="cls-4" points="757.97 111.06 753.14 111.06 753.14 113.95 757.7 113.95 757.7 115.56 753.14 115.56 753.14 118.75 758.06 118.75 758.06 120.4 751.32 120.4 751.32 109.47 757.97 109.47 757.97 111.06"/><path class="cls-4" d="M770.49,120.14v.26h-1.85l-2.71-3.81h-2.4v3.81H761.7V109.47h4.51A3.53,3.53,0,0,1,770,113a3.43,3.43,0,0,1-2.3,3.28Zm-4.3-5a2,2,0,1,0,0-4h-2.7v4Z"/><polygon class="cls-4" points="775.38 112.97 775.51 116.44 775.51 120.4 773.72 120.4 773.72 109.44 774.37 109.44 781.01 116.79 780.89 113.45 780.89 109.47 782.7 109.47 782.7 120.42 782.07 120.42 775.38 112.97"/><path class="cls-4" d="M791.69,120.55a5.61,5.61,0,1,1,5.59-5.61,5.34,5.34,0,0,1-5.59,5.61m0-1.72a3.9,3.9,0,1,0-3.73-3.89,3.61,3.61,0,0,0,3.73,3.89"/><path class="cls-4" d="M810,109.48a5.46,5.46,0,0,1,0,10.92h-4V109.48Zm0,9.27a3.82,3.82,0,0,0,0-7.62h-2.12v7.62Z"/><polygon class="cls-4" points="825.44 111.06 820.61 111.06 820.61 113.95 825.17 113.95 825.17 115.56 820.61 115.56 820.61 118.75 825.53 118.75 825.53 120.4 818.78 120.4 818.78 109.47 825.44 109.47 825.44 111.06"/><polygon class="cls-4" points="830.99 118.76 835.69 118.76 835.69 120.4 829.16 120.4 829.16 109.47 830.99 109.47 830.99 118.76"/><polygon class="cls-4" points="850.13 111.06 845.31 111.06 845.31 113.95 849.87 113.95 849.87 115.56 845.31 115.56 845.31 118.75 850.23 118.75 850.23 120.4 843.48 120.4 843.48 109.47 850.13 109.47 850.13 111.06"/><path class="cls-4" d="M854.89,117.3c.07,1.23,1.42,1.62,2.61,1.62s2.53-.28,2.53-1.64-1.49-1.58-2.75-1.7c-2-.17-4-.81-4-3s2-3.25,4.12-3.25,4,.94,4.09,3.17h-1.68c-.07-1.17-1.36-1.55-2.43-1.55s-2.3.35-2.3,1.58,1.24,1.39,2.5,1.56c2.22.26,4.25.69,4.25,3.21s-2.26,3.25-4.31,3.25-4.38-1-4.42-3.25Z"/><polygon class="cls-4" points="864.1 111.08 864.1 109.47 872.22 109.47 872.22 111.08 869.05 111.08 869.05 120.4 867.27 120.4 867.27 111.08 864.1 111.08"/><path class="cls-4" d="M876.05,118.14,875,120.41h-1.91v-.24l5.07-10.78H879l5,10.78v.24h-1.89l-1.08-2.27Zm.6-1.53h3.82l-1.9-4.37Z"/><path class="cls-4" d="M890.75,109.48a5.46,5.46,0,0,1,0,10.92h-4V109.48Zm0,9.27a3.82,3.82,0,0,0,0-7.62h-2.12v7.62Z"/><path class="cls-4" d="M904.45,120.55a5.61,5.61,0,1,1,5.6-5.61,5.33,5.33,0,0,1-5.6,5.61m0-1.72a3.9,3.9,0,1,0-3.74-3.89,3.6,3.6,0,0,0,3.74,3.89"/><rect class="cls-4" x="663.92" y="42.64" width="2.1" height="77.91"/><path class="cls-4" d="M576.6,15.68v5.8a5.77,5.77,0,0,1,2.35,0h0V15.68a3.89,3.89,0,0,0-2.35,0"/><path class="cls-4" d="M552.34,17.22a1,1,0,0,0,.59.84,18.32,18.32,0,0,0,7.66,1.74,17.65,17.65,0,0,0,10-3.2A13.76,13.76,0,0,1,584.82,16a5.28,5.28,0,0,1-3.76,1.42h-.88v2.06h.88a7.1,7.1,0,0,0,6.18-3.21h0a0,0,0,0,1,0,0,1.06,1.06,0,0,0,.13-.5V3.49a1,1,0,0,0-.45-.85,15.84,15.84,0,0,0-17.51,0,15.4,15.4,0,0,1-15.64,1.28,1,1,0,0,0-1.29.38,1,1,0,0,0,.19,1.34l6.69,5.78-6.63,4.86a1,1,0,0,0-.41.94m9.3-4.91a1,1,0,0,0,.06-1.6l-3.93-3.4a17.41,17.41,0,0,0,12.82-3,13.76,13.76,0,0,1,14.74-.29v9.89a15.88,15.88,0,0,0-15.9,1,15.28,15.28,0,0,1-14,2Z"/><polygon class="cls-4" points="576.6 10.62 578.94 10.62 578.94 8.39 581.17 8.39 581.17 6.05 578.94 6.05 578.94 3.81 576.6 3.81 576.6 6.05 574.37 6.05 574.37 8.39 576.6 8.39 576.6 10.62"/><path class="cls-4" d="M627.84,95.43c.74-.88,1.52-1.77,2.27-2.64,3.08-3.51,6.27-7.15,8.36-11.6a20.58,20.58,0,0,0,2-11.47,18,18,0,0,0-10.73-14.16,8.24,8.24,0,0,0,1.17-5.31v0a1.12,1.12,0,0,0-1.91-.66,4.42,4.42,0,0,1-2.11,1.17,4.29,4.29,0,0,1-2.46-.15l-.16-.06a21.48,21.48,0,0,0-10.79-1.18v-.15a7.13,7.13,0,0,0-.37-2.29,1.11,1.11,0,0,0-.67-.7,1.16,1.16,0,0,0-1,.07,3,3,0,0,1-1.48.4l-.35,0c-.62-.06-1.16-.09-1.67-.09a15.52,15.52,0,0,0-2.36.17,17.56,17.56,0,0,0-2.29.48,17.07,17.07,0,0,0-2.17.79,16.87,16.87,0,0,0-2,1.06,16.34,16.34,0,0,0-1.86,1.31,18.8,18.8,0,0,0-1.67,1.55c-.33.36-.66.71-1,1.09s-.56.78-.82,1.17c-.54.82-1,1.67-1.56,2.49l-.17.25a.64.64,0,0,1-.1.13s-.08.1-.08.12v0l0,.05-.5.64-.57.68c-.3.33-.61.64-.93.95l-.37.35-.69.6-.19.16-3.43-2.35L584.63,55c.23-.36.45-.72.64-1.08l.13-.21c.1-.2.19-.4.29-.61l.06-.17c.08-.17.15-.34.22-.52a1,1,0,0,0,.09-.21l.09-.24,1-.2.77-5.59h0l-1-.25a5,5,0,0,0-.07-.54c0-.23-.08-.46-.13-.69a8.35,8.35,0,0,0-.72-1.92s0-.08,0-.13a7.22,7.22,0,0,0-4-3.52l-.14,0,.06-.16c.06-.13.1-.25.16-.37a7,7,0,0,1,3.23-3.41,10.07,10.07,0,0,1,.36,1,1,1,0,0,0,1.07.68,1.79,1.79,0,0,0,.81-.3,3.44,3.44,0,0,0,1-1.07,7.58,7.58,0,0,0,.53-7,5,5,0,0,0-4.3-3.14,4.66,4.66,0,0,0-1.88.33,5.47,5.47,0,0,0-9.86,0,4.7,4.7,0,0,0-1.89-.33,5,5,0,0,0-4.3,3.14,7.58,7.58,0,0,0,.54,7,3.32,3.32,0,0,0,1,1.07,1.76,1.76,0,0,0,.8.3,1,1,0,0,0,1.08-.68s.12-.43.35-1a7.06,7.06,0,0,1,3.24,3.41l.15.37.06.16-.13,0a7.15,7.15,0,0,0-4,3.52s0,.09,0,.13a8.81,8.81,0,0,0-.71,1.92,5.58,5.58,0,0,0-.13.69c0,.18,0,.36-.08.54l-1,.25h0l.78,5.59,1,.2c0,.08.05.16.08.24l.09.21c.07.18.14.35.22.52l.06.17c.1.21.19.41.3.61l.12.21c.19.37.42.73.65,1.09l-.54,3.28L567,60.64a19.58,19.58,0,0,1-1.89-1.75c-.1-.11-.21-.22-.3-.33-.38-.43-.74-.88-1.08-1.33l0-.07s-.06-.09-.08-.12a.6.6,0,0,1-.09-.13l-.18-.25c-.54-.82-1-1.67-1.55-2.49-.26-.39-.53-.8-.83-1.17s-.62-.73-1-1.09a17.51,17.51,0,0,0-1.67-1.55,17.15,17.15,0,0,0-1.85-1.31,17.67,17.67,0,0,0-2-1.06,17.21,17.21,0,0,0-2.18-.79,17.76,17.76,0,0,0-2.28-.48,15.75,15.75,0,0,0-2.37-.17c-.5,0-1.05,0-1.67.09l-.35,0a3,3,0,0,1-1.48-.4,1.16,1.16,0,0,0-1-.07,1.13,1.13,0,0,0-.67.7,7.13,7.13,0,0,0-.37,2.29,1.7,1.7,0,0,0,0,.22,21,21,0,0,0-3.56-.3,21.42,21.42,0,0,0-7.64,1.41l-.17.06a4.3,4.3,0,0,1-2.46.15,4.45,4.45,0,0,1-2.12-1.17,1.11,1.11,0,0,0-1.16-.27,1.15,1.15,0,0,0-.75.93v0a8.31,8.31,0,0,0,1.17,5.31,18,18,0,0,0-10.71,14.16,20.49,20.49,0,0,0,2,11.47c2.09,4.45,5.28,8.09,8.36,11.6.75.87,1.53,1.76,2.27,2.64l.77.9c1.92,2.22,4.09,4.74,4.09,7.16a3.81,3.81,0,0,1-4.14,4.15,4.75,4.75,0,0,1-1.59-.28,2.36,2.36,0,0,0-.63-.13h0A2.58,2.58,0,0,0,523,109a2.18,2.18,0,0,0-.61.08,2.25,2.25,0,0,0-1.63,2.4v.11a13.08,13.08,0,0,0,12.71,11.54h.18a13.29,13.29,0,0,0,8-2.81l.07.07a2.25,2.25,0,0,0,2.91.25,14.27,14.27,0,0,0,4.25-4.77h0c.09-.15.16-.31.24-.46l.23.39c.15.26.31.51.47.76,5.7,8.86,16.31,14.37,27.67,14.37s22-5.51,27.67-14.37c.17-.25.33-.5.48-.76s.15-.26.22-.39l.24.46h0a14.06,14.06,0,0,0,4.25,4.77,2.24,2.24,0,0,0,1.3.42,2.27,2.27,0,0,0,1.61-.67l.06-.07a13.34,13.34,0,0,0,8,2.81h.18a13.06,13.06,0,0,0,12.7-11.54v-.11a2.24,2.24,0,0,0-1.63-2.4,2.11,2.11,0,0,0-.6-.08,2.57,2.57,0,0,0-2.75-1.72h0a2.28,2.28,0,0,0-.63.13,4.75,4.75,0,0,1-1.59.28,3.82,3.82,0,0,1-4.15-4.15c0-2.42,2.18-4.94,4.09-7.16l.78-.9M616.6,51.35a19.34,19.34,0,0,1,6.86,1.26l.17.07a6.58,6.58,0,0,0,3.75.23,6.36,6.36,0,0,0,1.21-.4,6.17,6.17,0,0,1-1,2.25,32.6,32.6,0,0,0-4.42-.54,16.12,16.12,0,0,0-13.72,7.67A2.45,2.45,0,0,0,607,60.17h-6.59a19.25,19.25,0,0,1,16.18-8.82M618.94,79a5.62,5.62,0,0,0,.19.53,6.68,6.68,0,0,0,6.43,4.18h.23c.05,0,0,0,.05,0-4.87,5-11.67,7.64-16.33,12.81V78.68c.21-.19.36-.34.49-.47,1.32-1.36,2.52-2.89,3.88-4.23,2-2,4.35-3.75,7.28-4.14a5.58,5.58,0,0,1,3.43.4,3.24,3.24,0,0,1,1.33,1.42,3.14,3.14,0,0,1-.63,3.53,2.32,2.32,0,0,1-.3.22,3.24,3.24,0,0,1-1.53.57,2.37,2.37,0,0,1-1.09-.11,2.68,2.68,0,0,0-1.28-.18,2.49,2.49,0,0,0-1.72.94,2.6,2.6,0,0,0-.43,2.39M585.73,47.87l-.21,2h0l-1.08.22-1,.22v-3l1.34.32,1.05.25m-8,5.87h0l5.71-1.23h0a10.84,10.84,0,0,1-.76,1.31c-.2.3-.41.58-.63.85a5.1,5.1,0,0,1-8.67,0c-.22-.27-.43-.55-.63-.85a12.26,12.26,0,0,1-.75-1.31h0Zm-3.36-3v-4l2.28-.55v5Zm4.47.47v-5l2.29.55v4Zm-7.44-18.09a4.73,4.73,0,0,1,1.65-1.59,7.22,7.22,0,0,0-4.3,2.12,5.41,5.41,0,0,1,0-4.32,2.7,2.7,0,0,1,2.32-1.77,4.41,4.41,0,0,1,2.27.58,6.87,6.87,0,0,1,3.43,4.47,7.15,7.15,0,0,0-1.46-5.08,5.48,5.48,0,0,0-.58-.67,3.2,3.2,0,0,1,6,0,5.48,5.48,0,0,0-.58.67,7.15,7.15,0,0,0-1.46,5.08,6.85,6.85,0,0,1,3.42-4.47,4.42,4.42,0,0,1,2.28-.58,2.71,2.71,0,0,1,2.32,1.77,5.45,5.45,0,0,1,0,4.32,7.25,7.25,0,0,0-4.31-2.12,4.73,4.73,0,0,1,1.65,1.59,9.36,9.36,0,0,0-4.24,4.5c-.07.14-.12.28-.18.43l-.12.28c-.62-.26-1.19-.61-1.8-.93h0c-.6.32-1.17.67-1.8.93l-.12-.28c-.06-.15-.11-.29-.17-.43a9.33,9.33,0,0,0-4.25-4.5m3.3,8.09c.51-.18,1-.32,1.56-.52a12.43,12.43,0,0,0,1.49-.78,12.43,12.43,0,0,0,1.49.78c.51.2,1.05.34,1.55.52a5.75,5.75,0,0,1,3.55,4.06c-6-1.47-6.43-1.58-6.58-1.58h0c-.15,0-.57.11-6.57,1.58a5.73,5.73,0,0,1,3.54-4.06m-4.65,8.64h0l-.21-2,1-.25,1.33-.32v3l-1-.22Zm2.5,9.53.34-1.93.15.13a7.08,7.08,0,0,0,4.7,2h0a7.06,7.06,0,0,0,4.7-2l.17-.17.34,2L586.73,62l-.56.33a18.75,18.75,0,0,1-5.1,2,14.2,14.2,0,0,1-3.31.46,15.24,15.24,0,0,1-2.85-.37,18.73,18.73,0,0,1-5.27-2q-.4-.23-.81-.48Zm-44.84-6.48a6.58,6.58,0,0,0,3.75-.23l.18-.07a19.26,19.26,0,0,1,23,7.56h-6.59a2.48,2.48,0,0,0-2.44,1.72A16.12,16.12,0,0,0,532,54.22a32.61,32.61,0,0,0-4.41.54,5.83,5.83,0,0,1-1-2.25,6.17,6.17,0,0,0,1.19.4M548.39,110l-.06.54s0,.08,0,.12a5.62,5.62,0,0,1-.09.57v0a12.2,12.2,0,0,1-.77,2.49.54.54,0,0,0-.05.11c-.06.14-.13.28-.2.42a2.69,2.69,0,0,1-.16.29,11.67,11.67,0,0,1-3.66,4.17,11.8,11.8,0,0,0,2.26-7,12,12,0,0,0-.47-3.3v0a16.61,16.61,0,0,1-2.16,7l0,0a10.82,10.82,0,0,1-9.32,5.41h-.14a10.89,10.89,0,0,1-10.47-9.55v-.08a.22.22,0,0,1,.05.08,7.92,7.92,0,0,0,14.53-3.84,7.93,7.93,0,0,1-3.47,4l-.1,0a7.12,7.12,0,0,1-1.39.6c-2,.69-5.71,1.19-7.82-2.88a5.1,5.1,0,0,1,.5.19,7.82,7.82,0,0,0,1.06.37,6.31,6.31,0,0,0,1.22.12,10,10,0,0,0,1.1,0l.56-.06a2.7,2.7,0,0,0,.39-.08,6.59,6.59,0,0,0,1.61-.58,6.45,6.45,0,0,0,1.32-1,5.88,5.88,0,0,0,1-1.28,6.08,6.08,0,0,0,.61-1.58,7.49,7.49,0,0,0,.22-1.82c0-3.66-3.2-6.91-5.4-9.52-3.68-4.36-7.85-8.51-10.32-13.74A18.39,18.39,0,0,1,516.9,70,15.37,15.37,0,0,1,532,56.47a13.49,13.49,0,0,1,13.66,12.29v6.31h0A32.16,32.16,0,0,0,540.38,70c-3-2.13-7.42-3.68-10.89-1.74a5.81,5.81,0,0,0-2,8.36,5.36,5.36,0,0,0,6,1.91s-1.26,4-6,2.27a5.23,5.23,0,0,1-1-.51,8.49,8.49,0,0,1-1.59-1.4c-.23-.27-.46-.56-.67-.86a9.59,9.59,0,0,1-.74-1.33,9.07,9.07,0,0,1-.59-1.78,9,9,0,0,1,.76-5.45,10.92,10.92,0,0,1,6.5-5.37,12.58,12.58,0,0,1,9.08,1.1c.39.22.76.47,1.13.73a7.75,7.75,0,0,1,.9.76c-1.46-3.09-5.29-4.73-8.55-4.89A11.9,11.9,0,0,0,523,66.24a12.14,12.14,0,0,0-2.33,9.62c.66,3.69,3.61,6.79,5.95,9.58,4.17,5,8.43,9.9,11.55,15.65a14.33,14.33,0,0,1,1.74,7.14,9.45,9.45,0,0,1-9,9.44h0a10.14,10.14,0,0,0,1.66.14,9.59,9.59,0,0,0,8.5-5.1c4.25-7.92-2.46-15.95-7.15-21.77-.29-.36-1.79-2.08-2.43-2.84L537,92c1.1.8,2.2,1.62,3.29,2.5a29.13,29.13,0,0,1,4.37,4.3A16.52,16.52,0,0,1,548.39,110m-19.1-26.28,0,0h.23A6.7,6.7,0,0,0,536,79.55c.07-.18.13-.35.19-.53a2.6,2.6,0,0,0-.43-2.39,2.51,2.51,0,0,0-1.72-.94,2.68,2.68,0,0,0-1.28.18,2.33,2.33,0,0,1-1.08.11,3.28,3.28,0,0,1-1.55-.57,3.15,3.15,0,0,1-.29-.22,3.12,3.12,0,0,1-.63-3.53,3.24,3.24,0,0,1,1.33-1.42,5.58,5.58,0,0,1,3.43-.4c2.93.39,5.24,2.13,7.27,4.14,1.36,1.34,2.56,2.87,3.88,4.23l.5.47V96.52c-4.65-5.17-11.46-7.83-16.33-12.81m75.2,26.36s0,.07,0,.11a13.55,13.55,0,0,0,.31,2h0a25.57,25.57,0,0,1-1.3,2.49c-.14.24-.29.47-.44.7-5.09,7.92-14.61,13.25-25.51,13.25s-20.41-5.33-25.5-13.25c-.15-.23-.29-.46-.43-.7a22.83,22.83,0,0,1-1.31-2.5h0a15,15,0,0,0,.31-2s0-.07,0-.11A17.69,17.69,0,0,0,548.13,100h0V62.42h10.53l-1.33-2.25h0l.07.12a21.53,21.53,0,0,0-13-10.38,4.49,4.49,0,0,1-.06-.73c0-.14,0-.28,0-.41a5.36,5.36,0,0,0,1.78.11c.56-.05,1-.08,1.46-.08h.36a14.55,14.55,0,0,1,2.37.25,14.37,14.37,0,0,1,2.25.61,15.19,15.19,0,0,1,2.1.95,13.35,13.35,0,0,1,1.91,1.25,14.42,14.42,0,0,1,1.7,1.52,14.62,14.62,0,0,1,1.5,1.85c.55.8,1,1.63,1.56,2.43a21.17,21.17,0,0,0,1.75,2.25c.44.49.91,1,1.38,1.4.24.23.48.44.72.65l.07.06c.24.19.47.39.71.57l.1.08.72.54.1.06c.25.18.5.34.76.51l0,0A21.72,21.72,0,0,0,571,65.53l.17.07.63.23c.53.19,1.06.36,1.6.51a14.59,14.59,0,0,0,8.74,0c.54-.15,1.08-.32,1.6-.51l.63-.23.17-.07a21.27,21.27,0,0,0,3.32-1.71l0,0c.26-.17.51-.33.76-.51l.1-.06.72-.54a.39.39,0,0,0,.1-.08l.23-.18h0l.18-.15.29-.24.07-.06.61-.55.11-.1h0c.48-.44.95-.91,1.39-1.4.29-.33.57-.68.84-1a2.13,2.13,0,0,1,.18-.22c.22-.31.45-.61.65-.92l.07-.09.07-.1.43-.68c.34-.55.69-1.11,1.06-1.65a15.55,15.55,0,0,1,1.5-1.85,14.42,14.42,0,0,1,1.7-1.52,13.44,13.44,0,0,1,1.92-1.25,14.56,14.56,0,0,1,2.09-.95,15,15,0,0,1,2.25-.61,14.55,14.55,0,0,1,2.37-.25H608c.43,0,.9,0,1.46.08a5.33,5.33,0,0,0,1.78-.11c0,.13,0,.27,0,.41s0,.41,0,.61a21.52,21.52,0,0,0-13.46,10.5.75.75,0,0,1,.07-.12h0l-1.33,2.25H607V99.94h0a17.69,17.69,0,0,0-2.51,10.12m16.23-6.58a8,8,0,0,0,.21,1.82,6.49,6.49,0,0,0,.62,1.58,5.62,5.62,0,0,0,1,1.28,5.89,5.89,0,0,0,1.31,1,6.52,6.52,0,0,0,1.6.58,2.57,2.57,0,0,0,.4.08l.56.06a10,10,0,0,0,1.1,0,6.13,6.13,0,0,0,1.21-.12,8,8,0,0,0,1.07-.37,5.1,5.1,0,0,1,.5-.19c-2.11,4.07-5.77,3.57-7.82,2.88a7.12,7.12,0,0,1-1.39-.6l-.1,0a7.88,7.88,0,0,1-3.47-4A7.92,7.92,0,0,0,632,111.28a.22.22,0,0,1,.05-.08v.08a10.89,10.89,0,0,1-10.47,9.55h-.15a10.82,10.82,0,0,1-9.31-5.41v0a16.34,16.34,0,0,1-2.17-7v0a12,12,0,0,0,1.78,10.27,11.87,11.87,0,0,1-3.66-4.17,2.64,2.64,0,0,1-.15-.29c-.07-.14-.14-.28-.2-.42l-.05-.11a12.2,12.2,0,0,1-.77-2.49v0c0-.19-.07-.38-.1-.57s0-.08,0-.12l-.06-.54a16.47,16.47,0,0,1,3.78-11.16,29.61,29.61,0,0,1,4.37-4.3c1.09-.88,2.18-1.7,3.29-2.5l5.44-3.93c-.65.76-2.14,2.48-2.43,2.84-4.69,5.82-11.41,13.85-7.15,21.77a9.65,9.65,0,0,0,10.15,5h0a9.45,9.45,0,0,1-9-9.44,14.33,14.33,0,0,1,1.74-7.14c3.11-5.75,7.37-10.66,11.55-15.65,2.33-2.79,5.28-5.89,5.94-9.58a12.06,12.06,0,0,0-2.32-9.62,11.9,11.9,0,0,0-9.67-4.47c-3.25.16-7.09,1.8-8.55,4.89a6.38,6.38,0,0,1,.9-.76c.37-.26.74-.51,1.13-.73a12.58,12.58,0,0,1,9.08-1.1,10.87,10.87,0,0,1,6.49,5.37,8.83,8.83,0,0,1,.76,5.45,9,9,0,0,1-.58,1.78A8.72,8.72,0,0,1,630.9,78a6.86,6.86,0,0,1-.67.86,8.43,8.43,0,0,1-1.58,1.4,5.46,5.46,0,0,1-1,.51c-4.78,1.75-6-2.27-6-2.27a5.36,5.36,0,0,0,6-1.91,5.82,5.82,0,0,0-2-8.36c-3.47-1.94-7.89-.39-10.89,1.74a32.22,32.22,0,0,0-5.22,5.09h0v-6.3a13.48,13.48,0,0,1,13.65-12.3A15.38,15.38,0,0,1,638.24,70a18.58,18.58,0,0,1-1.8,10.21C634,85.46,629.8,89.61,626.12,94c-2.2,2.61-5.4,5.86-5.4,9.52"/><path class="cls-4" d="M581.69,101.38V101a1,1,0,0,0-1-1v3.18l3.81-1.23a3.83,3.83,0,0,0,1.07,2.08,3.54,3.54,0,0,1,1,1.52c-1,.45-2.63,1.14-2.8,1.2a4.56,4.56,0,0,0,0,2.67,4.27,4.27,0,0,1-2-.84v-1a1,1,0,0,0-1-1v3.18h0a5.83,5.83,0,0,0,3.2,1.09,1,1,0,0,1,1,1,.29.29,0,0,0,.3-.29,2.74,2.74,0,0,0-.12-.81,3,3,0,0,1-.1-.79,3,3,0,0,1,.29-1.31,4.05,4.05,0,0,1,.5-.12,4.53,4.53,0,0,1,.74-.07,3.93,3.93,0,0,1,1.09.15,4.1,4.1,0,0,0,.7.12l.35,0a4.05,4.05,0,0,0,1.26-.2s.15,0,.18.06-.1.22-.1.22a2.13,2.13,0,0,1-1.17.5,3.66,3.66,0,0,1-.57,0c.41,1,.72,1.78.78,1.89a4.12,4.12,0,0,0,1.33.21,4.21,4.21,0,0,0,1.33-.21,4.26,4.26,0,0,1-.84,2h-1a1,1,0,0,0-1,1H592a5.84,5.84,0,0,0,1.1-3.2,1,1,0,0,1,1-1,.29.29,0,0,0-.28-.3,2.81,2.81,0,0,0-.82.12,3.43,3.43,0,0,1-.8.11,3,3,0,0,1-1.3-.3,4.23,4.23,0,0,1-.19-1.24,4.34,4.34,0,0,1,.14-1.09.51.51,0,0,0,0-.17,3.13,3.13,0,0,0,.8.1,3.32,3.32,0,0,0,3.32-3.32,3.29,3.29,0,0,0-.34-1.45l-.29-.62a5.52,5.52,0,0,1,.26-5.61h0l.09,0a3.08,3.08,0,0,0,.55-.31,1.93,1.93,0,0,0,.69-1.31s0-.11,0-.16v-.12c0-.11,0-.22,0-.33l-.23.15-.36.26c-.12.09-.23.19-.34.29s-.21.2-.31.31l-.3.33v0a.36.36,0,0,0-.07.1h0s0,0,0,0l-.06.08-.09.13,0,0A6.18,6.18,0,0,0,593,98.86a6.29,6.29,0,0,0,.7,3.33l.28.59a2.6,2.6,0,0,1-2.33,3.75h-.09a2.41,2.41,0,0,1-1.77-.92l-.22-.29a4.33,4.33,0,0,1-.79-2.48l.05.06v0a2.81,2.81,0,0,0,1,.69.07.07,0,0,0,.09-.1,3,3,0,0,1-.11-1.62,3.74,3.74,0,0,1,.3-.91.86.86,0,0,0,.17.53.07.07,0,0,0,.13,0,4.55,4.55,0,0,1,.49-1.44,2.77,2.77,0,0,1,.15-.27c.08-.16.16-.3.25-.45s.19-.3.28-.46,0,0,0,0l0,0a.14.14,0,0,1,0-.06l0,0s0,0,0-.06l0,0s0,0,0-.05l0-.06a.14.14,0,0,1,0-.06s0,0,0-.06v0a.14.14,0,0,0,0-.06l0-.06,0-.06s0,0,0,0a.21.21,0,0,0,0-.06.13.13,0,0,0,0-.06.14.14,0,0,0,0-.07.43.43,0,0,0,0,0,.13.13,0,0,0,0-.06s0,0,0-.06,0,0,0-.07a.09.09,0,0,0,0,0v-.07a.43.43,0,0,1,0,0,.22.22,0,0,1,0-.08v-.26s0,0,0,0V96.9a4.31,4.31,0,0,0-1.62-3.36l.24.06c.06,0,.11-.07,0-.12a4.23,4.23,0,0,0-3.11-.9l-.23,0a.21.21,0,0,0-.17.14l-.14.45-.12,0a1.28,1.28,0,0,0-.83.57l-1.18.49a.23.23,0,0,0-.16.25.22.22,0,0,0,.06.15c0,.18.15.91.45.95l.37-.12h.06c.33-.08.78-.15.89,0,0,0,.26.57-.08.7a3.19,3.19,0,0,1-.47.06l-.29,0-.17,0s-.19.55.16.71a3,3,0,0,1,.85-.13H587l.18,0a3.76,3.76,0,0,0,1.28-.37,1.7,1.7,0,0,1-.92.62l-.53.16a2.67,2.67,0,0,0-.26.09,4,4,0,0,0-1.46,1.07l-3.64-1.71.05,0v-.68a1,1,0,0,0-.64-1,.88.88,0,0,0-.4-.1v2.48l3.06,2.2,1.21-.32a.18.18,0,0,1,.24.09.18.18,0,0,1-.07.23Z"/><path class="cls-4" d="M566.11,111.19a4.12,4.12,0,0,1-1.33.21,4.21,4.21,0,0,1-1.33-.21,4.26,4.26,0,0,0,.84,2h1a1,1,0,0,1,1,1h-3.19A5.77,5.77,0,0,1,562,111a1,1,0,0,0-1-1,.28.28,0,0,1,.28-.3,3,3,0,0,1,.81.11,2.73,2.73,0,0,0,.81.11,3.17,3.17,0,0,0,1.3-.29,4.25,4.25,0,0,0,.19-1.25,3.86,3.86,0,0,0-.15-1.08,1,1,0,0,1,0-.17,3.57,3.57,0,0,1-.8.09,3.31,3.31,0,0,1-3.31-3.31,3.36,3.36,0,0,1,.34-1.46l.29-.61a5.61,5.61,0,0,0-.26-5.62h0l-.1,0a5.4,5.4,0,0,1-.55-.31,2,2,0,0,1-.68-1.31,1,1,0,0,1,0-.17v-.11a1.86,1.86,0,0,1,0-.33l.23.15a3.18,3.18,0,0,1,.37.27l.33.28c.1.1.21.2.31.31l.3.33v0l.08.1h0s0,0,0,0l.06.08a.38.38,0,0,1,.09.13l0,0a6.21,6.21,0,0,1,1.09,3.14,6.11,6.11,0,0,1-.71,3.33l-.27.6a2.52,2.52,0,0,0-.27,1.14,2.59,2.59,0,0,0,2.59,2.6h.1a2.43,2.43,0,0,0,1.77-.91l.21-.3a4.2,4.2,0,0,0,.79-2.49l0,.06h0a3,3,0,0,1-1,.69.07.07,0,0,1-.09-.1,3,3,0,0,0,.11-1.62,4.22,4.22,0,0,0-.3-.91.86.86,0,0,1-.17.53.07.07,0,0,1-.13,0,4.55,4.55,0,0,0-.49-1.44l-.15-.28-.25-.44a3.64,3.64,0,0,1-.28-.47,0,0,0,0,1,0,0l0-.06,0,0,0-.06s0,0,0-.05l0-.06s0,0,0-.06a.42.42,0,0,1,0-.06s0,0,0,0a.14.14,0,0,0,0-.06l0,0s0,0,0-.06v-.06l0-.06s0,0,0,0l0-.07,0-.05a.17.17,0,0,0,0-.07v0a.64.64,0,0,1,0-.07v0a.13.13,0,0,0,0-.06v-.19s0,0,0-.07v0a.17.17,0,0,0,0-.07V97a.49.49,0,0,1,0-.12,4.28,4.28,0,0,1,1.62-3.36l-.24.06c-.07,0-.11-.08-.06-.12a4.29,4.29,0,0,1,3.12-.9.85.85,0,0,1,.23,0,.22.22,0,0,1,.17.14l.14.45.11,0a1.24,1.24,0,0,1,.84.57l1.18.49a.23.23,0,0,1,.16.25.21.21,0,0,1-.07.15c0,.19-.14.91-.44.95l-.37-.11h0l-.05,0c-.34-.08-.78-.16-.89,0,0,0-.26.57.07.69a4.34,4.34,0,0,0,.47.07l.3,0h.17s.18.55-.16.72a3,3,0,0,0-.85-.13h-.36l-.18,0a4.28,4.28,0,0,1-1.28-.37,1.77,1.77,0,0,0,.92.62l.52.16a1.58,1.58,0,0,1,.26.09,4,4,0,0,1,1.47,1.07l3.64-1.71,0,0v-.67a1,1,0,0,1,.64-1,.87.87,0,0,1,.39-.1v2.48l-3,2.18-1.3-.35a.18.18,0,0,0-.24.09.18.18,0,0,0,.07.24l3.47,1.75V101a1,1,0,0,1,1-1v3.17l-3.8-1.22a3.78,3.78,0,0,1-1.08,2.08,3.61,3.61,0,0,0-1,1.52l2.79,1.2a4.35,4.35,0,0,1,0,2.67,4.26,4.26,0,0,0,2-.84v-1a1,1,0,0,1,1-1v3.19a5.85,5.85,0,0,1-3.19,1.09,1,1,0,0,0-1,1,.27.27,0,0,1-.3-.28,2.63,2.63,0,0,1,.12-.8,3.58,3.58,0,0,0,.1-.8,3,3,0,0,0-.29-1.31,3.66,3.66,0,0,0-.5-.12,3.57,3.57,0,0,0-.74-.07,3.71,3.71,0,0,0-.47,0l.25-1.54a.2.2,0,0,0-.13-.21.17.17,0,0,0-.21.11Z"/><path class="cls-4" d="M588.31,75.26a8.13,8.13,0,0,0-6.9-4.33,7.83,7.83,0,0,0-7.44,0,8.16,8.16,0,0,0-6.91,4.33,6.32,6.32,0,0,0-1.2,10.38,7.85,7.85,0,0,0,6.06,4.87,5.23,5.23,0,0,1,4.36,5l0,13.74a4,4,0,0,1-3.68,3.83h-.8a1.09,1.09,0,0,0-1.1,1.08h13.93a1.09,1.09,0,0,0-1.09-1.09h-.81a3.93,3.93,0,0,1-3.67-3.83V95.53a5.18,5.18,0,0,1,4-5l.2,0a7.87,7.87,0,0,0,6.19-4.89,6.33,6.33,0,0,0-1.2-10.38M588.1,84l-.39.34-.19.5a5.67,5.67,0,0,1-3.7,3.36h0a10.78,10.78,0,0,0-1.75.53l0,0a3,3,0,0,1-.31.31.08.08,0,0,1,0,0l-.29.25-.35.25a5.95,5.95,0,0,1-6.72,0l-.36-.26-.29-.24s0,0,0,0-.2-.2-.3-.3l0,0a10.45,10.45,0,0,0-1.74-.53h0a5.63,5.63,0,0,1-3.7-3.36l-.2-.5-.39-.34a4.17,4.17,0,0,1,.79-6.86l.59-.31.31-.59A6,6,0,0,1,574,73.07h.5l.44-.24a5.72,5.72,0,0,1,5.41,0l.44.24h.5a6,6,0,0,1,5.09,3.19l.3.59.59.31A4.17,4.17,0,0,1,588.1,84"/><path class="cls-4" d="M591.12,67.1a22,22,0,0,1-4.7,2h13.93V99.3a22.53,22.53,0,0,1-2.7,10.72l-.33.6a22.66,22.66,0,0,1-39.25,0c-.11-.19-.22-.4-.33-.6A22.85,22.85,0,0,1,555,99.3V69.08h14.18a22.11,22.11,0,0,1-4.82-2H553.07V99.3A24.48,24.48,0,0,0,556,111l.36.65a24.63,24.63,0,0,0,42.67,0l.36-.65a24.61,24.61,0,0,0,2.28-6,25.1,25.1,0,0,0,.65-5.65V67.1Z"/><polygon class="cls-4" points="606.12 67.6 605.62 67.1 604.67 68.06 603.72 67.1 603.22 67.6 604.17 68.55 603.22 69.5 603.72 69.99 604.67 69.05 605.62 69.99 606.12 69.5 605.16 68.55 606.12 67.6"/><polygon class="cls-4" points="552.03 67.6 551.54 67.1 550.59 68.06 549.64 67.1 549.14 67.6 550.1 68.55 549.15 69.5 549.64 69.99 550.59 69.05 551.54 69.99 552.03 69.5 551.09 68.55 552.03 67.6"/><polygon class="cls-4" points="606.12 90.75 605.62 90.25 604.67 91.2 603.72 90.25 603.22 90.75 604.17 91.7 603.22 92.64 603.72 93.15 604.67 92.19 605.62 93.15 606.12 92.64 605.16 91.7 606.12 90.75"/><polygon class="cls-4" points="552.03 90.75 551.54 90.25 550.59 91.2 549.64 90.25 549.14 90.75 550.1 91.7 549.15 92.64 549.64 93.15 550.59 92.19 551.54 93.15 552.03 92.64 551.09 91.7 552.03 90.75"/><polygon class="cls-4" points="557.45 114.81 556.95 114.32 556 115.27 555.04 114.32 554.55 114.81 555.51 115.76 554.55 116.71 555.05 117.2 556 116.26 556.95 117.2 557.45 116.71 556.49 115.76 557.45 114.81"/><polygon class="cls-4" points="600.82 114.81 600.33 114.32 599.38 115.27 598.43 114.32 597.93 114.81 598.88 115.76 597.93 116.71 598.43 117.2 599.38 116.26 600.33 117.2 600.82 116.71 599.87 115.76 600.82 114.81"/><polygon class="cls-4" points="579.1 125.33 578.61 124.84 577.66 125.79 576.7 124.84 576.21 125.33 577.16 126.28 576.21 127.23 576.71 127.72 577.66 126.78 578.61 127.72 579.1 127.23 578.15 126.28 579.1 125.33"/></g></g></g><path class="cls-5" d="M183.49,44.14a.84.84,0,0,1-1-1V38.41a.84.84,0,0,1,1-1h5V15.64h-5a.84.84,0,0,1-1-1V9.91a.84.84,0,0,1,1-1h17.85c.67,0,1,.32,1,1v4.77c0,.64-.33,1-1,1h-5V37.45h5c.67,0,1,.32,1,1v4.77c0,.64-.33,1-1,1Z"/><path class="cls-5" d="M207.42,44.14a.85.85,0,0,1-1-1V38.41a.85.85,0,0,1,1-1h5V15.64h-5a.85.85,0,0,1-1-1V9.91a.85.85,0,0,1,1-1h17.85c.66,0,1,.32,1,1v4.77c0,.64-.34,1-1,1h-5V37.45h5c.66,0,1,.32,1,1v4.77c0,.64-.34,1-1,1Z"/><path class="cls-5" d="M259.19,14.58c0,.61-.32.91-.95.91h-18.1v8h15.73q1,0,1,.9V29a.85.85,0,0,1-1,.95H240.14V37.6h18.1a.83.83,0,0,1,.95.91v4.67a.85.85,0,0,1-.95,1h-25c-.68,0-1-.32-1-1V9.91c0-.64.33-1,1-1h25a.85.85,0,0,1,.95,1Z"/><path class="cls-5" d="M281.71,44.89q-8.49,0-13.73-5.08t-5.22-13.32q0-8.23,5.2-13.29t13.75-5a20.33,20.33,0,0,1,11.48,3.24,15.32,15.32,0,0,1,6.51,8.72c.21.7-.07,1.06-.8,1.06h-6.43a1.11,1.11,0,0,1-1.11-.76,8.34,8.34,0,0,0-3.67-3.84,11.8,11.8,0,0,0-5.88-1.44,10.64,10.64,0,0,0-8,3.15,11.33,11.33,0,0,0-3,8.21,11.4,11.4,0,0,0,3.07,8.32,10.63,10.63,0,0,0,8,3.15,10.32,10.32,0,0,0,6-1.84,9.06,9.06,0,0,0,3.59-4.8h-9a.85.85,0,0,1-1-1V26.09a.85.85,0,0,1,1-.95h16.93a.83.83,0,0,1,.91.95q0,8.65-5,13.72t-13.54,5.08"/><path class="cls-5" d="M182.17,71.26a.38.38,0,0,1-.43-.43V68.67a.38.38,0,0,1,.43-.44h2.27v-9.9h-2.27a.38.38,0,0,1-.43-.44V55.73a.38.38,0,0,1,.43-.43h8.1c.31,0,.46.14.46.43v2.16c0,.3-.15.44-.46.44H188v9.9h2.26c.31,0,.46.14.46.44v2.16c0,.29-.15.43-.46.43Z"/><path class="cls-5" d="M200.42,59.84A4.89,4.89,0,0,1,204,61.21a5,5,0,0,1,1.37,3.67v6a.38.38,0,0,1-.44.43h-2.55c-.31,0-.46-.14-.46-.43v-5.5a2.63,2.63,0,0,0-.65-1.87,2.25,2.25,0,0,0-1.75-.71,2.51,2.51,0,0,0-1.83.68,2.34,2.34,0,0,0-.69,1.79v5.61a.38.38,0,0,1-.44.43H194a.38.38,0,0,1-.44-.43V63.67a.78.78,0,0,0-.88-.89,3.8,3.8,0,0,0-.51.07c-.33,0-.5-.12-.5-.37V60.61a.48.48,0,0,1,.34-.5,4.64,4.64,0,0,1,1.65-.27,2.85,2.85,0,0,1,2.73,1.43,5.43,5.43,0,0,1,4-1.43"/><path class="cls-5" d="M212.7,71.63a7.28,7.28,0,0,1-3.91-.95A3.64,3.64,0,0,1,207,68.05c0-.3.1-.46.43-.46l2.24,0a.59.59,0,0,1,.5.33c.32.82,1.14,1.22,2.49,1.22a2.89,2.89,0,0,0,1.35-.27.8.8,0,0,0,.51-.73c0-.39-.24-.68-.73-.85a7.62,7.62,0,0,0-1.78-.39,17,17,0,0,1-2.09-.38,3.47,3.47,0,0,1-1.78-1,2.94,2.94,0,0,1-.73-2.1,3,3,0,0,1,1.39-2.6,6.27,6.27,0,0,1,3.67-1,6.58,6.58,0,0,1,3.59.9,3.3,3.3,0,0,1,1.68,2.38c.05.31-.09.46-.41.46h-2.26a.5.5,0,0,1-.46-.28,1.6,1.6,0,0,0-.78-.81,2.84,2.84,0,0,0-1.31-.3,2.67,2.67,0,0,0-1.29.26.76.76,0,0,0-.49.69,1,1,0,0,0,.74.92,8.32,8.32,0,0,0,1.8.44c.71.1,1.41.23,2.12.4a3.57,3.57,0,0,1,1.78,1A2.82,2.82,0,0,1,218,68a3.08,3.08,0,0,1-1.41,2.65,6.69,6.69,0,0,1-3.85,1"/><path class="cls-5" d="M226.06,71.63a4.82,4.82,0,0,1-3.53-1.27,4.63,4.63,0,0,1-1.28-3.45V63h-2.1a.38.38,0,0,1-.43-.43V60.64a.38.38,0,0,1,.43-.44h2.1V57.31c0-.3.14-.44.43-.44h2.56c.29,0,.43.14.43.44V60.2h3.58a.38.38,0,0,1,.43.44v1.89a.38.38,0,0,1-.43.43h-3.58V66.8a1.82,1.82,0,0,0,.51,1.36,1.89,1.89,0,0,0,1.39.51,6.83,6.83,0,0,0,1.7-.21.39.39,0,0,1,.51.34l.3,2a.47.47,0,0,1-.35.5,10.74,10.74,0,0,1-2.67.37"/><path class="cls-5" d="M234,57.62a2.17,2.17,0,0,1-2.89,0,1.82,1.82,0,0,1,0-2.68,2.23,2.23,0,0,1,2.89,0,1.84,1.84,0,0,1,0,2.68m-2.72,13.64a.38.38,0,0,1-.43-.43V60.64a.38.38,0,0,1,.43-.44h2.55a.39.39,0,0,1,.44.44V70.83a.38.38,0,0,1-.44.43Z"/><path class="cls-5" d="M242.92,71.63a4.8,4.8,0,0,1-3.53-1.27,4.6,4.6,0,0,1-1.29-3.45V63H236a.38.38,0,0,1-.44-.43V60.64a.39.39,0,0,1,.44-.44h2.09V57.31a.39.39,0,0,1,.44-.44h2.55a.39.39,0,0,1,.44.44V60.2h3.58a.39.39,0,0,1,.44.44v1.89a.38.38,0,0,1-.44.43h-3.58V66.8a1.82,1.82,0,0,0,.51,1.36,1.86,1.86,0,0,0,1.38.51,6.91,6.91,0,0,0,1.71-.21.38.38,0,0,1,.5.34l.3,2a.47.47,0,0,1-.34.5,10.87,10.87,0,0,1-2.67.37"/><path class="cls-5" d="M261.46,70.88a.41.41,0,0,1-.34.48,6.49,6.49,0,0,1-1.74.27,3.34,3.34,0,0,1-3.05-1.32,5.51,5.51,0,0,1-3.88,1.32,4.8,4.8,0,0,1-3.57-1.38,5,5,0,0,1-1.36-3.66v-6a.39.39,0,0,1,.44-.44h2.55a.38.38,0,0,1,.43.44v5.49A2.62,2.62,0,0,0,251.6,68a2.21,2.21,0,0,0,1.74.71,2.43,2.43,0,0,0,1.82-.68,2.36,2.36,0,0,0,.69-1.78V60.64a.38.38,0,0,1,.43-.44h2.58a.39.39,0,0,1,.44.44V67.8c0,.59.25.89.75.89a3,3,0,0,0,.71-.07.39.39,0,0,1,.49.36Z"/><path class="cls-5" d="M269.22,71.63a4.8,4.8,0,0,1-3.53-1.27,4.6,4.6,0,0,1-1.29-3.45V63h-2.1a.38.38,0,0,1-.43-.43V60.64a.38.38,0,0,1,.43-.44h2.1V57.31a.38.38,0,0,1,.43-.44h2.56a.39.39,0,0,1,.44.44V60.2h3.58a.39.39,0,0,1,.43.44v1.89a.38.38,0,0,1-.43.43h-3.58V66.8a1.82,1.82,0,0,0,.51,1.36,1.86,1.86,0,0,0,1.38.51,6.91,6.91,0,0,0,1.71-.21.38.38,0,0,1,.5.34l.3,2a.46.46,0,0,1-.35.5,10.73,10.73,0,0,1-2.66.37"/><path class="cls-5" d="M284.26,70a7.2,7.2,0,0,1-9.1,0,6.17,6.17,0,0,1,0-8.55,7.2,7.2,0,0,1,9.1,0,6.17,6.17,0,0,1,0,8.55m-6.73-2a3,3,0,0,0,2.18.83,3,3,0,0,0,2.18-.83,3.41,3.41,0,0,0,0-4.46,2.92,2.92,0,0,0-2.18-.85,2.89,2.89,0,0,0-2.18.85,3.41,3.41,0,0,0,0,4.46"/><path class="cls-5" d="M307.69,70.88c.05.26-.06.41-.34.47a6,6,0,0,1-1.75.28,2.92,2.92,0,0,1-2.87-1.44,5.29,5.29,0,0,1-3.8,1.44A5.93,5.93,0,0,1,294.62,70a6.23,6.23,0,0,1,0-8.51,5.89,5.89,0,0,1,4.31-1.64,5.24,5.24,0,0,1,3.17,1v-6a.39.39,0,0,1,.44-.44h2.58a.38.38,0,0,1,.43.44v13q0,.87.75.87a3.19,3.19,0,0,0,.69-.07c.32,0,.48.09.5.36ZM299.23,69a2.65,2.65,0,0,0,2.08-.9,3.82,3.82,0,0,0,0-4.65,2.63,2.63,0,0,0-2.08-.91,2.73,2.73,0,0,0-2.12.91,3.71,3.71,0,0,0,0,4.65,2.75,2.75,0,0,0,2.12.9"/><path class="cls-5" d="M315.22,71.63A6.39,6.39,0,0,1,310.68,70,5.58,5.58,0,0,1,309,65.75a5.69,5.69,0,0,1,1.68-4.29A6,6,0,0,1,315,59.84a5.91,5.91,0,0,1,4.35,1.59A5.71,5.71,0,0,1,321,65.65c0,.1,0,.22,0,.4s0,.3,0,.38a.43.43,0,0,1-.49.38h-8.18a2.85,2.85,0,0,0,1.08,1.63,3.2,3.2,0,0,0,1.93.59,2.4,2.4,0,0,0,1.87-.68.89.89,0,0,1,.55-.23h2.55a.47.47,0,0,1,.36.12.3.3,0,0,1,0,.33,4.63,4.63,0,0,1-2,2.24,6.69,6.69,0,0,1-3.38.82m-3-6.84h5.45a2.43,2.43,0,0,0-2.6-2.42,2.84,2.84,0,0,0-1.91.67,2.74,2.74,0,0,0-.94,1.75"/><path class="cls-5" d="M328.16,71.26a.38.38,0,0,1-.44-.43V68.67a.39.39,0,0,1,.44-.44h2.25v-9.9h-2.25a.39.39,0,0,1-.44-.44V55.73a.38.38,0,0,1,.44-.43h8.09c.31,0,.46.14.46.43v2.16c0,.3-.15.44-.46.44H334v9.9h2.26c.31,0,.46.14.46.44v2.16c0,.29-.15.43-.46.43Z"/><path class="cls-5" d="M346.4,59.84A4.89,4.89,0,0,1,350,61.21a5,5,0,0,1,1.36,3.67v6a.38.38,0,0,1-.43.43h-2.55c-.31,0-.46-.14-.46-.43v-5.5a2.68,2.68,0,0,0-.65-1.87,2.27,2.27,0,0,0-1.75-.71,2.51,2.51,0,0,0-1.83.68,2.39,2.39,0,0,0-.7,1.79v5.61a.38.38,0,0,1-.43.43H340a.38.38,0,0,1-.43-.43V63.67a.79.79,0,0,0-.89-.89,4,4,0,0,0-.5.07c-.33,0-.5-.12-.5-.37V60.61a.48.48,0,0,1,.34-.5,4.58,4.58,0,0,1,1.64-.27,2.85,2.85,0,0,1,2.74,1.43,5.43,5.43,0,0,1,4-1.43"/><path class="cls-5" d="M355.84,71.26a.38.38,0,0,1-.43-.43V63h-2.5c-.3,0-.44-.14-.44-.43V60.64a.39.39,0,0,1,.44-.44h2.5V58.88a4.66,4.66,0,0,1,1.38-3.55A5.2,5.2,0,0,1,360.52,54a9.15,9.15,0,0,1,2.78.39c.26.08.37.23.32.48l-.29,1.89q-.07.48-.51.36a6.77,6.77,0,0,0-1.75-.22,2.37,2.37,0,0,0-1.61.53,1.82,1.82,0,0,0-.6,1.43V60.2h3.81a.38.38,0,0,1,.43.44v1.89a.38.38,0,0,1-.43.43h-3.81v7.87a.38.38,0,0,1-.44.43Z"/><path class="cls-5" d="M374.61,70a7.21,7.21,0,0,1-9.11,0,6.17,6.17,0,0,1,0-8.55,7.21,7.21,0,0,1,9.11,0,6.17,6.17,0,0,1,0,8.55m-6.73-2a3.26,3.26,0,0,0,4.35,0,3.38,3.38,0,0,0,0-4.46,3.21,3.21,0,0,0-4.35,0,3.38,3.38,0,0,0,0,4.46"/><path class="cls-5" d="M387.59,60a.42.42,0,0,1,.35.51l-.3,2.18a.38.38,0,0,1-.5.34,6.92,6.92,0,0,0-1.25-.11,3,3,0,0,0-2.17.8,2.8,2.8,0,0,0-.84,2.17v4.9a.38.38,0,0,1-.44.43h-2.55a.38.38,0,0,1-.44-.43V63.67a.79.79,0,0,0-.89-.89,3.75,3.75,0,0,0-.5.07c-.34,0-.5-.12-.5-.37V60.61a.47.47,0,0,1,.34-.5,5.1,5.1,0,0,1,1.65-.27,2.75,2.75,0,0,1,2.76,1.55A4.78,4.78,0,0,1,386,59.84a5.21,5.21,0,0,1,1.57.2"/><path class="cls-5" d="M405,59.84a4.83,4.83,0,0,1,3.59,1.37A5,5,0,0,1,410,64.88v6c0,.29-.15.43-.45.43H407a.38.38,0,0,1-.43-.43v-5.5a2.67,2.67,0,0,0-.64-1.87,2.21,2.21,0,0,0-1.71-.71,1.89,1.89,0,0,0-1.51.68,2.67,2.67,0,0,0-.57,1.79v5.61a.38.38,0,0,1-.43.43h-2.58a.38.38,0,0,1-.43-.43v-5.5a2.8,2.8,0,0,0-.6-1.87,2,2,0,0,0-1.57-.71,2.19,2.19,0,0,0-1.68.68,2.5,2.5,0,0,0-.62,1.79v5.61a.38.38,0,0,1-.43.43H391.2a.38.38,0,0,1-.44-.43V63.67a.78.78,0,0,0-.89-.89,3.69,3.69,0,0,0-.49.07c-.34,0-.51-.12-.51-.37V60.61a.48.48,0,0,1,.34-.5,4.58,4.58,0,0,1,1.64-.27,2.76,2.76,0,0,1,2.7,1.39,5.23,5.23,0,0,1,3.87-1.39A4.36,4.36,0,0,1,401,61.46a5,5,0,0,1,4-1.62"/><path class="cls-5" d="M426.65,70.88c0,.26-.1.41-.37.47a5.86,5.86,0,0,1-1.71.28,3,3,0,0,1-2.87-1.39,5.7,5.7,0,0,1-3.84,1.39A5.94,5.94,0,0,1,413.54,70a6.23,6.23,0,0,1,0-8.51,5.9,5.9,0,0,1,4.32-1.64,5.08,5.08,0,0,1,3.24,1v-.25a.39.39,0,0,1,.44-.44H424a.39.39,0,0,1,.44.44v7.15q0,.9.75.9a3.55,3.55,0,0,0,.71-.07q.45,0,.48.36ZM418.16,69a2.67,2.67,0,0,0,2.08-.9,3.82,3.82,0,0,0,0-4.65,2.64,2.64,0,0,0-2.08-.91,2.71,2.71,0,0,0-2.12.91,3.71,3.71,0,0,0,0,4.65,2.74,2.74,0,0,0,2.12.9"/><path class="cls-5" d="M434.1,71.63A6.37,6.37,0,0,1,429.55,70a6.17,6.17,0,0,1,0-8.55,7.18,7.18,0,0,1,8.38-.51,4.66,4.66,0,0,1,1.92,3c0,.31-.08.46-.38.46H437a.5.5,0,0,1-.47-.36,2.08,2.08,0,0,0-.91-1.06,2.83,2.83,0,0,0-1.54-.4,2.87,2.87,0,0,0-2.16.86,3.55,3.55,0,0,0,0,4.56,2.9,2.9,0,0,0,2.16.85,3,3,0,0,0,1.56-.39,2,2,0,0,0,.89-1.07A.55.55,0,0,1,437,67h2.45c.3,0,.43.16.38.46a4.63,4.63,0,0,1-1.92,3,6.41,6.41,0,0,1-3.83,1.12"/><path class="cls-5" d="M445.11,57.62a2,2,0,0,1-1.45.55,2,2,0,0,1-1.44-.55,1.82,1.82,0,0,1,0-2.68,2,2,0,0,1,1.44-.53,2.09,2.09,0,0,1,1.45.53,1.84,1.84,0,0,1,0,2.68m-2.73,13.64a.38.38,0,0,1-.43-.43V60.64a.38.38,0,0,1,.43-.44h2.56a.38.38,0,0,1,.43.44V70.83a.38.38,0,0,1-.43.43Z"/><path class="cls-5" d="M458.25,70a7.2,7.2,0,0,1-9.1,0,6.15,6.15,0,0,1,0-8.55,7.2,7.2,0,0,1,9.1,0,6.17,6.17,0,0,1,0,8.55m-6.73-2a3.26,3.26,0,0,0,4.35,0,3.38,3.38,0,0,0,0-4.46,3.21,3.21,0,0,0-4.35,0,3.41,3.41,0,0,0,0,4.46m1-9.59a.37.37,0,0,1-.33-.15.3.3,0,0,1,0-.35l1.5-2.81a.54.54,0,0,1,.5-.32h2.7a.36.36,0,0,1,.33.14c.05.09,0,.22-.08.39l-1.94,2.85a.65.65,0,0,1-.53.25Z"/><path class="cls-5" d="M469.91,59.84a4.88,4.88,0,0,1,3.61,1.37,5,5,0,0,1,1.37,3.67v6a.38.38,0,0,1-.44.43H471.9c-.31,0-.46-.14-.46-.43v-5.5a2.63,2.63,0,0,0-.65-1.87,2.27,2.27,0,0,0-1.75-.71,2.47,2.47,0,0,0-1.82.68,2.35,2.35,0,0,0-.7,1.79v5.61a.38.38,0,0,1-.43.43h-2.56a.38.38,0,0,1-.44-.43V63.67a.78.78,0,0,0-.89-.89,4,4,0,0,0-.5.07c-.33,0-.5-.12-.5-.37V60.61a.48.48,0,0,1,.34-.5,4.64,4.64,0,0,1,1.65-.27,2.84,2.84,0,0,1,2.73,1.43,5.43,5.43,0,0,1,4-1.43"/><path class="cls-5" d="M194.81,84.67a.37.37,0,0,1-.43.42h-8.21v3.62h7.13c.29,0,.44.14.44.41v2.1a.38.38,0,0,1-.44.43h-7.13v3.47h8.21c.29,0,.43.14.43.41v2.12a.38.38,0,0,1-.43.44H183.05c-.31,0-.46-.15-.46-.44V82.55c0-.29.15-.43.46-.43h11.33a.38.38,0,0,1,.43.43Z"/><path class="cls-5" d="M201.79,98.45a7.36,7.36,0,0,1-3.9-.94,3.63,3.63,0,0,1-1.75-2.64c0-.3.09-.45.43-.45l2.23,0a.59.59,0,0,1,.51.32c.32.82,1.14,1.23,2.48,1.23a2.83,2.83,0,0,0,1.36-.28.82.82,0,0,0,.52-.73c0-.39-.25-.68-.74-.85a8.8,8.8,0,0,0-1.78-.39,19.08,19.08,0,0,1-2.09-.37,3.56,3.56,0,0,1-1.78-1,2.94,2.94,0,0,1-.73-2.1,3,3,0,0,1,1.39-2.6,6.25,6.25,0,0,1,3.67-1,6.66,6.66,0,0,1,3.59.9,3.34,3.34,0,0,1,1.68,2.38c.05.31-.09.46-.41.46h-2.26a.52.52,0,0,1-.46-.27,1.57,1.57,0,0,0-.78-.81,2.72,2.72,0,0,0-1.31-.31,2.86,2.86,0,0,0-1.3.26.78.78,0,0,0-.48.69,1,1,0,0,0,.74.92,7.64,7.64,0,0,0,1.8.44c.71.1,1.41.24,2.11.4a3.56,3.56,0,0,1,1.79,1,2.86,2.86,0,0,1,.74,2.08,3.06,3.06,0,0,1-1.41,2.64,6.7,6.7,0,0,1-3.86,1"/><path class="cls-5" d="M215.16,98.45a4.8,4.8,0,0,1-3.52-1.26,4.65,4.65,0,0,1-1.3-3.46v-4h-2.1a.38.38,0,0,1-.43-.43V87.46a.38.38,0,0,1,.43-.43h2.1v-2.9a.39.39,0,0,1,.44-.44h2.55a.39.39,0,0,1,.44.44V87h3.58a.38.38,0,0,1,.43.43v1.89a.38.38,0,0,1-.43.43h-3.58v3.84a1.82,1.82,0,0,0,.51,1.36,1.86,1.86,0,0,0,1.38.51,6.91,6.91,0,0,0,1.71-.21.39.39,0,0,1,.51.34l.29,2a.47.47,0,0,1-.34.5,11.25,11.25,0,0,1-2.67.36"/><path class="cls-5" d="M234.16,97.7a.4.4,0,0,1-.37.48,6.12,6.12,0,0,1-1.71.27,3,3,0,0,1-2.87-1.39,5.61,5.61,0,0,1-3.83,1.39,5.94,5.94,0,0,1-4.32-1.64,6.23,6.23,0,0,1,0-8.51,5.94,5.94,0,0,1,4.32-1.64,5.07,5.07,0,0,1,3.23,1v-.25a.39.39,0,0,1,.44-.44h2.51a.38.38,0,0,1,.43.44v7.16c0,.59.25.89.75.89a3,3,0,0,0,.72-.07c.3,0,.46.09.47.37Zm-8.48-1.92a2.63,2.63,0,0,0,2.07-.9,3.36,3.36,0,0,0,.8-2.31,3.41,3.41,0,0,0-.8-2.34,2.63,2.63,0,0,0-2.07-.9,2.76,2.76,0,0,0-2.13.9,3.37,3.37,0,0,0-.82,2.34,3.33,3.33,0,0,0,.82,2.31,2.76,2.76,0,0,0,2.13.9"/><path class="cls-5" d="M250.1,97.7a.38.38,0,0,1-.34.48,6.38,6.38,0,0,1-1.75.27A2.94,2.94,0,0,1,245.13,97a5.25,5.25,0,0,1-3.79,1.44A5.94,5.94,0,0,1,237,96.81a6.23,6.23,0,0,1,0-8.51,5.94,5.94,0,0,1,4.32-1.64,5.24,5.24,0,0,1,3.17,1v-6a.38.38,0,0,1,.44-.43h2.58a.38.38,0,0,1,.43.43v13q0,.87.75.87a2.71,2.71,0,0,0,.69-.07c.31,0,.48.09.49.37Zm-8.46-1.92a2.67,2.67,0,0,0,2.08-.9,3.36,3.36,0,0,0,.79-2.31,3.4,3.4,0,0,0-.79-2.34,2.67,2.67,0,0,0-2.08-.9,2.74,2.74,0,0,0-2.12.9,3.32,3.32,0,0,0-.82,2.34,3.28,3.28,0,0,0,.82,2.31,2.74,2.74,0,0,0,2.12.9"/><path class="cls-5" d="M254.87,87a.38.38,0,0,1,.43.44V97.65a.38.38,0,0,1-.43.44h-2.55a.39.39,0,0,1-.44-.44V87.46a.39.39,0,0,1,.44-.44Zm-2.42-1.82a.37.37,0,0,1-.33-.15.32.32,0,0,1,0-.35l1.51-2.81a.52.52,0,0,1,.5-.32h2.69a.35.35,0,0,1,.33.14c.06.09,0,.22-.08.39L255.14,85a.59.59,0,0,1-.52.25Z"/><path class="cls-5" d="M262.81,98.45a7.37,7.37,0,0,1-3.91-.94,3.65,3.65,0,0,1-1.75-2.64c0-.3.1-.45.44-.45l2.23,0a.57.57,0,0,1,.5.32Q260.8,96,262.81,96a2.83,2.83,0,0,0,1.36-.28.81.81,0,0,0,.51-.73c0-.39-.25-.68-.73-.85a9,9,0,0,0-1.78-.39,19.25,19.25,0,0,1-2.1-.37,3.56,3.56,0,0,1-1.78-1,2.94,2.94,0,0,1-.73-2.1,3.06,3.06,0,0,1,1.39-2.6,6.27,6.27,0,0,1,3.67-1,6.72,6.72,0,0,1,3.6.9,3.36,3.36,0,0,1,1.67,2.38c.05.31-.09.46-.41.46h-2.26a.48.48,0,0,1-.45-.27,1.59,1.59,0,0,0-.79-.81,2.7,2.7,0,0,0-1.31-.31,2.79,2.79,0,0,0-1.29.26.77.77,0,0,0-.49.69c0,.42.25.72.75.92a7.52,7.52,0,0,0,1.8.44c.7.1,1.41.24,2.11.4a3.57,3.57,0,0,1,1.78,1,2.87,2.87,0,0,1,.75,2.08,3,3,0,0,1-1.42,2.64,6.69,6.69,0,0,1-3.85,1"/><path class="cls-5" d="M276.17,98.45a4.82,4.82,0,0,1-3.52-1.26,4.64,4.64,0,0,1-1.29-3.46v-4h-2.1a.38.38,0,0,1-.43-.43V87.46a.38.38,0,0,1,.43-.43h2.1v-2.9a.39.39,0,0,1,.43-.44h2.56a.39.39,0,0,1,.44.44V87h3.57a.38.38,0,0,1,.43.43v1.89a.38.38,0,0,1-.43.43h-3.57v3.84a1.85,1.85,0,0,0,.5,1.36,1.9,1.9,0,0,0,1.39.51,6.77,6.77,0,0,0,1.7-.21.39.39,0,0,1,.51.34l.29,2a.45.45,0,0,1-.34.5,11.19,11.19,0,0,1-2.67.36"/><path class="cls-5" d="M284.15,84.45a2.22,2.22,0,0,1-2.9,0,1.8,1.8,0,0,1-.59-1.35,1.72,1.72,0,0,1,.59-1.33,2.22,2.22,0,0,1,2.9,0,1.75,1.75,0,0,1,.58,1.33,1.82,1.82,0,0,1-.58,1.35m-2.73,13.64a.38.38,0,0,1-.43-.44V87.46a.38.38,0,0,1,.43-.44H284a.39.39,0,0,1,.44.44V97.65a.39.39,0,0,1-.44.44Z"/><path class="cls-5" d="M292.73,98.45a6.38,6.38,0,0,1-4.55-1.62,6.17,6.17,0,0,1,0-8.55,7.17,7.17,0,0,1,8.39-.5,4.66,4.66,0,0,1,1.91,3c0,.3-.08.45-.39.45h-2.44a.52.52,0,0,1-.48-.36,2,2,0,0,0-.9-1.06,3.14,3.14,0,0,0-3.7.47,3.57,3.57,0,0,0,0,4.55,2.85,2.85,0,0,0,2.16.85,3,3,0,0,0,1.55-.39,1.91,1.91,0,0,0,.89-1.07.56.56,0,0,1,.48-.36h2.44c.31,0,.43.15.39.45a4.63,4.63,0,0,1-1.91,3,6.37,6.37,0,0,1-3.84,1.12"/><path class="cls-5" d="M314.81,97.7a.4.4,0,0,1-.36.48,6.23,6.23,0,0,1-1.71.27,3,3,0,0,1-2.88-1.39A5.61,5.61,0,0,1,306,98.45a5.94,5.94,0,0,1-4.32-1.64,6.23,6.23,0,0,1,0-8.51A5.94,5.94,0,0,1,306,86.66a5.1,5.1,0,0,1,3.24,1v-.25a.39.39,0,0,1,.44-.44h2.5a.38.38,0,0,1,.43.44v7.16c0,.59.26.89.76.89a2.85,2.85,0,0,0,.7-.07c.31,0,.47.09.48.37Zm-8.49-1.92a2.64,2.64,0,0,0,2.08-.9,3.32,3.32,0,0,0,.8-2.31,3.36,3.36,0,0,0-.8-2.34,2.64,2.64,0,0,0-2.08-.9,2.72,2.72,0,0,0-2.11.9,3.32,3.32,0,0,0-.82,2.34,3.28,3.28,0,0,0,.82,2.31,2.72,2.72,0,0,0,2.11.9"/><path class="cls-5" d="M334.72,87a.35.35,0,0,1,.33.14.36.36,0,0,1,0,.36l-5.67,12.64q-1.65,3.6-5.09,3.6a9.17,9.17,0,0,1-2.69-.36c-.28-.06-.39-.22-.35-.47l.3-2c.08-.3.25-.43.5-.37a8,8,0,0,0,1.74.21,2.38,2.38,0,0,0,2.37-1.48l.48-1-5.41-10.77a.33.33,0,0,1,0-.36.43.43,0,0,1,.36-.14h2.71a.56.56,0,0,1,.5.32l3.53,7.12,3.2-7.12A.5.5,0,0,1,332,87Z"/><path class="cls-5" d="M350.67,98.43a8.55,8.55,0,0,1-6.23-2.31,8.88,8.88,0,0,1,0-12.07,8.58,8.58,0,0,1,6.24-2.3,9.3,9.3,0,0,1,5.21,1.47,7,7,0,0,1,2.95,4q.14.48-.36.48h-2.92a.5.5,0,0,1-.5-.34,3.76,3.76,0,0,0-1.66-1.74,5.33,5.33,0,0,0-2.67-.65,4.87,4.87,0,0,0-3.65,1.42,5.77,5.77,0,0,0,0,7.51,4.82,4.82,0,0,0,3.63,1.42,4.68,4.68,0,0,0,2.72-.83,4.15,4.15,0,0,0,1.63-2.18H351a.38.38,0,0,1-.44-.43V89.9a.38.38,0,0,1,.44-.43h7.68a.37.37,0,0,1,.42.43,8.48,8.48,0,0,1-2.27,6.22,8.23,8.23,0,0,1-6.15,2.31"/><path class="cls-5" d="M367.39,98.45a6.37,6.37,0,0,1-4.54-1.62,5.55,5.55,0,0,1-1.74-4.26,5.69,5.69,0,0,1,1.68-4.29,6.05,6.05,0,0,1,4.39-1.62,5.88,5.88,0,0,1,4.35,1.6,5.68,5.68,0,0,1,1.6,4.22v.39c0,.18,0,.3,0,.38a.43.43,0,0,1-.48.39h-8.19a2.93,2.93,0,0,0,1.09,1.62,3.2,3.2,0,0,0,1.93.59,2.42,2.42,0,0,0,1.87-.68.86.86,0,0,1,.54-.23h2.56a.42.42,0,0,1,.35.13.28.28,0,0,1,0,.32,4.54,4.54,0,0,1-2,2.24,6.65,6.65,0,0,1-3.37.82m-3-6.84h5.45a2.49,2.49,0,0,0-.74-1.75,2.65,2.65,0,0,0-1.86-.67,2.86,2.86,0,0,0-1.9.67,2.75,2.75,0,0,0-.95,1.75"/><path class="cls-5" d="M385.53,96.83a7.2,7.2,0,0,1-9.1,0,6.17,6.17,0,0,1,0-8.55,7.2,7.2,0,0,1,9.1,0,6.17,6.17,0,0,1,0,8.55m-6.73-2a3.28,3.28,0,0,0,4.36,0,3,3,0,0,0,.83-2.22,3.07,3.07,0,0,0-.83-2.24,3.25,3.25,0,0,0-4.36,0,3.07,3.07,0,0,0-.83,2.24,3,3,0,0,0,.83,2.22"/><path class="cls-5" d="M401.07,87a.39.39,0,0,1,.44.44v10.9a5,5,0,0,1-1.69,3.91,6.4,6.4,0,0,1-4.42,1.5,7.07,7.07,0,0,1-4.12-1.14,4.62,4.62,0,0,1-2-3c-.07-.29.06-.43.42-.43h2.55a.55.55,0,0,1,.5.34,2,2,0,0,0,.94,1.09,3.43,3.43,0,0,0,1.69.39,2.68,2.68,0,0,0,1.95-.7,2.53,2.53,0,0,0,.73-1.9v-.95a5.11,5.11,0,0,1-3.17,1,5.9,5.9,0,0,1-4.3-1.66,6.1,6.1,0,0,1,0-8.45,5.88,5.88,0,0,1,4.3-1.64,5.08,5.08,0,0,1,3.24,1v-.25a.39.39,0,0,1,.44-.44Zm-5.88,8.69a2.68,2.68,0,0,0,2.08-.88,3.36,3.36,0,0,0,.79-2.31,3.27,3.27,0,0,0-.8-2.3,2.65,2.65,0,0,0-2.07-.89,2.76,2.76,0,0,0-2.11.9,3.26,3.26,0,0,0-.83,2.29,3.33,3.33,0,0,0,.82,2.31,2.75,2.75,0,0,0,2.12.88"/><path class="cls-5" d="M413.3,86.86a.41.41,0,0,1,.34.51l-.29,2.18c-.05.28-.21.39-.51.35a6,6,0,0,0-1.25-.12,3,3,0,0,0-2.17.8,2.85,2.85,0,0,0-.83,2.17v4.9a.39.39,0,0,1-.44.44H405.6a.39.39,0,0,1-.44-.44V90.49a.79.79,0,0,0-.89-.89,3.75,3.75,0,0,0-.5.07c-.34,0-.5-.12-.5-.37V87.44a.48.48,0,0,1,.34-.51,5.08,5.08,0,0,1,1.64-.27A2.74,2.74,0,0,1,408,88.21a4.8,4.8,0,0,1,3.72-1.55,5.26,5.26,0,0,1,1.57.2"/><path class="cls-5" d="M429.27,97.7a.4.4,0,0,1-.37.48,6.17,6.17,0,0,1-1.71.27,3,3,0,0,1-2.87-1.39,5.63,5.63,0,0,1-3.83,1.39,5.91,5.91,0,0,1-4.33-1.64,6.26,6.26,0,0,1,0-8.51,6,6,0,0,1,4.33-1.64,5.14,5.14,0,0,1,3.24,1v-.25a.39.39,0,0,1,.43-.44h2.51a.38.38,0,0,1,.43.44v7.16c0,.59.25.89.76.89a2.91,2.91,0,0,0,.7-.07c.31,0,.47.09.48.37Zm-8.49-1.92a2.65,2.65,0,0,0,2.08-.9,3.78,3.78,0,0,0,0-4.65,2.65,2.65,0,0,0-2.08-.9,2.75,2.75,0,0,0-2.12.9,3.71,3.71,0,0,0,0,4.65,2.75,2.75,0,0,0,2.12.9m-.95-10.58a.35.35,0,0,1-.33-.15.3.3,0,0,1,0-.35l1.5-2.81a.54.54,0,0,1,.5-.32h2.7a.37.37,0,0,1,.33.14c0,.09,0,.22-.08.39L422.52,85a.62.62,0,0,1-.53.25Z"/><path class="cls-5" d="M433,98.09a.38.38,0,0,1-.43-.44V89.78h-2.51a.38.38,0,0,1-.43-.43V87.46a.39.39,0,0,1,.43-.44h2.51V85.7A4.68,4.68,0,0,1,434,82.15a5.2,5.2,0,0,1,3.73-1.31,8.84,8.84,0,0,1,2.67.37.37.37,0,0,1,.31.47l-.29,1.9c0,.32-.22.44-.52.36a6.33,6.33,0,0,0-1.63-.2,2.3,2.3,0,0,0-1.6.54,1.8,1.8,0,0,0-.6,1.42V87h8.53a.39.39,0,0,1,.43.44V97.65a.39.39,0,0,1-.43.44H442a.38.38,0,0,1-.43-.44V89.78h-5.52v7.87a.39.39,0,0,1-.44.44ZM443.3,85a2.08,2.08,0,0,1-1.46-.55,1.76,1.76,0,0,1-.59-1.35,1.69,1.69,0,0,1,.59-1.33,2.08,2.08,0,0,1,1.46-.54,2,2,0,0,1,1.43.54,1.7,1.7,0,0,1,.6,1.33,1.77,1.77,0,0,1-.6,1.35,2,2,0,0,1-1.43.55"/><path class="cls-5" d="M453.31,98.45a6.38,6.38,0,0,1-4.55-1.62,6.17,6.17,0,0,1,0-8.55,7.16,7.16,0,0,1,8.38-.5,4.63,4.63,0,0,1,1.92,3q.06.45-.39.45h-2.44a.52.52,0,0,1-.48-.36,2.11,2.11,0,0,0-.9-1.06,3.15,3.15,0,0,0-3.71.47,3.57,3.57,0,0,0,0,4.55,2.87,2.87,0,0,0,2.17.85,3,3,0,0,0,1.55-.39,1.91,1.91,0,0,0,.89-1.07.54.54,0,0,1,.48-.36h2.44q.45,0,.39.45a4.61,4.61,0,0,1-1.92,3,6.34,6.34,0,0,1-3.83,1.12"/><path class="cls-5" d="M475.39,97.7a.4.4,0,0,1-.37.48,6.17,6.17,0,0,1-1.71.27,3,3,0,0,1-2.87-1.39,5.63,5.63,0,0,1-3.83,1.39,5.94,5.94,0,0,1-4.32-1.64,6.23,6.23,0,0,1,0-8.51,5.94,5.94,0,0,1,4.32-1.64,5.07,5.07,0,0,1,3.23,1v-.25a.39.39,0,0,1,.45-.44h2.5a.38.38,0,0,1,.43.44v7.16c0,.59.26.89.76.89a2.91,2.91,0,0,0,.7-.07c.31,0,.47.09.48.37Zm-8.48-1.92a2.63,2.63,0,0,0,2.07-.9,3.36,3.36,0,0,0,.8-2.31,3.41,3.41,0,0,0-.8-2.34,2.63,2.63,0,0,0-2.07-.9,2.76,2.76,0,0,0-2.13.9,3.36,3.36,0,0,0-.81,2.34,3.32,3.32,0,0,0,.81,2.31,2.76,2.76,0,0,0,2.13.9"/><path class="cls-5" d="M196.73,124.52a.38.38,0,0,1-.34.48,6.39,6.39,0,0,1-1.76.27,2.93,2.93,0,0,1-2.87-1.43,5.27,5.27,0,0,1-3.79,1.43,5.9,5.9,0,0,1-4.32-1.64,6.22,6.22,0,0,1,0-8.5,5.91,5.91,0,0,1,4.32-1.65,5.26,5.26,0,0,1,3.17,1v-6a.38.38,0,0,1,.43-.43h2.58a.39.39,0,0,1,.44.43v13c0,.58.25.87.74.87a3.27,3.27,0,0,0,.69-.06c.32,0,.49.09.5.36Zm-8.46-1.91a2.63,2.63,0,0,0,2.07-.9,3.79,3.79,0,0,0,0-4.66,2.63,2.63,0,0,0-2.07-.9,2.77,2.77,0,0,0-2.13.9,3.76,3.76,0,0,0,0,4.66,2.77,2.77,0,0,0,2.13.9"/><path class="cls-5" d="M204.26,125.27a6.41,6.41,0,0,1-4.54-1.61,5.57,5.57,0,0,1-1.74-4.27,5.69,5.69,0,0,1,1.68-4.29,6.05,6.05,0,0,1,4.39-1.62,5.88,5.88,0,0,1,4.35,1.6A5.7,5.7,0,0,1,210,119.3a3.36,3.36,0,0,1,0,.4c0,.17,0,.29,0,.37a.43.43,0,0,1-.48.39h-8.19a2.89,2.89,0,0,0,1.09,1.62,3.13,3.13,0,0,0,1.92.59,2.41,2.41,0,0,0,1.88-.68.9.9,0,0,1,.54-.23h2.56a.41.41,0,0,1,.35.13.28.28,0,0,1,0,.33,4.56,4.56,0,0,1-2,2.23,6.65,6.65,0,0,1-3.37.82m-3-6.84h5.45a2.45,2.45,0,0,0-.75-1.74,2.59,2.59,0,0,0-1.85-.68,2.85,2.85,0,0,0-1.91.68,2.74,2.74,0,0,0-.94,1.74"/><path class="cls-5" d="M222.84,125.27a6.71,6.71,0,0,1-4.35-1.38,5.36,5.36,0,0,1-2-3.77c-.05-.3.1-.46.43-.46h2.69a.4.4,0,0,1,.43.39,2.44,2.44,0,0,0,1,1.56,3.26,3.26,0,0,0,2,.58,2.66,2.66,0,0,0,2.09-.88,3.45,3.45,0,0,0,.78-2.35v-7h-6.68a.38.38,0,0,1-.43-.44v-2.16a.38.38,0,0,1,.43-.44h9.88a.39.39,0,0,1,.43.44v9.53a6.17,6.17,0,0,1-1.75,4.7,6.87,6.87,0,0,1-4.94,1.66"/><path class="cls-5" d="M246.27,124.52a.4.4,0,0,1-.36.48,6.29,6.29,0,0,1-1.72.27,3,3,0,0,1-2.87-1.39,5.61,5.61,0,0,1-3.83,1.39,5.9,5.9,0,0,1-4.32-1.64,6.22,6.22,0,0,1,0-8.5,5.91,5.91,0,0,1,4.32-1.65,5.07,5.07,0,0,1,3.23,1v-.25c0-.29.15-.43.45-.43h2.5a.38.38,0,0,1,.43.43v7.16c0,.6.26.89.76.89a3.76,3.76,0,0,0,.71-.06c.3,0,.46.09.47.36Zm-8.48-1.91a2.63,2.63,0,0,0,2.07-.9,3.79,3.79,0,0,0,0-4.66,2.63,2.63,0,0,0-2.07-.9,2.76,2.76,0,0,0-2.13.9,3.76,3.76,0,0,0,0,4.66,2.76,2.76,0,0,0,2.13.9"/><path class="cls-5" d="M251.54,125.27a4.08,4.08,0,0,1-2.55-.72,2.42,2.42,0,0,1-.94-2v-14.1c0-.29.14-.43.44-.43H251a.38.38,0,0,1,.43.43v13c0,.58.26.88.78.88a3.39,3.39,0,0,0,.68-.07c.31,0,.46.09.48.36l.23,1.89a.4.4,0,0,1-.37.48,6.08,6.08,0,0,1-1.73.27"/><path class="cls-5" d="M258.58,111.27a2.22,2.22,0,0,1-2.9,0,1.77,1.77,0,0,1-.58-1.35,1.73,1.73,0,0,1,.58-1.33,2.22,2.22,0,0,1,2.9,0,1.76,1.76,0,0,1,.58,1.33,1.81,1.81,0,0,1-.58,1.35m-2.73,13.64a.38.38,0,0,1-.43-.44V114.28a.38.38,0,0,1,.43-.43h2.55a.38.38,0,0,1,.44.43v10.19a.39.39,0,0,1-.44.44Z"/><path class="cls-5" d="M266.34,125.27a7.22,7.22,0,0,1-3.9-.94,3.65,3.65,0,0,1-1.76-2.63c0-.31.11-.47.44-.47l2.23,0a.61.61,0,0,1,.51.32c.32.82,1.14,1.23,2.48,1.23a2.93,2.93,0,0,0,1.36-.27.82.82,0,0,0,.51-.73c0-.4-.24-.68-.73-.86a8.85,8.85,0,0,0-1.77-.39,17.27,17.27,0,0,1-2.11-.37,3.5,3.5,0,0,1-1.77-1,2.94,2.94,0,0,1-.74-2.1,3.06,3.06,0,0,1,1.4-2.6,6.27,6.27,0,0,1,3.67-1,6.75,6.75,0,0,1,3.59.9,3.34,3.34,0,0,1,1.68,2.39c0,.3-.09.46-.41.46h-2.26a.52.52,0,0,1-.46-.28,1.65,1.65,0,0,0-.78-.81,2.74,2.74,0,0,0-1.32-.31,2.62,2.62,0,0,0-1.28.27.78.78,0,0,0-.5.69,1,1,0,0,0,.75.91,7.61,7.61,0,0,0,1.8.45c.71.1,1.41.23,2.11.4a3.63,3.63,0,0,1,1.79,1,2.91,2.91,0,0,1,.74,2.08,3.05,3.05,0,0,1-1.41,2.64,6.65,6.65,0,0,1-3.86,1"/><path class="cls-5" d="M279.41,125.27a6.38,6.38,0,0,1-4.55-1.61,6.19,6.19,0,0,1,0-8.56,7.16,7.16,0,0,1,8.38-.5,4.63,4.63,0,0,1,1.92,3q.07.45-.39.45h-2.43a.52.52,0,0,1-.49-.36,2.05,2.05,0,0,0-.9-1.06,3.14,3.14,0,0,0-3.7.47,3.53,3.53,0,0,0,0,4.55,2.83,2.83,0,0,0,2.16.85,3.07,3.07,0,0,0,1.55-.38,1.94,1.94,0,0,0,.89-1.07.54.54,0,0,1,.49-.37h2.43c.31,0,.44.15.39.46a4.66,4.66,0,0,1-1.92,3,6.4,6.4,0,0,1-3.83,1.11"/><path class="cls-5" d="M297.54,123.66a7.25,7.25,0,0,1-9.11,0,6.19,6.19,0,0,1,0-8.56,7.21,7.21,0,0,1,9.11,0,6.21,6.21,0,0,1,0,8.56m-6.74-2a3,3,0,0,0,2.19.83,2.91,2.91,0,0,0,2.17-.83,3,3,0,0,0,.83-2.22,3,3,0,0,0-.83-2.24,2.92,2.92,0,0,0-2.17-.84,3,3,0,0,0-2.19.84,3.08,3.08,0,0,0-.83,2.24,3,3,0,0,0,.83,2.22"/><path class="cls-5" d="M102.1,28.6v93.1l-7.79.06V54.23l-8.19,0L96.27,34.74l.1-.24A25.75,25.75,0,0,0,93.6,11.14,24.89,24.89,0,0,0,73.37,0H72A24.91,24.91,0,0,0,51.77,11.14,25.69,25.69,0,0,0,49,34.5l.09.24L59.19,54.07l-8.14,0v67.62H43V79.24H0v51.05H9.05v-42H33.94v42.43l26.16,0V63.13h3.82l8.76,16.8L81.4,63.22l3.86,0v67.65l25.89-.22v-93H136v92.64h9.05V28.6ZM76.57,54.15l-3.89,7.44-3.9-7.48L56.86,31.29a17,17,0,0,1,2-15.4,16.51,16.51,0,0,1,13.41-7.4h.93a16.49,16.49,0,0,1,13.41,7.4,17,17,0,0,1,1.94,15.4Z"/><path class="cls-5" d="M72.55,37.36A12.73,12.73,0,1,1,85.28,24.64,12.74,12.74,0,0,1,72.55,37.36m0-17a4.24,4.24,0,1,0,4.24,4.24,4.24,4.24,0,0,0-4.24-4.24"/></g></g></svg>