<svg xmlns="http://www.w3.org/2000/svg" viewBox="0 0 480 132.15"><defs><style>.cls-1{fill:#fff;}</style></defs><title>Recurso 7DE</title><g id="Capa_2" data-name="Capa 2"><g id="Capa_1-2" data-name="Capa 1"><path class="cls-1" d="M185.27,44.56a.84.84,0,0,1-1-1V38.78a.84.84,0,0,1,1-1h5v-22h-5a.84.84,0,0,1-1-1V10a.84.84,0,0,1,1-1h18c.67,0,1,.32,1,1v4.83c0,.64-.34,1-1,1h-5v22h5c.67,0,1,.31,1,1V43.6c0,.64-.34,1-1,1Z"/><path class="cls-1" d="M209.43,44.56a.85.85,0,0,1-1-1V38.78a.85.85,0,0,1,1-1h5v-22h-5a.85.85,0,0,1-1-1V10a.85.85,0,0,1,1-1h18c.67,0,1,.32,1,1v4.83c0,.64-.34,1-1,1h-5v22h5c.67,0,1,.31,1,1V43.6c0,.64-.34,1-1,1Z"/><path class="cls-1" d="M261.7,14.72c0,.61-.32.92-1,.92H242.47v8.07h15.88c.64,0,1,.3,1,.91v4.67a.85.85,0,0,1-1,1H242.47V38h18.27c.64,0,1,.3,1,.91V43.6a.84.84,0,0,1-1,1H235.51c-.68,0-1-.31-1-1V10c0-.64.33-1,1-1h25.23a.85.85,0,0,1,1,1Z"/><path class="cls-1" d="M284.44,45.33q-8.58,0-13.86-5.13T265.3,26.75q0-8.33,5.26-13.42t13.88-5.1A20.53,20.53,0,0,1,296,11.5a15.47,15.47,0,0,1,6.57,8.81c.21.71-.06,1.06-.81,1.06H295.3a1.1,1.1,0,0,1-1.12-.76,8.44,8.44,0,0,0-3.7-3.88,11.93,11.93,0,0,0-5.94-1.45,10.79,10.79,0,0,0-8.1,3.17,11.48,11.48,0,0,0-3.07,8.3,11.51,11.51,0,0,0,3.1,8.4,10.74,10.74,0,0,0,8.07,3.17,10.32,10.32,0,0,0,6.06-1.85,9.16,9.16,0,0,0,3.63-4.85h-9.08a.86.86,0,0,1-1-1V26.34a.86.86,0,0,1,1-1h17.1c.61,0,.92.32.92,1q0,8.73-5.06,13.86t-13.67,5.13"/><path class="cls-1" d="M183.94,72a.38.38,0,0,1-.44-.43V69.33a.39.39,0,0,1,.44-.44h2.28v-10h-2.28a.39.39,0,0,1-.44-.45V56.27a.39.39,0,0,1,.44-.44h8.17c.31,0,.47.15.47.44v2.18c0,.3-.16.45-.47.45h-2.28v10h2.28c.31,0,.47.15.47.44v2.19c0,.29-.16.43-.47.43Z"/><path class="cls-1" d="M202.36,60.42A4.91,4.91,0,0,1,206,61.81a5,5,0,0,1,1.37,3.7v6A.38.38,0,0,1,207,72h-2.58c-.31,0-.46-.14-.46-.43V66a2.65,2.65,0,0,0-.66-1.89,2.28,2.28,0,0,0-1.76-.72,2.58,2.58,0,0,0-1.86.68,2.4,2.4,0,0,0-.69,1.81v5.67a.39.39,0,0,1-.44.43h-2.59a.38.38,0,0,1-.43-.43V64.28a.8.8,0,0,0-.9-.9l-.51.08c-.33,0-.5-.12-.5-.37V61.2a.48.48,0,0,1,.34-.51,4.7,4.7,0,0,1,1.66-.27,2.88,2.88,0,0,1,2.77,1.45,5.4,5.4,0,0,1,4-1.45"/><path class="cls-1" d="M214.76,72.32a7.34,7.34,0,0,1-3.94-.95A3.67,3.67,0,0,1,209,68.71c0-.31.1-.46.44-.46l2.26,0a.61.61,0,0,1,.51.32c.32.83,1.15,1.24,2.51,1.24a2.93,2.93,0,0,0,1.36-.27.82.82,0,0,0,.52-.74c0-.4-.24-.69-.74-.86a7.72,7.72,0,0,0-1.79-.39c-.71-.09-1.41-.22-2.12-.38a3.56,3.56,0,0,1-1.8-1,3,3,0,0,1-.73-2.12,3.07,3.07,0,0,1,1.4-2.62,6.31,6.31,0,0,1,3.71-1,6.66,6.66,0,0,1,3.62.91,3.33,3.33,0,0,1,1.7,2.4c.05.31-.09.46-.42.46H217.2a.51.51,0,0,1-.47-.27,1.61,1.61,0,0,0-.79-.82,2.74,2.74,0,0,0-1.32-.31,2.91,2.91,0,0,0-1.31.26.8.8,0,0,0-.49.7,1,1,0,0,0,.75.93,7.83,7.83,0,0,0,1.82.44c.71.1,1.42.24,2.13.41a3.74,3.74,0,0,1,1.81,1,2.92,2.92,0,0,1,.75,2.1,3.08,3.08,0,0,1-1.44,2.67,6.67,6.67,0,0,1-3.88,1"/><path class="cls-1" d="M228.25,72.32a4.88,4.88,0,0,1-3.56-1.27,4.68,4.68,0,0,1-1.3-3.49v-4h-2.12a.39.39,0,0,1-.44-.43V61.22a.39.39,0,0,1,.44-.44h2.12V57.86a.39.39,0,0,1,.44-.44h2.58a.39.39,0,0,1,.44.44v2.92h3.61a.39.39,0,0,1,.44.44v1.92a.39.39,0,0,1-.44.43h-3.61v3.87a1.85,1.85,0,0,0,.51,1.38,1.91,1.91,0,0,0,1.4.51,7,7,0,0,0,1.72-.21.39.39,0,0,1,.51.35l.3,2a.47.47,0,0,1-.35.5,11,11,0,0,1-2.69.37"/><path class="cls-1" d="M236.3,58.18a2.18,2.18,0,0,1-2.92,0,1.75,1.75,0,0,1-.59-1.35,1.72,1.72,0,0,1,.59-1.35,2.24,2.24,0,0,1,2.92,0,1.75,1.75,0,0,1,.59,1.35,1.78,1.78,0,0,1-.59,1.35M233.55,72c-.3,0-.44-.14-.44-.43V61.22a.39.39,0,0,1,.44-.44h2.57a.39.39,0,0,1,.45.44v10.3c0,.29-.15.43-.45.43Z"/><path class="cls-1" d="M245.27,72.32a4.86,4.86,0,0,1-3.56-1.27,4.68,4.68,0,0,1-1.3-3.49v-4h-2.12a.39.39,0,0,1-.44-.43V61.22a.39.39,0,0,1,.44-.44h2.12V57.86a.39.39,0,0,1,.44-.44h2.58a.39.39,0,0,1,.44.44v2.92h3.61a.39.39,0,0,1,.44.44v1.92a.39.39,0,0,1-.44.43h-3.61v3.87a1.85,1.85,0,0,0,.51,1.38,1.91,1.91,0,0,0,1.4.51,7,7,0,0,0,1.72-.21c.29,0,.47.07.51.35l.3,2a.46.46,0,0,1-.34.5,11.09,11.09,0,0,1-2.7.37"/><path class="cls-1" d="M264,71.56a.42.42,0,0,1-.34.49,6.62,6.62,0,0,1-1.76.27A3.37,3.37,0,0,1,258.81,71a5.56,5.56,0,0,1-3.92,1.33,4.82,4.82,0,0,1-3.6-1.39,5.05,5.05,0,0,1-1.37-3.69v-6a.39.39,0,0,1,.44-.44h2.58a.38.38,0,0,1,.43.44v5.55a2.67,2.67,0,0,0,.66,1.89,2.28,2.28,0,0,0,1.76.72,2.47,2.47,0,0,0,1.84-.69,2.37,2.37,0,0,0,.7-1.8V61.22a.38.38,0,0,1,.43-.44h2.61a.39.39,0,0,1,.44.44v7.23c0,.6.25.9.76.9a3,3,0,0,0,.71-.07.4.4,0,0,1,.5.37Z"/><path class="cls-1" d="M271.82,72.32a4.88,4.88,0,0,1-3.56-1.27,4.72,4.72,0,0,1-1.3-3.49v-4h-2.12a.38.38,0,0,1-.43-.43V61.22a.38.38,0,0,1,.43-.44H267V57.86a.39.39,0,0,1,.44-.44H270a.39.39,0,0,1,.44.44v2.92H274a.39.39,0,0,1,.44.44v1.92a.39.39,0,0,1-.44.43h-3.61v3.87a1.85,1.85,0,0,0,.51,1.38,1.93,1.93,0,0,0,1.4.51,7.07,7.07,0,0,0,1.73-.21.39.39,0,0,1,.5.35l.3,2a.46.46,0,0,1-.35.5,10.83,10.83,0,0,1-2.69.37"/><path class="cls-1" d="M287,70.69a7.26,7.26,0,0,1-9.19,0,6.23,6.23,0,0,1,0-8.64,7.29,7.29,0,0,1,9.19,0,6.23,6.23,0,0,1,0,8.64m-6.79-2.06a3,3,0,0,0,2.19.83,3,3,0,0,0,2.21-.83,3.46,3.46,0,0,0,0-4.5,3,3,0,0,0-2.21-.86,2.9,2.9,0,0,0-2.19.86,3.43,3.43,0,0,0,0,4.5"/><path class="cls-1" d="M310.67,71.56c.05.27-.07.42-.34.49a6.46,6.46,0,0,1-1.77.27,3,3,0,0,1-2.9-1.45,5.32,5.32,0,0,1-3.83,1.45,6,6,0,0,1-4.36-1.65,6.29,6.29,0,0,1,0-8.6,6,6,0,0,1,4.36-1.65,5.29,5.29,0,0,1,3.2,1V55.35a.39.39,0,0,1,.44-.44h2.6a.38.38,0,0,1,.43.44V68.48c0,.58.26.87.77.87a2.71,2.71,0,0,0,.69-.07c.32,0,.49.1.51.37Zm-8.54-1.93a2.67,2.67,0,0,0,2.09-.91,3.4,3.4,0,0,0,.81-2.34,3.43,3.43,0,0,0-.81-2.36,2.64,2.64,0,0,0-2.09-.91A2.74,2.74,0,0,0,300,64a3.4,3.4,0,0,0-.83,2.36,3.36,3.36,0,0,0,.83,2.34,2.77,2.77,0,0,0,2.14.91"/><path class="cls-1" d="M318.27,72.33a6.46,6.46,0,0,1-4.58-1.64,5.65,5.65,0,0,1-1.75-4.31,5.77,5.77,0,0,1,1.69-4.33,6.12,6.12,0,0,1,4.44-1.63A5.91,5.91,0,0,1,322.45,62a5.74,5.74,0,0,1,1.63,4.26c0,.09,0,.22,0,.4s0,.3,0,.38a.42.42,0,0,1-.48.39H315.3a2.91,2.91,0,0,0,1.1,1.64,3.18,3.18,0,0,0,1.94.6,2.42,2.42,0,0,0,1.89-.69.89.89,0,0,1,.55-.23h2.58a.46.46,0,0,1,.36.12.32.32,0,0,1,0,.34,4.6,4.6,0,0,1-2.05,2.25,6.68,6.68,0,0,1-3.41.84m-3-6.92h5.5a2.45,2.45,0,0,0-.76-1.76,2.58,2.58,0,0,0-1.86-.68,2.87,2.87,0,0,0-1.92.68,2.7,2.7,0,0,0-1,1.76"/><path class="cls-1" d="M331.33,72a.38.38,0,0,1-.43-.43V69.33a.38.38,0,0,1,.43-.44h2.28v-10h-2.28c-.29,0-.43-.15-.43-.45V56.27a.38.38,0,0,1,.43-.44h8.18c.31,0,.46.15.46.44v2.18a.4.4,0,0,1-.46.45h-2.28v10h2.28c.31,0,.46.15.46.44v2.19c0,.29-.15.43-.46.43Z"/><path class="cls-1" d="M349.75,60.42a4.92,4.92,0,0,1,3.65,1.39,5,5,0,0,1,1.37,3.7v6a.38.38,0,0,1-.43.43h-2.58c-.31,0-.46-.14-.46-.43V66a2.65,2.65,0,0,0-.66-1.89,2.28,2.28,0,0,0-1.76-.72A2.54,2.54,0,0,0,347,64a2.42,2.42,0,0,0-.71,1.81v5.67a.38.38,0,0,1-.43.43h-2.58a.38.38,0,0,1-.44-.43V64.28a.8.8,0,0,0-.9-.9l-.51.08c-.33,0-.5-.12-.5-.37V61.2a.48.48,0,0,1,.34-.51,4.7,4.7,0,0,1,1.66-.27,2.88,2.88,0,0,1,2.77,1.45,5.41,5.41,0,0,1,4-1.45"/><path class="cls-1" d="M359.29,72a.38.38,0,0,1-.43-.43V63.57h-2.54a.38.38,0,0,1-.44-.43V61.22a.39.39,0,0,1,.44-.44h2.54V59.45a4.7,4.7,0,0,1,1.39-3.58A5.24,5.24,0,0,1,364,54.55a9,9,0,0,1,2.81.39.38.38,0,0,1,.32.48l-.29,1.91c-.05.32-.22.44-.51.37a7,7,0,0,0-1.78-.23,2.37,2.37,0,0,0-1.62.54,1.85,1.85,0,0,0-.61,1.44v1.33h3.85a.38.38,0,0,1,.43.44v1.92a.38.38,0,0,1-.43.43h-3.85v7.95a.38.38,0,0,1-.44.43Z"/><path class="cls-1" d="M378.23,70.69a7.26,7.26,0,0,1-9.19,0,6.26,6.26,0,0,1,0-8.64,7.29,7.29,0,0,1,9.19,0,6.23,6.23,0,0,1,0,8.64m-6.79-2.06a3.32,3.32,0,0,0,4.39,0,3.4,3.4,0,0,0,0-4.5,3.23,3.23,0,0,0-4.39,0,3.43,3.43,0,0,0,0,4.5"/><path class="cls-1" d="M391.35,60.63a.4.4,0,0,1,.34.5l-.3,2.21c0,.28-.21.39-.5.35a6.23,6.23,0,0,0-1.27-.12,3.06,3.06,0,0,0-2.19.81,2.83,2.83,0,0,0-.85,2.18v5c0,.29-.14.43-.44.43h-2.57c-.3,0-.45-.14-.45-.43V64.28a.79.79,0,0,0-.89-.89l-.51.06q-.51,0-.51-.36V61.2a.49.49,0,0,1,.35-.51,5.2,5.2,0,0,1,1.66-.27A2.77,2.77,0,0,1,386,62a4.84,4.84,0,0,1,3.75-1.56,5.06,5.06,0,0,1,1.59.21"/><path class="cls-1" d="M409,60.42a4.84,4.84,0,0,1,3.62,1.39,5.06,5.06,0,0,1,1.37,3.7v6c0,.29-.15.43-.46.43H410.9a.38.38,0,0,1-.43-.43V66a2.69,2.69,0,0,0-.65-1.89,2.21,2.21,0,0,0-1.73-.72,1.9,1.9,0,0,0-1.52.68,2.74,2.74,0,0,0-.57,1.81v5.67a.38.38,0,0,1-.44.43H403a.38.38,0,0,1-.43-.43V66a2.82,2.82,0,0,0-.6-1.89,2,2,0,0,0-1.59-.72,2.2,2.2,0,0,0-1.69.68,2.54,2.54,0,0,0-.64,1.81v5.67a.38.38,0,0,1-.43.43H395a.38.38,0,0,1-.44-.43V64.28a.8.8,0,0,0-.9-.9l-.5.08c-.34,0-.51-.12-.51-.37V61.2a.48.48,0,0,1,.34-.51,4.7,4.7,0,0,1,1.66-.27,2.78,2.78,0,0,1,2.72,1.4,5.27,5.27,0,0,1,3.91-1.4,4.4,4.4,0,0,1,3.64,1.63,5.07,5.07,0,0,1,4-1.63"/><path class="cls-1" d="M430.78,71.56a.42.42,0,0,1-.37.49,6.3,6.3,0,0,1-1.73.27,3,3,0,0,1-2.9-1.4,5.74,5.74,0,0,1-3.87,1.4,6,6,0,0,1-4.36-1.65,6.29,6.29,0,0,1,0-8.6,6,6,0,0,1,4.36-1.65,5.13,5.13,0,0,1,3.27,1.06v-.26a.39.39,0,0,1,.44-.44h2.53a.39.39,0,0,1,.44.44v7.23c0,.6.25.9.76.9a2.94,2.94,0,0,0,.71-.07c.31,0,.47.1.48.37Zm-8.57-1.93a2.67,2.67,0,0,0,2.09-.91,3.4,3.4,0,0,0,.81-2.34A3.43,3.43,0,0,0,424.3,64a2.64,2.64,0,0,0-2.09-.91,2.74,2.74,0,0,0-2.14.91,3.4,3.4,0,0,0-.83,2.36,3.36,3.36,0,0,0,.83,2.34,2.77,2.77,0,0,0,2.14.91"/><path class="cls-1" d="M438.31,72.32a6.44,6.44,0,0,1-4.6-1.63,6.26,6.26,0,0,1,0-8.64,7.26,7.26,0,0,1,8.46-.51,4.68,4.68,0,0,1,1.94,3c.05.31-.08.46-.39.46h-2.47a.5.5,0,0,1-.47-.36,2.12,2.12,0,0,0-.92-1.07,2.89,2.89,0,0,0-1.55-.41,2.85,2.85,0,0,0-2.19.88,3.21,3.21,0,0,0-.83,2.3,3.17,3.17,0,0,0,.83,2.29,2.88,2.88,0,0,0,2.19.87,3,3,0,0,0,1.57-.4,2,2,0,0,0,.9-1.08.55.55,0,0,1,.47-.37h2.47c.31,0,.44.16.39.46a4.66,4.66,0,0,1-1.94,3,6.44,6.44,0,0,1-3.86,1.13"/><path class="cls-1" d="M449.42,58.18a2,2,0,0,1-1.46.56,2,2,0,0,1-1.46-.56,1.76,1.76,0,0,1-.6-1.35,1.73,1.73,0,0,1,.6-1.35,2,2,0,0,1,1.46-.54,2,2,0,0,1,1.46.54,1.75,1.75,0,0,1,.59,1.35,1.78,1.78,0,0,1-.59,1.35M446.67,72c-.3,0-.44-.14-.44-.43V61.22a.39.39,0,0,1,.44-.44h2.58a.38.38,0,0,1,.43.44v10.3a.38.38,0,0,1-.43.43Z"/><path class="cls-1" d="M462.69,70.69a6.47,6.47,0,0,1-4.6,1.64,6.4,6.4,0,0,1-4.59-1.64,6.21,6.21,0,0,1,0-8.64,6.39,6.39,0,0,1,4.59-1.63,6.47,6.47,0,0,1,4.6,1.63,6.26,6.26,0,0,1,0,8.64m-6.8-2.06a3.3,3.3,0,0,0,4.4,0,3.43,3.43,0,0,0,0-4.5,3.24,3.24,0,0,0-4.4,0,3.43,3.43,0,0,0,0,4.5m1.05-9.69a.36.36,0,0,1-.33-.15.3.3,0,0,1,0-.35l1.52-2.84a.53.53,0,0,1,.5-.32h2.72a.35.35,0,0,1,.33.14c.05.09,0,.22-.08.39l-2,2.88a.6.6,0,0,1-.53.25Z"/><path class="cls-1" d="M474.46,60.42a4.88,4.88,0,0,1,3.64,1.39,5,5,0,0,1,1.38,3.7v6c0,.29-.14.43-.44.43h-2.57c-.31,0-.46-.14-.46-.43V66a2.65,2.65,0,0,0-.66-1.89,2.28,2.28,0,0,0-1.76-.72,2.54,2.54,0,0,0-1.85.68,2.42,2.42,0,0,0-.71,1.81v5.67a.38.38,0,0,1-.43.43H468c-.3,0-.44-.14-.44-.43V64.28a.8.8,0,0,0-.9-.9l-.51.08c-.33,0-.5-.12-.5-.37V61.2a.48.48,0,0,1,.34-.51,4.7,4.7,0,0,1,1.66-.27,2.85,2.85,0,0,1,2.76,1.45,5.44,5.44,0,0,1,4-1.45"/><path class="cls-1" d="M196.7,85.49c0,.28-.15.42-.44.42H188v3.66h7.21c.29,0,.44.14.44.41V92.1a.39.39,0,0,1-.44.44H188V96h8.29c.29,0,.44.14.44.42V98.6a.39.39,0,0,1-.44.44H184.82c-.32,0-.46-.15-.46-.44V83.35c0-.29.14-.44.46-.44h11.44a.39.39,0,0,1,.44.44Z"/><path class="cls-1" d="M203.74,99.41a7.35,7.35,0,0,1-3.93-1A3.64,3.64,0,0,1,198,95.79c0-.31.09-.46.43-.46l2.26,0a.61.61,0,0,1,.51.32c.32.83,1.15,1.25,2.5,1.25a3,3,0,0,0,1.38-.28.82.82,0,0,0,.52-.74c0-.4-.25-.69-.74-.86a8.51,8.51,0,0,0-1.8-.39,19.65,19.65,0,0,1-2.12-.38,3.63,3.63,0,0,1-1.79-1,3,3,0,0,1-.74-2.12,3.06,3.06,0,0,1,1.4-2.63,6.33,6.33,0,0,1,3.71-1,6.72,6.72,0,0,1,3.63.91,3.37,3.37,0,0,1,1.69,2.4c.05.31-.09.47-.41.47h-2.28a.51.51,0,0,1-.46-.28,1.67,1.67,0,0,0-.8-.82,2.74,2.74,0,0,0-1.32-.31,2.91,2.91,0,0,0-1.31.26.82.82,0,0,0-.49.71,1,1,0,0,0,.75.92,7.93,7.93,0,0,0,1.82.45c.71.1,1.43.23,2.13.4a3.65,3.65,0,0,1,1.81,1,2.94,2.94,0,0,1,.75,2.1,3.11,3.11,0,0,1-1.43,2.68,6.74,6.74,0,0,1-3.9,1"/><path class="cls-1" d="M217.24,99.41a4.84,4.84,0,0,1-3.55-1.28,4.68,4.68,0,0,1-1.31-3.49v-4h-2.12a.38.38,0,0,1-.43-.43V88.3a.38.38,0,0,1,.43-.43h2.12V84.94a.39.39,0,0,1,.44-.44h2.58a.39.39,0,0,1,.44.44v2.93h3.61c.3,0,.44.14.44.43v1.92c0,.29-.14.43-.44.43h-3.61v3.87a1.83,1.83,0,0,0,.51,1.38,1.89,1.89,0,0,0,1.4.51,6.93,6.93,0,0,0,1.72-.21c.3,0,.47.07.52.35l.29,2a.48.48,0,0,1-.34.51,11.47,11.47,0,0,1-2.7.37"/><path class="cls-1" d="M236.43,98.64a.41.41,0,0,1-.38.49,6.18,6.18,0,0,1-1.72.27,3,3,0,0,1-2.9-1.4,5.67,5.67,0,0,1-3.87,1.4,6,6,0,0,1-4.36-1.65,6.28,6.28,0,0,1,0-8.59,6,6,0,0,1,4.36-1.66,5.11,5.11,0,0,1,3.27,1.06V88.3c0-.29.14-.43.44-.43h2.53a.38.38,0,0,1,.44.43v7.24c0,.59.25.9.76.9a3,3,0,0,0,.72-.08c.3,0,.46.1.48.38Zm-8.57-1.93a2.67,2.67,0,0,0,2.1-.91,3.44,3.44,0,0,0,.8-2.34,3.48,3.48,0,0,0-.8-2.36,2.7,2.7,0,0,0-2.1-.91,2.77,2.77,0,0,0-2.14.91,3.4,3.4,0,0,0-.83,2.36,3.36,3.36,0,0,0,.83,2.34,2.74,2.74,0,0,0,2.14.91"/><path class="cls-1" d="M252.52,98.64a.38.38,0,0,1-.34.49,6.46,6.46,0,0,1-1.77.27,3,3,0,0,1-2.9-1.45,5.32,5.32,0,0,1-3.83,1.45,6,6,0,0,1-4.36-1.65,6.28,6.28,0,0,1,0-8.59,6,6,0,0,1,4.36-1.66,5.27,5.27,0,0,1,3.2,1V82.43a.39.39,0,0,1,.44-.44h2.6a.39.39,0,0,1,.44.44V95.56c0,.58.26.88.76.88a2.61,2.61,0,0,0,.69-.08c.32,0,.49.1.5.38ZM244,96.71a2.67,2.67,0,0,0,2.1-.91,3.44,3.44,0,0,0,.8-2.34,3.48,3.48,0,0,0-.8-2.36,2.7,2.7,0,0,0-2.1-.91,2.77,2.77,0,0,0-2.14.91,3.4,3.4,0,0,0-.83,2.36,3.36,3.36,0,0,0,.83,2.34,2.74,2.74,0,0,0,2.14.91"/><path class="cls-1" d="M257.34,87.87a.38.38,0,0,1,.43.43V98.6a.38.38,0,0,1-.43.44h-2.58a.39.39,0,0,1-.44-.44V88.3a.38.38,0,0,1,.44-.43ZM254.9,86a.37.37,0,0,1-.34-.16.32.32,0,0,1,0-.35l1.52-2.84a.55.55,0,0,1,.51-.32h2.72a.35.35,0,0,1,.33.14c.06.09,0,.22-.08.39l-2,2.88a.61.61,0,0,1-.53.26Z"/><path class="cls-1" d="M265.35,99.41a7.37,7.37,0,0,1-3.94-1,3.67,3.67,0,0,1-1.77-2.66c-.05-.31.1-.46.44-.46l2.25,0a.59.59,0,0,1,.51.32c.33.83,1.16,1.25,2.51,1.25a2.94,2.94,0,0,0,1.37-.28.81.81,0,0,0,.52-.74c0-.4-.25-.69-.74-.86a8.41,8.41,0,0,0-1.79-.39,19.22,19.22,0,0,1-2.12-.38,3.62,3.62,0,0,1-1.8-1,3,3,0,0,1-.74-2.12,3.07,3.07,0,0,1,1.41-2.63,6.29,6.29,0,0,1,3.71-1,6.74,6.74,0,0,1,3.63.91,3.4,3.4,0,0,1,1.69,2.4c0,.31-.09.47-.42.47h-2.28a.49.49,0,0,1-.45-.28,1.67,1.67,0,0,0-.8-.82,2.78,2.78,0,0,0-1.33-.31,2.83,2.83,0,0,0-1.3.26.8.8,0,0,0-.49.71,1,1,0,0,0,.75.92,7.67,7.67,0,0,0,1.82.45c.71.1,1.42.23,2.13.4a3.66,3.66,0,0,1,1.8,1,2.94,2.94,0,0,1,.75,2.1,3.09,3.09,0,0,1-1.43,2.68,6.73,6.73,0,0,1-3.89,1"/><path class="cls-1" d="M278.85,99.41a4.87,4.87,0,0,1-3.56-1.28,4.68,4.68,0,0,1-1.3-3.49v-4h-2.12a.38.38,0,0,1-.44-.43V88.3a.38.38,0,0,1,.44-.43H274V84.94a.39.39,0,0,1,.43-.44H277a.4.4,0,0,1,.44.44v2.93h3.61a.38.38,0,0,1,.43.43v1.92a.38.38,0,0,1-.43.43h-3.61v3.87A1.83,1.83,0,0,0,278,95.9a1.87,1.87,0,0,0,1.4.51,7,7,0,0,0,1.72-.21.39.39,0,0,1,.51.35l.3,2a.48.48,0,0,1-.35.51,11.46,11.46,0,0,1-2.69.37"/><path class="cls-1" d="M286.9,85.26a2.08,2.08,0,0,1-1.46.56,2.06,2.06,0,0,1-1.47-.56,1.84,1.84,0,0,1,0-2.7,2.08,2.08,0,0,1,1.47-.54,2.11,2.11,0,0,1,1.46.54,1.84,1.84,0,0,1,0,2.7M284.14,99a.39.39,0,0,1-.43-.44V88.3a.38.38,0,0,1,.43-.43h2.58c.3,0,.44.14.44.43V98.6a.39.39,0,0,1-.44.44Z"/><path class="cls-1" d="M295.57,99.41a6.44,6.44,0,0,1-4.6-1.64,6.26,6.26,0,0,1,0-8.64,7.25,7.25,0,0,1,8.47-.5,4.68,4.68,0,0,1,1.93,3c0,.3-.08.46-.39.46h-2.46a.52.52,0,0,1-.49-.37,2.1,2.1,0,0,0-.91-1.07,2.86,2.86,0,0,0-1.55-.4,2.89,2.89,0,0,0-2.19.87,3.6,3.6,0,0,0,0,4.6,2.92,2.92,0,0,0,2.19.86,3,3,0,0,0,1.56-.39,1.92,1.92,0,0,0,.9-1.09.58.58,0,0,1,.49-.37H301c.31,0,.43.16.39.46a4.73,4.73,0,0,1-1.93,3,6.49,6.49,0,0,1-3.87,1.13"/><path class="cls-1" d="M317.86,98.64a.41.41,0,0,1-.37.49,6.3,6.3,0,0,1-1.73.27,3,3,0,0,1-2.9-1.4A5.65,5.65,0,0,1,309,99.4a6,6,0,0,1-4.36-1.65,6.28,6.28,0,0,1,0-8.59A6,6,0,0,1,309,87.5a5.16,5.16,0,0,1,3.28,1.06V88.3c0-.29.14-.43.44-.43h2.52c.3,0,.44.14.44.43v7.24c0,.59.26.9.76.9a2.84,2.84,0,0,0,.71-.08c.31,0,.47.1.49.38Zm-8.57-1.93a2.67,2.67,0,0,0,2.1-.91,3.4,3.4,0,0,0,.81-2.34,3.43,3.43,0,0,0-.81-2.36,2.7,2.7,0,0,0-2.1-.91,2.79,2.79,0,0,0-2.14.91,3.39,3.39,0,0,0-.82,2.36,3.36,3.36,0,0,0,.82,2.34,2.75,2.75,0,0,0,2.14.91"/><path class="cls-1" d="M338,87.87c.18,0,.28,0,.34.14a.41.41,0,0,1,0,.36l-5.74,12.76q-1.65,3.65-5.13,3.64a9.08,9.08,0,0,1-2.72-.37.39.39,0,0,1-.35-.48l.3-2c.08-.31.25-.43.51-.37a8.08,8.08,0,0,0,1.75.21,2.4,2.4,0,0,0,2.39-1.5l.49-1-5.46-10.87a.33.33,0,0,1,0-.36.4.4,0,0,1,.36-.14h2.74a.57.57,0,0,1,.51.32l3.56,7.18,3.23-7.18a.5.5,0,0,1,.51-.32Z"/><path class="cls-1" d="M354.07,99.38a8.67,8.67,0,0,1-6.3-2.32,9,9,0,0,1,0-12.2,8.7,8.7,0,0,1,6.31-2.31A9.28,9.28,0,0,1,359.32,84a7,7,0,0,1,3,4c.09.32,0,.48-.37.48H359a.49.49,0,0,1-.5-.35,3.9,3.9,0,0,0-1.68-1.76,5.53,5.53,0,0,0-2.7-.65,4.91,4.91,0,0,0-3.68,1.44A5.17,5.17,0,0,0,349,91a5.26,5.26,0,0,0,1.41,3.82,4.91,4.91,0,0,0,3.66,1.43,4.68,4.68,0,0,0,2.75-.84,4.14,4.14,0,0,0,1.65-2.2h-4.12a.38.38,0,0,1-.44-.43v-2a.39.39,0,0,1,.44-.44h7.76c.28,0,.41.15.41.44a8.58,8.58,0,0,1-2.29,6.29,8.3,8.3,0,0,1-6.2,2.32"/><path class="cls-1" d="M370.94,99.41a6.44,6.44,0,0,1-4.58-1.64,5.62,5.62,0,0,1-1.75-4.31,5.8,5.8,0,0,1,1.69-4.33,6.12,6.12,0,0,1,4.44-1.63,6,6,0,0,1,4.39,1.61,5.73,5.73,0,0,1,1.62,4.26c0,.09,0,.23,0,.4s0,.31,0,.38a.44.44,0,0,1-.49.39H368a2.91,2.91,0,0,0,1.1,1.64,3.18,3.18,0,0,0,1.94.6,2.4,2.4,0,0,0,1.89-.69.91.91,0,0,1,.55-.23H376a.43.43,0,0,1,.36.13.28.28,0,0,1,0,.33,4.66,4.66,0,0,1-2,2.26,6.78,6.78,0,0,1-3.41.83m-3-6.91h5.5a2.51,2.51,0,0,0-.75-1.77,2.63,2.63,0,0,0-1.88-.68,2.91,2.91,0,0,0-1.92.68A2.8,2.8,0,0,0,368,92.5"/><path class="cls-1" d="M389.26,97.77a7.26,7.26,0,0,1-9.19,0,6.23,6.23,0,0,1,0-8.64,7.29,7.29,0,0,1,9.19,0,6.23,6.23,0,0,1,0,8.64m-6.79-2.06a3.3,3.3,0,0,0,4.4,0,3.43,3.43,0,0,0,0-4.5,3.24,3.24,0,0,0-4.4,0,3.43,3.43,0,0,0,0,4.5"/><path class="cls-1" d="M405,87.87a.38.38,0,0,1,.43.43v11a5,5,0,0,1-1.7,3.94,6.44,6.44,0,0,1-4.46,1.51,7.13,7.13,0,0,1-4.16-1.15,4.62,4.62,0,0,1-2-3.07c-.08-.29.06-.43.42-.43h2.58a.55.55,0,0,1,.5.34,2,2,0,0,0,.95,1.1,3.41,3.41,0,0,0,1.71.4,2.73,2.73,0,0,0,2-.71,2.57,2.57,0,0,0,.74-1.92v-1a5.15,5.15,0,0,1-3.2,1,6,6,0,0,1-4.35-1.67,6.19,6.19,0,0,1,0-8.54,6,6,0,0,1,4.35-1.65A5.13,5.13,0,0,1,402,88.56V88.3a.38.38,0,0,1,.44-.43ZM399,96.64a2.67,2.67,0,0,0,2.09-.9,3.72,3.72,0,0,0,0-4.65,2.68,2.68,0,0,0-2.08-.9,2.76,2.76,0,0,0-2.13.91,3.66,3.66,0,0,0,0,4.64,2.8,2.8,0,0,0,2.15.9"/><path class="cls-1" d="M417.31,87.71a.41.41,0,0,1,.34.5l-.3,2.21c0,.28-.21.4-.51.35a6.13,6.13,0,0,0-1.26-.12,3,3,0,0,0-2.19.81,2.85,2.85,0,0,0-.85,2.18v5a.39.39,0,0,1-.44.44h-2.58a.39.39,0,0,1-.44-.44V91.37a.8.8,0,0,0-.9-.9,4,4,0,0,0-.5.07c-.34,0-.51-.12-.51-.37V88.28a.48.48,0,0,1,.35-.51,5.11,5.11,0,0,1,1.66-.27A2.76,2.76,0,0,1,412,89.06a4.84,4.84,0,0,1,3.76-1.56,5.1,5.1,0,0,1,1.59.21"/><path class="cls-1" d="M433.43,98.64a.41.41,0,0,1-.37.49,6.46,6.46,0,0,1-1.73.28,3,3,0,0,1-2.9-1.41,5.68,5.68,0,0,1-3.87,1.41,6,6,0,0,1-4.37-1.66,6.3,6.3,0,0,1,0-8.59,6,6,0,0,1,4.37-1.66,5.15,5.15,0,0,1,3.27,1.06V88.3a.38.38,0,0,1,.44-.43h2.53a.38.38,0,0,1,.43.43v7.24c0,.59.26.9.77.9a3,3,0,0,0,.71-.08c.31,0,.47.1.49.37Zm-8.57-1.93A2.64,2.64,0,0,0,427,95.8a3.4,3.4,0,0,0,.81-2.34A3.43,3.43,0,0,0,427,91.1a2.67,2.67,0,0,0-2.09-.91,2.77,2.77,0,0,0-2.14.91,3.35,3.35,0,0,0-.83,2.36,3.32,3.32,0,0,0,.83,2.34,2.74,2.74,0,0,0,2.14.91m-1-10.68a.36.36,0,0,1-.33-.16.3.3,0,0,1,0-.35l1.52-2.84a.53.53,0,0,1,.5-.32h2.73a.37.37,0,0,1,.33.14c.05.09,0,.22-.08.39l-2,2.88a.63.63,0,0,1-.53.26Z"/><path class="cls-1" d="M437.23,99a.39.39,0,0,1-.44-.44V90.65h-2.54a.38.38,0,0,1-.43-.43V88.3a.39.39,0,0,1,.43-.43h2.54V86.53A4.7,4.7,0,0,1,438.18,83,5.27,5.27,0,0,1,442,81.63a9.27,9.27,0,0,1,2.69.36.4.4,0,0,1,.32.49l-.3,1.91a.38.38,0,0,1-.53.37,5.93,5.93,0,0,0-1.64-.21,2.37,2.37,0,0,0-1.62.54,1.84,1.84,0,0,0-.6,1.44v1.34h8.61a.39.39,0,0,1,.44.43V98.6a.39.39,0,0,1-.44.44h-2.6a.39.39,0,0,1-.44-.44V90.65h-5.57V98.6a.39.39,0,0,1-.44.44Zm10.36-13.22a2.1,2.1,0,0,1-1.48-.56,1.84,1.84,0,0,1,0-2.7,2.13,2.13,0,0,1,1.48-.54,2.09,2.09,0,0,1,1.45.54,1.82,1.82,0,0,1,0,2.7,2.06,2.06,0,0,1-1.45.56"/><path class="cls-1" d="M457.7,99.41a6.47,6.47,0,0,1-4.6-1.64,6.26,6.26,0,0,1,0-8.64,7.25,7.25,0,0,1,8.47-.5,4.68,4.68,0,0,1,1.93,3c.05.3-.08.46-.39.46h-2.46a.5.5,0,0,1-.48-.37,2.2,2.2,0,0,0-.91-1.07,3,3,0,0,0-1.56-.4,2.88,2.88,0,0,0-2.19.87,3.6,3.6,0,0,0,0,4.6,2.91,2.91,0,0,0,2.19.86,3.07,3.07,0,0,0,1.57-.39,2,2,0,0,0,.9-1.09.55.55,0,0,1,.48-.37h2.46c.31,0,.44.16.39.46a4.73,4.73,0,0,1-1.93,3,6.49,6.49,0,0,1-3.87,1.13"/><path class="cls-1" d="M480,98.64a.42.42,0,0,1-.38.49,6.25,6.25,0,0,1-1.73.27A3,3,0,0,1,475,98a5.65,5.65,0,0,1-3.87,1.4,6,6,0,0,1-4.36-1.65,6.3,6.3,0,0,1,0-8.59,6,6,0,0,1,4.36-1.66,5.11,5.11,0,0,1,3.27,1.06V88.3a.39.39,0,0,1,.45-.43h2.53a.38.38,0,0,1,.43.43v7.24c0,.59.26.9.77.9a3,3,0,0,0,.71-.08c.31,0,.47.1.48.38Zm-8.57-1.93a2.64,2.64,0,0,0,2.09-.91,3.39,3.39,0,0,0,.8-2.34,3.43,3.43,0,0,0-.8-2.36,2.67,2.67,0,0,0-2.09-.91,2.81,2.81,0,0,0-2.15.91,3.39,3.39,0,0,0-.82,2.36,3.36,3.36,0,0,0,.82,2.34,2.77,2.77,0,0,0,2.15.91"/><path class="cls-1" d="M198.63,125.73a.38.38,0,0,1-.34.48,6.46,6.46,0,0,1-1.77.27,3,3,0,0,1-2.9-1.44,5.32,5.32,0,0,1-3.83,1.44,5.94,5.94,0,0,1-4.36-1.65,6.28,6.28,0,0,1,0-8.59,6,6,0,0,1,4.36-1.66,5.29,5.29,0,0,1,3.2,1v-6.06a.39.39,0,0,1,.44-.44H196a.39.39,0,0,1,.44.44v13.13c0,.59.25.88.76.88a3.19,3.19,0,0,0,.69-.07c.32,0,.49.09.5.37Zm-8.54-1.94a2.67,2.67,0,0,0,2.1-.91,3.84,3.84,0,0,0,0-4.69,2.68,2.68,0,0,0-2.1-.92,2.78,2.78,0,0,0-2.15.92,3.76,3.76,0,0,0,0,4.69,2.77,2.77,0,0,0,2.15.91"/><path class="cls-1" d="M206.23,126.49a6.46,6.46,0,0,1-4.58-1.64,5.59,5.59,0,0,1-1.75-4.3,5.72,5.72,0,0,1,1.69-4.33,6.09,6.09,0,0,1,4.44-1.64,5.94,5.94,0,0,1,4.38,1.61,5.77,5.77,0,0,1,1.63,4.26c0,.1,0,.23,0,.4s0,.31,0,.39a.43.43,0,0,1-.48.39h-8.27a2.88,2.88,0,0,0,1.1,1.63,3.18,3.18,0,0,0,1.94.6,2.4,2.4,0,0,0,1.89-.69,1,1,0,0,1,.56-.23h2.57a.43.43,0,0,1,.36.13.28.28,0,0,1,0,.33,4.56,4.56,0,0,1-2.05,2.25,6.68,6.68,0,0,1-3.41.84m-3-6.91h5.51a2.5,2.5,0,0,0-.77-1.76,2.55,2.55,0,0,0-1.86-.68,2.85,2.85,0,0,0-1.93.68,2.73,2.73,0,0,0-.95,1.76"/><path class="cls-1" d="M225,126.49a6.74,6.74,0,0,1-4.39-1.4,5.46,5.46,0,0,1-2-3.81c-.05-.3.1-.46.44-.46h2.72a.41.41,0,0,1,.44.39,2.41,2.41,0,0,0,1,1.58,3.27,3.27,0,0,0,2,.59,2.7,2.7,0,0,0,2.11-.9,3.5,3.5,0,0,0,.79-2.37v-7h-6.75a.39.39,0,0,1-.44-.44v-2.19a.39.39,0,0,1,.44-.43h10a.39.39,0,0,1,.44.43v9.63a6.23,6.23,0,0,1-1.76,4.75,7,7,0,0,1-5,1.68"/><path class="cls-1" d="M248.66,125.73a.41.41,0,0,1-.37.48,6.36,6.36,0,0,1-1.73.27,3,3,0,0,1-2.9-1.4,5.69,5.69,0,0,1-3.87,1.4,5.93,5.93,0,0,1-4.36-1.65,6.28,6.28,0,0,1,0-8.59,5.93,5.93,0,0,1,4.36-1.66,5.16,5.16,0,0,1,3.26,1.06v-.25c0-.3.15-.44.45-.44H246a.39.39,0,0,1,.44.44v7.23c0,.6.25.9.76.9a3.82,3.82,0,0,0,.72-.07c.3,0,.46.09.48.37Zm-8.57-1.94a2.64,2.64,0,0,0,2.09-.91,3.8,3.8,0,0,0,0-4.69,2.64,2.64,0,0,0-2.09-.92,2.78,2.78,0,0,0-2.15.92,3.76,3.76,0,0,0,0,4.69,2.77,2.77,0,0,0,2.15.91"/><path class="cls-1" d="M254,126.49a4.1,4.1,0,0,1-2.58-.74,2.41,2.41,0,0,1-1-2V109.51a.39.39,0,0,1,.44-.44h2.58a.39.39,0,0,1,.44.44v13.13c0,.59.26.88.78.88a2.87,2.87,0,0,0,.69-.07c.31,0,.47.09.49.36l.22,1.92a.4.4,0,0,1-.37.48,6.24,6.24,0,0,1-1.74.28"/><path class="cls-1" d="M261.08,112.35a2.21,2.21,0,0,1-2.92,0,1.77,1.77,0,0,1-.59-1.36,1.73,1.73,0,0,1,.59-1.35,2.24,2.24,0,0,1,2.92,0,1.77,1.77,0,0,1,.59,1.35,1.8,1.8,0,0,1-.59,1.36m-2.75,13.77a.39.39,0,0,1-.44-.44V115.39a.39.39,0,0,1,.44-.44h2.58c.29,0,.43.14.43.44v10.29a.38.38,0,0,1-.43.44Z"/><path class="cls-1" d="M268.92,126.49a7.28,7.28,0,0,1-3.94-1,3.65,3.65,0,0,1-1.77-2.66c0-.31.1-.46.44-.46l2.25,0a.59.59,0,0,1,.51.33c.32.82,1.16,1.24,2.51,1.24a2.82,2.82,0,0,0,1.37-.28.81.81,0,0,0,.52-.73c0-.4-.25-.69-.74-.87a8.41,8.41,0,0,0-1.79-.39,19.65,19.65,0,0,1-2.12-.38,3.55,3.55,0,0,1-1.8-1,3,3,0,0,1-.74-2.12,3.07,3.07,0,0,1,1.41-2.63,6.31,6.31,0,0,1,3.71-1,6.77,6.77,0,0,1,3.62.91,3.4,3.4,0,0,1,1.7,2.41c0,.3-.09.46-.42.46h-2.28a.52.52,0,0,1-.46-.28,1.69,1.69,0,0,0-.79-.82,2.78,2.78,0,0,0-1.33-.31,2.7,2.7,0,0,0-1.3.27.79.79,0,0,0-.49.7c0,.42.24.72.75.92a7.71,7.71,0,0,0,1.81.45c.72.1,1.43.24,2.13.4a3.64,3.64,0,0,1,1.81,1,2.9,2.9,0,0,1,.75,2.1,3.07,3.07,0,0,1-1.43,2.67,6.73,6.73,0,0,1-3.89,1"/><path class="cls-1" d="M282.12,126.49a6.4,6.4,0,0,1-4.59-1.64,6.22,6.22,0,0,1,0-8.63,7.2,7.2,0,0,1,8.45-.51,4.68,4.68,0,0,1,1.94,3c.05.31-.08.46-.39.46h-2.46a.52.52,0,0,1-.49-.37,2.09,2.09,0,0,0-.91-1.07,2.89,2.89,0,0,0-1.55-.4,2.85,2.85,0,0,0-2.19.88,3.59,3.59,0,0,0,0,4.59,2.91,2.91,0,0,0,2.19.86,3,3,0,0,0,1.56-.39,1.9,1.9,0,0,0,.9-1.08.55.55,0,0,1,.49-.37h2.46c.31,0,.44.15.39.46a4.68,4.68,0,0,1-1.94,3,6.41,6.41,0,0,1-3.86,1.13"/><path class="cls-1" d="M300.42,124.85a7.27,7.27,0,0,1-9.2,0,6.25,6.25,0,0,1,0-8.63,7.27,7.27,0,0,1,9.2,0,6.25,6.25,0,0,1,0,8.63m-6.8-2.06a3.3,3.3,0,0,0,4.4,0,3,3,0,0,0,.84-2.24,3.08,3.08,0,0,0-.84-2.26,3.27,3.27,0,0,0-4.4,0,3.08,3.08,0,0,0-.84,2.26,3,3,0,0,0,.84,2.24"/><path class="cls-1" d="M103.09,28.88v94l-7.86.06V54.75l-8.28,0L97.2,35.07l.1-.24a26,26,0,0,0-2.79-23.58A25.16,25.16,0,0,0,74.08,0H72.7A25.18,25.18,0,0,0,52.27,11.25a26,26,0,0,0-2.79,23.58l.1.24L59.76,54.6l-8.21-.05v68.28H43.41V80H0v51.56H9.14V89.14H34.27V132l26.42,0V63.74l3.85,0,8.84,16.95,8.81-16.88,3.9,0v68.3l26.13-.21V38h25.14v93.55h9.14V28.88ZM77.31,54.67l-3.93,7.52-3.93-7.55-12-23a17.11,17.11,0,0,1,2-15.55A16.66,16.66,0,0,1,72.92,8.57h.94A16.68,16.68,0,0,1,87.4,16a17.11,17.11,0,0,1,1.95,15.55Z"/><path class="cls-1" d="M73.25,37.72A12.85,12.85,0,1,1,86.1,24.88,12.86,12.86,0,0,1,73.25,37.72m0-17.13a4.29,4.29,0,1,0,4.28,4.29,4.3,4.3,0,0,0-4.28-4.29"/></g></g></svg>