<svg xmlns="http://www.w3.org/2000/svg" viewBox="0 0 85.78 85.78"><defs><style>.cls-1{fill:none;stroke:#f08077;stroke-linecap:round;stroke-linejoin:round;stroke-width:3px;}</style></defs><g id="Capa_2" data-name="Capa 2"><g id="Capa_1-2" data-name="Capa 1"><path class="cls-1" d="M46.55,71.6a10.17,10.17,0,0,1-7.27-2.68,8.84,8.84,0,0,1-2.84-6.69,10.4,10.4,0,0,1,4-8.16,13.82,13.82,0,0,1,9.26-3.42,9.9,9.9,0,0,1,7.06,2.69,8.7,8.7,0,0,1,2.84,6.58,10.59,10.59,0,0,1-4,8.21A13.35,13.35,0,0,1,46.55,71.6Z"/><path class="cls-1" d="M67.39,9.52l-.63,4.28-6,27.9a3.07,3.07,0,0,1-3.37,2.74H44c-1.83,0-2.67-.91-2.53-2.74l2.42-27.9,1.8-12.21q-1.4-.09-2.82-.09a41.38,41.38,0,1,0,24.49,8"/><path class="cls-1" d="M33.07,23.08a64.28,64.28,0,0,0-11.14,3,62,62,0,0,0,6.18,9.71,62.16,62.16,0,0,0-10.36,5,62.83,62.83,0,0,0,7.9,8.34A62.21,62.21,0,0,0,16.42,56a63.45,63.45,0,0,0,9.35,6.75"/></g></g></svg>