<svg xmlns="http://www.w3.org/2000/svg" viewBox="0 0 651.03 119.1"><defs><style>.cls-1{fill:#f08077;}.cls-2{fill:#262840;}.cls-3{fill:#91b0d9;}</style></defs><g id="Capa_2" data-name="Capa 2"><g id="Capa_1-2" data-name="Capa 1"><circle class="cls-1" cx="77.05" cy="59.55" r="57.34"/><path class="cls-2" d="M77.05,119.1A59.74,59.74,0,0,1,28.69,94.31a2.21,2.21,0,0,1,3.59-2.58,55.15,55.15,0,0,0,94.3-7.94,2.21,2.21,0,0,1,4,1.95,59.54,59.54,0,0,1-53.5,33.36Z"/><path class="cls-2" d="M123.48,28.1a2.21,2.21,0,0,1-1.8-.91,55.13,55.13,0,0,0-85.34-4.82,2.21,2.21,0,0,1-3.26-3,59.55,59.55,0,0,1,92.18,5.2,2.21,2.21,0,0,1-1.78,3.51Z"/><path class="cls-3" d="M49.62,67.92A9.83,9.83,0,0,0,48.1,68,9.56,9.56,0,1,0,59.05,76,9.58,9.58,0,0,0,49.62,67.92Z"/><path class="cls-3" d="M55.32,53.68l-.22.51a2.21,2.21,0,0,1-3.67.58l0-.06,0,.07a2.22,2.22,0,0,1-3.68.59l-.05-.06,0,.07A2.21,2.21,0,0,1,45,56.64l-5.36-1.36-4,3.81a2.18,2.18,0,0,1-1.48.62l-5.33.12-2.1,4.83a2.25,2.25,0,0,1-.65.85L22,68.85l2.94,11.06,6,2,4.79-3.51A14,14,0,0,1,47.41,63.67a14,14,0,0,1,16,11.6.41.41,0,0,0,0,.11l3.82-2.79a2.21,2.21,0,0,1,1.51-.42l7.61.7,16.32-2.6-3.51-22Z"/><path class="cls-3" d="M119.86,34.13a81.39,81.39,0,0,0-14.89-2,74.5,74.5,0,0,0-13.78.69l1.66,10.39,22.93-3.66Z"/><path class="cls-3" d="M88.48,43.91,86.83,33.59A68.2,68.2,0,0,0,56.34,48.88l.09.15Z"/><path class="cls-3" d="M144.42,48.12a.12.12,0,0,0,.13,0l4.12-.65-1.49-9.36-4.4,0L144.35,48A.15.15,0,0,0,144.42,48.12Z"/><path class="cls-3" d="M128.56,55.31a9.8,9.8,0,0,0-1.51.12,9.56,9.56,0,1,0,11.07,9.46,9.86,9.86,0,0,0-.12-1.53A9.57,9.57,0,0,0,128.56,55.31Z"/><path class="cls-3" d="M149.53,52.87l-.16-1-4.12.66a4.54,4.54,0,0,1-3.42-.82,4.57,4.57,0,0,1-1.85-3l-1.67-10.47-5.11.06a2.24,2.24,0,0,1-1-.21,59.25,59.25,0,0,0-7.74-2.75l-5.72,7.59a2.2,2.2,0,0,1-1.42.85L93.55,47.58l3.51,22,17.65-2.82a14,14,0,0,1,27.59-4.46c2.87-.67,4.94-1.89,6.13-3.64A8,8,0,0,0,149.56,53Z"/><path class="cls-2" d="M15.31,46.71a64.37,64.37,0,0,1,9.51,1.66,2.23,2.23,0,0,0,1.92-.45,2.2,2.2,0,0,0,.8-1.79,63.58,63.58,0,0,1,.17-9.67,65.48,65.48,0,0,1,9.08,3.42,2.21,2.21,0,0,0,1.8-4,72,72,0,0,0-12.22-4.36,2.21,2.21,0,0,0-1.82.3,2.19,2.19,0,0,0-1,1.58A69.11,69.11,0,0,0,23,43.43a71.33,71.33,0,0,0-10-1.36,2.21,2.21,0,0,0-2.38,2.38,71.33,71.33,0,0,0,1.36,10A69,69,0,0,0,2,55,2.22,2.22,0,0,0,.08,57.78,72.59,72.59,0,0,0,4.43,70a2.22,2.22,0,0,0,2,1.31,2.17,2.17,0,0,0,.9-.19A2.21,2.21,0,0,0,8.47,68.2a66.06,66.06,0,0,1-3.42-9.09,63.74,63.74,0,0,1,9.68-.17,2.25,2.25,0,0,0,1.8-.81A2.19,2.19,0,0,0,17,56.22,64.37,64.37,0,0,1,15.31,46.71Z"/><path class="cls-2" d="M153.39,49h0l-2.14-13.42c0-.14-.07-.28-.11-.41l-.06-.13-.12-.24-.1-.14-.14-.19-.12-.12-.18-.16-.14-.09-.21-.13-.15-.07-.23-.08-.16,0-.25,0H149l-15.4.16a83.1,83.1,0,0,0-28.31-6.14,77.38,77.38,0,0,0-16.62,1.07,2.68,2.68,0,0,0-.4,0,2.33,2.33,0,0,0-.47.14A73.91,73.91,0,0,0,50.11,48.56a2.2,2.2,0,0,0-1.4,1.23l0,.07,0,0a2.21,2.21,0,0,0-3.67.58l-.66,1.5-4.73-1.2a2.21,2.21,0,0,0-2.08.55l-4.23,4.07-5.89.13a2.22,2.22,0,0,0-2,1.33L23,62.39l-4.86,3.88h0l0,0s0,.06-.09.08l-.21.21c-.05.06-.08.12-.12.17a1.88,1.88,0,0,0-.12.18c0,.07-.07.14-.1.2s-.06.13-.08.2,0,.13-.05.2,0,.14,0,.21a1.62,1.62,0,0,0,0,.22,1.47,1.47,0,0,0,0,.21,1.45,1.45,0,0,0,0,.29s0,.08,0,.13v0h0l3.61,13.59v0s0,.08,0,.12a2.77,2.77,0,0,0,.1.26l.07.11a1.76,1.76,0,0,0,.14.23l.09.11a1.53,1.53,0,0,0,.18.18l.11.11.22.15.11.07a2.48,2.48,0,0,0,.37.17h0l8.21,2.67a2.19,2.19,0,0,0,2-.32L36.77,83a14,14,0,0,0,12.81,8.44,14.19,14.19,0,0,0,2.24-.18,13.91,13.91,0,0,0,9.11-5.6,14.06,14.06,0,0,0,2.19-4.59l6.07-4.44,7,.65h.56L116,71a14,14,0,0,0,12.54,7.83,14,14,0,0,0,13.86-12.06c4.48-.87,7.75-2.78,9.72-5.72a12.41,12.41,0,0,0,1.76-9Zm-6.21-10.84,1.49,9.36-4.12.65a.12.12,0,0,1-.13,0,.15.15,0,0,1-.07-.11l-1.57-9.82ZM86.83,33.59l1.65,10.32L56.43,49l-.09-.15A68.2,68.2,0,0,1,86.83,33.59ZM57.35,83.09A9.56,9.56,0,1,1,48.1,68a9.83,9.83,0,0,1,1.52-.12,9.56,9.56,0,0,1,7.73,15.17Zm19-10.22-7.61-.7a2.21,2.21,0,0,0-1.51.42l-3.82,2.79a.41.41,0,0,1,0-.11,14,14,0,0,0-25.13-6,13.84,13.84,0,0,0-2.63,9.07l-4.79,3.51-6-2L22,68.85l4.19-3.34a2.25,2.25,0,0,0,.65-.85l2.1-4.83,5.33-.12a2.18,2.18,0,0,0,1.48-.62l4-3.81L45,56.64a2.21,2.21,0,0,0,2.56-1.26l0-.07.05.06a2.22,2.22,0,0,0,3.68-.59l0-.07,0,.06a2.21,2.21,0,0,0,3.67-.58l.22-.51,33.86-5.41,3.51,22ZM91.19,32.82A74.5,74.5,0,0,1,105,32.13a81.39,81.39,0,0,1,14.89,2l-4.08,5.42L92.85,43.21ZM130.07,74.3a9.56,9.56,0,1,1-3-18.87,9.8,9.8,0,0,1,1.51-.12,9.57,9.57,0,0,1,9.44,8,9.86,9.86,0,0,1,.12,1.53A9.51,9.51,0,0,1,130.07,74.3Zm18.36-15.65c-1.19,1.75-3.26,3-6.13,3.64a14,14,0,0,0-27.59,4.46L97.06,69.57l-3.51-22,23.81-3.81a2.2,2.2,0,0,0,1.42-.85l5.72-7.59a59.25,59.25,0,0,1,7.74,2.75,2.24,2.24,0,0,0,1,.21l5.11-.06L140,48.7a4.57,4.57,0,0,0,1.85,3,4.54,4.54,0,0,0,3.42.82l4.12-.66.16,1,0,.14A8,8,0,0,1,148.43,58.65Z"/><path class="cls-2" d="M184.08,52.35c-.54,0-.81-.25-.81-.77v-22c0-.51.27-.77.81-.77h9.56A11,11,0,0,1,201,31.15a7.9,7.9,0,0,1,2.76,6.33,8.08,8.08,0,0,1-2.8,6.44,11.06,11.06,0,0,1-7.5,2.41h-3.84v5.25a.68.68,0,0,1-.77.77Zm5.55-11.17h3.47a4.48,4.48,0,0,0,3.06-1,3.35,3.35,0,0,0,1.18-2.67,3.16,3.16,0,0,0-1.18-2.56,4.66,4.66,0,0,0-3.06-1h-3.47Z"/><path class="cls-2" d="M211.81,53a6.5,6.5,0,0,1-4.11-1.18,3.79,3.79,0,0,1-1.51-3.16V28.23a.69.69,0,0,1,.77-.78h4.55a.7.7,0,0,1,.8.78V46.46q0,1.35,1.05,1.35a3.55,3.55,0,0,0,.77-.07c.54,0,.82.17.84.64l.37,3.3a.72.72,0,0,1-.64.88A11.61,11.61,0,0,1,211.81,53Z"/><path class="cls-2" d="M239.71,51.68a.73.73,0,0,1-.64.88,12.07,12.07,0,0,1-2.83.4c-2.27-.05-3.8-.72-4.61-2a8.73,8.73,0,0,1-14.54-6.83,8.43,8.43,0,0,1,8.82-8.85,7.22,7.22,0,0,1,4.78,1.61V36.6c0-.49.27-.74.8-.74h4.35a.67.67,0,0,1,.77.74v9.8c0,.94.35,1.41,1,1.41a3.93,3.93,0,0,0,.84-.07c.54,0,.82.17.85.64ZM224,47.17a3.47,3.47,0,0,0,2.73,1.18,3.52,3.52,0,0,0,2.73-1.16,5.08,5.08,0,0,0,0-6.16,3.52,3.52,0,0,0-2.73-1.16A3.47,3.47,0,0,0,224,41.05a5,5,0,0,0,0,6.12Z"/><path class="cls-2" d="M251.69,53A7.89,7.89,0,0,1,246,51a7.32,7.32,0,0,1-2-5.53V40.81h-2.76c-.54,0-.81-.26-.81-.77V36.6c0-.49.27-.74.81-.74H244V31.79a.68.68,0,0,1,.77-.77h4.54c.54,0,.81.26.81.77v4.07h4.78c.52,0,.77.25.77.74V40a.68.68,0,0,1-.77.77h-4.78v4.44a2.24,2.24,0,0,0,.72,1.8,2.91,2.91,0,0,0,2,.63,10.27,10.27,0,0,0,2.32-.27c.57-.12.88.1.95.64l.47,3.43a.77.77,0,0,1-.64.91A16.56,16.56,0,0,1,251.69,53Z"/><path class="cls-2" d="M280.73,51.68a.73.73,0,0,1-.64.88,12.07,12.07,0,0,1-2.83.4q-3.39-.08-4.61-2a8.73,8.73,0,0,1-14.54-6.83,8.43,8.43,0,0,1,8.82-8.85,7.2,7.2,0,0,1,4.78,1.61V36.6c0-.49.27-.74.81-.74h4.34a.67.67,0,0,1,.77.74v9.8q0,1.41,1.05,1.41a4.06,4.06,0,0,0,.84-.07c.53,0,.82.17.84.64Zm-15.68-4.51a3.44,3.44,0,0,0,2.72,1.18,3.52,3.52,0,0,0,2.73-1.16,5.08,5.08,0,0,0,0-6.16,3.52,3.52,0,0,0-2.73-1.16,3.44,3.44,0,0,0-2.72,1.18,5,5,0,0,0,0,6.12Z"/><path class="cls-2" d="M286.08,52.35c-.54,0-.81-.25-.81-.77V40.81h-3.16c-.54,0-.81-.26-.81-.77V36.6c0-.49.27-.74.81-.74h3.16V34.48a7.4,7.4,0,0,1,2.1-5.63,8.28,8.28,0,0,1,5.94-2,15.7,15.7,0,0,1,4.35.6.76.76,0,0,1,.6.91l-.5,3.23c-.07.54-.37.74-.91.61a10.3,10.3,0,0,0-2.46-.31,3.26,3.26,0,0,0-2.17.69,2.27,2.27,0,0,0-.82,1.84v1.44h5.08a.67.67,0,0,1,.77.74V40a.68.68,0,0,1-.77.77H291.4V51.58a.68.68,0,0,1-.78.77Z"/><path class="cls-2" d="M314.94,50.52a11.1,11.1,0,0,1-13.89,0,8.34,8.34,0,0,1-2.62-6.41,8.34,8.34,0,0,1,2.62-6.43,11.14,11.14,0,0,1,13.89,0,8.32,8.32,0,0,1,2.64,6.41A8.32,8.32,0,0,1,314.94,50.52ZM305.13,47A3.81,3.81,0,0,0,308,48.08a4,4,0,1,0,0-7.94,3.81,3.81,0,0,0-2.86,1.09,4.38,4.38,0,0,0,0,5.76Z"/><path class="cls-2" d="M334.47,35.53a.79.79,0,0,1,.64.91l-.51,4a.66.66,0,0,1-.84.64,7.54,7.54,0,0,0-1.78-.21,4.09,4.09,0,0,0-2.86,1A3.65,3.65,0,0,0,328,44.68v6.9a.68.68,0,0,1-.78.77h-4.54a.68.68,0,0,1-.77-.77V41.79a1.6,1.6,0,0,0-.27-1,1.17,1.17,0,0,0-.91-.3,2.59,2.59,0,0,0-.57.07c-.56,0-.84-.21-.84-.64V36.6a.83.83,0,0,1,.6-.87,8.94,8.94,0,0,1,2.8-.47A4.64,4.64,0,0,1,327,37.41a7.11,7.11,0,0,1,5.38-2.15A7.36,7.36,0,0,1,334.47,35.53Z"/><path class="cls-2" d="M360.72,35.26A6.81,6.81,0,0,1,368,42.49v9.09c0,.52-.27.77-.8.77h-4.51c-.54,0-.81-.25-.81-.77V43.64a3.47,3.47,0,0,0-.74-2.34,2.55,2.55,0,0,0-2-.86,2.19,2.19,0,0,0-1.8.83,3.53,3.53,0,0,0-.66,2.27v8c0,.52-.27.77-.8.77h-4.55a.68.68,0,0,1-.77-.77V43.64a3.62,3.62,0,0,0-.69-2.34,2.36,2.36,0,0,0-1.94-.86,2.5,2.5,0,0,0-2,.83,3.32,3.32,0,0,0-.72,2.27v8a.68.68,0,0,1-.77.77h-4.55a.68.68,0,0,1-.77-.77V41.79a1.6,1.6,0,0,0-.27-1,1.17,1.17,0,0,0-.91-.3,2.66,2.66,0,0,0-.57.07c-.56,0-.84-.21-.84-.64V36.6a.83.83,0,0,1,.6-.87,8.19,8.19,0,0,1,2.8-.47,4.71,4.71,0,0,1,4.24,2.09,7.31,7.31,0,0,1,5.69-2.09,6.42,6.42,0,0,1,5.28,2.32A7,7,0,0,1,360.72,35.26Z"/><path class="cls-2" d="M393.23,51.68a.73.73,0,0,1-.64.88,12.07,12.07,0,0,1-2.83.4c-2.27-.05-3.8-.72-4.61-2a8.73,8.73,0,0,1-14.54-6.83,8.43,8.43,0,0,1,8.82-8.85,7.2,7.2,0,0,1,4.78,1.61V36.6c0-.49.27-.74.8-.74h4.35a.67.67,0,0,1,.77.74v9.8c0,.94.35,1.41,1,1.41a3.93,3.93,0,0,0,.84-.07c.54,0,.82.17.85.64Zm-15.69-4.51a3.47,3.47,0,0,0,2.73,1.18A3.52,3.52,0,0,0,383,47.19,5.08,5.08,0,0,0,383,41a3.52,3.52,0,0,0-2.73-1.16,3.47,3.47,0,0,0-2.73,1.18,5,5,0,0,0,0,6.12Z"/><path class="cls-2" d="M426,51.68a.71.71,0,0,1-.61.88,12.29,12.29,0,0,1-2.92.4q-3.37,0-4.65-2.15A7.22,7.22,0,0,1,412.21,53a8.43,8.43,0,0,1-8.82-8.85,8.43,8.43,0,0,1,8.82-8.85,7.58,7.58,0,0,1,4.61,1.41V28.23a.68.68,0,0,1,.77-.78h4.54a.69.69,0,0,1,.78.78V46.46c0,.9.36,1.35,1.07,1.35a3.35,3.35,0,0,0,.78-.07c.51,0,.81.17.87.64Zm-15.65-4.51a3.76,3.76,0,0,0,5.45,0,5,5,0,0,0,0-6.16,3.76,3.76,0,0,0-5.45,0,5,5,0,0,0,0,6.12Z"/><path class="cls-2" d="M437.41,53a9.82,9.82,0,0,1-7-2.44,8.32,8.32,0,0,1-2.64-6.41,8.52,8.52,0,0,1,2.52-6.41,10.48,10.48,0,0,1,13.4,0A8.58,8.58,0,0,1,446.16,44c0,.09,0,.24,0,.45s0,.38,0,.49c0,.47-.32.71-.88.71H433.57a3.63,3.63,0,0,0,1.38,2.1,4.17,4.17,0,0,0,2.53.76,3.09,3.09,0,0,0,2.29-.81,1.65,1.65,0,0,1,1-.44H445a.73.73,0,0,1,.62.24.6.6,0,0,1,.05.6,6.76,6.76,0,0,1-3.05,3.55A10.07,10.07,0,0,1,437.41,53Zm-3.84-10.4h7.07a3.29,3.29,0,0,0-3.43-3.06,3.57,3.57,0,0,0-2.42.86A3.45,3.45,0,0,0,433.57,42.56Z"/><path class="cls-2" d="M471.37,35.53a.79.79,0,0,1,.64.91l-.51,4a.67.67,0,0,1-.84.64,7.6,7.6,0,0,0-1.78-.21,4.09,4.09,0,0,0-2.86,1,3.65,3.65,0,0,0-1.11,2.83v6.9a.68.68,0,0,1-.78.77h-4.54a.68.68,0,0,1-.78-.77V41.79a1.6,1.6,0,0,0-.27-1,1.15,1.15,0,0,0-.9-.3,2.74,2.74,0,0,0-.58.07c-.56,0-.84-.21-.84-.64V36.6a.83.83,0,0,1,.61-.87,8.88,8.88,0,0,1,2.79-.47,4.66,4.66,0,0,1,4.28,2.15,7.09,7.09,0,0,1,5.38-2.15A7.41,7.41,0,0,1,471.37,35.53Z"/><path class="cls-2" d="M483,53a9.81,9.81,0,0,1-7-2.44,8.32,8.32,0,0,1-2.64-6.41,8.52,8.52,0,0,1,2.52-6.41,10.47,10.47,0,0,1,13.39,0A8.55,8.55,0,0,1,491.73,44c0,.09,0,.24,0,.45s0,.38,0,.49c0,.47-.31.71-.87.71H479.14a3.53,3.53,0,0,0,1.38,2.1,4.14,4.14,0,0,0,2.52.76,3.09,3.09,0,0,0,2.29-.81,1.67,1.67,0,0,1,1-.44h4.24a.73.73,0,0,1,.62.24.57.57,0,0,1,.05.6,6.74,6.74,0,0,1-3,3.55A10.07,10.07,0,0,1,483,53Zm-3.84-10.4h7.07a3.29,3.29,0,0,0-3.44-3.06,3.57,3.57,0,0,0-2.42.86A3.44,3.44,0,0,0,479.14,42.56Z"/><path class="cls-2" d="M512.79,35.86c.52,0,.78.25.78.74V52.89A7.18,7.18,0,0,1,511,58.68a10.36,10.36,0,0,1-6.88,2.19,11.36,11.36,0,0,1-6.4-1.7,6.71,6.71,0,0,1-3.06-4.53c-.09-.54.16-.81.74-.81h4.48a1,1,0,0,1,.9.61c.43,1.14,1.53,1.72,3.3,1.72a3.53,3.53,0,0,0,2.48-.86,3,3,0,0,0,.92-2.34V51.34a7.19,7.19,0,0,1-4.58,1.42,8.61,8.61,0,0,1-6.34-2.46A8.48,8.48,0,0,1,494.05,44a8.46,8.46,0,0,1,2.47-6.29,8.61,8.61,0,0,1,6.34-2.46,7.2,7.2,0,0,1,4.78,1.61V36.6c0-.49.26-.74.78-.74ZM501,47a3.72,3.72,0,0,0,5.4,0,4.83,4.83,0,0,0,0-6,3.72,3.72,0,0,0-5.4,0,4.76,4.76,0,0,0,0,6Z"/><path class="cls-2" d="M520.3,33.44a3.49,3.49,0,0,1-2.51-.94,3.08,3.08,0,0,1-1-2.32,3,3,0,0,1,1-2.31A3.56,3.56,0,0,1,520.3,27a3.52,3.52,0,0,1,2.47.92,3,3,0,0,1,1,2.31,3.08,3.08,0,0,1-1,2.32A3.44,3.44,0,0,1,520.3,33.44ZM518,52.35a.68.68,0,0,1-.78-.77v-15c0-.49.26-.74.78-.74h4.54c.54,0,.81.25.81.74v15c0,.52-.27.77-.81.77Z"/><path class="cls-2" d="M534.6,53a11.5,11.5,0,0,1-6-1.4,5.47,5.47,0,0,1-2.76-3.85c-.07-.54.19-.81.77-.81l3.87,0a1.3,1.3,0,0,1,.91.53c.43.88,1.48,1.32,3.16,1.32a3.51,3.51,0,0,0,1.62-.31.93.93,0,0,0,.61-.84,1.07,1.07,0,0,0-.76-1,5.5,5.5,0,0,0-1.9-.42,18.89,18.89,0,0,1-2.48-.37,15.87,15.87,0,0,1-2.47-.74,4.16,4.16,0,0,1-1.9-1.57,4.87,4.87,0,0,1-.76-2.83,4.64,4.64,0,0,1,2.17-4,9.79,9.79,0,0,1,5.71-1.51A10.77,10.77,0,0,1,540,36.6a5.2,5.2,0,0,1,2.64,3.61.61.61,0,0,1-.13.57.86.86,0,0,1-.61.2h-3.84a1.1,1.1,0,0,1-.87-.47c-.4-.85-1.29-1.28-2.66-1.28a3.71,3.71,0,0,0-1.6.3.91.91,0,0,0-.62.81,1.16,1.16,0,0,0,.79,1,6.26,6.26,0,0,0,2,.52,24.54,24.54,0,0,1,2.57.45,19.11,19.11,0,0,1,2.58.79,4.44,4.44,0,0,1,2,1.59,4.68,4.68,0,0,1,.79,2.75,4.57,4.57,0,0,1-2.21,4A11.15,11.15,0,0,1,534.6,53Z"/><path class="cls-2" d="M555.46,53a7.86,7.86,0,0,1-5.7-2,7.33,7.33,0,0,1-2-5.53V40.81H545c-.54,0-.81-.26-.81-.77V36.6c0-.49.27-.74.81-.74h2.76V31.79a.69.69,0,0,1,.78-.77H553c.54,0,.81.26.81.77v4.07h4.77c.52,0,.78.25.78.74V40a.69.69,0,0,1-.78.77h-4.77v4.44a2.24,2.24,0,0,0,.72,1.8,2.89,2.89,0,0,0,2,.63,10.4,10.4,0,0,0,2.32-.27c.56-.12.88.1.94.64l.47,3.43a.75.75,0,0,1-.64.91A16.5,16.5,0,0,1,555.46,53Z"/><path class="cls-2" d="M576.8,35.53a.79.79,0,0,1,.64.91l-.51,4a.67.67,0,0,1-.84.64,7.6,7.6,0,0,0-1.78-.21,4.09,4.09,0,0,0-2.86,1,3.65,3.65,0,0,0-1.11,2.83v6.9a.68.68,0,0,1-.78.77H565a.68.68,0,0,1-.78-.77V41.79a1.6,1.6,0,0,0-.27-1,1.15,1.15,0,0,0-.9-.3,2.74,2.74,0,0,0-.58.07c-.56,0-.84-.21-.84-.64V36.6a.83.83,0,0,1,.61-.87,8.88,8.88,0,0,1,2.79-.47,4.66,4.66,0,0,1,4.28,2.15,7.09,7.09,0,0,1,5.38-2.15A7.41,7.41,0,0,1,576.8,35.53Z"/><path class="cls-2" d="M595.22,50.52a11.09,11.09,0,0,1-13.88,0,8.35,8.35,0,0,1-2.63-6.41,8.34,8.34,0,0,1,2.63-6.43,11.13,11.13,0,0,1,13.88,0,8.32,8.32,0,0,1,2.64,6.41A8.32,8.32,0,0,1,595.22,50.52ZM585.41,47a3.83,3.83,0,0,0,2.86,1.09,4,4,0,1,0,0-7.94,3.83,3.83,0,0,0-2.86,1.09,4.38,4.38,0,0,0,0,5.76Z"/><path class="cls-2" d="M630.84,51.68a.71.71,0,0,1-.6.88,12.37,12.37,0,0,1-2.93.4c-2.25,0-3.79-.72-4.65-2.15A7.22,7.22,0,0,1,617.08,53a8.43,8.43,0,0,1-8.82-8.85,8.43,8.43,0,0,1,8.82-8.85,7.58,7.58,0,0,1,4.61,1.41V28.23a.69.69,0,0,1,.77-.78H627a.69.69,0,0,1,.77.78V46.46q0,1.35,1.08,1.35a3.31,3.31,0,0,0,.77-.07c.52,0,.81.17.88.64Zm-15.65-4.51a3.47,3.47,0,0,0,2.73,1.18,3.52,3.52,0,0,0,2.73-1.16,5.08,5.08,0,0,0,0-6.16,3.52,3.52,0,0,0-2.73-1.16,3.47,3.47,0,0,0-2.73,1.18,5,5,0,0,0,0,6.12Z"/><path class="cls-2" d="M642.28,53a9.82,9.82,0,0,1-6.95-2.44,8.32,8.32,0,0,1-2.64-6.41,8.49,8.49,0,0,1,2.53-6.41,10.47,10.47,0,0,1,13.39,0A8.54,8.54,0,0,1,651,44c0,.09,0,.24,0,.45s0,.38,0,.49c0,.47-.32.71-.88.71H638.45a3.53,3.53,0,0,0,1.38,2.1,4.12,4.12,0,0,0,2.52.76,3.09,3.09,0,0,0,2.29-.81,1.65,1.65,0,0,1,1-.44h4.24a.73.73,0,0,1,.62.24.6.6,0,0,1,0,.6,6.74,6.74,0,0,1-3,3.55A10.11,10.11,0,0,1,642.28,53Zm-3.83-10.4h7.06a3.29,3.29,0,0,0-3.43-3.06,3.57,3.57,0,0,0-2.42.86A3.44,3.44,0,0,0,638.45,42.56Z"/><path class="cls-1" d="M192.73,92.25a14.73,14.73,0,0,1-7.4-1.67,6.43,6.43,0,0,1-3.45-4.52.8.8,0,0,1,.16-.8,1.18,1.18,0,0,1,.88-.28h5.27a2,2,0,0,1,1.28.72c.54.67,1.61,1,3.22,1,1.36,0,2.05-.34,2.05-1,0-.48-.42-.82-1.25-1a26.61,26.61,0,0,0-3-.51,24.45,24.45,0,0,1-3.52-.66,5.78,5.78,0,0,1-3-2,6,6,0,0,1-1.25-4,5.67,5.67,0,0,1,2.73-4.9,12.57,12.57,0,0,1,7.16-1.85,13.78,13.78,0,0,1,7,1.63A6.51,6.51,0,0,1,203,76.82a.85.85,0,0,1-.22.8,1.21,1.21,0,0,1-.87.28h-5.18a1.44,1.44,0,0,1-1.21-.64,2.94,2.94,0,0,0-2.69-1.08c-1.45,0-2.17.3-2.17.92s.44.85,1.32,1.11a26.92,26.92,0,0,0,3.2.66,30.14,30.14,0,0,1,3.76.82,6.67,6.67,0,0,1,3.21,2,5.56,5.56,0,0,1,1.33,3.86,5.49,5.49,0,0,1-2.77,4.94C198.88,91.68,196.21,92.25,192.73,92.25Z"/><path class="cls-1" d="M210.53,69.34a4.77,4.77,0,0,1-3.41-1.24,4.43,4.43,0,0,1,0-6.33,5.2,5.2,0,0,1,6.81,0,4.39,4.39,0,0,1,0,6.33A4.81,4.81,0,0,1,210.53,69.34ZM207.4,91.49c-.75,0-1.13-.36-1.13-1.09V72.64c0-.7.38-1,1.13-1h6.27c.75,0,1.12.35,1.12,1V90.4a1,1,0,0,1-1.12,1.09Z"/><path class="cls-1" d="M234.05,70.83a8.66,8.66,0,0,1,6.27,2.29,8.06,8.06,0,0,1,2.37,6.07V90.4c0,.73-.38,1.09-1.13,1.09h-6.31a1.12,1.12,0,0,1-.8-.3,1,1,0,0,1-.32-.79V81.12a3.36,3.36,0,0,0-.71-2.29,2.49,2.49,0,0,0-2-.81,2.68,2.68,0,0,0-2.05.79,3.16,3.16,0,0,0-.72,2.23V90.4c0,.73-.38,1.09-1.13,1.09h-6.27a1,1,0,0,1-1.12-1.09V79.63a2.3,2.3,0,0,0-.26-1.3,1.25,1.25,0,0,0-1-.35h-.4c-.78.06-1.16-.24-1.16-.88V72.64a1.2,1.2,0,0,1,.88-1.21,9.54,9.54,0,0,1,3.74-.6q3.81.08,5.42,2.49Q229.63,70.83,234.05,70.83Z"/><path class="cls-1" d="M250.44,69.34A4.77,4.77,0,0,1,247,68.1a4.43,4.43,0,0,1,0-6.33,5.2,5.2,0,0,1,6.81,0,4.39,4.39,0,0,1,0,6.33A4.81,4.81,0,0,1,250.44,69.34Zm-3.13,22.15c-.75,0-1.13-.36-1.13-1.09V72.64c0-.7.38-1,1.13-1h6.27c.75,0,1.13.35,1.13,1V90.4c0,.73-.38,1.09-1.13,1.09Z"/><path class="cls-1" d="M269.3,92.25a12.25,12.25,0,0,1-8.59-3,10.05,10.05,0,0,1-3.23-7.78,10.24,10.24,0,0,1,3.07-7.76,11.39,11.39,0,0,1,8.18-2.93q5.47,0,8.38,2.91a10.4,10.4,0,0,1,2.92,7.7v.84c0,.7-.41,1-1.21,1H265.36a3.7,3.7,0,0,0,4,3,3.21,3.21,0,0,0,2.17-.76,2.48,2.48,0,0,1,1.44-.6h5.63a1.05,1.05,0,0,1,.86.32.84.84,0,0,1,.1.84,8.34,8.34,0,0,1-3.69,4.52A12.51,12.51,0,0,1,269.3,92.25Zm-3.9-12.78h7.27a3.4,3.4,0,0,0-1.18-2.19,3.67,3.67,0,0,0-2.44-.82,3.78,3.78,0,0,0-2.43.82A3.32,3.32,0,0,0,265.4,79.47Z"/><path class="cls-1" d="M292.61,92.25a14.73,14.73,0,0,1-7.4-1.67,6.44,6.44,0,0,1-3.46-4.52.8.8,0,0,1,.17-.8,1.18,1.18,0,0,1,.88-.28h5.26a2,2,0,0,1,1.29.72c.54.67,1.61,1,3.22,1,1.36,0,2.05-.34,2.05-1,0-.48-.42-.82-1.25-1a26.61,26.61,0,0,0-3-.51,24.45,24.45,0,0,1-3.52-.66,5.8,5.8,0,0,1-3-2,6,6,0,0,1-1.24-4,5.67,5.67,0,0,1,2.73-4.9,12.57,12.57,0,0,1,7.16-1.85,13.78,13.78,0,0,1,7.05,1.63,6.51,6.51,0,0,1,3.36,4.36.83.83,0,0,1-.23.8,1.19,1.19,0,0,1-.86.28h-5.18a1.44,1.44,0,0,1-1.21-.64,3,3,0,0,0-2.69-1.08c-1.45,0-2.17.3-2.17.92s.44.85,1.32,1.11a26.92,26.92,0,0,0,3.2.66,30.53,30.53,0,0,1,3.76.82,6.67,6.67,0,0,1,3.21,2,5.56,5.56,0,0,1,1.33,3.86,5.5,5.5,0,0,1-2.78,4.94C298.76,91.68,296.09,92.25,292.61,92.25Z"/><path class="cls-1" d="M318.49,92.25c-3.24,0-5.71-.81-7.42-2.45s-2.55-4-2.55-7.07V78.51h-2.93c-.75,0-1.13-.35-1.13-1.05V72.64c0-.7.38-1,1.13-1h2.93V66.93c0-.7.38-1,1.13-1h6.27c.75,0,1.12.34,1.12,1v4.66h5.15c.75,0,1.12.35,1.12,1v4.82c0,.7-.37,1.05-1.12,1.05H317v3.9c0,1.68,1,2.53,3.1,2.53a12.87,12.87,0,0,0,2.57-.28c.8-.14,1.25.16,1.33.88l.6,4.74a1,1,0,0,1-.84,1.25A20.21,20.21,0,0,1,318.49,92.25Z"/><path class="cls-1" d="M344.41,71.11a1,1,0,0,1,.89,1.25L344.66,78a.9.9,0,0,1-1.13.89,8.47,8.47,0,0,0-2-.24,4.52,4.52,0,0,0-3,1,3.65,3.65,0,0,0-1.17,3V90.4c0,.73-.38,1.09-1.13,1.09H329.9a1,1,0,0,1-1.12-1.09V79.63a2.3,2.3,0,0,0-.26-1.3,1.25,1.25,0,0,0-1-.35h-.4c-.78.06-1.16-.24-1.16-.88V72.64a1.2,1.2,0,0,1,.88-1.21,9.54,9.54,0,0,1,3.74-.6,6,6,0,0,1,5.3,2.41,8.13,8.13,0,0,1,6.31-2.41A7.22,7.22,0,0,1,344.41,71.11Z"/><path class="cls-1" d="M358.28,92.25a12.08,12.08,0,0,1-8.52-3,11,11,0,0,1,0-15.54,12.16,12.16,0,0,1,8.52-2.93,12.32,12.32,0,0,1,8.58,2.93,10.94,10.94,0,0,1,0,15.54A12.24,12.24,0,0,1,358.28,92.25Zm0-6.63a4.16,4.16,0,0,0,3-1.12,4.45,4.45,0,0,0,0-6,4.17,4.17,0,0,0-3-1.13,4.1,4.1,0,1,0,0,8.2Z"/><path class="cls-1" d="M382.52,92.25a14.73,14.73,0,0,1-7.4-1.67,6.44,6.44,0,0,1-3.46-4.52.8.8,0,0,1,.17-.8,1.18,1.18,0,0,1,.88-.28H378a2,2,0,0,1,1.29.72c.54.67,1.61,1,3.22,1,1.36,0,2-.34,2-1,0-.48-.42-.82-1.25-1a26.61,26.61,0,0,0-3-.51,24.45,24.45,0,0,1-3.52-.66,5.8,5.8,0,0,1-3-2,6,6,0,0,1-1.24-4,5.67,5.67,0,0,1,2.73-4.9,12.57,12.57,0,0,1,7.16-1.85,13.78,13.78,0,0,1,7.05,1.63,6.51,6.51,0,0,1,3.36,4.36.83.83,0,0,1-.23.8,1.19,1.19,0,0,1-.86.28h-5.18a1.44,1.44,0,0,1-1.21-.64,3,3,0,0,0-2.69-1.08c-1.45,0-2.17.3-2.17.92s.44.85,1.32,1.11a26.92,26.92,0,0,0,3.2.66,30.53,30.53,0,0,1,3.76.82,6.67,6.67,0,0,1,3.21,2,5.56,5.56,0,0,1,1.33,3.86,5.5,5.5,0,0,1-2.78,4.94C388.67,91.68,386,92.25,382.52,92.25Z"/><path class="cls-1" d="M433,90.56a1.07,1.07,0,0,1-.89,1.25,16.56,16.56,0,0,1-3.86.44c-2.86,0-4.86-.85-6-2.57-1.42,1.72-3.66,2.57-6.72,2.57a10.08,10.08,0,0,1-7.55-3,10.65,10.65,0,0,1-2.9-7.76,10.59,10.59,0,0,1,2.9-7.74,10.1,10.1,0,0,1,7.55-3,8.61,8.61,0,0,1,5.43,1.65V62.83c0-.72.38-1.08,1.13-1.08h6.27a1,1,0,0,1,1.08,1.08v20.7a2.16,2.16,0,0,0,.28,1.29,1.16,1.16,0,0,0,1,.36,3.39,3.39,0,0,0,.6,0c.72,0,1.13.31,1.21.92ZM417,86a3.6,3.6,0,0,0,2.86-1.2,5.71,5.71,0,0,0,0-6.57A3.56,3.56,0,0,0,417,77a3.43,3.43,0,0,0-2.77,1.25,5.57,5.57,0,0,0,0,6.51A3.42,3.42,0,0,0,417,86Z"/><path class="cls-1" d="M446.54,92.25a12.24,12.24,0,0,1-8.58-3,10,10,0,0,1-3.23-7.78,10.24,10.24,0,0,1,3.07-7.76A11.39,11.39,0,0,1,446,70.83c3.64,0,6.44,1,8.38,2.91a10.43,10.43,0,0,1,2.91,7.7v.84q0,1.05-1.2,1H442.6a3.71,3.71,0,0,0,4,3,3.19,3.19,0,0,0,2.17-.76,2.53,2.53,0,0,1,1.45-.6h5.63a1.05,1.05,0,0,1,.86.32.84.84,0,0,1,.1.84,8.31,8.31,0,0,1-3.7,4.52A12.46,12.46,0,0,1,446.54,92.25Zm-3.9-12.78h7.28a3.41,3.41,0,0,0-1.19-2.19,3.63,3.63,0,0,0-2.43-.82,3.74,3.74,0,0,0-2.43.82A3.37,3.37,0,0,0,442.64,79.47Z"/><path class="cls-1" d="M482.47,92.25c-3.24,0-5.71-.81-7.41-2.45s-2.55-4-2.55-7.07V78.51h-2.94c-.75,0-1.12-.35-1.12-1.05V72.64c0-.7.37-1,1.12-1h2.94V66.93c0-.7.37-1,1.12-1h6.27c.75,0,1.13.34,1.13,1v4.66h5.14c.75,0,1.13.35,1.13,1v4.82c0,.7-.38,1.05-1.13,1.05H481v3.9c0,1.68,1,2.53,3.09,2.53a12.87,12.87,0,0,0,2.57-.28c.81-.14,1.25.16,1.33.88l.6,4.74a1,1,0,0,1-.84,1.25A20.21,20.21,0,0,1,482.47,92.25Z"/><path class="cls-1" d="M508.4,71.11a1,1,0,0,1,.88,1.25L508.64,78a.9.9,0,0,1-1.13.89,8.41,8.41,0,0,0-2.05-.24,4.54,4.54,0,0,0-3,1,3.65,3.65,0,0,0-1.17,3V90.4a1,1,0,0,1-1.12,1.09h-6.27c-.75,0-1.13-.36-1.13-1.09V79.63a2.21,2.21,0,0,0-.26-1.3,1.21,1.21,0,0,0-1-.35h-.41c-.77.06-1.16-.24-1.16-.88V72.64a1.2,1.2,0,0,1,.88-1.21,9.57,9.57,0,0,1,3.74-.6,6,6,0,0,1,5.31,2.41,8.1,8.1,0,0,1,6.31-2.41A7.22,7.22,0,0,1,508.4,71.11Z"/><path class="cls-1" d="M538.42,90.56a1,1,0,0,1-.88,1.25,16.44,16.44,0,0,1-3.7.44c-2.87,0-4.86-.8-6-2.33A10.47,10.47,0,0,1,521,92.25a10.09,10.09,0,0,1-7.56-3,10.65,10.65,0,0,1-2.89-7.76,10.58,10.58,0,0,1,2.89-7.74,10.11,10.11,0,0,1,7.56-3,8.26,8.26,0,0,1,5.75,2v-.16c0-.7.37-1,1.12-1h5.95a1,1,0,0,1,1.09,1V83.41a2.85,2.85,0,0,0,.24,1.39,1,1,0,0,0,.92.38,4.67,4.67,0,0,0,.72,0c.73,0,1.13.31,1.21.92ZM522.47,86a3.59,3.59,0,0,0,2.85-1.2,5.71,5.71,0,0,0,0-6.57A3.55,3.55,0,0,0,522.47,77a3.45,3.45,0,0,0-2.78,1.25,5.61,5.61,0,0,0,0,6.51A3.44,3.44,0,0,0,522.47,86Zm-2.05-17.24a.8.8,0,0,1-.77-1.29l2.57-4.9a1.32,1.32,0,0,1,1.25-.8h6.11c.43,0,.71.12.84.38a.84.84,0,0,1-.16.9l-3.37,5a1.46,1.46,0,0,1-1.29.68Z"/><path class="cls-1" d="M556.39,70.83a8.63,8.63,0,0,1,6.27,2.29A8.06,8.06,0,0,1,565,79.19V90.4c0,.73-.38,1.09-1.13,1.09h-6.31a1.12,1.12,0,0,1-.8-.3,1,1,0,0,1-.32-.79V81.12a3.36,3.36,0,0,0-.71-2.29,2.48,2.48,0,0,0-2-.81,2.64,2.64,0,0,0-2,.79A3.12,3.12,0,0,0,551,81V90.4a1,1,0,0,1-1.12,1.09h-6.27c-.75,0-1.13-.36-1.13-1.09V79.63a2.3,2.3,0,0,0-.26-1.3,1.24,1.24,0,0,0-1-.35h-.4c-.77.06-1.16-.24-1.16-.88V72.64a1.2,1.2,0,0,1,.88-1.21,9.54,9.54,0,0,1,3.74-.6q3.81.08,5.43,2.49Q552,70.83,556.39,70.83Z"/><path class="cls-1" d="M578,92.25a14.7,14.7,0,0,1-7.39-1.67,6.44,6.44,0,0,1-3.46-4.52.8.8,0,0,1,.16-.8,1.19,1.19,0,0,1,.88-.28h5.27a2,2,0,0,1,1.29.72c.53.67,1.6,1,3.21,1,1.37,0,2-.34,2-1,0-.48-.42-.82-1.24-1a26.83,26.83,0,0,0-3-.51,24.45,24.45,0,0,1-3.52-.66,5.78,5.78,0,0,1-3-2,6,6,0,0,1-1.25-4,5.66,5.66,0,0,1,2.74-4.9,12.54,12.54,0,0,1,7.15-1.85,13.78,13.78,0,0,1,7.05,1.63,6.46,6.46,0,0,1,3.36,4.36.85.85,0,0,1-.22.8,1.2,1.2,0,0,1-.86.28H582a1.47,1.47,0,0,1-1.21-.64,2.94,2.94,0,0,0-2.69-1.08c-1.45,0-2.17.3-2.17.92s.44.85,1.33,1.11a26.72,26.72,0,0,0,3.19.66,30.14,30.14,0,0,1,3.76.82,6.75,6.75,0,0,1,3.22,2,5.6,5.6,0,0,1,1.32,3.86A5.49,5.49,0,0,1,586,90.52C584.16,91.68,581.49,92.25,578,92.25Z"/><path class="cls-1" d="M595.82,69.34a4.78,4.78,0,0,1-3.42-1.24,4.43,4.43,0,0,1,0-6.33,5.2,5.2,0,0,1,6.81,0,4.39,4.39,0,0,1,0,6.33A4.8,4.8,0,0,1,595.82,69.34Zm-3.14,22.15a1,1,0,0,1-1.12-1.09V72.64c0-.7.37-1,1.12-1H599c.75,0,1.13.35,1.13,1V90.4c0,.73-.38,1.09-1.13,1.09Z"/><path class="cls-1" d="M615.87,92.25c-3.24,0-5.71-.81-7.41-2.45s-2.55-4-2.55-7.07V78.51H603c-.75,0-1.12-.35-1.12-1.05V72.64c0-.7.37-1,1.12-1h2.94V66.93c0-.7.37-1,1.12-1h6.27c.75,0,1.13.34,1.13,1v4.66h5.14c.75,0,1.13.35,1.13,1v4.82c0,.7-.38,1.05-1.13,1.05h-5.14v3.9c0,1.68,1,2.53,3.09,2.53a12.87,12.87,0,0,0,2.57-.28c.81-.14,1.25.16,1.33.88l.6,4.74a1,1,0,0,1-.84,1.25A20.21,20.21,0,0,1,615.87,92.25Z"/><path class="cls-1" d="M635.16,92.25a12.12,12.12,0,0,1-8.52-3,11,11,0,0,1,0-15.54,12.2,12.2,0,0,1,8.52-2.93,12.33,12.33,0,0,1,8.59,2.93,11,11,0,0,1,0,15.54A12.25,12.25,0,0,1,635.16,92.25Zm0-6.63a4.15,4.15,0,0,0,3-1.12,4.42,4.42,0,0,0,0-6,4.15,4.15,0,0,0-3-1.13,4.1,4.1,0,1,0,0,8.2Z"/></g></g></svg>