<svg id="ico_pobreza_normal" xmlns="http://www.w3.org/2000/svg" width="140" height="140" viewBox="0 0 140 140">
  <rect id="Rectangle_7" data-name="Rectangle 7" width="140" height="140" transform="translate(0)" fill="none"/>
  <g id="Group_7793" data-name="Group 7793" transform="translate(-128.478 -31.025)">
    <g id="Group_7791" data-name="Group 7791" transform="translate(161.725 54.965)">
      <g id="Group_7779" data-name="Group 7779" transform="translate(36.226 50.092)">
        <path id="Path_16303" data-name="Path 16303" d="M235.157,132.254a21.565,21.565,0,0,1,1.919,2.552A19.1,19.1,0,1,1,220.8,167.667c-.578.047-1.161.077-1.751.077-.483,0-.96-.021-1.434-.053a21.4,21.4,0,1,0,17.537-35.437Z" transform="translate(-217.62 -132.254)" fill="#6abfa6"/>
      </g>
      <path id="Path_16304" data-name="Path 16304" d="M211.244,161.213a15.82,15.82,0,1,1,15.82-15.819A15.837,15.837,0,0,1,211.244,161.213Zm0-29.335a13.516,13.516,0,1,0,13.516,13.516A13.531,13.531,0,0,0,211.244,131.878Z" transform="translate(-173.583 -81.219)" fill="#6abfa6"/>
      <g id="Group_7780" data-name="Group 7780">
        <path id="Path_16305" data-name="Path 16305" d="M231.7,98.515a1.174,1.174,0,0,1-.207-.019l-15.483-2.821a1.152,1.152,0,0,1-.608-1.948l2.32-2.32L205.816,79.5l-9.779,9.779a1.152,1.152,0,0,1-1.629,0L162.063,56.932a1.152,1.152,0,1,1,1.629-1.629l31.53,31.53L205,77.054a1.152,1.152,0,0,1,1.629,0l13.539,13.539a1.151,1.151,0,0,1,0,1.629L218.59,93.8l11.649,2.122-2.333-11.572-1.6,1.853a1.153,1.153,0,0,1-1.687.062L206.191,67.838l-9.089,9.09a1.154,1.154,0,0,1-1.629,0L175.6,57.057a1.152,1.152,0,0,1,1.629-1.629l19.055,19.056,9.09-9.089a1.151,1.151,0,0,1,1.629,0l18.366,18.366,2.325-2.7a1.152,1.152,0,0,1,2,.524l3.134,15.546a1.153,1.153,0,0,1-1.129,1.38Z" transform="translate(-161.725 -54.965)" fill="#6abfa6"/>
      </g>
      <g id="Group_7781" data-name="Group 7781" transform="translate(0.376 9.151)">
        <path id="Path_16306" data-name="Path 16306" d="M163.458,115.267a1.152,1.152,0,0,1-1.152-1.152V70.237a1.152,1.152,0,1,1,2.3,0v43.878A1.152,1.152,0,0,1,163.458,115.267Z" transform="translate(-162.306 -69.085)" fill="#6abfa6"/>
      </g>
      <g id="Group_7782" data-name="Group 7782" transform="translate(15.045 23.443)">
        <path id="Path_16307" data-name="Path 16307" d="M186.09,115.254a1.152,1.152,0,0,1-1.152-1.152V92.288a1.152,1.152,0,1,1,2.3,0V114.1A1.152,1.152,0,0,1,186.09,115.254Z" transform="translate(-184.938 -91.136)" fill="#6abfa6"/>
      </g>
      <g id="Group_7783" data-name="Group 7783" transform="translate(44.255 32.093)">
        <path id="Path_16308" data-name="Path 16308" d="M231.159,118.446a1.152,1.152,0,0,1-1.152-1.152V105.635a1.152,1.152,0,1,1,2.3,0v11.659A1.152,1.152,0,0,1,231.159,118.446Z" transform="translate(-230.007 -104.483)" fill="#6abfa6"/>
      </g>
      <g id="Group_7784" data-name="Group 7784" transform="translate(29.586 37.985)">
        <path id="Path_16309" data-name="Path 16309" d="M208.527,121.645a1.152,1.152,0,0,1-1.152-1.152v-5.767a1.152,1.152,0,1,1,2.3,0v5.767A1.152,1.152,0,0,1,208.527,121.645Z" transform="translate(-207.375 -113.574)" fill="#6abfa6"/>
      </g>
      <g id="Group_7785" data-name="Group 7785" transform="translate(58.797 45.507)">
        <path id="Path_16310" data-name="Path 16310" d="M253.6,133.251a1.152,1.152,0,0,1-1.152-1.152v-5.766a1.152,1.152,0,1,1,2.3,0V132.1A1.152,1.152,0,0,1,253.6,133.251Z" transform="translate(-252.445 -125.18)" fill="#6abfa6"/>
      </g>
      <g id="Group_7786" data-name="Group 7786" transform="translate(1.21 50.065)">
        <path id="Path_16311" data-name="Path 16311" d="M200.043,167.729c-.708,0-1.408-.036-2.1-.1a19.1,19.1,0,1,1-15.874-32.91,21.609,21.609,0,0,1,1.894-2.5A21.406,21.406,0,1,0,201.078,167.7C200.735,167.719,200.39,167.729,200.043,167.729Z" transform="translate(-163.592 -132.212)" fill="#6abfa6"/>
      </g>
      <g id="Group_7787" data-name="Group 7787" transform="translate(6.797 56.406)">
        <path id="Path_16312" data-name="Path 16312" d="M194.013,169.152a13.513,13.513,0,1,1-11.761-24.33,21.219,21.219,0,0,1,.883-2.826,15.817,15.817,0,1,0,13.627,28.224A21.088,21.088,0,0,1,194.013,169.152Z" transform="translate(-172.213 -141.996)" fill="#6abfa6"/>
      </g>
      <g id="Group_7788" data-name="Group 7788" transform="translate(43.715 56.553)">
        <path id="Path_16313" data-name="Path 16313" d="M243.12,142.223a21.3,21.3,0,0,1,.874,2.893,13.512,13.512,0,0,1-12.007,24.205,21.25,21.25,0,0,1-2.814,1.054,15.815,15.815,0,1,0,13.946-28.152Z" transform="translate(-229.174 -142.223)" fill="#6abfa6"/>
      </g>
      <g id="Group_7790" data-name="Group 7790" transform="translate(16.254 42.768)">
        <g id="Group_7789" data-name="Group 7789">
          <path id="Path_16314" data-name="Path 16314" d="M208.211,163.767a21.407,21.407,0,1,1,21.407-21.407A21.431,21.431,0,0,1,208.211,163.767Zm0-40.51a19.1,19.1,0,1,0,19.1,19.1A19.125,19.125,0,0,0,208.211,123.257Z" transform="translate(-186.804 -120.953)" fill="#6abfa6"/>
        </g>
      </g>
    </g>
    <g id="Group_7792" data-name="Group 7792" transform="translate(193.72 111.437)">
      <path id="Path_16315" data-name="Path 16315" d="M221.622,152.762a3.232,3.232,0,0,1-1.046,2.454,4.974,4.974,0,0,1-2.826,1.228v1.5q0,.328-.311.328h-1.5q-.311,0-.311-.328v-1.487a5.886,5.886,0,0,1-3.086-1.218,3.872,3.872,0,0,1-1.443-2.5c-.023-.23.087-.345.329-.345h2.057a.371.371,0,0,1,.363.277,1.92,1.92,0,0,0,.959,1.21,3.662,3.662,0,0,0,1.876.449,2.761,2.761,0,0,0,1.513-.363,1.12,1.12,0,0,0,.561-.985,1.067,1.067,0,0,0-.4-.865,2.556,2.556,0,0,0-1.029-.483q-.631-.157-1.392-.277a12.305,12.305,0,0,1-1.53-.346,6.634,6.634,0,0,1-1.4-.579,2.676,2.676,0,0,1-1.029-1.072,3.533,3.533,0,0,1-.4-1.737,3.272,3.272,0,0,1,1.1-2.524,5,5,0,0,1,2.948-1.193v-1.486c0-.218.1-.329.311-.329h1.5c.207,0,.311.11.311.329V144a5.3,5.3,0,0,1,2.567,1.158,3.7,3.7,0,0,1,1.27,2.2q.053.329-.311.329H219.2a.41.41,0,0,1-.4-.259,1.726,1.726,0,0,0-.778-1.037,2.71,2.71,0,0,0-1.452-.363,2.625,2.625,0,0,0-1.5.389,1.207,1.207,0,0,0-.57,1.045,1.172,1.172,0,0,0,.528,1.011,3.132,3.132,0,0,0,1.322.5q.8.129,1.712.345a13.571,13.571,0,0,1,1.711.519,2.841,2.841,0,0,1,1.322,1.045A3.181,3.181,0,0,1,221.622,152.762Z" transform="translate(-211.091 -142.097)" fill="#6abfa6"/>
    </g>
  </g>
</svg>
