<svg id="ico_familia_normal" xmlns="http://www.w3.org/2000/svg" width="140" height="140" viewBox="0 0 140 140">
  <rect id="Rectangle_7" data-name="Rectangle 7" width="140" height="140" transform="translate(0)" fill="none"/>
  <g id="Group_4325" data-name="Group 4325" transform="translate(26.022 35.596)">
    <g id="Group_428" data-name="Group 428" transform="translate(0 0)">
      <path id="Path_1085" data-name="Path 1085" d="M22.28,39h-11.8A1.48,1.48,0,0,0,9,40.476v11.8a1.48,1.48,0,0,0,1.476,1.476h11.8a1.48,1.48,0,0,0,1.476-1.476v-11.8A1.47,1.47,0,0,0,22.28,39ZM14.9,50.8H11.951V41.951H14.9Zm5.9,0H17.853V41.951H20.8Z" transform="translate(4.282 -2.104)" fill="#f7741c"/>
      <path id="Path_1086" data-name="Path 1086" d="M42.476,53.755h11.8a1.48,1.48,0,0,0,1.476-1.476v-11.8A1.48,1.48,0,0,0,54.28,39h-11.8A1.48,1.48,0,0,0,41,40.476v11.8A1.48,1.48,0,0,0,42.476,53.755Zm7.378-11.8H52.8V50.8H49.853Zm-5.9,0H46.9V50.8H43.951Z" transform="translate(19.499 -2.104)" fill="#f7741c"/>
      <path id="Path_1087" data-name="Path 1087" d="M87.868,42.273,75.253,34.011V16.953h1.476a1.476,1.476,0,0,0,0-2.951H59.022a1.476,1.476,0,1,0,0,2.951H60.5v7.392L45.078,14.238a1.474,1.474,0,0,0-1.623,0L.665,42.273A1.474,1.474,0,0,0,.237,44.31a1.491,1.491,0,0,0,.192.236l4,4V80.4A1.48,1.48,0,0,0,5.9,81.877H82.63A1.48,1.48,0,0,0,84.106,80.4V48.544l4-4a1.469,1.469,0,0,0,0-2.081A1.49,1.49,0,0,0,87.868,42.273Zm-24.42-25.32H72.3V32.078l-8.853-5.8Zm-11.8,61.972H36.889V56.793a7.378,7.378,0,0,1,14.755,0Zm29.511,0H54.6V56.793a10.329,10.329,0,0,0-20.657,0h0V78.926H7.378V48.736L44.267,24.611,81.155,48.736Zm1.284-32.875L45.078,21.616a1.45,1.45,0,0,0-1.608,0L6.109,46.051l-2.3-2.3,40.459-26.5,40.459,26.5Z" transform="translate(0.002 -13.995)" fill="#f7741c"/>
      <ellipse id="Ellipse_55" data-name="Ellipse 55" cx="1.371" cy="1.827" rx="1.371" ry="1.827" transform="translate(39.29 48.378)" fill="#f7741c"/>
    </g>
  </g>
</svg>
