<svg id="ico_educación_normal" xmlns="http://www.w3.org/2000/svg" width="140" height="140" viewBox="0 0 140 140">
  <rect id="Rectangle_7" data-name="Rectangle 7" width="140" height="140" transform="translate(0)" fill="none"/>
  <g id="Group_4324" data-name="Group 4324" transform="translate(34.449 33.316)">
    <g id="Group_439" data-name="Group 439" transform="translate(0)">
      <g id="Group_438" data-name="Group 438">
        <g id="Group_437" data-name="Group 437">
          <path id="Path_1104" data-name="Path 1104" d="M171.923,224.375h7.519a1.253,1.253,0,1,0,0-2.505h-7.519a1.253,1.253,0,1,0,0,2.505Z" transform="translate(-145.605 -189.285)" fill="#efaf30"/>
          <path id="Path_1105" data-name="Path 1105" d="M63.915,10.026h-37.6a1.253,1.253,0,0,0,0,2.506H62.663v56.4a3.858,3.858,0,0,1-3.76,3.76H6.267a3.858,3.858,0,0,1-3.76-3.76V11.383a6.882,6.882,0,0,0,2.507,1.022V68.929a1.253,1.253,0,0,0,2.506,0V11.279a1.258,1.258,0,0,0-1.247-1.253,3.575,3.575,0,0,1-3.766-3.76V5.014A2.509,2.509,0,0,1,5.014,2.507h58.9a1.253,1.253,0,0,0,0-2.507H5.012A5.018,5.018,0,0,0,0,5.012V68.928a6.351,6.351,0,0,0,6.267,6.267H58.9a6.352,6.352,0,0,0,6.267-6.267V11.279A1.255,1.255,0,0,0,63.915,10.026Z" fill="#efaf30"/>
          <path id="Path_1106" data-name="Path 1106" d="M91.789,35.393a1.253,1.253,0,0,0-1.253-1.253h-40.1a1.253,1.253,0,0,0-1.253,1.253V47.406L46.3,44.532a1.252,1.252,0,0,0-1.773,0l-2.874,2.874V35.393a1.253,1.253,0,0,0-1.253-1.253H35.393a1.253,1.253,0,0,0,0,2.506h3.76V50.432a1.252,1.252,0,0,0,2.138.886l4.127-4.127,4.127,4.127a1.252,1.252,0,0,0,2.138-.886V36.646h38.85A1.255,1.255,0,0,0,91.789,35.393Z" transform="translate(-29.126 -29.126)" fill="#efaf30"/>
          <path id="Path_1107" data-name="Path 1107" d="M119.47,171.923v20.051a1.253,1.253,0,0,0,1.253,1.253h27.571a1.253,1.253,0,0,0,1.253-1.253V171.923a1.253,1.253,0,0,0-1.253-1.253H120.723A1.253,1.253,0,0,0,119.47,171.923Zm2.506,1.253h25.065v17.546H121.975Z" transform="translate(-101.924 -145.605)" fill="#efaf30"/>
          <path id="Path_1108" data-name="Path 1108" d="M184.455,256H171.923a1.253,1.253,0,0,0,0,2.506h12.532a1.253,1.253,0,0,0,0-2.506Z" transform="translate(-145.605 -218.403)" fill="#efaf30"/>
        </g>
      </g>
    </g>
  </g>
</svg>
