<svg id="ico_economia_normal" xmlns="http://www.w3.org/2000/svg" width="140" height="140" viewBox="0 0 140 140">
  <rect id="Rectangle_7" data-name="Rectangle 7" width="140" height="140" transform="translate(0)" fill="none"/>
  <g id="Group_4326" data-name="Group 4326" transform="translate(23.701 35.432)">
    <g id="Group_429" data-name="Group 429" transform="translate(0 0)">
      <path id="Path_1088" data-name="Path 1088" d="M90.873,38.73a23.523,23.523,0,0,0-3.336-6.557c0-.012,0-.012-.012-.023s-.012-.012-.023-.023a23.262,23.262,0,0,0-5.176-5.176c-.011,0-.011-.012-.011-.023s-.012,0-.023-.012a23.283,23.283,0,0,0-12.745-4.44,23.47,23.47,0,0,0-1.093-6.131V16.3c-.012-.023-.023-.035-.035-.058a23.492,23.492,0,0,0-3.255-6.373.867.867,0,0,0-.069-.15c-.035-.058-.092-.081-.138-.127A24.111,24.111,0,0,0,60,4.636a.659.659,0,0,0-.127-.127c-.046-.035-.092-.035-.138-.069a23.492,23.492,0,0,0-6.373-3.255l-.069-.035h-.046a23.33,23.33,0,0,0-14.471,0H38.73c-.023.012-.035.023-.058.035A23.492,23.492,0,0,0,32.3,4.44a.517.517,0,0,0-.138.069c-.046.035-.081.092-.127.127a23.831,23.831,0,0,0-4.958,4.958,1.379,1.379,0,0,0-.138.127.6.6,0,0,0-.069.15,23.492,23.492,0,0,0-3.255,6.373c-.012.023-.023.035-.035.058v.046a23.47,23.47,0,0,0-1.093,6.131A23.183,23.183,0,0,0,9.743,26.928c-.012,0-.012,0-.023.012s-.012.012-.023.023a23.262,23.262,0,0,0-5.176,5.176l-.023.023a.036.036,0,0,0-.012.023,23.563,23.563,0,0,0,0,27.664c0,.012,0,.012.012.023a.011.011,0,0,0,.012.011A23.61,23.61,0,0,0,9.7,65.072c.012,0,.012.012.012.023a.042.042,0,0,0,.035.011,23.53,23.53,0,0,0,27.653,0,.042.042,0,0,1,.035-.011c.012,0,.012-.012.023-.023A23.262,23.262,0,0,0,42.63,59.9c0-.012.011-.012.023-.012a.036.036,0,0,0,.012-.023A23.308,23.308,0,0,0,46,53.316V53.3h0a23.523,23.523,0,0,0,3.336,6.557c0,.012,0,.012.012.023a.011.011,0,0,0,.012.011,23.61,23.61,0,0,0,5.188,5.188c.012,0,.012.012.012.023a.042.042,0,0,0,.035.011,23.53,23.53,0,0,0,27.653,0,.042.042,0,0,1,.035-.011c.012,0,.012-.012.023-.023a23.262,23.262,0,0,0,5.176-5.176c0-.012.012-.012.023-.012a.036.036,0,0,0,.012-.023A23.483,23.483,0,0,0,92,46.046,23.662,23.662,0,0,0,90.873,38.73ZM44.148,51.487l-1.058-.345a1.149,1.149,0,0,0-.713,2.186l1.047.345a20.661,20.661,0,0,1-1.99,3.888l-.9-.644a1.153,1.153,0,1,0-1.357,1.863l.9.644a20.709,20.709,0,0,1-3.094,3.094l-.644-.9a1.153,1.153,0,1,0-1.863,1.357l.644.9a21.746,21.746,0,0,1-3.888,1.99l-.345-1.047a1.149,1.149,0,0,0-2.186.713l.345,1.058a20.937,20.937,0,0,1-4.314.679V66.142a1.15,1.15,0,1,0-2.3,0v1.1a20.938,20.938,0,0,1-4.314-.679l.345-1.058a1.149,1.149,0,1,0-2.186-.713l-.345,1.058a20.66,20.66,0,0,1-3.888-1.99l.644-.9a1.153,1.153,0,0,0-1.863-1.357l-.644.9a20.709,20.709,0,0,1-3.094-3.094l.9-.644A1.153,1.153,0,1,0,6.626,56.9l-.9.644a21.745,21.745,0,0,1-1.99-3.888l1.047-.345a1.149,1.149,0,1,0-.713-2.186l-1.058.345a21.6,21.6,0,0,1-.667-4.314h1.1a1.15,1.15,0,1,0,0-2.3h-1.1a21.615,21.615,0,0,1,.679-4.314l1.058.345a1.283,1.283,0,0,0,.357.058A1.15,1.15,0,0,0,4.8,38.707L3.75,38.362a20.661,20.661,0,0,1,1.99-3.888l.9.644a1.137,1.137,0,0,0,.679.219,1.151,1.151,0,0,0,.679-2.082l-.9-.644a20.709,20.709,0,0,1,3.094-3.094l.644.9a1.15,1.15,0,0,0,.932.472,1.162,1.162,0,0,0,.679-.219,1.144,1.144,0,0,0,.253-1.61l-.644-.886a21.745,21.745,0,0,1,3.888-1.99l.345,1.047a1.157,1.157,0,0,0,1.093.794,1.283,1.283,0,0,0,.357-.058,1.147,1.147,0,0,0,.736-1.449l-.345-1.058a20.939,20.939,0,0,1,4.325-.69v1.116a1.14,1.14,0,0,0,.184.587q.1.863.276,1.725a17.1,17.1,0,0,0-6.5,1.507,1.146,1.146,0,1,0,.932,2.094,14.76,14.76,0,0,1,6.143-1.3,1.257,1.257,0,0,1,.058.2,1.18,1.18,0,0,1,.046.161c.207.621.437,1.242.69,1.852.035.081.069.15.1.219.253.587.529,1.15.828,1.714.081.15.161.3.253.449.265.483.552.943.851,1.4.1.161.207.311.311.46s.2.311.311.46c0,.012,0,.012.012.023a.011.011,0,0,0,.012.011c.242.322.495.633.748.955.046.058.081.115.127.173-.069-.012.92,1.748.92,1.116,0-.023,1.426,1.38,2.22,2.036.069.058.15.115.219.173.311.253.621.506.943.748.012,0,.012.012.012.023a.042.042,0,0,0,.035.012c.138.1.3.2.437.3.161.115.322.219.483.322.46.3.92.587,1.392.851.15.081.3.173.449.253.575.311,1.15.587,1.748.84.058.023.115.058.184.081.6.253,1.219.483,1.84.69h.012a.848.848,0,0,0,.161.046c.069.023.138.046.219.069A15.14,15.14,0,0,1,37.8,52.269a1.151,1.151,0,0,0,.587,1.518,1.125,1.125,0,0,0,.472.1,1.141,1.141,0,0,0,1.047-.679,17.692,17.692,0,0,0,1.484-6.5h.023c.564.115,1.15.207,1.725.276a1.166,1.166,0,0,0,.575.173h1.116A20.926,20.926,0,0,1,44.148,51.487Zm1.863-8.926a1.154,1.154,0,0,0-1.15,1.15V44.8c-.265-.012-.529-.012-.794-.035-.15-.011-.288-.023-.437-.046-.621-.069-1.242-.161-1.852-.288l-.3-.069c-.322-.069-.633-.161-.955-.242l.334-1.047a1.149,1.149,0,1,0-2.186-.713l-.334,1.047c-.2-.081-.391-.138-.587-.219-.058-.023-.127-.058-.184-.081-.529-.23-1.047-.483-1.553-.748-.138-.081-.276-.161-.414-.23-.391-.219-.771-.46-1.15-.7l.644-.886a1.153,1.153,0,1,0-1.863-1.357l-.644.9-.173-.138a21.216,21.216,0,0,1-2.784-2.784l-.138-.173.9-.644a1.144,1.144,0,0,0,.253-1.61,1.156,1.156,0,0,0-1.61-.253l-.886.644c-.242-.38-.472-.759-.7-1.15-.081-.138-.161-.288-.242-.426-.265-.483-.495-.989-.725-1.5-.035-.081-.081-.161-.115-.253-.081-.184-.138-.38-.207-.575L27.2,30.9a1.149,1.149,0,0,0-.713-2.186l-1.047.334c-.081-.311-.173-.633-.242-.943-.023-.1-.046-.2-.069-.3-.127-.61-.219-1.219-.288-1.852-.012-.138-.035-.288-.046-.426-.023-.265-.023-.529-.035-.794h1.093a1.15,1.15,0,1,0,0-2.3H24.766a21.356,21.356,0,0,1,.679-4.314l1.047.334a1.283,1.283,0,0,0,.357.058,1.15,1.15,0,0,0,.357-2.243l-1.047-.334a21.3,21.3,0,0,1,1.978-3.888l.886.644a1.137,1.137,0,0,0,.679.219,1.151,1.151,0,0,0,.679-2.082l-.9-.644a20.71,20.71,0,0,1,3.094-3.094l.644.9a1.15,1.15,0,0,0,.932.472,1.162,1.162,0,0,0,.679-.219,1.144,1.144,0,0,0,.253-1.61L34.44,5.74a20.95,20.95,0,0,1,3.888-1.978l.334,1.047a1.157,1.157,0,0,0,1.093.794,1.283,1.283,0,0,0,.357-.058A1.147,1.147,0,0,0,40.847,4.1l-.334-1.047a21.356,21.356,0,0,1,4.314-.679V3.451a1.15,1.15,0,1,0,2.3,0V2.358a21.356,21.356,0,0,1,4.314.679l-.334,1.047a1.157,1.157,0,0,0,.736,1.449,1.283,1.283,0,0,0,.357.058A1.157,1.157,0,0,0,53.293,4.8l.334-1.047a21.3,21.3,0,0,1,3.888,1.978l-.644.886a1.153,1.153,0,0,0,1.863,1.357l.644-.9a20.71,20.71,0,0,1,3.094,3.094l-.9.644a1.151,1.151,0,0,0,.679,2.082,1.162,1.162,0,0,0,.679-.219l.886-.644A20.951,20.951,0,0,1,65.8,15.92l-1.047.334a1.143,1.143,0,0,0-.736,1.449,1.157,1.157,0,0,0,1.093.794,1.283,1.283,0,0,0,.357-.058l1.047-.334a21.356,21.356,0,0,1,.679,4.314H66.142a1.15,1.15,0,1,0,0,2.3h1.093c-.012.265-.012.529-.035.782-.012.15-.023.3-.046.437-.069.621-.161,1.231-.276,1.84l-.069.311c-.069.322-.161.633-.242.943L65.52,28.7a1.149,1.149,0,0,0-.713,2.186l1.047.334c-.069.2-.138.391-.219.587-.035.069-.069.138-.1.219-.23.518-.472,1.035-.736,1.53-.081.138-.161.288-.242.426q-.328.587-.69,1.139l-.886-.644a1.153,1.153,0,0,0-1.357,1.863l.9.644-.138.173A21.217,21.217,0,0,1,59.6,39.938l-.173.138-.644-.9a1.153,1.153,0,0,0-1.863,1.357l.644.886c-.38.242-.759.472-1.15.7-.138.081-.288.161-.426.242q-.742.4-1.518.725c-.081.035-.15.069-.23.1-.184.081-.391.138-.575.207l-.334-1.047a1.149,1.149,0,1,0-2.186.713l.334,1.047c-.322.092-.644.184-.978.253a2.175,2.175,0,0,1-.265.058c-.61.127-1.231.219-1.863.288-.138.011-.276.023-.414.046-.265.023-.529.023-.794.046V43.711A1.154,1.154,0,0,0,46.012,42.561Zm42.561,4.6h1.1A21.614,21.614,0,0,1,89,51.475l-1.058-.345a1.149,1.149,0,0,0-.713,2.186l1.047.345a20.661,20.661,0,0,1-1.99,3.888l-.9-.644a1.153,1.153,0,0,0-1.357,1.863l.9.644a20.708,20.708,0,0,1-3.094,3.094l-.644-.9a1.153,1.153,0,0,0-1.863,1.357l.644.9a21.746,21.746,0,0,1-3.888,1.99l-.345-1.047a1.149,1.149,0,0,0-2.186.713l.345,1.058a20.938,20.938,0,0,1-4.314.679V66.142a1.15,1.15,0,1,0-2.3,0v1.1a20.938,20.938,0,0,1-4.314-.679l.345-1.058a1.149,1.149,0,1,0-2.186-.713l-.345,1.058a20.66,20.66,0,0,1-3.888-1.99l.644-.9a1.153,1.153,0,0,0-1.863-1.357l-.644.9a20.709,20.709,0,0,1-3.094-3.094l.9-.644A1.153,1.153,0,1,0,51.475,56.9l-.9.644a21.745,21.745,0,0,1-1.99-3.888l1.047-.345a1.149,1.149,0,1,0-.713-2.186l-1.058.345a20.938,20.938,0,0,1-.69-4.325h1.139a1.14,1.14,0,0,0,.587-.184c.587-.069,1.173-.161,1.748-.276a17.243,17.243,0,0,0,1.484,6.5,1.153,1.153,0,0,0,2.105-.943A15.1,15.1,0,0,1,52.925,46.1l.207-.069a1.182,1.182,0,0,1,.161-.046c.621-.207,1.242-.437,1.852-.69.081-.035.15-.069.219-.1.587-.253,1.15-.529,1.714-.828.15-.081.3-.173.46-.253.472-.265.932-.541,1.392-.84.161-.1.322-.219.483-.322s.3-.2.437-.3a.042.042,0,0,1,.035-.012c.012,0,.012-.012.023-.023.322-.23.633-.483.932-.736.081-.058.15-.115.23-.184A23.132,23.132,0,0,0,64.163,38.6c.058-.069.115-.15.184-.23.253-.311.506-.621.736-.943,0-.012.011-.012.023-.012a.036.036,0,0,0,.011-.023c.1-.15.2-.3.3-.449s.219-.322.322-.483c.3-.46.587-.92.851-1.4.081-.15.173-.288.253-.437.311-.575.587-1.162.84-1.748.023-.058.058-.115.081-.184.253-.6.483-1.219.69-1.84a.958.958,0,0,0,.046-.173l.069-.207a14.582,14.582,0,0,1,6.143,1.3,1.125,1.125,0,0,0,.472.1,1.147,1.147,0,0,0,.46-2.2,17.051,17.051,0,0,0-6.5-1.507q.173-.845.276-1.725a1.14,1.14,0,0,0,.184-.587V24.743a21.063,21.063,0,0,1,4.325.69l-.345,1.058a1.157,1.157,0,0,0,.736,1.449,1.283,1.283,0,0,0,.357.058,1.157,1.157,0,0,0,1.093-.794l.345-1.058A20.661,20.661,0,0,1,80,28.136l-.644.9a1.153,1.153,0,0,0,1.863,1.357l.644-.9a20.71,20.71,0,0,1,3.094,3.094l-.9.644a1.151,1.151,0,0,0,.679,2.082,1.162,1.162,0,0,0,.679-.219l.9-.644a21.746,21.746,0,0,1,1.99,3.888l-1.047.345a1.143,1.143,0,0,0-.736,1.449,1.157,1.157,0,0,0,1.093.794,1.283,1.283,0,0,0,.357-.058l1.058-.345a20.939,20.939,0,0,1,.679,4.314H88.572a1.154,1.154,0,0,0-1.15,1.15A1.174,1.174,0,0,0,88.572,47.162Z" transform="translate(0 0)" fill="#397ad8"/>
      <path id="Path_1089" data-name="Path 1089" d="M61.062,46.454H56.15a1.15,1.15,0,1,0,0,2.3h2.876V49.9a1.15,1.15,0,1,0,2.3,0V48.731a4.307,4.307,0,0,0-.322-8.6H59.279a2.013,2.013,0,0,1,.011-4.026H64.2a1.15,1.15,0,0,0,0-2.3H61.327V32.65a1.15,1.15,0,0,0-2.3,0v1.173a4.307,4.307,0,0,0,.265,8.6h1.7a2.037,2.037,0,0,1,2.059,2.036A1.991,1.991,0,0,1,61.062,46.454Z" transform="translate(8.266 4.734)" fill="#397ad8"/>
      <path id="Path_1090" data-name="Path 1090" d="M75.321,33.253a1.161,1.161,0,0,0-.587,1.518,15.126,15.126,0,0,1,1.323,6.258A15.552,15.552,0,0,1,60.529,56.557a15.3,15.3,0,0,1-6.258-1.311,1.151,1.151,0,0,0-.932,2.105,17.641,17.641,0,0,0,7.189,1.518A17.862,17.862,0,0,0,78.358,41.028a17.5,17.5,0,0,0-1.518-7.189A1.157,1.157,0,0,0,75.321,33.253Z" transform="translate(7.913 4.983)" fill="#397ad8"/>
      <path id="Path_1091" data-name="Path 1091" d="M29.087,55.246a15.3,15.3,0,0,1-6.258,1.311A15.552,15.552,0,0,1,7.3,41.029a15.3,15.3,0,0,1,1.311-6.258,1.151,1.151,0,1,0-2.105-.932A17.842,17.842,0,0,0,22.829,58.858a17.455,17.455,0,0,0,7.189-1.518,1.161,1.161,0,0,0,.587-1.518A1.146,1.146,0,0,0,29.087,55.246Z" transform="translate(0.751 4.983)" fill="#397ad8"/>
      <path id="Path_1092" data-name="Path 1092" d="M39.791,16.6H44.7a1.15,1.15,0,0,0,0-2.3H41.827V13.15a1.15,1.15,0,1,0-2.3,0v1.173a4.307,4.307,0,0,0,.265,8.6h1.7a2.037,2.037,0,0,1,2.059,2.036,1.991,1.991,0,0,1-1.99,1.99H36.65a1.15,1.15,0,1,0,0,2.3h2.876V30.4a1.15,1.15,0,1,0,2.3,0V29.231a4.307,4.307,0,0,0-.322-8.6H39.779a2.013,2.013,0,0,1,.011-4.026Z" transform="translate(5.335 1.803)" fill="#397ad8"/>
      <path id="Path_1095" data-name="Path 1095" d="M39.791,16.6H44.7a1.15,1.15,0,0,0,0-2.3H41.827V13.15a1.15,1.15,0,1,0-2.3,0v1.173a4.307,4.307,0,0,0,.265,8.6h1.7a2.037,2.037,0,0,1,2.059,2.036,1.991,1.991,0,0,1-1.99,1.99H36.65a1.15,1.15,0,1,0,0,2.3h2.876V30.4a1.15,1.15,0,1,0,2.3,0V29.231a4.307,4.307,0,0,0-.322-8.6H39.779a2.013,2.013,0,0,1,.011-4.026Z" transform="translate(-16.745 24.803)" fill="#397ad8"/>
      <path id="Path_1093" data-name="Path 1093" d="M48.587,8.612a1.151,1.151,0,0,0,.932-2.105A17.631,17.631,0,0,0,42.329,5,17.845,17.845,0,0,0,24.5,22.829a17.5,17.5,0,0,0,1.518,7.189,1.153,1.153,0,0,0,1.047.679,1.161,1.161,0,0,0,1.058-1.622,15.3,15.3,0,0,1-1.311-6.258A15.533,15.533,0,0,1,42.329,7.3,15.3,15.3,0,0,1,48.587,8.612Z" transform="translate(3.682 0.751)" fill="#397ad8"/>
      <path id="Path_1094" data-name="Path 1094" d="M58.858,21.528a17.5,17.5,0,0,0-1.518-7.189,1.151,1.151,0,0,0-2.105.932,15.3,15.3,0,0,1,1.311,6.258A15.535,15.535,0,0,1,41.029,37.057a15.3,15.3,0,0,1-6.258-1.311,1.151,1.151,0,1,0-.932,2.105,17.631,17.631,0,0,0,7.189,1.507A17.845,17.845,0,0,0,58.858,21.528Z" transform="translate(4.983 2.052)" fill="#397ad8"/>
    </g>
  </g>
</svg>
