<svg id="ico_toma_decisiones_normal" xmlns="http://www.w3.org/2000/svg" width="140" height="140" viewBox="0 0 140 140">
  <rect id="Rectangle_7" data-name="Rectangle 7" width="140" height="140" transform="translate(0)" fill="none"/>
  <g id="Group_4328" data-name="Group 4328" transform="translate(23.371 29.829)">
    <g id="Group_449" data-name="Group 449" transform="translate(0 0)">
      <g id="Group_440" data-name="Group 440" transform="translate(27.933 20.286)">
        <path id="Path_1109" data-name="Path 1109" d="M164.462,130.6a.963.963,0,0,1-.678-.28L146.5,113.037a.958.958,0,1,1,1.355-1.355l16.6,16.6,3.722-3.722-16.411-16.41-4.4,4.4a.958.958,0,1,1-1.355-1.355l5.077-5.077a.962.962,0,0,1,1.357,0l17.766,17.766a.959.959,0,0,1,0,1.355l-5.077,5.077A.969.969,0,0,1,164.462,130.6Z" transform="translate(-145.738 -105.84)" fill="#16496b" stroke="#16496b" stroke-width="1"/>
      </g>
      <g id="Group_441" data-name="Group 441" transform="translate(34.287 6.338)">
        <path id="Path_1110" data-name="Path 1110" d="M195.065,65.419a.963.963,0,0,1-.678-.28L179.168,49.921a.959.959,0,0,1,0-1.355l15.218-15.218a.959.959,0,0,1,1.355,0l13.44,13.44a.958.958,0,0,1-1.355,1.355L195.063,35.379,181.2,49.243l13.863,13.863,13.99-13.99a.958.958,0,1,1,1.355,1.355L195.739,65.14A.943.943,0,0,1,195.065,65.419Z" transform="translate(-178.888 -33.067)" fill="#16496b" stroke="#16496b" stroke-width="1"/>
      </g>
      <g id="Group_442" data-name="Group 442" transform="translate(48.231 0)">
        <path id="Path_1111" data-name="Path 1111" d="M270.362,24.744a.965.965,0,0,1-.678-.28L256.917,11.7a.958.958,0,0,1,1.355-1.355l12.09,12.09,3.707-3.709L257.658,2.313,253.273,6.7a.958.958,0,1,1-1.355-1.355L256.982.28a.963.963,0,0,1,1.357,0L276.1,18.045a.959.959,0,0,1,0,1.355l-5.064,5.062A.951.951,0,0,1,270.362,24.744Z" transform="translate(-251.637 0)" fill="#16496b" stroke="#16496b" stroke-width="1"/>
      </g>
      <g id="Group_443" data-name="Group 443" transform="translate(54.567 26.636)">
        <path id="Path_1112" data-name="Path 1112" d="M291.993,152.3h0a.965.965,0,0,1-.678-.28l-6.336-6.337a.959.959,0,0,1,0-1.355l5.077-5.077a.963.963,0,0,1,1.357,0l6.336,6.337a.962.962,0,0,1,0,1.357l-5.077,5.077A.975.975,0,0,1,291.993,152.3ZM287.011,145l4.981,4.981,3.722-3.722-4.981-4.981Z" transform="translate(-284.698 -138.97)" fill="#16496b" stroke="#16496b" stroke-width="1"/>
      </g>
      <g id="Group_444" data-name="Group 444" transform="translate(60.901 32.971)">
        <path id="Path_1113" data-name="Path 1113" d="M340.261,203.118h-.027a.96.96,0,0,1-.688-.32l-3.178-3.554a.958.958,0,0,1,1.428-1.278l2.5,2.8,6.191-6.191L323.819,174.3l-3.8,3.8,17.911,20.016a.958.958,0,0,1-1.428,1.278L317.989,178.7a.958.958,0,0,1,.036-1.317l5.077-5.077a.958.958,0,0,1,1.317-.036l24.1,21.555a.957.957,0,0,1,.04,1.392l-7.625,7.624A.956.956,0,0,1,340.261,203.118Z" transform="translate(-317.744 -172.024)" fill="#16496b" stroke="#16496b" stroke-width="1"/>
      </g>
      <g id="Group_445" data-name="Group 445" transform="translate(0 77.481)">
        <path id="Path_1114" data-name="Path 1114" d="M91.042,406.167H57.36a.958.958,0,0,1,0-1.917H91.042a.958.958,0,0,1,0,1.917Zm-32.583,0H.958a.958.958,0,0,1,0-1.917h57.5a.958.958,0,0,1,0,1.917Z" transform="translate(0 -404.25)" fill="#16496b" stroke="#16496b" stroke-width="1"/>
      </g>
      <g id="Group_446" data-name="Group 446" transform="translate(3.833 62.148)">
        <path id="Path_1115" data-name="Path 1115" d="M74.625,341.5H20.958a.959.959,0,0,1-.958-.958v-7.667a.958.958,0,0,1,1.917,0v6.708H74.625a.958.958,0,1,1,0,1.917Zm0-7.419a.959.959,0,0,1-.958-.958V332.2a6.044,6.044,0,0,0-6.037-6.038H27.954a6.039,6.039,0,0,0-4.516,2.032A.959.959,0,0,1,22,326.926a7.965,7.965,0,0,1,5.949-2.676H67.629a7.964,7.964,0,0,1,7.954,7.954v.918A.959.959,0,0,1,74.625,334.081Zm0,0a.959.959,0,0,1-.958-.958V332.2a6.044,6.044,0,0,0-6.037-6.038H27.954a6.039,6.039,0,0,0-4.516,2.032A.959.959,0,0,1,22,326.926a7.965,7.965,0,0,1,5.949-2.676H67.629a7.964,7.964,0,0,1,7.954,7.954v.918A.959.959,0,0,1,74.625,334.081Z" transform="translate(-20 -324.25)" fill="#16496b" stroke="#16496b" stroke-width="1"/>
      </g>
      <g id="Group_447" data-name="Group 447" transform="translate(13.417 52.565)">
        <path id="Path_1116" data-name="Path 1116" d="M105.458,285.75h-34.5a.959.959,0,0,1-.958-.958v-2.923a7.627,7.627,0,0,1,7.619-7.619H96.9a.958.958,0,0,1,0,1.917H77.619a5.71,5.71,0,0,0-5.7,5.7v1.965H104.5v-1.965a5.71,5.71,0,0,0-5.7-5.7H96.812a.958.958,0,0,1,0-1.917H98.8a7.627,7.627,0,0,1,7.619,7.619v2.923A.957.957,0,0,1,105.458,285.75Z" transform="translate(-70 -274.25)" fill="#16496b" stroke="#16496b" stroke-width="1"/>
      </g>
      <g id="Group_448" data-name="Group 448" transform="translate(3.833 69.815)">
        <path id="Path_1117" data-name="Path 1117" d="M74.625,366.167H20.958a.958.958,0,1,1,0-1.917H74.625a.958.958,0,1,1,0,1.917Z" transform="translate(-20 -364.25)" fill="#16496b" stroke="#16496b" stroke-width="1"/>
      </g>
    </g>
  </g>
</svg>
