<svg id="ico_poblacion_normal" xmlns="http://www.w3.org/2000/svg" width="140" height="140" viewBox="0 0 140 140">
  <rect id="Rectangle_7" data-name="Rectangle 7" width="140" height="140" transform="translate(0)" fill="none"/>
  <g id="Group_4094" data-name="Group 4094" transform="translate(23.847 23.848)">
    <g id="Group_4074" data-name="Group 4074" transform="translate(0 0)">
      <path id="Path_13869" data-name="Path 13869" d="M17.384,77.076c7.815,0,13.9-2.629,15.141-6.3l6.587-.823L38.731,66.9l-6.307.789c-1-2.465-4.194-4.421-8.886-5.383V59.567l2.226-1.114a1.54,1.54,0,0,0,.851-1.377V46.308a4.625,4.625,0,0,0-3.326-4.432A6.152,6.152,0,1,0,11.23,40.154a6.06,6.06,0,0,0,.251,1.721,4.623,4.623,0,0,0-3.328,4.432V57.077A1.54,1.54,0,0,0,9,58.454l2.226,1.112V62.3C5.5,63.476,2,66.129,2,69.384,2,73.77,8.614,77.076,17.384,77.076ZM11.23,46.308a1.54,1.54,0,0,1,1.538-1.538h1.2A1.539,1.539,0,0,0,15.11,42.2a3.067,3.067,0,0,1,2.826-5.077,3.1,3.1,0,0,1,2.452,2.361,3.039,3.039,0,0,1-.731,2.717A1.537,1.537,0,0,0,20.8,44.77H22a1.54,1.54,0,0,1,1.538,1.538v9.818L21.311,57.24a1.536,1.536,0,0,0-.851,1.375v9.23H14.307v-9.23a1.54,1.54,0,0,0-.851-1.377L11.23,56.126Zm0,19.144v3.932a1.538,1.538,0,0,0,1.538,1.538H22a1.538,1.538,0,0,0,1.538-1.538V65.452c4.009.943,6.154,2.64,6.154,3.932,0,1.883-4.8,4.615-12.307,4.615S5.077,71.267,5.077,69.384C5.077,68.093,7.221,66.395,11.23,65.452Z" transform="translate(-2 15.229)" fill="#e7014c"/>
      <path id="Path_13870" data-name="Path 13870" d="M44.812,60l-8.557-8.966L34.031,53.16l7.783,8.153c-2.3,1.337-3.594,3.094-3.594,5.071,0,.06.014.118.017.178l-6.361.8.382,3.052,7.2-.9c2.306,2.738,7.626,4.566,14.144,4.566,8.77,0,15.384-3.306,15.384-7.692,0-3.255-3.5-5.907-9.23-7.083V56.566l2.226-1.114a1.536,1.536,0,0,0,.851-1.375V43.308a4.625,4.625,0,0,0-3.326-4.432,6.152,6.152,0,1,0-12.058-1.721,6.06,6.06,0,0,0,.251,1.721,4.623,4.623,0,0,0-3.328,4.432V54.077a1.54,1.54,0,0,0,.851,1.377l2.226,1.112V59.3A23.606,23.606,0,0,0,44.812,60Zm21.1,6.383c0,1.883-4.8,4.615-12.307,4.615S41.3,68.267,41.3,66.384c0-1.291,2.145-2.989,6.154-3.932v3.932a1.538,1.538,0,0,0,1.538,1.538h9.23a1.538,1.538,0,0,0,1.538-1.538V62.452C63.767,63.395,65.911,65.093,65.911,66.384ZM47.451,43.308a1.54,1.54,0,0,1,1.538-1.538h1.2A1.539,1.539,0,0,0,51.331,39.2a3.067,3.067,0,0,1,2.826-5.077,3.1,3.1,0,0,1,2.452,2.361,3.039,3.039,0,0,1-.731,2.717,1.537,1.537,0,0,0,1.145,2.566h1.2a1.54,1.54,0,0,1,1.538,1.538v9.818L57.532,54.24a1.536,1.536,0,0,0-.851,1.375v9.23H50.528v-9.23a1.54,1.54,0,0,0-.851-1.377l-2.226-1.112Z" transform="translate(14.085 13.614)" fill="#e7014c"/>
      <path id="Path_13871" data-name="Path 13871" d="M14.615,18.038V25.73a1.54,1.54,0,0,0,.851,1.377l2.226,1.112v2.655C12.926,31.8,10,33.887,10,36.5c0,4.04,6.578,6.154,13.076,6.154l.109,0,14.232,14.91,2.225-2.125L27.162,42.363c4.907-.7,8.99-2.683,8.99-5.864,0-.071-.028-.137-.032-.208l11.029-1.655-.457-3.044L34.537,33.414a13.194,13.194,0,0,0-6.078-2.541V28.218L30.685,27.1a1.531,1.531,0,0,0,.852-1.374V18.038a4.626,4.626,0,0,0-3.36-4.443,5.475,5.475,0,0,0,.154-2.912,5.3,5.3,0,0,0-3.394-3.858,5.415,5.415,0,0,0-4.787.538A5.388,5.388,0,0,0,17.97,13.6,4.626,4.626,0,0,0,14.615,18.038ZM33.076,36.5c0,.92-3.4,3.077-10,3.077s-10-2.157-10-3.077c0-.562,1.423-1.772,4.615-2.5v2.5a1.538,1.538,0,0,0,1.538,1.538h7.692A1.538,1.538,0,0,0,28.461,36.5V34C31.653,34.726,33.076,35.937,33.076,36.5ZM17.692,18.038A1.54,1.54,0,0,1,19.23,16.5h1.555a1.538,1.538,0,0,0,.918-2.772,2.3,2.3,0,0,1,.118-3.781,2.338,2.338,0,0,1,2.088-.222,2.24,2.24,0,0,1,1.412,1.6,2.307,2.307,0,0,1-.883,2.4,1.538,1.538,0,0,0,.917,2.774h1.566a1.54,1.54,0,0,1,1.538,1.538v6.741l-2.226,1.114a1.536,1.536,0,0,0-.851,1.375V34.96H20.769V27.268a1.54,1.54,0,0,0-.851-1.377l-2.226-1.112Z" transform="translate(2.307 0.423)" fill="#e7014c"/>
      <path id="Path_13872" data-name="Path 13872" d="M66.232,26.375V23.719l2.226-1.114a1.536,1.536,0,0,0,.851-1.375V13.538A4.626,4.626,0,0,0,65.949,9.1,5.476,5.476,0,0,0,66.1,6.183a5.3,5.3,0,0,0-3.394-3.858,5.41,5.41,0,0,0-4.787.538A5.388,5.388,0,0,0,55.742,9.1a4.626,4.626,0,0,0-3.355,4.441V21.23a1.54,1.54,0,0,0,.851,1.377l2.226,1.112v2.655c-4.411.854-7.209,2.712-7.6,5.055l-8.007,1.2.457,3.044,8.393-1.26c2.028,2.458,7.1,3.737,12.147,3.737,6.5,0,13.076-2.114,13.076-6.154C73.924,29.387,71,27.3,66.232,26.375ZM55.464,13.538A1.54,1.54,0,0,1,57,12h1.555a1.538,1.538,0,0,0,.918-2.772,2.3,2.3,0,0,1,.118-3.781,2.338,2.338,0,0,1,2.088-.222,2.24,2.24,0,0,1,1.412,1.6,2.307,2.307,0,0,1-.883,2.4A1.538,1.538,0,0,0,63.128,12h1.566a1.54,1.54,0,0,1,1.538,1.538v6.741l-2.226,1.114a1.536,1.536,0,0,0-.851,1.375v7.692H58.54V22.769a1.54,1.54,0,0,0-.851-1.377l-2.226-1.112Zm5.384,21.538c-6.6,0-10-2.157-10-3.077,0-.562,1.423-1.772,4.615-2.5V32A1.538,1.538,0,0,0,57,33.537h7.692A1.538,1.538,0,0,0,66.232,32V29.5c3.192.722,4.615,1.934,4.615,2.5C70.848,32.919,67.446,35.076,60.848,35.076Z" transform="translate(18.379 -2)" fill="#e7014c"/>
      <rect id="Rectangle_6326" data-name="Rectangle 6326" width="3.101" height="3.077" transform="translate(39.805 81.743) rotate(-7.123)" fill="#e7014c"/>
      <rect id="Rectangle_6327" data-name="Rectangle 6327" width="3.077" height="4.254" transform="matrix(0.723, -0.691, 0.691, 0.723, 42.661, 61.058)" fill="#e7014c"/>
      <rect id="Rectangle_6328" data-name="Rectangle 6328" width="3.111" height="3.078" transform="translate(52.076 31.553) rotate(-8.534)" fill="#e7014c"/>
    </g>
  </g>
</svg>
