<svg id="ico_quehacerinstitucional_normal" xmlns="http://www.w3.org/2000/svg" width="140" height="140" viewBox="0 0 140 140">
  <rect id="Rectangle_7" data-name="Rectangle 7" width="140" height="140" transform="translate(0)" fill="none"/>
  <g id="Group_4331" data-name="Group 4331" transform="translate(24.308 28.575)">
    <path id="Path_13874" data-name="Path 13874" d="M63.559,14.439H19.023a3.457,3.457,0,0,1-3.443-3.457V8.027A3.457,3.457,0,0,1,19.023,4.57H63.559A3.457,3.457,0,0,1,67,8.027v2.955A3.457,3.457,0,0,1,63.559,14.439ZM19.023,7.358a.654.654,0,0,0-.655.655v2.969a.655.655,0,0,0,.641.669h44.55A.654.654,0,0,0,64.215,11V8.027a.655.655,0,0,0-.641-.669H19.023Z" transform="translate(4.744 -4.57)" fill="#7b868c"/>
    <path id="Path_13875" data-name="Path 13875" d="M61.959,79.317H18.984a1.394,1.394,0,0,1-1.394-1.394V11.014A1.394,1.394,0,0,1,18.984,9.62H61.959a1.394,1.394,0,0,1,1.394,1.394V77.923A1.394,1.394,0,0,1,61.959,79.317ZM20.378,76.529H60.565V12.408H20.378Z" transform="translate(5.535 -2.581)" fill="#7b868c"/>
    <path id="Path_13876" data-name="Path 13876" d="M24.042,76.122H6.144A1.394,1.394,0,0,1,4.75,74.728v-55.6A1.394,1.394,0,0,1,6.144,17.73h17.9a1.394,1.394,0,0,1,1.394,1.394v55.6A1.394,1.394,0,0,1,24.042,76.122Zm-16.5-2.788h15.11V20.518H7.538Z" transform="translate(0.477 0.614)" fill="#7b868c"/>
    <path id="Path_13877" data-name="Path 13877" d="M67.7,76.122H49.814a1.394,1.394,0,0,1-1.394-1.394v-55.6a1.394,1.394,0,0,1,1.394-1.394H67.7a1.394,1.394,0,0,1,1.394,1.394v55.6A1.394,1.394,0,0,1,67.7,76.122Zm-16.49-2.788H66.3V20.518h-15.1Z" transform="translate(17.681 0.614)" fill="#7b868c"/>
    <path id="Path_13878" data-name="Path 13878" d="M59.552,35.387H54.394A1.394,1.394,0,0,1,53,33.993V25.114a1.394,1.394,0,0,1,1.394-1.394h5.158a1.394,1.394,0,0,1,1.394,1.394v8.879A1.394,1.394,0,0,1,59.552,35.387ZM55.746,32.6h2.412V26.508h-2.37Z" transform="translate(19.485 2.974)" fill="#7b868c"/>
    <path id="Path_13879" data-name="Path 13879" d="M59.552,46.157H54.394A1.394,1.394,0,0,1,53,44.763V35.884a1.394,1.394,0,0,1,1.394-1.394h5.158a1.394,1.394,0,0,1,1.394,1.394v8.879A1.394,1.394,0,0,1,59.552,46.157Zm-3.805-2.788h2.412V37.278h-2.37Z" transform="translate(19.485 7.217)" fill="#7b868c"/>
    <path id="Path_13880" data-name="Path 13880" d="M59.552,56.937H54.394A1.394,1.394,0,0,1,53,55.543V46.664a1.394,1.394,0,0,1,1.394-1.394h5.158a1.394,1.394,0,0,1,1.394,1.394v8.879A1.394,1.394,0,0,1,59.552,56.937Zm-3.805-2.788h2.412V48.058h-2.37Z" transform="translate(19.485 11.463)" fill="#7b868c"/>
    <path id="Path_13881" data-name="Path 13881" d="M15.852,35.387H10.694A1.394,1.394,0,0,1,9.3,33.993V25.114a1.394,1.394,0,0,1,1.394-1.394h5.158a1.394,1.394,0,0,1,1.394,1.394v8.879A1.394,1.394,0,0,1,15.852,35.387ZM12.032,32.6h2.425V26.508h-2.37Z" transform="translate(2.27 2.974)" fill="#7b868c"/>
    <path id="Path_13882" data-name="Path 13882" d="M15.852,46.157H10.694A1.394,1.394,0,0,1,9.3,44.763V35.884a1.394,1.394,0,0,1,1.394-1.394h5.158a1.394,1.394,0,0,1,1.394,1.394v8.879A1.394,1.394,0,0,1,15.852,46.157Zm-3.819-2.788h2.425V37.278h-2.37Z" transform="translate(2.27 7.217)" fill="#7b868c"/>
    <path id="Path_13883" data-name="Path 13883" d="M15.852,56.937H10.694A1.394,1.394,0,0,1,9.3,55.543V46.664a1.394,1.394,0,0,1,1.394-1.394h5.158a1.394,1.394,0,0,1,1.394,1.394v8.879A1.394,1.394,0,0,1,15.852,56.937Zm-3.819-2.788h2.425V48.058h-2.37Z" transform="translate(2.27 11.463)" fill="#7b868c"/>
    <path id="Path_13884" data-name="Path 13884" d="M25.2,22.251H5.277A3.471,3.471,0,0,1,1.82,18.794V16.773A3.457,3.457,0,0,1,5.277,13.33H25.2a1.394,1.394,0,0,1,1.394,1.394v6.133A1.394,1.394,0,0,1,25.2,22.251ZM5.277,16.118a.669.669,0,0,0-.669.655v2.021a.669.669,0,0,0,.669.669H23.8V16.118Z" transform="translate(-0.677 -1.119)" fill="#7b868c"/>
    <path id="Path_13885" data-name="Path 13885" d="M69.705,22.251H49.814a1.394,1.394,0,0,1-1.394-1.394V14.724a1.394,1.394,0,0,1,1.394-1.394H69.705a3.457,3.457,0,0,1,3.457,3.443v2.021A3.456,3.456,0,0,1,69.705,22.251Zm-18.5-2.788h18.5a.669.669,0,0,0,.669-.669V16.773a.669.669,0,0,0-.669-.655h-18.5Z" transform="translate(17.681 -1.119)" fill="#7b868c"/>
    <path id="Path_13886" data-name="Path 13886" d="M47.247,69.42H27.216a1.394,1.394,0,0,1-1.394-1.394V46.559a11.416,11.416,0,1,1,22.819-.8c.01.265.01.531,0,.8V68.026a1.394,1.394,0,0,1-1.394,1.394ZM28.61,66.632H45.853V46.559a8.628,8.628,0,1,0-17.243-.694q-.015.347,0,.694Z" transform="translate(8.776 7.317)" fill="#7b868c"/>
    <path id="Path_13887" data-name="Path 13887" d="M47.245,45.008H27.214a1.394,1.394,0,0,1,0-2.788H47.245a1.394,1.394,0,0,1,0,2.788Z" transform="translate(8.778 10.262)" fill="#7b868c"/>
    <path id="Path_13888" data-name="Path 13888" d="M34.394,69.319A1.394,1.394,0,0,1,33,67.925V36.394a1.394,1.394,0,1,1,2.788,0V67.925A1.394,1.394,0,0,1,34.394,69.319Z" transform="translate(11.606 7.418)" fill="#7b868c"/>
    <path id="Path_13890" data-name="Path 13890" d="M91.606,65.719H2.394A1.394,1.394,0,0,1,1,64.325V59.014A1.394,1.394,0,0,1,2.394,57.62H91.606A1.394,1.394,0,0,1,93,59.014v5.311A1.394,1.394,0,0,1,91.606,65.719ZM3.788,62.931H90.212V60.408H3.788Z" transform="translate(-1 16.328)" fill="#7b868c"/>
  </g>
</svg>
