<svg id="ico_Salud_normal" xmlns="http://www.w3.org/2000/svg" width="140" height="140" viewBox="0 0 140 140">
  <rect id="Rectangle_7" data-name="Rectangle 7" width="140" height="140" transform="translate(0)" fill="none"/>
  <path id="Path_15948" data-name="Path 15948" d="M75.016,65.12V55.549a14.469,14.469,0,0,0-4.731-10.675,14.3,14.3,0,0,0-11.106-3.7A14.751,14.751,0,0,0,46.118,55.95v5.58a8.629,8.629,0,0,1-2.733,6.279,8.539,8.539,0,0,1-6.461,2.3A8.8,8.8,0,0,1,28.9,61.2v-10A22.845,22.845,0,0,0,48.91,28.457V24.01A2.885,2.885,0,0,0,46.748,21.2V8.54a4.09,4.09,0,0,0-4.09-4.086h-.678a2.831,2.831,0,0,0-2.716-2.079H36.375a2.837,2.837,0,1,0,0,5.675h2.893A2.827,2.827,0,0,0,41.987,5.97h.671A2.574,2.574,0,0,1,45.227,8.54V21.208a2.911,2.911,0,0,0-2.163,2.808v4.447A17.115,17.115,0,0,1,25.92,45.549c-.269,0-.54-.007-.809-.021A17.332,17.332,0,0,1,8.886,27.947V24.01A2.883,2.883,0,0,0,6.723,21.2V8.54A2.573,2.573,0,0,1,9.3,5.97h.558A2.827,2.827,0,0,0,12.574,8.05h2.894a2.837,2.837,0,0,0,0-5.675H12.574A2.83,2.83,0,0,0,9.853,4.454H9.3A4.09,4.09,0,0,0,5.207,8.54V21.208a2.912,2.912,0,0,0-2.163,2.8v4.447A22.85,22.85,0,0,0,23.059,51.2V61.527A14.469,14.469,0,0,0,27.79,72.2a14.282,14.282,0,0,0,9.7,3.76c.466,0,.936-.022,1.408-.067A14.747,14.747,0,0,0,51.961,61.128v-5.58a8.612,8.612,0,0,1,8.625-8.6c.189,0,.38.006.569.019a8.806,8.806,0,0,1,8.021,8.915V65.12a8.478,8.478,0,1,0,5.841,0ZM39.268,6.53H36.375a1.321,1.321,0,1,1,0-2.642h2.893a1.321,1.321,0,1,1,0,2.642ZM12.574,3.891h2.894a1.321,1.321,0,1,1,0,2.642H12.574a1.321,1.321,0,0,1,0-2.642ZM61.256,45.455a10.012,10.012,0,0,0-7.6,2.706,10.152,10.152,0,0,0-3.212,7.388v5.58a13.222,13.222,0,0,1-11.69,13.264A12.943,12.943,0,0,1,24.641,62.738c-.038-.4-.058-.807-.058-1.211V49.836l-.684-.067A21.343,21.343,0,0,1,4.56,28.457V24.01A1.4,1.4,0,0,1,7.37,24v3.942A18.845,18.845,0,0,0,25.048,47.036,18.633,18.633,0,0,0,44.563,29.33q.022-.437.022-.873V24.01a1.4,1.4,0,1,1,2.808-.082c0,.028,0,.055,0,.082v4.447A21.337,21.337,0,0,1,28.072,49.772l-.684.067V61.195a10.322,10.322,0,0,0,9.435,10.432,10.021,10.021,0,0,0,7.6-2.705,10.156,10.156,0,0,0,3.21-7.395v-5.58A13.222,13.222,0,0,1,59.32,42.684,12.941,12.941,0,0,1,73.436,54.333q.058.6.059,1.209v9.143a.985.985,0,0,1-.1-.01,8.463,8.463,0,0,0-1.188-.1h-.227a8.463,8.463,0,0,0-1.188.1.985.985,0,0,0-.1.01v-8.8A10.324,10.324,0,0,0,61.256,45.455ZM72.095,80.011a6.959,6.959,0,1,1,6.962-6.961A6.96,6.96,0,0,1,72.095,80.011Zm0-11.739a4.778,4.778,0,1,0,4.778,4.778h0a4.782,4.782,0,0,0-4.778-4.776Zm0,8.04a3.262,3.262,0,1,1,3.262-3.262h0A3.267,3.267,0,0,1,72.095,76.312ZM15.958,20.656v6.081a.756.756,0,0,0,.756.758h0l5.45.012-.007,5.467a.758.758,0,0,0,.756.761h6.1a.759.759,0,0,0,.758-.757l.011-5.449,5.459.011h0A.76.76,0,0,0,36,26.782V20.669a.758.758,0,0,0-.758-.758H29.791l.008-5.448a.76.76,0,0,0-.758-.761h-6.1a.756.756,0,0,0-.758.756h0L22.168,19.9H16.716A.758.758,0,0,0,15.958,20.656Zm1.516.758h5.449a.756.756,0,0,0,.758-.756h0l.011-5.439h4.591l-.011,5.448a.758.758,0,0,0,.756.761H34.48v4.588L29.022,26h0a.758.758,0,0,0-.758.757l-.011,5.451H23.671l.011-5.459a.758.758,0,0,0-.756-.761h0l-5.451-.011Z" transform="translate(28.19 28.032)" fill="#00a7e1" stroke="#00a7e1" stroke-width="1"/>
</svg>
