<svg id="ico_poblacion_normal" xmlns="http://www.w3.org/2000/svg" width="140" height="140" viewBox="0 0 140 140">
  <rect id="Rectangle_7" data-name="Rectangle 7" width="140" height="140" transform="translate(0)" fill="none"/>
  <g id="Group_7804" data-name="Group 7804" transform="translate(-129.263 -215.129)">
    <g id="Group_7794" data-name="Group 7794" transform="translate(151.772 257.703)">
      <path id="Path_16316" data-name="Path 16316" d="M159.454,279.288a7.682,7.682,0,1,1,7.682-7.682A7.691,7.691,0,0,1,159.454,279.288Zm0-12.845a5.163,5.163,0,1,0,5.163,5.163A5.169,5.169,0,0,0,159.454,266.443Z" transform="translate(-151.772 -263.925)" fill="#bf8b2c"/>
    </g>
    <g id="Group_7795" data-name="Group 7795" transform="translate(163.598 275.441)">
      <path id="Path_16317" data-name="Path 16317" d="M176.666,305.105a7.682,7.682,0,1,1,7.682-7.682A7.69,7.69,0,0,1,176.666,305.105Zm0-12.845a5.163,5.163,0,1,0,5.163,5.163A5.169,5.169,0,0,0,176.666,292.26Z" transform="translate(-168.984 -289.741)" fill="#bf8b2c"/>
    </g>
    <g id="Group_7796" data-name="Group 7796" transform="translate(175.832 292.569)">
      <path id="Path_16318" data-name="Path 16318" d="M194.471,330.033a7.682,7.682,0,1,1,7.682-7.682A7.691,7.691,0,0,1,194.471,330.033Zm0-12.846a5.164,5.164,0,1,0,5.164,5.164A5.17,5.17,0,0,0,194.471,317.187Z" transform="translate(-186.789 -314.669)" fill="#bf8b2c"/>
    </g>
    <g id="Group_7797" data-name="Group 7797" transform="translate(232.107 257.703)">
      <path id="Path_16319" data-name="Path 16319" d="M276.375,279.288a7.682,7.682,0,1,1,7.682-7.682A7.691,7.691,0,0,1,276.375,279.288Zm0-12.845a5.163,5.163,0,1,0,5.163,5.163A5.17,5.17,0,0,0,276.375,266.443Z" transform="translate(-268.693 -263.925)" fill="#bf8b2c"/>
    </g>
    <g id="Group_7798" data-name="Group 7798" transform="translate(220.281 275.441)">
      <path id="Path_16320" data-name="Path 16320" d="M259.163,305.105a7.682,7.682,0,1,1,7.682-7.682A7.691,7.691,0,0,1,259.163,305.105Zm0-12.845a5.163,5.163,0,1,0,5.163,5.163A5.169,5.169,0,0,0,259.163,292.26Z" transform="translate(-251.481 -289.741)" fill="#bf8b2c"/>
    </g>
    <g id="Group_7799" data-name="Group 7799" transform="translate(208.047 292.569)">
      <path id="Path_16321" data-name="Path 16321" d="M241.358,330.033a7.682,7.682,0,1,1,7.682-7.682A7.69,7.69,0,0,1,241.358,330.033Zm0-12.846a5.164,5.164,0,1,0,5.163,5.164A5.17,5.17,0,0,0,241.358,317.187Z" transform="translate(-233.676 -314.669)" fill="#bf8b2c"/>
    </g>
    <g id="Group_7800" data-name="Group 7800" transform="translate(192.143 311.735)">
      <path id="Path_16322" data-name="Path 16322" d="M218.211,357.928a7.682,7.682,0,1,1,7.682-7.682A7.691,7.691,0,0,1,218.211,357.928Zm0-12.846a5.163,5.163,0,1,0,5.163,5.163A5.17,5.17,0,0,0,218.211,345.082Z" transform="translate(-210.529 -342.564)" fill="#bf8b2c"/>
    </g>
    <g id="Group_7801" data-name="Group 7801" transform="translate(161.355 255.868)">
      <path id="Path_16323" data-name="Path 16323" d="M204.19,319.639a1.259,1.259,0,0,1-1.048-.561l-37.211-55.867a1.259,1.259,0,0,1,2.1-1.4l36.142,54.262,34.541-54.038a1.259,1.259,0,0,1,2.122,1.356l-35.58,55.664a1.259,1.259,0,0,1-1.049.581Z" transform="translate(-165.719 -261.253)" fill="#bf8b2c"/>
    </g>
    <g id="Group_7802" data-name="Group 7802" transform="translate(170.938 251.585)">
      <path id="Path_16324" data-name="Path 16324" d="M208.452,295.464a1.259,1.259,0,0,1-1.017-.517l-27.526-37.721a1.259,1.259,0,1,1,2.034-1.484l26.467,36.269,24.484-36.433a1.259,1.259,0,0,1,2.091,1.4L209.5,294.908a1.26,1.26,0,0,1-1.02.557Z" transform="translate(-179.667 -255.021)" fill="#bf8b2c"/>
    </g>
    <g id="Group_7803" data-name="Group 7803" transform="translate(181.337 244.042)">
      <path id="Path_16325" data-name="Path 16325" d="M212.984,274.29h-.014a1.262,1.262,0,0,1-1.03-.555l-16.923-25.079a1.26,1.26,0,0,1,.462-1.821l5.1-2.651a1.262,1.262,0,0,1,1.54.3c.042.048,4.428,5.062,11.071,5.062a14.569,14.569,0,0,0,10.631-5.022,1.26,1.26,0,0,1,1.633-.307l5.506,3.262a1.259,1.259,0,0,1,.385,1.811l-17.331,24.467A1.258,1.258,0,0,1,212.984,274.29Zm-15.091-25.873,15.115,22.4L228.5,248.95l-3.44-2.039a16.787,16.787,0,0,1-11.87,5.154,18.106,18.106,0,0,1-12.285-5.212Z" transform="translate(-194.801 -244.042)" fill="#bf8b2c"/>
    </g>
  </g>
</svg>
