<svg id="ico_usotiempo_normal" xmlns="http://www.w3.org/2000/svg" width="140" height="140" viewBox="0 0 140 140">
  <rect id="Rectangle_7" data-name="Rectangle 7" width="140" height="140" transform="translate(0)" fill="none"/>
  <g id="Group_4329" data-name="Group 4329" transform="translate(22.947 23.041)">
    <path id="Path_13919" data-name="Path 13919" d="M49.369,90.239A33.409,33.409,0,0,0,62.123,25.956V20.709h4.933A3.44,3.44,0,0,0,70.5,17.27V11.63a3.44,3.44,0,0,0-3.439-3.439H31.682a3.437,3.437,0,0,0-3.535,3.339c0,.033,0,.067,0,.1v5.66A3.44,3.44,0,0,0,31.6,20.711l.081,0h5.011v5.247A33.409,33.409,0,0,0,49.369,90.239ZM45.6,17.761V11.139h6.623v6.642Zm-8.1,0V11.139h5.169v6.642Zm17.687-6.623h5.562v6.642H55.265Zm12.46.491v5.66a.491.491,0,0,1-.491.491H63.7V11.139h3.361a.492.492,0,0,1,.58.383A.5.5,0,0,1,67.646,11.63ZM31.092,17.27V11.63a.492.492,0,0,1,.481-.5.5.5,0,0,1,.108.01h2.967v6.642H31.682a.491.491,0,0,1-.58-.381A.482.482,0,0,1,31.092,17.27Zm8.45,3.439H59.2V24.9a33.4,33.4,0,0,0-19.652,0Zm9.826,5.66A30.461,30.461,0,1,1,18.908,56.83,30.462,30.462,0,0,1,49.369,26.369Z" transform="translate(-2.538 -8.189)" fill="#9578d3"/>
    <path id="Path_13920" data-name="Path 13920" d="M30.143,49.721a1.471,1.471,0,0,0,1.042-.432l6.78-6.78a1.453,1.453,0,0,0,.688-1.218V25.844a1.474,1.474,0,1,0-2.948,0V40.6l-6.6,6.623a1.474,1.474,0,0,0,1.042,2.515Z" transform="translate(9.653 7.429)" fill="#9578d3"/>
    <path id="Path_13921" data-name="Path 13921" d="M33.724,26.021A1.474,1.474,0,0,0,35.2,24.547V19.634a1.474,1.474,0,0,0-2.948,0v4.913A1.474,1.474,0,0,0,33.724,26.021Z" transform="translate(13.107 1.435)" fill="#9578d3"/>
    <path id="Path_13922" data-name="Path 13922" d="M33.724,43.71a1.474,1.474,0,0,0-1.474,1.474v4.992a1.474,1.474,0,1,0,2.948,0V45.263A1.473,1.473,0,0,0,33.8,43.712C33.777,43.71,33.751,43.71,33.724,43.71Z" transform="translate(13.107 26.096)" fill="#9578d3"/>
    <path id="Path_13923" data-name="Path 13923" d="M24.578,32.19H19.724a1.474,1.474,0,1,0,0,2.948h4.913a1.474,1.474,0,0,0,0-2.948Z" transform="translate(-0.406 14.977)" fill="#9578d3"/>
    <path id="Path_13924" data-name="Path 13924" d="M45.283,35.138h4.854a1.474,1.474,0,1,0,0-2.948H45.224a1.474,1.474,0,0,0,0,2.948Z" transform="translate(24.208 14.977)" fill="#9578d3"/>
    <path id="Path_13925" data-name="Path 13925" d="M43.764,45.787A1.474,1.474,0,0,0,45.847,43.7l-2.26-2.26A1.474,1.474,0,0,0,41.5,43.527Z" transform="translate(21.658 23.528)" fill="#9578d3"/>
    <path id="Path_13926" data-name="Path 13926" d="M24.934,26.957a1.474,1.474,0,0,0,2.156-2.01c-.024-.024-.047-.049-.073-.073l-2.26-2.26A1.474,1.474,0,0,0,22.674,24.7Z" transform="translate(3.483 5.352)" fill="#9578d3"/>
    <path id="Path_13927" data-name="Path 13927" d="M42.563,27.39a1.471,1.471,0,0,0,1.042-.432l2.26-2.26a1.474,1.474,0,0,0-2.083-2.083l-2.26,2.26a1.474,1.474,0,0,0,1.042,2.515Z" transform="translate(21.641 5.353)" fill="#9578d3"/>
    <path id="Path_13928" data-name="Path 13928" d="M23.714,46.22a1.471,1.471,0,0,0,1.042-.432l2.26-2.26a1.474,1.474,0,0,0-2.083-2.083l-2.24,2.26a1.474,1.474,0,0,0,1.022,2.515Z" transform="translate(3.465 23.528)" fill="#9578d3"/>
    <path id="Path_13929" data-name="Path 13929" d="M90.978,26.256a1.473,1.473,0,0,0-.943,1.847,40.857,40.857,0,0,1-72.6,35.649H22.47a1.474,1.474,0,0,0,0-2.948h-7.7a1.457,1.457,0,0,0-1.4,1.1,1.328,1.328,0,0,0,0,.177,1.639,1.639,0,0,0,0,.2v7.763a1.474,1.474,0,0,0,2.948,0V67.133A43.8,43.8,0,0,0,92.963,27.219,1.476,1.476,0,0,0,91.145,26.2,1.687,1.687,0,0,0,90.978,26.256Z" transform="translate(-5.117 9.14)" fill="#9578d3"/>
    <path id="Path_13930" data-name="Path 13930" d="M52.969,28.45a1.474,1.474,0,0,0,2.673-1.218,43.531,43.531,0,0,0-2.909-5.326,1.474,1.474,0,1,0-2.561,1.46,1.5,1.5,0,0,0,.084.132A41.286,41.286,0,0,1,52.969,28.45Z" transform="translate(30.219 4.332)" fill="#9578d3"/>
    <path id="Path_13931" data-name="Path 13931" d="M53.03,21.811a44.322,44.322,0,0,0-3.557-3.93,1.474,1.474,0,0,0-2.063,2.1A41.058,41.058,0,0,1,50.731,23.7,1.476,1.476,0,0,0,53.05,21.87h0Z" transform="translate(27.348 0.791)" fill="#9578d3"/>
    <path id="Path_13932" data-name="Path 13932" d="M11.424,17.137l9.1,9.1a1.474,1.474,0,1,0,2.156-2.01c-.024-.024-.047-.049-.073-.073l-9.1-9.1a1.474,1.474,0,0,0-2.083,2.083Z" transform="translate(-7.376 -1.945)" fill="#9578d3"/>
    <path id="Path_13933" data-name="Path 13933" d="M21.944,23.224A1.474,1.474,0,0,0,20.47,21.75H10.644a1.474,1.474,0,0,0,0,2.948H20.47A1.474,1.474,0,0,0,21.944,23.224Z" transform="translate(-9.17 4.9)" fill="#9578d3"/>
    <path id="Path_13934" data-name="Path 13934" d="M17.31,13.384V23.21a1.474,1.474,0,0,0,2.948,0V13.384a1.474,1.474,0,1,0-2.948,0Z" transform="translate(-1.313 -4.598)" fill="#9578d3"/>
  </g>
</svg>
