<svg xmlns="http://www.w3.org/2000/svg" width="180" height="65.754" viewBox="0 0 180 65.754">
  <g id="logo_rumbo_a_la_igualdad" data-name="logo_rumbo a la igualdad" transform="translate(-68.738 -287.401)">
    <g id="Group_7892" data-name="Group 7892" transform="translate(149.583 316.61)">
      <path id="Path_16329" data-name="Path 16329" d="M227.275,359.684c-.313,0-.468-.149-.468-.449v-2.164c0-.3.155-.449.468-.449h1.715V349.1h-1.715c-.313,0-.468-.149-.468-.449v-2.164c0-.3.155-.449.468-.449h7.117c.311,0,.468.15.468.449v2.164c0,.3-.157.449-.468.449h-1.716v7.526h1.716c.311,0,.468.15.468.449v2.164c0,.3-.157.449-.468.449Z" transform="translate(-226.807 -345.255)" fill="#7d8389"/>
      <path id="Path_16330" data-name="Path 16330" d="M256.157,353.706q.448,0,.448.429v9.437a4.16,4.16,0,0,1-1.511,3.354,6,6,0,0,1-3.987,1.267,6.554,6.554,0,0,1-3.7-.985,3.875,3.875,0,0,1-1.774-2.622q-.077-.468.429-.468h2.594a.589.589,0,0,1,.526.351q.37,1,1.911.994a2.027,2.027,0,0,0,1.433-.5,1.761,1.761,0,0,0,.537-1.355v-.936a4.19,4.19,0,0,1-2.652.819,4.991,4.991,0,0,1-3.675-1.423,5.354,5.354,0,0,1,0-7.292,4.993,4.993,0,0,1,3.675-1.423,4.152,4.152,0,0,1,2.769.936v-.156q0-.429.449-.429Zm-6.834,6.464a2.03,2.03,0,0,0,1.569.673,2,2,0,0,0,1.56-.673,2.51,2.51,0,0,0,.605-1.745,2.483,2.483,0,0,0-.605-1.726,2,2,0,0,0-1.56-.673,2.03,2.03,0,0,0-1.569.673,2.459,2.459,0,0,0-.614,1.726A2.485,2.485,0,0,0,249.323,360.17Z" transform="translate(-235.84 -348.832)" fill="#7d8389"/>
      <path id="Path_16331" data-name="Path 16331" d="M283.885,363.205a.408.408,0,0,1-.351.507,6.686,6.686,0,0,1-1.638.234,3.208,3.208,0,0,1-2.847-1.19,4.293,4.293,0,0,1-3.237,1.19,4.077,4.077,0,0,1-3.032-1.151,4.13,4.13,0,0,1-1.141-3.042V354.47c0-.286.155-.429.468-.429h2.612c.311,0,.468.143.468.429v4.621a1.938,1.938,0,0,0,.439,1.346,1.554,1.554,0,0,0,1.218.487,1.681,1.681,0,0,0,1.258-.468,1.789,1.789,0,0,0,.458-1.307V354.47q0-.429.449-.429h2.632c.313,0,.468.143.468.429v5.674q0,.819.6.819a2.414,2.414,0,0,0,.468-.039q.449-.039.507.37Z" transform="translate(-248.71 -349.167)" fill="#7d8389"/>
      <path id="Path_16332" data-name="Path 16332" d="M310.856,362.87a.417.417,0,0,1-.371.507,6.677,6.677,0,0,1-1.638.234,2.969,2.969,0,0,1-2.671-1.17,5.19,5.19,0,1,1-3.315-9.086,4.152,4.152,0,0,1,2.769.936v-.156q0-.429.468-.429h2.515q.449,0,.448.429v5.674q0,.819.605.819a2.542,2.542,0,0,0,.487-.039q.467-.039.487.37Zm-9.086-2.612a2.18,2.18,0,0,0,3.159.01,2.934,2.934,0,0,0,0-3.568,2.179,2.179,0,0,0-3.159.009,2.909,2.909,0,0,0,0,3.549Z" transform="translate(-261.467 -348.832)" fill="#7d8389"/>
      <path id="Path_16333" data-name="Path 16333" d="M329.868,359.29a3.775,3.775,0,0,1-2.379-.683,2.2,2.2,0,0,1-.878-1.833V344.96a.4.4,0,0,1,.449-.449h2.633q.468,0,.468.449v10.568q0,.78.6.78a2.3,2.3,0,0,0,.449-.039q.469-.039.487.37l.214,1.911a.417.417,0,0,1-.37.507A6.489,6.489,0,0,1,329.868,359.29Z" transform="translate(-275.566 -344.511)" fill="#7d8389"/>
      <path id="Path_16334" data-name="Path 16334" d="M352.428,358.549a.408.408,0,0,1-.351.507,6.868,6.868,0,0,1-1.7.234,2.864,2.864,0,0,1-2.691-1.248,4.182,4.182,0,0,1-3.237,1.248,5.13,5.13,0,1,1,0-10.256,4.38,4.38,0,0,1,2.671.819V344.96a.4.4,0,0,1,.449-.449h2.632a.4.4,0,0,1,.449.449v10.568q0,.78.624.78a2.119,2.119,0,0,0,.448-.039q.449-.039.507.37Zm-9.067-2.612a2.18,2.18,0,0,0,3.159.01,2.934,2.934,0,0,0,0-3.568,2.179,2.179,0,0,0-3.159.009,2.909,2.909,0,0,0,0,3.549Z" transform="translate(-281.787 -344.511)" fill="#7d8389"/>
      <path id="Path_16335" data-name="Path 16335" d="M380.392,362.87a.417.417,0,0,1-.37.507,6.684,6.684,0,0,1-1.638.234,2.969,2.969,0,0,1-2.671-1.17,5.19,5.19,0,1,1-3.315-9.086,4.152,4.152,0,0,1,2.769.936v-.156q0-.429.468-.429h2.515q.449,0,.449.429v5.674q0,.819.605.819a2.543,2.543,0,0,0,.487-.039q.468-.039.487.37Zm-9.086-2.612a2.179,2.179,0,0,0,3.158.01,2.934,2.934,0,0,0,0-3.568,2.179,2.179,0,0,0-3.158.009,2.907,2.907,0,0,0,0,3.549Z" transform="translate(-295.439 -348.832)" fill="#7d8389"/>
      <path id="Path_16336" data-name="Path 16336" d="M408.164,358.549a.408.408,0,0,1-.351.507,6.871,6.871,0,0,1-1.7.234,2.864,2.864,0,0,1-2.691-1.248,4.182,4.182,0,0,1-3.237,1.248,5.13,5.13,0,1,1,0-10.256,4.378,4.378,0,0,1,2.671.819V344.96a.4.4,0,0,1,.449-.449h2.632a.4.4,0,0,1,.449.449v10.568q0,.78.625.78a2.112,2.112,0,0,0,.448-.039q.449-.039.507.37Zm-9.066-2.612a2.179,2.179,0,0,0,3.158.01,2.934,2.934,0,0,0,0-3.568,2.179,2.179,0,0,0-3.158.009,2.907,2.907,0,0,0,0,3.549Z" transform="translate(-309.017 -344.511)" fill="#7d8389"/>
    </g>
    <g id="Group_7893" data-name="Group 7893" transform="translate(149.488 303.726)">
      <path id="Path_16337" data-name="Path 16337" d="M233.641,328.039c.046.061.059.111.04.149s-.067.057-.143.057h-1.376a.272.272,0,0,1-.207-.1l-2.248-2.7h-1.628v2.627a.152.152,0,0,1-.172.172h-1.112a.152.152,0,0,1-.172-.172v-7.685a.152.152,0,0,1,.172-.172h3.314a3.394,3.394,0,0,1,2.254.717,2.356,2.356,0,0,1,.854,1.9,2.424,2.424,0,0,1-.493,1.566,2.64,2.64,0,0,1-1.4.865Zm-5.563-6.55v2.684h1.766a2.431,2.431,0,0,0,1.4-.367,1.13,1.13,0,0,0,.533-.975,1.152,1.152,0,0,0-.5-.969,2.165,2.165,0,0,0-1.32-.373Z" transform="translate(-226.621 -319.757)" fill="#7d8389"/>
      <path id="Path_16338" data-name="Path 16338" d="M248.829,330.483a.191.191,0,0,1-.138.206,2.54,2.54,0,0,1-.78.138,1.542,1.542,0,0,1-1.422-.642,2.915,2.915,0,0,1-1.973.642,2.417,2.417,0,0,1-1.818-.717,2.6,2.6,0,0,1-.694-1.887v-2.9a.152.152,0,0,1,.172-.172h1.055a.152.152,0,0,1,.172.172v2.822a1.487,1.487,0,0,0,.39,1.072,1.349,1.349,0,0,0,1.021.407,1.518,1.518,0,0,0,1.078-.384,1.319,1.319,0,0,0,.413-1.015v-2.9a.152.152,0,0,1,.172-.172h1.055a.152.152,0,0,1,.172.172v3.854a.431.431,0,0,0,.109.31.385.385,0,0,0,.293.115,2.3,2.3,0,0,0,.425-.046c.122-.022.191.023.206.138Z" transform="translate(-234.137 -322.167)" fill="#7d8389"/>
      <path id="Path_16339" data-name="Path 16339" d="M264.9,324.813a2.416,2.416,0,0,1,1.818.717,2.6,2.6,0,0,1,.694,1.887v2.9a.152.152,0,0,1-.172.172h-1.055a.152.152,0,0,1-.172-.172V327.5a1.485,1.485,0,0,0-.39-1.073,1.349,1.349,0,0,0-1.02-.407,1.129,1.129,0,0,0-.889.384,1.482,1.482,0,0,0-.339,1.015v2.9a.152.152,0,0,1-.172.172h-1.055a.152.152,0,0,1-.172-.172V327.5a1.589,1.589,0,0,0-.35-1.073,1.171,1.171,0,0,0-.934-.407,1.325,1.325,0,0,0-.987.384,1.386,1.386,0,0,0-.378,1.015v2.9a.152.152,0,0,1-.172.172H258.1a.152.152,0,0,1-.172-.172v-3.854q0-.424-.482-.424a2.838,2.838,0,0,0-.321.034c-.137.016-.206-.03-.206-.138v-.8a.2.2,0,0,1,.138-.206,2.011,2.011,0,0,1,.7-.115,1.308,1.308,0,0,1,1.3.7,2.668,2.668,0,0,1,1.938-.7,2.235,2.235,0,0,1,1.835.837A2.636,2.636,0,0,1,264.9,324.813Z" transform="translate(-241.422 -322.003)" fill="#7d8389"/>
      <path id="Path_16340" data-name="Path 16340" d="M283.593,322.129a3.027,3.027,0,0,1,2.184.82,3.019,3.019,0,0,1,0,4.209,3.024,3.024,0,0,1-2.184.82,2.751,2.751,0,0,1-1.606-.493v.149a.152.152,0,0,1-.172.172h-1.067a.152.152,0,0,1-.172-.172v-8.144a.152.152,0,0,1,.172-.172h1.067a.152.152,0,0,1,.172.172v3.131A2.755,2.755,0,0,1,283.593,322.129Zm-.012,4.7a1.549,1.549,0,0,0,1.187-.5,1.991,1.991,0,0,0,0-2.558,1.55,1.55,0,0,0-1.187-.5,1.485,1.485,0,0,0-1.158.5,2.051,2.051,0,0,0,0,2.558A1.483,1.483,0,0,0,283.581,326.832Z" transform="translate(-252.981 -319.319)" fill="#7d8389"/>
      <path id="Path_16341" data-name="Path 16341" d="M299.941,329.86a3.47,3.47,0,0,1-4.438,0,3.091,3.091,0,0,1,0-4.244,3.468,3.468,0,0,1,4.438,0,3.091,3.091,0,0,1,0,4.244Zm-3.424-.872a1.778,1.778,0,0,0,2.409,0,1.935,1.935,0,0,0,0-2.5,1.777,1.777,0,0,0-2.409,0,1.935,1.935,0,0,0,0,2.5Z" transform="translate(-259.861 -322.003)" fill="#7d8389"/>
      <path id="Path_16342" data-name="Path 16342" d="M321.887,330.319a.19.19,0,0,1-.138.206,2.539,2.539,0,0,1-.78.138,1.333,1.333,0,0,1-1.33-.711,2.789,2.789,0,0,1-1.893.711,3.026,3.026,0,0,1-2.185-.82,3.019,3.019,0,0,1,0-4.209,3.028,3.028,0,0,1,2.185-.82,2.7,2.7,0,0,1,1.617.5v-.161a.152.152,0,0,1,.172-.172h1.056a.152.152,0,0,1,.172.172v3.854a.432.432,0,0,0,.109.31.386.386,0,0,0,.293.115,2.294,2.294,0,0,0,.425-.046c.122-.022.191.023.206.138Zm-4.129-.8a1.482,1.482,0,0,0,1.158-.5,2.051,2.051,0,0,0,0-2.558,1.483,1.483,0,0,0-1.158-.5,1.549,1.549,0,0,0-1.187.5,1.991,1.991,0,0,0,0,2.558A1.548,1.548,0,0,0,317.758,329.516Z" transform="translate(-269.655 -322.003)" fill="#7d8389"/>
      <path id="Path_16343" data-name="Path 16343" d="M338.872,327.978a1.819,1.819,0,0,1-1.164-.35,1.119,1.119,0,0,1-.442-.923v-7.215a.152.152,0,0,1,.172-.172h1.055a.152.152,0,0,1,.172.172v6.836a.431.431,0,0,0,.109.31.385.385,0,0,0,.293.115,2.294,2.294,0,0,0,.424-.046c.122-.022.191.023.207.138l.092.792a.176.176,0,0,1-.137.206A2.538,2.538,0,0,1,338.872,327.978Z" transform="translate(-280.677 -319.319)" fill="#7d8389"/>
      <path id="Path_16344" data-name="Path 16344" d="M351.287,330.319a.191.191,0,0,1-.138.206,2.539,2.539,0,0,1-.779.138,1.333,1.333,0,0,1-1.331-.711,2.789,2.789,0,0,1-1.892.711,3.027,3.027,0,0,1-2.185-.82,3.019,3.019,0,0,1,0-4.209,3.029,3.029,0,0,1,2.185-.82,2.7,2.7,0,0,1,1.617.5v-.161a.152.152,0,0,1,.172-.172h1.055a.152.152,0,0,1,.172.172v3.854a.434.434,0,0,0,.109.31.386.386,0,0,0,.293.115,2.289,2.289,0,0,0,.425-.046c.122-.022.191.023.207.138Zm-4.129-.8a1.483,1.483,0,0,0,1.158-.5,2.051,2.051,0,0,0,0-2.558,1.484,1.484,0,0,0-1.158-.5,1.55,1.55,0,0,0-1.187.5,1.993,1.993,0,0,0,0,2.558A1.549,1.549,0,0,0,347.157,329.516Z" transform="translate(-284.018 -322.003)" fill="#7d8389"/>
    </g>
    <g id="Group_7894" data-name="Group 7894" transform="translate(68.738 287.401)">
      <path id="Path_16345" data-name="Path 16345" d="M163.958,363.013l-20.9-6.814a2.813,2.813,0,0,0-.855-.134,2.854,2.854,0,0,0-2.854,2.843h0l0,21.921a5.872,5.872,0,0,0,5.872,5.872h0l.007-9.779a9.508,9.508,0,0,0,13.132-8.79c0-.26-.013-.517-.034-.772l9.391,3.058h0A5.873,5.873,0,0,0,163.958,363.013Zm-18.645,5.119a3.541,3.541,0,1,1,3.541,3.541A3.541,3.541,0,0,1,145.313,368.132Z" transform="translate(-103.234 -320.947)" fill="#7d8389"/>
      <path id="Path_16346" data-name="Path 16346" d="M77.509,370.417h0l9.391-3.058c-.02.255-.034.512-.034.772A9.509,9.509,0,0,0,100,376.922L100,386.7h0a5.872,5.872,0,0,0,5.873-5.872l0-21.921h0a2.854,2.854,0,0,0-2.854-2.843,2.815,2.815,0,0,0-.855.134l-20.9,6.814A5.872,5.872,0,0,0,77.509,370.417Zm18.864,1.255a3.541,3.541,0,1,1,3.541-3.541A3.54,3.54,0,0,1,96.373,371.672Z" transform="translate(-72.88 -320.947)" fill="#7d8389"/>
      <path id="Path_16347" data-name="Path 16347" d="M76.136,333.754l20.908-6.792a2.82,2.82,0,0,0,.77-.395,2.854,2.854,0,0,0,.635-3.978h0l-12.9-17.721a5.872,5.872,0,0,0-8.2-1.292h0l5.75,7.91a9.51,9.51,0,0,0-5.444,14.835c.153.21.316.41.482.6l-9.392,3.055h0A5.873,5.873,0,0,0,76.136,333.754ZM88.2,318.643a3.541,3.541,0,1,1-4.946-.779A3.54,3.54,0,0,1,88.2,318.643Z" transform="translate(-68.738 -294.754)" fill="#7d8389"/>
      <path id="Path_16348" data-name="Path 16348" d="M175.077,329.981h0l-9.392-3.055c.167-.194.329-.394.482-.6a9.51,9.51,0,0,0-5.444-14.835l5.75-7.91h0a5.872,5.872,0,0,0-8.2,1.292l-12.9,17.721h0a2.854,2.854,0,0,0,.635,3.978,2.817,2.817,0,0,0,.77.395l20.908,6.792A5.872,5.872,0,0,0,175.077,329.981Zm-14.512-12.117a3.541,3.541,0,1,1-4.946.779A3.541,3.541,0,0,1,160.565,317.864Z" transform="translate(-105.911 -294.754)" fill="#7d8389"/>
      <path id="Path_16349" data-name="Path 16349" d="M134.52,287.4h0l-5.793,8c-.133-.218-.274-.434-.427-.645a9.509,9.509,0,0,0-15.79.622l-5.761-7.9h0a5.873,5.873,0,0,0-1.291,8.2l12.9,17.724h0a2.854,2.854,0,0,0,3.98.619,2.825,2.825,0,0,0,.613-.612l12.888-17.81A5.872,5.872,0,0,0,134.52,287.4ZM118.53,297.488a3.541,3.541,0,1,1-.779,4.946A3.541,3.541,0,0,1,118.53,297.488Z" transform="translate(-86.127 -287.401)" fill="#7d8389"/>
    </g>
  </g>
</svg>
