<svg xmlns="http://www.w3.org/2000/svg" viewBox="0 0 268.66 90.66"><defs><style>.cls-1{fill:#fff;}</style></defs><g id="Capa_2" data-name="Capa 2"><g id="Capa_1-2" data-name="Capa 1"><path class="cls-1" d="M123,43.33a5.06,5.06,0,0,1-2.91-.8,3,3,0,0,1-1.36-2.12q0-.27.24-.27h1.59a.29.29,0,0,1,.28.22,1.54,1.54,0,0,0,.76.93,2.76,2.76,0,0,0,1.45.35,2.11,2.11,0,0,0,1.17-.28.86.86,0,0,0,.43-.76.83.83,0,0,0-.3-.67,2,2,0,0,0-.8-.37c-.32-.08-.69-.16-1.08-.22a8.18,8.18,0,0,1-1.19-.27,4.78,4.78,0,0,1-1.08-.44,2.13,2.13,0,0,1-.8-.83,2.81,2.81,0,0,1-.31-1.35,2.52,2.52,0,0,1,1-2.09,4.27,4.27,0,0,1,2.71-.81,4.8,4.8,0,0,1,2.67.73,2.86,2.86,0,0,1,1.32,2c0,.17,0,.25-.24.25H125a.31.31,0,0,1-.3-.2,1.3,1.3,0,0,0-.6-.8,2.08,2.08,0,0,0-1.13-.28,2,2,0,0,0-1.15.3.92.92,0,0,0-.44.81.9.9,0,0,0,.4.78,2.52,2.52,0,0,0,1,.39q.62.1,1.32.27a9.73,9.73,0,0,1,1.32.4,2.18,2.18,0,0,1,1,.81,2.46,2.46,0,0,1,.4,1.45,2.5,2.5,0,0,1-1.06,2.11A4.59,4.59,0,0,1,123,43.33Z"/><path class="cls-1" d="M136.11,42.9a.25.25,0,0,1-.2.28,3.69,3.69,0,0,1-1,.16,2,2,0,0,1-1.79-.78,3.21,3.21,0,0,1-2.27.78,2.81,2.81,0,0,1-2.1-.81,2.92,2.92,0,0,1-.79-2.15V36.9c0-.17.08-.26.25-.26h1.5c.17,0,.25.09.25.26v3.22a1.52,1.52,0,0,0,.39,1.09,1.3,1.3,0,0,0,1,.42,1.45,1.45,0,0,0,1.07-.4,1.42,1.42,0,0,0,.4-1V36.9c0-.17.08-.26.25-.26h1.51a.23.23,0,0,1,.26.26v4.19c0,.35.14.52.44.52a1.62,1.62,0,0,0,.41,0,.25.25,0,0,1,.3.22Z"/><path class="cls-1" d="M140.81,36.43a3.49,3.49,0,0,1,2.55,1,3.67,3.67,0,0,1,0,5,3.49,3.49,0,0,1-2.55,1,3.07,3.07,0,0,1-1.87-.59v.12a.24.24,0,0,1-.27.26H137.2c-.17,0-.25-.09-.25-.26V33.49c0-.17.08-.26.25-.26h1.51a.23.23,0,0,1,.26.26V37A3,3,0,0,1,140.81,36.43Zm-1.38,4.82a1.57,1.57,0,0,0,1.22.52,1.62,1.62,0,0,0,1.24-.52,2.15,2.15,0,0,0,0-2.73,1.63,1.63,0,0,0-1.24-.53,1.58,1.58,0,0,0-1.22.53,2.18,2.18,0,0,0,0,2.73Z"/><path class="cls-1" d="M148.22,43.34a4.24,4.24,0,0,1-2.29-.56,2.12,2.12,0,0,1-1-1.54c0-.18.06-.27.26-.27l1.31,0a.35.35,0,0,1,.29.18c.19.48.68.73,1.46.73a1.62,1.62,0,0,0,.79-.17.46.46,0,0,0,.31-.42c0-.23-.15-.4-.43-.5a4.59,4.59,0,0,0-1-.23,10.22,10.22,0,0,1-1.23-.22,2.13,2.13,0,0,1-1.05-.6,1.77,1.77,0,0,1-.43-1.23A1.8,1.8,0,0,1,146,37a3.67,3.67,0,0,1,2.15-.57,3.87,3.87,0,0,1,2.11.53,2,2,0,0,1,1,1.39q0,.27-.24.27h-1.32a.29.29,0,0,1-.27-.16.93.93,0,0,0-.46-.48,1.65,1.65,0,0,0-.77-.18,1.68,1.68,0,0,0-.76.16.45.45,0,0,0-.28.41c0,.24.14.41.43.53a4.44,4.44,0,0,0,1.06.26q.61.09,1.23.24a2,2,0,0,1,1.05.6,1.68,1.68,0,0,1,.44,1.21,1.8,1.8,0,0,1-.83,1.55A3.86,3.86,0,0,1,148.22,43.34Z"/><path class="cls-1" d="M155.69,43.34a3.77,3.77,0,0,1-2.66-1,3.25,3.25,0,0,1-1-2.5,3.31,3.31,0,0,1,1-2.51,4,4,0,0,1,5.12,0,3.34,3.34,0,0,1,.94,2.48,2.2,2.2,0,0,1,0,.23v.22a.26.26,0,0,1-.28.23H154a1.66,1.66,0,0,0,.63.95,1.9,1.9,0,0,0,1.13.35,1.4,1.4,0,0,0,1.1-.41.57.57,0,0,1,.32-.13h1.5a.28.28,0,0,1,.2.07.18.18,0,0,1,0,.2,2.69,2.69,0,0,1-1.19,1.31A3.92,3.92,0,0,1,155.69,43.34Zm-1.74-4h3.2a1.46,1.46,0,0,0-.44-1,1.49,1.49,0,0,0-1.08-.4A1.66,1.66,0,0,0,154,39.33Z"/><path class="cls-1" d="M163.46,43.34a3.76,3.76,0,0,1-2.67-1,3.61,3.61,0,0,1,0-5,3.71,3.71,0,0,1,2.67-1,3.81,3.81,0,0,1,2.25.65,2.77,2.77,0,0,1,1.12,1.77c0,.18-.05.26-.23.26h-1.43a.3.3,0,0,1-.28-.21,1.22,1.22,0,0,0-.53-.62,1.63,1.63,0,0,0-.9-.24,1.66,1.66,0,0,0-1.27.51,1.88,1.88,0,0,0-.48,1.34,1.84,1.84,0,0,0,.48,1.33,1.88,1.88,0,0,0,2.18.27,1.12,1.12,0,0,0,.52-.62c.07-.15.16-.22.28-.22h1.43c.18,0,.25.09.23.27a2.72,2.72,0,0,1-1.12,1.76A3.74,3.74,0,0,1,163.46,43.34Z"/><path class="cls-1" d="M173.23,36.55a.23.23,0,0,1,.2.29l-.17,1.28a.23.23,0,0,1-.3.21,3.29,3.29,0,0,0-.73-.07,1.78,1.78,0,0,0-1.27.47,1.66,1.66,0,0,0-.5,1.27v2.87c0,.17-.08.26-.25.26h-1.5c-.17,0-.25-.09-.25-.26v-4.2a.46.46,0,0,0-.52-.52l-.3,0c-.19,0-.29-.07-.29-.21v-1.1a.28.28,0,0,1,.2-.29,2.85,2.85,0,0,1,1-.16,1.61,1.61,0,0,1,1.62.91,2.79,2.79,0,0,1,2.18-.91A3,3,0,0,1,173.23,36.55Z"/><path class="cls-1" d="M177.42,43.34a3.73,3.73,0,0,1-2.66-1,3.26,3.26,0,0,1-1-2.5,3.34,3.34,0,0,1,1-2.51,3.53,3.53,0,0,1,2.58-1,3.47,3.47,0,0,1,2.54.93,3.34,3.34,0,0,1,.94,2.48v.23a2.13,2.13,0,0,0,0,.22.26.26,0,0,1-.28.23h-4.8a1.68,1.68,0,0,0,.64.95,1.85,1.85,0,0,0,1.13.35,1.38,1.38,0,0,0,1.09-.41.64.64,0,0,1,.32-.13h1.5a.29.29,0,0,1,.21.07.18.18,0,0,1,0,.2,2.64,2.64,0,0,1-1.19,1.31A3.91,3.91,0,0,1,177.42,43.34Zm-1.74-4h3.19a1.38,1.38,0,0,0-.44-1,1.47,1.47,0,0,0-1.08-.4,1.64,1.64,0,0,0-1.12.4A1.61,1.61,0,0,0,175.68,39.33Z"/><path class="cls-1" d="M185.36,43.34a2.83,2.83,0,0,1-2.07-.74,2.73,2.73,0,0,1-.75-2V38.26h-1.23a.23.23,0,0,1-.26-.26V36.9a.23.23,0,0,1,.26-.26h1.23v-1.7a.22.22,0,0,1,.25-.25h1.5a.22.22,0,0,1,.25.25v1.7h2.1c.17,0,.25.09.25.26V38c0,.17-.08.26-.25.26h-2.1V40.5a1.09,1.09,0,0,0,.3.81,1.13,1.13,0,0,0,.81.29,4.09,4.09,0,0,0,1-.12.23.23,0,0,1,.3.2l.17,1.15a.29.29,0,0,1-.2.3A6.59,6.59,0,0,1,185.36,43.34Z"/><path class="cls-1" d="M196.29,42.9c0,.15,0,.24-.21.28a3.51,3.51,0,0,1-1,.16,1.75,1.75,0,0,1-1.69-.82,3.26,3.26,0,0,1-2.24.82,3.49,3.49,0,0,1-2.54-1,3.67,3.67,0,0,1,0-5,3.49,3.49,0,0,1,2.54-1A3,3,0,0,1,193,37V36.9a.23.23,0,0,1,.26-.26h1.47c.17,0,.25.09.25.26v4.19c0,.35.15.52.44.52a1.76,1.76,0,0,0,.42,0c.18,0,.27.06.28.22Zm-5-1.13a1.57,1.57,0,0,0,1.22-.52,2.26,2.26,0,0,0,0-2.73,1.58,1.58,0,0,0-1.22-.53,1.6,1.6,0,0,0-1.24.53,2.15,2.15,0,0,0,0,2.73A1.59,1.59,0,0,0,191.32,41.77Z"/><path class="cls-1" d="M202.51,36.55a.23.23,0,0,1,.2.29l-.17,1.28a.23.23,0,0,1-.3.21,3.35,3.35,0,0,0-.73-.07,1.76,1.76,0,0,0-1.27.47,1.66,1.66,0,0,0-.5,1.27v2.87c0,.17-.08.26-.25.26H198c-.17,0-.25-.09-.25-.26v-4.2a.47.47,0,0,0-.53-.52l-.29,0c-.2,0-.29-.07-.29-.21v-1.1a.27.27,0,0,1,.2-.29,2.85,2.85,0,0,1,1-.16,1.61,1.61,0,0,1,1.62.91,2.79,2.79,0,0,1,2.18-.91A3,3,0,0,1,202.51,36.55Z"/><path class="cls-1" d="M205.32,36.64c.17,0,.25.09.25.26v6c0,.17-.08.26-.25.26h-1.5a.23.23,0,0,1-.26-.26v-6a.23.23,0,0,1,.26-.26Zm-1.42-1.07a.21.21,0,0,1-.19-.09.18.18,0,0,1,0-.2l.88-1.65a.32.32,0,0,1,.3-.18h1.58c.09,0,.16,0,.19.08s0,.13,0,.22l-1.13,1.68a.38.38,0,0,1-.31.14Z"/><path class="cls-1" d="M215.24,42.9a.25.25,0,0,1-.22.28,3.46,3.46,0,0,1-1,.16,1.76,1.76,0,0,1-1.69-.82,3.26,3.26,0,0,1-2.24.82,3.49,3.49,0,0,1-2.54-1,3.67,3.67,0,0,1,0-5,3.49,3.49,0,0,1,2.54-1A3,3,0,0,1,212,37V36.9c0-.17.08-.26.25-.26h1.47a.23.23,0,0,1,.26.26v4.19c0,.35.14.52.44.52a1.62,1.62,0,0,0,.41,0c.18,0,.27.06.28.22Zm-5-1.13a1.55,1.55,0,0,0,1.22-.52,2.22,2.22,0,0,0,0-2.73,1.56,1.56,0,0,0-1.22-.53,1.6,1.6,0,0,0-1.24.53,2.18,2.18,0,0,0,0,2.73A1.59,1.59,0,0,0,210.26,41.77Z"/><path class="cls-1" d="M127.3,57.38a.22.22,0,0,1-.2.28,3.6,3.6,0,0,1-1,.16,1.74,1.74,0,0,1-1.69-.84,3.06,3.06,0,0,1-2.22.84,3.48,3.48,0,0,1-2.53-1,3.67,3.67,0,0,1,0-5,3.48,3.48,0,0,1,2.53-1,3,3,0,0,1,1.86.58V48c0-.17.09-.25.26-.25h1.51A.22.22,0,0,1,126,48v7.62c0,.34.15.51.44.51a2.06,2.06,0,0,0,.4,0q.28,0,.3.21Zm-5-1.12a1.54,1.54,0,0,0,1.21-.53,1.93,1.93,0,0,0,.47-1.36,2,2,0,0,0-.47-1.37,1.54,1.54,0,0,0-1.21-.53,1.64,1.64,0,0,0-1.25.53,2,2,0,0,0-.48,1.37,1.93,1.93,0,0,0,.48,1.36A1.64,1.64,0,0,0,122.34,56.26Z"/><path class="cls-1" d="M131.51,57.82a3.71,3.71,0,0,1-2.66-1,3.24,3.24,0,0,1-1-2.5,3.31,3.31,0,0,1,1-2.51,3.54,3.54,0,0,1,2.57-1,3.44,3.44,0,0,1,2.55.94,3.34,3.34,0,0,1,.94,2.47s0,.13,0,.23,0,.18,0,.22a.25.25,0,0,1-.28.23h-4.8a1.68,1.68,0,0,0,.64,1,1.87,1.87,0,0,0,1.13.35,1.41,1.41,0,0,0,1.09-.4.58.58,0,0,1,.33-.14h1.49a.26.26,0,0,1,.21.08.18.18,0,0,1,0,.19,2.69,2.69,0,0,1-1.19,1.31A3.92,3.92,0,0,1,131.51,57.82Zm-1.74-4H133a1.43,1.43,0,0,0-.45-1,1.5,1.5,0,0,0-1.08-.4,1.64,1.64,0,0,0-1.11.4A1.58,1.58,0,0,0,129.77,53.81Z"/><path class="cls-1" d="M142.63,48.25a5.51,5.51,0,0,1,3.82,1.28,4.78,4.78,0,0,1,0,6.8,5.51,5.51,0,0,1-3.82,1.28H139.2a.24.24,0,0,1-.27-.26V48.5c0-.17.09-.25.27-.25Zm-.15,7.57a3.41,3.41,0,0,0,2.36-.8,2.9,2.9,0,0,0,0-4.18,3.41,3.41,0,0,0-2.36-.8H141v5.78Z"/><path class="cls-1" d="M152.39,57.82a3.71,3.71,0,0,1-2.66-1,3.24,3.24,0,0,1-1-2.5,3.31,3.31,0,0,1,1-2.51,3.54,3.54,0,0,1,2.57-1,3.44,3.44,0,0,1,2.55.94,3.3,3.3,0,0,1,.94,2.47,2.2,2.2,0,0,1,0,.23v.22a.25.25,0,0,1-.28.23h-4.8a1.61,1.61,0,0,0,.63,1,1.87,1.87,0,0,0,1.13.35,1.44,1.44,0,0,0,1.1-.4.53.53,0,0,1,.32-.14h1.5a.25.25,0,0,1,.2.08.18.18,0,0,1,0,.19,2.69,2.69,0,0,1-1.19,1.31A3.92,3.92,0,0,1,152.39,57.82Zm-1.74-4h3.2a1.46,1.46,0,0,0-.44-1,1.54,1.54,0,0,0-1.09-.4,1.66,1.66,0,0,0-1.11.4A1.58,1.58,0,0,0,150.65,53.81Z"/><path class="cls-1" d="M162.18,51a.24.24,0,0,1,.2.29l-.18,1.29c0,.16-.12.23-.29.2a3.38,3.38,0,0,0-.74-.07,1.8,1.8,0,0,0-1.27.47,1.67,1.67,0,0,0-.49,1.27v2.87a.23.23,0,0,1-.26.26h-1.49a.23.23,0,0,1-.26-.26V53.16a.46.46,0,0,0-.52-.52l-.29,0c-.2,0-.3-.08-.3-.22v-1.1a.28.28,0,0,1,.2-.29,3,3,0,0,1,1-.16,1.58,1.58,0,0,1,1.61.91,2.81,2.81,0,0,1,2.18-.91A3,3,0,0,1,162.18,51Z"/><path class="cls-1" d="M166.36,57.82a3.71,3.71,0,0,1-2.66-1,3.24,3.24,0,0,1-1-2.5,3.31,3.31,0,0,1,1-2.51,3.54,3.54,0,0,1,2.57-1,3.44,3.44,0,0,1,2.55.94,3.3,3.3,0,0,1,.94,2.47,2.2,2.2,0,0,1,0,.23v.22a.25.25,0,0,1-.28.23h-4.8a1.61,1.61,0,0,0,.63,1,1.87,1.87,0,0,0,1.13.35,1.44,1.44,0,0,0,1.1-.4.53.53,0,0,1,.32-.14h1.5a.25.25,0,0,1,.2.08.18.18,0,0,1,0,.19,2.69,2.69,0,0,1-1.19,1.31A3.92,3.92,0,0,1,166.36,57.82Zm-1.74-4h3.2a1.46,1.46,0,0,0-.44-1,1.54,1.54,0,0,0-1.09-.4,1.68,1.68,0,0,0-1.11.4A1.62,1.62,0,0,0,164.62,53.81Z"/><path class="cls-1" d="M174.13,57.82a3.7,3.7,0,0,1-2.67-1,3.61,3.61,0,0,1,0-5,3.74,3.74,0,0,1,2.67-1,3.69,3.69,0,0,1,2.24.66,2.73,2.73,0,0,1,1.13,1.76c0,.18-.05.27-.23.27h-1.43a.29.29,0,0,1-.28-.22,1.32,1.32,0,0,0-.53-.62,1.72,1.72,0,0,0-.9-.23,1.66,1.66,0,0,0-1.27.51,1.86,1.86,0,0,0-.48,1.33,1.82,1.82,0,0,0,.48,1.33,1.65,1.65,0,0,0,1.27.5A1.78,1.78,0,0,0,175,56a1.11,1.11,0,0,0,.52-.63.31.31,0,0,1,.28-.21h1.43c.18,0,.25.08.23.26a2.78,2.78,0,0,1-1.13,1.77A3.76,3.76,0,0,1,174.13,57.82Z"/><path class="cls-1" d="M182.54,50.91a2.81,2.81,0,0,1,2.1.81,2.93,2.93,0,0,1,.8,2.15v3.48a.23.23,0,0,1-.26.26h-1.49a.24.24,0,0,1-.27-.26V54.13A1.55,1.55,0,0,0,183,53a1.33,1.33,0,0,0-1-.42,1.46,1.46,0,0,0-1.08.4,1.39,1.39,0,0,0-.41,1v3.28c0,.17-.08.26-.25.26h-1.5c-.17,0-.25-.09-.25-.26V48a.22.22,0,0,1,.25-.25h1.5a.22.22,0,0,1,.25.25v3.52A3.47,3.47,0,0,1,182.54,50.91Z"/><path class="cls-1" d="M192.69,56.87a4.21,4.21,0,0,1-5.33,0,3.61,3.61,0,0,1,0-5,4.21,4.21,0,0,1,5.33,0,3.61,3.61,0,0,1,0,5Zm-3.94-1.19a1.73,1.73,0,0,0,1.27.48,1.67,1.67,0,0,0,1.77-1.79,1.77,1.77,0,0,0-.49-1.31,1.72,1.72,0,0,0-1.28-.49,1.7,1.7,0,0,0-1.27.49,2,2,0,0,0,0,2.62Z"/><path class="cls-1" d="M197.58,57.82a4.24,4.24,0,0,1-2.29-.55,2.14,2.14,0,0,1-1-1.55c0-.17.06-.26.25-.26h1.31a.34.34,0,0,1,.3.19c.19.48.67.72,1.46.72a1.76,1.76,0,0,0,.79-.16.48.48,0,0,0,.3-.43c0-.23-.14-.4-.43-.5a4.9,4.9,0,0,0-1-.23,10.58,10.58,0,0,1-1.23-.22,2.06,2.06,0,0,1-1-.6A1.69,1.69,0,0,1,194.5,53a1.76,1.76,0,0,1,.82-1.52,3.6,3.6,0,0,1,2.15-.58,3.89,3.89,0,0,1,2.1.53,2,2,0,0,1,1,1.4c0,.17-.06.26-.24.26H199a.28.28,0,0,1-.26-.16,1,1,0,0,0-.47-.47,1.58,1.58,0,0,0-.76-.18,1.63,1.63,0,0,0-.76.15.46.46,0,0,0-.29.41.57.57,0,0,0,.44.53,4,4,0,0,0,1.05.26c.42.06.83.14,1.24.24a2.13,2.13,0,0,1,1,.6,1.68,1.68,0,0,1,.43,1.22,1.8,1.8,0,0,1-.82,1.55A4,4,0,0,1,197.58,57.82Z"/><path class="cls-1" d="M205.06,57.61a.24.24,0,0,1-.27-.26V48.5c0-.17.09-.25.27-.25h1.58a.22.22,0,0,1,.25.25v3.59h4.33V48.5c0-.17.09-.25.26-.25h1.58c.17,0,.26.08.26.25v8.85a.23.23,0,0,1-.26.26h-1.58a.23.23,0,0,1-.26-.26V53.87h-4.33v3.48c0,.17-.08.26-.25.26Z"/><path class="cls-1" d="M222.76,57.38a.24.24,0,0,1-.2.28,3.57,3.57,0,0,1-1,.16,2,2,0,0,1-1.8-.77,3.23,3.23,0,0,1-2.27.77,2.8,2.8,0,0,1-2.09-.81,2.92,2.92,0,0,1-.8-2.14V51.38a.23.23,0,0,1,.26-.26h1.5a.23.23,0,0,1,.25.26V54.6a1.6,1.6,0,0,0,.38,1.1,1.34,1.34,0,0,0,1,.41,1.47,1.47,0,0,0,1.07-.39,1.42,1.42,0,0,0,.4-1V51.38a.23.23,0,0,1,.26-.26h1.51c.17,0,.25.09.25.26v4.2c0,.34.15.52.44.52a2.5,2.5,0,0,0,.42,0c.17,0,.27,0,.29.21Z"/><path class="cls-1" d="M232.56,50.91a2.82,2.82,0,0,1,2.11.81,2.92,2.92,0,0,1,.79,2.15v3.48a.23.23,0,0,1-.26.26h-1.5a.23.23,0,0,1-.26-.26V54.13a1.55,1.55,0,0,0-.37-1.09,1.27,1.27,0,0,0-1-.42,1.07,1.07,0,0,0-.88.4,1.53,1.53,0,0,0-.34,1v3.28c0,.17-.08.26-.25.26h-1.51a.23.23,0,0,1-.26-.26V54.13a1.59,1.59,0,0,0-.35-1.09,1.13,1.13,0,0,0-.92-.42,1.25,1.25,0,0,0-1,.4,1.45,1.45,0,0,0-.37,1v3.28c0,.17-.08.26-.25.26h-1.5c-.17,0-.25-.09-.25-.26V53.16a.46.46,0,0,0-.52-.52l-.3,0c-.2,0-.29-.08-.29-.22v-1.1a.27.27,0,0,1,.2-.29,2.54,2.54,0,0,1,1-.16,1.62,1.62,0,0,1,1.58.82,3,3,0,0,1,2.27-.82,2.57,2.57,0,0,1,2.11,1A2.94,2.94,0,0,1,232.56,50.91Z"/><path class="cls-1" d="M245,57.38a.23.23,0,0,1-.21.28,3.51,3.51,0,0,1-1,.16,1.78,1.78,0,0,1-1.69-.81,3.3,3.3,0,0,1-2.24.81,3.49,3.49,0,0,1-2.54-1,3.67,3.67,0,0,1,0-5,3.49,3.49,0,0,1,2.54-1,3,3,0,0,1,1.9.62v-.15c0-.17.08-.26.25-.26h1.47c.17,0,.25.09.25.26v4.2c0,.34.15.52.45.52a2.37,2.37,0,0,0,.41,0c.18,0,.27,0,.28.21Zm-5-1.12a1.56,1.56,0,0,0,1.22-.53,2,2,0,0,0,.47-1.36,2,2,0,0,0-.47-1.37,1.56,1.56,0,0,0-1.22-.53,1.6,1.6,0,0,0-1.24.53,2,2,0,0,0-.48,1.37,1.93,1.93,0,0,0,.48,1.36A1.6,1.6,0,0,0,240.06,56.26Z"/><path class="cls-1" d="M250.48,50.91a2.85,2.85,0,0,1,2.11.81,2.93,2.93,0,0,1,.8,2.15v3.48c0,.17-.08.26-.25.26h-1.5a.24.24,0,0,1-.27-.26V54.13A1.55,1.55,0,0,0,251,53a1.3,1.3,0,0,0-1-.42,1.46,1.46,0,0,0-1.08.4,1.39,1.39,0,0,0-.41,1v3.28c0,.17-.08.26-.25.26h-1.5c-.17,0-.25-.09-.25-.26V53.16a.46.46,0,0,0-.52-.52l-.3,0c-.19,0-.29-.08-.29-.22v-1.1a.28.28,0,0,1,.2-.29,2.61,2.61,0,0,1,1-.16,1.68,1.68,0,0,1,1.61.84A3.16,3.16,0,0,1,250.48,50.91Z"/><path class="cls-1" d="M260.64,56.87a4.21,4.21,0,0,1-5.33,0,3.61,3.61,0,0,1,0-5,4.21,4.21,0,0,1,5.33,0,3.61,3.61,0,0,1,0,5Zm-3.94-1.19a1.93,1.93,0,0,0,2.55,0,2,2,0,0,0,0-2.62,1.9,1.9,0,0,0-2.55,0,2,2,0,0,0,0,2.62Z"/><path class="cls-1" d="M265.53,57.82a4.24,4.24,0,0,1-2.29-.55,2.14,2.14,0,0,1-1-1.55c0-.17.06-.26.26-.26h1.31a.34.34,0,0,1,.29.19c.19.48.67.72,1.46.72a1.76,1.76,0,0,0,.79-.16.48.48,0,0,0,.3-.43.53.53,0,0,0-.42-.5,5.15,5.15,0,0,0-1.05-.23,10.58,10.58,0,0,1-1.23-.22,2.1,2.1,0,0,1-1-.6,1.74,1.74,0,0,1-.43-1.23,1.78,1.78,0,0,1,.82-1.52,3.6,3.6,0,0,1,2.15-.58,4,4,0,0,1,2.11.53,2,2,0,0,1,1,1.4c0,.17-.05.26-.24.26h-1.33a.28.28,0,0,1-.26-.16,1,1,0,0,0-.46-.47,1.86,1.86,0,0,0-1.53,0,.45.45,0,0,0-.28.41.56.56,0,0,0,.43.53,4,4,0,0,0,1.06.26q.62.09,1.23.24a2.13,2.13,0,0,1,1.05.6,1.69,1.69,0,0,1,.44,1.22,1.81,1.81,0,0,1-.83,1.55A4,4,0,0,1,265.53,57.82Z"/><path class="cls-1" d="M121.31,70.59a3,3,0,0,1-1.86-.54,2,2,0,0,1-.82-1.42c0-.08,0-.12.1-.12h.57c.06,0,.09,0,.11.1a1.53,1.53,0,0,0,.63,1,2.31,2.31,0,0,0,1.32.34,2,2,0,0,0,1.14-.3.93.93,0,0,0,.43-.8.84.84,0,0,0-.3-.68,1.52,1.52,0,0,0-.75-.33l-1-.19c-.35-.08-.67-.16-1-.25a1.51,1.51,0,0,1-.75-.52,1.48,1.48,0,0,1-.3-1,1.57,1.57,0,0,1,.64-1.29,2.64,2.64,0,0,1,1.68-.49,2.87,2.87,0,0,1,1.72.47,1.86,1.86,0,0,1,.8,1.22c0,.08,0,.12-.11.12h-.57a.12.12,0,0,1-.12-.09,1.27,1.27,0,0,0-.55-.79,2,2,0,0,0-1.12-.29,1.81,1.81,0,0,0-1.12.31.94.94,0,0,0-.42.79.85.85,0,0,0,.23.6,1.34,1.34,0,0,0,.57.33,4.46,4.46,0,0,0,.78.18l.86.17a4.09,4.09,0,0,1,.77.27,1.4,1.4,0,0,1,.58.5,1.55,1.55,0,0,1,.22.86,1.6,1.6,0,0,1-.67,1.34A2.86,2.86,0,0,1,121.31,70.59Z"/><path class="cls-1" d="M127.07,70.59A2.31,2.31,0,0,1,125.4,70a2.16,2.16,0,0,1-.63-1.62,2.19,2.19,0,0,1,.62-1.62,2.23,2.23,0,0,1,1.63-.62,2.12,2.12,0,0,1,1.59.62,2.23,2.23,0,0,1,.6,1.61.57.57,0,0,1,0,.12v.12a.11.11,0,0,1-.11.08h-3.56a1.48,1.48,0,0,0,.52,1,1.52,1.52,0,0,0,1,.36,1.26,1.26,0,0,0,1.13-.5.19.19,0,0,1,.13-.06h.59q.15,0,.09.12a1.69,1.69,0,0,1-.75.77A2.47,2.47,0,0,1,127.07,70.59Zm-1.55-2.48h2.91a1.41,1.41,0,0,0-.39-1,1.29,1.29,0,0,0-1-.4,1.52,1.52,0,0,0-1.05.38A1.45,1.45,0,0,0,125.52,68.11Z"/><path class="cls-1" d="M132.5,70.59a2.28,2.28,0,0,1-1.66-.61,2.13,2.13,0,0,1-.64-1.62,2.16,2.16,0,0,1,.64-1.62,2.29,2.29,0,0,1,1.66-.62,2.35,2.35,0,0,1,1.34.38,1.65,1.65,0,0,1,.71,1q0,.12-.09.12h-.56c-.06,0-.09,0-.11-.09a1.09,1.09,0,0,0-.47-.59,1.54,1.54,0,0,0-.82-.22,1.48,1.48,0,0,0-1.11.44,1.56,1.56,0,0,0-.43,1.15,1.58,1.58,0,0,0,.43,1.15,1.47,1.47,0,0,0,1.11.43,1.54,1.54,0,0,0,.82-.21,1,1,0,0,0,.46-.58.12.12,0,0,1,.12-.09h.56c.08,0,.11,0,.09.11a1.6,1.6,0,0,1-.71,1A2.27,2.27,0,0,1,132.5,70.59Z"/><path class="cls-1" d="M139.16,66.24a.1.1,0,0,1,.08.12l-.07.45c0,.07-.06.1-.14.08a2,2,0,0,0-.6-.08,1.41,1.41,0,0,0-1.06.44,1.61,1.61,0,0,0-.41,1.14v2c0,.07,0,.11-.1.11h-.55c-.07,0-.1,0-.1-.11V67.28c0-.32-.14-.49-.42-.49a1.25,1.25,0,0,0-.31,0q-.12,0-.12-.09v-.41a.12.12,0,0,1,.09-.13,1.54,1.54,0,0,1,.5-.08,1,1,0,0,1,.64.21.9.9,0,0,1,.29.59,1.83,1.83,0,0,1,1.56-.8A2,2,0,0,1,139.16,66.24Z"/><path class="cls-1" d="M142.1,70.59a2.3,2.3,0,0,1-1.66-.61,2.13,2.13,0,0,1-.64-1.62,2.19,2.19,0,0,1,.63-1.62,2.22,2.22,0,0,1,1.63-.62,2.12,2.12,0,0,1,1.58.62,2.24,2.24,0,0,1,.61,1.61s0,.07,0,.12v.12a.12.12,0,0,1-.11.08h-3.56a1.51,1.51,0,0,0,.51,1,1.54,1.54,0,0,0,1,.36,1.27,1.27,0,0,0,1.14-.5.18.18,0,0,1,.13-.06H144q.14,0,.09.12a1.69,1.69,0,0,1-.75.77A2.49,2.49,0,0,1,142.1,70.59Zm-1.55-2.48h2.92a1.41,1.41,0,0,0-.39-1,1.3,1.3,0,0,0-1-.4,1.47,1.47,0,0,0-1.53,1.37Z"/><path class="cls-1" d="M147.47,70.59a1.54,1.54,0,0,1-1.16-.42A1.64,1.64,0,0,1,145.9,69v-2.1h-1c-.07,0-.11,0-.11-.1v-.4a.1.1,0,0,1,.11-.11h1V65c0-.07,0-.1.1-.1h.56c.07,0,.1,0,.1.1v1.29h1.54a.1.1,0,0,1,.11.11v.4c0,.07,0,.1-.11.1h-1.54v2.08c0,.66.3,1,.89,1a2.61,2.61,0,0,0,.69-.08c.08,0,.12,0,.13.09l.07.41a.11.11,0,0,1-.09.13A3.57,3.57,0,0,1,147.47,70.59Z"/><path class="cls-1" d="M154.69,70.38a.09.09,0,0,1-.08.12,1.6,1.6,0,0,1-.53.09.87.87,0,0,1-1-.75,2,2,0,0,1-1.6.75,2.26,2.26,0,0,1-1.63-.63,2.29,2.29,0,0,1,0-3.2,2.24,2.24,0,0,1,1.63-.64,2,2,0,0,1,1.51.7v-.46c0-.08,0-.11.1-.11h.56c.07,0,.1,0,.1.11v3.08c0,.32.13.48.38.48l.35,0c.08,0,.12,0,.13.08ZM151.53,70a1.44,1.44,0,0,0,1.07-.45,1.65,1.65,0,0,0,.43-1.15,1.63,1.63,0,0,0-.43-1.14,1.5,1.5,0,0,0-2.16,0,1.7,1.7,0,0,0,0,2.28A1.42,1.42,0,0,0,151.53,70Z"/><path class="cls-1" d="M159.08,66.24a.1.1,0,0,1,.08.12l-.07.45a.1.1,0,0,1-.14.08,2,2,0,0,0-.61-.08,1.4,1.4,0,0,0-1.05.44,1.61,1.61,0,0,0-.41,1.14v2a.1.1,0,0,1-.11.11h-.54a.1.1,0,0,1-.11-.11V67.28c0-.32-.14-.49-.42-.49a1.24,1.24,0,0,0-.3,0c-.08,0-.13,0-.13-.09v-.41a.13.13,0,0,1,.08-.13,1.59,1.59,0,0,1,.5-.08.93.93,0,0,1,.64.21.87.87,0,0,1,.3.59,1.82,1.82,0,0,1,1.55-.8A2.09,2.09,0,0,1,159.08,66.24Z"/><path class="cls-1" d="M160.21,65.45a.1.1,0,0,1-.09,0,.08.08,0,0,1,0-.09l.64-1.1a.17.17,0,0,1,.13-.07h.61c.1,0,.12,0,.06.13l-.75,1.1a.15.15,0,0,1-.14.07Zm1,5.14a1.07,1.07,0,0,1-.76-.25.91.91,0,0,1-.28-.71V66.36c0-.08,0-.11.1-.11h.55c.07,0,.1,0,.1.11v3.07c0,.33.13.49.39.49l.35,0c.07,0,.11,0,.12.08l.05.41a.09.09,0,0,1-.09.12A1.6,1.6,0,0,1,161.21,70.59Z"/><path class="cls-1" d="M168,70.38c0,.07,0,.11-.08.12a1.7,1.7,0,0,1-.54.09.85.85,0,0,1-1-.75,2.06,2.06,0,0,1-1.61.75,2.22,2.22,0,0,1-1.62-.63,2.13,2.13,0,0,1-.65-1.6,2.16,2.16,0,0,1,.64-1.6,2.26,2.26,0,0,1,1.63-.64,2,2,0,0,1,1.51.7v-.46a.1.1,0,0,1,.11-.11H167a.1.1,0,0,1,.11.11v3.08c0,.32.12.48.37.48l.36,0c.07,0,.11,0,.12.08ZM164.85,70a1.4,1.4,0,0,0,1.07-.45,1.61,1.61,0,0,0,.43-1.15,1.59,1.59,0,0,0-.43-1.14,1.38,1.38,0,0,0-1.07-.46,1.44,1.44,0,0,0-1.09.46,1.7,1.7,0,0,0,0,2.28A1.44,1.44,0,0,0,164.85,70Z"/><path class="cls-1" d="M174.53,70.59a3.31,3.31,0,0,1-2.4-.9,3.41,3.41,0,0,1,0-4.69,3.33,3.33,0,0,1,2.41-.9,3.46,3.46,0,0,1,1.95.56,2.69,2.69,0,0,1,1.11,1.46q0,.12-.09.12h-.63a.14.14,0,0,1-.13-.08,1.85,1.85,0,0,0-.81-1,2.62,2.62,0,0,0-1.4-.38,2.49,2.49,0,0,0-1.82.71,2.43,2.43,0,0,0-.71,1.82,2.42,2.42,0,0,0,2.51,2.53,2.22,2.22,0,0,0,2.28-1.94h-2.29c-.07,0-.11,0-.11-.1v-.48c0-.07,0-.1.11-.1h3c.07,0,.1,0,.1.1a3.28,3.28,0,0,1-.86,2.36A3.05,3.05,0,0,1,174.53,70.59Z"/><path class="cls-1" d="M181.16,70.59A2.28,2.28,0,0,1,179.5,70a2.13,2.13,0,0,1-.64-1.62,2.13,2.13,0,0,1,2.26-2.24,2.12,2.12,0,0,1,1.58.62,2.23,2.23,0,0,1,.6,1.61v.12s0,.09,0,.12a.1.1,0,0,1-.1.08h-3.56a1.51,1.51,0,0,0,.51,1,1.54,1.54,0,0,0,1,.36,1.25,1.25,0,0,0,1.13-.5.22.22,0,0,1,.14-.06H183q.14,0,.09.12a1.69,1.69,0,0,1-.75.77A2.51,2.51,0,0,1,181.16,70.59Zm-1.55-2.48h2.92a1.42,1.42,0,0,0-.4-1,1.29,1.29,0,0,0-1-.4,1.51,1.51,0,0,0-1,.38A1.42,1.42,0,0,0,179.61,68.11Z"/><path class="cls-1" d="M190.09,70.38c0,.07,0,.11-.08.12a1.7,1.7,0,0,1-.54.09,1.1,1.1,0,0,1-.77-.25.91.91,0,0,1-.28-.71V68.08a1.27,1.27,0,0,0-.35-.94,1.21,1.21,0,0,0-.92-.36,1.37,1.37,0,0,0-1.41,1.42v2.16a.1.1,0,0,1-.11.11h-.54a.1.1,0,0,1-.11-.11V67.28c0-.32-.14-.49-.42-.49a1.24,1.24,0,0,0-.3,0c-.08,0-.13,0-.13-.09v-.41a.12.12,0,0,1,.09-.13,1.59,1.59,0,0,1,.5-.08.86.86,0,0,1,.93.74,2,2,0,0,1,1.66-.74,1.85,1.85,0,0,1,1.37.53,1.94,1.94,0,0,1,.51,1.39v1.39c0,.33.13.49.38.49l.36,0c.07,0,.11,0,.12.08Z"/><path class="cls-1" d="M193.13,70.59a2.31,2.31,0,0,1-1.67-.61,2.16,2.16,0,0,1-.63-1.62,2.19,2.19,0,0,1,.62-1.62,2.23,2.23,0,0,1,1.63-.62,2.12,2.12,0,0,1,1.59.62,2.23,2.23,0,0,1,.6,1.61.57.57,0,0,1,0,.12v.12a.11.11,0,0,1-.11.08h-3.56a1.48,1.48,0,0,0,.52,1,1.52,1.52,0,0,0,1,.36,1.26,1.26,0,0,0,1.13-.5.19.19,0,0,1,.13-.06H195q.15,0,.09.12a1.69,1.69,0,0,1-.75.77A2.47,2.47,0,0,1,193.13,70.59Zm-1.56-2.48h2.92a1.41,1.41,0,0,0-.39-1,1.29,1.29,0,0,0-1-.4,1.47,1.47,0,0,0-1.53,1.37Z"/><path class="cls-1" d="M199.9,66.24a.09.09,0,0,1,.08.12l-.07.45a.09.09,0,0,1-.13.08,2.15,2.15,0,0,0-.61-.08,1.37,1.37,0,0,0-1,.44,1.57,1.57,0,0,0-.41,1.14v2a.1.1,0,0,1-.11.11h-.55c-.07,0-.1,0-.1-.11V67.28c0-.32-.14-.49-.42-.49a1.25,1.25,0,0,0-.31,0q-.12,0-.12-.09v-.41a.12.12,0,0,1,.09-.13,1.54,1.54,0,0,1,.5-.08.87.87,0,0,1,.94.8,1.8,1.8,0,0,1,1.55-.8A2,2,0,0,1,199.9,66.24Z"/><path class="cls-1" d="M206,70.38c0,.07,0,.11-.08.12a1.7,1.7,0,0,1-.54.09.85.85,0,0,1-.95-.75,2.06,2.06,0,0,1-1.61.75A2.22,2.22,0,0,1,201.2,70a2.14,2.14,0,0,1-.66-1.6,2.17,2.17,0,0,1,.65-1.6,2.24,2.24,0,0,1,1.63-.64,2,2,0,0,1,1.51.7v-.46c0-.08,0-.11.1-.11H205c.07,0,.1,0,.1.11v3.08c0,.32.13.48.38.48l.36,0c.07,0,.11,0,.12.08ZM202.83,70a1.42,1.42,0,0,0,1.07-.45,1.65,1.65,0,0,0,.43-1.15,1.63,1.63,0,0,0-.43-1.14,1.39,1.39,0,0,0-1.07-.46,1.42,1.42,0,0,0-1.09.46,1.7,1.7,0,0,0,0,2.28A1.42,1.42,0,0,0,202.83,70Z"/><path class="cls-1" d="M208.07,70.59a1.13,1.13,0,0,1-.78-.25.94.94,0,0,1-.28-.71V64c0-.07,0-.1.11-.1h.54c.08,0,.11,0,.11.1v5.46c0,.33.13.49.39.49l.34,0c.08,0,.13,0,.14.08l0,.41a.09.09,0,0,1-.08.12A1.69,1.69,0,0,1,208.07,70.59Z"/><path class="cls-1" d="M217.28,70.38a.09.09,0,0,1-.08.12,1.69,1.69,0,0,1-.53.09.87.87,0,0,1-1-.75,2,2,0,0,1-1.6.75,2.26,2.26,0,0,1-1.63-.63,2.29,2.29,0,0,1,0-3.2,2.24,2.24,0,0,1,1.63-.64,1.91,1.91,0,0,1,1.5.69V64c0-.07,0-.1.1-.1h.56c.07,0,.1,0,.1.1v5.46c0,.33.13.49.39.49l.35,0a.09.09,0,0,1,.13.08ZM214.12,70a1.42,1.42,0,0,0,1.07-.45,1.65,1.65,0,0,0,.43-1.15,1.63,1.63,0,0,0-.43-1.14,1.39,1.39,0,0,0-1.07-.46,1.42,1.42,0,0,0-1.09.46,1.7,1.7,0,0,0,0,2.28A1.42,1.42,0,0,0,214.12,70Z"/><path class="cls-1" d="M220.38,70.59a2.28,2.28,0,0,1-1.66-.61,2.13,2.13,0,0,1-.64-1.62,2.13,2.13,0,0,1,2.26-2.24,2.12,2.12,0,0,1,1.58.62,2.23,2.23,0,0,1,.6,1.61v.12a.57.57,0,0,0,0,.12.1.1,0,0,1-.1.08h-3.56a1.51,1.51,0,0,0,.51,1,1.54,1.54,0,0,0,1,.36,1.26,1.26,0,0,0,1.13-.5.2.2,0,0,1,.14-.06h.59c.09,0,.12,0,.08.12a1.62,1.62,0,0,1-.74.77A2.54,2.54,0,0,1,220.38,70.59Zm-1.55-2.48h2.92a1.47,1.47,0,0,0-.4-1,1.29,1.29,0,0,0-1-.4,1.51,1.51,0,0,0-1,.38A1.42,1.42,0,0,0,218.83,68.11Z"/><path class="cls-1" d="M229.18,70.59a3.31,3.31,0,0,1-2.4-.9,3.15,3.15,0,0,1-.93-2.35,3.1,3.1,0,0,1,.94-2.34,3.33,3.33,0,0,1,2.41-.9,3.48,3.48,0,0,1,2,.56,2.69,2.69,0,0,1,1.11,1.46q0,.12-.09.12h-.63a.14.14,0,0,1-.13-.08,1.83,1.83,0,0,0-.82-1,2.56,2.56,0,0,0-1.39-.38,2.47,2.47,0,0,0-1.82.71,2.44,2.44,0,0,0-.72,1.82,2.43,2.43,0,0,0,2.52,2.53,2.2,2.2,0,0,0,1.53-.55,2.15,2.15,0,0,0,.74-1.39h-2.28c-.08,0-.12,0-.12-.1v-.48c0-.07,0-.1.12-.1h3c.07,0,.11,0,.11.1a3.24,3.24,0,0,1-.87,2.36A3,3,0,0,1,229.18,70.59Z"/><path class="cls-1" d="M237.54,70a2.6,2.6,0,0,1-3.37,0,2.29,2.29,0,0,1,0-3.22,2.55,2.55,0,0,1,3.36,0,2.1,2.1,0,0,1,.66,1.61A2.15,2.15,0,0,1,237.54,70Zm-2.82-.47a1.58,1.58,0,0,0,2.71-1.14,1.61,1.61,0,0,0-2.72-1.13,1.5,1.5,0,0,0-.44,1.13A1.54,1.54,0,0,0,234.72,69.5Z"/><path class="cls-1" d="M241.65,66.12a2.23,2.23,0,0,1,1.62.64,2.13,2.13,0,0,1,.65,1.6,2.17,2.17,0,0,1-.65,1.6,2.24,2.24,0,0,1-1.62.63,2,2,0,0,1-1.51-.68v.45a.1.1,0,0,1-.11.11h-.55a.1.1,0,0,1-.11-.11V64c0-.07,0-.1.11-.1H240c.07,0,.11,0,.11.1v2.87A1.85,1.85,0,0,1,241.65,66.12Zm0,3.84a1.44,1.44,0,0,0,1.08-.45,1.61,1.61,0,0,0,.43-1.15,1.59,1.59,0,0,0-.43-1.14,1.5,1.5,0,0,0-2.16,0,1.73,1.73,0,0,0,0,2.28A1.41,1.41,0,0,0,241.64,70Z"/><path class="cls-1" d="M245.55,65.18a.52.52,0,0,1-.35-.14.43.43,0,0,1-.15-.34.43.43,0,0,1,.15-.33.52.52,0,0,1,.35-.14.57.57,0,0,1,.37.14.43.43,0,0,1,.15.33.43.43,0,0,1-.15.34A.53.53,0,0,1,245.55,65.18Zm.67,5.41a1.09,1.09,0,0,1-.76-.25.91.91,0,0,1-.28-.71V66.36a.1.1,0,0,1,.11-.11h.54a.1.1,0,0,1,.11.11v3.07c0,.33.13.49.38.49l.35,0c.07,0,.11,0,.12.08l.06.41a.1.1,0,0,1-.09.12A1.7,1.7,0,0,1,246.22,70.59Z"/><path class="cls-1" d="M249.88,70.59a2.28,2.28,0,0,1-1.66-.61,2.13,2.13,0,0,1-.64-1.62,2.13,2.13,0,0,1,2.26-2.24,2.12,2.12,0,0,1,1.58.62,2.23,2.23,0,0,1,.6,1.61v.12a.57.57,0,0,0,0,.12.1.1,0,0,1-.1.08h-3.56a1.51,1.51,0,0,0,.51,1,1.54,1.54,0,0,0,1,.36,1.26,1.26,0,0,0,1.13-.5.2.2,0,0,1,.14-.06h.59c.09,0,.12,0,.08.12a1.62,1.62,0,0,1-.74.77A2.54,2.54,0,0,1,249.88,70.59Zm-1.55-2.48h2.92a1.47,1.47,0,0,0-.4-1,1.29,1.29,0,0,0-1-.4,1.51,1.51,0,0,0-1,.38A1.42,1.42,0,0,0,248.33,68.11Z"/><path class="cls-1" d="M256.65,66.24c.07,0,.1.06.08.12l-.07.45c0,.07-.05.1-.13.08a2,2,0,0,0-.61-.08,1.37,1.37,0,0,0-1,.44,1.61,1.61,0,0,0-.41,1.14v2a.1.1,0,0,1-.11.11h-.54a.1.1,0,0,1-.11-.11V67.28c0-.32-.14-.49-.42-.49a1.24,1.24,0,0,0-.3,0c-.09,0-.13,0-.13-.09v-.41a.12.12,0,0,1,.09-.13,1.59,1.59,0,0,1,.5-.08.87.87,0,0,1,.94.8,1.82,1.82,0,0,1,1.55-.8A2,2,0,0,1,256.65,66.24Z"/><path class="cls-1" d="M263.23,70.38a.09.09,0,0,1-.08.12,1.69,1.69,0,0,1-.53.09,1.13,1.13,0,0,1-.78-.25.94.94,0,0,1-.28-.71V68.08a1.26,1.26,0,0,0-.34-.94,1.23,1.23,0,0,0-.93-.36,1.36,1.36,0,0,0-1,.4,1.38,1.38,0,0,0-.39,1v2.16a.1.1,0,0,1-.11.11h-.55c-.07,0-.1,0-.1-.11V67.28c0-.32-.14-.49-.42-.49a1.25,1.25,0,0,0-.31,0q-.12,0-.12-.09v-.41a.12.12,0,0,1,.09-.13,1.54,1.54,0,0,1,.5-.08.86.86,0,0,1,.93.74,2,2,0,0,1,1.66-.74,1.82,1.82,0,0,1,1.36.53,1.9,1.9,0,0,1,.52,1.39v1.39c0,.33.12.49.37.49a2.19,2.19,0,0,0,.36,0c.07,0,.11,0,.13.08Z"/><path class="cls-1" d="M268,70a2.6,2.6,0,0,1-3.37,0,2.29,2.29,0,0,1,0-3.22,2.57,2.57,0,0,1,3.37,0A2.29,2.29,0,0,1,268,70Zm-2.82-.47a1.58,1.58,0,0,0,1.14.44,1.52,1.52,0,0,0,1.58-1.58,1.51,1.51,0,0,0-.45-1.13,1.66,1.66,0,0,0-2.27,0,1.51,1.51,0,0,0-.45,1.13A1.54,1.54,0,0,0,265.18,69.5Z"/><path class="cls-1" d="M93.18,61.5c.61-.72,1.25-1.45,1.87-2.16,2.53-2.89,5.15-5.88,6.87-9.54a16.84,16.84,0,0,0,1.64-9.43,14.78,14.78,0,0,0-8.81-11.64,6.83,6.83,0,0,0,1-4.37v0a1,1,0,0,0-.62-.77.94.94,0,0,0-1,.22,3.67,3.67,0,0,1-1.74,1,3.57,3.57,0,0,1-2-.13l-.13-.05A17.78,17.78,0,0,0,84,23.42a17,17,0,0,0-2.58.19v-.13a6,6,0,0,0-.3-1.88.93.93,0,0,0-.55-.58,1,1,0,0,0-.79.06,2.38,2.38,0,0,1-1.22.33,1.52,1.52,0,0,1-.29,0c-.51-.05-1-.07-1.37-.07a14.21,14.21,0,0,0-1.95.14,15.31,15.31,0,0,0-1.88.39,14.22,14.22,0,0,0-3.44,1.52,12.83,12.83,0,0,0-1.53,1.09,12.64,12.64,0,0,0-1.37,1.27c-.28.29-.54.58-.79.89a10.58,10.58,0,0,0-.68,1c-.44.67-.83,1.37-1.28,2,0,.07-.09.14-.14.21l-.08.11s-.07.07-.07.1l0,.05c-.27.37-.57.74-.88,1.09s-.58.62-.89.92L58,29.44l-.45-2.7c.19-.3.37-.6.53-.89l.1-.17.24-.51.06-.14c.06-.14.12-.29.17-.43a1.3,1.3,0,0,0,.08-.17l.07-.19.79-.17.63-4.61h0l-.85-.21c0-.15,0-.3-.06-.44s-.06-.39-.11-.58a6.59,6.59,0,0,0-.59-1.57.3.3,0,0,0,0-.1,5.85,5.85,0,0,0-3.32-2.9l-.11,0,0-.14.12-.3a5.81,5.81,0,0,1,2.67-2.8,6.38,6.38,0,0,1,.29.85.8.8,0,0,0,.88.55,1.49,1.49,0,0,0,.67-.25,2.67,2.67,0,0,0,.8-.87A6.23,6.23,0,0,0,61,4.87a4.12,4.12,0,0,0-3.53-2.59,4,4,0,0,0-1.55.27,4.51,4.51,0,0,0-8.12,0,4,4,0,0,0-1.56-.27,4.12,4.12,0,0,0-3.53,2.59,6.26,6.26,0,0,0,.43,5.79,2.79,2.79,0,0,0,.8.87,1.49,1.49,0,0,0,.67.25.8.8,0,0,0,.88-.55s.1-.36.3-.85a5.83,5.83,0,0,1,2.66,2.8l.12.3a.78.78,0,0,1,0,.14l-.11,0a5.85,5.85,0,0,0-3.32,2.9.3.3,0,0,0,0,.1,7.58,7.58,0,0,0-.59,1.57c-.05.19-.07.39-.11.58s0,.29-.05.44l-.86.21h0l.63,4.61.8.17a1.46,1.46,0,0,0,.07.19,1.22,1.22,0,0,0,.07.17l.18.43.05.14.24.51.1.17c.16.3.35.6.54.9l-.45,2.69L42.08,32c-.17-.16-.35-.34-.51-.52l-.25-.27a12.72,12.72,0,0,1-.88-1.09l0-.05s0-.08-.07-.1l-.07-.11-.15-.21c-.44-.67-.83-1.37-1.27-2-.22-.33-.44-.66-.68-1s-.52-.6-.79-.89A13.65,13.65,0,0,0,36,24.46a13.78,13.78,0,0,0-3.19-2A14.17,14.17,0,0,0,31,21.85a14.57,14.57,0,0,0-1.88-.39,14,14,0,0,0-1.95-.14c-.4,0-.85,0-1.36.07a1.52,1.52,0,0,1-.29,0,2.38,2.38,0,0,1-1.22-.33,1,1,0,0,0-.79-.06.93.93,0,0,0-.55.58,6,6,0,0,0-.31,1.88c0,.06,0,.12,0,.18a17.81,17.81,0,0,0-9.21.91l-.13.05a3.61,3.61,0,0,1-2,.13,3.67,3.67,0,0,1-1.74-1A.92.92,0,0,0,8,24.33v0a6.71,6.71,0,0,0,1,4.37A14.77,14.77,0,0,0,.13,40.37,16.92,16.92,0,0,0,1.77,49.8c1.72,3.66,4.34,6.65,6.87,9.54.62.71,1.26,1.44,1.87,2.16l.64.75c1.58,1.83,3.36,3.9,3.36,5.88a3.13,3.13,0,0,1-3.41,3.41,3.56,3.56,0,0,1-1.3-.23,2.39,2.39,0,0,0-.52-.1h0A2.1,2.1,0,0,0,7,72.62a1.77,1.77,0,0,0-.5.07,1.85,1.85,0,0,0-1.34,2v.1a10.74,10.74,0,0,0,10.45,9.48h.14a11,11,0,0,0,6.59-2.31l.06.06a1.83,1.83,0,0,0,1.31.55,1.87,1.87,0,0,0,1.08-.34,11.72,11.72,0,0,0,3.49-3.93h0c.07-.13.14-.25.2-.38a3.37,3.37,0,0,0,.19.32c.12.21.25.42.38.63,4.69,7.29,13.41,11.81,22.76,11.81S69.91,86.14,74.6,78.85l.39-.63.18-.32.2.38h0a11.62,11.62,0,0,0,3.49,3.93,1.84,1.84,0,0,0,1.07.34A1.87,1.87,0,0,0,81.27,82l.06-.06a11,11,0,0,0,6.59,2.31h.14a10.75,10.75,0,0,0,10.45-9.48v-.1a1.85,1.85,0,0,0-1.35-2,1.68,1.68,0,0,0-.5-.07,2.1,2.1,0,0,0-2.26-1.41h0a2.3,2.3,0,0,0-.51.1,3.65,3.65,0,0,1-1.31.23,3.13,3.13,0,0,1-3.41-3.41c0-2,1.79-4,3.36-5.88ZM84,25.27a15.72,15.72,0,0,1,5.63,1l.15.06a5.48,5.48,0,0,0,3.08.19,5.75,5.75,0,0,0,1-.33A5.33,5.33,0,0,1,93,28.1a14,14,0,0,0-3.61-.48,13.25,13.25,0,0,0-11.28,6.31,2,2,0,0,0-2-1.41H70.64a13.43,13.43,0,0,1,.8-1.13A15.81,15.81,0,0,1,84,25.27ZM85.86,48c0,.15.1.3.16.44a5.51,5.51,0,0,0,5.29,3.44h.23c-4,4.08-9.6,6.27-13.42,10.52V47.74l.4-.39c1.08-1.12,2.07-2.38,3.19-3.48a10.65,10.65,0,0,1,6-3.4,4.52,4.52,0,0,1,2.82.33A2.67,2.67,0,0,1,91.61,42a2.59,2.59,0,0,1-.52,2.9l-.24.19a2.8,2.8,0,0,1-1.27.47,2.06,2.06,0,0,1-.89-.1,2.39,2.39,0,0,0-1.06-.14,2.06,2.06,0,0,0-1.41.77A2.16,2.16,0,0,0,85.86,48ZM64.11,32.31a16,16,0,0,0,1.43-1.85c.44-.65.84-1.34,1.28-2a14,14,0,0,1,1.24-1.53,12.15,12.15,0,0,1,3-2.28,12.86,12.86,0,0,1,1.73-.78,13.18,13.18,0,0,1,1.84-.5,12.91,12.91,0,0,1,2-.21h.3a11,11,0,0,1,1.2.07,4.24,4.24,0,0,0,1.46-.1c0,.11,0,.23,0,.34a4.36,4.36,0,0,1,0,.51,17.69,17.69,0,0,0-11,8.53H63.92Zm-5.7-11.43-.18,1.63h0l-.89.18-.86.18V20.41l1.1.26Zm-6.57,4.83h0l4.7-1h0a10.06,10.06,0,0,1-.63,1.08c-.16.23-.33.47-.51.69a4.77,4.77,0,0,1-3.57,2,4.79,4.79,0,0,1-3.58-2c-.18-.22-.35-.46-.51-.69a10.06,10.06,0,0,1-.63-1.08h0Zm-2.76-2.46V20L51,19.54v4.1Zm3.68.39v-4.1l1.87.45v3.26ZM46.63,8.75A4,4,0,0,1,48,7.44a6,6,0,0,0-3.55,1.74,4.54,4.54,0,0,1,0-3.56,2.24,2.24,0,0,1,1.91-1.45,3.63,3.63,0,0,1,1.88.48,5.63,5.63,0,0,1,2.82,3.67,5.9,5.9,0,0,0-1.2-4.18,6.52,6.52,0,0,0-.48-.55,2.63,2.63,0,0,1,5,0,6.52,6.52,0,0,0-.48.55,5.9,5.9,0,0,0-1.2,4.18,5.63,5.63,0,0,1,2.82-3.67,3.63,3.63,0,0,1,1.88-.48,2.23,2.23,0,0,1,1.91,1.45,4.54,4.54,0,0,1,0,3.56,6,6,0,0,0-3.55-1.74,3.78,3.78,0,0,1,1.36,1.31,7.6,7.6,0,0,0-3.49,3.7l-.15.35a2.29,2.29,0,0,1-.1.23c-.51-.21-1-.5-1.48-.76h0c-.5.26-1,.55-1.48.76a2.29,2.29,0,0,1-.1-.23c-.05-.12-.09-.23-.15-.35A7.6,7.6,0,0,0,46.63,8.75Zm2.72,6.66c.41-.15.86-.27,1.28-.43a12,12,0,0,0,1.23-.64,11.82,11.82,0,0,0,1.22.64c.42.16.87.28,1.28.43a4.71,4.71,0,0,1,2.92,3.34c-4.94-1.22-5.29-1.3-5.41-1.3h0a6.51,6.51,0,0,0-.9.19l-4.51,1.11A4.71,4.71,0,0,1,49.35,15.41Zm-3.83,7.11h0l-.17-1.63.87-.21,1.1-.26v2.47l-.87-.18Zm2.06,7.84.28-1.58.12.1a5.85,5.85,0,0,0,3.87,1.65h0a5.29,5.29,0,0,0,2.1-.47,6.67,6.67,0,0,0,1.77-1.18l.13-.14.29,1.62,3.12,2.16H44.47Zm-23-7.22a4.22,4.22,0,0,0,1.46.1,10.72,10.72,0,0,1,1.19-.07h.3a12.64,12.64,0,0,1,1.95.21,12.94,12.94,0,0,1,1.85.5,13.45,13.45,0,0,1,1.73.78,11.79,11.79,0,0,1,1.57,1,11.66,11.66,0,0,1,2.63,2.78c.45.65.84,1.34,1.28,2a17.28,17.28,0,0,0,1.44,1.85l.19.21H35.21l.06.1-.06-.1h0a17.7,17.7,0,0,0-10.65-8.44,4,4,0,0,1,0-.6C24.51,23.37,24.52,23.25,24.53,23.14ZM10.89,26.55A5.49,5.49,0,0,0,14,26.36l.14-.06a15.87,15.87,0,0,1,19,6.22H27.63a2,2,0,0,0-2,1.41,13.27,13.27,0,0,0-11.29-6.31,13.43,13.43,0,0,0-3.6.49,5.11,5.11,0,0,1-.85-1.89A5.23,5.23,0,0,0,10.89,26.55Zm17,46.93c0,.15,0,.3-.05.44s0,.07,0,.1-.05.32-.08.47v0a9.58,9.58,0,0,1-.64,2l0,.08a3.78,3.78,0,0,1-.17.35l-.12.25a10,10,0,0,1-3,3.43,9.78,9.78,0,0,0,1.46-8.46v0a13.47,13.47,0,0,1-1.78,5.72v0a8.9,8.9,0,0,1-7.66,4.45h-.11A9,9,0,0,1,7,74.54v0l0,0a.1.1,0,0,1,0,.06,6.51,6.51,0,0,0,12-3.15,6.5,6.5,0,0,1-2.86,3.28l-.08,0a5.45,5.45,0,0,1-1.14.49c-1.69.57-4.7,1-6.43-2.36a3.47,3.47,0,0,1,.41.16,5.33,5.33,0,0,0,.88.29,4.17,4.17,0,0,0,1,.11,9.1,9.1,0,0,0,.91,0l.46,0a3,3,0,0,0,.32-.06,5.09,5.09,0,0,0,1.32-.48A4.69,4.69,0,0,0,14.87,72a4.83,4.83,0,0,0,.81-1,5.17,5.17,0,0,0,.51-1.3,6.28,6.28,0,0,0,.18-1.5c0-3-2.64-5.68-4.44-7.82-3-3.59-6.46-7-8.49-11.3A15.32,15.32,0,0,1,2,40.62,12.64,12.64,0,0,1,14.35,29.47a11.1,11.1,0,0,1,11.23,10.1v5.2l0,0a27.3,27.3,0,0,0-4.28-4.18c-2.47-1.75-6.11-3-9-1.43A4.79,4.79,0,0,0,10.72,46a4.41,4.41,0,0,0,4.9,1.57s-1,3.3-4.95,1.86A4.31,4.31,0,0,1,9.84,49a7.1,7.1,0,0,1-1.3-1.15A6.4,6.4,0,0,1,8,47.17a6.79,6.79,0,0,1-.61-1.09,7.14,7.14,0,0,1-.48-1.46,7.33,7.33,0,0,1,.62-4.48,9,9,0,0,1,5.34-4.41,10.34,10.34,0,0,1,7.46.89c.33.19.63.4.93.61a4.42,4.42,0,0,1,.74.62c-1.19-2.54-4.35-3.89-7-4A9.73,9.73,0,0,0,7,37.51a9.88,9.88,0,0,0-1.91,7.91c.54,3,3,5.58,4.89,7.87,3.43,4.11,6.93,8.14,9.49,12.87A11.85,11.85,0,0,1,20.92,72a7.76,7.76,0,0,1-7.39,7.75h0a7.56,7.56,0,0,0,1.36.12,7.86,7.86,0,0,0,3-.6,8,8,0,0,0,4-3.6c3.5-6.51-2-13.11-5.88-17.89-.24-.3-1.47-1.72-2-2.34l4.48,3.23c.9.67,1.81,1.33,2.7,2.06a23.5,23.5,0,0,1,3.59,3.53A13.52,13.52,0,0,1,27.86,73.48ZM17.47,46.05a2,2,0,0,0-1.4-.77,2.37,2.37,0,0,0-1.06.14,2.08,2.08,0,0,1-.89.1,2.76,2.76,0,0,1-1.27-.47,1.55,1.55,0,0,1-.24-.19,2.55,2.55,0,0,1,.57-4.06A4.56,4.56,0,0,1,16,40.47a10.72,10.72,0,0,1,6,3.4c1.12,1.1,2.1,2.36,3.19,3.48.1.11.23.23.4.39V62.4C21.76,58.15,16.16,56,12.16,51.88h.22a5.51,5.51,0,0,0,5.29-3.44c.06-.14.11-.29.16-.44A2.13,2.13,0,0,0,17.47,46.05ZM74,73.54v.09a11.69,11.69,0,0,0,.26,1.66h0a22.31,22.31,0,0,1-1.07,2.06l-.36.57a24.8,24.8,0,0,1-21,10.89c-9,0-16.79-4.38-21-10.89l-.36-.57a21.19,21.19,0,0,1-1.07-2.06h0a11.67,11.67,0,0,0,.25-1.66v-.09a14.45,14.45,0,0,0-2.07-8.31V34.37H76.06V65.23A14.44,14.44,0,0,0,74,73.54Zm13.34-5.41a5.81,5.81,0,0,0,.18,1.5A4.71,4.71,0,0,0,88.82,72a4.91,4.91,0,0,0,1.08.79,5.22,5.22,0,0,0,1.32.48l.33.06.46,0c.3,0,.6,0,.9,0a4.2,4.2,0,0,0,1-.11,5.66,5.66,0,0,0,.88-.29,2.9,2.9,0,0,1,.41-.16c-1.74,3.35-4.75,2.93-6.43,2.36a5.53,5.53,0,0,1-1.15-.49l-.08,0a6.53,6.53,0,0,1-2.85-3.28,6.51,6.51,0,0,0,12,3.15.09.09,0,0,1,0-.06v.06a9,9,0,0,1-8.61,7.85h-.12a8.92,8.92,0,0,1-7.66-4.45v0a13.61,13.61,0,0,1-1.78-5.72v0A9.86,9.86,0,0,0,80,80.69a9.83,9.83,0,0,1-3-3.43c0-.08-.09-.16-.13-.25s-.11-.23-.16-.35a.2.2,0,0,1,0-.08,9.55,9.55,0,0,1-.63-2s0,0,0,0,0-.31-.07-.47,0-.06,0-.1,0-.29,0-.44a13.56,13.56,0,0,1,3.1-9.18,24,24,0,0,1,3.6-3.53c.89-.73,1.79-1.39,2.7-2.06l4.47-3.23c-.53.62-1.76,2-2,2.34-3.86,4.78-9.38,11.38-5.89,17.89a8,8,0,0,0,4,3.6,7.79,7.79,0,0,0,3,.6,7.64,7.64,0,0,0,1.36-.12h0A7.76,7.76,0,0,1,82.77,72a11.85,11.85,0,0,1,1.43-5.88c2.57-4.73,6.07-8.76,9.5-12.87,1.92-2.29,4.35-4.84,4.89-7.87a10,10,0,0,0-1.91-7.91,9.75,9.75,0,0,0-8-3.67c-2.68.12-5.83,1.47-7,4a5.4,5.4,0,0,1,.74-.62c.3-.21.61-.42.93-.61a10.35,10.35,0,0,1,7.46-.89,9,9,0,0,1,5.35,4.41,7.4,7.4,0,0,1,.62,4.48,7.16,7.16,0,0,1-.49,1.46,6.1,6.1,0,0,1-.61,1.09,5.39,5.39,0,0,1-.55.71A6.78,6.78,0,0,1,93.85,49a4.23,4.23,0,0,1-.82.42c-3.92,1.44-5-1.86-5-1.86A4.41,4.41,0,0,0,93,46a4.79,4.79,0,0,0-1.61-6.88c-2.85-1.6-6.48-.32-9,1.43a27.36,27.36,0,0,0-4.29,4.18V39.59A11.06,11.06,0,0,1,89.34,29.47a12.63,12.63,0,0,1,12.39,11.15A15.14,15.14,0,0,1,100.25,49c-2,4.3-5.46,7.71-8.48,11.3C90,62.45,87.33,65.13,87.33,68.13Z"/><path class="cls-1" d="M73.05,37.45V64c0,.14,0,.31,0,.51a16.3,16.3,0,0,0-2,8.91v.19c0,.36.07.7.13,1-.19.37-.39.73-.59,1.07l-.08.14,0,.07-.18.28c-.23.31-4.46,6-10.54,8.17a23.38,23.38,0,0,1-7.91,1.37,22.78,22.78,0,0,1-14-4.73l0,0h0a29.39,29.39,0,0,1-4.55-5.07l0-.06-.08-.13c-.2-.34-.39-.7-.59-1.08.06-.38.11-.74.14-1.1v0h0a.45.45,0,0,0,0-.11,16.26,16.26,0,0,0-2-8.85v-27H73.05m1.12-1.11H29.53V64.78a15.25,15.25,0,0,1,2,8.53.25.25,0,0,1,0,.08v0a11.85,11.85,0,0,1-.18,1.35c.26.55.52,1,.8,1.51l.09.14.06.09s2.93,4,4.83,5.35a23.94,23.94,0,0,0,14.71,5,24.65,24.65,0,0,0,8.29-1.44C66.77,83,71.2,76.82,71.2,76.82s.18-.27.25-.39l.1-.16c.28-.47.55-1,.79-1.49-.08-.44-.14-.87-.18-1.33,0,0,0-.08,0-.12a15.29,15.29,0,0,1,2-8.55v-.22c0-.22,0-.41,0-.56V36.34Z"/><path class="cls-1" d="M58.11,36.34H29.53v15a7.67,7.67,0,0,1,1.11.65,8.18,8.18,0,0,1,3.5,6.48l0,18.6v1.77a17.74,17.74,0,0,0,3,3A21.6,21.6,0,0,0,40,83.75,23.61,23.61,0,0,0,45,85.87h.46a1.66,1.66,0,0,1,1.06.39,24.59,24.59,0,0,0,5.3.58,25.05,25.05,0,0,0,2.61-.15,24.55,24.55,0,0,0,5.68-1.29l.41-.16C67,82.77,71.2,76.82,71.2,76.82s.18-.27.25-.39l.1-.16c.28-.47.55-1,.79-1.49-.08-.44-.14-.87-.18-1.33,0,0,0-.08,0-.12a15.29,15.29,0,0,1,2-8.55v-.22c0-.22,0-.41,0-.56V36.34Zm-27,13c-.16-.1-.31-.22-.46-.33V37.45H54.55a6.57,6.57,0,0,1-2,3.15l-.62.53-.3.76a8.8,8.8,0,0,1-5.76,5.25h0a16.76,16.76,0,0,0-2.71.83l-.06,0c-.16.16-.3.34-.47.48l-.07.06c-.15.13-.29.26-.45.38l-.55.4a9.3,9.3,0,0,1-10.46,0ZM73.05,64c0,.14,0,.31,0,.51a16.3,16.3,0,0,0-2,8.91v.11s0,0,0,.08c0,.36.07.7.13,1-.19.37-.39.73-.59,1.07l-.08.14,0,.07-.18.28a26.6,26.6,0,0,1-9.38,7.7,9.9,9.9,0,0,0,.17-1.45,1.6,1.6,0,0,1,1.58-1.56.45.45,0,0,0-.45-.48,4.64,4.64,0,0,0-1.3.19,4.92,4.92,0,0,1-3.38-.3,6.59,6.59,0,0,1-.31-2,6.37,6.37,0,0,1,.24-1.75h0a2.51,2.51,0,0,0,0-.27,5.54,5.54,0,0,0,1.28.16,5.34,5.34,0,0,0,4.79-7.68l-.47-1a9,9,0,0,1,.42-9h0l.15-.06a4.76,4.76,0,0,0,.88-.49,3.18,3.18,0,0,0,1.11-2.1,2.45,2.45,0,0,0,0-.27v-.18a2.48,2.48,0,0,0-.06-.54l-.37.24-.58.43c-.18.14-.37.3-.54.46s-.34.33-.51.5-.31.35-.46.53l0,0-.13.15h0L63,57.5a.64.64,0,0,1-.1.13c-.05.07-.09.14-.14.2l0,.06a10,10,0,0,0-.62,10.4l.45.95A4.25,4.25,0,0,1,63,71.09a4.18,4.18,0,0,1-4.18,4.17h-.14a3.85,3.85,0,0,1-2.85-1.46c-.13-.17-.25-.33-.35-.48a6.9,6.9,0,0,1-1.27-4l.08.1h0a4.66,4.66,0,0,0,1.63,1.09.12.12,0,0,0,.15-.16,4.94,4.94,0,0,1-.18-2.59,6.17,6.17,0,0,1,.48-1.47,1.42,1.42,0,0,0,.28.85.11.11,0,0,0,.21,0,7.75,7.75,0,0,1,.78-2.32,4.84,4.84,0,0,0,.24-.45c.13-.24.27-.47.42-.71a6.93,6.93,0,0,0,.43-.75h0l0,0,0-.09,0-.08,0-.09,0-.09,0-.09a.36.36,0,0,0,0-.09l0-.09,0-.09,0-.09,0-.09,0-.1,0-.08s0-.07,0-.1l0-.09a.36.36,0,0,0,0-.1l0-.09a.36.36,0,0,1,0-.1.29.29,0,0,1,0-.09.43.43,0,0,1,0-.11s0-.05,0-.08a.52.52,0,0,0,0-.11l0-.09s0-.07,0-.11v-.09a.37.37,0,0,0,0-.11.25.25,0,0,0,0-.08s0-.08,0-.13a.17.17,0,0,1,0-.07V60a1.27,1.27,0,0,0,0-.2,6.89,6.89,0,0,0-2.6-5.39,2.62,2.62,0,0,1,.38.09.11.11,0,0,0,.09-.19,6.87,6.87,0,0,0-5-1.45l-.37,0a.34.34,0,0,0-.27.23l-.22.72-.19,0a2,2,0,0,0-1.33.91L48,55.57a.4.4,0,0,0-.26.4.44.44,0,0,0,.11.25c0,.3.23,1.46.71,1.52l.6-.17h0l.09,0h0c.54-.14,1.24-.25,1.44.08,0,0,.41.91-.13,1.12a5.44,5.44,0,0,1-.76.1l-.47,0-.27,0s-.3.89.26,1.16a4.29,4.29,0,0,1,1.35-.21h.59l.28,0a6.38,6.38,0,0,0,2.06-.59,2.8,2.8,0,0,1-1.48,1s-.48.16-.84.25a3.52,3.52,0,0,0-.42.15,6.29,6.29,0,0,0-2.35,1.72l-5.86-2.76.1-.07V58.43a1.68,1.68,0,0,0-1-1.55,1.34,1.34,0,0,0-.63-.16v4L46,64.23l1.93-.52a.32.32,0,0,1,.4.15.29.29,0,0,1-.12.38L42.75,67v-.59a1.67,1.67,0,0,0-1.67-1.67v5.1l6.11-2a6,6,0,0,0,1.73,3.35,5.66,5.66,0,0,1,1.56,2.44L46,75.58a6.9,6.9,0,0,0,0,4.28,6.91,6.91,0,0,1-3.15-1.35V76.94a1.66,1.66,0,0,0-1.67-1.67v5.12a9.45,9.45,0,0,0,5.15,1.76,1.58,1.58,0,0,1,1.55,1.58.44.44,0,0,0,.48-.45,4.59,4.59,0,0,0-.18-1.3A5,5,0,0,1,48,80.69a4.85,4.85,0,0,1,.46-2.09,5.33,5.33,0,0,1,.81-.2,5.79,5.79,0,0,1,1.19-.11,6.66,6.66,0,0,1,1.75.23,6.91,6.91,0,0,0,1.12.2l.57,0a6.66,6.66,0,0,0,2-.31s.25-.09.3.1-.15.36-.15.36a3.51,3.51,0,0,1-1.89.79,5.72,5.72,0,0,1-.92,0c.67,1.55,1.17,2.86,1.25,3a6.9,6.9,0,0,0,4.28,0,6.64,6.64,0,0,1-.7,2.11,23.49,23.49,0,0,1-6.25.85,22.94,22.94,0,0,1-13-4,6.6,6.6,0,0,1-.34-1.82V58.52a8.1,8.1,0,0,1,6.29-7.73l.32-.06a12.27,12.27,0,0,0,9.64-7.61A9.82,9.82,0,0,0,58,37.45H73.05Z"/></g></g></svg>
