<svg xmlns="http://www.w3.org/2000/svg" viewBox="0 0 369.08 84.15"><defs><style>.cls-1{fill:#f45197;}.cls-2{fill:#9578d3;}.cls-3{fill:#00a7e1;}.cls-4{fill:#ffc600;}</style></defs><g id="Capa_2" data-name="Capa 2"><g id="Capa_1-2" data-name="Capa 1"><path class="cls-1" d="M65.76,14.22a13,13,0,0,0-18.41,0L51,17.9a7.81,7.81,0,1,1,11,11l3.68,3.68a13,13,0,0,0,0-18.4"/><polygon class="cls-1" points="65.76 32.62 43.67 54.71 39.99 58.38 36.31 54.7 39.99 51.03 62.08 28.94 65.76 32.62"/><path class="cls-1" d="M14.22,14.22a13,13,0,0,0,0,18.41L17.9,29a7.81,7.81,0,0,1,11-11l3.68-3.68a13,13,0,0,0-18.4,0"/><polygon class="cls-1" points="43.67 54.71 39.99 58.38 39.99 58.39 14.22 32.63 17.9 28.95 39.99 51.03 43.67 54.71"/><polygon class="cls-1" points="33.62 15.21 29.94 18.9 28.94 17.9 32.63 14.22 32.63 14.23 33.62 15.21"/><polygon class="cls-1" points="51.04 17.9 50.04 18.89 46.37 15.21 47.34 14.23 47.35 14.22 51.04 17.9"/><path class="cls-2" d="M73.12,40A23.42,23.42,0,1,0,40,6.86l-3.67,3.67h0l-3.7,3.69L30.8,16.07a12.19,12.19,0,0,0-1.66,2,13,13,0,1,0,20-2l-1.84-1.84-3.67-3.67A18.22,18.22,0,1,1,69.45,36.32L40,65.76,10.56,36.29A18.22,18.22,0,0,1,36.32,10.53L40,6.86A23.42,23.42,0,0,0,6.86,40h0L36.3,69.44l-3.67,3.67L29,69.43l-3.68,3.68L29,76.79l-3.68,3.68L29,84.15l3.68-3.68,3.68,3.68L40,80.47l-3.68-3.68L40,73.12h0l7.37,7.37L44,83.85H54.4V73.44L51,76.8l-7.37-7.37h0ZM45.53,19.73l0,0a7.8,7.8,0,1,1-11,0h0L40,14.21Z"/><path class="cls-3" d="M62.08,28.94,40,51,17.9,29a7.81,7.81,0,0,1,11-11l.2.2a13,13,0,1,0,21.71,0L51,17.9a7.81,7.81,0,1,1,11,11"/><path class="cls-4" d="M45.51,30.79a7.8,7.8,0,0,1-11-11h0L40,14.21l5.52,5.52v0a7.8,7.8,0,0,1,0,11"/><path class="cls-2" d="M121.9,19.53A11.09,11.09,0,0,1,129.52,22a8.57,8.57,0,0,1,2.75,6.74,8.57,8.57,0,0,1-2.75,6.74,11.09,11.09,0,0,1-7.62,2.45h-7.25a.64.64,0,0,1-.73-.71v-17a.64.64,0,0,1,.73-.71Zm-.1,13.57a4.62,4.62,0,0,0,3.33-1.19,4.19,4.19,0,0,0,1.26-3.19,4.19,4.19,0,0,0-1.26-3.19,4.63,4.63,0,0,0-3.33-1.2h-2.11V33.1Z"/><path class="cls-2" d="M137,23.44a3.12,3.12,0,0,1-2.23-.81,2.9,2.9,0,0,1,0-4.14,3.09,3.09,0,0,1,2.23-.83,3.13,3.13,0,0,1,2.22.83,2.87,2.87,0,0,1,0,4.14A3.16,3.16,0,0,1,137,23.44Zm-2,14.47a.64.64,0,0,1-.74-.71V25.6c0-.46.25-.69.74-.69H139c.49,0,.73.23.73.69V37.2a.64.64,0,0,1-.73.71Z"/><path class="cls-2" d="M153.26,24.6a.66.66,0,0,1,.57.81l-.42,3.68a.59.59,0,0,1-.73.58,5.29,5.29,0,0,0-1.34-.16,2.94,2.94,0,0,0-2,.64,2.38,2.38,0,0,0-.76,1.93V37.2a.64.64,0,0,1-.74.71h-4.1a.64.64,0,0,1-.73-.71v-7a1.52,1.52,0,0,0-.17-.85.8.8,0,0,0-.67-.22h-.26c-.51,0-.76-.16-.76-.58V25.6a.78.78,0,0,1,.57-.79,6.22,6.22,0,0,1,2.45-.4A3.93,3.93,0,0,1,147.66,26a5.31,5.31,0,0,1,4.12-1.58A4.88,4.88,0,0,1,153.26,24.6Z"/><path class="cls-2" d="M162.6,38.41a7.94,7.94,0,0,1-5.6-1.93,6.56,6.56,0,0,1-2.12-5.08,6.69,6.69,0,0,1,2-5.07,8.6,8.6,0,0,1,10.82,0,6.79,6.79,0,0,1,1.9,5v.55c0,.45-.26.68-.78.68H160a2.42,2.42,0,0,0,2.62,1.94,2,2,0,0,0,1.42-.5,1.66,1.66,0,0,1,1-.39h3.67a.68.68,0,0,1,.57.21.55.55,0,0,1,.06.55,5.44,5.44,0,0,1-2.41,3A8.17,8.17,0,0,1,162.6,38.41Zm-2.54-8.35h4.75a2.22,2.22,0,0,0-.78-1.43,2.39,2.39,0,0,0-1.59-.54,2.42,2.42,0,0,0-1.58.54A2.12,2.12,0,0,0,160.06,30.06Z"/><path class="cls-2" d="M178.62,38.41A8,8,0,0,1,173,36.48a6.59,6.59,0,0,1-2.11-5.08A6.55,6.55,0,0,1,173,26.33a9.06,9.06,0,0,1,10.46-.49,5.8,5.8,0,0,1,2.35,3.85.61.61,0,0,1-.15.54.77.77,0,0,1-.56.2h-3.42a.94.94,0,0,1-.84-.61,2.25,2.25,0,0,0-2.2-1.28,2.59,2.59,0,0,0-2,.78,2.9,2.9,0,0,0-.75,2.08,2.94,2.94,0,0,0,.75,2.1,2.6,2.6,0,0,0,2,.79,2.17,2.17,0,0,0,2.2-1.32,1,1,0,0,1,.84-.57h3.42a.76.76,0,0,1,.56.19.61.61,0,0,1,.15.54A5.8,5.8,0,0,1,183.47,37,8,8,0,0,1,178.62,38.41Z"/><path class="cls-2" d="M194.72,38.41a8,8,0,0,1-5.61-1.93A6.55,6.55,0,0,1,187,31.4a6.52,6.52,0,0,1,2.11-5.07,9,9,0,0,1,10.45-.49,5.72,5.72,0,0,1,2.35,3.85.58.58,0,0,1-.14.54.77.77,0,0,1-.57.2h-3.41a.94.94,0,0,1-.84-.61,2.26,2.26,0,0,0-2.21-1.28,2.58,2.58,0,0,0-2,.78A2.9,2.9,0,0,0,192,31.4a2.94,2.94,0,0,0,.75,2.1,2.59,2.59,0,0,0,2,.79A2.18,2.18,0,0,0,197,33a1,1,0,0,1,.84-.57h3.41a.77.77,0,0,1,.57.19.58.58,0,0,1,.14.54A5.72,5.72,0,0,1,199.56,37,8,8,0,0,1,194.72,38.41Z"/><path class="cls-2" d="M206.43,23.44a3.14,3.14,0,0,1-2.23-.81,2.9,2.9,0,0,1,0-4.14,3.4,3.4,0,0,1,4.45,0,2.87,2.87,0,0,1,0,4.14A3.16,3.16,0,0,1,206.43,23.44Zm-2.05,14.47a.64.64,0,0,1-.73-.71V25.6c0-.46.24-.69.73-.69h4.1c.49,0,.73.23.73.69V37.2a.64.64,0,0,1-.73.71Z"/><path class="cls-2" d="M218.61,38.41a7.87,7.87,0,0,1-5.56-1.93A6.58,6.58,0,0,1,211,31.4a6.54,6.54,0,0,1,2.1-5.07,7.91,7.91,0,0,1,5.56-1.92,8,8,0,0,1,5.61,1.92,6.52,6.52,0,0,1,2.11,5.07,6.55,6.55,0,0,1-2.11,5.08A8,8,0,0,1,218.61,38.41Zm0-4.33a2.72,2.72,0,0,0,2-.74,2.9,2.9,0,0,0,0-3.89,2.75,2.75,0,0,0-2-.73,2.51,2.51,0,0,0-2.67,2.68,2.53,2.53,0,0,0,2.67,2.68Zm-1.7-11a.55.55,0,0,1-.54-.25.58.58,0,0,1,0-.59l1.68-3.2a.85.85,0,0,1,.81-.53h4a.59.59,0,0,1,.56.25.59.59,0,0,1-.11.6l-2.21,3.28a.92.92,0,0,1-.84.44Z"/><path class="cls-2" d="M238.18,24.41a5.63,5.63,0,0,1,4.09,1.5,5.24,5.24,0,0,1,1.55,4V37.2a.64.64,0,0,1-.73.71H239a.69.69,0,0,1-.52-.2.66.66,0,0,1-.21-.51V31.14a2.19,2.19,0,0,0-.46-1.5,1.64,1.64,0,0,0-1.3-.53,1.71,1.71,0,0,0-1.34.52,2.07,2.07,0,0,0-.47,1.45V37.2a.64.64,0,0,1-.74.71h-4.09a.64.64,0,0,1-.74-.71v-7a1.52,1.52,0,0,0-.17-.85.8.8,0,0,0-.67-.22H228c-.51,0-.76-.16-.76-.58V25.6a.78.78,0,0,1,.57-.79,6.22,6.22,0,0,1,2.45-.4A4.06,4.06,0,0,1,233.79,26,5.69,5.69,0,0,1,238.18,24.41Z"/><path class="cls-2" d="M269.85,37.31a.7.7,0,0,1-.58.81,11.2,11.2,0,0,1-2.52.29c-1.88,0-3.18-.56-3.92-1.68a5.36,5.36,0,0,1-4.38,1.68,6.61,6.61,0,0,1-4.94-1.94,7,7,0,0,1-1.89-5.07,6.92,6.92,0,0,1,1.89-5.06,6.64,6.64,0,0,1,4.94-1.93A5.59,5.59,0,0,1,262,25.49v-6.3c0-.48.25-.71.74-.71h4.1a.62.62,0,0,1,.7.71V32.71a1.44,1.44,0,0,0,.19.84.74.74,0,0,0,.63.24,2.06,2.06,0,0,0,.39,0c.48,0,.74.2.79.61Zm-10.43-3a2.34,2.34,0,0,0,1.87-.79A3.19,3.19,0,0,0,262,31.4a3.21,3.21,0,0,0-.68-2.14,2.32,2.32,0,0,0-1.87-.8,2.24,2.24,0,0,0-1.81.81,3.17,3.17,0,0,0-.68,2.13,3.16,3.16,0,0,0,.68,2.12A2.22,2.22,0,0,0,259.42,34.34Z"/><path class="cls-2" d="M278.54,38.41a8,8,0,0,1-5.61-1.93,6.55,6.55,0,0,1-2.11-5.08,6.69,6.69,0,0,1,2-5.07,8.58,8.58,0,0,1,10.81,0,6.79,6.79,0,0,1,1.91,5v.55c0,.45-.26.68-.79.68H276a2.43,2.43,0,0,0,2.63,1.94A2.07,2.07,0,0,0,280,34a1.64,1.64,0,0,1,.94-.39h3.68a.68.68,0,0,1,.56.21.55.55,0,0,1,.07.55,5.46,5.46,0,0,1-2.42,3A8.16,8.16,0,0,1,278.54,38.41ZM276,30.06h4.75a2.2,2.2,0,0,0-.77-1.43,2.39,2.39,0,0,0-1.59-.54,2.47,2.47,0,0,0-1.59.54A2.16,2.16,0,0,0,276,30.06Z"/><path class="cls-2" d="M121.9,48.7q4.86,0,7.62,2.46a8.54,8.54,0,0,1,2.75,6.73,8.55,8.55,0,0,1-2.75,6.74c-1.84,1.64-4.38,2.45-7.62,2.45h-7.25c-.49,0-.73-.23-.73-.7v-17a.64.64,0,0,1,.73-.71Zm-.1,13.58a4.63,4.63,0,0,0,3.33-1.2,4.67,4.67,0,0,0,0-6.38,4.67,4.67,0,0,0-3.33-1.19h-2.11v8.77Z"/><path class="cls-2" d="M137,52.62a3.13,3.13,0,0,1-2.23-.82,2.89,2.89,0,0,1,0-4.13,3,3,0,0,1,2.23-.83,3.09,3.09,0,0,1,2.22.83,2.86,2.86,0,0,1,0,4.13A3.17,3.17,0,0,1,137,52.62Zm-2,14.46c-.49,0-.74-.23-.74-.7V54.77c0-.46.25-.68.74-.68H139c.49,0,.73.22.73.68V66.38c0,.47-.24.7-.73.7Z"/><path class="cls-2" d="M146.8,67.08a.83.83,0,0,1-.85-.55L141,54.9q-.3-.81.6-.81h4.28a.78.78,0,0,1,.84.55l2.34,5.8,2.33-5.8a.92.92,0,0,1,.84-.55h4.28a.64.64,0,0,1,.58.22.56.56,0,0,1,0,.59l-5,11.63a.79.79,0,0,1-.81.55Z"/><path class="cls-2" d="M165.6,67.58A8,8,0,0,1,160,65.65a6.54,6.54,0,0,1-2.11-5.08,6.69,6.69,0,0,1,2-5.07,8.62,8.62,0,0,1,10.81,0,6.81,6.81,0,0,1,1.91,5v.55c0,.46-.26.68-.79.68H163a2.43,2.43,0,0,0,2.63,2,2.12,2.12,0,0,0,1.42-.5,1.59,1.59,0,0,1,.94-.4h3.68a.68.68,0,0,1,.56.21.57.57,0,0,1,.07.56,5.44,5.44,0,0,1-2.42,2.95A8.16,8.16,0,0,1,165.6,67.58Zm-2.55-8.35h4.75A2.23,2.23,0,0,0,167,57.8a2.39,2.39,0,0,0-1.59-.54,2.47,2.47,0,0,0-1.59.54A2.18,2.18,0,0,0,163.05,59.23Z"/><path class="cls-2" d="M185.69,53.77a.67.67,0,0,1,.57.81l-.42,3.68a.58.58,0,0,1-.73.58,5.29,5.29,0,0,0-1.34-.16,3,3,0,0,0-2,.64,2.39,2.39,0,0,0-.76,1.93v5.13c0,.47-.25.7-.74.7h-4.1c-.49,0-.73-.23-.73-.7v-7a1.56,1.56,0,0,0-.17-.86.84.84,0,0,0-.67-.22h-.26c-.51,0-.76-.16-.76-.58V54.77a.78.78,0,0,1,.57-.79,6,6,0,0,1,2.45-.39,3.92,3.92,0,0,1,3.46,1.57,5.31,5.31,0,0,1,4.12-1.57A4.92,4.92,0,0,1,185.69,53.77Z"/><path class="cls-2" d="M194,67.58a9.66,9.66,0,0,1-4.84-1.09,4.2,4.2,0,0,1-2.25-2.95A.53.53,0,0,1,187,63a.81.81,0,0,1,.58-.18H191a1.34,1.34,0,0,1,.84.47,2.61,2.61,0,0,0,2.1.66c.89,0,1.34-.22,1.34-.66s-.27-.53-.81-.67a15.73,15.73,0,0,0-2-.32,17.24,17.24,0,0,1-2.3-.44,3.74,3.74,0,0,1-2-1.27,4,4,0,0,1-.81-2.6,3.69,3.69,0,0,1,1.78-3.2,8.17,8.17,0,0,1,4.68-1.21,9.06,9.06,0,0,1,4.61,1.06,4.28,4.28,0,0,1,2.19,2.85.54.54,0,0,1-.15.52.76.76,0,0,1-.56.19h-3.39a1,1,0,0,1-.79-.42,1.91,1.91,0,0,0-1.75-.71c-.95,0-1.42.2-1.42.6s.29.56.86.73a17.66,17.66,0,0,0,2.09.43,18.4,18.4,0,0,1,2.46.54,4.41,4.41,0,0,1,2.1,1.32,3.64,3.64,0,0,1,.86,2.52,3.57,3.57,0,0,1-1.81,3.23A9.87,9.87,0,0,1,194,67.58Z"/><path class="cls-2" d="M205.41,52.62a3.17,3.17,0,0,1-2.24-.82,2.91,2.91,0,0,1,0-4.13,3.09,3.09,0,0,1,2.24-.83,3,3,0,0,1,2.21.83,2.86,2.86,0,0,1,0,4.13A3.13,3.13,0,0,1,205.41,52.62Zm-2,14.46c-.49,0-.74-.23-.74-.7V54.77c0-.46.25-.68.74-.68h4.09c.49,0,.74.22.74.68V66.38c0,.47-.25.7-.74.7Z"/><path class="cls-2" d="M228.15,66.48a.69.69,0,0,1-.58.81,10.71,10.71,0,0,1-2.52.29c-1.88,0-3.18-.56-3.92-1.68a5.36,5.36,0,0,1-4.38,1.68,6.57,6.57,0,0,1-4.94-1.94,7.72,7.72,0,0,1,0-10.12,6.6,6.6,0,0,1,4.94-1.93,5.65,5.65,0,0,1,3.54,1.07v-6.3a.64.64,0,0,1,.74-.71h4.1a.62.62,0,0,1,.7.71V61.89a1.44,1.44,0,0,0,.19.84.77.77,0,0,0,.63.23,2.06,2.06,0,0,0,.39,0c.48,0,.74.21.79.61Zm-10.43-3a2.37,2.37,0,0,0,1.87-.78,3.74,3.74,0,0,0,0-4.3,2.35,2.35,0,0,0-1.87-.8,2.24,2.24,0,0,0-1.81.81,3.2,3.2,0,0,0-.68,2.13,3.17,3.17,0,0,0,.68,2.13A2.24,2.24,0,0,0,217.72,63.51Z"/><path class="cls-2" d="M247.24,66.48a.67.67,0,0,1-.58.81,10.68,10.68,0,0,1-2.42.29c-1.87,0-3.17-.52-3.91-1.52a6.84,6.84,0,0,1-4.49,1.52,6.57,6.57,0,0,1-4.94-1.94,7.72,7.72,0,0,1,0-10.12,6.6,6.6,0,0,1,4.94-1.93,5.42,5.42,0,0,1,3.76,1.28v-.1c0-.46.24-.68.73-.68h3.89c.47,0,.71.22.71.68v7a1.89,1.89,0,0,0,.15.9.67.67,0,0,0,.61.25,3,3,0,0,0,.47,0c.47,0,.74.21.79.61Zm-10.43-3a2.37,2.37,0,0,0,1.87-.78,3.74,3.74,0,0,0,0-4.3,2.35,2.35,0,0,0-1.87-.8,2.24,2.24,0,0,0-1.81.81,3.2,3.2,0,0,0-.68,2.13A3.17,3.17,0,0,0,235,62.7,2.24,2.24,0,0,0,236.81,63.51Z"/><path class="cls-2" d="M266.35,66.48a.68.68,0,0,1-.57.81,10.71,10.71,0,0,1-2.52.29c-1.88,0-3.18-.56-3.92-1.68A5.37,5.37,0,0,1,255,67.58,6.57,6.57,0,0,1,250,65.64a7.72,7.72,0,0,1,0-10.12A6.6,6.6,0,0,1,255,53.59a5.67,5.67,0,0,1,3.54,1.07v-6.3a.64.64,0,0,1,.74-.71h4.09a.63.63,0,0,1,.71.71V61.89a1.37,1.37,0,0,0,.19.84.77.77,0,0,0,.63.23,2.13,2.13,0,0,0,.39,0c.47,0,.74.21.79.61Zm-10.42-3a2.33,2.33,0,0,0,1.86-.78,3.69,3.69,0,0,0,0-4.3,2.31,2.31,0,0,0-1.86-.8,2.24,2.24,0,0,0-1.81.81,3.21,3.21,0,0,0-.69,2.13,3.17,3.17,0,0,0,.69,2.13A2.24,2.24,0,0,0,255.93,63.51Z"/><path class="cls-2" d="M282.45,67.58a11,11,0,0,1-6-1.56,6.09,6.09,0,0,1-2.93-4.11.55.55,0,0,1,.11-.54.71.71,0,0,1,.55-.19h4.44a.94.94,0,0,1,.84.52c.43.91,1.41,1.37,2.91,1.37q2,0,1.95-1.08a1.1,1.1,0,0,0-.57-1,4.5,4.5,0,0,0-1.46-.56l-2-.41a14.79,14.79,0,0,1-2.16-.59,9,9,0,0,1-2-1,4.32,4.32,0,0,1-1.45-1.69,5.67,5.67,0,0,1-.57-2.63,5.17,5.17,0,0,1,2.18-4.34,9.28,9.28,0,0,1,5.75-1.65,11.85,11.85,0,0,1,3.73.58,7.84,7.84,0,0,1,3,1.81,5.61,5.61,0,0,1,1.6,2.92.58.58,0,0,1-.12.55.74.74,0,0,1-.57.21h-4.43a1.07,1.07,0,0,1-.92-.53,2,2,0,0,0-2-1.1,2.25,2.25,0,0,0-1.25.32,1,1,0,0,0-.49.86,1.12,1.12,0,0,0,.57,1,4.22,4.22,0,0,0,1.45.59c.6.14,1.26.28,2,.42a15.77,15.77,0,0,1,2.16.59,10.28,10.28,0,0,1,2,1A4.3,4.3,0,0,1,290.18,59a5.39,5.39,0,0,1,.57,2.57,5.13,5.13,0,0,1-2.29,4.36A10,10,0,0,1,282.45,67.58Z"/><path class="cls-2" d="M300,67.58a8,8,0,0,1-5.61-1.93,6.54,6.54,0,0,1-2.11-5.08,6.68,6.68,0,0,1,2-5.07,8.63,8.63,0,0,1,10.82,0,6.81,6.81,0,0,1,1.91,5v.55c0,.46-.27.68-.79.68h-8.8a2.43,2.43,0,0,0,2.63,2,2.12,2.12,0,0,0,1.42-.5,1.59,1.59,0,0,1,.94-.4h3.68a.68.68,0,0,1,.56.21.57.57,0,0,1,.07.56,5.49,5.49,0,0,1-2.42,2.95A8.16,8.16,0,0,1,300,67.58Zm-2.55-8.35h4.75a2.23,2.23,0,0,0-.77-1.43,2.39,2.39,0,0,0-1.59-.54,2.45,2.45,0,0,0-1.59.54A2.18,2.18,0,0,0,297.42,59.23Z"/><path class="cls-2" d="M308.24,67.08c-.3,0-.5-.07-.59-.23s-.07-.36.09-.61l3.94-5.56-3.94-5.78c-.16-.23-.19-.42-.09-.58s.29-.23.59-.23h4.36a1,1,0,0,1,.89.44l1.73,2.52L317,54.53a1,1,0,0,1,.89-.44h4.31a.64.64,0,0,1,.59.23.54.54,0,0,1-.09.58l-3.94,5.8,3.91,5.54c.16.25.19.45.09.61s-.29.23-.59.23h-4a1.11,1.11,0,0,1-.89-.44l-2-2.92-2.1,2.92a1,1,0,0,1-.9.44Z"/><path class="cls-2" d="M340.69,66.48a.66.66,0,0,1-.57.81,10.25,10.25,0,0,1-2.42.29c-2.05,0-3.41-.56-4.1-1.68a5.58,5.58,0,0,1-4.33,1.68,5.13,5.13,0,0,1-5.51-5.48V54.77c0-.46.24-.68.73-.68h4.1c.49,0,.73.22.73.68v6.06c0,1.37.57,2.05,1.71,2.05a1.68,1.68,0,0,0,1.33-.52,2.19,2.19,0,0,0,.46-1.47V54.77c0-.46.23-.68.71-.68h4.12c.49,0,.73.22.73.68v7a1.86,1.86,0,0,0,.16.9.67.67,0,0,0,.61.25,2.44,2.44,0,0,0,.44,0c.47,0,.74.21.79.61Z"/><path class="cls-2" d="M359.79,66.48a.67.67,0,0,1-.58.81,10.74,10.74,0,0,1-2.42.29c-1.87,0-3.18-.52-3.91-1.52a6.84,6.84,0,0,1-4.49,1.52,6.57,6.57,0,0,1-4.94-1.94,7.72,7.72,0,0,1,0-10.12,6.6,6.6,0,0,1,4.94-1.93,5.38,5.38,0,0,1,3.75,1.28v-.1c0-.46.25-.68.74-.68h3.89c.47,0,.7.22.7.68v7a1.86,1.86,0,0,0,.16.9.67.67,0,0,0,.61.25,3,3,0,0,0,.47,0,.69.69,0,0,1,.79.61Zm-10.43-3a2.37,2.37,0,0,0,1.87-.78,3.74,3.74,0,0,0,0-4.3,2.35,2.35,0,0,0-1.87-.8,2.24,2.24,0,0,0-1.81.81,3.2,3.2,0,0,0-.68,2.13,3.17,3.17,0,0,0,.68,2.13A2.24,2.24,0,0,0,349.36,63.51Z"/><path class="cls-2" d="M366,67.58a5.63,5.63,0,0,1-3.49-1A3.14,3.14,0,0,1,361.23,64V48.36a.64.64,0,0,1,.73-.71h4.1a.64.64,0,0,1,.74.71V61.89a1.46,1.46,0,0,0,.17.84.72.72,0,0,0,.61.23,2.25,2.25,0,0,0,.4,0,.69.69,0,0,1,.79.61l.31,2.94a.69.69,0,0,1-.58.81A10.59,10.59,0,0,1,366,67.58Z"/></g></g></svg>
