<svg id="Capa_1" data-name="Capa 1" xmlns="http://www.w3.org/2000/svg" xmlns:xlink="http://www.w3.org/1999/xlink" viewBox="0 0 471.49 221.6"><defs><style>.cls-1{fill:none;}.cls-2{clip-path:url(#clip-path);}.cls-3{clip-path:url(#clip-path-2);}.cls-17,.cls-4{fill:#fff;}.cls-5{clip-path:url(#clip-path-3);}.cls-6{clip-path:url(#clip-path-4);}.cls-7{clip-path:url(#clip-path-5);}.cls-8{fill:#fff;}.cls-9{fill:#fff;}.cls-10{fill:#fff;}.cls-11{fill:#fff;}.cls-12{fill:#fff;}.cls-13{fill:#fff;}.cls-14{fill:#fff;}.cls-15{fill:#fff;}.cls-16{fill:#fff;}.cls-17{stroke:#fff;stroke-miterlimit:10;stroke-width:0.1px;}</style><clipPath id="clip-path"><path class="cls-1" d="M418.52,72.83Q412.63,67,403,67c-7.33,0-13.26,1.83-17.22,6-2.58-4-6.53-5.86-12.41-6a17.44,17.44,0,0,0-6.09,1.39A2.47,2.47,0,0,0,365.5,71v9.61c0,1.26.83,1.83,2.48,1.88a3.14,3.14,0,0,1,2.23.7,4.62,4.62,0,0,1,.8,3.07v28.84a2,2,0,0,0,2.28,2.27h13.37a2,2,0,0,0,2.28-2.27V91.36a9,9,0,0,1,2.43-6.69,8.77,8.77,0,0,1,6.49-2.43,8,8,0,0,1,6.24,2.53,9.91,9.91,0,0,1,2.28,6.89v23.39c0,1.52.8,2.27,2.38,2.27H422c1.59,0,2.38-.75,2.38-2.27V88.29Q424.42,78.67,418.52,72.83Z"/></clipPath><clipPath id="clip-path-2"><polygon class="cls-1" points="397.76 92.07 397.76 66.91 424.42 66.98 424.42 92.14 397.76 92.07"/></clipPath><clipPath id="clip-path-3"><rect class="cls-1" x="363.38" y="66.95" width="34.38" height="25.19"/></clipPath><clipPath id="clip-path-4"><rect class="cls-1" x="406.44" y="92.14" width="17.98" height="25.19"/></clipPath><clipPath id="clip-path-5"><rect class="cls-1" x="371.09" y="92.14" width="17.85" height="25.19"/></clipPath></defs><title>LOGO IMEPLAN 2019 BLANCO</title><g class="cls-2"><g class="cls-3"><rect class="cls-4" x="396.39" y="66.57" width="28.98" height="1.53"/><rect class="cls-4" x="396.39" y="69.57" width="28.98" height="1.53"/><rect class="cls-4" x="396.39" y="72.58" width="28.98" height="1.53"/><rect class="cls-4" x="396.39" y="75.58" width="28.98" height="1.53"/><rect class="cls-4" x="396.39" y="78.59" width="28.98" height="1.53"/><rect class="cls-4" x="396.39" y="81.59" width="28.98" height="1.53"/><rect class="cls-4" x="396.39" y="84.6" width="28.98" height="1.53"/><rect class="cls-4" x="396.39" y="87.6" width="28.98" height="1.53"/><rect class="cls-4" x="396.39" y="90.61" width="28.98" height="1.53"/></g><g class="cls-5"><path class="cls-4" d="M393.86,105.47,386.34,98l-7.58,7.26a.86.86,0,0,1-1.19,0L370.27,98l1.2-1.21,6.71,6.63,7.58-7.27a.85.85,0,0,1,1.19,0l8.11,8.09Z"/><path class="cls-4" d="M378.27,100.1a.84.84,0,0,1-.6-.25L373,95.17l1.2-1.21L378.27,98,382.35,94l1.21,1.21-4.69,4.68A.82.82,0,0,1,378.27,100.1Z"/><path class="cls-4" d="M392.6,80.94l-6.33-6.25-7.13,6.83a.8.8,0,0,1-1.12,0l-6.89-6.76,1.13-1.14,6.33,6.22L385.73,73a.81.81,0,0,1,1.12,0l6.84,6.76Z"/><path class="cls-4" d="M376.9,80.42l-5.83-5.73-7.13,6.83a.8.8,0,0,1-1.12,0L356,74.73l1.13-1.14,6.31,6.24L370.53,73a.81.81,0,0,1,1.12,0l6.46,6.35Z"/><path class="cls-4" d="M407.26,80.42l-5.83-5.73-3.66,3.17-3.47,3.66a.8.8,0,0,1-1.12,0l-6.87-6.78,1.13-1.14,6.31,6.24,4-4.25L400.89,73A.81.81,0,0,1,402,73l6.46,6.35Z"/><path class="cls-4" d="M392.6,70.52l-6.33-6.24-7.13,6.83a.8.8,0,0,1-1.12,0l-6.89-6.76,1.13-1.15,6.33,6.22,7.14-6.83a.8.8,0,0,1,1.12,0l6.84,6.76Z"/><path class="cls-4" d="M376.9,70l-5.83-5.72-7.13,6.83a.8.8,0,0,1-1.12,0L356,64.32l1.13-1.14,6.31,6.23,7.14-6.83a.8.8,0,0,1,1.12,0l6.46,6.35Z"/><path class="cls-4" d="M407.26,70l-5.83-5.72-3.67,3.81-3.46,3a.8.8,0,0,1-1.12,0l-6.87-6.78,1.13-1.14,6.31,6.23,7.14-6.83a.8.8,0,0,1,1.12,0l6.46,6.35Z"/><path class="cls-4" d="M392.6,91.37l-6.33-6.24L379.14,92A.8.8,0,0,1,378,92l-6.89-6.76L372.26,84l6.33,6.22,7.14-6.84a.8.8,0,0,1,1.12,0l6.84,6.75Z"/><path class="cls-4" d="M376.9,90.85l-5.83-5.72L363.94,92a.8.8,0,0,1-1.12,0L356,85.17,357.08,84l6.31,6.23,7.14-6.84a.8.8,0,0,1,1.12,0l6.46,6.34Z"/><path class="cls-4" d="M407.26,90.85l-5.83-5.72L394.3,92a.8.8,0,0,1-1.12,0l-6.87-6.78L387.44,84l6.31,6.23,7.14-6.84a.8.8,0,0,1,1.12,0l6.46,6.34Z"/><path class="cls-4" d="M373.71,82.41l-2.64-2.58-2.61,2.58-1.13-1.14,3.16-3.14a.85.85,0,0,1,1.15,0l3.2,3.14Z"/><path class="cls-4" d="M388.89,82.41l-2.6-2.58-2.64,2.58-1.14-1.14,3.2-3.14a.86.86,0,0,1,1.16,0L390,81.27Z"/><path class="cls-4" d="M378.68,87.05a.76.76,0,0,1-.57-.24L375,83.67l1.13-1.14,2.58,2.58,2.57-2.58,1.14,1.14-3.15,3.14A.76.76,0,0,1,378.68,87.05Z"/><path class="cls-4" d="M393.92,87.05a.76.76,0,0,1-.56-.24l-3.21-3.14,1.14-1.14,2.63,2.58,4-3.67,1,1-4.41,4.4A.76.76,0,0,1,393.92,87.05Z"/><path class="cls-4" d="M363.48,87.05a.76.76,0,0,1-.57-.24l-4.4-4.4,1.13-1.14,3.84,3.84,2.59-2.58,1.14,1.14L364,86.81A.74.74,0,0,1,363.48,87.05Z"/><rect class="cls-4" x="366.46" y="81.58" width="1.61" height="1.78" transform="translate(165.89 -235.54) rotate(45)"/><rect class="cls-4" x="374.1" y="81.58" width="1.61" height="1.78" transform="translate(698.32 -124.31) rotate(135)"/><rect class="cls-4" x="381.65" y="81.58" width="1.61" height="1.78" transform="translate(170.33 -246.28) rotate(45)"/><rect class="cls-4" x="389.29" y="81.58" width="1.61" height="1.78" transform="translate(724.24 -135.05) rotate(135)"/><path class="cls-4" d="M373.71,92.83l-2.64-2.58-2.61,2.58-1.13-1.14,3.16-3.14a.85.85,0,0,1,1.15,0l3.2,3.14Z"/><path class="cls-4" d="M388.89,92.83l-2.6-2.58-2.64,2.58-1.14-1.14,3.2-3.14a.86.86,0,0,1,1.16,0L390,91.69Z"/><path class="cls-4" d="M378.68,97.47a.8.8,0,0,1-.57-.24L375,94.09,376.1,93l2.58,2.58L381.25,93l1.14,1.13-3.15,3.15A.8.8,0,0,1,378.68,97.47Z"/><path class="cls-4" d="M393.92,97.47a.8.8,0,0,1-.56-.24l-3.21-3.14L391.29,93l2.63,2.58,3.84-3.84,1.14,1.14-4.41,4.4A.8.8,0,0,1,393.92,97.47Z"/><path class="cls-4" d="M363.48,97.47a.8.8,0,0,1-.57-.24l-4.4-4.4,1.13-1.14,3.84,3.84L366.07,93l1.14,1.13L364,97.23A.78.78,0,0,1,363.48,97.47Z"/><rect class="cls-4" x="366.46" y="92" width="1.61" height="1.78" transform="translate(173.25 -232.49) rotate(45)"/><rect class="cls-4" x="374.1" y="92" width="1.61" height="1.78" transform="translate(705.68 -106.53) rotate(135)"/><rect class="cls-4" x="381.65" y="92" width="1.61" height="1.78" transform="translate(177.7 -243.23) rotate(45)"/><rect class="cls-4" x="389.29" y="92" width="1.61" height="1.78" transform="translate(731.61 -117.26) rotate(135)"/><path class="cls-4" d="M373.71,72l-2.64-2.58L368.46,72l-1.13-1.13,3.16-3.15a.85.85,0,0,1,1.15,0l3.2,3.15Z"/><path class="cls-4" d="M388.89,72l-2.6-2.58L383.65,72l-1.14-1.13,3.2-3.15a.86.86,0,0,1,1.16,0L390,70.85Z"/><path class="cls-4" d="M378.68,76.62a.76.76,0,0,1-.57-.24L375,73.24l1.13-1.14,2.58,2.58,2.57-2.58,1.14,1.14-3.15,3.14A.76.76,0,0,1,378.68,76.62Z"/><path class="cls-4" d="M393.92,76.62a.76.76,0,0,1-.56-.24l-3.21-3.14,1.14-1.14,2.63,2.58,3.84-3.6,1.14.9-4.41,4.4A.76.76,0,0,1,393.92,76.62Z"/><path class="cls-4" d="M363.48,76.62a.76.76,0,0,1-.57-.24l-4.4-4.4,1.13-1.14,3.84,3.84,2.59-2.58,1.14,1.14L364,76.38A.74.74,0,0,1,363.48,76.62Z"/><rect class="cls-4" x="366.46" y="71.15" width="1.61" height="1.78" transform="translate(158.51 -238.59) rotate(45)"/><rect class="cls-4" x="374.1" y="71.15" width="1.61" height="1.78" transform="translate(690.94 -142.11) rotate(135)"/><rect class="cls-4" x="381.65" y="71.15" width="1.61" height="1.78" transform="translate(162.96 -249.33) rotate(45)"/><rect class="cls-4" x="389.29" y="71.15" width="1.61" height="1.78" transform="translate(716.87 -152.85) rotate(135)"/></g><g class="cls-6"><path class="cls-4" d="M405,95.48l4.95-4.4L405,86.69l1.45-1.3,5.7,5a.87.87,0,0,1,0,1.3l-5.7,5Z"/><path class="cls-4" d="M414.7,93.51l-5,4.4,5,4.39-1.47,1.3-5.69-5a.87.87,0,0,1,0-1.3l5.69-5.05Z"/><path class="cls-4" d="M416.12,102.3l4.95-4.4-4.95-4.39,1.46-1.3,5.69,5.05a.87.87,0,0,1,0,1.3l-5.69,5Z"/><path class="cls-4" d="M405,109.12l4.95-4.39L405,100.34,406.46,99l5.7,5a.87.87,0,0,1,0,1.3l-5.7,5.05Z"/><path class="cls-4" d="M414.7,107.16l-5,4.4,5,4.39-1.47,1.3-5.69-5a.87.87,0,0,1,0-1.3l5.69-5Z"/><path class="cls-4" d="M416.12,116l4.95-4.4-4.95-4.39,1.46-1.3,5.69,5a.87.87,0,0,1,0,1.3l-5.69,5Z"/><path class="cls-4" d="M405,122.77l4.95-4.4L405,114l1.45-1.31,5.7,5a.87.87,0,0,1,0,1.3l-5.7,5Z"/><path class="cls-4" d="M425.83,114l-5,4.39,5,4.39-1.46,1.31-5.7-5a.87.87,0,0,1,0-1.3l5.7-5Z"/><path class="cls-4" d="M425.83,100.34l-5,4.39,5,4.39-1.46,1.31-5.7-5.05a.87.87,0,0,1,0-1.3l5.7-5Z"/><path class="cls-4" d="M425.83,86.69l-5,4.4,5,4.39-1.46,1.3-5.7-5a.87.87,0,0,1,0-1.3l5.7-5Z"/></g><g class="cls-7"><path class="cls-4" d="M375.56,101a3.42,3.42,0,1,1-3.41,3.41,3.41,3.41,0,0,1,3.41-3.41m0-1a4.46,4.46,0,1,0,4.46,4.45,4.46,4.46,0,0,0-4.46-4.45Z"/><path class="cls-4" d="M375.56,103a1.42,1.42,0,1,1-1.42,1.41,1.42,1.42,0,0,1,1.42-1.41m0-1a2.47,2.47,0,1,0,2.47,2.46,2.47,2.47,0,0,0-2.47-2.46Z"/><path class="cls-4" d="M375.56,109.45a3.42,3.42,0,1,1-3.41,3.41,3.41,3.41,0,0,1,3.41-3.41m0-1a4.47,4.47,0,1,0,4.46,4.46,4.46,4.46,0,0,0-4.46-4.46Z"/><path class="cls-4" d="M375.56,111.45a1.42,1.42,0,1,1-1.42,1.41,1.42,1.42,0,0,1,1.42-1.41m0-1a2.47,2.47,0,1,0,2.47,2.46,2.47,2.47,0,0,0-2.47-2.46Z"/><path class="cls-4" d="M384.48,101a3.42,3.42,0,1,1-3.41,3.41,3.41,3.41,0,0,1,3.41-3.41m0-1a4.46,4.46,0,1,0,4.46,4.45,4.46,4.46,0,0,0-4.46-4.45Z"/><path class="cls-4" d="M384.48,103a1.42,1.42,0,1,1-1.42,1.41,1.42,1.42,0,0,1,1.42-1.41m0-1a2.47,2.47,0,1,0,2.47,2.46,2.46,2.46,0,0,0-2.47-2.46Z"/><path class="cls-4" d="M375.56,92.47a3.42,3.42,0,1,1-3.41,3.41,3.41,3.41,0,0,1,3.41-3.41m0-1A4.46,4.46,0,1,0,380,95.88a4.46,4.46,0,0,0-4.46-4.45Z"/><path class="cls-4" d="M375.56,94.47a1.42,1.42,0,1,1-1.42,1.41,1.42,1.42,0,0,1,1.42-1.41m0-1A2.47,2.47,0,1,0,378,95.88a2.47,2.47,0,0,0-2.47-2.46Z"/><path class="cls-4" d="M384.48,92.47a3.42,3.42,0,1,1-3.41,3.41,3.41,3.41,0,0,1,3.41-3.41m0-1a4.46,4.46,0,1,0,4.46,4.45,4.46,4.46,0,0,0-4.46-4.45Z"/><path class="cls-4" d="M384.48,94.47a1.42,1.42,0,1,1-1.42,1.41,1.42,1.42,0,0,1,1.42-1.41m0-1A2.47,2.47,0,1,0,387,95.88a2.46,2.46,0,0,0-2.47-2.46Z"/><path class="cls-4" d="M384.48,109.45a3.42,3.42,0,1,1-3.41,3.41,3.41,3.41,0,0,1,3.41-3.41m0-1a4.47,4.47,0,1,0,4.46,4.46,4.46,4.46,0,0,0-4.46-4.46Z"/><path class="cls-4" d="M384.48,111.45a1.42,1.42,0,1,1-1.42,1.41,1.42,1.42,0,0,1,1.42-1.41m0-1a2.47,2.47,0,1,0,2.47,2.46,2.46,2.46,0,0,0-2.47-2.46Z"/></g></g><path class="cls-4" d="M52.51,60.23a5.47,5.47,0,0,1-3.82-1.48,4.77,4.77,0,0,1,0-7.16,5.52,5.52,0,0,1,3.82-1.48,5.71,5.71,0,0,1,3.87,1.48,4.72,4.72,0,0,1,0,7.16A5.61,5.61,0,0,1,52.51,60.23Zm-2.86,55.29a1,1,0,0,1-1.15-1.15V71.5a1,1,0,0,1,1.15-1.15h5.82a1,1,0,0,1,1.15,1.15v42.87a1,1,0,0,1-1.15,1.15Z"/><path class="cls-4" d="M123.18,69q9,0,14.27,5.63t5.3,14.89v24.83a1,1,0,0,1-1.14,1.15h-5.83a1,1,0,0,1-1.14-1.15V89.93q0-6.41-3.44-10.12t-9.64-3.73A12,12,0,0,0,112,80.14Q108.47,84.2,108.48,91v23.39a1,1,0,0,1-1.15,1.15h-5.92a1,1,0,0,1-1.15-1.15V89.93c0-4.21-1.11-7.56-3.34-10.08a11.52,11.52,0,0,0-9.07-3.77,13.05,13.05,0,0,0-10.07,4.2q-3.87,4.2-3.87,11v23.11a1,1,0,0,1-1.14,1.15H66.94a1,1,0,0,1-1.14-1.15V71a.91.91,0,0,1,1-1h5c.62,0,1,.27,1,1v5.89Q78.59,69,89.38,69q11.27,0,16,9.16Q110.76,69,123.18,69Z"/><path class="cls-4" d="M174.07,116.85q-11,0-17.81-6.59T149.44,93q0-10.7,6.68-17.33T173.59,69q10.5,0,16.95,6.63T197,92.89c0,.25,0,.65-.05,1.19s-.05,1-.05,1.29a1.13,1.13,0,0,1-1.15.86H157.65a16,16,0,0,0,5.49,10.17,16.45,16.45,0,0,0,11,3.86c5.72,0,9.77-1.78,12.12-5.34a2,2,0,0,1,1.43-.67H194c1,0,1.34.44,1,1.33a17.88,17.88,0,0,1-8,8.22A26.68,26.68,0,0,1,174.07,116.85ZM157.46,90.31h31.22a15.43,15.43,0,0,0-4.2-10.46,14,14,0,0,0-10.7-4.25,16.11,16.11,0,0,0-11.22,4.11A15.6,15.6,0,0,0,157.46,90.31Z"/><path class="cls-4" d="M235.27,67.68q11.16,0,18.18,6.87t7,17.86q0,10.89-7,17.76T235.27,117a22,22,0,0,1-13.28-4.1V131.6c0,1.15-.6,1.72-1.81,1.72H209.49c-1.22,0-1.82-.57-1.82-1.72V83.72a3.78,3.78,0,0,0-3.34-3.85c-1.4,0-2.1-.51-2.1-1.53V70.51a2,2,0,0,1,1.44-2.1,11.35,11.35,0,0,1,4.38-.73q8.4,0,11.56,6.11A21.4,21.4,0,0,1,235.27,67.68Zm-9.89,34.42a11.19,11.19,0,0,0,8.74,3.77A11.48,11.48,0,0,0,243,102.1a13.72,13.72,0,0,0,3.49-9.69A13.89,13.89,0,0,0,243,82.62a11.52,11.52,0,0,0-8.83-3.77,11.22,11.22,0,0,0-8.74,3.77A14.1,14.1,0,0,0,222,92.41,13.93,13.93,0,0,0,225.38,102.1Z"/><path class="cls-4" d="M284.44,117.23q-7.37,0-11.65-3.34a10.77,10.77,0,0,1-4.3-9V47.06a1.94,1.94,0,0,1,2.2-2.2h12.89c1.52,0,2.29.73,2.29,2.2V98.81c0,2.54,1,3.82,3,3.82a10.9,10.9,0,0,0,2.19-.2c1.53-.12,2.33.48,2.39,1.82l1,9.36a2,2,0,0,1-1.81,2.48A32,32,0,0,1,284.44,117.23Z"/><path class="cls-4" d="M362.63,113.61a2,2,0,0,1-1.81,2.48,33,33,0,0,1-8,1.14q-9.65-.18-13.08-5.73a24.33,24.33,0,0,1-16.24,5.73q-11.07,0-18-7t-7-18.14q0-11.16,7-18.14t18-7A20.34,20.34,0,0,1,337,71.59v-.76c0-1.4.77-2.1,2.29-2.1h12.32c1.47,0,2.2.7,2.2,2.1V98.61c0,2.68,1,4,3,4a12.26,12.26,0,0,0,2.39-.2c1.52-.12,2.32.48,2.38,1.82Zm-44.49-12.8a9.82,9.82,0,0,0,7.73,3.34,10,10,0,0,0,7.74-3.29,12.61,12.61,0,0,0,3-8.74,12.56,12.56,0,0,0-3-8.73,10.67,10.67,0,0,0-15.47,0,12.65,12.65,0,0,0-3,8.69A12.63,12.63,0,0,0,318.14,100.81Z"/><rect class="cls-8" x="53.04" y="159.28" width="40.6" height="2.98"/><rect class="cls-9" x="93.64" y="159.28" width="40.6" height="2.98"/><rect class="cls-10" x="134.24" y="159.28" width="40.6" height="2.98"/><rect class="cls-11" x="174.84" y="159.28" width="40.6" height="2.98"/><rect class="cls-12" x="215.44" y="159.28" width="40.6" height="2.98"/><rect class="cls-13" x="256.04" y="159.28" width="40.61" height="2.98"/><rect class="cls-14" x="296.65" y="159.28" width="40.6" height="2.98"/><rect class="cls-15" x="337.25" y="159.28" width="40.6" height="2.98"/><rect class="cls-16" x="377.85" y="159.28" width="40.6" height="2.98"/><path class="cls-4" d="M54.24,143a1.14,1.14,0,0,1,2.27,0v7.8a1.14,1.14,0,0,1-2.27,0Z"/><path class="cls-4" d="M59,145.25a1.13,1.13,0,0,1,2.25,0v.09a2.85,2.85,0,0,1,2.32-1.21,2.52,2.52,0,0,1,2.69,2.79v3.87a1.13,1.13,0,0,1-2.25,0v-3.2c0-1-.5-1.53-1.36-1.53a1.34,1.34,0,0,0-1.4,1.53v3.2a1.13,1.13,0,0,1-2.25,0Z"/><path class="cls-4" d="M68.16,151.05a.83.83,0,0,1,.46-1.56.87.87,0,0,1,.44.11,4.34,4.34,0,0,0,2.15.67c.65,0,.94-.22.94-.56v0c0-.46-.76-.61-1.64-.86-1.11-.31-2.36-.8-2.36-2.25v0c0-1.53,1.3-2.38,2.9-2.38a5.76,5.76,0,0,1,2.45.58.85.85,0,0,1-.37,1.63.83.83,0,0,1-.41-.1A4.51,4.51,0,0,0,71,145.8c-.55,0-.83.22-.83.52v0c0,.42.76.62,1.61.9,1.11.35,2.4.85,2.4,2.22v0c0,1.66-1.32,2.42-3,2.42A5.74,5.74,0,0,1,68.16,151.05Z"/><path class="cls-4" d="M76.16,149.64v-3.55h-.07a.91.91,0,1,1,0-1.82h.07v-.93a1.13,1.13,0,0,1,2.25,0v.93h1a.91.91,0,1,1,0,1.82h-1v3.2c0,.49.22.73.72.73h.27a.91.91,0,0,1,.93.88.87.87,0,0,1-.58.79,3.34,3.34,0,0,1-1.28.21C77.09,151.89,76.16,151.37,76.16,149.64Z"/><path class="cls-4" d="M82,142.49c0-.62.55-1,1.26-1s1.26.38,1.26,1v0c0,.62-.55,1-1.26,1s-1.26-.39-1.26-1Zm.14,2.76a1.12,1.12,0,0,1,2.24,0v5.54a1.12,1.12,0,0,1-2.24,0Z"/><path class="cls-4" d="M87.05,149.64v-3.55H87a.91.91,0,1,1,0-1.82h.07v-.93a1.13,1.13,0,0,1,2.25,0v.93h1a.91.91,0,1,1,0,1.82h-1v3.2A.63.63,0,0,0,90,150h.26a.91.91,0,0,1,.93.88.86.86,0,0,1-.57.79,3.4,3.4,0,0,1-1.29.21C88,151.89,87.05,151.37,87.05,149.64Z"/><path class="cls-4" d="M100.17,150.79a1.13,1.13,0,0,1-2.25,0v-.09a2.85,2.85,0,0,1-2.32,1.21,2.52,2.52,0,0,1-2.69-2.79v-3.87a1.13,1.13,0,0,1,2.25,0v3.2c0,1,.5,1.53,1.36,1.53a1.34,1.34,0,0,0,1.4-1.53v-3.2a1.13,1.13,0,0,1,2.25,0Z"/><path class="cls-4" d="M102.7,149.64v-3.55h-.08a.91.91,0,1,1,0-1.82h.08v-.93a1.12,1.12,0,0,1,2.24,0v.93h1a.91.91,0,1,1,0,1.82h-1v3.2a.64.64,0,0,0,.73.73h.26a.91.91,0,0,1,.94.88.87.87,0,0,1-.58.79,3.36,3.36,0,0,1-1.29.21C103.63,151.89,102.7,151.37,102.7,149.64Z"/><path class="cls-4" d="M108,148.06v0a4.07,4.07,0,0,1,4.31-3.9,4,4,0,0,1,4.27,3.88v0a4.31,4.31,0,0,1-8.58,0Zm6.36,0v0a2,2,0,0,0-2.08-2.06,2,2,0,0,0-2.06,2v0a2,2,0,0,0,2.09,2.07A2,2,0,0,0,114.36,148.06Z"/><path class="cls-4" d="M130.9,150.79a1.12,1.12,0,0,1-2.24,0v-.1a3,3,0,0,1-2.47,1.22,3.62,3.62,0,0,1-3.61-3.88v0a3.6,3.6,0,0,1,3.61-3.88,3.14,3.14,0,0,1,2.47,1.12v-2.71a1.12,1.12,0,0,1,2.24,0ZM124.83,148v0a1.93,1.93,0,1,0,3.85,0v0a1.93,1.93,0,1,0-3.85,0Z"/><path class="cls-4" d="M136.82,151.93a3.86,3.86,0,0,1-4.14-3.87v0a3.83,3.83,0,0,1,3.91-3.9,3.64,3.64,0,0,1,3.82,3.61,1,1,0,0,1-1,1h-4.45a1.81,1.81,0,0,0,1.94,1.47,2.69,2.69,0,0,0,1.59-.5.82.82,0,0,1,.55-.17.83.83,0,0,1,.87.84.82.82,0,0,1-.29.63A4.32,4.32,0,0,1,136.82,151.93Zm1.44-4.5a1.65,1.65,0,0,0-1.67-1.59,1.72,1.72,0,0,0-1.71,1.59Z"/><path class="cls-4" d="M147.09,143.06a1.1,1.1,0,0,1,1.14-1.08h3.09c2.47,0,4,1.39,4,3.39v0c0,2.27-1.86,3.44-4.18,3.44h-1.73v1.94a1.14,1.14,0,0,1-2.28,0Zm4.08,3.86c1.14,0,1.8-.65,1.8-1.49v0c0-1-.71-1.48-1.84-1.48h-1.76v3Z"/><path class="cls-4" d="M157,142.54a1.13,1.13,0,0,1,2.25,0v8.25a1.13,1.13,0,0,1-2.25,0Z"/><path class="cls-4" d="M161,149.61v0c0-1.64,1.32-2.39,3.2-2.39a5.92,5.92,0,0,1,1.93.3v-.12c0-.88-.57-1.37-1.7-1.37a5.28,5.28,0,0,0-1.55.21,1,1,0,0,1-.32.05.88.88,0,0,1-.93-.86.89.89,0,0,1,.6-.83,7.31,7.31,0,0,1,2.53-.39,3.82,3.82,0,0,1,2.68.84,3.16,3.16,0,0,1,.85,2.39v3.41a1,1,0,0,1-1.09,1,1,1,0,0,1-1.08-.88h0a3.14,3.14,0,0,1-2.39.95C162.24,151.91,161,151.1,161,149.61Zm5.16-.49v-.37a3.57,3.57,0,0,0-1.43-.28c-1,0-1.55.36-1.55,1v0c0,.57.5.91,1.22.91C165.46,150.44,166.17,149.89,166.17,149.12Z"/><path class="cls-4" d="M170.39,145.25a1.13,1.13,0,0,1,2.25,0v.09a2.83,2.83,0,0,1,2.32-1.21,2.52,2.52,0,0,1,2.69,2.79v3.87a1.13,1.13,0,0,1-2.25,0v-3.2c0-1-.5-1.53-1.36-1.53s-1.4.52-1.4,1.53v3.2a1.13,1.13,0,0,1-2.25,0Z"/><path class="cls-4" d="M183.5,151.93a3.86,3.86,0,0,1-4.14-3.87v0a3.83,3.83,0,0,1,3.92-3.9,3.64,3.64,0,0,1,3.81,3.61,1,1,0,0,1-1.05,1h-4.45a1.81,1.81,0,0,0,1.94,1.47,2.72,2.72,0,0,0,1.6-.5.81.81,0,0,1,.54-.17.83.83,0,0,1,.58,1.47A4.3,4.3,0,0,1,183.5,151.93Zm1.45-4.5a1.65,1.65,0,0,0-1.67-1.59,1.73,1.73,0,0,0-1.72,1.59Z"/><path class="cls-4" d="M188.48,149.61v0c0-1.64,1.32-2.39,3.2-2.39a6,6,0,0,1,1.93.3v-.12c0-.88-.57-1.37-1.7-1.37a5.28,5.28,0,0,0-1.55.21,1,1,0,0,1-.33.05.87.87,0,0,1-.32-1.69,7.31,7.31,0,0,1,2.53-.39,3.79,3.79,0,0,1,2.67.84,3.16,3.16,0,0,1,.86,2.39v3.41a1.05,1.05,0,0,1-1.09,1,1,1,0,0,1-1.08-.88h0a3.15,3.15,0,0,1-2.4.95C189.71,151.91,188.48,151.1,188.48,149.61Zm5.16-.49v-.37a3.57,3.57,0,0,0-1.43-.28c-1,0-1.55.36-1.55,1v0c0,.57.5.91,1.22.91C192.93,150.44,193.64,149.89,193.64,149.12Z"/><path class="cls-4" d="M197.47,148.06v0a4,4,0,0,1,4.15-3.9,4.14,4.14,0,0,1,2.71.84,1,1,0,0,1,.36.73,1,1,0,0,1-1,1,1.11,1.11,0,0,1-.65-.21,2.21,2.21,0,0,0-1.4-.47,2,2,0,0,0-1.92,2v0a2,2,0,0,0,2,2.07,2.37,2.37,0,0,0,1.48-.51,1,1,0,0,1,.6-.2.92.92,0,0,1,.95.91.86.86,0,0,1-.33.67,4,4,0,0,1-2.8,1A3.94,3.94,0,0,1,197.47,148.06Z"/><path class="cls-4" d="M206.41,142.49c0-.62.55-1,1.26-1s1.26.38,1.26,1v0c0,.62-.55,1-1.26,1s-1.26-.39-1.26-1Zm.14,2.76a1.12,1.12,0,0,1,2.24,0v5.54a1.12,1.12,0,0,1-2.24,0Z"/><path class="cls-4" d="M210.67,148.06v0a4.31,4.31,0,0,1,8.58,0v0a4.06,4.06,0,0,1-4.31,3.9A4,4,0,0,1,210.67,148.06Zm6.36,0v0a2,2,0,0,0-2.09-2.06,2,2,0,0,0-2.05,2v0A2,2,0,0,0,215,150.1,2,2,0,0,0,217,148.06Zm-2.69-4.89a.7.7,0,0,1,.15-.38l.81-1.2a1,1,0,0,1,.84-.47c.55,0,1.26.32,1.26.64a.68.68,0,0,1-.3.5l-.91.81a1.71,1.71,0,0,1-1.29.46C214.57,143.53,214.34,143.39,214.34,143.17Z"/><path class="cls-4" d="M221,145.25a1.13,1.13,0,0,1,2.25,0v.09a2.83,2.83,0,0,1,2.32-1.21,2.52,2.52,0,0,1,2.69,2.79v3.87a1.13,1.13,0,0,1-2.25,0v-3.2c0-1-.5-1.53-1.36-1.53s-1.4.52-1.4,1.53v3.2a1.13,1.13,0,0,1-2.25,0Z"/><path class="cls-4" d="M235.37,153.85a.93.93,0,0,1-.71-.88.87.87,0,0,1,.89-.87,1,1,0,0,1,.37.06,1.71,1.71,0,0,0,.47.08.73.73,0,0,0,.8-.45l.08-.16-2.71-5.93a1.47,1.47,0,0,1-.12-.49,1,1,0,0,1,1.11-1,1.07,1.07,0,0,1,1.08.8l1.72,4.36L240,145a1.12,1.12,0,0,1,1.08-.81,1,1,0,0,1,1.07,1,1.37,1.37,0,0,1-.11.5L239.28,152c-.67,1.52-1.33,2.09-2.68,2.09A3.74,3.74,0,0,1,235.37,153.85Z"/><path class="cls-4" d="M248.13,146.9v0a5.18,5.18,0,0,1,5.43-5.06,5.92,5.92,0,0,1,3.53,1,1.05,1.05,0,0,1,.48.86,1.1,1.1,0,0,1-1.13,1.06,1.15,1.15,0,0,1-.69-.22,3.78,3.78,0,0,0-2.27-.67,3,3,0,0,0-3,3v0a3,3,0,0,0,3.14,3.11,3.79,3.79,0,0,0,2.14-.59V148h-1.54a1,1,0,0,1-1-.92,1,1,0,0,1,1-.94h2.61a1.1,1.1,0,0,1,1.13,1.08v2.38a1.46,1.46,0,0,1-.79,1.37,7.2,7.2,0,0,1-3.63,1C250.35,151.93,248.13,149.8,248.13,146.9Z"/><path class="cls-4" d="M263.85,151.93a3.86,3.86,0,0,1-4.14-3.87v0a3.83,3.83,0,0,1,3.92-3.9,3.64,3.64,0,0,1,3.81,3.61,1,1,0,0,1-1.05,1h-4.45a1.81,1.81,0,0,0,1.94,1.47,2.66,2.66,0,0,0,1.59-.5.9.9,0,0,1,1.42.67.82.82,0,0,1-.29.63A4.32,4.32,0,0,1,263.85,151.93Zm1.45-4.5a1.66,1.66,0,0,0-1.67-1.59,1.73,1.73,0,0,0-1.72,1.59Z"/><path class="cls-4" d="M269.09,151.05a.84.84,0,0,1,.46-1.56.91.91,0,0,1,.45.11,4.27,4.27,0,0,0,2.14.67c.65,0,.95-.22.95-.56v0c0-.46-.77-.61-1.64-.86-1.11-.31-2.37-.8-2.37-2.25v0c0-1.53,1.3-2.38,2.9-2.38a5.72,5.72,0,0,1,2.45.58.84.84,0,0,1,.53.79.9.9,0,0,1-1.31.74,4.46,4.46,0,0,0-1.72-.47c-.54,0-.82.22-.82.52v0c0,.42.75.62,1.61.9,1.11.35,2.39.85,2.39,2.22v0c0,1.66-1.31,2.42-3,2.42A5.79,5.79,0,0,1,269.09,151.05Z"/><path class="cls-4" d="M277.09,149.64v-3.55H277a.91.91,0,1,1,0-1.82h.07v-.93a1.13,1.13,0,0,1,2.25,0v.93h1a.91.91,0,1,1,0,1.82h-1v3.2c0,.49.22.73.72.73h.27a.91.91,0,0,1,.93.88.85.85,0,0,1-.58.79,3.31,3.31,0,0,1-1.28.21C278,151.89,277.09,151.37,277.09,149.64Z"/><path class="cls-4" d="M283,142.49c0-.62.54-1,1.25-1s1.26.38,1.26,1v0c0,.62-.55,1-1.26,1s-1.25-.39-1.25-1Zm.13,2.76a1.13,1.13,0,0,1,2.25,0v5.54a1.13,1.13,0,0,1-2.25,0Z"/><path class="cls-4" d="M287.23,148.06v0a4.07,4.07,0,0,1,4.31-3.9,4,4,0,0,1,4.27,3.88v0a4.31,4.31,0,0,1-8.58,0Zm6.36,0v0a2,2,0,0,0-2.08-2.06,2,2,0,0,0-2.06,2v0a2,2,0,0,0,2.09,2.07A2,2,0,0,0,293.59,148.06Zm-2.69-4.89a.7.7,0,0,1,.15-.38l.81-1.2a1,1,0,0,1,.84-.47c.55,0,1.26.32,1.26.64a.68.68,0,0,1-.3.5l-.91.81a1.7,1.7,0,0,1-1.29.46C291.14,143.53,290.9,143.39,290.9,143.17Z"/><path class="cls-4" d="M297.58,145.25a1.13,1.13,0,0,1,2.25,0v.09a2.85,2.85,0,0,1,2.32-1.21,2.52,2.52,0,0,1,2.69,2.79v3.87a1.13,1.13,0,0,1-2.25,0v-3.2c0-1-.5-1.53-1.36-1.53a1.34,1.34,0,0,0-1.4,1.53v3.2a1.13,1.13,0,0,1-2.25,0Z"/><path class="cls-4" d="M319.49,150.79a1.13,1.13,0,0,1-2.25,0v-.1a3,3,0,0,1-2.47,1.22,3.61,3.61,0,0,1-3.6-3.88v0a3.6,3.6,0,0,1,3.6-3.88,3.11,3.11,0,0,1,2.47,1.12v-2.71a1.13,1.13,0,0,1,2.25,0ZM313.41,148v0a1.93,1.93,0,1,0,3.86,0v0a1.93,1.93,0,1,0-3.86,0Z"/><path class="cls-4" d="M325.4,151.93a3.86,3.86,0,0,1-4.14-3.87v0a3.84,3.84,0,0,1,3.92-3.9,3.64,3.64,0,0,1,3.82,3.61,1,1,0,0,1-1.05,1H323.5a1.81,1.81,0,0,0,1.93,1.47,2.72,2.72,0,0,0,1.6-.5.82.82,0,0,1,.55-.17.83.83,0,0,1,.87.84.8.8,0,0,1-.3.63A4.28,4.28,0,0,1,325.4,151.93Zm1.45-4.5a1.65,1.65,0,0,0-1.67-1.59,1.72,1.72,0,0,0-1.71,1.59Z"/><path class="cls-4" d="M331,142.54a1.13,1.13,0,0,1,2.25,0v8.25a1.13,1.13,0,0,1-2.25,0Z"/><path class="cls-4" d="M340.29,143.06a1.1,1.1,0,0,1,1.14-1.08h2.9c3.25,0,5.5,2.11,5.5,4.87v0c0,2.76-2.25,4.9-5.5,4.9h-2.9a1.1,1.1,0,0,1-1.14-1.08Zm4,6.76a2.87,2.87,0,0,0,3.12-2.92v0a2.89,2.89,0,0,0-3.12-2.94h-1.76v5.89Z"/><path class="cls-4" d="M355.52,151.93a3.86,3.86,0,0,1-4.14-3.87v0a3.83,3.83,0,0,1,3.91-3.9,3.64,3.64,0,0,1,3.82,3.61,1,1,0,0,1-1.05,1h-4.45a1.81,1.81,0,0,0,1.94,1.47,2.69,2.69,0,0,0,1.59-.5.9.9,0,0,1,1.42.67.82.82,0,0,1-.29.63A4.32,4.32,0,0,1,355.52,151.93Zm1.45-4.5a1.66,1.66,0,0,0-1.68-1.59,1.72,1.72,0,0,0-1.71,1.59Z"/><path class="cls-4" d="M360.76,151.05a.84.84,0,0,1,.46-1.56.91.91,0,0,1,.45.11,4.27,4.27,0,0,0,2.14.67c.65,0,.95-.22.95-.56v0c0-.46-.77-.61-1.65-.86-1.1-.31-2.36-.8-2.36-2.25v0c0-1.53,1.3-2.38,2.9-2.38a5.76,5.76,0,0,1,2.45.58.84.84,0,0,1,.53.79.9.9,0,0,1-1.31.74,4.46,4.46,0,0,0-1.72-.47c-.54,0-.82.22-.82.52v0c0,.42.75.62,1.61.9,1.11.35,2.39.85,2.39,2.22v0c0,1.66-1.31,2.42-3,2.42A5.79,5.79,0,0,1,360.76,151.05Z"/><path class="cls-4" d="M368.07,149.61v0c0-1.64,1.31-2.39,3.19-2.39a6,6,0,0,1,1.94.3v-.12c0-.88-.58-1.37-1.7-1.37a5.23,5.23,0,0,0-1.55.21,1.1,1.1,0,0,1-.33.05.88.88,0,0,1-.93-.86.89.89,0,0,1,.6-.83,7.31,7.31,0,0,1,2.53-.39,3.8,3.8,0,0,1,2.68.84,3.16,3.16,0,0,1,.86,2.39v3.41a1.06,1.06,0,0,1-1.1,1,1,1,0,0,1-1.08-.88h0a3.12,3.12,0,0,1-2.39.95C369.29,151.91,368.07,151.1,368.07,149.61Zm5.16-.49v-.37a3.66,3.66,0,0,0-1.44-.28c-1,0-1.55.36-1.55,1v0c0,.57.5.91,1.23.91C372.52,150.44,373.23,149.89,373.23,149.12Z"/><path class="cls-4" d="M377.44,145.25a1.13,1.13,0,0,1,2.25,0v.34c.32-.73.85-1.4,1.52-1.4a1,1,0,0,1,.25,2c-1.14.25-1.77,1.07-1.77,2.58v2a1.13,1.13,0,0,1-2.25,0Z"/><path class="cls-4" d="M383.77,145.25a1.12,1.12,0,0,1,2.24,0v.34c.33-.73.86-1.4,1.53-1.4a1,1,0,0,1,.25,2c-1.14.25-1.78,1.07-1.78,2.58v2a1.12,1.12,0,0,1-2.24,0Z"/><path class="cls-4" d="M389.49,148.06v0a4.06,4.06,0,0,1,4.3-3.9,4,4,0,0,1,4.27,3.88v0a4.31,4.31,0,0,1-8.57,0Zm6.36,0v0a2,2,0,0,0-2.09-2.06,2,2,0,0,0-2.05,2v0a2,2,0,0,0,2.08,2.07A2,2,0,0,0,395.85,148.06Z"/><path class="cls-4" d="M399.94,142.54a1.13,1.13,0,0,1,2.25,0v8.25a1.13,1.13,0,0,1-2.25,0Z"/><path class="cls-4" d="M404.55,142.54a1.13,1.13,0,0,1,2.25,0v8.25a1.13,1.13,0,0,1-2.25,0Z"/><path class="cls-4" d="M408.68,148.06v0a4.31,4.31,0,0,1,8.57,0v0a4.31,4.31,0,0,1-8.57,0Zm6.35,0v0A2,2,0,0,0,413,146a2,2,0,0,0-2.06,2v0A2,2,0,0,0,413,150.1,2,2,0,0,0,415,148.06Z"/><path class="cls-4" d="M87.12,170.87a.35.35,0,0,1,.36-.33h1.9c2.05,0,3.47,1.25,3.47,2.88v0c0,1.63-1.42,2.9-3.47,2.9h-1.9a.35.35,0,0,1-.36-.33Zm2.26,4.86c1.65,0,2.71-1,2.71-2.28h0a2.43,2.43,0,0,0-2.71-2.3H87.86v4.59Z"/><path class="cls-4" d="M96.26,176v-5.14a.36.36,0,0,1,.37-.33h4.05a.3.3,0,1,1,0,.59H97v2h3.26a.33.33,0,0,1,.34.3.32.32,0,0,1-.34.3H97v2h3.73a.32.32,0,0,1,.33.3.31.31,0,0,1-.33.3h-4.1A.36.36,0,0,1,96.26,176Z"/><path class="cls-4" d="M104.36,170.83a.37.37,0,0,1,.74,0v4.9h3.38a.33.33,0,0,1,.34.31.32.32,0,0,1-.34.3h-3.75a.36.36,0,0,1-.37-.33Z"/><path class="cls-4" d="M116.24,175.91l2.65-5.15a.48.48,0,0,1,.47-.29h0a.47.47,0,0,1,.46.29l2.65,5.14a.59.59,0,0,1,0,.17.33.33,0,0,1-.35.31.39.39,0,0,1-.36-.24l-.68-1.33h-3.58l-.68,1.35a.38.38,0,0,1-.36.22.31.31,0,0,1-.33-.3A.41.41,0,0,1,116.24,175.91Zm4.62-1.7-1.5-3-1.5,3Zm-1.69-4.35a.24.24,0,0,1,0-.13l.56-.75a.38.38,0,0,1,.33-.19c.23,0,.5.13.5.25s0,.12-.13.19l-.69.59a.58.58,0,0,1-.44.15C119.25,170,119.17,169.92,119.17,169.86Z"/><path class="cls-4" d="M125.81,170.87a.35.35,0,0,1,.36-.33h2.44a2.76,2.76,0,0,1,1.86.58,1.52,1.52,0,0,1,.5,1.14v0c0,.95-.73,1.51-1.74,1.68l1.62,1.86a.35.35,0,0,1,.12.24.37.37,0,0,1-.37.32.46.46,0,0,1-.35-.17l-1.83-2.13h-1.88v2a.35.35,0,0,1-.37.33.35.35,0,0,1-.36-.33Zm2.74,2.63c1,0,1.67-.45,1.67-1.2h0c0-.72-.61-1.15-1.66-1.15h-2v2.36Z"/><path class="cls-4" d="M134.4,176v-5.14a.35.35,0,0,1,.36-.33h4.06a.3.3,0,1,1,0,.59h-3.68v2h3.26a.33.33,0,0,1,.33.3.31.31,0,0,1-.33.3h-3.26v2h3.72a.32.32,0,0,1,.34.3.32.32,0,0,1-.34.3h-4.1A.35.35,0,0,1,134.4,176Z"/><path class="cls-4" d="M142.1,175.91l2.65-5.15a.48.48,0,0,1,.46-.29h0a.49.49,0,0,1,.46.29l2.64,5.14a.41.41,0,0,1,.05.17.33.33,0,0,1-.35.31.42.42,0,0,1-.37-.24l-.68-1.33h-3.58l-.68,1.35a.35.35,0,0,1-.35.22.3.3,0,0,1-.29-.47Zm4.61-1.7-1.5-3-1.5,3Z"/><path class="cls-4" d="M156.32,170.84a.35.35,0,0,1,.36-.33h.09a.41.41,0,0,1,.34.18l2.33,3.11,2.33-3.11a.4.4,0,0,1,.34-.18h.09a.35.35,0,0,1,.36.33v5.21a.37.37,0,0,1-.73,0v-4.33l-2.09,2.73a.38.38,0,0,1-.31.17.4.4,0,0,1-.32-.17L157,171.73v4.33a.34.34,0,0,1-.37.32.34.34,0,0,1-.35-.32Z"/><path class="cls-4" d="M166.26,176v-5.14a.36.36,0,0,1,.37-.33h4.05a.3.3,0,1,1,0,.59H167v2h3.26a.33.33,0,0,1,.34.3.32.32,0,0,1-.34.3H167v2h3.73a.32.32,0,0,1,.33.3.31.31,0,0,1-.33.3h-4.1A.36.36,0,0,1,166.26,176Z"/><path class="cls-4" d="M176.09,171.14H174.2a.33.33,0,0,1-.35-.3.33.33,0,0,1,.35-.3h4.52a.33.33,0,0,1,.35.3.33.33,0,0,1-.35.3h-1.89v4.91a.36.36,0,0,1-.37.33.35.35,0,0,1-.37-.33Z"/><path class="cls-4" d="M182.26,170.87a.35.35,0,0,1,.36-.33h2.44a2.74,2.74,0,0,1,1.86.58,1.48,1.48,0,0,1,.5,1.14v0c0,.95-.72,1.51-1.74,1.68l1.62,1.86a.31.31,0,0,1,.12.24.36.36,0,0,1-.37.32.46.46,0,0,1-.35-.17l-1.83-2.13H183v2a.36.36,0,0,1-.38.33.35.35,0,0,1-.36-.33ZM185,173.5c1,0,1.68-.45,1.68-1.2h0c0-.72-.62-1.15-1.67-1.15h-2v2.36Z"/><path class="cls-4" d="M190.57,173.45h0a3.34,3.34,0,0,1,6.65,0v0a3.34,3.34,0,0,1-6.65,0Zm5.88,0h0a2.45,2.45,0,0,0-2.57-2.4,2.42,2.42,0,0,0-2.55,2.38v0a2.44,2.44,0,0,0,2.57,2.39A2.42,2.42,0,0,0,196.45,173.45Z"/><path class="cls-4" d="M200.63,170.87a.35.35,0,0,1,.36-.33h2.08c1.47,0,2.44.69,2.44,1.84h0c0,1.26-1.17,1.9-2.56,1.9h-1.58v1.76a.36.36,0,0,1-.38.33.35.35,0,0,1-.36-.33Zm2.35,2.82c1.08,0,1.79-.51,1.79-1.27v0c0-.83-.7-1.26-1.75-1.26h-1.65v2.55Z"/><path class="cls-4" d="M208.42,173.45h0a3.35,3.35,0,0,1,6.66,0v0a3.35,3.35,0,0,1-6.66,0Zm5.89,0h0a2.45,2.45,0,0,0-2.57-2.4,2.42,2.42,0,0,0-2.55,2.38v0a2.44,2.44,0,0,0,2.57,2.39A2.42,2.42,0,0,0,214.31,173.45Z"/><path class="cls-4" d="M218.49,170.83a.35.35,0,0,1,.36-.33.35.35,0,0,1,.38.33v4.9h3.38a.33.33,0,0,1,.33.31.31.31,0,0,1-.33.3h-3.76a.35.35,0,0,1-.36-.33Z"/><path class="cls-4" d="M226.18,170.83a.35.35,0,0,1,.36-.33.35.35,0,0,1,.38.33v5.22a.36.36,0,0,1-.38.33.35.35,0,0,1-.36-.33Z"/><path class="cls-4" d="M232.41,171.14h-1.89a.33.33,0,0,1-.35-.3.33.33,0,0,1,.35-.3h4.53a.33.33,0,0,1,.34.3.32.32,0,0,1-.34.3h-1.9v4.91a.35.35,0,0,1-.37.33.36.36,0,0,1-.37-.33Z"/><path class="cls-4" d="M237.38,175.91l2.65-5.15a.48.48,0,0,1,.46-.29h0a.49.49,0,0,1,.46.29l2.64,5.14a.41.41,0,0,1,.05.17.33.33,0,0,1-.35.31.42.42,0,0,1-.37-.24l-.68-1.33H238.7l-.68,1.35a.35.35,0,0,1-.35.22.3.3,0,0,1-.29-.47Zm4.61-1.7-1.5-3-1.5,3Z"/><path class="cls-4" d="M246.94,170.84a.36.36,0,0,1,.37-.33h.1a.47.47,0,0,1,.37.19l4,4.5v-4.38a.34.34,0,0,1,.37-.32.34.34,0,0,1,.35.32v5.24a.31.31,0,0,1-.34.3h0a.56.56,0,0,1-.39-.19l-4-4.61v4.5a.36.36,0,0,1-.72,0Z"/><path class="cls-4" d="M255.76,175.91l2.65-5.15a.48.48,0,0,1,.46-.29h0a.49.49,0,0,1,.46.29L262,175.9a.41.41,0,0,1,.05.17.33.33,0,0,1-.35.31.42.42,0,0,1-.37-.24l-.68-1.33h-3.58l-.68,1.35a.35.35,0,0,1-.35.22.3.3,0,0,1-.29-.47Zm4.61-1.7-1.5-3-1.5,3Z"/><path class="cls-4" d="M270,170.87a.35.35,0,0,1,.36-.33h1.9c2.05,0,3.47,1.25,3.47,2.88v0c0,1.63-1.42,2.9-3.47,2.9h-1.9A.35.35,0,0,1,270,176Zm2.26,4.86a2.4,2.4,0,0,0,2.7-2.28h0a2.42,2.42,0,0,0-2.7-2.3h-1.53v4.59Z"/><path class="cls-17" d="M279.12,176v-5.14a.36.36,0,0,1,.37-.33h4.05a.3.3,0,1,1,0,.59h-3.68v2h3.26a.33.33,0,0,1,.34.3.32.32,0,0,1-.34.3h-3.26v2h3.73a.32.32,0,0,1,.33.3.31.31,0,0,1-.33.3h-4.1A.36.36,0,0,1,279.12,176Z"/><path class="cls-4" d="M291.59,173.45h0a3.09,3.09,0,0,1,3.27-3,3.78,3.78,0,0,1,2.23.62.34.34,0,0,1,.15.26.36.36,0,0,1-.37.34.41.41,0,0,1-.23-.09,3,3,0,0,0-1.81-.53,2.4,2.4,0,0,0-2.48,2.38v0a2.38,2.38,0,0,0,2.58,2.41,3.36,3.36,0,0,0,1.89-.58v-1.44h-1.75a.32.32,0,0,1-.33-.29.31.31,0,0,1,.33-.3h2.09a.35.35,0,0,1,.36.33v1.77a.45.45,0,0,1-.25.39,4.26,4.26,0,0,1-2.36.71A3,3,0,0,1,291.59,173.45Z"/><path class="cls-4" d="M294.91,176.7a3.28,3.28,0,0,1-3.58-3.25h0a3.37,3.37,0,0,1,3.53-3.26,4.07,4.07,0,0,1,2.37.66.58.58,0,0,1-.36,1.07.7.7,0,0,1-.37-.12,2.78,2.78,0,0,0-1.67-.49,2.15,2.15,0,0,0-2.22,2.12,2.13,2.13,0,0,0,2.32,2.17,3.1,3.1,0,0,0,1.63-.46v-1h-1.49a.56.56,0,1,1,0-1.11h2.09a.6.6,0,0,1,.62.59v1.77a.72.72,0,0,1-.37.62A4.63,4.63,0,0,1,294.91,176.7Zm-.05-6a2.81,2.81,0,0,0-3,2.74h0a2.78,2.78,0,0,0,3.06,2.73,4.06,4.06,0,0,0,2.22-.66c.14-.08.14-.16.14-.18v-1.77s0-.07-.11-.07h-2.09s-.07,0-.07,0a.11.11,0,0,0,.07,0h2v1.83l-.11.08a3.65,3.65,0,0,1-2,.63,2.64,2.64,0,0,1-2.84-2.67,2.67,2.67,0,0,1,2.74-2.66,3.23,3.23,0,0,1,1.95.58.19.19,0,0,0,.09,0,.11.11,0,0,0,.11-.08A3.4,3.4,0,0,0,294.86,170.7Z"/><path class="cls-4" d="M300.94,173.91v-3.08a.37.37,0,0,1,.73,0v3a1.81,1.81,0,0,0,2,2,1.76,1.76,0,0,0,2-1.92v-3.08a.35.35,0,0,1,.38-.33.35.35,0,0,1,.36.33v3a2.72,2.72,0,0,1-5.43,0Z"/><path class="cls-4" d="M303.65,176.69a2.67,2.67,0,0,1-3-2.78v-3.08a.63.63,0,0,1,1.25,0v3a1.56,1.56,0,0,0,1.74,1.7,1.51,1.51,0,0,0,1.7-1.66v-3.08a.62.62,0,0,1,.64-.59.6.6,0,0,1,.62.59v3A2.67,2.67,0,0,1,303.65,176.69Zm-2.35-5.94a.1.1,0,0,0-.1.08v3.08a2.46,2.46,0,0,0,4.91,0v-3c0-.07-.22-.06-.22,0v3.08a2,2,0,0,1-2.22,2.17,2.05,2.05,0,0,1-2.26-2.21v-3A.1.1,0,0,0,301.3,170.75Z"/><path class="cls-4" d="M309.36,175.91l2.65-5.15a.48.48,0,0,1,.47-.29h0a.47.47,0,0,1,.46.29l2.65,5.14a.59.59,0,0,1,0,.17.33.33,0,0,1-.35.31.39.39,0,0,1-.36-.24l-.68-1.33h-3.58l-.68,1.35a.38.38,0,0,1-.36.22.31.31,0,0,1-.33-.3A.41.41,0,0,1,309.36,175.91Zm4.62-1.7-1.5-3-1.5,3Z"/><path class="cls-4" d="M315.31,176.64a.67.67,0,0,1-.6-.38l-.6-1.2h-3.26l-.61,1.21a.63.63,0,0,1-.59.37.58.58,0,0,1-.59-.56.51.51,0,0,1,.08-.29l2.64-5.15a.75.75,0,0,1,.7-.43.76.76,0,0,1,.73.44l2.64,5.13a.68.68,0,0,1,.07.29A.59.59,0,0,1,315.31,176.64Zm-4.78-2.09h3.89l.76,1.47c.05.1.11.1.13.1s.09,0,.09-.05l-2.66-5.19a.21.21,0,0,0-.23-.15l1.89,3.74h-3.84l1.88-3.74a.24.24,0,0,0-.2.15L309.59,176a.13.13,0,0,0,0,.05s.15.07.19,0Zm.87-.6h2.16l-1.08-2.13Z"/><path class="cls-4" d="M318.93,170.87a.35.35,0,0,1,.36-.33h1.9c2.05,0,3.47,1.25,3.47,2.88v0c0,1.63-1.42,2.9-3.47,2.9h-1.9a.35.35,0,0,1-.36-.33Zm2.26,4.86a2.4,2.4,0,0,0,2.7-2.28h0a2.42,2.42,0,0,0-2.7-2.3h-1.53v4.59Z"/><path class="cls-4" d="M321.19,176.6h-1.9a.61.61,0,0,1-.62-.59v-5.14a.6.6,0,0,1,.62-.59h1.9c2.16,0,3.73,1.32,3.73,3.14S323.35,176.6,321.19,176.6Zm-1.9-5.8c-.06,0-.1,0-.1.07V176s0,.07.1.07h1.9c1.86,0,3.21-1.11,3.21-2.64s-1.35-2.64-3.21-2.64Zm1.9,5.19H319.4v-5.11h1.79a2.69,2.69,0,0,1,3,2.56C324.15,175,322.93,176,321.19,176Zm-1.27-.52h1.27c1.44,0,2.44-.83,2.44-2a2.17,2.17,0,0,0-2.44-2h-1.27Z"/><path class="cls-4" d="M327.29,175.91l2.64-5.15a.5.5,0,0,1,.47-.29h0a.46.46,0,0,1,.45.29l2.65,5.14a.41.41,0,0,1,0,.17.34.34,0,0,1-.36.31.4.4,0,0,1-.36-.24l-.68-1.33h-3.58l-.68,1.35a.36.36,0,0,1-.35.22.3.3,0,0,1-.29-.47Zm4.61-1.7-1.5-3-1.5,3Z"/><path class="cls-4" d="M333.23,176.64a.65.65,0,0,1-.59-.38l-.61-1.2h-3.26l-.61,1.21a.62.62,0,0,1-.58.37.58.58,0,0,1-.6-.56.6.6,0,0,1,.08-.29l2.64-5.15a.81.81,0,0,1,1.43,0l2.64,5.13a.71.71,0,0,1,.08.29A.6.6,0,0,1,333.23,176.64Zm-4.78-2.09h3.9l.75,1.47c0,.1.11.1.13.1s.1,0,.1-.05l-2.67-5.19a.22.22,0,0,0-.23-.15l1.89,3.74h-3.84l1.89-3.74a.22.22,0,0,0-.2.15L327.52,176s0,0,0,.05.15.07.2,0Zm.87-.6h2.16l-1.08-2.13Z"/><path class="cls-4" d="M336.85,170.83a.35.35,0,0,1,.36-.33.35.35,0,0,1,.38.33v4.9H341a.32.32,0,0,1,.33.31.31.31,0,0,1-.33.3h-3.76a.35.35,0,0,1-.36-.33Z"/><path class="cls-4" d="M341,176.6h-3.76a.61.61,0,0,1-.62-.59v-5.18a.6.6,0,0,1,.62-.59.62.62,0,0,1,.64.59v4.64H341a.58.58,0,0,1,.59.57A.57.57,0,0,1,341,176.6Zm-3.76-5.85a.1.1,0,0,0-.1.08V176s.05.07.1.07H341a.08.08,0,0,0,.08,0,.09.09,0,0,0-.08,0h-3.64v-5.16S337.28,170.75,337.21,170.75Z"/><path class="cls-4" d="M344.07,175.91l2.65-5.15a.48.48,0,0,1,.47-.29h0a.47.47,0,0,1,.46.29l2.65,5.14a.38.38,0,0,1,0,.17.33.33,0,0,1-.35.31.39.39,0,0,1-.36-.24l-.68-1.33H345.4l-.68,1.35a.38.38,0,0,1-.36.22.31.31,0,0,1-.33-.3A.41.41,0,0,1,344.07,175.91Zm4.62-1.7-1.5-3-1.5,3Z"/><path class="cls-4" d="M350,176.64a.67.67,0,0,1-.6-.38l-.6-1.2h-3.26l-.61,1.21a.63.63,0,0,1-.59.37.58.58,0,0,1-.59-.56.51.51,0,0,1,.08-.29l2.64-5.15a.81.81,0,0,1,1.43,0l2.64,5.13a.68.68,0,0,1,.07.29A.59.59,0,0,1,350,176.64Zm-4.78-2.09h3.9l.75,1.47c.05.1.11.1.13.1s.1,0,.1-.05l-2.67-5.19c-.05-.11-.08-.15-.23-.15l1.89,3.74h-3.84l1.88-3.74a.24.24,0,0,0-.2.15L344.3,176a.13.13,0,0,0,0,.05s.15.07.19,0Zm.87-.6h2.16l-1.08-2.13Z"/><path class="cls-4" d="M353.17,175.59a.32.32,0,0,1-.1-.22.35.35,0,0,1,.36-.32.33.33,0,0,1,.26.11,1.61,1.61,0,0,0,1.35.66,1.24,1.24,0,0,0,1.27-1.4v-3.59a.35.35,0,0,1,.38-.33.34.34,0,0,1,.36.33v3.59a1.93,1.93,0,0,1-.6,1.52,2.1,2.1,0,0,1-1.43.48A2.29,2.29,0,0,1,353.17,175.59Z"/><path class="cls-4" d="M355,176.68a2.53,2.53,0,0,1-2-.91.59.59,0,0,1-.17-.4.61.61,0,0,1,.62-.58.6.6,0,0,1,.45.19,1.36,1.36,0,0,0,1.16.58c.64,0,1-.42,1-1.14v-3.59a.62.62,0,0,1,.64-.59.6.6,0,0,1,.62.59v3.59a2.23,2.23,0,0,1-.69,1.72A2.42,2.42,0,0,1,355,176.68Zm-1.59-1.37c-.06,0-.1,0-.1.06l0,.06a2,2,0,0,0,1.65.73,1.89,1.89,0,0,0,1.26-.41,1.74,1.74,0,0,0,.51-1.33v-3.59c0-.09-.22-.06-.22,0v3.59a1.5,1.5,0,0,1-1.53,1.66,1.87,1.87,0,0,1-1.55-.75S353.45,175.31,353.43,175.31Z"/><path class="cls-4" d="M360.05,175.91l2.65-5.15a.48.48,0,0,1,.47-.29h0a.47.47,0,0,1,.46.29l2.65,5.14a.59.59,0,0,1,0,.17.33.33,0,0,1-.35.31.39.39,0,0,1-.36-.24l-.69-1.33h-3.57l-.68,1.35a.38.38,0,0,1-.36.22.31.31,0,0,1-.33-.3A.41.41,0,0,1,360.05,175.91Zm4.62-1.7-1.5-3-1.5,3Z"/><path class="cls-4" d="M366,176.64a.66.66,0,0,1-.6-.38l-.6-1.2h-3.26l-.61,1.21a.63.63,0,0,1-.59.37.58.58,0,0,1-.59-.56.59.59,0,0,1,.07-.29l2.65-5.15a.75.75,0,0,1,.7-.43.74.74,0,0,1,.72.44l2.65,5.13a.68.68,0,0,1,.07.29A.59.59,0,0,1,366,176.64Zm-4.78-2.09h3.89l.76,1.47a.13.13,0,0,0,.13.1c.06,0,.09,0,.09-.05l-2.66-5.19a.21.21,0,0,0-.23-.15l1.89,3.74h-3.84l1.88-3.74a.24.24,0,0,0-.2.15L360.28,176a.13.13,0,0,0,0,.05s.15.07.19,0Zm.87-.6h2.16l-1.08-2.13Z"/><path class="cls-4" d="M369.62,170.87a.35.35,0,0,1,.36-.33h2.44a2.76,2.76,0,0,1,1.86.58,1.52,1.52,0,0,1,.5,1.14v0c0,.95-.73,1.51-1.74,1.68l1.62,1.86a.35.35,0,0,1,.12.24.37.37,0,0,1-.37.32.46.46,0,0,1-.35-.17l-1.83-2.13h-1.88v2a.36.36,0,0,1-.37.33.35.35,0,0,1-.36-.33Zm2.74,2.63c1,0,1.67-.45,1.67-1.2h0c0-.72-.61-1.15-1.66-1.15h-2v2.36Z"/><path class="cls-4" d="M374.41,176.64a.71.71,0,0,1-.55-.27l-1.75-2h-1.5v1.71a.63.63,0,0,1-1.25,0v-5.18a.6.6,0,0,1,.62-.59h2.44a3.08,3.08,0,0,1,2,.64,1.78,1.78,0,0,1,.59,1.34,1.88,1.88,0,0,1-1.52,1.85l1.33,1.54a.55.55,0,0,1,.19.41A.63.63,0,0,1,374.41,176.64Zm-4.32-2.81h2.25l1.92,2.21c.15.18.25.05.26,0h0l0-.06-1.93-2.22.45-.08c.57-.09,1.53-.41,1.53-1.42a1.27,1.27,0,0,0-.42-1,2.53,2.53,0,0,0-1.68-.51H370c-.06,0-.1,0-.1.07v5.18c0,.07.21.06.21,0Zm2.27-.07h-2.27v-2.88h2.28c1.18,0,1.92.54,1.92,1.41S373.51,173.76,372.36,173.76Zm-1.75-.52h1.75c.65,0,1.41-.25,1.41-.94s-1-.9-1.4-.9h-1.76Z"/><path class="cls-4" d="M377.81,175.91l2.65-5.15a.48.48,0,0,1,.46-.29h0a.49.49,0,0,1,.46.29l2.64,5.14a.41.41,0,0,1,.05.17.34.34,0,0,1-.36.31.41.41,0,0,1-.36-.24l-.68-1.33h-3.58l-.68,1.35a.35.35,0,0,1-.35.22.3.3,0,0,1-.29-.47Zm4.61-1.7-1.5-3-1.5,3Z"/><path class="cls-4" d="M383.76,176.64a.66.66,0,0,1-.6-.38l-.61-1.2h-3.26l-.61,1.21a.62.62,0,0,1-.58.37.58.58,0,0,1-.6-.56.6.6,0,0,1,.08-.29l2.65-5.15a.73.73,0,0,1,.69-.43.75.75,0,0,1,.73.44l2.64,5.13a.58.58,0,0,1,.08.29A.6.6,0,0,1,383.76,176.64ZM379,174.55h3.9l.75,1.47c.05.1.11.1.14.1s.09,0,.09-.05l-2.66-5.19a.25.25,0,0,0-.24-.15l1.89,3.74H379l1.89-3.74a.22.22,0,0,0-.2.15L378,176s0,0,0,.05.15.07.2,0Zm.87-.6H382l-1.08-2.13Z"/></svg>
