<?xml version="1.0" encoding="utf-8"?>
<!-- Generator: Adobe Illustrator 25.3.1, SVG Export Plug-In . SVG Version: 6.00 Build 0)  -->
<svg version="1.1" id="Capa_1" xmlns="http://www.w3.org/2000/svg" xmlns:xlink="http://www.w3.org/1999/xlink" x="0px" y="0px"
	 viewBox="0 0 1207 400"  xml:space="preserve">
<style type="text/css">
	.st0{opacity:0;}
	.st1{fill:#7B868C;}
	.st2{opacity:0.2;}
	.st3{fill:#FFFFFF;}
	.st4{opacity:0.12;fill:url(#XMLID_2_);}
	.st5{fill:#F45197;}
	.st6{fill:#9578D3;}
	.st7{fill:#00A7E1;}
	.st8{fill:#FFC600;}
</style>
<rect x="1.5" y="-1.9" class="st0" width="1205.9" height="403.5"/>
<g>
	<g>
		<g id="XMLID_1614_">
			<g id="XMLID_1717_">
				<g id="XMLID_1859_">
					<g>
						<path id="XMLID_2551_" class="st1" d="M709.4,194.5c-1.2,0-2.1-0.3-2.9-0.8c-0.8-0.5-1.2-1.2-1.4-2.1c0-0.2,0.1-0.3,0.2-0.3
							h1.6c0.1,0,0.2,0.1,0.3,0.2c0.1,0.4,0.4,0.7,0.8,0.9c0.4,0.2,0.9,0.3,1.5,0.3c0.5,0,0.9-0.1,1.2-0.3c0.3-0.2,0.4-0.4,0.4-0.8
							c0-0.3-0.1-0.5-0.3-0.7c-0.2-0.2-0.5-0.3-0.8-0.4c-0.3-0.1-0.7-0.2-1.1-0.2c-0.4-0.1-0.8-0.2-1.2-0.3
							c-0.4-0.1-0.8-0.3-1.1-0.4c-0.3-0.2-0.6-0.5-0.8-0.8c-0.2-0.4-0.3-0.8-0.3-1.3c0-0.9,0.3-1.6,1-2.1c0.7-0.5,1.6-0.8,2.7-0.8
							c1,0,1.9,0.2,2.7,0.7s1.2,1.1,1.3,2c0,0.2,0,0.3-0.2,0.3h-1.6c-0.1,0-0.2-0.1-0.3-0.2c-0.1-0.3-0.3-0.6-0.6-0.8
							c-0.3-0.2-0.7-0.3-1.1-0.3c-0.5,0-0.9,0.1-1.1,0.3c-0.3,0.2-0.4,0.5-0.4,0.8c0,0.3,0.1,0.6,0.4,0.8c0.3,0.2,0.6,0.3,1,0.4
							c0.4,0.1,0.9,0.2,1.3,0.3c0.5,0.1,0.9,0.2,1.3,0.4c0.4,0.2,0.8,0.4,1,0.8c0.3,0.4,0.4,0.9,0.4,1.5c0,0.9-0.4,1.6-1.1,2.1
							C711.5,194.3,710.6,194.5,709.4,194.5z"/>
						<path id="XMLID_2549_" class="st1" d="M722.5,194.1c0,0.2-0.1,0.2-0.2,0.3c-0.4,0.1-0.7,0.2-1,0.2c-0.9,0-1.5-0.3-1.8-0.8
							c-0.6,0.5-1.3,0.8-2.3,0.8c-0.9,0-1.6-0.3-2.1-0.8c-0.5-0.5-0.8-1.3-0.8-2.1v-3.5c0-0.2,0.1-0.3,0.3-0.3h1.5
							c0.2,0,0.3,0.1,0.3,0.3v3.2c0,0.5,0.1,0.8,0.4,1.1s0.6,0.4,1,0.4c0.4,0,0.8-0.1,1.1-0.4c0.3-0.3,0.4-0.6,0.4-1v-3.3
							c0-0.2,0.1-0.3,0.3-0.3h1.5c0.2,0,0.3,0.1,0.3,0.3v4.2c0,0.3,0.1,0.5,0.4,0.5c0.2,0,0.3,0,0.4,0c0.2,0,0.3,0.1,0.3,0.2
							L722.5,194.1z"/>
						<path id="XMLID_2546_" class="st1" d="M727.2,187.6c1,0,1.9,0.3,2.5,1c0.7,0.6,1,1.5,1,2.5c0,1-0.3,1.8-1,2.5
							c-0.7,0.6-1.5,1-2.5,1c-0.7,0-1.3-0.2-1.9-0.6v0.1c0,0.2-0.1,0.3-0.3,0.3h-1.5c-0.2,0-0.3-0.1-0.3-0.3v-9.4
							c0-0.2,0.1-0.3,0.3-0.3h1.5c0.2,0,0.3,0.1,0.3,0.3v3.5C725.9,187.8,726.5,187.6,727.2,187.6z M725.9,192.5
							c0.3,0.4,0.7,0.5,1.2,0.5c0.5,0,0.9-0.2,1.2-0.5c0.3-0.4,0.5-0.8,0.5-1.4c0-0.6-0.2-1-0.5-1.4c-0.3-0.4-0.7-0.5-1.2-0.5
							c-0.5,0-0.9,0.2-1.2,0.5c-0.3,0.4-0.5,0.8-0.5,1.4C725.4,191.6,725.5,192.1,725.9,192.5z"/>
						<path id="XMLID_2544_" class="st1" d="M734.7,194.5c-0.9,0-1.7-0.2-2.3-0.6c-0.6-0.4-0.9-0.9-1-1.5c0-0.2,0.1-0.3,0.3-0.3
							l1.3,0c0.1,0,0.2,0.1,0.3,0.2c0.2,0.5,0.7,0.7,1.5,0.7c0.3,0,0.6-0.1,0.8-0.2c0.2-0.1,0.3-0.2,0.3-0.4c0-0.2-0.1-0.4-0.4-0.5
							c-0.3-0.1-0.6-0.2-1-0.2c-0.4,0-0.8-0.1-1.2-0.2c-0.4-0.1-0.8-0.3-1-0.6c-0.3-0.3-0.4-0.7-0.4-1.2c0-0.6,0.3-1.1,0.8-1.5
							c0.5-0.4,1.3-0.6,2.2-0.6c0.8,0,1.5,0.2,2.1,0.5c0.6,0.4,0.9,0.8,1,1.4c0,0.2-0.1,0.3-0.2,0.3h-1.3c-0.1,0-0.2-0.1-0.3-0.2
							c-0.1-0.2-0.2-0.4-0.5-0.5c-0.2-0.1-0.5-0.2-0.8-0.2c-0.3,0-0.6,0.1-0.8,0.2c-0.2,0.1-0.3,0.2-0.3,0.4c0,0.2,0.1,0.4,0.4,0.5
							c0.3,0.1,0.6,0.2,1.1,0.3c0.4,0.1,0.8,0.1,1.2,0.2c0.4,0.1,0.8,0.3,1,0.6s0.4,0.7,0.4,1.2c0,0.7-0.3,1.2-0.8,1.6
							C736.4,194.4,735.6,194.5,734.7,194.5z"/>
						<path id="XMLID_2541_" class="st1" d="M742.1,194.5c-1.1,0-2-0.3-2.7-0.9c-0.7-0.6-1-1.5-1-2.5c0-1,0.3-1.9,1-2.5
							c0.7-0.6,1.5-0.9,2.6-0.9c1.1,0,1.9,0.3,2.5,0.9c0.6,0.6,0.9,1.4,0.9,2.5c0,0.1,0,0.1,0,0.2c0,0.1,0,0.2,0,0.2
							c0,0.2-0.1,0.2-0.3,0.2h-4.8c0.1,0.4,0.3,0.7,0.6,0.9c0.3,0.2,0.7,0.3,1.1,0.3c0.5,0,0.9-0.1,1.1-0.4c0.1-0.1,0.2-0.1,0.3-0.1
							h1.5c0.1,0,0.2,0,0.2,0.1c0,0,0,0.1,0,0.2c-0.2,0.6-0.6,1-1.2,1.3C743.5,194.4,742.9,194.5,742.1,194.5z M740.4,190.5h3.2
							c0-0.4-0.2-0.8-0.4-1c-0.3-0.3-0.6-0.4-1.1-0.4c-0.4,0-0.8,0.1-1.1,0.4C740.6,189.8,740.5,190.1,740.4,190.5z"/>
						<path id="XMLID_2539_" class="st1" d="M749.9,194.5c-1.1,0-2-0.3-2.7-0.9c-0.7-0.6-1-1.5-1-2.5c0-1,0.3-1.9,1-2.5
							c0.7-0.6,1.6-0.9,2.7-0.9c0.9,0,1.6,0.2,2.2,0.7c0.6,0.4,1,1,1.1,1.8c0,0.2,0,0.3-0.2,0.3h-1.4c-0.1,0-0.2-0.1-0.3-0.2
							c-0.1-0.3-0.3-0.5-0.5-0.6c-0.3-0.2-0.6-0.2-0.9-0.2c-0.5,0-0.9,0.2-1.3,0.5c-0.3,0.3-0.5,0.8-0.5,1.3c0,0.6,0.2,1,0.5,1.3
							c0.3,0.3,0.7,0.5,1.3,0.5c0.3,0,0.7-0.1,0.9-0.2c0.3-0.2,0.4-0.4,0.5-0.6c0.1-0.1,0.2-0.2,0.3-0.2h1.4c0.2,0,0.3,0.1,0.2,0.3
							c-0.1,0.7-0.5,1.3-1.1,1.8C751.5,194.3,750.8,194.5,749.9,194.5z"/>
						<path id="XMLID_2537_" class="st1" d="M759.7,187.8c0.2,0,0.2,0.1,0.2,0.3l-0.2,1.3c0,0.2-0.1,0.2-0.3,0.2
							c-0.2,0-0.5-0.1-0.7-0.1c-0.5,0-0.9,0.2-1.3,0.5c-0.3,0.3-0.5,0.7-0.5,1.3v2.9c0,0.2-0.1,0.3-0.3,0.3h-1.5
							c-0.2,0-0.3-0.1-0.3-0.3v-4.2c0-0.3-0.2-0.5-0.5-0.5c0,0-0.1,0-0.3,0c-0.2,0-0.3-0.1-0.3-0.2v-1.1c0-0.2,0.1-0.2,0.2-0.3
							c0.3-0.1,0.6-0.2,1-0.2c0.8,0,1.3,0.3,1.6,0.9c0.6-0.6,1.3-0.9,2.2-0.9C759.1,187.6,759.4,187.7,759.7,187.8z"/>
						<path id="XMLID_2534_" class="st1" d="M763.8,194.5c-1.1,0-2-0.3-2.7-0.9c-0.7-0.6-1-1.5-1-2.5c0-1,0.3-1.9,1-2.5
							c0.7-0.6,1.5-0.9,2.6-0.9c1.1,0,1.9,0.3,2.5,0.9c0.6,0.6,0.9,1.4,0.9,2.5c0,0.1,0,0.1,0,0.2c0,0.1,0,0.2,0,0.2
							c0,0.2-0.1,0.2-0.3,0.2h-4.8c0.1,0.4,0.3,0.7,0.6,0.9c0.3,0.2,0.7,0.3,1.1,0.3c0.5,0,0.9-0.1,1.1-0.4c0.1-0.1,0.2-0.1,0.3-0.1
							h1.5c0.1,0,0.2,0,0.2,0.1c0,0,0,0.1,0,0.2c-0.2,0.6-0.6,1-1.2,1.3C765.3,194.4,764.6,194.5,763.8,194.5z M762.1,190.5h3.2
							c0-0.4-0.2-0.8-0.4-1c-0.3-0.3-0.6-0.4-1.1-0.4c-0.4,0-0.8,0.1-1.1,0.4C762.4,189.8,762.2,190.1,762.1,190.5z"/>
						<path id="XMLID_2532_" class="st1" d="M771.8,194.5c-0.9,0-1.6-0.2-2.1-0.7c-0.5-0.5-0.8-1.2-0.8-2v-2.3h-1.2
							c-0.2,0-0.3-0.1-0.3-0.3v-1.1c0-0.2,0.1-0.3,0.3-0.3h1.2v-1.7c0-0.2,0.1-0.3,0.3-0.3h1.5c0.2,0,0.3,0.1,0.3,0.3v1.7h2.1
							c0.2,0,0.3,0.1,0.3,0.3v1.1c0,0.2-0.1,0.3-0.3,0.3H771v2.2c0,0.3,0.1,0.6,0.3,0.8c0.2,0.2,0.5,0.3,0.8,0.3c0.3,0,0.7,0,1-0.1
							c0.2,0,0.3,0,0.3,0.2l0.2,1.1c0,0.1-0.1,0.2-0.2,0.3C772.8,194.5,772.3,194.5,771.8,194.5z"/>
						<path id="XMLID_2529_" class="st1" d="M782.7,194.1c0,0.2-0.1,0.2-0.2,0.3c-0.4,0.1-0.7,0.2-1,0.2c-0.8,0-1.4-0.3-1.7-0.8
							c-0.6,0.5-1.4,0.8-2.2,0.8c-1,0-1.9-0.3-2.5-1s-1-1.5-1-2.5c0-1,0.3-1.9,1-2.5c0.7-0.6,1.5-1,2.5-1c0.7,0,1.4,0.2,1.9,0.6
							v-0.1c0-0.2,0.1-0.3,0.3-0.3h1.5c0.2,0,0.3,0.1,0.3,0.3v4.2c0,0.3,0.1,0.5,0.4,0.5c0.2,0,0.3,0,0.4,0c0.2,0,0.3,0.1,0.3,0.2
							L782.7,194.1z M777.8,193c0.5,0,0.9-0.2,1.2-0.5c0.3-0.4,0.5-0.8,0.5-1.4c0-0.6-0.2-1-0.5-1.4c-0.3-0.4-0.7-0.5-1.2-0.5
							c-0.5,0-0.9,0.2-1.2,0.5c-0.3,0.4-0.5,0.8-0.5,1.4c0,0.6,0.2,1,0.5,1.4C776.8,192.8,777.2,193,777.8,193z"/>
						<path id="XMLID_2527_" class="st1" d="M788.9,187.8c0.2,0,0.2,0.1,0.2,0.3l-0.2,1.3c0,0.2-0.1,0.2-0.3,0.2
							c-0.2,0-0.5-0.1-0.7-0.1c-0.5,0-0.9,0.2-1.3,0.5c-0.3,0.3-0.5,0.7-0.5,1.3v2.9c0,0.2-0.1,0.3-0.3,0.3h-1.5
							c-0.2,0-0.3-0.1-0.3-0.3v-4.2c0-0.3-0.2-0.5-0.5-0.5c0,0-0.1,0-0.3,0c-0.2,0-0.3-0.1-0.3-0.2v-1.1c0-0.2,0.1-0.2,0.2-0.3
							c0.3-0.1,0.6-0.2,1-0.2c0.8,0,1.3,0.3,1.6,0.9c0.6-0.6,1.3-0.9,2.2-0.9C788.4,187.6,788.7,187.7,788.9,187.8z"/>
						<path id="XMLID_2524_" class="st1" d="M791.8,187.8c0.2,0,0.3,0.1,0.3,0.3v6c0,0.2-0.1,0.3-0.3,0.3h-1.5
							c-0.2,0-0.3-0.1-0.3-0.3v-6c0-0.2,0.1-0.3,0.3-0.3H791.8z M790.3,186.8c-0.1,0-0.2,0-0.2-0.1c0-0.1,0-0.1,0-0.2l0.9-1.6
							c0.1-0.1,0.2-0.2,0.3-0.2h1.6c0.1,0,0.2,0,0.2,0.1c0,0.1,0,0.1,0,0.2l-1.1,1.7c-0.1,0.1-0.2,0.1-0.3,0.1H790.3z"/>
						<path id="XMLID_2521_" class="st1" d="M801.7,194.1c0,0.2-0.1,0.2-0.2,0.3c-0.4,0.1-0.7,0.2-1,0.2c-0.8,0-1.4-0.3-1.7-0.8
							c-0.6,0.5-1.4,0.8-2.2,0.8c-1,0-1.9-0.3-2.5-1c-0.7-0.6-1-1.5-1-2.5c0-1,0.3-1.9,1-2.5c0.7-0.6,1.5-1,2.5-1
							c0.7,0,1.4,0.2,1.9,0.6v-0.1c0-0.2,0.1-0.3,0.3-0.3h1.5c0.2,0,0.3,0.1,0.3,0.3v4.2c0,0.3,0.1,0.5,0.4,0.5c0.2,0,0.3,0,0.4,0
							c0.2,0,0.3,0.1,0.3,0.2L801.7,194.1z M796.7,193c0.5,0,0.9-0.2,1.2-0.5c0.3-0.4,0.5-0.8,0.5-1.4c0-0.6-0.2-1-0.5-1.4
							c-0.3-0.4-0.7-0.5-1.2-0.5c-0.5,0-0.9,0.2-1.2,0.5c-0.3,0.4-0.5,0.8-0.5,1.4c0,0.6,0.2,1,0.5,1.4
							C795.8,192.8,796.2,193,796.7,193z"/>
						<path id="XMLID_2449_" class="st1" d="M713.7,208.6c0,0.2,0,0.2-0.2,0.3c-0.4,0.1-0.7,0.2-1,0.2c-0.8,0-1.4-0.3-1.7-0.8
							c-0.6,0.6-1.3,0.8-2.2,0.8c-1,0-1.9-0.3-2.5-1c-0.7-0.6-1-1.5-1-2.5c0-1,0.3-1.9,1-2.5c0.7-0.6,1.5-1,2.5-1
							c0.7,0,1.3,0.2,1.9,0.6v-3.5c0-0.2,0.1-0.3,0.3-0.3h1.5c0.2,0,0.3,0.1,0.3,0.3v7.6c0,0.3,0.1,0.5,0.4,0.5c0.2,0,0.3,0,0.4,0
							c0.2,0,0.3,0.1,0.3,0.2L713.7,208.6z M708.8,207.5c0.5,0,0.9-0.2,1.2-0.5c0.3-0.4,0.5-0.8,0.5-1.4c0-0.6-0.2-1-0.5-1.4
							c-0.3-0.4-0.7-0.5-1.2-0.5c-0.5,0-0.9,0.2-1.2,0.5c-0.3,0.4-0.5,0.8-0.5,1.4c0,0.6,0.2,1,0.5,1.4
							C707.8,207.3,708.3,207.5,708.8,207.5z"/>
						<path id="XMLID_2446_" class="st1" d="M717.9,209c-1.1,0-2-0.3-2.7-0.9c-0.7-0.6-1-1.5-1-2.5c0-1,0.3-1.9,1-2.5
							c0.7-0.6,1.5-0.9,2.6-0.9c1.1,0,1.9,0.3,2.5,0.9c0.6,0.6,0.9,1.4,0.9,2.5c0,0.1,0,0.1,0,0.2c0,0.1,0,0.2,0,0.2
							c0,0.2-0.1,0.2-0.3,0.2h-4.8c0.1,0.4,0.3,0.7,0.6,0.9s0.7,0.3,1.1,0.3c0.5,0,0.9-0.1,1.1-0.4c0.1-0.1,0.2-0.1,0.3-0.1h1.5
							c0.1,0,0.2,0,0.2,0.1c0,0,0,0.1,0,0.2c-0.2,0.6-0.6,1-1.2,1.3C719.4,208.9,718.7,209,717.9,209z M716.2,205h3.2
							c0-0.4-0.2-0.8-0.4-1c-0.3-0.3-0.6-0.4-1.1-0.4c-0.4,0-0.8,0.1-1.1,0.4C716.5,204.3,716.3,204.6,716.2,205z"/>
						<path id="XMLID_2443_" class="st1" d="M729.1,199.5c1.6,0,2.9,0.4,3.8,1.3c0.9,0.9,1.4,2,1.4,3.4s-0.5,2.6-1.4,3.4
							c-0.9,0.9-2.2,1.3-3.8,1.3h-3.4c-0.2,0-0.3-0.1-0.3-0.3v-8.9c0-0.2,0.1-0.3,0.3-0.3H729.1z M728.9,207c1,0,1.8-0.3,2.4-0.8
							c0.6-0.5,0.9-1.2,0.9-2.1c0-0.9-0.3-1.6-0.9-2.1c-0.6-0.5-1.4-0.8-2.4-0.8h-1.5v5.8H728.9z"/>
						<path id="XMLID_2440_" class="st1" d="M738.8,209c-1.1,0-2-0.3-2.7-0.9c-0.7-0.6-1-1.5-1-2.5c0-1,0.3-1.9,1-2.5
							c0.7-0.6,1.5-0.9,2.6-0.9c1.1,0,1.9,0.3,2.5,0.9c0.6,0.6,0.9,1.4,0.9,2.5c0,0.1,0,0.1,0,0.2c0,0.1,0,0.2,0,0.2
							c0,0.2-0.1,0.2-0.3,0.2h-4.8c0.1,0.4,0.3,0.7,0.6,0.9c0.3,0.2,0.7,0.3,1.1,0.3c0.5,0,0.9-0.1,1.1-0.4c0.1-0.1,0.2-0.1,0.3-0.1
							h1.5c0.1,0,0.2,0,0.2,0.1c0,0,0,0.1,0,0.2c-0.2,0.6-0.6,1-1.2,1.3C740.2,208.9,739.6,209,738.8,209z M737.1,205h3.2
							c0-0.4-0.2-0.8-0.4-1c-0.3-0.3-0.6-0.4-1.1-0.4c-0.4,0-0.8,0.1-1.1,0.4C737.3,204.3,737.1,204.6,737.1,205z"/>
						<path id="XMLID_2438_" class="st1" d="M748.6,202.2c0.2,0,0.2,0.1,0.2,0.3l-0.2,1.3c0,0.2-0.1,0.2-0.3,0.2
							c-0.2,0-0.5-0.1-0.7-0.1c-0.5,0-0.9,0.2-1.3,0.5c-0.3,0.3-0.5,0.7-0.5,1.3v2.9c0,0.2-0.1,0.3-0.3,0.3h-1.5
							c-0.2,0-0.3-0.1-0.3-0.3v-4.2c0-0.3-0.2-0.5-0.5-0.5c0,0-0.1,0-0.3,0c-0.2,0-0.3-0.1-0.3-0.2v-1.1c0-0.2,0.1-0.2,0.2-0.3
							c0.3-0.1,0.6-0.2,1-0.2c0.8,0,1.3,0.3,1.6,0.9c0.6-0.6,1.3-0.9,2.2-0.9C748.1,202.1,748.4,202.2,748.6,202.2z"/>
						<path id="XMLID_2435_" class="st1" d="M752.8,209c-1.1,0-2-0.3-2.7-0.9c-0.7-0.6-1-1.5-1-2.5c0-1,0.3-1.9,1-2.5
							c0.7-0.6,1.5-0.9,2.6-0.9c1.1,0,1.9,0.3,2.5,0.9c0.6,0.6,0.9,1.4,0.9,2.5c0,0.1,0,0.1,0,0.2c0,0.1,0,0.2,0,0.2
							c0,0.2-0.1,0.2-0.3,0.2h-4.8c0.1,0.4,0.3,0.7,0.6,0.9c0.3,0.2,0.7,0.3,1.1,0.3c0.5,0,0.9-0.1,1.1-0.4c0.1-0.1,0.2-0.1,0.3-0.1
							h1.5c0.1,0,0.2,0,0.2,0.1c0,0,0,0.1,0,0.2c-0.2,0.6-0.6,1-1.2,1.3C754.2,208.9,753.6,209,752.8,209z M751.1,205h3.2
							c0-0.4-0.2-0.8-0.4-1c-0.3-0.3-0.6-0.4-1.1-0.4c-0.4,0-0.8,0.1-1.1,0.4C751.3,204.3,751.1,204.6,751.1,205z"/>
						<path id="XMLID_2433_" class="st1" d="M760.6,209c-1.1,0-2-0.3-2.7-0.9c-0.7-0.6-1-1.5-1-2.5c0-1,0.3-1.9,1-2.5
							c0.7-0.6,1.6-0.9,2.7-0.9c0.9,0,1.6,0.2,2.2,0.7c0.6,0.4,1,1,1.1,1.8c0,0.2,0,0.3-0.2,0.3h-1.4c-0.1,0-0.2-0.1-0.3-0.2
							c-0.1-0.3-0.3-0.5-0.5-0.6c-0.3-0.2-0.6-0.2-0.9-0.2c-0.5,0-0.9,0.2-1.3,0.5c-0.3,0.3-0.5,0.8-0.5,1.3c0,0.6,0.2,1,0.5,1.3
							c0.3,0.3,0.7,0.5,1.3,0.5c0.3,0,0.7-0.1,0.9-0.2c0.3-0.2,0.4-0.4,0.5-0.6c0.1-0.1,0.2-0.2,0.3-0.2h1.4c0.2,0,0.3,0.1,0.2,0.3
							c-0.1,0.7-0.5,1.3-1.1,1.8C762.2,208.8,761.5,209,760.6,209z"/>
						<path id="XMLID_2431_" class="st1" d="M769,202.1c0.9,0,1.6,0.3,2.1,0.8c0.5,0.5,0.8,1.3,0.8,2.1v3.5c0,0.2-0.1,0.3-0.3,0.3
							h-1.5c-0.2,0-0.3-0.1-0.3-0.3v-3.2c0-0.5-0.1-0.8-0.4-1.1c-0.3-0.3-0.6-0.4-1-0.4c-0.4,0-0.8,0.1-1.1,0.4
							c-0.3,0.3-0.4,0.6-0.4,1v3.3c0,0.2-0.1,0.3-0.3,0.3h-1.5c-0.2,0-0.3-0.1-0.3-0.3v-9.4c0-0.2,0.1-0.3,0.3-0.3h1.5
							c0.2,0,0.3,0.1,0.3,0.3v3.5C767.5,202.3,768.2,202.1,769,202.1z"/>
						<path id="XMLID_2428_" class="st1" d="M779.1,208.1c-0.7,0.6-1.6,0.9-2.7,0.9c-1.1,0-2-0.3-2.7-0.9c-0.7-0.6-1-1.5-1-2.5
							c0-1,0.3-1.9,1-2.5c0.7-0.6,1.6-0.9,2.7-0.9c1.1,0,2,0.3,2.7,0.9c0.7,0.6,1,1.5,1,2.5C780.1,206.6,779.8,207.4,779.1,208.1z
							 M775.2,206.9c0.3,0.3,0.8,0.5,1.3,0.5c0.5,0,1-0.2,1.3-0.5c0.3-0.3,0.5-0.8,0.5-1.3c0-0.5-0.2-1-0.5-1.3
							c-0.3-0.3-0.8-0.5-1.3-0.5c-0.5,0-1,0.2-1.3,0.5c-0.3,0.3-0.5,0.8-0.5,1.3C774.7,206.1,774.9,206.6,775.2,206.9z"/>
						<path id="XMLID_2426_" class="st1" d="M784,209c-0.9,0-1.7-0.2-2.3-0.6c-0.6-0.4-0.9-0.9-1-1.5c0-0.2,0.1-0.3,0.3-0.3l1.3,0
							c0.1,0,0.2,0.1,0.3,0.2c0.2,0.5,0.7,0.7,1.5,0.7c0.3,0,0.6-0.1,0.8-0.2c0.2-0.1,0.3-0.2,0.3-0.4c0-0.2-0.1-0.4-0.4-0.5
							c-0.3-0.1-0.6-0.2-1-0.2c-0.4,0-0.8-0.1-1.2-0.2c-0.4-0.1-0.8-0.3-1-0.6c-0.3-0.3-0.4-0.7-0.4-1.2c0-0.6,0.3-1.1,0.8-1.5
							c0.5-0.4,1.3-0.6,2.2-0.6c0.8,0,1.5,0.2,2.1,0.5c0.6,0.4,0.9,0.8,1,1.4c0,0.2-0.1,0.3-0.2,0.3h-1.3c-0.1,0-0.2-0.1-0.3-0.2
							c-0.1-0.2-0.2-0.4-0.5-0.5c-0.2-0.1-0.5-0.2-0.8-0.2c-0.3,0-0.6,0.1-0.8,0.2c-0.2,0.1-0.3,0.2-0.3,0.4c0,0.2,0.1,0.4,0.4,0.5
							c0.3,0.1,0.6,0.2,1.1,0.3c0.4,0.1,0.8,0.1,1.2,0.2c0.4,0.1,0.8,0.3,1,0.6c0.3,0.3,0.4,0.7,0.4,1.2c0,0.7-0.3,1.2-0.8,1.6
							C785.7,208.8,785,209,784,209z"/>
						<path id="XMLID_2424_" class="st1" d="M791.5,208.8c-0.2,0-0.3-0.1-0.3-0.3v-8.9c0-0.2,0.1-0.3,0.3-0.3h1.6
							c0.2,0,0.3,0.1,0.3,0.3v3.6h4.3v-3.6c0-0.2,0.1-0.3,0.3-0.3h1.6c0.2,0,0.3,0.1,0.3,0.3v8.9c0,0.2-0.1,0.3-0.3,0.3h-1.6
							c-0.2,0-0.3-0.1-0.3-0.3v-3.5h-4.3v3.5c0,0.2-0.1,0.3-0.3,0.3H791.5z"/>
						<path id="XMLID_2422_" class="st1" d="M809.2,208.6c0,0.2-0.1,0.2-0.2,0.3c-0.4,0.1-0.7,0.2-1,0.2c-0.9,0-1.5-0.3-1.8-0.8
							c-0.6,0.5-1.3,0.8-2.3,0.8c-0.9,0-1.6-0.3-2.1-0.8c-0.5-0.5-0.8-1.3-0.8-2.1v-3.5c0-0.2,0.1-0.3,0.3-0.3h1.5
							c0.2,0,0.3,0.1,0.3,0.3v3.2c0,0.5,0.1,0.8,0.4,1.1s0.6,0.4,1,0.4c0.4,0,0.8-0.1,1.1-0.4c0.3-0.3,0.4-0.6,0.4-1v-3.3
							c0-0.2,0.1-0.3,0.3-0.3h1.5c0.2,0,0.3,0.1,0.3,0.3v4.2c0,0.3,0.1,0.5,0.4,0.5c0.2,0,0.3,0,0.4,0c0.2,0,0.3,0.1,0.3,0.2
							L809.2,208.6z"/>
						<path id="XMLID_2420_" class="st1" d="M819,202.1c0.9,0,1.6,0.3,2.1,0.8c0.5,0.5,0.8,1.3,0.8,2.1v3.5c0,0.2-0.1,0.3-0.3,0.3
							h-1.5c-0.2,0-0.3-0.1-0.3-0.3v-3.2c0-0.5-0.1-0.8-0.4-1.1s-0.6-0.4-1-0.4c-0.4,0-0.7,0.1-0.9,0.4c-0.2,0.3-0.3,0.6-0.3,1v3.3
							c0,0.2-0.1,0.3-0.3,0.3h-1.5c-0.2,0-0.3-0.1-0.3-0.3v-3.2c0-0.5-0.1-0.8-0.3-1.1c-0.2-0.3-0.5-0.4-0.9-0.4
							c-0.4,0-0.7,0.1-1,0.4c-0.2,0.3-0.4,0.6-0.4,1v3.3c0,0.2-0.1,0.3-0.3,0.3h-1.5c-0.2,0-0.3-0.1-0.3-0.3v-4.2
							c0-0.3-0.2-0.5-0.5-0.5c0,0-0.1,0-0.3,0c-0.2,0-0.3-0.1-0.3-0.2v-1.1c0-0.2,0.1-0.2,0.2-0.3c0.3-0.1,0.6-0.2,1-0.2
							c0.8,0,1.3,0.3,1.6,0.8c0.5-0.5,1.3-0.8,2.3-0.8c0.9,0,1.6,0.3,2.1,0.9C817.2,202.4,818,202.1,819,202.1z"/>
						<path id="XMLID_2417_" class="st1" d="M831.5,208.6c0,0.2-0.1,0.2-0.2,0.3c-0.4,0.1-0.7,0.2-1,0.2c-0.8,0-1.4-0.3-1.7-0.8
							c-0.6,0.5-1.4,0.8-2.2,0.8c-1,0-1.9-0.3-2.5-1c-0.7-0.6-1-1.5-1-2.5c0-1,0.3-1.9,1-2.5c0.7-0.6,1.5-1,2.5-1
							c0.7,0,1.4,0.2,1.9,0.6v-0.1c0-0.2,0.1-0.3,0.3-0.3h1.5c0.2,0,0.3,0.1,0.3,0.3v4.2c0,0.3,0.1,0.5,0.4,0.5c0.2,0,0.3,0,0.4,0
							c0.2,0,0.3,0.1,0.3,0.2L831.5,208.6z M826.5,207.5c0.5,0,0.9-0.2,1.2-0.5c0.3-0.4,0.5-0.8,0.5-1.4c0-0.6-0.2-1-0.5-1.4
							c-0.3-0.4-0.7-0.5-1.2-0.5c-0.5,0-0.9,0.2-1.2,0.5c-0.3,0.4-0.5,0.8-0.5,1.4c0,0.6,0.2,1,0.5,1.4
							C825.6,207.3,826,207.5,826.5,207.5z"/>
						<path id="XMLID_2415_" class="st1" d="M836.9,202.1c0.9,0,1.6,0.3,2.1,0.8c0.5,0.5,0.8,1.3,0.8,2.1v3.5c0,0.2-0.1,0.3-0.3,0.3
							h-1.5c-0.2,0-0.3-0.1-0.3-0.3v-3.2c0-0.5-0.1-0.8-0.4-1.1s-0.6-0.4-1-0.4c-0.4,0-0.8,0.1-1.1,0.4c-0.3,0.3-0.4,0.6-0.4,1v3.3
							c0,0.2-0.1,0.3-0.3,0.3h-1.5c-0.2,0-0.3-0.1-0.3-0.3v-4.2c0-0.3-0.2-0.5-0.5-0.5c0,0-0.1,0-0.3,0c-0.2,0-0.3-0.1-0.3-0.2v-1.1
							c0-0.2,0.1-0.2,0.2-0.3c0.3-0.1,0.6-0.2,1-0.2c0.8,0,1.3,0.3,1.6,0.8C835.1,202.4,835.9,202.1,836.9,202.1z"/>
						<path id="XMLID_2412_" class="st1" d="M847.1,208.1c-0.7,0.6-1.6,0.9-2.7,0.9c-1.1,0-2-0.3-2.7-0.9s-1-1.5-1-2.5
							c0-1,0.3-1.9,1-2.5c0.7-0.6,1.6-0.9,2.7-0.9c1.1,0,2,0.3,2.7,0.9c0.7,0.6,1,1.5,1,2.5C848.1,206.6,847.7,207.4,847.1,208.1z
							 M843.1,206.9c0.3,0.3,0.8,0.5,1.3,0.5c0.5,0,1-0.2,1.3-0.5c0.3-0.3,0.5-0.8,0.5-1.3c0-0.5-0.2-1-0.5-1.3
							c-0.3-0.3-0.8-0.5-1.3-0.5c-0.5,0-1,0.2-1.3,0.5c-0.3,0.3-0.5,0.8-0.5,1.3C842.6,206.1,842.8,206.6,843.1,206.9z"/>
						<path id="XMLID_2410_" class="st1" d="M852,209c-0.9,0-1.7-0.2-2.3-0.6c-0.6-0.4-0.9-0.9-1-1.5c0-0.2,0.1-0.3,0.3-0.3l1.3,0
							c0.1,0,0.2,0.1,0.3,0.2c0.2,0.5,0.7,0.7,1.5,0.7c0.3,0,0.6-0.1,0.8-0.2c0.2-0.1,0.3-0.2,0.3-0.4c0-0.2-0.1-0.4-0.4-0.5
							c-0.3-0.1-0.6-0.2-1-0.2c-0.4,0-0.8-0.1-1.2-0.2c-0.4-0.1-0.8-0.3-1-0.6s-0.4-0.7-0.4-1.2c0-0.6,0.3-1.1,0.8-1.5
							c0.5-0.4,1.3-0.6,2.2-0.6c0.8,0,1.5,0.2,2.1,0.5c0.6,0.4,0.9,0.8,1,1.4c0,0.2-0.1,0.3-0.2,0.3h-1.3c-0.1,0-0.2-0.1-0.3-0.2
							c-0.1-0.2-0.2-0.4-0.5-0.5c-0.2-0.1-0.5-0.2-0.8-0.2c-0.3,0-0.6,0.1-0.8,0.2c-0.2,0.1-0.3,0.2-0.3,0.4c0,0.2,0.1,0.4,0.4,0.5
							c0.3,0.1,0.6,0.2,1.1,0.3c0.4,0.1,0.8,0.1,1.2,0.2c0.4,0.1,0.8,0.3,1,0.6c0.3,0.3,0.4,0.7,0.4,1.2c0,0.7-0.3,1.2-0.8,1.6
							C853.7,208.8,852.9,209,852,209z"/>
					</g>
				</g>
				<g id="XMLID_1718_">
					<g>
						<path id="XMLID_2517_" class="st1" d="M707.7,221.8c-0.8,0-1.4-0.2-1.9-0.5c-0.5-0.4-0.7-0.8-0.8-1.4c0-0.1,0-0.1,0.1-0.1h0.6
							c0.1,0,0.1,0,0.1,0.1c0.1,0.4,0.3,0.7,0.6,1c0.3,0.2,0.8,0.3,1.3,0.3c0.5,0,0.9-0.1,1.1-0.3c0.3-0.2,0.4-0.5,0.4-0.8
							c0-0.3-0.1-0.5-0.3-0.7c-0.2-0.2-0.4-0.3-0.7-0.3c-0.3-0.1-0.6-0.1-1-0.2c-0.4-0.1-0.7-0.2-1-0.2c-0.3-0.1-0.5-0.3-0.7-0.5
							c-0.2-0.2-0.3-0.6-0.3-1c0-0.5,0.2-1,0.6-1.3c0.4-0.3,1-0.5,1.7-0.5c0.7,0,1.3,0.2,1.7,0.5c0.4,0.3,0.7,0.7,0.8,1.2
							c0,0.1,0,0.1-0.1,0.1h-0.6c-0.1,0-0.1,0-0.1-0.1c-0.1-0.3-0.3-0.6-0.5-0.8c-0.3-0.2-0.7-0.3-1.1-0.3c-0.5,0-0.8,0.1-1.1,0.3
							c-0.3,0.2-0.4,0.5-0.4,0.8c0,0.2,0.1,0.4,0.2,0.6c0.1,0.2,0.3,0.3,0.6,0.3c0.2,0.1,0.5,0.1,0.8,0.2c0.3,0,0.6,0.1,0.9,0.2
							c0.3,0.1,0.5,0.2,0.8,0.3c0.2,0.1,0.4,0.3,0.6,0.5c0.1,0.2,0.2,0.5,0.2,0.9c0,0.6-0.2,1-0.7,1.3
							C709,221.6,708.5,221.8,707.7,221.8z"/>
						<path id="XMLID_2514_" class="st1" d="M713.5,221.8c-0.7,0-1.2-0.2-1.7-0.6c-0.4-0.4-0.6-0.9-0.6-1.6s0.2-1.2,0.6-1.6
							c0.4-0.4,1-0.6,1.6-0.6c0.7,0,1.2,0.2,1.6,0.6c0.4,0.4,0.6,1,0.6,1.6c0,0,0,0.1,0,0.1c0,0.1,0,0.1,0,0.1
							c0,0.1-0.1,0.1-0.1,0.1H712c0.1,0.4,0.2,0.7,0.5,1c0.3,0.2,0.6,0.4,1,0.4c0.5,0,0.9-0.2,1.1-0.5c0,0,0.1-0.1,0.1-0.1h0.6
							c0.1,0,0.1,0,0.1,0.1c-0.1,0.3-0.4,0.6-0.7,0.8S714,221.8,713.5,221.8z M711.9,219.3h2.9c0-0.4-0.1-0.7-0.4-1
							c-0.3-0.3-0.6-0.4-1-0.4s-0.8,0.1-1,0.4C712.1,218.6,712,218.9,711.9,219.3z"/>
						<path id="XMLID_2512_" class="st1" d="M718.9,221.8c-0.7,0-1.2-0.2-1.7-0.6c-0.4-0.4-0.6-0.9-0.6-1.6s0.2-1.2,0.6-1.6
							c0.4-0.4,1-0.6,1.7-0.6c0.5,0,1,0.1,1.3,0.4c0.4,0.3,0.6,0.6,0.7,1c0,0.1,0,0.1-0.1,0.1h-0.6c-0.1,0-0.1,0-0.1-0.1
							c-0.1-0.2-0.2-0.4-0.5-0.6c-0.2-0.1-0.5-0.2-0.8-0.2c-0.5,0-0.8,0.1-1.1,0.4c-0.3,0.3-0.4,0.7-0.4,1.2c0,0.5,0.1,0.9,0.4,1.1
							c0.3,0.3,0.7,0.4,1.1,0.4c0.3,0,0.6-0.1,0.8-0.2c0.2-0.1,0.4-0.3,0.5-0.6c0-0.1,0.1-0.1,0.1-0.1h0.6c0.1,0,0.1,0,0.1,0.1
							c-0.1,0.4-0.3,0.8-0.7,1C719.9,221.7,719.5,221.8,718.9,221.8z"/>
						<path id="XMLID_2510_" class="st1" d="M725.6,217.4c0.1,0,0.1,0.1,0.1,0.1l-0.1,0.4c0,0.1-0.1,0.1-0.1,0.1
							c-0.2-0.1-0.4-0.1-0.6-0.1c-0.4,0-0.8,0.1-1.1,0.4c-0.3,0.3-0.4,0.7-0.4,1.1v2c0,0.1,0,0.1-0.1,0.1h-0.5c-0.1,0-0.1,0-0.1-0.1
							v-3.1c0-0.3-0.1-0.5-0.4-0.5c-0.1,0-0.2,0-0.3,0c-0.1,0-0.1,0-0.1-0.1l0-0.4c0-0.1,0-0.1,0.1-0.1c0.1-0.1,0.3-0.1,0.5-0.1
							c0.3,0,0.5,0.1,0.6,0.2c0.2,0.1,0.3,0.3,0.3,0.6c0.4-0.5,0.9-0.8,1.6-0.8C725.1,217.3,725.4,217.4,725.6,217.4z"/>
						<path id="XMLID_2507_" class="st1" d="M728.5,221.8c-0.7,0-1.2-0.2-1.7-0.6c-0.4-0.4-0.6-0.9-0.6-1.6s0.2-1.2,0.6-1.6
							c0.4-0.4,1-0.6,1.6-0.6c0.7,0,1.2,0.2,1.6,0.6c0.4,0.4,0.6,1,0.6,1.6c0,0,0,0.1,0,0.1c0,0.1,0,0.1,0,0.1
							c0,0.1-0.1,0.1-0.1,0.1H727c0.1,0.4,0.2,0.7,0.5,1c0.3,0.2,0.6,0.4,1,0.4c0.5,0,0.9-0.2,1.1-0.5c0,0,0.1-0.1,0.1-0.1h0.6
							c0.1,0,0.1,0,0.1,0.1c-0.1,0.3-0.4,0.6-0.7,0.8C729.4,221.7,729,221.8,728.5,221.8z M727,219.3h2.9c0-0.4-0.1-0.7-0.4-1
							c-0.3-0.3-0.6-0.4-1-0.4s-0.8,0.1-1,0.4C727.2,218.6,727,218.9,727,219.3z"/>
						<path id="XMLID_2505_" class="st1" d="M733.9,221.8c-0.5,0-0.9-0.1-1.2-0.4c-0.3-0.3-0.4-0.7-0.4-1.2v-2.1h-1
							c-0.1,0-0.1,0-0.1-0.1v-0.4c0-0.1,0-0.1,0.1-0.1h1v-1.3c0-0.1,0-0.1,0.1-0.1h0.6c0.1,0,0.1,0,0.1,0.1v1.3h1.5
							c0.1,0,0.1,0,0.1,0.1v0.4c0,0.1,0,0.1-0.1,0.1h-1.5v2.1c0,0.7,0.3,1,0.9,1c0.2,0,0.5,0,0.7-0.1c0.1,0,0.1,0,0.1,0.1l0.1,0.4
							c0,0.1,0,0.1-0.1,0.1C734.5,221.8,734.2,221.8,733.9,221.8z"/>
						<path id="XMLID_2502_" class="st1" d="M741.1,221.6c0,0.1,0,0.1-0.1,0.1c-0.2,0.1-0.4,0.1-0.5,0.1c-0.5,0-0.9-0.2-1-0.7
							c-0.4,0.5-1,0.7-1.6,0.7c-0.6,0-1.2-0.2-1.6-0.6c-0.4-0.4-0.7-1-0.7-1.6c0-0.6,0.2-1.2,0.6-1.6c0.4-0.4,1-0.6,1.6-0.6
							c0.6,0,1.1,0.2,1.5,0.7v-0.5c0-0.1,0-0.1,0.1-0.1h0.6c0.1,0,0.1,0,0.1,0.1v3.1c0,0.3,0.1,0.5,0.4,0.5c0.1,0,0.2,0,0.4,0
							c0.1,0,0.1,0,0.1,0.1L741.1,221.6z M738,221.2c0.4,0,0.8-0.2,1.1-0.5c0.3-0.3,0.4-0.7,0.4-1.1s-0.1-0.8-0.4-1.1
							c-0.3-0.3-0.6-0.5-1.1-0.5c-0.4,0-0.8,0.2-1.1,0.5c-0.3,0.3-0.4,0.7-0.4,1.1c0,0.5,0.1,0.8,0.4,1.1
							C737.2,221,737.5,221.2,738,221.2z"/>
						<path id="XMLID_2500_" class="st1" d="M745.5,217.4c0.1,0,0.1,0.1,0.1,0.1l-0.1,0.4c0,0.1-0.1,0.1-0.1,0.1
							c-0.2-0.1-0.4-0.1-0.6-0.1c-0.4,0-0.8,0.1-1.1,0.4c-0.3,0.3-0.4,0.7-0.4,1.1v2c0,0.1,0,0.1-0.1,0.1h-0.5c-0.1,0-0.1,0-0.1-0.1
							v-3.1c0-0.3-0.1-0.5-0.4-0.5c-0.1,0-0.2,0-0.3,0c-0.1,0-0.1,0-0.1-0.1l0-0.4c0-0.1,0-0.1,0.1-0.1c0.1-0.1,0.3-0.1,0.5-0.1
							c0.3,0,0.5,0.1,0.6,0.2c0.2,0.1,0.3,0.3,0.3,0.6c0.4-0.5,0.9-0.8,1.6-0.8C745.1,217.3,745.3,217.4,745.5,217.4z"/>
						<path id="XMLID_2497_" class="st1" d="M746.6,216.7C746.6,216.7,746.6,216.6,746.6,216.7c-0.1-0.1-0.1-0.1-0.1-0.1l0.6-1.1
							c0,0,0.1-0.1,0.1-0.1h0.6c0.1,0,0.1,0,0.1,0.1l-0.8,1.1c0,0-0.1,0.1-0.1,0.1H746.6z M747.6,221.8c-0.3,0-0.6-0.1-0.8-0.3
							c-0.2-0.2-0.3-0.4-0.3-0.7v-3.3c0-0.1,0-0.1,0.1-0.1h0.5c0.1,0,0.1,0,0.1,0.1v3.1c0,0.3,0.1,0.5,0.4,0.5c0.1,0,0.2,0,0.3,0
							c0.1,0,0.1,0,0.1,0.1l0.1,0.4c0,0.1,0,0.1-0.1,0.1C748,221.8,747.8,221.8,747.6,221.8z"/>
						<path id="XMLID_2494_" class="st1" d="M754.5,221.6c0,0.1,0,0.1-0.1,0.1c-0.2,0.1-0.4,0.1-0.5,0.1c-0.5,0-0.9-0.2-1-0.7
							c-0.4,0.5-1,0.7-1.6,0.7c-0.6,0-1.2-0.2-1.6-0.6c-0.4-0.4-0.7-1-0.7-1.6c0-0.6,0.2-1.2,0.6-1.6c0.4-0.4,1-0.6,1.6-0.6
							c0.6,0,1.1,0.2,1.5,0.7v-0.5c0-0.1,0-0.1,0.1-0.1h0.6c0.1,0,0.1,0,0.1,0.1v3.1c0,0.3,0.1,0.5,0.4,0.5c0.1,0,0.2,0,0.4,0
							c0.1,0,0.1,0,0.1,0.1L754.5,221.6z M751.3,221.2c0.4,0,0.8-0.2,1.1-0.5c0.3-0.3,0.4-0.7,0.4-1.1s-0.1-0.8-0.4-1.1
							c-0.3-0.3-0.6-0.5-1.1-0.5c-0.4,0-0.8,0.2-1.1,0.5c-0.3,0.3-0.4,0.7-0.4,1.1c0,0.5,0.1,0.8,0.4,1.1
							C750.5,221,750.8,221.2,751.3,221.2z"/>
						<path id="XMLID_2492_" class="st1" d="M761,221.8c-1,0-1.8-0.3-2.4-0.9c-0.6-0.6-0.9-1.4-0.9-2.4c0-1,0.3-1.7,0.9-2.3
							c0.6-0.6,1.4-0.9,2.4-0.9c0.7,0,1.4,0.2,2,0.6c0.6,0.4,0.9,0.9,1.1,1.5c0,0.1,0,0.1-0.1,0.1h-0.6c-0.1,0-0.1,0-0.1-0.1
							c-0.1-0.4-0.4-0.7-0.8-1c-0.4-0.2-0.9-0.4-1.4-0.4c-0.7,0-1.3,0.2-1.8,0.7c-0.5,0.5-0.7,1.1-0.7,1.8c0,0.7,0.2,1.4,0.7,1.8
							c0.5,0.5,1.1,0.7,1.8,0.7c0.6,0,1.1-0.2,1.5-0.6s0.7-0.8,0.7-1.4H761c-0.1,0-0.1,0-0.1-0.1v-0.5c0-0.1,0-0.1,0.1-0.1h3
							c0.1,0,0.1,0,0.1,0.1c0,1-0.3,1.8-0.9,2.4C762.7,221.5,761.9,221.8,761,221.8z"/>
						<path id="XMLID_2489_" class="st1" d="M767.6,221.8c-0.7,0-1.2-0.2-1.7-0.6c-0.4-0.4-0.6-0.9-0.6-1.6s0.2-1.2,0.6-1.6
							c0.4-0.4,1-0.6,1.6-0.6c0.7,0,1.2,0.2,1.6,0.6c0.4,0.4,0.6,1,0.6,1.6c0,0,0,0.1,0,0.1c0,0.1,0,0.1,0,0.1
							c0,0.1-0.1,0.1-0.1,0.1h-3.6c0.1,0.4,0.2,0.7,0.5,1c0.3,0.2,0.6,0.4,1,0.4c0.5,0,0.9-0.2,1.1-0.5c0,0,0.1-0.1,0.1-0.1h0.6
							c0.1,0,0.1,0,0.1,0.1c-0.1,0.3-0.4,0.6-0.7,0.8C768.4,221.7,768,221.8,767.6,221.8z M766,219.3h2.9c0-0.4-0.1-0.7-0.4-1
							c-0.3-0.3-0.6-0.4-1-0.4s-0.8,0.1-1,0.4C766.2,218.6,766.1,218.9,766,219.3z"/>
						<path id="XMLID_2487_" class="st1" d="M776.5,221.6c0,0.1,0,0.1-0.1,0.1c-0.2,0.1-0.4,0.1-0.5,0.1c-0.3,0-0.6-0.1-0.8-0.3
							c-0.2-0.2-0.3-0.4-0.3-0.7v-1.6c0-0.4-0.1-0.7-0.3-0.9c-0.2-0.2-0.5-0.4-0.9-0.4c-0.4,0-0.7,0.1-1,0.4c-0.3,0.3-0.4,0.6-0.4,1
							v2.2c0,0.1,0,0.1-0.1,0.1h-0.5c-0.1,0-0.1,0-0.1-0.1v-3.1c0-0.3-0.1-0.5-0.4-0.5c-0.1,0-0.2,0-0.3,0c-0.1,0-0.1,0-0.1-0.1
							l0-0.4c0-0.1,0-0.1,0.1-0.1c0.1-0.1,0.3-0.1,0.5-0.1c0.5,0,0.8,0.2,0.9,0.7c0.4-0.5,0.9-0.7,1.7-0.7c0.6,0,1,0.2,1.4,0.5
							c0.3,0.4,0.5,0.8,0.5,1.4v1.4c0,0.3,0.1,0.5,0.4,0.5c0.1,0,0.2,0,0.4,0c0.1,0,0.1,0,0.1,0.1L776.5,221.6z"/>
						<path id="XMLID_2484_" class="st1" d="M779.6,221.8c-0.7,0-1.2-0.2-1.7-0.6c-0.4-0.4-0.6-0.9-0.6-1.6s0.2-1.2,0.6-1.6
							c0.4-0.4,1-0.6,1.6-0.6c0.7,0,1.2,0.2,1.6,0.6c0.4,0.4,0.6,1,0.6,1.6c0,0,0,0.1,0,0.1c0,0.1,0,0.1,0,0.1
							c0,0.1-0.1,0.1-0.1,0.1H778c0.1,0.4,0.2,0.7,0.5,1c0.3,0.2,0.6,0.4,1,0.4c0.5,0,0.9-0.2,1.1-0.5c0,0,0.1-0.1,0.1-0.1h0.6
							c0.1,0,0.1,0,0.1,0.1c-0.1,0.3-0.4,0.6-0.7,0.8S780,221.8,779.6,221.8z M778,219.3h2.9c0-0.4-0.1-0.7-0.4-1
							c-0.3-0.3-0.6-0.4-1-0.4c-0.4,0-0.8,0.1-1,0.4C778.2,218.6,778,218.9,778,219.3z"/>
						<path id="XMLID_2482_" class="st1" d="M786.3,217.4c0.1,0,0.1,0.1,0.1,0.1l-0.1,0.4c0,0.1-0.1,0.1-0.1,0.1
							c-0.2-0.1-0.4-0.1-0.6-0.1c-0.4,0-0.8,0.1-1.1,0.4c-0.3,0.3-0.4,0.7-0.4,1.1v2c0,0.1,0,0.1-0.1,0.1h-0.5c-0.1,0-0.1,0-0.1-0.1
							v-3.1c0-0.3-0.1-0.5-0.4-0.5c-0.1,0-0.2,0-0.3,0c-0.1,0-0.1,0-0.1-0.1l0-0.4c0-0.1,0-0.1,0.1-0.1c0.1-0.1,0.3-0.1,0.5-0.1
							c0.3,0,0.5,0.1,0.6,0.2c0.2,0.1,0.3,0.3,0.3,0.6c0.4-0.5,0.9-0.8,1.6-0.8C785.9,217.3,786.1,217.4,786.3,217.4z"/>
						<path id="XMLID_2479_" class="st1" d="M792.4,221.6c0,0.1,0,0.1-0.1,0.1c-0.2,0.1-0.4,0.1-0.5,0.1c-0.5,0-0.9-0.2-1-0.7
							c-0.4,0.5-1,0.7-1.6,0.7c-0.6,0-1.2-0.2-1.6-0.6c-0.4-0.4-0.7-1-0.7-1.6c0-0.6,0.2-1.2,0.6-1.6c0.4-0.4,1-0.6,1.6-0.6
							c0.6,0,1.1,0.2,1.5,0.7v-0.5c0-0.1,0-0.1,0.1-0.1h0.6c0.1,0,0.1,0,0.1,0.1v3.1c0,0.3,0.1,0.5,0.4,0.5c0.1,0,0.2,0,0.4,0
							c0.1,0,0.1,0,0.1,0.1L792.4,221.6z M789.3,221.2c0.4,0,0.8-0.2,1.1-0.5c0.3-0.3,0.4-0.7,0.4-1.1s-0.1-0.8-0.4-1.1
							c-0.3-0.3-0.6-0.5-1.1-0.5c-0.4,0-0.8,0.2-1.1,0.5c-0.3,0.3-0.4,0.7-0.4,1.1c0,0.5,0.1,0.8,0.4,1.1
							C788.5,221,788.8,221.2,789.3,221.2z"/>
						<path id="XMLID_2477_" class="st1" d="M794.5,221.8c-0.3,0-0.6-0.1-0.8-0.3c-0.2-0.2-0.3-0.4-0.3-0.7v-5.7
							c0-0.1,0-0.1,0.1-0.1h0.5c0.1,0,0.1,0,0.1,0.1v5.5c0,0.3,0.1,0.5,0.4,0.5c0.1,0,0.2,0,0.3,0c0.1,0,0.1,0,0.1,0.1l0,0.4
							c0,0.1,0,0.1-0.1,0.1C794.9,221.8,794.7,221.8,794.5,221.8z"/>
						<path id="XMLID_2474_" class="st1" d="M803.7,221.6c0,0.1,0,0.1-0.1,0.1c-0.2,0.1-0.4,0.1-0.5,0.1c-0.5,0-0.9-0.3-1-0.8
							c-0.4,0.5-1,0.8-1.6,0.8s-1.2-0.2-1.6-0.6c-0.4-0.4-0.7-1-0.7-1.6c0-0.6,0.2-1.2,0.6-1.6c0.4-0.4,1-0.6,1.6-0.6
							c0.6,0,1.1,0.2,1.5,0.7v-2.8c0-0.1,0-0.1,0.1-0.1h0.6c0.1,0,0.1,0,0.1,0.1v5.5c0,0.3,0.1,0.5,0.4,0.5c0.1,0,0.2,0,0.3,0
							c0.1,0,0.1,0,0.1,0.1L803.7,221.6z M800.6,221.2c0.4,0,0.8-0.2,1.1-0.5c0.3-0.3,0.4-0.7,0.4-1.1s-0.1-0.8-0.4-1.1
							c-0.3-0.3-0.6-0.5-1.1-0.5c-0.4,0-0.8,0.2-1.1,0.5c-0.3,0.3-0.4,0.7-0.4,1.1c0,0.5,0.1,0.8,0.4,1.1
							C799.8,221,800.1,221.2,800.6,221.2z"/>
						<path id="XMLID_2471_" class="st1" d="M806.8,221.8c-0.7,0-1.2-0.2-1.7-0.6c-0.4-0.4-0.6-0.9-0.6-1.6s0.2-1.2,0.6-1.6
							c0.4-0.4,1-0.6,1.6-0.6c0.7,0,1.2,0.2,1.6,0.6c0.4,0.4,0.6,1,0.6,1.6c0,0,0,0.1,0,0.1c0,0.1,0,0.1,0,0.1
							c0,0.1-0.1,0.1-0.1,0.1h-3.6c0.1,0.4,0.2,0.7,0.5,1c0.3,0.2,0.6,0.4,1,0.4c0.5,0,0.9-0.2,1.1-0.5c0,0,0.1-0.1,0.1-0.1h0.6
							c0.1,0,0.1,0,0.1,0.1c-0.1,0.3-0.4,0.6-0.7,0.8S807.3,221.8,806.8,221.8z M805.3,219.3h2.9c0-0.4-0.1-0.7-0.4-1
							c-0.3-0.3-0.6-0.4-1-0.4c-0.4,0-0.8,0.1-1,0.4C805.5,218.6,805.3,218.9,805.3,219.3z"/>
						<path id="XMLID_2469_" class="st1" d="M815.6,221.8c-1,0-1.8-0.3-2.4-0.9c-0.6-0.6-0.9-1.4-0.9-2.4c0-1,0.3-1.7,0.9-2.3
							c0.6-0.6,1.4-0.9,2.4-0.9c0.7,0,1.4,0.2,2,0.6c0.6,0.4,0.9,0.9,1.1,1.5c0,0.1,0,0.1-0.1,0.1H818c-0.1,0-0.1,0-0.1-0.1
							c-0.1-0.4-0.4-0.7-0.8-1c-0.4-0.2-0.9-0.4-1.4-0.4c-0.7,0-1.3,0.2-1.8,0.7c-0.5,0.5-0.7,1.1-0.7,1.8c0,0.7,0.2,1.4,0.7,1.8
							c0.5,0.5,1.1,0.7,1.8,0.7c0.6,0,1.1-0.2,1.5-0.6s0.7-0.8,0.7-1.4h-2.3c-0.1,0-0.1,0-0.1-0.1v-0.5c0-0.1,0-0.1,0.1-0.1h3
							c0.1,0,0.1,0,0.1,0.1c0,1-0.3,1.8-0.9,2.4C817.3,221.5,816.6,221.8,815.6,221.8z"/>
						<path id="XMLID_2466_" class="st1" d="M824,221.2c-0.4,0.4-1,0.6-1.7,0.6c-0.7,0-1.2-0.2-1.7-0.6c-0.4-0.4-0.7-1-0.7-1.6
							c0-0.7,0.2-1.2,0.7-1.6c0.4-0.4,1-0.6,1.7-0.6c0.7,0,1.2,0.2,1.7,0.6c0.4,0.4,0.7,1,0.7,1.6
							C824.6,220.2,824.4,220.8,824,221.2z M821.2,220.7c0.3,0.3,0.7,0.4,1.1,0.4c0.5,0,0.8-0.1,1.1-0.4c0.3-0.3,0.4-0.7,0.4-1.1
							c0-0.5-0.1-0.8-0.4-1.1c-0.3-0.3-0.7-0.4-1.1-0.4c-0.5,0-0.8,0.1-1.1,0.4c-0.3,0.3-0.4,0.7-0.4,1.1
							C820.7,220,820.8,220.4,821.2,220.7z"/>
						<path id="XMLID_2463_" class="st1" d="M828.1,217.3c0.7,0,1.2,0.2,1.6,0.6c0.4,0.4,0.6,1,0.6,1.6c0,0.6-0.2,1.2-0.7,1.6
							c-0.4,0.4-1,0.6-1.6,0.6c-0.6,0-1.1-0.2-1.5-0.7v0.5c0,0.1,0,0.1-0.1,0.1h-0.6c-0.1,0-0.1,0-0.1-0.1v-6.4c0-0.1,0-0.1,0.1-0.1
							h0.6c0.1,0,0.1,0,0.1,0.1v2.9C827,217.6,827.5,217.3,828.1,217.3z M828.1,221.2c0.4,0,0.8-0.2,1.1-0.5
							c0.3-0.3,0.4-0.7,0.4-1.1s-0.1-0.8-0.4-1.1c-0.3-0.3-0.6-0.5-1.1-0.5c-0.4,0-0.8,0.2-1.1,0.5c-0.3,0.3-0.4,0.7-0.4,1.1
							c0,0.5,0.1,0.8,0.4,1.1C827.3,221,827.6,221.2,828.1,221.2z"/>
						<path id="XMLID_2460_" class="st1" d="M832,216.4c-0.1,0-0.3,0-0.4-0.1c-0.1-0.1-0.2-0.2-0.2-0.3c0-0.1,0.1-0.2,0.2-0.3
							c0.1-0.1,0.2-0.1,0.4-0.1s0.3,0,0.4,0.1c0.1,0.1,0.2,0.2,0.2,0.3c0,0.1-0.1,0.2-0.2,0.3C832.3,216.3,832.1,216.4,832,216.4z
							 M832.7,221.8c-0.3,0-0.6-0.1-0.8-0.3c-0.2-0.2-0.3-0.4-0.3-0.7v-3.3c0-0.1,0-0.1,0.1-0.1h0.5c0.1,0,0.1,0,0.1,0.1v3.1
							c0,0.3,0.1,0.5,0.4,0.5c0.1,0,0.2,0,0.3,0c0.1,0,0.1,0,0.1,0.1l0.1,0.4c0,0.1,0,0.1-0.1,0.1
							C833,221.8,832.8,221.8,832.7,221.8z"/>
						<path id="XMLID_2457_" class="st1" d="M836.3,221.8c-0.7,0-1.2-0.2-1.7-0.6c-0.4-0.4-0.6-0.9-0.6-1.6s0.2-1.2,0.6-1.6
							c0.4-0.4,1-0.6,1.6-0.6c0.7,0,1.2,0.2,1.6,0.6c0.4,0.4,0.6,1,0.6,1.6c0,0,0,0.1,0,0.1c0,0.1,0,0.1,0,0.1
							c0,0.1-0.1,0.1-0.1,0.1h-3.6c0.1,0.4,0.2,0.7,0.5,1c0.3,0.2,0.6,0.4,1,0.4c0.5,0,0.9-0.2,1.1-0.5c0,0,0.1-0.1,0.1-0.1h0.6
							c0.1,0,0.1,0,0.1,0.1c-0.1,0.3-0.4,0.6-0.7,0.8C837.2,221.7,836.8,221.8,836.3,221.8z M834.8,219.3h2.9c0-0.4-0.1-0.7-0.4-1
							c-0.3-0.3-0.6-0.4-1-0.4s-0.8,0.1-1,0.4C835,218.6,834.8,218.9,834.8,219.3z"/>
						<path id="XMLID_2455_" class="st1" d="M843.1,217.4c0.1,0,0.1,0.1,0.1,0.1l-0.1,0.4c0,0.1-0.1,0.1-0.1,0.1
							c-0.2-0.1-0.4-0.1-0.6-0.1c-0.4,0-0.8,0.1-1.1,0.4c-0.3,0.3-0.4,0.7-0.4,1.1v2c0,0.1,0,0.1-0.1,0.1h-0.5c-0.1,0-0.1,0-0.1-0.1
							v-3.1c0-0.3-0.1-0.5-0.4-0.5c-0.1,0-0.2,0-0.3,0c-0.1,0-0.1,0-0.1-0.1l0-0.4c0-0.1,0-0.1,0.1-0.1c0.1-0.1,0.3-0.1,0.5-0.1
							c0.3,0,0.5,0.1,0.6,0.2c0.2,0.1,0.3,0.3,0.3,0.6c0.4-0.5,0.9-0.8,1.6-0.8C842.6,217.3,842.9,217.4,843.1,217.4z"/>
						<path id="XMLID_2453_" class="st1" d="M849.7,221.6c0,0.1,0,0.1-0.1,0.1c-0.2,0.1-0.4,0.1-0.5,0.1c-0.3,0-0.6-0.1-0.8-0.3
							c-0.2-0.2-0.3-0.4-0.3-0.7v-1.6c0-0.4-0.1-0.7-0.3-0.9c-0.2-0.2-0.5-0.4-0.9-0.4c-0.4,0-0.7,0.1-1,0.4c-0.3,0.3-0.4,0.6-0.4,1
							v2.2c0,0.1,0,0.1-0.1,0.1h-0.5c-0.1,0-0.1,0-0.1-0.1v-3.1c0-0.3-0.1-0.5-0.4-0.5c-0.1,0-0.2,0-0.3,0c-0.1,0-0.1,0-0.1-0.1
							l0-0.4c0-0.1,0-0.1,0.1-0.1c0.1-0.1,0.3-0.1,0.5-0.1c0.5,0,0.8,0.2,0.9,0.7c0.4-0.5,0.9-0.7,1.7-0.7c0.6,0,1,0.2,1.4,0.5
							c0.3,0.4,0.5,0.8,0.5,1.4v1.4c0,0.3,0.1,0.5,0.4,0.5c0.1,0,0.2,0,0.4,0c0.1,0,0.1,0,0.1,0.1L849.7,221.6z"/>
						<path id="XMLID_2450_" class="st1" d="M854.4,221.2c-0.4,0.4-1,0.6-1.7,0.6s-1.2-0.2-1.7-0.6c-0.4-0.4-0.7-1-0.7-1.6
							c0-0.7,0.2-1.2,0.7-1.6c0.4-0.4,1-0.6,1.7-0.6c0.7,0,1.2,0.2,1.7,0.6c0.4,0.4,0.7,1,0.7,1.6
							C855.1,220.2,854.9,220.8,854.4,221.2z M851.6,220.7c0.3,0.3,0.7,0.4,1.1,0.4c0.5,0,0.8-0.1,1.1-0.4c0.3-0.3,0.4-0.7,0.4-1.1
							c0-0.5-0.1-0.8-0.4-1.1c-0.3-0.3-0.7-0.4-1.1-0.4c-0.5,0-0.8,0.1-1.1,0.4c-0.3,0.3-0.4,0.7-0.4,1.1
							C851.2,220,851.3,220.4,851.6,220.7z"/>
					</g>
				</g>
			</g>
			<path id="XMLID_1623_" class="st1" d="M679.6,212.7c0.6-0.7,1.2-1.4,1.9-2.2c2.5-2.9,5.2-5.9,6.9-9.5c1.5-3.1,2.1-6.4,1.6-9.4
				c-0.7-5.3-4.2-9.7-8.8-11.6c0.8-1.3,1.1-2.8,1-4.4l0,0c0-0.4-0.3-0.6-0.6-0.8c-0.3-0.1-0.7,0-1,0.2c-0.5,0.5-1.1,0.8-1.7,1
				c-0.7,0.2-1.4,0.1-2-0.1l-0.1-0.1c-2-0.8-4.1-1.2-6.3-1.2c-0.9,0-1.7,0.1-2.6,0.2c0,0,0-0.1,0-0.1c0-0.6-0.1-1.3-0.3-1.9
				c-0.1-0.3-0.3-0.5-0.5-0.6c-0.3-0.1-0.6-0.1-0.8,0.1c-0.4,0.2-0.8,0.3-1.2,0.3c-0.1,0-0.2,0-0.3,0c-0.5-0.1-1-0.1-1.4-0.1
				c-0.7,0-1.3,0-1.9,0.1c-0.6,0.1-1.3,0.2-1.9,0.4c-0.6,0.2-1.2,0.4-1.8,0.6c-0.6,0.3-1.1,0.5-1.7,0.9c-0.5,0.3-1,0.7-1.5,1.1
				c-0.5,0.4-0.9,0.8-1.4,1.3c-0.3,0.3-0.5,0.6-0.8,0.9c-0.2,0.3-0.5,0.6-0.7,1c-0.4,0.7-0.8,1.4-1.3,2c0,0.1-0.1,0.1-0.1,0.2
				c0,0-0.1,0.1-0.1,0.1c0,0-0.1,0.1-0.1,0.1c0,0,0,0,0,0.1c-0.3,0.4-0.6,0.7-0.9,1.1c-0.3,0.3-0.6,0.6-0.9,0.9l-3.9-2.7l-0.4-2.7
				c0.2-0.3,0.4-0.6,0.5-0.9l0.1-0.2c0.1-0.2,0.2-0.3,0.2-0.5l0.1-0.1c0.1-0.1,0.1-0.3,0.2-0.4c0-0.1,0.1-0.1,0.1-0.2
				c0-0.1,0-0.1,0.1-0.2l0.8-0.2l0.6-4.6v0l-0.9-0.2c0-0.1,0-0.3-0.1-0.4c0-0.2-0.1-0.4-0.1-0.6c-0.1-0.6-0.3-1.1-0.6-1.6
				c0,0,0-0.1,0-0.1c-0.7-1.3-1.8-2.4-3.3-2.9c0,0-0.1,0-0.1,0c0,0,0-0.1,0.1-0.1c0-0.1,0.1-0.2,0.1-0.3c0.5-1.2,1.5-2.2,2.7-2.8
				c0.2,0.5,0.3,0.8,0.3,0.9c0.2,0.4,0.5,0.6,0.9,0.6c0.2,0,0.5-0.1,0.7-0.3c0.3-0.2,0.6-0.5,0.8-0.9c1.1-1.7,1.3-3.9,0.4-5.8
				c-0.7-1.5-2-2.5-3.5-2.6c-0.4,0-1,0-1.6,0.3c-0.7-1.5-2.3-2.6-4.1-2.6c-1.7,0-3.4,1.1-4.1,2.6c-0.6-0.2-1.1-0.3-1.6-0.3
				c-1.6,0.1-2.9,1.1-3.5,2.6c-0.8,1.9-0.7,4.1,0.4,5.8c0.2,0.3,0.5,0.7,0.8,0.9c0.2,0.1,0.4,0.2,0.7,0.3c0.4,0,0.7-0.1,0.9-0.6
				c0,0,0.1-0.4,0.3-0.9c1.2,0.6,2.1,1.6,2.7,2.8c0,0.1,0.1,0.2,0.1,0.3c0,0,0,0.1,0.1,0.1c0,0-0.1,0-0.1,0
				c-1.5,0.5-2.6,1.6-3.3,2.9c0,0,0,0.1,0,0.1c-0.2,0.5-0.4,1-0.6,1.6c0,0.2-0.1,0.4-0.1,0.6c0,0.1,0,0.3-0.1,0.4l-0.9,0.2v0
				l0.6,4.6l0.8,0.2c0,0.1,0,0.1,0.1,0.2c0,0.1,0,0.1,0.1,0.2c0.1,0.1,0.1,0.3,0.2,0.4l0.1,0.1c0.1,0.2,0.2,0.3,0.2,0.5l0.1,0.2
				c0.2,0.3,0.3,0.6,0.5,0.9l-0.4,2.7l-3.7,2.5c-0.2-0.2-0.3-0.3-0.5-0.5c-0.1-0.1-0.2-0.2-0.3-0.3c-0.3-0.4-0.6-0.7-0.9-1.1
				c0,0,0,0,0-0.1c0,0-0.1-0.1-0.1-0.1c0,0-0.1-0.1-0.1-0.1c0-0.1-0.1-0.1-0.1-0.2c-0.4-0.7-0.8-1.4-1.3-2c-0.2-0.3-0.4-0.7-0.7-1
				c-0.3-0.3-0.5-0.6-0.8-0.9c-0.4-0.5-0.9-0.9-1.4-1.3c-0.5-0.4-1-0.8-1.5-1.1c-0.5-0.3-1.1-0.6-1.7-0.9c-0.6-0.3-1.2-0.5-1.8-0.6
				c-0.6-0.2-1.2-0.3-1.9-0.4c-0.6-0.1-1.3-0.1-1.9-0.1c-0.4,0-0.9,0-1.4,0.1c-0.1,0-0.2,0-0.3,0c-0.4,0-0.9-0.1-1.2-0.3
				c-0.2-0.1-0.5-0.2-0.8-0.1c-0.3,0.1-0.5,0.3-0.5,0.6c-0.2,0.6-0.3,1.2-0.3,1.9c0,0.1,0,0.1,0,0.2c-1-0.2-1.9-0.2-2.9-0.2
				c-2.2,0-4.3,0.4-6.3,1.2l-0.1,0.1c-0.6,0.2-1.4,0.3-2,0.1c-0.7-0.2-1.3-0.5-1.7-1c-0.2-0.3-0.6-0.3-1-0.2
				c-0.3,0.1-0.6,0.4-0.6,0.8l0,0c-0.2,1.5,0.2,3.1,1,4.4c-4.6,1.9-8.1,6.3-8.8,11.6c-0.4,3,0.2,6.3,1.6,9.4
				c1.7,3.7,4.3,6.7,6.9,9.5c0.6,0.7,1.3,1.4,1.9,2.2c0.2,0.2,0.4,0.5,0.6,0.7c1.6,1.8,3.4,3.9,3.4,5.9c0,2.1-1.3,3.4-3.4,3.4
				c-0.4,0-0.9-0.1-1.3-0.2c-0.2-0.1-0.3-0.1-0.5-0.1v0c0,0-1.8-0.2-2.3,1.4c-0.2,0-0.3,0-0.5,0.1c-0.9,0.2-1.4,1.1-1.3,2l0,0.1
				c0.6,5.3,5.2,9.5,10.4,9.5h0.1c2.4,0,4.8-0.9,6.6-2.3c0,0,0,0,0.1,0.1c0.4,0.4,0.8,0.5,1.3,0.5c0.4,0,0.8-0.1,1.1-0.3
				c1.5-1,2.7-2.4,3.5-3.9l0,0c0.1-0.1,0.1-0.3,0.2-0.4c0.1,0.1,0.1,0.2,0.2,0.3c0.1,0.2,0.3,0.4,0.4,0.6
				c4.7,7.3,13.4,11.8,22.8,11.8c9.3,0,18.1-4.5,22.8-11.8c0.1-0.2,0.3-0.4,0.4-0.6c0.1-0.1,0.1-0.2,0.2-0.3
				c0.1,0.1,0.1,0.3,0.2,0.4l0,0c0.8,1.5,2,2.9,3.5,3.9c0.3,0.2,0.7,0.3,1.1,0.3c0.5,0,1-0.2,1.3-0.5c0,0,0,0,0.1-0.1
				c1.8,1.4,4.1,2.3,6.6,2.3h0.1c5.2,0,9.8-4.2,10.4-9.5l0-0.1c0.1-0.9-0.5-1.7-1.3-2c-0.2,0-0.3-0.1-0.5-0.1
				c-0.5-1.6-2.3-1.4-2.3-1.4v0c-0.2,0-0.3,0-0.5,0.1c-0.4,0.2-0.9,0.2-1.3,0.2c-2.1,0-3.4-1.3-3.4-3.4c0-2,1.8-4.1,3.4-5.9
				C679.2,213.2,679.4,213,679.6,212.7z M670.4,176.5c1.9,0,3.8,0.3,5.6,1l0.1,0.1c1,0.4,2.1,0.4,3.1,0.2c0.3-0.1,0.7-0.2,1-0.3
				c-0.1,0.7-0.4,1.3-0.9,1.9c-1.2-0.3-2.4-0.5-3.6-0.5c-4.8,0-8.9,2.5-11.3,6.3c-0.2-0.8-1-1.4-2-1.4h-5.4c0.3-0.4,0.5-0.8,0.8-1.1
				C660.8,178.8,665.4,176.5,670.4,176.5z M672.3,199.2c0,0.1,0.1,0.3,0.2,0.4c0,0,1.3,3.5,5.3,3.4c0.1,0,0.1,0,0.2,0c0,0,0,0,0,0
				c-4,4.1-9.6,6.3-13.4,10.5v-14.7c0.2-0.2,0.3-0.3,0.4-0.4c1.1-1.1,2.1-2.4,3.2-3.5c1.7-1.6,3.6-3.1,6-3.4c1-0.1,2-0.1,2.8,0.3
				c0.5,0.3,0.9,0.7,1.1,1.2c0,0,0.8,1.6-0.5,2.9c-0.1,0.1-0.2,0.1-0.2,0.2c-0.4,0.3-0.8,0.4-1.3,0.5c-0.3,0-0.6,0-0.9-0.1
				c-0.3-0.1-0.7-0.2-1.1-0.1c-0.5,0.1-1.1,0.3-1.4,0.8C672.7,197.3,671.9,198.1,672.3,199.2z M650.5,183.5c0.5-0.6,1-1.2,1.4-1.8
				c0.4-0.7,0.8-1.3,1.3-2c0.4-0.5,0.8-1.1,1.2-1.5c0.4-0.5,0.9-0.9,1.4-1.3c0.5-0.4,1-0.7,1.6-1c0.6-0.3,1.1-0.6,1.7-0.8
				c0.6-0.2,1.2-0.4,1.8-0.5c0.6-0.1,1.3-0.2,1.9-0.2c0.1,0,0.2,0,0.3,0c0.3,0,0.7,0,1.2,0.1c0.5,0.1,1,0,1.5-0.1c0,0.1,0,0.2,0,0.3
				c0,0.2,0,0.3,0,0.5c-4.6,1.2-8.6,4.2-11,8.5h-4.6C650.4,183.7,650.5,183.6,650.5,183.5z M644.8,172.1l-0.2,1.6l0,0h0v0l-0.9,0.2
				l-0.9,0.2v-2.5c0.4,0.1,0.7,0.2,1.1,0.3C644.3,172,644.6,172,644.8,172.1z M638.3,176.9L638.3,176.9l4.7-1c0,0,0,0,0,0
				c-0.2,0.4-0.4,0.7-0.6,1.1c-0.2,0.2-0.3,0.5-0.5,0.7c-0.9,1.1-2.1,2-3.6,2c-1.5,0-2.7-0.9-3.6-2c-0.2-0.2-0.4-0.5-0.5-0.7
				c-0.2-0.4-0.4-0.7-0.6-1.1v0L638.3,176.9z M635.5,174.5v-3.3c0.7-0.2,1.4-0.3,1.9-0.4v4.1L635.5,174.5z M639.2,174.8v-4.1
				c0.5,0.1,1.2,0.3,1.9,0.4v3.3L639.2,174.8z M633.1,160c0.4-0.5,0.8-1,1.4-1.3c0,0-1.7,0-3.5,1.7c-0.5-1.1-0.5-2.4,0-3.6
				c0.4-0.9,1.1-1.4,1.9-1.5c0.6,0,1.2,0.1,1.9,0.5c1.4,0.7,2.5,2.1,2.8,3.7c0,0,0.4-2-1.2-4.2c-0.2-0.2-0.3-0.4-0.5-0.6
				c0.3-1,1.4-1.8,2.5-1.8c1.1,0,2.2,0.7,2.5,1.8c-0.2,0.2-0.3,0.4-0.5,0.6c-1.6,2.1-1.2,4.2-1.2,4.2c0.4-1.6,1.4-2.9,2.8-3.7
				c0.7-0.3,1.3-0.5,1.9-0.5c0.8,0.1,1.5,0.6,1.9,1.5c0.5,1.1,0.5,2.4,0,3.6c-1.8-1.7-3.5-1.7-3.5-1.7c0.5,0.3,1,0.8,1.4,1.3
				c-1.5,0.8-2.8,2.1-3.5,3.7c-0.1,0.1-0.1,0.2-0.1,0.3c0,0.1-0.1,0.2-0.1,0.2c-0.5-0.2-1-0.5-1.5-0.8h0c-0.5,0.3-1,0.6-1.5,0.8
				c0-0.1-0.1-0.2-0.1-0.2c0-0.1-0.1-0.2-0.1-0.3C635.9,162.1,634.6,160.7,633.1,160z M635.8,166.6c0.4-0.2,0.9-0.3,1.3-0.4
				c0.4-0.2,0.8-0.4,1.2-0.6c0.4,0.2,0.8,0.5,1.2,0.6c0.4,0.2,0.9,0.3,1.3,0.4c1.5,0.5,2.5,1.8,2.9,3.3c-4.9-1.2-5.3-1.3-5.4-1.3h0
				c-0.1,0-0.2,0-0.9,0.2c-0.7,0.2-2,0.5-4.5,1.1C633.3,168.4,634.3,167.1,635.8,166.6z M632,173.7L632,173.7L632,173.7L632,173.7
				l-0.2-1.6c0.3-0.1,0.6-0.1,0.9-0.2c0.4-0.1,0.7-0.2,1.1-0.3v2.5l-0.9-0.2L632,173.7z M634,181.6l0.3-1.6c0,0,0.1,0.1,0.1,0.1
				c1.1,1,2.4,1.6,3.9,1.6h0c0.8,0,1.5-0.2,2.1-0.5c0.6-0.3,1.2-0.7,1.8-1.2c0,0,0.1-0.1,0.1-0.1l0.3,1.6l3.1,2.2h-14.8L634,181.6z
				 M611,174.3c0.5,0.1,1,0.1,1.5,0.1c0.5,0,0.8-0.1,1.2-0.1c0.1,0,0.2,0,0.3,0c0.7,0,1.3,0.1,1.9,0.2c0.6,0.1,1.3,0.3,1.9,0.5
				c0.6,0.2,1.2,0.5,1.7,0.8c0.6,0.3,1.1,0.6,1.6,1c0.5,0.4,1,0.8,1.4,1.3c0.5,0.5,0.9,1,1.2,1.5c0.4,0.7,0.8,1.3,1.3,2
				c0.4,0.6,0.9,1.3,1.4,1.8c0.1,0.1,0.1,0.1,0.2,0.2h-4.9c0,0,0,0.1,0.1,0.1c0,0,0-0.1-0.1-0.1h0c-2.3-4.2-6.2-7.2-10.7-8.4
				c0-0.2,0-0.4,0-0.6C610.9,174.6,611,174.5,611,174.3z M597.3,177.8c1,0.2,2.1,0.2,3.1-0.2l0.1-0.1c1.8-0.7,3.7-1,5.6-1
				c5.4,0,10.4,2.7,13.3,7.3h-5.4c-1,0-1.8,0.6-2,1.4c-2.3-3.8-6.5-6.3-11.3-6.3c-1.2,0-2.4,0.2-3.6,0.5c-0.4-0.6-0.7-1.2-0.8-1.9
				C596.6,177.6,597,177.7,597.3,177.8z M614.3,224.7c0,0.1,0,0.3,0,0.4c0,0,0,0.1,0,0.1c0,0.2,0,0.3-0.1,0.5c0,0,0,0,0,0
				c-0.1,0.7-0.3,1.4-0.6,2.1c0,0,0,0.1,0,0.1c-0.1,0.1-0.1,0.2-0.2,0.4c0,0.1-0.1,0.2-0.1,0.2c-0.7,1.4-1.8,2.5-3,3.4
				c1.2-1.6,1.8-3.6,1.8-5.7c0-0.9-0.1-1.9-0.4-2.7l0,0c-0.2,2.1-0.8,4-1.8,5.7l0,0c-1.5,2.7-4.4,4.4-7.7,4.4h-0.1
				c-4.2,0-8.1-3.5-8.6-7.8l0,0l0,0c0,0,0,0,0,0.1c1.2,1.8,3.2,3,5.5,3c3.5,0,6.3-2.7,6.5-6.1c-0.5,1.3-1.5,2.5-2.9,3.3
				c0,0,0,0-0.1,0c-0.4,0.2-0.7,0.4-1.1,0.5c-1.7,0.6-4.7,1-6.4-2.4c0.1,0,0.3,0.1,0.4,0.2c0.3,0.1,0.6,0.2,0.9,0.3
				c0.3,0.1,0.7,0.1,1,0.1c0.3,0,0.6,0,0.9,0c0.2,0,0.3,0,0.5,0c0.1,0,0.2,0,0.3-0.1c0.5-0.1,0.9-0.3,1.3-0.5
				c0.4-0.2,0.8-0.5,1.1-0.8c0.3-0.3,0.6-0.7,0.8-1.1c0.2-0.4,0.4-0.8,0.5-1.3c0.1-0.5,0.2-1,0.2-1.5c0-3-2.6-5.7-4.4-7.8
				c-3-3.6-6.5-7-8.5-11.3c-1.2-2.6-1.9-5.5-1.5-8.4c0.8-6.2,6-11.1,12.4-11.1c4.3,0,8,2.3,9.9,5.8c0.2,0.4,1.3,2.6,1.3,4.3v5.2
				c0,0,0,0,0,0c-1.4-1.5-2.6-3-4.3-4.2c-2.5-1.8-6.1-3-9-1.4c-2.5,1.4-3.2,4.6-1.6,6.9c0,0,1.6,2.4,4.9,1.6c0,0-1,3.3-5,1.9
				c-0.3-0.1-0.6-0.3-0.8-0.4c-0.5-0.3-0.9-0.7-1.3-1.1c-0.2-0.2-0.4-0.5-0.6-0.7c-0.2-0.3-0.4-0.7-0.6-1.1c-0.2-0.5-0.4-1-0.5-1.5
				c-0.2-1.5-0.1-3.1,0.6-4.5c1-2.1,3.1-3.8,5.3-4.4c2.3-0.7,5.3-0.3,7.5,0.9c0.3,0.2,0.6,0.4,0.9,0.6c0.3,0.2,0.5,0.3,0.7,0.6
				c-1.2-2.5-4.4-3.9-7-4c-3-0.1-6.1,1.3-7.9,3.7c-1.8,2.2-2.4,5.1-1.9,7.9c0.5,3,3,5.6,4.9,7.9c3.4,4.1,6.9,8.1,9.5,12.9
				c1,1.9,1.4,3.7,1.4,5.9c0,4.2-3.3,7.6-7.4,7.8h0c0.4,0.1,0.9,0.1,1.4,0.1c1,0,2.1-0.2,3-0.6c1.7-0.7,3.1-2,4-3.6
				c3.5-6.5-2-13.1-5.9-17.9c-0.2-0.3-1.5-1.7-2-2.3l4.5,3.2c0.9,0.7,1.8,1.3,2.7,2.1c1.3,1.1,2.5,2.2,3.6,3.5
				C613,217.8,614.6,221.2,614.3,224.7z M603.9,197.3c-0.3-0.4-0.9-0.7-1.4-0.8c-0.4,0-0.7,0-1.1,0.1c-0.3,0.1-0.6,0.1-0.9,0.1
				c-0.5,0-0.9-0.2-1.3-0.5c-0.1-0.1-0.2-0.1-0.2-0.2c-1.3-1.3-0.5-2.9-0.5-2.9c0.2-0.5,0.6-0.9,1.1-1.2c0.8-0.5,1.9-0.5,2.8-0.3
				c2.4,0.3,4.3,1.8,6,3.4c1.1,1.1,2.1,2.4,3.2,3.5c0.1,0.1,0.2,0.2,0.4,0.4v14.7c-3.8-4.3-9.4-6.4-13.4-10.5c0,0,0,0,0,0
				c0.1,0,0.1,0,0.2,0c4,0.1,5.3-3.4,5.3-3.4c0.1-0.1,0.1-0.3,0.2-0.4C604.6,198.1,603.9,197.3,603.9,197.3z M660.4,224.7
				C660.4,224.8,660.4,224.8,660.4,224.7c0.1,0.7,0.1,1.2,0.3,1.7c0,0,0,0,0,0c-0.3,0.7-0.7,1.4-1.1,2.1c-0.1,0.2-0.2,0.4-0.4,0.6
				c-4.2,6.5-12,10.9-21,10.9c-9,0-16.8-4.4-21-10.9c-0.1-0.2-0.2-0.4-0.4-0.6c-0.4-0.7-0.8-1.4-1.1-2.1v0c0.1-0.5,0.2-1.1,0.3-1.7
				c0,0,0-0.1,0-0.1c0.2-2.7-0.5-5.7-2.1-8.3c0,0,0,0,0,0v-30.8h8.7c0,0,0,0,0,0l31.1,0c0,0,0,0,0,0h8.7v30.8c0,0,0,0,0,0
				C660.9,219.1,660.2,222,660.4,224.7z M673.8,219.3c0,0.5,0.1,1,0.2,1.5c0.1,0.5,0.3,0.9,0.5,1.3c0.2,0.4,0.5,0.7,0.8,1.1
				c0.3,0.3,0.7,0.6,1.1,0.8c0.4,0.2,0.9,0.4,1.3,0.5c0.1,0,0.2,0.1,0.3,0.1c0.2,0,0.3,0,0.5,0c0.3,0,0.6,0,0.9,0c0.3,0,0.7,0,1-0.1
				c0.3-0.1,0.6-0.2,0.9-0.3c0.1-0.1,0.3-0.1,0.4-0.2c-1.7,3.3-4.8,2.9-6.4,2.4c-0.4-0.1-0.8-0.3-1.1-0.5c0,0-0.1,0-0.1,0
				c-1.3-0.7-2.4-2-2.9-3.3c0.2,3.4,3,6.1,6.5,6.1c2.3,0,4.3-1.2,5.5-3c0,0,0,0,0-0.1l0,0l0,0c-0.5,4.4-4.4,7.8-8.6,7.8h-0.1
				c-3.3-0.1-6.1-1.8-7.7-4.4l0,0c-1-1.7-1.6-3.6-1.8-5.7l0,0c-0.3,0.9-0.4,1.8-0.4,2.7c0,2.1,0.7,4.1,1.8,5.7
				c-1.3-0.9-2.3-2.1-3-3.4c0-0.1-0.1-0.2-0.1-0.2c-0.1-0.1-0.1-0.2-0.2-0.4c0,0,0-0.1,0-0.1c-0.3-0.6-0.5-1.3-0.6-2.1c0,0,0,0,0,0
				c0-0.2-0.1-0.3-0.1-0.5c0,0,0-0.1,0-0.1c0-0.1,0-0.3,0-0.4c-0.3-3.5,1.3-6.9,3.1-9.2c1.1-1.3,2.3-2.5,3.6-3.5
				c0.9-0.7,1.8-1.4,2.7-2.1l4.5-3.2c-0.5,0.6-1.8,2-2,2.3c-3.9,4.8-9.4,11.4-5.9,17.9c0.9,1.6,2.3,2.9,4,3.6c1,0.4,2,0.6,3,0.6
				c0.5,0,0.9,0,1.4-0.1h0c-4.1-0.2-7.4-3.6-7.4-7.8c0-2.1,0.4-4,1.4-5.9c2.6-4.7,6.1-8.8,9.5-12.9c1.9-2.3,4.3-4.8,4.9-7.9
				c0.5-2.8-0.1-5.7-1.9-7.9c-1.9-2.4-4.9-3.8-7.9-3.7c-2.7,0.1-5.8,1.5-7,4c0.3-0.3,0.5-0.4,0.7-0.6c0.3-0.2,0.6-0.4,0.9-0.6
				c2.1-1.2,5.1-1.6,7.5-0.9c2.2,0.6,4.3,2.3,5.3,4.4c0.7,1.4,0.9,3,0.6,4.5c-0.1,0.5-0.3,1-0.5,1.5c-0.2,0.4-0.4,0.7-0.6,1.1
				c-0.2,0.2-0.4,0.5-0.6,0.7c-0.4,0.4-0.8,0.8-1.3,1.1c-0.3,0.2-0.5,0.3-0.8,0.4c-3.9,1.4-5-1.9-5-1.9c3.3,0.9,4.9-1.6,4.9-1.6
				c1.6-2.3,0.9-5.5-1.6-6.9c-2.9-1.6-6.5-0.3-9,1.4c-1.7,1.2-2.9,2.7-4.3,4.2c0,0,0,0,0,0v-5.2c0-1.7,1.1-3.9,1.3-4.3
				c2-3.5,5.7-5.8,9.9-5.8c6.4,0,11.5,4.9,12.4,11.1c0.4,2.9-0.3,5.8-1.5,8.4c-2,4.3-5.5,7.7-8.5,11.3
				C676.4,213.7,673.8,216.3,673.8,219.3z"/>
			<g id="XMLID_1619_">
				<path id="XMLID_1620_" class="st1" d="M659.5,188.7v26.5c0,0.1,0,0.3,0,0.5c-1.5,2.8-2.2,5.9-2,8.9l0,0.1l0,0c0,0,0,0.1,0,0.1
					c0,0.4,0.1,0.7,0.1,1c-0.2,0.4-0.4,0.7-0.6,1.1l-0.1,0.1l0,0.1c-0.1,0.1-0.1,0.2-0.2,0.3c-0.2,0.3-4.5,6-10.5,8.2
					c-2.5,0.9-5.2,1.4-7.9,1.4c-5.2,0-10.1-1.7-14-4.7l0,0l0,0c-1.4-1-3.7-4-4.5-5.1l0-0.1l-0.1-0.1c-0.2-0.3-0.4-0.7-0.6-1.1
					c0.1-0.4,0.1-0.7,0.1-1.1l0,0v0c0,0,0-0.1,0-0.1c0.2-3-0.5-6-2-8.9v-11.9v-3.6v-11.6H659.5 M660.6,187.5H616v12.7v3.6V216
					c1.5,2.7,2.2,5.7,2,8.5c0,0,0,0.1,0,0.1v0c0,0.5-0.1,0.9-0.2,1.4c0.3,0.5,0.5,1,0.8,1.5l0.1,0.1c0,0,0,0.1,0.1,0.1
					c0,0,2.9,4,4.8,5.4c4,3.1,9.2,5,14.7,5c2.9,0,5.7-0.5,8.3-1.4c6.6-2.4,11.1-8.6,11.1-8.6c0.1-0.1,0.2-0.3,0.2-0.4l0.1-0.2
					c0.3-0.5,0.5-1,0.8-1.5c-0.1-0.4-0.1-0.9-0.2-1.3c0,0,0-0.1,0-0.1c-0.2-2.9,0.5-5.8,2-8.5v-0.2c0-0.2,0-0.4,0-0.6V187.5
					L660.6,187.5z"/>
			</g>
			<path id="XMLID_1615_" class="st1" d="M644.5,187.5h-3.3H616v11.7v1v2.4c0.4,0.2,0.8,0.4,1.1,0.7c2.1,1.4,3.4,3.8,3.5,6.5l0,18.6
				l0,1.8c0.9,1.1,2.1,2.4,3,3c0.9,0.7,1.8,1.3,2.8,1.9c1.6,0.9,3.3,1.6,5.1,2.1c0.3,0,0.5,0,0.5,0c0.4,0,0.8,0.1,1.1,0.4
				c1.7,0.4,3.5,0.6,5.3,0.6c0.9,0,1.7-0.1,2.6-0.1c2-0.2,3.9-0.6,5.7-1.3c0.1,0,0.3-0.1,0.4-0.2c6.4-2.5,10.7-8.4,10.7-8.4
				c0.1-0.1,0.2-0.3,0.2-0.4l0.1-0.2c0.3-0.5,0.5-1,0.8-1.5c-0.1-0.4-0.1-0.9-0.2-1.3c0,0,0-0.1,0-0.1c-0.2-2.9,0.5-5.8,2-8.5v-0.2
				c0-0.2,0-0.4,0-0.6v-27.7H644.5z M617.5,200.5c-0.2-0.1-0.3-0.2-0.5-0.3v-11.5H641c-0.3,1.2-1,2.3-2,3.1l-0.6,0.5l-0.3,0.8
				c-1,2.6-3.2,4.5-5.8,5.2l0,0c0,0-2.1,0.5-2.7,0.8l-0.1,0c-0.2,0.2-0.3,0.3-0.5,0.5c0,0,0,0-0.1,0.1c-0.1,0.1-0.3,0.3-0.4,0.4
				c-0.2,0.1-0.4,0.3-0.6,0.4c-1.6,1.1-3.4,1.6-5.2,1.6C620.9,202.1,619.1,201.6,617.5,200.5z M659.5,215.2c0,0.1,0,0.3,0,0.5
				c-1.5,2.8-2.2,5.9-2,8.9l0,0.1l0,0c0,0,0,0.1,0,0.1c0,0.4,0.1,0.7,0.1,1c-0.2,0.4-0.4,0.7-0.6,1.1l-0.1,0.1l0,0.1
				c-0.1,0.1-0.1,0.2-0.2,0.3c-0.2,0.3-3.9,5.3-9.4,7.7c0.1-0.5,0.1-1,0.2-1.4c0-0.9,0.7-1.6,1.6-1.6c0-0.3-0.2-0.5-0.5-0.5
				c-0.5,0-0.9,0.1-1.3,0.2c-0.4,0.1-0.8,0.2-1.3,0.2c-0.7,0-1.5-0.2-2.1-0.5c-0.2-0.6-0.3-1.3-0.3-2c0-0.6,0.1-1.2,0.2-1.8l0,0
				c0-0.1,0-0.2,0-0.3c0.4,0.1,0.8,0.2,1.3,0.2c2.9,0,5.3-2.4,5.3-5.3c0-0.8-0.2-1.6-0.5-2.3l-0.5-1c-0.8-1.5-1.1-3.1-1-4.7
				c0.1-1.5,0.6-3,1.4-4.3c0,0,0,0,0,0c0.1,0,0.1,0,0.2-0.1c0.3-0.2,0.6-0.3,0.9-0.5c0.6-0.5,1-1.3,1.1-2.1c0-0.1,0-0.2,0-0.3
				c0-0.1,0-0.1,0-0.2c0-0.2,0-0.4-0.1-0.5c-0.1,0.1-0.3,0.2-0.4,0.2c-0.2,0.1-0.4,0.3-0.6,0.4c-0.2,0.1-0.4,0.3-0.5,0.5
				c-0.2,0.2-0.3,0.3-0.5,0.5c-0.2,0.2-0.3,0.3-0.5,0.5c0,0,0,0,0,0c0,0.1-0.1,0.1-0.1,0.2l0,0c0,0,0,0-0.1,0.1c0,0-0.1,0.1-0.1,0.1
				c0,0.1-0.1,0.1-0.1,0.2c0,0,0,0,0,0.1c-1,1.5-1.6,3.2-1.8,5.1c-0.1,1.9,0.3,3.7,1.1,5.3l0.5,1c0.3,0.6,0.4,1.2,0.4,1.8
				c0,2.3-1.9,4.2-4.2,4.2c0,0-0.1,0-0.1,0c-1.1,0-2.1-0.6-2.8-1.5c-0.1-0.2-0.3-0.3-0.4-0.5c-0.8-1.1-1.3-2.5-1.3-4l0.1,0.1v0
				c0.5,0.6,1.2,0.9,1.6,1.1c0.1,0,0.2-0.1,0.1-0.2c-0.3-0.7-0.3-2-0.2-2.6c0.1-0.6,0.2-0.9,0.5-1.5c0,0,0,0.4,0.3,0.9
				c0.1,0.1,0.2,0.1,0.2,0c0.1-0.8,0.4-1.6,0.8-2.3c0.2-0.3,0.2-0.4,0.2-0.4c0.1-0.2,0.3-0.5,0.4-0.7c0.2-0.2,0.3-0.5,0.4-0.7l0,0
				c0,0,0,0,0-0.1c0,0,0-0.1,0-0.1c0,0,0-0.1,0-0.1c0,0,0-0.1,0-0.1c0,0,0-0.1,0-0.1c0,0,0-0.1,0-0.1c0,0,0-0.1,0-0.1
				c0,0,0-0.1,0-0.1c0,0,0-0.1,0-0.1c0,0,0-0.1,0-0.1c0,0,0-0.1,0-0.1c0,0,0-0.1,0-0.1c0,0,0-0.1,0-0.1c0,0,0-0.1,0-0.1
				c0,0,0-0.1,0-0.1c0,0,0-0.1,0-0.1c0,0,0-0.1,0-0.1c0,0,0-0.1,0-0.1c0,0,0-0.1,0-0.1c0,0,0-0.1,0-0.1c0,0,0-0.1,0-0.1
				c0,0,0-0.1,0-0.1c0,0,0-0.1,0-0.1c0,0,0-0.1,0-0.1c0,0,0-0.1,0-0.1c0,0,0-0.1,0-0.1c0,0,0-0.1,0-0.1c0,0,0-0.1,0-0.1
				c0,0,0-0.1,0-0.1c0,0,0-0.1,0-0.1c0,0,0,0,0-0.1c0-0.1,0-0.1,0-0.2c0-2.2-1-4.1-2.6-5.4c0.1,0,0.3,0.1,0.4,0.1
				c0.1,0,0.2-0.1,0.1-0.2c-1.4-1.1-3.1-1.7-5-1.5c-0.1,0-0.2,0-0.4,0.1c-0.1,0-0.2,0.1-0.3,0.2l-0.2,0.7c-0.1,0-0.2,0-0.2,0
				c-0.5,0.1-1.1,0.4-1.3,0.9l-1.9,0.8c-0.2,0.1-0.3,0.2-0.3,0.4c0,0.1,0,0.2,0.1,0.3c0,0.3,0.2,1.5,0.7,1.5c0,0,0.4-0.1,0.6-0.2v0
				c0,0,0,0,0,0c0,0,0.1,0,0.1,0l0,0c0.5-0.1,1.2-0.3,1.4,0.1c0,0,0.4,0.9-0.1,1.1c0,0-0.2,0-0.8,0.1l-0.5,0c-0.1,0-0.2,0-0.3,0
				c0,0-0.3,0.9,0.3,1.2c0.4-0.1,0.9-0.2,1.4-0.2c0.1,0,0.5,0,0.6,0c0.1,0,0.2,0,0.3,0c0.6-0.1,1.3-0.2,2.1-0.6c0,0-0.3,0.6-1.5,1
				c0,0-0.5,0.2-0.8,0.3c-0.1,0-0.3,0.1-0.4,0.1c-0.9,0.4-1.7,1-2.4,1.7c-0.3-0.2-5.9-2.8-5.9-2.8l0.1-0.1v-1.1c0-0.7-0.4-1.3-1-1.5
				c-0.2-0.1-0.4-0.2-0.6-0.2v0v3.9l4.9,3.5l1.9-0.5c0,0,0.3-0.1,0.4,0.1c0.1,0.2-0.1,0.4-0.1,0.4l-5.4,2.7v-0.6
				c0-0.9-0.7-1.7-1.7-1.7v0.4v4.7l6.1-2c0.1,1.2,0.9,2.6,1.7,3.4c0.6,0.6,1.4,1.6,1.6,2.4c-1.7,0.7-4.2,1.8-4.5,1.9
				c-0.2,0.7-0.3,1.4-0.3,2.1c0,0.7,0.1,1.5,0.3,2.1c-1.2-0.2-2.2-0.7-3.1-1.4c0,0,0-1.6,0-1.6c0-0.9-0.7-1.7-1.7-1.7v5.1
				c0,0,0,0,0,0c1.5,1,3.2,1.7,5.1,1.8c0.9,0,1.6,0.7,1.6,1.6c0.3,0,0.5-0.2,0.5-0.5c0-0.5-0.1-0.9-0.2-1.3
				c-0.1-0.4-0.2-0.8-0.2-1.3c0-0.7,0.2-1.5,0.5-2.1c0.3-0.1,0.5-0.2,0.8-0.2c0.4-0.1,0.8-0.1,1.2-0.1c0.6,0,1.2,0.1,1.8,0.2
				c0.4,0.1,0.7,0.2,1.1,0.2c0.2,0,0.4,0,0.6,0c0.7,0,1.4-0.1,2-0.3c0,0,0.2-0.1,0.3,0.1c0.1,0.2-0.2,0.4-0.2,0.4
				c-0.4,0.4-1.1,0.7-1.9,0.8c-0.3,0-0.6,0-0.9,0c0.7,1.5,1.2,2.9,1.2,3c0.7,0.2,1.4,0.3,2.1,0.3c0.7,0,1.5-0.1,2.1-0.3
				c-0.1,0.8-0.4,1.5-0.7,2.1c-2,0.6-4.1,0.9-6.2,0.9c-4.7,0-9.3-1.4-13-4c-0.3-0.9-0.3-1.7-0.3-1.8l0-21.4c0.1-3.8,2.7-6.9,6.3-7.7
				l0.3-0.1c4.4-0.6,8.1-3.6,9.6-7.6c1.7-1.4,2.8-3.4,3.2-5.7h15.1V215.2z"/>
		</g>
		<g id="XMLID_1457_">
			<g id="XMLID_1612_" class="st2">

					<image style="overflow:visible;" width="290" height="291" xlink:href="825B92058E2D9EC5.png"  transform="matrix(1 0 0 1 879 71.5819)">
				</image>
			</g>
			<path id="XMLID_1611_" class="st3" d="M985.8,302.4l-63.1-63.1c-17.9-17.9-17.9-46.8,0-64.7l63.1-63.1
				c17.9-17.9,46.8-17.9,64.7,0l63.1,63.1c17.9,17.9,17.9,46.8,0,64.7l-63.1,63.1C1032.6,320.3,1003.7,320.3,985.8,302.4"/>
			<linearGradient id="XMLID_2_" gradientUnits="userSpaceOnUse" x1="934.9565" y1="254.9756" x2="1101.3644" y2="158.9">
				<stop  offset="0.5294" style="stop-color:#FFFFFF"/>
				<stop  offset="1" style="stop-color:#7B868C"/>
			</linearGradient>
			<path id="XMLID_1610_" class="st4" d="M987.2,298.3l-60.4-60.4c-17.1-17.1-17.1-44.8,0-61.9l60.4-60.4
				c17.1-17.1,44.8-17.1,61.9,0l60.4,60.4c17.1,17.1,17.1,44.8,0,61.9l-60.4,60.4C1032,315.4,1004.3,315.4,987.2,298.3"/>
			<g id="XMLID_1458_">
				<path id="XMLID_1607_" class="st1" d="M999.9,235.6c0,0.3-0.1,0.5-0.4,0.6c-0.9,0.3-1.7,0.4-2.4,0.4c-2.1,0-3.4-0.7-4.2-2.2
					c-1.7,1.5-3.7,2.2-5.9,2.2c-2.8,0-5-0.9-6.8-2.6c-1.8-1.7-2.7-3.9-2.7-6.6c0-2.7,0.9-4.9,2.7-6.6c1.8-1.7,4.1-2.6,6.8-2.6
					c1.9,0,3.6,0.5,5.1,1.6v-0.5c0-0.4,0.2-0.5,0.5-0.5h3.3c0.4,0,0.5,0.2,0.5,0.5v12c0,0.4,0.1,0.7,0.3,1c0.2,0.2,0.5,0.4,0.9,0.4
					c0.4,0,0.8,0,1.3-0.1c0.4-0.1,0.6,0.1,0.6,0.4L999.9,235.6z M987,233.1c1.5,0,2.7-0.5,3.6-1.6c0.9-1,1.4-2.4,1.4-4
					c0-1.6-0.5-3-1.4-4c-0.9-1-2.1-1.6-3.6-1.6c-1.5,0-2.7,0.5-3.7,1.6c-1,1-1.4,2.4-1.4,4c0,1.6,0.5,3,1.4,4
					C984.2,232.6,985.5,233.1,987,233.1"/>
				<path id="XMLID_1606_" class="st1" d="M1007.4,236.7c-1.5,0-2.7-0.4-3.6-1.1c-0.9-0.7-1.4-1.7-1.4-2.9v-21.4
					c0-0.4,0.2-0.5,0.5-0.5h3.3c0.4,0,0.5,0.2,0.5,0.5v20.2c0,0.4,0.1,0.7,0.3,1c0.2,0.2,0.5,0.4,0.9,0.4c0.4,0,0.8,0,1.3-0.1
					c0.4-0.1,0.6,0.1,0.6,0.4l0.3,2.5c0,0.3-0.1,0.5-0.4,0.6C1009,236.6,1008.2,236.7,1007.4,236.7"/>
				<path id="XMLID_1603_" class="st1" d="M1015,215.2c-0.8,0-1.4-0.2-1.9-0.7c-0.5-0.5-0.8-1.1-0.8-1.8c0-0.7,0.3-1.3,0.8-1.8
					c0.5-0.5,1.2-0.7,1.9-0.7c0.7,0,1.4,0.2,1.9,0.7c0.5,0.5,0.8,1.1,0.8,1.8c0,0.7-0.3,1.3-0.8,1.8
					C1016.4,215,1015.8,215.2,1015,215.2 M1017.9,236.7c-1.5,0-2.7-0.4-3.6-1.1c-0.9-0.7-1.4-1.7-1.4-2.9v-13.2
					c0-0.4,0.2-0.5,0.5-0.5h3.3c0.4,0,0.5,0.2,0.5,0.5v12c0,0.4,0.1,0.7,0.3,1c0.2,0.2,0.5,0.4,0.9,0.4c0.4,0,0.8,0,1.3-0.1
					c0.4-0.1,0.6,0.1,0.6,0.4l0.3,2.5c0,0.3-0.1,0.5-0.4,0.6C1019.4,236.6,1018.6,236.7,1017.9,236.7"/>
				<path id="XMLID_1533_" class="st1" d="M1030.6,236.7c-2.4,0-4.4-0.5-5.9-1.5c-1.5-1-2.4-2.4-2.6-4.2c0-0.4,0.1-0.6,0.5-0.6l3,0
					c0.3,0,0.5,0.2,0.6,0.5c0.5,1.6,2,2.4,4.4,2.4c1,0,1.9-0.2,2.5-0.5c0.6-0.4,1-0.8,1-1.4c0-0.7-0.4-1.2-1.2-1.5
					c-0.8-0.3-1.7-0.6-2.9-0.7c-1.1-0.1-2.2-0.3-3.3-0.6c-1.1-0.2-2.1-0.7-2.8-1.5c-0.8-0.8-1.2-1.8-1.2-3.2c0-1.6,0.7-2.9,2.1-3.9
					c1.4-1,3.2-1.5,5.5-1.5c2.1,0,3.9,0.5,5.3,1.4c1.4,0.9,2.3,2.2,2.5,3.7c0,0.4-0.1,0.6-0.5,0.6h-3c-0.3,0-0.5-0.1-0.6-0.3
					c-0.2-0.6-0.7-1.2-1.3-1.6c-0.7-0.4-1.5-0.6-2.3-0.6c-1,0-1.8,0.2-2.3,0.5c-0.6,0.3-0.9,0.8-0.9,1.3c0,0.6,0.3,1.1,0.8,1.5
					c0.6,0.4,1.3,0.6,2.1,0.7c0.8,0.1,1.7,0.2,2.7,0.4c1,0.2,1.9,0.4,2.7,0.7c0.8,0.3,1.5,0.8,2.1,1.5c0.6,0.7,0.8,1.7,0.8,2.8
					c0,1.7-0.7,3-2.1,4C1034.7,236.2,1032.9,236.7,1030.6,236.7"/>
				<path id="XMLID_1532_" class="st1" d="M1049.9,236.7c-2.9,0-5.2-0.8-6.9-2.5c-1.7-1.7-2.6-3.9-2.6-6.6c0-2.7,0.9-5,2.6-6.6
					c1.7-1.7,4-2.5,6.9-2.5c2.3,0,4.2,0.6,5.8,1.7c1.6,1.1,2.5,2.6,2.9,4.5c0.1,0.4-0.1,0.6-0.5,0.6h-3.4c-0.3,0-0.5-0.2-0.6-0.5
					c-0.3-0.8-0.8-1.4-1.5-1.8c-0.8-0.5-1.7-0.7-2.7-0.7c-1.6,0-2.8,0.5-3.7,1.5c-0.9,1-1.4,2.3-1.4,3.9c0,1.6,0.5,2.9,1.4,3.9
					c0.9,1,2.2,1.5,3.7,1.5c1,0,1.9-0.2,2.7-0.7c0.8-0.5,1.3-1.1,1.5-1.8c0.1-0.3,0.3-0.5,0.6-0.5h3.4c0.4,0,0.5,0.2,0.5,0.6
					c-0.4,1.9-1.4,3.4-2.9,4.5C1054.1,236.2,1052.2,236.7,1049.9,236.7"/>
				<path id="XMLID_1529_" class="st1" d="M1077.3,234.2c-1.8,1.7-4.1,2.5-6.9,2.5c-2.9,0-5.2-0.8-6.9-2.5c-1.8-1.7-2.6-3.9-2.6-6.6
					c0-2.7,0.9-5,2.6-6.6c1.8-1.7,4.1-2.5,6.9-2.5c2.9,0,5.2,0.8,6.9,2.5c1.8,1.7,2.6,3.9,2.6,6.6
					C1079.9,230.3,1079.1,232.5,1077.3,234.2 M1066.6,231.5c1,1,2.2,1.5,3.8,1.5c1.6,0,2.8-0.5,3.8-1.5c1-1,1.4-2.3,1.4-3.9
					c0-1.6-0.5-2.9-1.4-3.9c-1-1-2.2-1.5-3.8-1.5c-1.6,0-2.8,0.5-3.8,1.5c-1,1-1.4,2.3-1.4,3.9
					C1065.2,229.2,1065.7,230.5,1066.6,231.5"/>
				<path id="XMLID_1528_" class="st1" d="M974,211.1c0.3,0,0.5,0.2,0.5,0.5v15.5c0,3-0.9,5.4-2.7,7.1c-1.8,1.7-4.2,2.5-7.3,2.5
					c-2.7,0-4.9-0.7-6.6-2.1c-1.7-1.4-2.7-3.3-3-5.6c0-0.4,0.1-0.6,0.5-0.6h3.5c0.3,0,0.5,0.2,0.5,0.5c0.2,1.1,0.8,2.1,1.7,2.8
					c0.9,0.7,2.1,1,3.6,1c1.5,0,2.8-0.5,3.7-1.6c0.9-1.1,1.4-2.4,1.4-4.2v-10.8c0-1.4-1.5-1.7-2.5-1.8h-0.3c-0.2,0-0.4-0.2-0.4-0.4
					v-2.4c0-0.2,0.2-0.4,0.4-0.4H974z"/>
				<path id="XMLID_1527_" class="st1" d="M966.6,245.8c1.1,0,2.2,0.5,2.6,1.8h-0.9c-0.3-0.7-0.9-0.9-1.6-0.9
					c-1.2,0-1.9,0.9-1.9,2.1c0,1.2,0.7,2.1,1.9,2.1c1,0,1.7-0.4,1.8-1.5h-1.8v-0.8h2.7c0.1,1.7-0.8,3.1-2.7,3.1
					c-1.6,0-2.9-1.1-2.9-2.9C963.7,246.9,965.1,245.8,966.6,245.8"/>
				<path id="XMLID_1524_" class="st1" d="M973.6,251.6c-1.6,0-2.9-1.1-2.9-2.9c0-1.9,1.4-2.9,2.9-2.9c1.6,0,2.9,1.1,2.9,2.9
					C976.5,250.4,975.3,251.6,973.6,251.6 M973.7,250.7c1.1,0,2-0.7,2-2c0-1.3-0.9-2-1.9-2c-1.1,0-2,0.7-2,2
					C971.7,250,972.6,250.7,973.7,250.7"/>
				<path id="XMLID_1520_" class="st1" d="M981.8,248.6c0.6,0.2,0.9,0.7,0.9,1.3c0,1-0.7,1.6-1.8,1.6h-2.5v-5.7h2.3
					c1,0,1.8,0.5,1.8,1.6C982.4,248,982.2,248.4,981.8,248.6 M979.3,246.7v1.6h1.3c0.5,0,0.9-0.2,0.9-0.8c0-0.6-0.4-0.8-0.9-0.8
					H979.3z M979.3,249.1v1.7h1.5c0.5,0,0.9-0.3,0.9-0.8c0-0.3-0.1-0.5-0.3-0.7c-0.2-0.2-0.5-0.2-0.7-0.2H979.3z"/>
				<polygon id="XMLID_1519_" class="st1" points="986.8,250.8 986.8,251.6 984.1,251.6 984.1,250.8 985,250.8 985,246.6
					984.2,246.6 984.2,245.9 986.8,245.9 986.8,246.6 985.9,246.6 985.9,250.8 				"/>
				<polygon id="XMLID_1518_" class="st1" points="992.1,246.7 989.5,246.7 989.5,248.2 991.9,248.2 991.9,249 989.5,249
					989.5,250.7 992.1,250.7 992.1,251.6 988.6,251.6 988.6,245.9 992.1,245.9 				"/>
				<path id="XMLID_1515_" class="st1" d="M998.6,251.4v0.1h-1l-1.4-2h-1.3v2h-1v-5.7h2.3c1.2,0,2,0.8,2,1.9c0,0.8-0.5,1.4-1.2,1.7
					L998.6,251.4z M996.3,248.8c0.6,0,1.1-0.4,1.1-1.1c0-0.6-0.4-1-1.1-1h-1.4v2.1H996.3z"/>
				<polygon id="XMLID_1514_" class="st1" points="1001.1,247.7 1001.2,249.5 1001.2,251.6 1000.2,251.6 1000.2,245.8 1000.6,245.8
					1004,249.7 1004,247.9 1004,245.9 1004.9,245.9 1004.9,251.6 1004.6,251.6 				"/>
				<path id="XMLID_1511_" class="st1" d="M1009.6,251.6c-1.6,0-2.9-1.1-2.9-2.9c0-1.9,1.4-2.9,2.9-2.9c1.6,0,2.9,1.1,2.9,2.9
					C1012.5,250.4,1011.3,251.6,1009.6,251.6 M1009.6,250.7c1.1,0,2-0.7,2-2c0-1.3-0.9-2-1.9-2c-1.1,0-2,0.7-2,2
					C1007.7,250,1008.5,250.7,1009.6,250.7"/>
				<path id="XMLID_1508_" class="st1" d="M1019.1,245.9c1.8,0,2.8,1.3,2.8,2.8c0,1.5-1,2.9-2.8,2.9h-2.1v-5.7H1019.1z
					 M1019.1,250.7c1.2,0,1.9-0.9,1.9-2s-0.7-2-1.8-2h-1.1v4H1019.1z"/>
				<polygon id="XMLID_1507_" class="st1" points="1027.1,246.7 1024.6,246.7 1024.6,248.2 1027,248.2 1027,249 1024.6,249
					1024.6,250.7 1027.2,250.7 1027.2,251.6 1023.7,251.6 1023.7,245.9 1027.1,245.9 				"/>
				<polygon id="XMLID_1506_" class="st1" points="1030,250.7 1032.5,250.7 1032.5,251.6 1029.1,251.6 1029.1,245.9 1030,245.9
					"/>
				<polygon id="XMLID_1505_" class="st1" points="1040,246.7 1037.5,246.7 1037.5,248.2 1039.9,248.2 1039.9,249 1037.5,249
					1037.5,250.7 1040,250.7 1040,251.6 1036.5,251.6 1036.5,245.9 1040,245.9 				"/>
				<path id="XMLID_1504_" class="st1" d="M1042.5,249.9c0,0.6,0.7,0.8,1.4,0.8c0.6,0,1.3-0.1,1.3-0.9c0-0.7-0.8-0.8-1.4-0.9
					c-1-0.1-2.1-0.4-2.1-1.6c0-1.2,1-1.7,2.1-1.7c1.1,0,2.1,0.5,2.1,1.6h-0.9c0-0.6-0.7-0.8-1.3-0.8c-0.5,0-1.2,0.2-1.2,0.8
					c0,0.6,0.6,0.7,1.3,0.8c1.2,0.1,2.2,0.4,2.2,1.7c0,1.3-1.2,1.7-2.2,1.7c-1.1,0-2.3-0.5-2.3-1.7H1042.5z"/>
				<polygon id="XMLID_1503_" class="st1" points="1047.3,246.7 1047.3,245.9 1051.5,245.9 1051.5,246.7 1049.8,246.7 1049.8,251.6
					1048.9,251.6 1048.9,246.7 				"/>
				<path id="XMLID_1500_" class="st1" d="M1053.5,250.4l-0.6,1.2h-1v-0.1l2.6-5.6h0.4l2.6,5.6v0.1h-1l-0.6-1.2H1053.5z
					 M1053.8,249.6h2l-1-2.3L1053.8,249.6z"/>
				<path id="XMLID_1497_" class="st1" d="M1061.1,245.9c1.8,0,2.8,1.3,2.8,2.8c0,1.5-1,2.9-2.8,2.9h-2.1v-5.7H1061.1z
					 M1061.1,250.7c1.2,0,1.9-0.9,1.9-2s-0.7-2-1.8-2h-1.1v4H1061.1z"/>
				<path id="XMLID_1494_" class="st1" d="M1068.3,251.6c-1.6,0-2.9-1.1-2.9-2.9c0-1.9,1.4-2.9,2.9-2.9c1.6,0,2.9,1.1,2.9,2.9
					C1071.2,250.4,1070,251.6,1068.3,251.6 M1068.3,250.7c1.1,0,2-0.7,2-2c0-1.3-0.9-2-1.9-2c-1.1,0-2,0.7-2,2
					C1066.3,250,1067.2,250.7,1068.3,250.7"/>
				<path id="XMLID_1493_" class="st1" d="M1016.9,142.2v3.1c0,0,0.6-0.1,1.3,0h0v-3.1C1017.5,142,1016.9,142.2,1016.9,142.2"/>
				<path id="XMLID_1490_" class="st1" d="M1003.7,143.1c0,0.2,0.1,0.4,0.3,0.5c1.4,0.6,2.8,0.9,4.1,0.9c1.9,0,3.7-0.6,5.4-1.7
					c2.3-1.5,5.3-1.6,7.7-0.3c-0.4,0.3-1,0.8-2,0.8h-0.5v1.1h0.5c2.3,0,3.2-1.6,3.3-1.7v0c0,0,0,0,0,0h0c0-0.1,0.1-0.2,0.1-0.3v-6.6
					c0-0.2-0.1-0.4-0.2-0.5c-2.8-1.9-6.7-1.9-9.5,0c-2.6,1.8-5.6,2-8.5,0.7c-0.3-0.1-0.6,0-0.7,0.2c-0.2,0.2-0.1,0.5,0.1,0.7
					l3.6,3.1l-3.6,2.6C1003.8,142.7,1003.7,142.9,1003.7,143.1 M1008.8,140.4c0.1-0.1,0.2-0.3,0.2-0.4c0-0.2-0.1-0.3-0.2-0.4
					l-2.1-1.8c2.4,0.4,4.8-0.1,6.9-1.6c2.3-1.6,5.6-1.7,8-0.2v5.4c-2.7-1.4-6.1-1.2-8.6,0.5c-2.3,1.6-5,2-7.6,1.1L1008.8,140.4z"/>
				<polygon id="XMLID_1489_" class="st1" points="1016.9,139.5 1018.1,139.5 1018.1,138.3 1019.3,138.3 1019.3,137 1018.1,137
					1018.1,135.8 1016.9,135.8 1016.9,137 1015.7,137 1015.7,138.3 1016.9,138.3 				"/>
				<path id="XMLID_1472_" class="st1" d="M1044.6,185.4c0.4-0.5,0.8-1,1.2-1.4c1.7-1.9,3.4-3.9,4.5-6.3c1-2.1,1.3-4.2,1.1-6.2
					c-0.5-3.5-2.8-6.4-5.8-7.7c0.5-0.9,0.8-1.9,0.6-2.9l0,0c0-0.2-0.2-0.4-0.4-0.5c-0.2-0.1-0.5,0-0.6,0.1c-0.3,0.3-0.7,0.5-1.1,0.6
					c-0.4,0.1-0.9,0.1-1.3-0.1l-0.1,0c-1.3-0.5-2.7-0.8-4.1-0.8c-0.6,0-1.1,0-1.7,0.1c0,0,0-0.1,0-0.1c0-0.4-0.1-0.8-0.2-1.2
					c-0.1-0.2-0.2-0.3-0.4-0.4c-0.2-0.1-0.4-0.1-0.5,0c-0.2,0.1-0.5,0.2-0.8,0.2c-0.1,0-0.1,0-0.2,0c-0.3,0-0.6,0-0.9,0
					c-0.4,0-0.9,0-1.3,0.1c-0.4,0.1-0.8,0.1-1.2,0.3c-0.4,0.1-0.8,0.3-1.2,0.4c-0.4,0.2-0.7,0.4-1.1,0.6c-0.4,0.2-0.7,0.5-1,0.7
					c-0.3,0.3-0.6,0.5-0.9,0.8c-0.2,0.2-0.4,0.4-0.5,0.6c-0.2,0.2-0.3,0.4-0.4,0.6c-0.3,0.4-0.5,0.9-0.8,1.3c0,0-0.1,0.1-0.1,0.1
					l-0.1,0.1c0,0,0,0.1,0,0.1c0,0,0,0,0,0c0,0,0,0,0,0c-0.1,0.1-0.2,0.2-0.3,0.3c-0.1,0.1-0.2,0.2-0.3,0.4
					c-0.2,0.2-0.3,0.4-0.5,0.5c-0.1,0.1-0.1,0.1-0.2,0.2c-0.1,0.1-0.2,0.2-0.4,0.3c0,0-0.1,0.1-0.1,0.1l-1.9-1.3l-0.3-1.8
					c0.1-0.2,0.2-0.4,0.3-0.6l0.1-0.1c0.1-0.1,0.1-0.2,0.2-0.3l0-0.1c0-0.1,0.1-0.2,0.1-0.3c0,0,0-0.1,0-0.1c0,0,0-0.1,0-0.1
					l0.5-0.1l0.4-3v0l-0.6-0.1c0-0.1,0-0.2,0-0.3c0-0.1,0-0.3-0.1-0.4c-0.1-0.4-0.2-0.7-0.4-1c0,0,0,0,0-0.1
					c-0.5-0.9-1.2-1.6-2.2-1.9c0,0-0.1,0-0.1,0c0,0,0-0.1,0-0.1c0-0.1,0.1-0.1,0.1-0.2c0.3-0.8,1-1.5,1.7-1.8
					c0.1,0.3,0.2,0.6,0.2,0.6c0.1,0.3,0.3,0.4,0.6,0.4c0.1,0,0.3-0.1,0.4-0.2c0.2-0.1,0.4-0.4,0.5-0.6c0.7-1.1,0.8-2.6,0.3-3.8
					c-0.4-1-1.3-1.6-2.3-1.7c-0.3,0-0.6,0-1,0.2c-0.4-1-1.5-1.7-2.7-1.7c-1.1,0-2.2,0.7-2.7,1.7c-0.4-0.2-0.7-0.2-1-0.2
					c-1,0.1-1.9,0.7-2.3,1.7c-0.5,1.2-0.4,2.7,0.3,3.8c0.1,0.2,0.3,0.4,0.5,0.6c0.1,0.1,0.3,0.2,0.4,0.2c0.2,0,0.5-0.1,0.6-0.4
					c0,0,0.1-0.2,0.2-0.6c0.8,0.4,1.4,1.1,1.8,1.8c0,0.1,0.1,0.1,0.1,0.2c0,0,0,0.1,0,0.1c0,0-0.1,0-0.1,0c-1,0.3-1.7,1-2.2,1.9
					c0,0,0,0,0,0.1c-0.2,0.3-0.3,0.7-0.4,1c0,0.1,0,0.2-0.1,0.4c0,0.1,0,0.2,0,0.3l-0.6,0.1l0,0h0l0.4,3l0.5,0.1c0,0,0,0.1,0,0.1
					c0,0,0,0.1,0,0.1c0,0.1,0.1,0.2,0.1,0.3l0,0.1c0.1,0.1,0.1,0.2,0.2,0.3l0.1,0.1c0.1,0.2,0.2,0.4,0.4,0.6l-0.3,1.8l-1.9,1.3
					c-0.4-0.3-0.7-0.6-1-0.9c-0.1-0.1-0.1-0.1-0.2-0.2c-0.2-0.2-0.4-0.5-0.6-0.7c0,0,0,0,0,0c0,0,0-0.1,0-0.1c0,0,0,0-0.1-0.1
					c0,0-0.1-0.1-0.1-0.1c-0.3-0.4-0.6-0.9-0.8-1.3c-0.1-0.2-0.3-0.4-0.4-0.6c-0.2-0.2-0.3-0.4-0.5-0.6c-0.3-0.3-0.6-0.6-0.9-0.8
					c-0.3-0.3-0.7-0.5-1-0.7c-0.4-0.2-0.7-0.4-1.1-0.6c-0.4-0.2-0.8-0.3-1.2-0.4c-0.4-0.1-0.8-0.2-1.2-0.3c-0.4-0.1-0.9-0.1-1.3-0.1
					c-0.3,0-0.6,0-0.9,0c-0.1,0-0.1,0-0.2,0c-0.3,0-0.6-0.1-0.8-0.2c-0.2-0.1-0.3-0.1-0.5,0c-0.2,0.1-0.3,0.2-0.4,0.4
					c-0.1,0.4-0.2,0.8-0.2,1.2c0,0,0,0.1,0,0.1c-0.6-0.1-1.3-0.2-1.9-0.2c-1.4,0-2.8,0.3-4.1,0.8l-0.1,0c-0.4,0.2-0.9,0.2-1.3,0.1
					c-0.4-0.1-0.8-0.3-1.1-0.6c-0.2-0.2-0.4-0.2-0.6-0.1c-0.2,0.1-0.4,0.3-0.4,0.5l0,0c-0.1,1,0.1,2,0.6,2.9c-3,1.3-5.3,4.2-5.8,7.7
					c-0.3,2,0.1,4.1,1.1,6.2c1.1,2.4,2.9,4.4,4.5,6.3c0.4,0.5,0.8,0.9,1.2,1.4c0.1,0.2,0.3,0.3,0.4,0.5c1,1.2,2.2,2.6,2.2,3.9
					c0,1.4-0.8,2.2-2.2,2.2c-0.3,0-0.6-0.1-0.9-0.2c-0.1,0-0.2-0.1-0.3-0.1v0c0,0-1.2-0.1-1.5,0.9c-0.1,0-0.2,0-0.3,0
					c-0.6,0.2-0.9,0.7-0.9,1.3l0,0.1c0.4,3.5,3.4,6.2,6.9,6.2h0.1c1.6,0,3.1-0.6,4.3-1.5c0,0,0,0,0,0c0.2,0.2,0.6,0.4,0.9,0.4
					c0.2,0,0.5-0.1,0.7-0.2c1-0.7,1.7-1.6,2.3-2.6l0,0c0-0.1,0.1-0.2,0.1-0.3c0,0.1,0.1,0.1,0.1,0.2c0.1,0.1,0.2,0.3,0.3,0.4
					c3.1,4.8,8.8,7.8,15,7.8c6.2,0,11.9-3,15-7.8c0.1-0.1,0.2-0.3,0.3-0.4c0-0.1,0.1-0.1,0.1-0.2c0,0.1,0.1,0.2,0.1,0.3l0,0
					c0.6,1,1.3,1.9,2.3,2.6c0.2,0.2,0.5,0.2,0.7,0.2c0.3,0,0.6-0.1,0.9-0.4c0,0,0,0,0,0c1.2,0.9,2.7,1.5,4.3,1.5h0.1
					c3.5,0,6.5-2.7,6.9-6.2l0-0.1c0.1-0.6-0.3-1.1-0.9-1.3c-0.1,0-0.2,0-0.3,0c-0.3-1.1-1.5-0.9-1.5-0.9l0,0c-0.1,0-0.2,0-0.3,0.1
					c-0.3,0.1-0.6,0.2-0.9,0.2c-1.4,0-2.2-0.8-2.2-2.2c0-1.3,1.2-2.7,2.2-3.9C1044.3,185.8,1044.5,185.6,1044.6,185.4 M1038.5,161.6
					c1.3,0,2.5,0.2,3.7,0.7l0.1,0c0.7,0.2,1.4,0.3,2,0.1c0.2-0.1,0.4-0.1,0.7-0.2c-0.1,0.4-0.3,0.9-0.5,1.2c0,0-1.5-0.3-2.4-0.3
					c-3.1,0-5.9,1.7-7.4,4.2c-0.1-0.5-0.7-0.9-1.3-0.9h-3.6C1031.7,163.4,1035,161.6,1038.5,161.6 M1039.8,176.5
					c0,0.1,0.1,0.2,0.1,0.3c0,0,0.8,2.3,3.5,2.3c0,0,0.1,0,0.1,0c0,0,0,0,0,0h0c-2.6,2.7-6.3,4.1-8.8,6.9v-9.7
					c0.1-0.1,0.2-0.2,0.3-0.3c0.7-0.7,1.4-1.6,2.1-2.3c1.1-1.1,2.4-2,3.9-2.2c0.6-0.1,1.3-0.1,1.9,0.2c0.3,0.2,0.6,0.5,0.7,0.8
					c0,0,0.5,1.1-0.3,1.9c0,0-0.1,0.1-0.2,0.1c-0.2,0.2-0.5,0.3-0.8,0.3c-0.2,0-0.4,0-0.6-0.1c-0.2-0.1-0.5-0.1-0.7-0.1
					c-0.4,0-0.7,0.2-0.9,0.5C1040,175.2,1039.6,175.8,1039.8,176.5 M1021.8,159.7l-0.1,1.1l0,0h0v0l-0.6,0.1l-0.6,0.1v-1.6
					c0.2,0.1,0.5,0.1,0.7,0.2C1021.4,159.6,1021.6,159.6,1021.8,159.7 M1017.5,162.8L1017.5,162.8L1017.5,162.8l3.1-0.7l0,0
					c-0.1,0.2-0.3,0.5-0.4,0.7c-0.1,0.2-0.2,0.3-0.3,0.5c-0.6,0.7-1.4,1.3-2.3,1.3c-1,0-1.7-0.6-2.3-1.3c-0.1-0.1-0.2-0.3-0.3-0.5
					c-0.2-0.2-0.3-0.5-0.4-0.7c0,0,0,0,0,0L1017.5,162.8z M1015.7,161.2v-2.1c0.5-0.1,0.9-0.2,1.2-0.3v2.7L1015.7,161.2z
					 M1018.1,161.5v-2.7c0.3,0.1,0.8,0.2,1.2,0.3v2.1L1018.1,161.5z M1014.1,151.7c0.2-0.4,0.5-0.7,0.9-0.9c0,0-1.1,0-2.3,1.1
					c-0.3-0.7-0.3-1.6,0-2.3c0.3-0.6,0.7-0.9,1.3-1c0.4,0,0.8,0.1,1.2,0.3c0.9,0.5,1.6,1.4,1.9,2.4c0,0,0.2-1.3-0.8-2.7
					c-0.1-0.1-0.2-0.3-0.3-0.4c0.2-0.7,0.9-1.2,1.6-1.2c0.7,0,1.4,0.5,1.6,1.2c-0.1,0.1-0.2,0.2-0.3,0.4c-1,1.4-0.8,2.7-0.8,2.7
					c0.2-1,0.9-1.9,1.9-2.4c0.4-0.2,0.9-0.3,1.2-0.3c0.6,0,1,0.4,1.3,1c0.3,0.7,0.3,1.6,0,2.3c-1.2-1.1-2.3-1.1-2.3-1.1
					c0.4,0.2,0.7,0.5,0.9,0.9c-1,0.5-1.8,1.4-2.3,2.4c0,0.1-0.1,0.2-0.1,0.2c0,0.1,0,0.1-0.1,0.2c-0.3-0.1-0.6-0.3-1-0.5l0,0h0
					c-0.3,0.2-0.6,0.4-1,0.5c0-0.1,0-0.1-0.1-0.2c0-0.1-0.1-0.2-0.1-0.2C1015.9,153.1,1015.1,152.2,1014.1,151.7 M1015.9,156.1
					c0.3-0.1,0.6-0.2,0.8-0.3c0.3-0.1,0.5-0.3,0.8-0.4c0.3,0.1,0.5,0.3,0.8,0.4c0.3,0.1,0.6,0.2,0.8,0.3c1,0.4,1.6,1.2,1.9,2.2
					c-3.3-0.8-3.5-0.9-3.6-0.9h0h0h0c-0.1,0-0.3,0.1-3.6,0.9C1014.2,157.3,1014.9,156.4,1015.9,156.1 M1013.3,160.7L1013.3,160.7
					L1013.3,160.7L1013.3,160.7l-0.1-1.1c0.2,0,0.4-0.1,0.6-0.1c0.2-0.1,0.5-0.1,0.7-0.2v1.6l-0.6-0.1L1013.3,160.7z M1014.7,165.9
					l0.2-1c0,0,0.1,0,0.1,0.1c0.7,0.6,1.6,1.1,2.5,1.1l0,0l0,0c1,0,1.8-0.4,2.5-1.1c0,0,0,0,0.1-0.1l0.2,1.1l2,1.4
					c-0.1,0.1-0.2,0.1-0.3,0.2c-0.9,0.5-1.8,0.9-2.8,1.1c-0.6,0.1-1.2,0.3-1.8,0.3c-0.5,0-1-0.1-1.5-0.2c-1-0.2-2-0.6-2.9-1.1
					c-0.1-0.1-0.3-0.2-0.4-0.3L1014.7,165.9z M990.4,162.4c0.7,0.2,1.4,0.1,2-0.1l0.1,0c1.2-0.5,2.4-0.7,3.7-0.7
					c3.6,0,6.9,1.8,8.8,4.8h-3.6c-0.6,0-1.2,0.4-1.3,0.9c-1.5-2.5-4.3-4.2-7.4-4.2c-0.8,0-2.4,0.3-2.4,0.3c-0.3-0.4-0.5-0.8-0.5-1.2
					C990,162.3,990.2,162.3,990.4,162.4 M1001.6,193.3c0,0.1,0,0.2,0,0.3c0,0,0,0,0,0.1c0,0.1,0,0.2,0,0.3c0,0,0,0,0,0
					c-0.1,0.5-0.2,0.9-0.4,1.4c0,0,0,0,0,0.1c0,0.1-0.1,0.2-0.1,0.2c0,0.1-0.1,0.1-0.1,0.2c-0.5,0.9-1.2,1.7-2,2.3
					c0.8-1.1,1.2-2.4,1.2-3.8c0-0.6-0.1-1.2-0.3-1.8l0,0c-0.1,1.4-0.5,2.6-1.2,3.8l0,0c-1,1.8-2.9,2.9-5,2.9h-0.1
					c-2.8,0-5.3-2.3-5.7-5.2l0,0l0,0c0,0,0,0,0,0c0.8,1.2,2.1,1.9,3.6,1.9c2.3,0,4.1-1.8,4.3-4c-0.3,0.9-1,1.7-1.9,2.2
					c0,0,0,0-0.1,0c-0.2,0.1-0.5,0.2-0.8,0.3c-1.1,0.4-3.1,0.6-4.2-1.6c0.1,0,0.2,0.1,0.3,0.1c0.2,0.1,0.4,0.2,0.6,0.2
					c0.2,0,0.4,0.1,0.7,0.1c0.2,0,0.4,0,0.6,0c0.1,0,0.2,0,0.3,0c0.1,0,0.1,0,0.2,0c0.3-0.1,0.6-0.2,0.9-0.3
					c0.3-0.1,0.5-0.3,0.7-0.5c0.2-0.2,0.4-0.4,0.5-0.7c0.1-0.3,0.3-0.6,0.3-0.9c0.1-0.3,0.1-0.7,0.1-1c0-2-1.7-3.7-2.9-5.2
					c-2-2.4-4.3-4.6-5.6-7.4c-0.8-1.7-1.2-3.6-1-5.5c0.6-4.1,3.9-7.3,8.2-7.3c2.8,0,5.3,1.5,6.6,3.8c0.1,0.2,0.8,1.7,0.8,2.8v3.4
					c0,0,0,0,0,0c-0.9-1-1.7-2-2.8-2.8c-1.6-1.2-4-2-5.9-0.9c-1.6,0.9-2.1,3-1.1,4.5c0,0,1,1.6,3.2,1c0,0-0.7,2.2-3.3,1.2
					c-0.2-0.1-0.4-0.2-0.5-0.3c-0.3-0.2-0.6-0.5-0.9-0.8c-0.1-0.1-0.3-0.3-0.4-0.5c-0.2-0.2-0.3-0.5-0.4-0.7c-0.1-0.3-0.2-0.6-0.3-1
					c-0.2-1-0.1-2,0.4-3c0.7-1.4,2.1-2.5,3.5-2.9c1.5-0.4,3.5-0.2,4.9,0.6c0.2,0.1,0.4,0.3,0.6,0.4c0.2,0.1,0.3,0.2,0.5,0.4
					c-0.8-1.7-2.9-2.6-4.6-2.6c-2-0.1-4,0.9-5.2,2.4c-1.2,1.5-1.6,3.4-1.3,5.2c0.4,2,2,3.7,3.2,5.2c2.3,2.7,4.6,5.4,6.3,8.5
					c0.7,1.2,0.9,2.5,0.9,3.9c0,2.8-2.2,5-4.9,5.1l0,0c0.3,0.1,0.6,0.1,0.9,0.1c0.7,0,1.4-0.1,2-0.4c1.1-0.5,2.1-1.3,2.6-2.4
					c2.3-4.3-1.3-8.6-3.9-11.8c-0.2-0.2-1-1.1-1.3-1.5l2.9,2.1c0.6,0.4,1.2,0.9,1.8,1.4c0.9,0.7,1.7,1.5,2.4,2.3
					C1000.7,188.8,1001.8,191,1001.6,193.3 M991.2,179.1C991.3,179.1,991.2,179.1,991.2,179.1c0.1,0,0.1,0,0.2,0
					c2.6,0.1,3.5-2.3,3.5-2.3c0-0.1,0.1-0.2,0.1-0.3c0.2-0.7-0.2-1.3-0.2-1.3c-0.2-0.3-0.6-0.5-0.9-0.5c-0.2,0-0.5,0-0.7,0.1
					c-0.2,0.1-0.4,0.1-0.6,0.1c-0.3,0-0.6-0.1-0.8-0.3c-0.1,0-0.1-0.1-0.2-0.1c-0.9-0.8-0.3-1.9-0.3-1.9c0.2-0.3,0.4-0.6,0.7-0.8
					c0.6-0.3,1.2-0.3,1.9-0.2c1.6,0.2,2.8,1.2,3.9,2.2c0.7,0.7,1.4,1.6,2.1,2.3c0.1,0.1,0.2,0.2,0.3,0.3v9.7
					C997.6,183.2,993.9,181.8,991.2,179.1 M1032,193.4C1032,193.4,1032,193.4,1032,193.4c0,0.4,0.1,0.8,0.2,1.2l0,0
					c-0.2,0.5-0.4,0.9-0.7,1.4c-0.1,0.1-0.2,0.3-0.2,0.4c-2.8,4.3-7.9,7.2-13.8,7.2c-5.9,0-11.1-2.9-13.8-7.2
					c-0.1-0.1-0.2-0.3-0.2-0.4c-0.3-0.4-0.5-0.9-0.7-1.4l0,0c0.1-0.4,0.1-0.7,0.2-1.1c0,0,0,0,0-0.1c0.1-1.8-0.3-3.7-1.4-5.5l0,0
					v-20.3h5.7c-0.7-1.2,0,0-0.7-1.2h0c0,0,0,0,0,0.1c-1.5-2.8-4.1-4.8-7.1-5.6c0-0.1,0-0.3,0-0.4c0-0.1,0-0.1,0-0.2
					c0.3,0.1,0.6,0.1,1,0.1c0.3,0,0.6,0,0.8,0c0.1,0,0.1,0,0.2,0c0.4,0,0.9,0.1,1.3,0.1c0.4,0.1,0.8,0.2,1.2,0.3
					c0.4,0.1,0.8,0.3,1.1,0.5c0.4,0.2,0.7,0.4,1,0.7c0.3,0.3,0.6,0.5,0.9,0.8c0.3,0.3,0.6,0.6,0.8,1c0.3,0.4,0.6,0.9,0.8,1.3
					c0.3,0.4,0.6,0.8,0.9,1.2c0.2,0.3,0.5,0.5,0.7,0.8c0.1,0.1,0.3,0.2,0.4,0.3c0,0,0,0,0,0c0.1,0.1,0.3,0.2,0.4,0.3c0,0,0,0,0.1,0
					c0.1,0.1,0.3,0.2,0.4,0.3c0,0,0,0,0.1,0c0.1,0.1,0.3,0.2,0.4,0.3c0,0,0,0,0,0c0.6,0.4,1.2,0.7,1.8,0.9c0,0,0.1,0,0.1,0
					c0.1,0,0.2,0.1,0.3,0.1c0.3,0.1,0.6,0.2,0.9,0.3c0.8,0.2,1.6,0.3,2.4,0.4c0.8,0,1.6-0.1,2.4-0.4c0.3-0.1,0.6-0.2,0.9-0.3
					c0.1,0,0.2-0.1,0.3-0.1c0,0,0.1,0,0.1,0c0.6-0.3,1.2-0.6,1.8-0.9c0,0,0,0,0,0c0.1-0.1,0.3-0.2,0.4-0.3c0,0,0,0,0.1,0
					c0.1-0.1,0.3-0.2,0.4-0.3c0,0,0,0,0.1,0c0,0,0.1-0.1,0.1-0.1h0c0,0,0.1-0.1,0.1-0.1c0.1,0,0.1-0.1,0.2-0.1c0,0,0,0,0,0
					c0.1-0.1,0.2-0.2,0.3-0.3c0,0,0,0,0.1-0.1h0c0.3-0.2,0.5-0.5,0.7-0.8c0.2-0.2,0.3-0.4,0.5-0.6c0,0,0.1-0.1,0.1-0.1
					c0.1-0.2,0.2-0.3,0.4-0.5c0,0,0,0,0,0c0,0,0,0,0-0.1c0.1-0.1,0.2-0.2,0.2-0.4c0.2-0.3,0.4-0.6,0.6-0.9c0.2-0.4,0.5-0.7,0.8-1
					c0.3-0.3,0.6-0.6,0.9-0.8c0.3-0.3,0.7-0.5,1-0.7c0.4-0.2,0.7-0.4,1.1-0.5c0.4-0.1,0.8-0.3,1.2-0.3c0.4-0.1,0.9-0.1,1.3-0.1
					c0.1,0,0.1,0,0.2,0c0.2,0,0.5,0,0.8,0c0.3,0,0.6,0,1-0.1c0,0.1,0,0.1,0,0.2c0,0.1,0,0.2,0,0.3c-3.1,0.8-5.7,2.8-7.3,5.7
					c0,0,0,0,0-0.1h0c-0.7,1.2,0,0-0.7,1.2h5.7v20.3c0,0,0,0,0,0C1032.3,189.6,1031.8,191.6,1032,193.4 M1040.8,189.8
					c0,0.3,0,0.7,0.1,1c0.1,0.3,0.2,0.6,0.3,0.9c0.1,0.3,0.3,0.5,0.5,0.7c0.2,0.2,0.5,0.4,0.7,0.5c0.3,0.1,0.6,0.2,0.9,0.3
					c0.1,0,0.1,0,0.2,0c0.1,0,0.2,0,0.3,0c0.2,0,0.4,0,0.6,0c0.2,0,0.4,0,0.7-0.1c0.2,0,0.4-0.1,0.6-0.2c0.1,0,0.2-0.1,0.3-0.1
					c-1.1,2.2-3.1,1.9-4.2,1.6c-0.3-0.1-0.5-0.2-0.8-0.3c0,0-0.1,0-0.1,0c-0.9-0.5-1.6-1.3-1.9-2.2c0.1,2.2,2,4,4.3,4
					c1.5,0,2.8-0.8,3.6-1.9c0,0,0,0,0,0l0,0l0,0c-0.3,2.9-2.9,5.2-5.7,5.2h-0.1c-2.2,0-4.1-1.2-5-2.9l0,0c-0.6-1.1-1.1-2.4-1.2-3.8
					l0,0c-0.2,0.6-0.3,1.2-0.3,1.8c0,1.4,0.5,2.7,1.2,3.8c-0.8-0.6-1.5-1.4-2-2.3c0-0.1-0.1-0.1-0.1-0.2c0-0.1-0.1-0.2-0.1-0.2
					c0,0,0,0,0-0.1c-0.2-0.4-0.3-0.9-0.4-1.4c0,0,0,0,0,0c0-0.1,0-0.2-0.1-0.3c0,0,0,0,0-0.1c0-0.1,0-0.2,0-0.3
					c-0.2-2.3,0.8-4.6,2-6c0.7-0.9,1.5-1.6,2.4-2.3c0.6-0.5,1.2-0.9,1.8-1.4l2.9-2.1c-0.3,0.4-1.2,1.3-1.3,1.5
					c-2.5,3.2-6.2,7.5-3.9,11.8c0.6,1.1,1.5,1.9,2.6,2.4c0.6,0.3,1.3,0.4,2,0.4c0.3,0,0.6,0,0.9-0.1l0,0c-2.7-0.1-4.9-2.4-4.9-5.1
					c0-1.4,0.3-2.6,0.9-3.9c1.7-3.1,4-5.8,6.3-8.5c1.3-1.5,2.9-3.2,3.2-5.2c0.3-1.8-0.1-3.7-1.3-5.2c-1.2-1.6-3.2-2.5-5.2-2.4
					c-1.8,0.1-3.8,1-4.6,2.6c0.2-0.2,0.3-0.3,0.5-0.4c0.2-0.1,0.4-0.3,0.6-0.4c1.4-0.8,3.4-1,4.9-0.6c1.5,0.4,2.8,1.5,3.5,2.9
					c0.5,0.9,0.6,2,0.4,3c-0.1,0.3-0.2,0.7-0.3,1c-0.1,0.2-0.2,0.5-0.4,0.7c-0.1,0.2-0.2,0.3-0.4,0.5c-0.3,0.3-0.5,0.5-0.9,0.8
					c-0.2,0.1-0.3,0.2-0.5,0.3c-2.6,0.9-3.3-1.2-3.3-1.2c2.2,0.6,3.2-1,3.2-1c1-1.5,0.6-3.6-1.1-4.5c-1.9-1.1-4.3-0.2-5.9,0.9
					c-1.1,0.8-1.9,1.8-2.8,2.8c0,0,0,0,0,0l0-3.4c0-1.1,0.7-2.6,0.8-2.8c1.3-2.3,3.7-3.8,6.5-3.8c4.2,0,7.6,3.2,8.2,7.3
					c0.3,1.9-0.2,3.8-1,5.5c-1.3,2.8-3.6,5.1-5.6,7.4C1042.5,186.1,1040.8,187.8,1040.8,189.8"/>
				<path id="XMLID_1471_" class="st1" d="M1019.6,188.7v-0.2c0-0.3-0.3-0.6-0.6-0.6v0.1v1.6l2.1-0.7c0,0.4,0.3,0.9,0.6,1.1
					c0.2,0.2,0.5,0.5,0.5,0.8c-0.6,0.2-1.4,0.6-1.5,0.7c-0.1,0.2-0.1,0.5-0.1,0.7c0,0.3,0,0.5,0.1,0.7c-0.4-0.1-0.8-0.2-1.1-0.5V192
					c0-0.3-0.3-0.6-0.6-0.6v1.7v0c0.5,0.4,1.1,0.6,1.7,0.6c0.3,0,0.5,0.2,0.5,0.5c0.1,0,0.2-0.1,0.2-0.2c0-0.2,0-0.3-0.1-0.4
					c0-0.1-0.1-0.3-0.1-0.4c0-0.3,0.1-0.5,0.2-0.7c0.1,0,0.2-0.1,0.3-0.1c0.1,0,0.3,0,0.4,0c0.2,0,0.4,0,0.6,0.1
					c0.1,0,0.2,0.1,0.4,0.1c0.1,0,0.1,0,0.2,0c0.2,0,0.5,0,0.7-0.1c0,0,0.1,0,0.1,0c0,0.1-0.1,0.1-0.1,0.1c-0.1,0.1-0.4,0.2-0.6,0.3
					c-0.1,0-0.2,0-0.3,0c0.2,0.5,0.4,1,0.4,1c0.2,0.1,0.5,0.1,0.7,0.1c0.3,0,0.5,0,0.7-0.1c-0.1,0.4-0.2,0.8-0.5,1.1l-0.5,0
					c-0.3,0-0.6,0.3-0.6,0.6h1.7h0c0.4-0.5,0.6-1.1,0.6-1.7c0-0.3,0.2-0.5,0.5-0.5c0-0.1-0.1-0.2-0.2-0.2c-0.2,0-0.3,0-0.4,0.1
					c-0.1,0-0.3,0.1-0.4,0.1c-0.3,0-0.5-0.1-0.7-0.2c-0.1-0.2-0.1-0.4-0.1-0.7c0-0.2,0-0.4,0.1-0.6l0,0c0,0,0-0.1,0-0.1
					c0.1,0,0.3,0.1,0.4,0.1c1,0,1.8-0.8,1.8-1.8c0-0.3-0.1-0.5-0.2-0.8l-0.2-0.3c-0.3-0.5-0.4-1-0.3-1.6c0-0.5,0.2-1,0.5-1.4l0,0
					c0,0,0,0,0.1,0c0.1-0.1,0.2-0.1,0.3-0.2c0.2-0.2,0.3-0.4,0.4-0.7c0,0,0-0.1,0-0.1c0,0,0,0,0-0.1c0-0.1,0-0.1,0-0.2
					c0,0-0.1,0.1-0.1,0.1c-0.1,0-0.1,0.1-0.2,0.1c-0.1,0.1-0.1,0.1-0.2,0.2c-0.1,0.1-0.1,0.1-0.2,0.2c-0.1,0.1-0.1,0.1-0.2,0.2
					c0,0,0,0,0,0c0,0,0,0,0,0.1c0,0,0,0,0,0c0,0,0,0,0,0c0,0,0,0,0,0.1c0,0,0,0,0,0c-0.3,0.5-0.6,1.1-0.6,1.7c0,0.6,0.1,1.2,0.4,1.8
					l0.2,0.3c0.1,0.2,0.1,0.4,0.1,0.6c0,0.8-0.6,1.4-1.4,1.4c0,0,0,0,0,0c-0.4,0-0.7-0.2-1-0.5c0-0.1-0.1-0.1-0.1-0.2
					c-0.3-0.4-0.4-0.8-0.4-1.3l0,0v0c0.2,0.2,0.4,0.3,0.5,0.4c0,0,0.1,0,0-0.1c-0.1-0.2-0.1-0.7-0.1-0.9c0-0.2,0.1-0.3,0.2-0.5
					c0,0,0,0.1,0.1,0.3c0,0,0.1,0,0.1,0c0.1-0.3,0.1-0.5,0.3-0.8c0.1-0.1,0.1-0.1,0.1-0.2c0-0.1,0.1-0.2,0.1-0.2
					c0.1-0.1,0.1-0.2,0.1-0.3l0,0l0,0c0,0,0,0,0,0c0,0,0,0,0,0c0,0,0,0,0,0s0,0,0,0c0,0,0,0,0,0c0,0,0,0,0,0c0,0,0,0,0,0
					c0,0,0,0,0,0c0,0,0,0,0,0c0,0,0,0,0,0c0,0,0,0,0,0c0,0,0,0,0,0c0,0,0,0,0,0c0,0,0,0,0,0l0,0l0,0c0,0,0,0,0,0c0,0,0,0,0,0
					c0,0,0,0,0,0c0,0,0,0,0,0c0,0,0,0,0,0l0,0c0,0,0,0,0,0c0,0,0,0,0,0l0,0c0,0,0,0,0,0c0,0,0,0,0,0c0,0,0,0,0,0c0,0,0,0,0,0
					c0,0,0,0,0,0c0,0,0,0,0-0.1c0-0.7-0.3-1.4-0.9-1.8c0,0,0.1,0,0.1,0c0,0,0.1,0,0-0.1c-0.5-0.4-1.1-0.6-1.7-0.5c0,0-0.1,0-0.1,0
					c0,0-0.1,0-0.1,0.1l-0.1,0.2c0,0-0.1,0-0.1,0c-0.2,0-0.4,0.1-0.4,0.3l-0.6,0.3c-0.1,0-0.1,0.1-0.1,0.1c0,0,0,0.1,0,0.1
					c0,0.1,0.1,0.5,0.2,0.5c0,0,0.1,0,0.2-0.1l0,0c0,0,0,0,0,0c0.2,0,0.4-0.1,0.5,0c0,0,0.1,0.3,0,0.4c0,0-0.1,0-0.3,0l-0.2,0
					c0,0-0.1,0-0.1,0c0,0-0.1,0.3,0.1,0.4c0.1,0,0.3-0.1,0.5-0.1c0,0,0.2,0,0.2,0c0,0,0.1,0,0.1,0c0.2,0,0.4-0.1,0.7-0.2
					c0,0-0.1,0.2-0.5,0.3c0,0-0.2,0.1-0.3,0.1c0,0-0.1,0-0.1,0c-0.3,0.1-0.6,0.3-0.8,0.6c-0.1-0.1-2-0.9-2-0.9l0,0v-0.4
					c0-0.2-0.1-0.4-0.4-0.5c-0.1,0-0.1-0.1-0.2-0.1v0v1.3l1.7,1.2l0.7-0.2c0,0,0.1,0,0.1,0.1c0,0.1,0,0.1,0,0.1L1019.6,188.7z"/>
				<path id="XMLID_1470_" class="st1" d="M1011.2,194c-0.2,0.1-0.5,0.1-0.7,0.1c-0.3,0-0.5,0-0.7-0.1c0.1,0.4,0.2,0.8,0.5,1.1h0.5
					c0.3,0,0.6,0.3,0.6,0.6h-1.7h0c-0.4-0.5-0.6-1.1-0.6-1.7c0-0.3-0.2-0.5-0.5-0.5c0-0.1,0.1-0.2,0.2-0.2c0.2,0,0.3,0,0.4,0.1
					c0.1,0,0.3,0.1,0.4,0.1c0.3,0,0.5-0.1,0.7-0.2c0.1-0.2,0.1-0.4,0.1-0.7c0-0.2,0-0.4-0.1-0.6v0c0,0,0-0.1,0-0.1
					c-0.1,0-0.3,0.1-0.4,0.1c-1,0-1.8-0.8-1.8-1.8c0-0.3,0.1-0.5,0.2-0.8l0.2-0.3c0.3-0.5,0.4-1,0.3-1.6c0-0.5-0.2-1-0.5-1.4l0,0
					c0,0,0,0-0.1,0c-0.1-0.1-0.2-0.1-0.3-0.2c-0.2-0.2-0.3-0.4-0.4-0.7c0,0,0-0.1,0-0.1c0,0,0,0,0-0.1c0-0.1,0-0.1,0-0.2
					c0,0,0.1,0.1,0.1,0.1c0.1,0,0.1,0.1,0.2,0.1c0.1,0.1,0.1,0.1,0.2,0.2c0.1,0.1,0.1,0.1,0.2,0.2c0.1,0.1,0.1,0.1,0.2,0.2
					c0,0,0,0,0,0c0,0,0,0,0,0.1v0c0,0,0,0,0,0c0,0,0,0,0,0c0,0,0,0,0.1,0.1l0,0c0.3,0.5,0.6,1.1,0.6,1.7c0,0.6-0.1,1.2-0.4,1.8
					l-0.2,0.3c-0.1,0.2-0.1,0.4-0.1,0.6c0,0.8,0.6,1.4,1.4,1.4h0c0.4,0,0.7-0.2,1-0.5c0-0.1,0.1-0.1,0.1-0.2
					c0.3-0.4,0.4-0.8,0.4-1.3l0,0v0c-0.2,0.2-0.4,0.3-0.5,0.4c0,0-0.1,0,0-0.1c0.1-0.2,0.1-0.7,0.1-0.9c0-0.2-0.1-0.3-0.2-0.5
					c0,0,0,0.1-0.1,0.3c0,0-0.1,0-0.1,0c0-0.3-0.1-0.5-0.3-0.8c-0.1-0.1-0.1-0.1-0.1-0.2c0-0.1-0.1-0.2-0.1-0.2
					c-0.1-0.1-0.1-0.2-0.1-0.3l0,0c0,0,0,0,0,0c0,0,0,0,0,0c0,0,0,0,0,0c0,0,0,0,0,0c0,0,0,0,0,0c0,0,0,0,0,0c0,0,0,0,0,0
					c0,0,0,0,0,0c0,0,0,0,0,0c0,0,0,0,0,0c0,0,0,0,0,0l0,0c0,0,0,0,0,0l0,0l0,0c0,0,0,0,0,0l0,0c0,0,0,0,0,0c0,0,0,0,0,0
					c0,0,0,0,0,0c0,0,0,0,0,0l0,0c0,0,0,0,0,0l0,0l0,0c0,0,0,0,0,0c0,0,0,0,0,0c0,0,0,0,0,0c0,0,0,0,0,0c0,0,0,0,0,0c0,0,0,0,0-0.1
					c0-0.7,0.3-1.4,0.9-1.8c0,0-0.1,0-0.1,0c0,0-0.1,0,0-0.1c0.5-0.4,1.1-0.6,1.7-0.5c0,0,0.1,0,0.1,0c0,0,0.1,0,0.1,0.1l0.1,0.2
					c0,0,0.1,0,0.1,0c0.2,0,0.4,0.1,0.5,0.3l0.6,0.3c0.1,0,0.1,0.1,0.1,0.1c0,0,0,0.1,0,0.1c0,0.1-0.1,0.5-0.2,0.5
					c0,0-0.1,0-0.2-0.1h0c0,0,0,0,0,0c-0.2,0-0.4-0.1-0.5,0c0,0-0.1,0.3,0,0.4c0,0,0.1,0,0.3,0l0.2,0c0,0,0.1,0,0.1,0
					c0,0,0.1,0.3-0.1,0.4c-0.1,0-0.3-0.1-0.5-0.1c0,0-0.2,0-0.2,0c0,0-0.1,0-0.1,0c-0.2,0-0.4-0.1-0.7-0.2c0,0,0.1,0.2,0.5,0.3
					c0,0,0.2,0.1,0.3,0.1c0,0,0.1,0,0.1,0c0.3,0.1,0.6,0.3,0.8,0.6c0.1-0.1,2-0.9,2-0.9l0,0v-0.4c0-0.2,0.1-0.4,0.4-0.5
					c0.1,0,0.1-0.1,0.2-0.1v0v1.3l-1.6,1.2l-0.7-0.2c0,0-0.1,0-0.1,0.1c0,0.1,0,0.1,0,0.1l1.9,0.9v-0.2c0-0.3,0.3-0.6,0.6-0.6v0.1
					v1.6l-2.1-0.7c0,0.4-0.3,0.9-0.6,1.1c-0.2,0.2-0.5,0.5-0.5,0.8c0.6,0.2,1.4,0.6,1.5,0.7c0.1,0.2,0.1,0.5,0.1,0.7
					c0,0.3,0,0.5-0.1,0.7c0.4-0.1,0.8-0.2,1.1-0.5V192c0-0.3,0.3-0.6,0.6-0.6v1.7v0c-0.5,0.4-1.1,0.6-1.7,0.6
					c-0.3,0-0.5,0.2-0.5,0.5c-0.1,0-0.2-0.1-0.2-0.2c0-0.2,0-0.3,0.1-0.4c0-0.1,0.1-0.3,0.1-0.4c0-0.3-0.1-0.5-0.2-0.7
					c-0.1,0-0.2-0.1-0.3-0.1c-0.1,0-0.3,0-0.4,0c-0.1,0-0.2,0-0.3,0l0.1-0.8c0,0,0-0.1-0.1-0.1c-0.1,0-0.1,0.1-0.1,0.1L1011.2,194z"
					/>
				<path id="XMLID_1467_" class="st1" d="M1023.2,174.5c-0.7-1.4-2.1-2.3-3.7-2.3c-0.6-0.3-1.3-0.5-2-0.5c-0.7,0-1.4,0.2-2,0.5
					c-1.6,0.1-3,1-3.7,2.3c-1.1,0.6-1.8,1.7-1.8,3c0,1,0.5,2,1.2,2.6c0.5,1.4,1.8,2.4,3.3,2.6c1.3,0.2,2.3,1.4,2.4,2.7l0,7.4
					c0,0.3-0.2,1.8-2,2.1h-0.4c-0.3,0-0.6,0.3-0.6,0.6h1.8h0.8h0.4h1.5v0h1.2h1.8c0-0.3-0.3-0.6-0.6-0.6h-0.4c-1.9-0.3-2-2-2-2.1
					l0-7.4c0-1.3,1-2.4,2.2-2.7l0.1,0c1.5-0.2,2.8-1.3,3.4-2.6c0.7-0.6,1.2-1.6,1.2-2.6C1025,176.2,1024.3,175.1,1023.2,174.5
					 M1023.1,179.3l-0.2,0.2l-0.1,0.3c-0.4,0.9-1.1,1.6-2,1.8v0c0,0-0.7,0.2-0.9,0.3l0,0c-0.1,0.1-0.1,0.1-0.2,0.2c0,0,0,0,0,0
					c-0.1,0-0.1,0.1-0.2,0.1c-0.1,0.1-0.1,0.1-0.2,0.1c-0.5,0.4-1.2,0.6-1.8,0.6c-0.6,0-1.3-0.2-1.8-0.6c-0.1,0-0.1-0.1-0.2-0.1
					c-0.1,0-0.1-0.1-0.2-0.1c0,0,0,0,0,0c-0.1,0-0.1-0.1-0.2-0.2l0,0c-0.2-0.1-0.9-0.3-0.9-0.3l0,0c-0.9-0.3-1.6-0.9-2-1.8l-0.1-0.3
					l-0.2-0.2c-0.5-0.4-0.8-1.1-0.8-1.7c0-0.8,0.5-1.6,1.2-2l0.3-0.2l0.2-0.3c0.5-1,1.6-1.7,2.8-1.7l0.3,0l0.2-0.1
					c0.5-0.2,0.9-0.4,1.5-0.4c0.5,0,1,0.1,1.5,0.4l0.2,0.1l0.3,0c1.2,0,2.2,0.7,2.8,1.7l0.2,0.3l0.3,0.2c0.7,0.4,1.2,1.2,1.2,2
					C1023.9,178.2,1023.6,178.8,1023.1,179.3"/>
				<path id="XMLID_1466_" class="st1" d="M1024.7,170.1c-0.8,0.5-1.7,0.8-2.5,1.1h7.5v16.4c0,0.9-0.1,1.9-0.3,2.8
					c-0.2,1-0.6,2.1-1.1,3c-0.1,0.1-0.1,0.2-0.2,0.3c-2.2,3.8-6.3,6.1-10.6,6.1c-4.4,0-8.4-2.4-10.6-6.1c-0.1-0.1-0.1-0.2-0.2-0.3
					c-0.5-0.9-0.9-2-1.1-3c-0.2-0.9-0.3-1.9-0.3-2.8v-16.4h7.7c-1.1-0.3-2-0.7-2.6-1.1h-6.1v17.4c0,1.1,0.1,2.1,0.4,3.1
					c0.3,1.2,0.7,2.2,1.2,3.3c0.1,0.1,0.1,0.2,0.2,0.4c2.3,4,6.6,6.7,11.6,6.7s9.2-2.7,11.6-6.7c0.1-0.1,0.1-0.2,0.2-0.4
					c0.5-1,1-2.1,1.2-3.3c0.2-1,0.4-2,0.4-3.1v-17.4H1024.7z"/>
				<polygon id="XMLID_1465_" class="st1" points="1032.9,170.4 1032.6,170.1 1032.1,170.6 1031.6,170.1 1031.3,170.4 1031.8,170.9
					1031.3,171.4 1031.6,171.7 1032.1,171.1 1032.6,171.7 1032.9,171.4 1032.3,170.9 				"/>
				<polygon id="XMLID_1464_" class="st1" points="1003.6,170.4 1003.3,170.1 1002.8,170.6 1002.3,170.1 1002,170.4 1002.5,170.9
					1002,171.4 1002.3,171.7 1002.8,171.1 1003.3,171.7 1003.6,171.4 1003,170.9 				"/>
				<polygon id="XMLID_1463_" class="st1" points="1032.9,182.9 1032.6,182.6 1032.1,183.1 1031.6,182.6 1031.3,182.9 1031.8,183.4
					1031.3,183.9 1031.6,184.2 1032.1,183.7 1032.6,184.2 1032.9,183.9 1032.3,183.4 				"/>
				<polygon id="XMLID_1462_" class="st1" points="1003.6,182.9 1003.3,182.6 1002.8,183.1 1002.3,182.6 1002,182.9 1002.5,183.4
					1002,183.9 1002.3,184.2 1002.8,183.7 1003.3,184.2 1003.6,183.9 1003,183.4 				"/>
				<polygon id="XMLID_1461_" class="st1" points="1006.5,195.9 1006.2,195.7 1005.7,196.2 1005.2,195.7 1004.9,195.9 1005.4,196.4
					1004.9,197 1005.2,197.2 1005.7,196.7 1006.2,197.2 1006.5,197 1006,196.4 				"/>
				<polygon id="XMLID_1460_" class="st1" points="1030,195.9 1029.7,195.7 1029.2,196.2 1028.7,195.7 1028.4,195.9 1028.9,196.4
					1028.4,197 1028.7,197.2 1029.2,196.7 1029.7,197.2 1030,197 1029.5,196.4 				"/>
				<polygon id="XMLID_1459_" class="st1" points="1018.2,201.6 1018,201.4 1017.4,201.9 1016.9,201.4 1016.7,201.6 1017.2,202.1
					1016.7,202.7 1016.9,202.9 1017.4,202.4 1018,202.9 1018.2,202.7 1017.7,202.1 				"/>
			</g>
		</g>
	</g>
</g>
<g>
	<path class="st5" d="M147.8,171.6c-5.1-5.1-13.3-5.1-18.4,0l3.7,3.7c3-3,8-3,11,0c3,3,3,8,0,11l3.7,3.7
		C152.8,185,152.8,176.7,147.8,171.6"/>
	<polygon class="st5" points="147.8,190 125.7,212.1 122,215.8 118.3,212.1 122,208.5 144.1,186.4 	"/>
	<path class="st5" d="M96.2,171.6c-5.1,5.1-5.1,13.3,0,18.4l3.7-3.7c-3-3-3-8,0-11c3-3,8-3,11,0l3.7-3.7
		C109.5,166.6,101.3,166.6,96.2,171.6"/>
	<polygon class="st5" points="125.7,212.1 122,215.8 122,215.8 96.2,190.1 99.9,186.4 122,208.5 	"/>
	<polygon class="st5" points="115.6,172.6 111.9,176.3 111,175.3 114.6,171.6 114.6,171.7 	"/>
	<polygon class="st5" points="133,175.3 132.1,176.3 128.4,172.6 129.4,171.7 129.4,171.6 	"/>
	<path class="st6" d="M155.1,197.4c9.1-9.1,9.1-24,0-33.1c-9.1-9.1-24-9.1-33.1,0l-3.7,3.7l0,0l-3.7,3.7l-1.8,1.8
		c-0.6,0.6-1.2,1.3-1.7,2c-3.3,5.1-2.8,11.9,1.7,16.4c5.1,5.1,13.3,5.1,18.4,0c4.5-4.5,5-11.3,1.7-16.4c-0.5-0.7-1-1.4-1.7-2
		l-1.8-1.8l-3.7-3.7c7.1-7.1,18.7-7.1,25.8,0c7.1,7.1,7.1,18.6,0,25.8L122,223.2l-29.5-29.5c-7.1-7.1-7.1-18.6,0-25.8
		c7.1-7.1,18.6-7.1,25.8,0l3.7-3.7c-9.1-9.1-24-9.1-33.1,0c-9.1,9.1-9.1,24,0,33.1l0,0l29.4,29.4l-3.7,3.7l-3.7-3.7l-3.7,3.7
		l3.7,3.7l-3.7,3.7l3.7,3.7l3.7-3.7l3.7,3.7l3.7-3.7l-3.7-3.7l3.7-3.7l0,0l7.4,7.4l-3.4,3.4h10.4v-10.4l-3.4,3.4l-7.4-7.4l0,0
		L155.1,197.4z M127.5,177.2L127.5,177.2c3,3.1,3,8,0,11.1c-3,3-8,3-11,0c-3-3-3-8,0-11l0,0l5.5-5.5L127.5,177.2z"/>
	<path class="st7" d="M144.1,186.4L122,208.5l-22.1-22.1c-3-3-3-8,0-11c3-3,8-3,11,0l0.2,0.2c-3.3,5.1-2.8,11.9,1.7,16.4
		c5.1,5.1,13.3,5.1,18.4,0c4.5-4.5,5-11.3,1.7-16.4l0.2-0.2c3-3,8-3,11,0C147.1,178.4,147.1,183.3,144.1,186.4"/>
	<path class="st8" d="M127.5,188.2c-3,3-8,3-11,0c-3-3-3-8,0-11l0,0l5.5-5.5l5.5,5.5l0,0C130.6,180.2,130.6,185.2,127.5,188.2"/>
	<g>
		<g>
			<path class="st6" d="M203.9,177c3.2,0,5.8,0.8,7.6,2.5c1.8,1.6,2.8,3.9,2.8,6.7s-0.9,5.1-2.8,6.7c-1.8,1.6-4.4,2.5-7.6,2.5h-7.2
				c-0.5,0-0.7-0.2-0.7-0.7v-17c0-0.5,0.2-0.7,0.7-0.7H203.9z M203.8,190.5c1.4,0,2.5-0.4,3.3-1.2c0.8-0.8,1.3-1.9,1.3-3.2
				c0-1.3-0.4-2.4-1.3-3.2c-0.8-0.8-2-1.2-3.3-1.2h-2.1v8.8H203.8z"/>
			<path class="st6" d="M219,180.9c-0.9,0-1.7-0.3-2.2-0.8c-0.6-0.5-0.9-1.2-0.9-2.1c0-0.8,0.3-1.5,0.9-2.1c0.6-0.6,1.3-0.8,2.2-0.8
				c0.9,0,1.6,0.3,2.2,0.8c0.6,0.6,0.9,1.2,0.9,2.1c0,0.8-0.3,1.5-0.9,2.1C220.6,180.6,219.8,180.9,219,180.9z M216.9,195.3
				c-0.5,0-0.7-0.2-0.7-0.7V183c0-0.5,0.2-0.7,0.7-0.7h4.1c0.5,0,0.7,0.2,0.7,0.7v11.6c0,0.5-0.2,0.7-0.7,0.7H216.9z"/>
			<path class="st6" d="M235.3,182c0.4,0.1,0.6,0.4,0.6,0.8l-0.4,3.7c-0.1,0.4-0.3,0.6-0.7,0.6c-0.4-0.1-0.9-0.2-1.3-0.2
				c-0.8,0-1.5,0.2-2,0.6c-0.5,0.4-0.8,1.1-0.8,1.9v5.1c0,0.5-0.2,0.7-0.7,0.7h-4.1c-0.5,0-0.7-0.2-0.7-0.7v-7
				c0-0.4-0.1-0.7-0.2-0.9c-0.1-0.1-0.3-0.2-0.7-0.2h-0.3c-0.5,0-0.8-0.2-0.8-0.6V183c0-0.4,0.2-0.6,0.6-0.8
				c0.8-0.3,1.6-0.4,2.4-0.4c1.6,0,2.7,0.5,3.5,1.6c1-1.1,2.3-1.6,4.1-1.6C234.4,181.8,234.9,181.9,235.3,182z"/>
			<path class="st6" d="M244.6,195.8c-2.3,0-4.2-0.6-5.6-1.9c-1.4-1.3-2.1-3-2.1-5.1s0.7-3.8,2-5.1c1.3-1.3,3.1-1.9,5.3-1.9
				c2.4,0,4.2,0.6,5.5,1.9c1.3,1.3,1.9,2.9,1.9,5v0.6c0,0.5-0.3,0.7-0.8,0.7H242c0.3,1.3,1.2,1.9,2.6,1.9c0.6,0,1-0.2,1.4-0.5
				c0.4-0.3,0.7-0.4,0.9-0.4h3.7c0.3,0,0.5,0.1,0.6,0.2c0.1,0.1,0.1,0.3,0.1,0.6c-0.4,1.3-1.2,2.2-2.4,3S246.3,195.8,244.6,195.8z
				 M242.1,187.5h4.8c-0.1-0.6-0.3-1.1-0.8-1.4c-0.4-0.4-1-0.5-1.6-0.5c-0.6,0-1.1,0.2-1.6,0.5C242.4,186.4,242.1,186.9,242.1,187.5
				z"/>
			<path class="st6" d="M260.6,195.8c-2.3,0-4.2-0.6-5.6-1.9c-1.4-1.3-2.1-3-2.1-5.1s0.7-3.8,2.1-5.1c1.4-1.3,3.3-1.9,5.6-1.9
				c1.9,0,3.5,0.5,4.8,1.4c1.3,1,2.1,2.2,2.4,3.8c0,0.2,0,0.4-0.1,0.5c-0.1,0.1-0.3,0.2-0.6,0.2h-3.4c-0.4,0-0.6-0.2-0.8-0.6
				c-0.4-0.9-1.2-1.3-2.2-1.3c-0.8,0-1.5,0.3-2,0.8s-0.7,1.2-0.7,2.1c0,0.9,0.2,1.6,0.7,2.1c0.5,0.5,1.2,0.8,2,0.8
				c1.1,0,1.8-0.4,2.2-1.3c0.2-0.4,0.5-0.6,0.8-0.6h3.4c0.2,0,0.4,0.1,0.6,0.2c0.1,0.1,0.2,0.3,0.1,0.5c-0.3,1.6-1,2.9-2.4,3.8
				C264.2,195.4,262.6,195.8,260.6,195.8z"/>
			<path class="st6" d="M276.7,195.8c-2.3,0-4.2-0.6-5.6-1.9c-1.4-1.3-2.1-3-2.1-5.1s0.7-3.8,2.1-5.1c1.4-1.3,3.3-1.9,5.6-1.9
				c1.9,0,3.5,0.5,4.8,1.4c1.3,1,2.1,2.2,2.4,3.8c0,0.2,0,0.4-0.1,0.5c-0.1,0.1-0.3,0.2-0.6,0.2h-3.4c-0.4,0-0.6-0.2-0.8-0.6
				c-0.4-0.9-1.2-1.3-2.2-1.3c-0.8,0-1.5,0.3-2,0.8s-0.7,1.2-0.7,2.1c0,0.9,0.2,1.6,0.7,2.1c0.5,0.5,1.2,0.8,2,0.8
				c1.1,0,1.8-0.4,2.2-1.3c0.2-0.4,0.5-0.6,0.8-0.6h3.4c0.2,0,0.4,0.1,0.6,0.2c0.1,0.1,0.2,0.3,0.1,0.5c-0.3,1.6-1,2.9-2.4,3.8
				C280.3,195.4,278.7,195.8,276.7,195.8z"/>
			<path class="st6" d="M288.4,180.9c-0.9,0-1.7-0.3-2.2-0.8c-0.6-0.5-0.9-1.2-0.9-2.1c0-0.8,0.3-1.5,0.9-2.1
				c0.6-0.6,1.3-0.8,2.2-0.8c0.9,0,1.6,0.3,2.2,0.8c0.6,0.6,0.9,1.2,0.9,2.1c0,0.8-0.3,1.5-0.9,2.1
				C290.1,180.6,289.3,180.9,288.4,180.9z M286.4,195.3c-0.5,0-0.7-0.2-0.7-0.7V183c0-0.5,0.2-0.7,0.7-0.7h4.1
				c0.5,0,0.7,0.2,0.7,0.7v11.6c0,0.5-0.2,0.7-0.7,0.7H286.4z"/>
			<path class="st6" d="M300.6,195.8c-2.3,0-4.2-0.6-5.6-1.9c-1.4-1.3-2.1-3-2.1-5.1s0.7-3.8,2.1-5.1c1.4-1.3,3.3-1.9,5.6-1.9
				c2.3,0,4.2,0.6,5.6,1.9c1.4,1.3,2.1,3,2.1,5.1s-0.7,3.8-2.1,5.1C304.8,195.2,302.9,195.8,300.6,195.8z M300.6,191.5
				c0.8,0,1.5-0.2,2-0.7s0.7-1.1,0.7-1.9c0-0.8-0.2-1.5-0.7-1.9c-0.5-0.5-1.2-0.7-2-0.7c-0.8,0-1.5,0.2-1.9,0.7
				c-0.5,0.5-0.7,1.1-0.7,1.9c0,0.8,0.2,1.5,0.7,1.9S299.8,191.5,300.6,191.5z M298.9,180.5c-0.3,0-0.4-0.1-0.5-0.2
				c-0.1-0.2-0.1-0.4,0-0.6l1.7-3.2c0.2-0.3,0.4-0.5,0.8-0.5h4c0.3,0,0.5,0.1,0.6,0.2c0.1,0.2,0.1,0.4-0.1,0.6l-2.2,3.3
				c-0.2,0.3-0.5,0.4-0.8,0.4H298.9z"/>
			<path class="st6" d="M320.2,181.8c1.7,0,3.1,0.5,4.1,1.5c1,1,1.5,2.3,1.5,4v7.3c0,0.5-0.2,0.7-0.7,0.7H321
				c-0.2,0-0.4-0.1-0.5-0.2c-0.1-0.1-0.2-0.3-0.2-0.5v-6.1c0-0.6-0.2-1.1-0.5-1.5c-0.3-0.4-0.7-0.5-1.3-0.5c-0.6,0-1,0.2-1.3,0.5
				c-0.3,0.3-0.5,0.8-0.5,1.5v6.1c0,0.5-0.2,0.7-0.7,0.7h-4.1c-0.5,0-0.7-0.2-0.7-0.7v-7c0-0.4-0.1-0.7-0.2-0.9
				c-0.1-0.1-0.3-0.2-0.7-0.2H310c-0.5,0-0.8-0.2-0.8-0.6V183c0-0.4,0.2-0.6,0.6-0.8c0.8-0.3,1.6-0.4,2.4-0.4c1.7,0,2.8,0.6,3.5,1.6
				C316.8,182.4,318.3,181.8,320.2,181.8z"/>
			<path class="st6" d="M351.9,194.7c0,0.4-0.2,0.7-0.6,0.8c-0.8,0.2-1.7,0.3-2.5,0.3c-1.9,0-3.2-0.6-3.9-1.7
				c-0.9,1.1-2.4,1.7-4.4,1.7c-2,0-3.7-0.6-4.9-1.9c-1.3-1.3-1.9-3-1.9-5.1c0-2.1,0.6-3.8,1.9-5.1s2.9-1.9,4.9-1.9
				c1.4,0,2.6,0.4,3.5,1.1v-6.3c0-0.5,0.2-0.7,0.7-0.7h4.1c0.5,0,0.7,0.2,0.7,0.7v13.5c0,0.4,0.1,0.7,0.2,0.8
				c0.1,0.2,0.3,0.2,0.6,0.2c0.2,0,0.3,0,0.4,0c0.5,0,0.7,0.2,0.8,0.6L351.9,194.7z M341.4,191.8c0.8,0,1.4-0.3,1.9-0.8
				c0.5-0.5,0.7-1.2,0.7-2.2c0-0.9-0.2-1.6-0.7-2.1c-0.5-0.5-1.1-0.8-1.9-0.8c-0.8,0-1.4,0.3-1.8,0.8c-0.5,0.5-0.7,1.3-0.7,2.1
				c0,0.9,0.2,1.6,0.7,2.1C340.1,191.5,340.7,191.8,341.4,191.8z"/>
			<path class="st6" d="M360.5,195.8c-2.3,0-4.2-0.6-5.6-1.9c-1.4-1.3-2.1-3-2.1-5.1s0.7-3.8,2-5.1c1.3-1.3,3.1-1.9,5.3-1.9
				c2.4,0,4.2,0.6,5.5,1.9c1.3,1.3,1.9,2.9,1.9,5v0.6c0,0.5-0.3,0.7-0.8,0.7H358c0.3,1.3,1.2,1.9,2.6,1.9c0.6,0,1-0.2,1.4-0.5
				c0.4-0.3,0.7-0.4,0.9-0.4h3.7c0.3,0,0.5,0.1,0.6,0.2c0.1,0.1,0.1,0.3,0.1,0.6c-0.4,1.3-1.2,2.2-2.4,3S362.2,195.8,360.5,195.8z
				 M358,187.5h4.8c-0.1-0.6-0.3-1.1-0.8-1.4c-0.4-0.4-1-0.5-1.6-0.5c-0.6,0-1.1,0.2-1.6,0.5C358.4,186.4,358.1,186.9,358,187.5z"/>
		</g>
	</g>
	<g>
		<g>
			<path class="st6" d="M203.9,206.1c3.2,0,5.8,0.8,7.6,2.5c1.8,1.6,2.8,3.9,2.8,6.7s-0.9,5.1-2.8,6.7c-1.8,1.6-4.4,2.5-7.6,2.5
				h-7.2c-0.5,0-0.7-0.2-0.7-0.7v-17c0-0.5,0.2-0.7,0.7-0.7H203.9z M203.8,219.7c1.4,0,2.5-0.4,3.3-1.2c0.8-0.8,1.3-1.9,1.3-3.2
				c0-1.3-0.4-2.4-1.3-3.2c-0.8-0.8-2-1.2-3.3-1.2h-2.1v8.8H203.8z"/>
			<path class="st6" d="M219,210c-0.9,0-1.7-0.3-2.2-0.8c-0.6-0.5-0.9-1.2-0.9-2.1c0-0.8,0.3-1.5,0.9-2.1c0.6-0.6,1.3-0.8,2.2-0.8
				c0.9,0,1.6,0.3,2.2,0.8c0.6,0.6,0.9,1.2,0.9,2.1c0,0.8-0.3,1.5-0.9,2.1C220.6,209.8,219.8,210,219,210z M216.9,224.5
				c-0.5,0-0.7-0.2-0.7-0.7v-11.6c0-0.5,0.2-0.7,0.7-0.7h4.1c0.5,0,0.7,0.2,0.7,0.7v11.6c0,0.5-0.2,0.7-0.7,0.7H216.9z"/>
			<path class="st6" d="M228.8,224.5c-0.4,0-0.7-0.2-0.8-0.6l-5-11.6c-0.2-0.5,0-0.8,0.6-0.8h4.3c0.4,0,0.7,0.2,0.8,0.6l2.3,5.8
				l2.3-5.8c0.2-0.4,0.5-0.6,0.8-0.6h4.3c0.3,0,0.5,0.1,0.6,0.2c0.1,0.1,0.1,0.3,0,0.6l-5,11.6c-0.1,0.4-0.4,0.6-0.8,0.6H228.8z"/>
			<path class="st6" d="M247.6,225c-2.3,0-4.2-0.6-5.6-1.9c-1.4-1.3-2.1-3-2.1-5.1s0.7-3.8,2-5.1c1.3-1.3,3.1-1.9,5.3-1.9
				c2.4,0,4.2,0.6,5.5,1.9c1.3,1.3,1.9,2.9,1.9,5v0.6c0,0.5-0.3,0.7-0.8,0.7H245c0.3,1.3,1.2,1.9,2.6,1.9c0.6,0,1-0.2,1.4-0.5
				c0.4-0.3,0.7-0.4,0.9-0.4h3.7c0.3,0,0.5,0.1,0.6,0.2c0.1,0.1,0.1,0.3,0.1,0.6c-0.4,1.3-1.2,2.2-2.4,3S249.3,225,247.6,225z
				 M245.1,216.7h4.8c-0.1-0.6-0.3-1.1-0.8-1.4c-0.4-0.4-1-0.5-1.6-0.5c-0.6,0-1.1,0.2-1.6,0.5C245.4,215.6,245.1,216.1,245.1,216.7
				z"/>
			<path class="st6" d="M267.7,211.2c0.4,0.1,0.6,0.4,0.6,0.8l-0.4,3.7c-0.1,0.4-0.3,0.6-0.7,0.6c-0.4-0.1-0.9-0.2-1.3-0.2
				c-0.8,0-1.5,0.2-2,0.6c-0.5,0.4-0.8,1.1-0.8,1.9v5.1c0,0.5-0.2,0.7-0.7,0.7h-4.1c-0.5,0-0.7-0.2-0.7-0.7v-7
				c0-0.4-0.1-0.7-0.2-0.9c-0.1-0.1-0.3-0.2-0.7-0.2h-0.3c-0.5,0-0.8-0.2-0.8-0.6v-2.9c0-0.4,0.2-0.6,0.6-0.8
				c0.8-0.3,1.6-0.4,2.4-0.4c1.6,0,2.7,0.5,3.5,1.6c1-1.1,2.3-1.6,4.1-1.6C266.8,211,267.3,211.1,267.7,211.2z"/>
			<path class="st6" d="M276,225c-1.9,0-3.6-0.4-4.8-1.1c-1.3-0.7-2-1.7-2.3-3c-0.1-0.2,0-0.4,0.1-0.5c0.1-0.1,0.3-0.2,0.6-0.2h3.4
				c0.2,0,0.5,0.2,0.8,0.5c0.3,0.4,1,0.7,2.1,0.7c0.9,0,1.3-0.2,1.3-0.7c0-0.3-0.3-0.5-0.8-0.7c-0.5-0.1-1.2-0.2-2-0.3
				c-0.8-0.1-1.5-0.2-2.3-0.4c-0.8-0.2-1.4-0.6-2-1.3c-0.5-0.6-0.8-1.5-0.8-2.6c0-1.3,0.6-2.4,1.8-3.2c1.2-0.8,2.7-1.2,4.7-1.2
				c1.9,0,3.4,0.4,4.6,1.1s1.9,1.7,2.2,2.8c0,0.2,0,0.4-0.1,0.5c-0.1,0.1-0.3,0.2-0.6,0.2h-3.4c-0.3,0-0.6-0.1-0.8-0.4
				c-0.3-0.5-0.9-0.7-1.8-0.7c-0.9,0-1.4,0.2-1.4,0.6c0,0.3,0.3,0.6,0.9,0.7c0.6,0.2,1.3,0.3,2.1,0.4c0.8,0.1,1.6,0.3,2.5,0.5
				c0.8,0.2,1.5,0.7,2.1,1.3s0.9,1.5,0.9,2.5c0,1.4-0.6,2.5-1.8,3.2C280,224.6,278.2,225,276,225z"/>
			<path class="st6" d="M287.4,210c-0.9,0-1.7-0.3-2.2-0.8c-0.6-0.5-0.9-1.2-0.9-2.1c0-0.8,0.3-1.5,0.9-2.1c0.6-0.6,1.3-0.8,2.2-0.8
				c0.9,0,1.6,0.3,2.2,0.8c0.6,0.6,0.9,1.2,0.9,2.1c0,0.8-0.3,1.5-0.9,2.1C289,209.8,288.3,210,287.4,210z M285.4,224.5
				c-0.5,0-0.7-0.2-0.7-0.7v-11.6c0-0.5,0.2-0.7,0.7-0.7h4.1c0.5,0,0.7,0.2,0.7,0.7v11.6c0,0.5-0.2,0.7-0.7,0.7H285.4z"/>
			<path class="st6" d="M310.2,223.9c0,0.4-0.2,0.7-0.6,0.8c-0.8,0.2-1.7,0.3-2.5,0.3c-1.9,0-3.2-0.6-3.9-1.7
				c-0.9,1.1-2.4,1.7-4.4,1.7c-2,0-3.7-0.6-4.9-1.9c-1.3-1.3-1.9-3-1.9-5.1c0-2.1,0.6-3.8,1.9-5.1s2.9-1.9,4.9-1.9
				c1.4,0,2.6,0.4,3.5,1.1v-6.3c0-0.5,0.2-0.7,0.7-0.7h4.1c0.5,0,0.7,0.2,0.7,0.7v13.5c0,0.4,0.1,0.7,0.2,0.8
				c0.1,0.2,0.3,0.2,0.6,0.2c0.2,0,0.3,0,0.4,0c0.5,0,0.7,0.2,0.8,0.6L310.2,223.9z M299.7,220.9c0.8,0,1.4-0.3,1.9-0.8
				c0.5-0.5,0.7-1.2,0.7-2.2c0-0.9-0.2-1.6-0.7-2.1c-0.5-0.5-1.1-0.8-1.9-0.8c-0.8,0-1.4,0.3-1.8,0.8c-0.5,0.5-0.7,1.3-0.7,2.1
				c0,0.9,0.2,1.6,0.7,2.1C298.4,220.7,299,220.9,299.7,220.9z"/>
			<path class="st6" d="M329.2,223.9c0.1,0.4-0.1,0.7-0.6,0.8c-1,0.2-1.8,0.3-2.4,0.3c-1.9,0-3.2-0.5-3.9-1.5
				c-1.2,1-2.7,1.5-4.5,1.5c-2,0-3.7-0.6-4.9-1.9c-1.3-1.3-1.9-3-1.9-5.1c0-2.1,0.6-3.8,1.9-5.1s2.9-1.9,4.9-1.9
				c1.6,0,2.8,0.4,3.8,1.3v-0.1c0-0.5,0.2-0.7,0.7-0.7h3.9c0.5,0,0.7,0.2,0.7,0.7v7c0,0.4,0.1,0.7,0.2,0.9c0.1,0.2,0.3,0.2,0.6,0.2
				c0.2,0,0.4,0,0.5,0c0.5,0,0.7,0.2,0.8,0.6L329.2,223.9z M318.8,220.9c0.8,0,1.4-0.3,1.9-0.8c0.5-0.5,0.7-1.2,0.7-2.2
				c0-0.9-0.2-1.6-0.7-2.1c-0.5-0.5-1.1-0.8-1.9-0.8c-0.8,0-1.4,0.3-1.8,0.8c-0.5,0.5-0.7,1.3-0.7,2.1c0,0.9,0.2,1.6,0.7,2.1
				C317.5,220.7,318.1,220.9,318.8,220.9z"/>
			<path class="st6" d="M348.4,223.9c0,0.4-0.2,0.7-0.6,0.8c-0.8,0.2-1.7,0.3-2.5,0.3c-1.9,0-3.2-0.6-3.9-1.7
				c-0.9,1.1-2.4,1.7-4.4,1.7c-2,0-3.7-0.6-4.9-1.9c-1.3-1.3-1.9-3-1.9-5.1c0-2.1,0.6-3.8,1.9-5.1s2.9-1.9,4.9-1.9
				c1.4,0,2.6,0.4,3.5,1.1v-6.3c0-0.5,0.2-0.7,0.7-0.7h4.1c0.5,0,0.7,0.2,0.7,0.7v13.5c0,0.4,0.1,0.7,0.2,0.8
				c0.1,0.2,0.3,0.2,0.6,0.2c0.2,0,0.3,0,0.4,0c0.5,0,0.7,0.2,0.8,0.6L348.4,223.9z M337.9,220.9c0.8,0,1.4-0.3,1.9-0.8
				c0.5-0.5,0.7-1.2,0.7-2.2c0-0.9-0.2-1.6-0.7-2.1c-0.5-0.5-1.1-0.8-1.9-0.8c-0.8,0-1.4,0.3-1.8,0.8c-0.5,0.5-0.7,1.3-0.7,2.1
				c0,0.9,0.2,1.6,0.7,2.1C336.6,220.7,337.2,220.9,337.9,220.9z"/>
			<path class="st6" d="M364.5,225c-2.4,0-4.4-0.5-6-1.6c-1.6-1-2.6-2.4-2.9-4.1c-0.1-0.2,0-0.4,0.1-0.5c0.1-0.1,0.3-0.2,0.6-0.2
				h4.4c0.3,0,0.6,0.2,0.8,0.5c0.4,0.9,1.4,1.4,2.9,1.4c1.3,0,1.9-0.4,1.9-1.1c0-0.4-0.2-0.7-0.6-0.9c-0.4-0.2-0.9-0.4-1.5-0.6
				c-0.6-0.1-1.3-0.3-2-0.4c-0.7-0.1-1.4-0.3-2.2-0.6c-0.7-0.3-1.4-0.6-2-1c-0.6-0.4-1.1-1-1.5-1.7c-0.4-0.7-0.6-1.6-0.6-2.6
				c0-1.8,0.7-3.3,2.2-4.3s3.4-1.6,5.8-1.6c1.3,0,2.6,0.2,3.7,0.6c1.2,0.4,2.2,1,3,1.8c0.8,0.8,1.4,1.8,1.6,2.9
				c0.1,0.2,0,0.4-0.1,0.6c-0.1,0.1-0.3,0.2-0.6,0.2h-4.4c-0.4,0-0.7-0.2-0.9-0.5c-0.3-0.7-1-1.1-2-1.1c-0.5,0-0.9,0.1-1.2,0.3
				c-0.3,0.2-0.5,0.5-0.5,0.9c0,0.4,0.2,0.7,0.6,1c0.4,0.3,0.9,0.5,1.5,0.6c0.6,0.1,1.3,0.3,2,0.4c0.7,0.1,1.4,0.3,2.2,0.6
				c0.7,0.3,1.4,0.6,2,1s1.1,0.9,1.5,1.7c0.4,0.7,0.6,1.6,0.6,2.6c0,1.8-0.8,3.3-2.3,4.4C368.9,224.5,366.9,225,364.5,225z"/>
			<path class="st6" d="M382,225c-2.3,0-4.2-0.6-5.6-1.9c-1.4-1.3-2.1-3-2.1-5.1s0.7-3.8,2-5.1c1.3-1.3,3.1-1.9,5.3-1.9
				c2.4,0,4.2,0.6,5.5,1.9c1.3,1.3,1.9,2.9,1.9,5v0.6c0,0.5-0.3,0.7-0.8,0.7h-8.8c0.3,1.3,1.2,1.9,2.6,1.9c0.6,0,1-0.2,1.4-0.5
				c0.4-0.3,0.7-0.4,0.9-0.4h3.7c0.3,0,0.5,0.1,0.6,0.2c0.1,0.1,0.1,0.3,0.1,0.6c-0.4,1.3-1.2,2.2-2.4,3S383.7,225,382,225z
				 M379.4,216.7h4.8c-0.1-0.6-0.3-1.1-0.8-1.4c-0.4-0.4-1-0.5-1.6-0.5c-0.6,0-1.1,0.2-1.6,0.5C379.8,215.6,379.5,216.1,379.4,216.7
				z"/>
			<path class="st6" d="M390.2,224.5c-0.3,0-0.5-0.1-0.6-0.2c-0.1-0.2-0.1-0.4,0.1-0.6l3.9-5.6l-3.9-5.8c-0.2-0.2-0.2-0.4-0.1-0.6
				c0.1-0.2,0.3-0.2,0.6-0.2h4.4c0.4,0,0.7,0.1,0.9,0.4l1.7,2.5l1.8-2.5c0.2-0.3,0.5-0.4,0.9-0.4h4.3c0.3,0,0.5,0.1,0.6,0.2
				c0.1,0.2,0.1,0.3-0.1,0.6l-3.9,5.8l3.9,5.5c0.2,0.2,0.2,0.4,0.1,0.6c-0.1,0.2-0.3,0.2-0.6,0.2h-4c-0.4,0-0.6-0.1-0.9-0.4l-2-2.9
				l-2.1,2.9c-0.2,0.3-0.5,0.4-0.9,0.4H390.2z"/>
			<path class="st6" d="M422.7,223.9c0.1,0.4-0.1,0.7-0.6,0.8c-0.8,0.2-1.6,0.3-2.4,0.3c-2,0-3.4-0.6-4.1-1.7
				c-1,1.1-2.5,1.7-4.3,1.7c-1.7,0-3-0.5-4-1.5s-1.5-2.3-1.5-4v-7.3c0-0.5,0.2-0.7,0.7-0.7h4.1c0.5,0,0.7,0.2,0.7,0.7v6.1
				c0,1.4,0.6,2,1.7,2c0.6,0,1-0.2,1.3-0.5c0.3-0.4,0.5-0.8,0.5-1.5v-6.1c0-0.5,0.2-0.7,0.7-0.7h4.1c0.5,0,0.7,0.2,0.7,0.7v7
				c0,0.4,0.1,0.7,0.2,0.9c0.1,0.2,0.3,0.2,0.6,0.2c0.2,0,0.3,0,0.4,0c0.5,0,0.7,0.2,0.8,0.6L422.7,223.9z"/>
			<path class="st6" d="M441.8,223.9c0.1,0.4-0.1,0.7-0.6,0.8c-1,0.2-1.8,0.3-2.4,0.3c-1.9,0-3.2-0.5-3.9-1.5
				c-1.2,1-2.7,1.5-4.5,1.5c-2,0-3.7-0.6-4.9-1.9c-1.3-1.3-1.9-3-1.9-5.1c0-2.1,0.6-3.8,1.9-5.1s2.9-1.9,4.9-1.9
				c1.6,0,2.8,0.4,3.8,1.3v-0.1c0-0.5,0.2-0.7,0.7-0.7h3.9c0.5,0,0.7,0.2,0.7,0.7v7c0,0.4,0.1,0.7,0.2,0.9c0.1,0.2,0.3,0.2,0.6,0.2
				c0.2,0,0.4,0,0.5,0c0.5,0,0.7,0.2,0.8,0.6L441.8,223.9z M431.4,220.9c0.8,0,1.4-0.3,1.9-0.8c0.5-0.5,0.7-1.2,0.7-2.2
				c0-0.9-0.2-1.6-0.7-2.1c-0.5-0.5-1.1-0.8-1.9-0.8c-0.8,0-1.4,0.3-1.8,0.8c-0.5,0.5-0.7,1.3-0.7,2.1c0,0.9,0.2,1.6,0.7,2.1
				C430,220.7,430.6,220.9,431.4,220.9z"/>
			<path class="st6" d="M448,225c-1.5,0-2.7-0.3-3.5-1c-0.8-0.6-1.3-1.5-1.3-2.7v-15.6c0-0.5,0.2-0.7,0.7-0.7h4.1
				c0.5,0,0.7,0.2,0.7,0.7v13.5c0,0.4,0.1,0.7,0.2,0.8c0.1,0.2,0.3,0.2,0.6,0.2c0.2,0,0.3,0,0.4,0c0.5,0,0.7,0.2,0.8,0.6l0.3,2.9
				c0,0.4-0.2,0.7-0.6,0.8C449.7,224.9,448.8,225,448,225z"/>
		</g>
	</g>
</g>
</svg>
