<svg xmlns="http://www.w3.org/2000/svg" viewBox="0 0 302.01 97.05"><defs><style>.cls-1{fill:#ff0441;}.cls-2{fill:#ffc600;}.cls-3{fill:#ff893a;}.cls-4{fill:#52dbff;}.cls-5{fill:#5f52d9;}.cls-6{fill:#31f4b3;}.cls-7{fill:#1d1d1b;}.cls-8{fill:#606060;}</style></defs><g id="Capa_2" data-name="Capa 2"><g id="Capa_1-2" data-name="Capa 1"><path class="cls-1" d="M141.35,47.89A69,69,0,0,0,131.41,29a71,71,0,0,0-15.24-15A72.49,72.49,0,0,0,97,4,73.92,73.92,0,0,0,74.75,0,74.82,74.82,0,0,0,32.64,11.73a72.43,72.43,0,0,0-16,13.87,68.71,68.71,0,0,0-11.23,18A67,67,0,0,0,.23,64.58C.08,66.38,0,68.25,0,70.13H.71l.18.67h0c.45-.12,1.39-.37,1.39-1.14a66.27,66.27,0,0,1,3.42-21,67.35,67.35,0,0,1,9.45-18.24A69.15,69.15,0,0,1,48.57,5.78,71.86,71.86,0,0,1,70.31,1.92,73,73,0,0,1,92.08,4.69a71.06,71.06,0,0,1,19.28,8.76,70,70,0,0,1,15.43,13.62,67.61,67.61,0,0,1,10.67,17.4,66,66,0,0,1,5,20.42c.13,1.7.2,3.46.2,5.24h.71l.18.67h0c.46-.12,1.4-.37,1.4-1.14A67.72,67.72,0,0,0,141.35,47.89Z"/><path class="cls-2" d="M124.75,53.7a57.06,57.06,0,0,0-8.17-13.85,56.48,56.48,0,0,0-11.66-11A55.53,55.53,0,0,0,74.28,18.71a56.83,56.83,0,0,0-16.57,2A56.17,56.17,0,0,0,42.93,27.1,57.14,57.14,0,0,0,16.66,66.15c-.22,1.32-.41,2.71-.54,4.1a.78.78,0,0,0,.79.84h.2c.58,0,1.35-.23,1.41-.9A55.67,55.67,0,0,1,30.05,41.27a54.85,54.85,0,0,1,11-10.65A53.46,53.46,0,0,1,54.8,23.4a52.28,52.28,0,0,1,15.59-2.93,53.56,53.56,0,0,1,30.23,8.12A55.39,55.39,0,0,1,121,51.27a55.77,55.77,0,0,1,4.83,15c.21,1.27.39,2.59.53,3.93,0,.14.14.82,1.18.71s1.27-.6,1.22-1A57,57,0,0,0,124.75,53.7Z"/><path class="cls-3" d="M133.28,50.3a69.31,69.31,0,0,0-9.49-16.68,67.21,67.21,0,0,0-13.56-13.24,63.93,63.93,0,0,0-16.65-8.75,63,63,0,0,0-19-3.49A64,64,0,0,0,38.1,18.26,66.81,66.81,0,0,0,23.91,30.47a69.23,69.23,0,0,0-10.52,16A70.77,70.77,0,0,0,7.56,65.29c-.26,1.6-.47,3.27-.63,4.95a.73.73,0,0,0,.31.68A1.29,1.29,0,0,0,8,71.1a2.55,2.55,0,0,0,.94-.19.94.94,0,0,0,.6-.77h0a69.74,69.74,0,0,1,4.42-18.77,68,68,0,0,1,9-16.23A65.54,65.54,0,0,1,35.84,22.25a61.47,61.47,0,0,1,16-8.73A59.2,59.2,0,0,1,70,10a60.67,60.67,0,0,1,18.64,2.25,61.86,61.86,0,0,1,16.64,7.57A64.74,64.74,0,0,1,119,31.66a67.56,67.56,0,0,1,10.16,15.57,69.62,69.62,0,0,1,5.64,18.12c.25,1.54.46,3.14.62,4.76a.78.78,0,0,0,.47.64,2.07,2.07,0,0,0,1.72-.22.86.86,0,0,0,.38-.79A71.23,71.23,0,0,0,133.28,50.3Z"/><path class="cls-4" d="M111.82,69.5l0-.16c-.07-.42-.18-1-.4-1.91l-.23-.82-.37-1.17a1.1,1.1,0,0,0,0-.77q-.09-.35-.33-1c-.14-.44-.39-1.06-.71-1.84l-.12-.31-.45-1-.22-.48c-.16-.34-.34-.69-.52-1-.09-.18-.19-.36-.28-.55-.19-.36-.4-.72-.6-1.07l-.32-.56v0q-.31-.53-.63-1l-.35-.56-1-1.48-1-1.3a41.08,41.08,0,0,0-12.52-11c-.47-.28-1-.52-1.41-.76l-.46-.23c-.23-.13-.46-.23-.68-.33L88.89,40l-.32-.16-.65-.29A40.45,40.45,0,0,0,75.8,36.51l-1.46-.11-1.87,0-1.84,0-.76,0a37.68,37.68,0,0,0-5.88.83A40,40,0,0,0,58.31,39,38.69,38.69,0,0,0,53,41.55,42.44,42.44,0,0,0,40.57,52.39a42.33,42.33,0,0,0-6.88,13.3l-.21.68-.12.43a1.46,1.46,0,0,1,0,.2L33,68.06v0c-.14.59-.22,1.06-.28,1.4l0,.09c-.11.6-.23,1.28.44,1.45l.19,0c.23,0,.54-.11.73-.65.08-.22.17-.55.32-1,0-.2.12-.41.19-.65a1,1,0,0,0,.43-.43l0-.05a.58.58,0,0,1-.4.25l.12-.41.41.09c0-.16.09-.32.13-.49s.16-.58.25-.86L36,65.44l.49-1.33c.07-.2.15-.4.25-.63l.28-.66a39.66,39.66,0,0,1,2.56-5l.07-.11c.24-.4.58-.95.92-1.48L41.43,55l.15-.2.08-.11a40.22,40.22,0,0,1,5.42-6.1,39.73,39.73,0,0,1,6.46-4.8,38.55,38.55,0,0,1,7.26-3.31,37.29,37.29,0,0,1,7.75-1.68l.48-.05,1.49-.11,1.34,0h.63l1,0h.35c.21,0,.42,0,.62,0l1,.07h.18l.29,0,.51.06a37.27,37.27,0,0,1,7.71,1.67,37.75,37.75,0,0,1,7.21,3.29,38.81,38.81,0,0,1,6.41,4.74h0l.4.38a40.49,40.49,0,0,1,8.77,12,52.81,52.81,0,0,1,2.1,5h0l.15.47c.09.29.17.56.25.84v0c.07.25.14.48.22.7s.18.6.26.86c.14.5.26.89.35,1.17s.35,1.05,1,.91S111.92,70.07,111.82,69.5Z"/><path class="cls-5" d="M102.67,69.67l0-.12c-.06-.33-.15-.81-.32-1.47l-.17-.63-.27-.85a1.19,1.19,0,0,0,0-.64c0-.17-.13-.44-.26-.78a14.69,14.69,0,0,0-.54-1.42l-.1-.24c-.1-.24-.22-.49-.34-.75l-.17-.36c-.12-.27-.26-.54-.4-.8l-.22-.43c-.14-.28-.3-.55-.45-.82s-.17-.28-.25-.43h0c-.16-.27-.32-.54-.48-.79l-.27-.42-.77-1.14-.73-1a31.37,31.37,0,0,0-9.63-8.43c-.36-.22-.72-.4-1.08-.58l-.35-.18c-.18-.1-.36-.18-.53-.26L85.05,47l-.25-.11-.5-.23a32,32,0,0,0-3-1.12A30.09,30.09,0,0,0,75,44.32l-1.11-.08-1.45,0-1.41,0-.58,0a29.6,29.6,0,0,0-4.53.64,30,30,0,0,0-8.48,3.29,32.65,32.65,0,0,0-9.51,8.33,33.47,33.47,0,0,0-3.23,5.13,32.87,32.87,0,0,0-2.06,5.09l-.16.52-.09.34a.83.83,0,0,1,0,.15l-.2.81v0c-.1.45-.17.81-.21,1.07l0,.07c-.08.45-.2,1.13.46,1.3l.17,0a.74.74,0,0,0,.72-.6c.07-.18.14-.43.25-.82l.13-.43a.94.94,0,0,0,.33-.35l0,0a.65.65,0,0,1-.31.24l.12-.4.31.07c0-.13.07-.26.11-.38s.11-.44.18-.65l.33-1,.38-1c0-.14.11-.3.19-.47l.21-.5a30,30,0,0,1,1.95-3.79l.05-.1.7-1.12.64-.94.11-.15.06-.08a31.55,31.55,0,0,1,4.12-4.64A30.54,30.54,0,0,1,58,50.19a29.38,29.38,0,0,1,5.51-2.51,27.71,27.71,0,0,1,5.89-1.27l.37,0,1.13-.08,1,0h.48l.75,0h.73l.78.06h.35l.39,0a28.06,28.06,0,0,1,11.34,3.77,29.25,29.25,0,0,1,4.88,3.61h0l.31.29a30.71,30.71,0,0,1,6.66,9.16,38.23,38.23,0,0,1,1.6,3.81l0,0c0,.12.07.24.11.36s.14.42.19.63v0c.06.18.11.36.17.53s.14.46.2.65c.11.39.2.69.27.91s.31.93,1,.8S102.74,70.09,102.67,69.67Z"/><path class="cls-6" d="M120.34,69.31l0-.21c-.09-.53-.22-1.33-.49-2.41l-.28-1-.47-1.56a1.21,1.21,0,0,0,0-.9c-.07-.29-.21-.73-.4-1.3s-.47-1.34-.86-2.33l-.15-.37v0l-.54-1.23-.27-.61c-.19-.43-.4-.86-.63-1.31-.11-.24-.23-.47-.35-.71-.23-.46-.48-.91-.72-1.35l-.39-.72v0c-.25-.44-.51-.88-.77-1.3l-.42-.71-1.22-1.88-1.16-1.64A50.54,50.54,0,0,0,96,33.74c-.56-.35-1.14-.66-1.7-1l-.57-.3c-.28-.16-.56-.29-.83-.42l-.37-.18-.4-.19-.78-.37a47.64,47.64,0,0,0-4.83-1.85,44.93,44.93,0,0,0-9.91-2l-1.78-.14-2.27-.06-2.24,0-.92.07a43.8,43.8,0,0,0-7.15,1.05,48.2,48.2,0,0,0-6.91,2.19,47,47,0,0,0-6.51,3.25,52.37,52.37,0,0,0-15,13.76,55.16,55.16,0,0,0-8.36,16.89l-.25.86c-.05.19-.1.37-.14.55a2.33,2.33,0,0,1-.07.25l-.33,1.35v0c-.16.74-.26,1.33-.34,1.76l0,.13c-.14.78-.25,1.45.44,1.62a.52.52,0,0,0,.18,0c.27,0,.56-.15.74-.71.1-.27.22-.71.39-1.32.08-.28.16-.59.26-.93a1,1,0,0,0,.52-.5l0-.07a.62.62,0,0,1-.48.26l.12-.4.49.11c.06-.21.11-.42.17-.63.1-.38.19-.74.3-1.1L27.94,64l.6-1.71c.08-.25.18-.51.31-.81l.33-.83a51.25,51.25,0,0,1,3.14-6.39l.09-.16c.3-.51.71-1.2,1.13-1.88l1-1.57.18-.26.1-.14a51.07,51.07,0,0,1,6.63-7.79,48.1,48.1,0,0,1,7.91-6.14,46.49,46.49,0,0,1,8.87-4.23A44.41,44.41,0,0,1,67.72,30l.59-.07,1.81-.13c.54,0,1.1,0,1.64-.05l.78,0,1.2,0h.41q.41,0,.78,0l1.23.09h.23l.36,0,.61.08a43.77,43.77,0,0,1,9.43,2.13,45.94,45.94,0,0,1,8.82,4.2,48.41,48.41,0,0,1,7.84,6.07h0l.06-.06,0,0-.06.06.47.47a51.55,51.55,0,0,1,10.73,15.38c1.13,2.44,1.93,4.61,2.56,6.4l.07,0h0c0,.21.12.41.18.61s.22.72.31,1.08v0q.15.48.27.9l.33,1.09c.17.63.31,1.13.42,1.49.17.52.38,1.18,1.05,1S120.45,70,120.34,69.31Z"/><path class="cls-5" d="M85.61,88.18A33.47,33.47,0,0,0,83,81.38l-.08-.17a12.85,12.85,0,0,1-4,3.41,31.86,31.86,0,0,0,3.45,5.2c1.35,1.59,2.43,2.3,3,2S86.1,90.21,85.61,88.18Z"/><path class="cls-5" d="M62.64,80.74l-.06.1a42.17,42.17,0,0,0-3,7c-.71,2.32-.61,3.29-.41,3.7l.19.36.4,0c.45-.06,1.3-.53,2.82-2.42.21-.25.41-.52.63-.81h0l.13-.18,0,0,.09-.11,0,.11c-.51,3.24-.49,5.58,0,6.27l.27.35.4-.17c.74-.3,1.81-2,2.89-4.67l.32.12,0-.42c.25,3.39.77,5.61,1.31,6.26l.44.53.45-.53c.52-.6,1.24-2.89,1.63-7.37h.15v-.07c.54,4.27,1.35,7.06,2,7.78l.48.52.41-.58c.56-.78,1-3.54,1-7.67l0,.06c1.5,5.09,2.59,6.32,2.89,6.58l.56.49.33-.67c.52-1,.45-4.87-.6-10.38a12.53,12.53,0,0,1-15.75-4.14Z"/><path class="cls-7" d="M84.89,69.6a6,6,0,1,1-8-8,12.58,12.58,0,1,0,1.49,23.27l.54-.26a12.85,12.85,0,0,0,4-3.41,12.53,12.53,0,0,0,2-11.61Z"/><path class="cls-8" d="M157.07,56.23a5.34,5.34,0,0,1-2.91-.75,3,3,0,0,1-1.43-2,.31.31,0,0,1,.05-.26.33.33,0,0,1,.27-.1h2.16a.48.48,0,0,1,.41.26q.31.66,1.41.66c.63,0,.95-.17.95-.52a.54.54,0,0,0-.28-.46,2.24,2.24,0,0,0-.71-.28c-.29-.06-.6-.13-1-.19A8.84,8.84,0,0,1,155,52.3a4.28,4.28,0,0,1-1-.47,2.21,2.21,0,0,1-.71-.82,2.84,2.84,0,0,1-.27-1.28,2.5,2.5,0,0,1,1.06-2.11,4.51,4.51,0,0,1,2.79-.8,5.58,5.58,0,0,1,1.81.28,3.81,3.81,0,0,1,1.46.88,2.73,2.73,0,0,1,.77,1.42.28.28,0,0,1-.05.27.41.41,0,0,1-.28.1h-2.15a.54.54,0,0,1-.45-.26,1,1,0,0,0-1-.53,1.13,1.13,0,0,0-.61.15.48.48,0,0,0-.23.42.56.56,0,0,0,.27.47,2,2,0,0,0,.71.28l1,.21a8.47,8.47,0,0,1,1,.28,4.76,4.76,0,0,1,1,.47,2.14,2.14,0,0,1,.71.8,2.71,2.71,0,0,1,.27,1.25A2.5,2.5,0,0,1,160,55.43,4.83,4.83,0,0,1,157.07,56.23Z"/><path class="cls-8" d="M163.48,49a1.52,1.52,0,0,1-1.08-.39,1.41,1.41,0,0,1,0-2,1.66,1.66,0,0,1,2.16,0,1.39,1.39,0,0,1,0,2A1.52,1.52,0,0,1,163.48,49Zm-1,7c-.24,0-.36-.11-.36-.34V50q0-.33.36-.33h2q.36,0,.36.33v5.64c0,.23-.12.34-.36.34Z"/><path class="cls-8" d="M169,56.23a4.61,4.61,0,0,1-2.34-.53,2,2,0,0,1-1.1-1.43.28.28,0,0,1,.05-.26.44.44,0,0,1,.28-.08h1.67a.62.62,0,0,1,.41.22,1.24,1.24,0,0,0,1,.32c.44,0,.65-.1.65-.32s-.13-.26-.39-.32a8.48,8.48,0,0,0-.95-.16,7.59,7.59,0,0,1-1.12-.21,1.8,1.8,0,0,1-.95-.62,1.85,1.85,0,0,1-.4-1.26,1.8,1.8,0,0,1,.87-1.56,4,4,0,0,1,2.27-.58,4.47,4.47,0,0,1,2.24.51,2.08,2.08,0,0,1,1.06,1.39.26.26,0,0,1-.07.25.38.38,0,0,1-.27.09h-1.65a.47.47,0,0,1-.38-.2,1,1,0,0,0-.86-.35c-.46,0-.68.1-.68.3s.14.27.42.35a8,8,0,0,0,1,.21,8.45,8.45,0,0,1,1.19.26,2.12,2.12,0,0,1,1,.64,1.78,1.78,0,0,1,.42,1.23,1.75,1.75,0,0,1-.88,1.57A4.87,4.87,0,0,1,169,56.23Z"/><path class="cls-8" d="M177.26,56.23a3.29,3.29,0,0,1-2.35-.77,3,3,0,0,1-.81-2.25V51.87h-.94c-.23,0-.35-.11-.35-.33V50c0-.22.12-.33.35-.33h.94V48.2c0-.22.11-.33.35-.33h2q.36,0,.36.33v1.48h1.63q.36,0,.36.33v1.53q0,.33-.36.33H176.8v1.24c0,.53.33.8,1,.8a4,4,0,0,0,.82-.09c.25,0,.39,0,.42.28l.19,1.51a.31.31,0,0,1-.27.39A6.08,6.08,0,0,1,177.26,56.23Z"/><path class="cls-8" d="M183.46,56.23a3.91,3.91,0,0,1-2.73-.93,3.21,3.21,0,0,1-1-2.47,3.24,3.24,0,0,1,1-2.46,4.2,4.2,0,0,1,5.26,0,3.33,3.33,0,0,1,.92,2.44v.27c0,.22-.13.33-.38.33h-4.27a1.17,1.17,0,0,0,1.27,1,1,1,0,0,0,.69-.25.84.84,0,0,1,.46-.19h1.79a.37.37,0,0,1,.27.1.31.31,0,0,1,0,.27,2.67,2.67,0,0,1-1.17,1.44A4,4,0,0,1,183.46,56.23Zm-1.24-4h2.31a1.13,1.13,0,0,0-.38-.7,1.18,1.18,0,0,0-.77-.26,1.19,1.19,0,0,0-.77.26A1.05,1.05,0,0,0,182.22,52.18Z"/><path class="cls-8" d="M196.78,49.44a2.71,2.71,0,0,1,2,.72,2.61,2.61,0,0,1,.74,1.93v3.56c0,.23-.12.34-.36.34h-2c-.24,0-.36-.11-.36-.34V52.7a1.2,1.2,0,0,0-.2-.73.66.66,0,0,0-.56-.25.64.64,0,0,0-.54.25,1.11,1.11,0,0,0-.19.71v3c0,.23-.12.34-.36.34h-2c-.24,0-.35-.11-.35-.34V52.7a1.2,1.2,0,0,0-.2-.73.77.77,0,0,0-1.14,0,1.11,1.11,0,0,0-.2.71v3c0,.23-.11.34-.35.34h-2c-.24,0-.36-.11-.36-.34V52.23a.83.83,0,0,0-.08-.42.42.42,0,0,0-.33-.1h-.13c-.24,0-.36-.08-.36-.28V50a.37.37,0,0,1,.28-.38,2.79,2.79,0,0,1,1.18-.19,2,2,0,0,1,1.71.77,2.73,2.73,0,0,1,2.14-.77,2.32,2.32,0,0,1,2,.85A2.52,2.52,0,0,1,196.78,49.44Z"/><path class="cls-8" d="M209.18,55.7a.32.32,0,0,1-.28.39,4.78,4.78,0,0,1-1.17.14,2.22,2.22,0,0,1-1.9-.74,3.34,3.34,0,0,1-2.19.74,3.18,3.18,0,0,1-2.39-.94,3.75,3.75,0,0,1,0-4.92,3.21,3.21,0,0,1,2.39-.93,2.6,2.6,0,0,1,1.83.62V50q0-.33.36-.33h1.88c.23,0,.35.11.35.33v3.42a.92.92,0,0,0,.07.44.33.33,0,0,0,.3.12h.23c.23,0,.35.09.38.29Zm-5.06-1.44a1.12,1.12,0,0,0,.9-.39,1.53,1.53,0,0,0,.33-1,1.56,1.56,0,0,0-.33-1,1.12,1.12,0,0,0-.9-.39,1.07,1.07,0,0,0-.88.4,1.48,1.48,0,0,0-.33,1,1.5,1.5,0,0,0,.33,1A1.07,1.07,0,0,0,204.12,54.26Z"/><path class="cls-8" d="M221.68,55.7a.34.34,0,0,1-.28.39,5,5,0,0,1-1.23.14,2.11,2.11,0,0,1-1.9-.81,2.62,2.62,0,0,1-2.13.81,3.22,3.22,0,0,1-2.4-.94,3.78,3.78,0,0,1,0-4.92,3.25,3.25,0,0,1,2.4-.93,2.71,2.71,0,0,1,1.72.52V46.9a.32.32,0,0,1,.36-.35h2a.31.31,0,0,1,.35.35v6.57a.66.66,0,0,0,.08.4A.37.37,0,0,0,221,54h.19c.23,0,.36.09.38.29Zm-5.07-1.44a1.12,1.12,0,0,0,.91-.39,1.53,1.53,0,0,0,.33-1,1.56,1.56,0,0,0-.33-1,1.12,1.12,0,0,0-.91-.39,1.1,1.1,0,0,0-.88.4,1.53,1.53,0,0,0-.33,1,1.55,1.55,0,0,0,.33,1A1.1,1.1,0,0,0,216.61,54.26Z"/><path class="cls-8" d="M226,56.23a3.89,3.89,0,0,1-2.72-.93,3.18,3.18,0,0,1-1-2.47,3.24,3.24,0,0,1,1-2.46,4.2,4.2,0,0,1,5.26,0,3.29,3.29,0,0,1,.92,2.44v.27c0,.22-.12.33-.38.33h-4.27a1.17,1.17,0,0,0,1.27,1,1,1,0,0,0,.69-.25.84.84,0,0,1,.46-.19H229a.35.35,0,0,1,.27.1.26.26,0,0,1,0,.27,2.67,2.67,0,0,1-1.17,1.44A4,4,0,0,1,226,56.23Zm-1.24-4h2.31a1.09,1.09,0,0,0-.38-.7,1.18,1.18,0,0,0-.77-.26,1.21,1.21,0,0,0-.77.26A1.05,1.05,0,0,0,224.75,52.18Z"/><path class="cls-8" d="M233.84,56a.31.31,0,0,1-.35-.34V47.41a.31.31,0,0,1,.35-.35h1.56a.5.5,0,0,1,.42.22L238.67,51l2.83-3.75a.55.55,0,0,1,.43-.22h1.56a.32.32,0,0,1,.37.35v8.24c0,.23-.13.34-.37.34h-2.1a.31.31,0,0,1-.35-.34V51.89L239.44,54a.49.49,0,0,1-.42.21h-.7a.54.54,0,0,1-.43-.21l-1.6-2.16v3.78A.3.3,0,0,1,236,56Z"/><path class="cls-8" d="M248.52,56.23a3.85,3.85,0,0,1-2.7-.93,3.21,3.21,0,0,1-1-2.47,3.17,3.17,0,0,1,1-2.46,3.85,3.85,0,0,1,2.7-.93,3.93,3.93,0,0,1,2.73.93,3.17,3.17,0,0,1,1,2.46,3.21,3.21,0,0,1-1,2.47A3.93,3.93,0,0,1,248.52,56.23Zm0-2.1a1.34,1.34,0,0,0,1-.36,1.27,1.27,0,0,0,.36-.94,1.25,1.25,0,0,0-.36-.94,1.34,1.34,0,0,0-1-.36,1.27,1.27,0,0,0-.94.36,1.25,1.25,0,0,0-.36.94,1.24,1.24,0,0,0,1.3,1.3Z"/><path class="cls-8" d="M258.11,49.44a2.75,2.75,0,0,1,2,.72,2.58,2.58,0,0,1,.76,1.93v3.56c0,.23-.12.34-.36.34h-2a.37.37,0,0,1-.26-.09.33.33,0,0,1-.1-.25V52.7a1.13,1.13,0,0,0-.22-.73.8.8,0,0,0-.64-.25.84.84,0,0,0-.65.25,1,1,0,0,0-.23.71v3a.31.31,0,0,1-.35.34h-2c-.24,0-.36-.11-.36-.34V52.23a.83.83,0,0,0-.08-.42.42.42,0,0,0-.33-.1h-.13c-.24,0-.36-.08-.36-.28V50a.37.37,0,0,1,.28-.38,2.79,2.79,0,0,1,1.18-.19,2,2,0,0,1,1.72.79A2.76,2.76,0,0,1,258.11,49.44Z"/><path class="cls-8" d="M263.32,49a1.53,1.53,0,0,1-1.09-.39,1.41,1.41,0,0,1,0-2,1.5,1.5,0,0,1,1.09-.4,1.48,1.48,0,0,1,1.07.4,1.39,1.39,0,0,1,0,2A1.52,1.52,0,0,1,263.32,49Zm-1,7c-.24,0-.36-.11-.36-.34V50q0-.33.36-.33h2q.36,0,.36.33v5.64c0,.23-.12.34-.36.34Z"/><path class="cls-8" d="M269.68,56.23a3.29,3.29,0,0,1-2.35-.77,3,3,0,0,1-.81-2.25V51.87h-.93q-.36,0-.36-.33V50q0-.33.36-.33h.93V48.2q0-.33.36-.33h2q.36,0,.36.33v1.48h1.63q.36,0,.36.33v1.53q0,.33-.36.33h-1.63v1.24c0,.53.33.8,1,.8a3.88,3.88,0,0,0,.82-.09c.25,0,.4,0,.42.28l.19,1.51a.31.31,0,0,1-.27.39A6.08,6.08,0,0,1,269.68,56.23Z"/><path class="cls-8" d="M275.8,56.23a3.85,3.85,0,0,1-2.7-.93,3.21,3.21,0,0,1-1-2.47,3.17,3.17,0,0,1,1-2.46,3.85,3.85,0,0,1,2.7-.93,3.93,3.93,0,0,1,2.73.93,3.17,3.17,0,0,1,1,2.46,3.21,3.21,0,0,1-1,2.47A3.93,3.93,0,0,1,275.8,56.23Zm0-2.1a1.34,1.34,0,0,0,1-.36,1.27,1.27,0,0,0,.36-.94,1.25,1.25,0,0,0-.36-.94,1.34,1.34,0,0,0-1-.36,1.27,1.27,0,0,0-.94.36,1.25,1.25,0,0,0-.36.94,1.24,1.24,0,0,0,1.3,1.3Z"/><path class="cls-8" d="M285.94,49.53a.32.32,0,0,1,.28.39l-.2,1.79a.29.29,0,0,1-.36.28,2.69,2.69,0,0,0-.65-.08,1.44,1.44,0,0,0-1,.31,1.18,1.18,0,0,0-.37.94v2.49a.31.31,0,0,1-.35.34h-2c-.24,0-.36-.11-.36-.34V52.23a.83.83,0,0,0-.08-.42.42.42,0,0,0-.33-.1h-.13c-.24,0-.36-.08-.36-.28V50a.37.37,0,0,1,.28-.38,2.79,2.79,0,0,1,1.18-.19,1.92,1.92,0,0,1,1.69.76,2.56,2.56,0,0,1,2-.76A2.27,2.27,0,0,1,285.94,49.53Z"/><path class="cls-8" d="M290.42,56.23a3.89,3.89,0,0,1-2.72-.93,3.18,3.18,0,0,1-1-2.47,3.24,3.24,0,0,1,1-2.46,4.2,4.2,0,0,1,5.26,0,3.29,3.29,0,0,1,.92,2.44v.27c0,.22-.12.33-.38.33h-4.27a1.17,1.17,0,0,0,1.27,1,1,1,0,0,0,.69-.25.84.84,0,0,1,.46-.19h1.79a.35.35,0,0,1,.27.1.26.26,0,0,1,0,.27,2.67,2.67,0,0,1-1.17,1.44A4,4,0,0,1,290.42,56.23Zm-1.24-4h2.31a1.09,1.09,0,0,0-.38-.7,1.18,1.18,0,0,0-.77-.26,1.21,1.21,0,0,0-.77.26A1.05,1.05,0,0,0,289.18,52.18Z"/><path class="cls-8" d="M298.26,56.23a3.85,3.85,0,0,1-2.7-.93,3.21,3.21,0,0,1-1-2.47,3.17,3.17,0,0,1,1-2.46,4.41,4.41,0,0,1,5.42,0,3.14,3.14,0,0,1,1,2.46,3.18,3.18,0,0,1-1,2.47A3.89,3.89,0,0,1,298.26,56.23Zm0-2.1a1.3,1.3,0,0,0,1-.36,1.24,1.24,0,0,0,.37-.94,1.22,1.22,0,0,0-.37-.94,1.3,1.3,0,0,0-1-.36,1.24,1.24,0,0,0-1.3,1.3,1.27,1.27,0,0,0,.36.94A1.25,1.25,0,0,0,298.26,54.13Z"/><path class="cls-8" d="M160.65,71.21a.15.15,0,0,1-.11.18,2.48,2.48,0,0,1-.74.12,1.21,1.21,0,0,1-1.33-1.05,2.76,2.76,0,0,1-2.22,1.05,3.08,3.08,0,0,1-2.25-.88,3,3,0,0,1-.91-2.21,3,3,0,0,1,.9-2.22,3.08,3.08,0,0,1,2.26-.88,2.58,2.58,0,0,1,2.07,1V62.34a.13.13,0,0,1,.15-.15h.77a.13.13,0,0,1,.15.15V69.9c0,.46.18.68.53.68a2,2,0,0,0,.48,0c.11,0,.17,0,.19.12Zm-4.39-.58a1.94,1.94,0,0,0,1.48-.63,2.21,2.21,0,0,0,.6-1.58,2.25,2.25,0,0,0-.6-1.59,2,2,0,0,0-1.48-.64,2,2,0,0,0-1.51.64,2.25,2.25,0,0,0-.6,1.59,2.22,2.22,0,0,0,.6,1.58A2,2,0,0,0,156.26,70.63Z"/><path class="cls-8" d="M164.39,71.51a3.18,3.18,0,0,1-2.31-.85,3.29,3.29,0,0,1,0-4.48,3,3,0,0,1,2.26-.86,2.91,2.91,0,0,1,2.2.86,3.07,3.07,0,0,1,.83,2.23v.15a1.16,1.16,0,0,0,0,.17.14.14,0,0,1-.15.11h-4.93a2.1,2.1,0,0,0,.71,1.32,2.15,2.15,0,0,0,1.43.5A1.75,1.75,0,0,0,166,70a.26.26,0,0,1,.18-.09H167c.13,0,.17.06.12.17a2.29,2.29,0,0,1-1,1.07A3.45,3.45,0,0,1,164.39,71.51Zm-2.16-3.44h4.05a2,2,0,0,0-.55-1.35,1.79,1.79,0,0,0-1.38-.55,2.13,2.13,0,0,0-1.46.53A2,2,0,0,0,162.23,68.07Z"/><path class="cls-8" d="M172.5,71.51a1.55,1.55,0,0,1-1.07-.35,1.26,1.26,0,0,1-.39-1V62.34a.13.13,0,0,1,.15-.15h.75a.13.13,0,0,1,.15.15V69.9c0,.46.18.68.53.68a2,2,0,0,0,.48,0c.11,0,.17,0,.19.12l.06.56a.15.15,0,0,1-.11.18A2.48,2.48,0,0,1,172.5,71.51Z"/><path class="cls-8" d="M181.45,71.21a.15.15,0,0,1-.11.18,2.43,2.43,0,0,1-.74.12,1.2,1.2,0,0,1-1.33-1,2.8,2.8,0,0,1-2.22,1,3.08,3.08,0,0,1-2.25-.88,3.16,3.16,0,0,1,0-4.43,3.08,3.08,0,0,1,2.26-.88,2.67,2.67,0,0,1,2.09,1v-.64a.13.13,0,0,1,.15-.15h.76a.13.13,0,0,1,.15.15v4.28c0,.44.18.66.52.66a2.23,2.23,0,0,0,.5,0c.09,0,.15,0,.17.12Zm-4.39-.58a1.94,1.94,0,0,0,1.48-.63,2.21,2.21,0,0,0,.6-1.58,2.25,2.25,0,0,0-.6-1.59,2,2,0,0,0-1.48-.64,2,2,0,0,0-1.51.64,2.25,2.25,0,0,0-.6,1.59,2.22,2.22,0,0,0,.6,1.58A2,2,0,0,0,177.06,70.63Z"/><path class="cls-8" d="M184.46,71.34c-.14,0-.17-.06-.12-.17l3.9-8.38a.15.15,0,0,1,.16-.11h.8a.17.17,0,0,1,.17.11l3.88,8.38c.06.11,0,.17-.11.17h-.87a.16.16,0,0,1-.16-.11l-1-2.28h-4.52l-1.06,2.28a.15.15,0,0,1-.16.11ZM187,68h3.7l-1.85-4Z"/><path class="cls-8" d="M199.83,65.49a.13.13,0,0,1,.15.15V71.5a2.66,2.66,0,0,1-.84,2,3.11,3.11,0,0,1-2.21.78,3.47,3.47,0,0,1-2-.55,2.37,2.37,0,0,1-1-1.48c0-.1,0-.16.13-.16h.78a.15.15,0,0,1,.16.13,1.55,1.55,0,0,0,.7.84,2.38,2.38,0,0,0,1.24.32,2,2,0,0,0,1.45-.53,1.89,1.89,0,0,0,.55-1.4v-1a2.57,2.57,0,0,1-2.11,1,3.05,3.05,0,0,1-2.24-.88,3.18,3.18,0,0,1,0-4.43,3.05,3.05,0,0,1,2.24-.88,2.63,2.63,0,0,1,2.11,1v-.65c0-.1,0-.15.14-.15Zm-3,5.14a2,2,0,0,0,1.48-.63,2.27,2.27,0,0,0,.6-1.58,2.29,2.29,0,0,0-.6-1.59,2,2,0,0,0-1.48-.64,2,2,0,0,0-1.51.64,2.21,2.21,0,0,0-.61,1.59,2.19,2.19,0,0,0,.61,1.58A2,2,0,0,0,196.85,70.63Z"/><path class="cls-8" d="M204.29,71.51a3.16,3.16,0,0,1-2.3-.85,3.29,3.29,0,0,1,0-4.48,3,3,0,0,1,2.26-.86,2.91,2.91,0,0,1,2.2.86,3.07,3.07,0,0,1,.83,2.23,1,1,0,0,1,0,.15v.17a.16.16,0,0,1-.15.11h-4.93a2.06,2.06,0,0,0,.71,1.32,2.12,2.12,0,0,0,1.42.5,1.73,1.73,0,0,0,1.57-.69.26.26,0,0,1,.19-.09h.82c.13,0,.17.06.12.17a2.33,2.33,0,0,1-1,1.07A3.46,3.46,0,0,1,204.29,71.51Zm-2.15-3.44h4a2,2,0,0,0-.54-1.35,1.82,1.82,0,0,0-1.39-.55,2.11,2.11,0,0,0-1.45.53A2,2,0,0,0,202.14,68.07Z"/><path class="cls-8" d="M212.2,65.32a2.52,2.52,0,0,1,1.89.73A2.63,2.63,0,0,1,214.8,68v3.21c0,.1-.05.15-.16.15h-.75a.13.13,0,0,1-.15-.15V68a1.82,1.82,0,0,0-.47-1.3,1.7,1.7,0,0,0-1.28-.49,1.91,1.91,0,0,0-1.41.55A1.88,1.88,0,0,0,210,68.2v3a.13.13,0,0,1-.15.15h-.75a.13.13,0,0,1-.15-.15V66.92c0-.45-.19-.68-.58-.68a2.37,2.37,0,0,0-.42.05q-.18,0-.18-.12V65.6a.16.16,0,0,1,.13-.17,1.85,1.85,0,0,1,.69-.11,1.33,1.33,0,0,1,.85.27,1.29,1.29,0,0,1,.44.75A2.7,2.7,0,0,1,212.2,65.32Z"/><path class="cls-8" d="M223.24,71.21a.15.15,0,0,1-.11.18,2.54,2.54,0,0,1-.74.12,1.2,1.2,0,0,1-1.33-1.05,2.76,2.76,0,0,1-2.22,1.05,3.08,3.08,0,0,1-2.25-.88,3,3,0,0,1-.91-2.21,3,3,0,0,1,.9-2.22,3.08,3.08,0,0,1,2.26-.88,2.58,2.58,0,0,1,2.07,1V62.34a.13.13,0,0,1,.15-.15h.77a.13.13,0,0,1,.15.15V69.9c0,.46.17.68.53.68a2,2,0,0,0,.48,0c.11,0,.17,0,.19.12Zm-4.39-.58a1.94,1.94,0,0,0,1.48-.63,2.21,2.21,0,0,0,.6-1.58,2.25,2.25,0,0,0-.6-1.59,2,2,0,0,0-1.48-.64,2,2,0,0,0-1.51.64,2.25,2.25,0,0,0-.61,1.59,2.23,2.23,0,0,0,.61,1.58A2,2,0,0,0,218.85,70.63Z"/><path class="cls-8" d="M231.34,71.21a.15.15,0,0,1-.11.18,2.43,2.43,0,0,1-.74.12,1.19,1.19,0,0,1-1.33-1,2.8,2.8,0,0,1-2.22,1,3.08,3.08,0,0,1-2.25-.88,3,3,0,0,1-.91-2.21,3,3,0,0,1,.9-2.22,3.08,3.08,0,0,1,2.26-.88,2.67,2.67,0,0,1,2.09,1v-.64c0-.1.05-.15.14-.15h.77a.13.13,0,0,1,.15.15v4.28c0,.44.17.66.52.66a2.09,2.09,0,0,0,.49,0,.14.14,0,0,1,.18.12ZM227,70.63a1.94,1.94,0,0,0,1.48-.63,2.21,2.21,0,0,0,.6-1.58,2.25,2.25,0,0,0-.6-1.59,2,2,0,0,0-1.48-.64,2,2,0,0,0-1.51.64,2.21,2.21,0,0,0-.61,1.59,2.19,2.19,0,0,0,.61,1.58A2,2,0,0,0,227,70.63Z"/><path class="cls-8" d="M236.08,70.41h4.74a.13.13,0,0,1,.15.15v.63a.13.13,0,0,1-.15.15h-5.68a.13.13,0,0,1-.15-.15V62.83a.13.13,0,0,1,.15-.15h.79a.13.13,0,0,1,.15.15Z"/><path class="cls-8" d="M245.92,71.51a4.6,4.6,0,0,1-3.33-1.25A4.39,4.39,0,0,1,241.31,67a4.3,4.3,0,0,1,1.3-3.24,4.6,4.6,0,0,1,3.33-1.25,4.76,4.76,0,0,1,2.71.78,3.7,3.7,0,0,1,1.54,2c0,.1,0,.16-.13.16h-.88a.2.2,0,0,1-.17-.11A2.55,2.55,0,0,0,247.88,64a3.56,3.56,0,0,0-1.94-.52,3.57,3.57,0,0,0-2.53,6,3.41,3.41,0,0,0,2.51,1,3.12,3.12,0,0,0,2.13-.77,3,3,0,0,0,1-1.91h-3.16c-.11,0-.16,0-.16-.15V67c0-.1.05-.15.16-.15h4.21a.13.13,0,0,1,.15.15,4.47,4.47,0,0,1-1.2,3.26A4.2,4.2,0,0,1,245.92,71.51Z"/><path class="cls-8" d="M251.93,71.34a.13.13,0,0,1-.15-.15V62.83a.13.13,0,0,1,.15-.15h3.77a3.34,3.34,0,0,1,2.08.59,1.87,1.87,0,0,1,.77,1.56,2,2,0,0,1-.41,1.26,2.18,2.18,0,0,1-1.1.74v0a2.41,2.41,0,0,1,1.46.74A2,2,0,0,1,259,69a2,2,0,0,1-.9,1.68,4.06,4.06,0,0,1-2.38.63Zm.94-4.84h2.52a2.57,2.57,0,0,0,1.55-.42,1.34,1.34,0,0,0,.57-1.12,1.16,1.16,0,0,0-.51-1,2.42,2.42,0,0,0-1.42-.36h-2.71Zm0,3.92h2.86a2.8,2.8,0,0,0,1.59-.4,1.32,1.32,0,0,0,.05-2.19,2.67,2.67,0,0,0-1.53-.4h-3Z"/><path class="cls-8" d="M266.87,62.68a.13.13,0,0,1,.15.15v.66c0,.09,0,.14-.15.14h-3.12v7.56a.13.13,0,0,1-.15.15h-.79a.13.13,0,0,1-.15-.15V63.63h-3.11c-.1,0-.15-.05-.15-.14v-.66a.13.13,0,0,1,.15-.15Z"/><path class="cls-8" d="M270.86,70.13a.13.13,0,0,1-.15-.15V67.79h-2.38a.13.13,0,0,1-.15-.15V67a.13.13,0,0,1,.15-.15h2.38V64.67a.13.13,0,0,1,.15-.15h.73a.13.13,0,0,1,.15.15v2.19h2.39a.13.13,0,0,1,.15.15v.63a.13.13,0,0,1-.15.15h-2.39V70a.13.13,0,0,1-.15.15Z"/><path class="cls-7" d="M160.32,40.69a10.77,10.77,0,0,1-5.78-1.46,5.84,5.84,0,0,1-2.87-3.83.6.6,0,0,1,.13-.58.73.73,0,0,1,.56-.21h4.72a1.12,1.12,0,0,1,.92.55,2.52,2.52,0,0,0,2.17.81c.89,0,1.34-.21,1.34-.64s-.23-.63-.69-.84A6.19,6.19,0,0,0,159.1,34a15.88,15.88,0,0,1-2.23-.51,12.54,12.54,0,0,1-2.22-.89,4.32,4.32,0,0,1-1.72-1.68,5.28,5.28,0,0,1-.69-2.78A4.94,4.94,0,0,1,154.37,24,9.05,9.05,0,0,1,160,22.4a10.4,10.4,0,0,1,5.22,1.31A5.48,5.48,0,0,1,168,27.42c.1.53-.15.79-.74.79h-4.72a1.2,1.2,0,0,1-1-.54,1.53,1.53,0,0,0-1.33-.62c-.71,0-1.06.24-1.06.72s.23.63.69.85a6,6,0,0,0,1.72.48,14.59,14.59,0,0,1,2.22.52,13.89,13.89,0,0,1,2.22.89,4.27,4.27,0,0,1,1.72,1.66,5.21,5.21,0,0,1,.69,2.76,4.9,4.9,0,0,1-2.22,4.18A9.94,9.94,0,0,1,160.32,40.69Z"/><path class="cls-7" d="M173,26.83a3.25,3.25,0,0,1-2.33-.86,3,3,0,0,1,0-4.31,3.64,3.64,0,0,1,4.65,0,3,3,0,0,1,0,4.31A3.26,3.26,0,0,1,173,26.83Z"/><path class="cls-7" d="M170.8,40.2c-.53,0-.79-.25-.79-.74V28.58c0-.49.26-.74.79-.74h4.32c.53,0,.8.25.8.74V39.46c0,.49-.27.74-.8.74Z"/><path class="cls-7" d="M178.68,40.2c-.52,0-.79-.25-.79-.74V23.64c0-.49.27-.74.79-.74h3.44a1.22,1.22,0,0,1,.94.47l5.14,6.25,5.14-6.25a1.27,1.27,0,0,1,1-.47h3.44c.52,0,.79.25.79.74V39.46c0,.49-.27.74-.79.74h-4.55c-.53,0-.79-.25-.79-.74v-6.4l-2.57,3.08a1.19,1.19,0,0,1-.94.47h-1.36a1.24,1.24,0,0,1-1-.47L184,33.06v6.4a.66.66,0,0,1-.76.74Z"/><path class="cls-7" d="M200.21,40.2a.58.58,0,0,1-.62-.87l6.75-15.86a.85.85,0,0,1,.89-.57h4.54a.92.92,0,0,1,.92.57l6.72,15.86a.63.63,0,0,1,0,.63.68.68,0,0,1-.59.24H214a.94.94,0,0,1-.92-.6l-.54-1.5h-6L206,39.6a.93.93,0,0,1-.89.6Zm8-6.6h2.66l-1.33-3.78Z"/><path class="cls-7" d="M226.57,38.39h9.55a.26.26,0,0,1,.29.29V40a.26.26,0,0,1-.29.3H224.68a.27.27,0,0,1-.3-.3V23.14a.27.27,0,0,1,.3-.3h1.59a.27.27,0,0,1,.3.3Z"/><path class="cls-7" d="M245.7,40.6A9.17,9.17,0,0,1,239,38.08a8.75,8.75,0,0,1-2.59-6.56A8.64,8.64,0,0,1,239,25a9.27,9.27,0,0,1,6.72-2.52,9.47,9.47,0,0,1,5.43,1.58,7.35,7.35,0,0,1,3.1,4.06c.05.22,0,.32-.25.32h-1.77a.39.39,0,0,1-.35-.22,5.21,5.21,0,0,0-2.27-2.71,7.19,7.19,0,0,0-3.89-1,6.78,6.78,0,0,0-7.07,7,6.91,6.91,0,0,0,2,5.09,6.8,6.8,0,0,0,5,2A6.2,6.2,0,0,0,250,37,6.13,6.13,0,0,0,252,33.19h-6.37c-.21,0-.32-.1-.32-.3V31.57c0-.2.11-.3.32-.3h8.48a.27.27,0,0,1,.3.3A9,9,0,0,1,252,38.12,8.46,8.46,0,0,1,245.7,40.6Z"/><path class="cls-7" d="M257.76,40.25a.27.27,0,0,1-.3-.3V23.14a.27.27,0,0,1,.3-.3h7.59A6.69,6.69,0,0,1,269.52,24a3.74,3.74,0,0,1,1.54,3.14,4,4,0,0,1-.8,2.53A4.41,4.41,0,0,1,268,31.17v.08a4.93,4.93,0,0,1,3,1.48,4.14,4.14,0,0,1,1,2.87,3.93,3.93,0,0,1-1.8,3.38,8.15,8.15,0,0,1-4.79,1.27Zm1.89-9.72h5.07a5.08,5.08,0,0,0,3.11-.86A2.69,2.69,0,0,0,269,27.42a2.33,2.33,0,0,0-1-2,4.84,4.84,0,0,0-2.86-.74h-5.45Zm0,7.88h5.75a5.61,5.61,0,0,0,3.2-.82,2.52,2.52,0,0,0,1.22-2.21,2.56,2.56,0,0,0-1.13-2.18,5.18,5.18,0,0,0-3.07-.81h-6Z"/><path class="cls-7" d="M287.78,22.84a.27.27,0,0,1,.3.3v1.32a.27.27,0,0,1-.3.3h-6.27V40a.27.27,0,0,1-.3.3h-1.59a.27.27,0,0,1-.3-.3V24.76h-6.26a.27.27,0,0,1-.3-.3V23.14a.27.27,0,0,1,.3-.3Z"/><path class="cls-7" d="M295.15,37.81a.26.26,0,0,1-.3-.29V33.11h-4.8a.26.26,0,0,1-.3-.29V31.55a.27.27,0,0,1,.3-.3h4.8v-4.4a.27.27,0,0,1,.3-.3h1.46a.27.27,0,0,1,.3.3v4.4h4.8a.27.27,0,0,1,.3.3v1.27a.26.26,0,0,1-.3.29h-4.8v4.41a.26.26,0,0,1-.3.29Z"/></g></g></svg>