<svg xmlns="http://www.w3.org/2000/svg" viewBox="0 0 33 40.98"><defs><style>.cls-1{fill:#3c3e3e;}</style></defs><g id="Capa_2" data-name="Capa 2"><g id="Capa_1-2" data-name="Capa 1"><path class="cls-1" d="M32.38,35.25,23,21.12v0c.16-.18.3-.38.44-.57a5,5,0,0,0,.34-.46c.1-.14.19-.29.28-.44s.27-.43.4-.66.08-.18.13-.27c.15-.29.29-.59.42-.89v0a13.1,13.1,0,0,0,.73-2.35A13.56,13.56,0,0,0,26,13v0c0-.33,0-.66,0-1a2.81,2.81,0,0,0,0-.29c0-.26-.07-.52-.11-.78s0-.33-.07-.49-.1-.39-.14-.58-.11-.45-.18-.68-.08-.24-.13-.37A8.22,8.22,0,0,0,25,8c0-.06-.05-.11-.07-.16a12.62,12.62,0,0,0-1.1-2,13.16,13.16,0,0,0-1.57-1.92.12.12,0,0,1,0-.05c-.27-.26-.54-.52-.83-.76l-.27-.21c-.22-.17-.45-.35-.68-.51L20,2.06c-.2-.13-.4-.26-.61-.38l-.5-.26c-.19-.1-.39-.2-.6-.29S17.94,1,17.75.91L17.13.68,16.57.51,16.28.42h-.09c-.2,0-.41-.11-.62-.15A13,13,0,0,0,10.64.21s0,0-.05,0l-.4.1L9.53.47,9,.64l-.6.21-.56.23a6.28,6.28,0,0,0-.59.27l-.51.26c-.09,0-.18.09-.27.15s0,0-.06.05c-.19.11-.38.21-.56.33a12.79,12.79,0,0,0-3.5,3.41s0,0-.05,0l-.06.1L2,6c-.16.25-.33.51-.47.78l-.05.1a12.55,12.55,0,0,0-1.22,3.4A12.74,12.74,0,0,0,0,12.6c0,.06,0,.12,0,.18,0,.3,0,.58,0,.87,0,.14,0,.28,0,.42s.05.44.09.67.05.4.09.6.07.31.11.46.12.53.2.79c0,.09.06.16.09.24A12.48,12.48,0,0,0,2.15,20,13,13,0,0,0,4.48,22.6a1.54,1.54,0,0,1,.19.17c.21.17.44.33.66.49l.38.28a5.74,5.74,0,0,0,.53.32c.19.12.38.24.59.35l.37.18c.26.13.52.26.79.37l.18.07a12.64,12.64,0,0,0,2.22.66,13.28,13.28,0,0,0,2.33.25h.17c.3,0,.6,0,.9,0a2.55,2.55,0,0,0,.39,0c.24,0,.47-.06.71-.09l.57-.09.51-.12c.25-.06.5-.11.75-.19h0l9.43,14.13a3.76,3.76,0,0,0,5.16,1A3.69,3.69,0,0,0,32.38,35.25ZM7,3.85c.25-.16.5-.3.75-.44l.43-.23L8.62,3l.48-.2.49-.17.49-.15.54-.13a11.19,11.19,0,0,1,4.54-.05c.28.06.56.14.84.22a3.68,3.68,0,0,1,.47.15c.18.05.35.12.52.18l.46.19.5.24.42.22.51.32.35.22.57.43.23.18q.36.3.69.63l.05,0A10.91,10.91,0,0,1,23,8.62l.06.13c.1.23.17.46.25.7s.08.21.11.31.1.38.15.57l.12.49.06.4c0,.22.07.45.09.67a1.77,1.77,0,0,1,0,.23,10.69,10.69,0,0,1-.8,4.9h0c-.11.26-.23.51-.36.76,0,.07-.07.14-.1.22l-.34.56c-.08.12-.15.25-.23.36s-.19.26-.28.39-.25.33-.38.48-.13.15-.19.22l-.35.37c-.22.23-.45.44-.68.64l-.23.2a8.33,8.33,0,0,1-.67.5l-.52.34c-.23.14-.47.29-.71.41l-.29.14q-.4.2-.84.36l-.52.19-.24.08-.64.16-.42.1-.49.07c-.2,0-.4.07-.59.08l-.32,0c-.26,0-.51,0-.77,0h-.13a11,11,0,0,1-3.84-.77l-.14-.05-.67-.32-.31-.14c-.17-.09-.33-.2-.49-.29s-.31-.18-.45-.28a3.55,3.55,0,0,1-.31-.23A6,6,0,0,1,6,21.19l-.14-.13A10.87,10.87,0,0,1,2.6,16.19c0-.07-.05-.12-.07-.19-.07-.22-.12-.45-.17-.67s-.07-.25-.09-.38,0-.34-.08-.51-.06-.38-.08-.56,0-.24,0-.35a5.94,5.94,0,0,1,0-.73v-.15A10.88,10.88,0,0,1,3.33,7.82s0,0,0,0c.13-.24.27-.46.41-.69l.15-.24A10.73,10.73,0,0,1,7,3.85ZM30.19,38.66a1.67,1.67,0,0,1-2.3-.47L18.7,24.43l.11-.06.39-.2c.32-.17.63-.35.92-.54l0,0h0c.3-.2.58-.41.87-.64l.33-.27.1-.08,9.18,13.77A1.64,1.64,0,0,1,30.19,38.66Z"/></g></g></svg>
