<svg xmlns="http://www.w3.org/2000/svg" viewBox="0 0 44.5 28.66"><defs><style>.cls-1{fill:#3c3e3e;}</style></defs><g id="Capa_2" data-name="Capa 2"><g id="Capa_1-2" data-name="Capa 1"><path class="cls-1" d="M44.46,23.5c-.85-3.22-1.71-6.36-2.54-9.4s-1.69-6.17-2.53-9.39v0l0,0C36.07,2.49,31.91,0,28.85,0,26.78,0,25.61,1.16,25,3.46v0A3.92,3.92,0,0,1,28.79.91c2.73,0,6.34,2.17,9.84,4.53l3.86,16.23c-2.77-1-4.18-1.45-6.84-1.45-5.53,0-9.78,2-12.33,5.58l-.92-20-.12-2.94h-.07L22.1,5.79l-.92,20c-2.6-3.6-6.8-5.58-12.34-5.58-2.65,0-4.06.5-6.83,1.45L5.87,5.44C9.36,3.08,13,.91,15.71.91a3.92,3.92,0,0,1,3.76,2.6v0C18.89,1.16,17.71,0,15.64,0,12.59,0,8.43,2.49,5.15,4.66l0,0v0c-.84,3.22-1.7,6.36-2.53,9.39S.88,20.28,0,23.5l0,.15.15,0a23.19,23.19,0,0,1,7.22-1.28c5.41,0,9.51,3,13.06,6.34h3.64c3.55-3.32,7.65-6.34,13.06-6.34a23.24,23.24,0,0,1,7.22,1.28l.15,0Z"/></g></g></svg>
