<svg xmlns="http://www.w3.org/2000/svg" viewBox="0 0 34.96 34.67"><defs><style>.cls-1{fill:#3c3e3e;}</style></defs><g id="Capa_2" data-name="Capa 2"><g id="Capa_1-2" data-name="Capa 1"><path class="cls-1" d="M35,33.24c0,.59-.47,1.43-1.06,1.43H1.44A1.81,1.81,0,0,1,0,33.24V1.06C0,.47.86,0,1.44,0S2.89.47,2.89,1.06V31.81h31C34.49,31.81,35,32.66,35,33.24ZM6,27.11a1.27,1.27,0,0,0,1.7-.49L10.77,21a6.89,6.89,0,0,1,.69-1,3.47,3.47,0,0,0,1.33.26,3.39,3.39,0,0,0,2.67-1.31,3.7,3.7,0,0,0,3.52,1c1.81-.48,3.32-2.3,4.15-5l1-3.32c.13-.4.26-.76.39-1.1a3.43,3.43,0,0,0,1.07.18,3.16,3.16,0,0,0,.92-.14l1.09,2.31a1.28,1.28,0,0,0,1.14.71,1.25,1.25,0,0,0,.54-.12,1.24,1.24,0,0,0,.59-1.66L28.55,8.94A3.28,3.28,0,0,0,29,7.27a3.41,3.41,0,1,0-6.46,1.5,13.55,13.55,0,0,0-.81,2.07l-1,3.33c-.67,2.14-1.68,3.11-2.4,3.3a1.16,1.16,0,0,1-1.16-.38,5,5,0,0,0-1-.7,3.4,3.4,0,0,0-6.77.46,3.25,3.25,0,0,0,.29,1.36,9.23,9.23,0,0,0-1.1,1.58l-3.1,5.63A1.23,1.23,0,0,0,6,27.11Z"/></g></g></svg>
