<svg xmlns="http://www.w3.org/2000/svg" viewBox="0 0 36.86 37.92"><defs><style>.cls-1{fill:#3c3e3e;}</style></defs><g id="Capa_2" data-name="Capa 2"><g id="Capa_1-2" data-name="Capa 1"><path class="cls-1" d="M24.25,5.09l7.47,7.39-17.22,17-.13.11a14,14,0,0,0-3.22-3.94,18,18,0,0,0-4.41-3.2A2,2,0,0,1,7,22.13ZM28.74.65,26.18,3.18l7.46,7.4L36.21,8a2.23,2.23,0,0,0,0-3.16L31.93.65A2.28,2.28,0,0,0,28.74.65Zm-19.65,27a14.72,14.72,0,0,0-4.36-3.09S3.23,28,2.26,31.05a9.52,9.52,0,0,1,3.46,3.52c3-1.19,6.46-3,6.46-3S11.79,30.19,9.09,27.67ZM.7,33.12c-.58,1.81-.94,3.44-.51,3.75S2,36.74,3.63,36.1A8,8,0,0,0,.7,33.12Zm30.72,3H8.69l-4,1.84H28.23Z"/></g></g></svg>
