<svg xmlns="http://www.w3.org/2000/svg" viewBox="0 0 32.45 44.13"><defs><style>.cls-1{fill:#3c3e3e;}</style></defs><g id="Capa_2" data-name="Capa 2"><g id="Capa_1-2" data-name="Capa 1"><path class="cls-1" d="M30.53,11.26c0-.13,0-.22-.09-.25L30,10.73c-.24-.16-.57-.37-.92-.56L29,10.08c.05-.16.08-.31.11-.45s.06-.38.08-.5,0-.19,0-.19,0-.07,0-.2,0-.3,0-.51a3.8,3.8,0,0,0,0-.46l.16-.06c.37-.13.73-.27,1-.39l.45-.21c.06,0,.11-.09.13-.22a1.26,1.26,0,0,0,0-.5l0-.19c0-.09,0-.18,0-.18a2,2,0,0,0-.1-.26,1.57,1.57,0,0,0-.12-.19c-.08-.1-.17-.15-.23-.13l-.5,0c-.29,0-.67.08-1.06.15l-.17,0-.21-.42a4.5,4.5,0,0,0-.27-.44.88.88,0,0,1-.07-.12l0,0-.12-.15-.13-.18-.09-.11-.1-.11c-.09-.11-.2-.22-.32-.34l.09-.15c.19-.33.38-.67.51-.94s.12-.24.15-.32l.06-.12c0-.05,0-.15,0-.26a1.31,1.31,0,0,0-.35-.36l-.3-.23a1.26,1.26,0,0,0-.46-.2c-.13,0-.23,0-.26.05l-.35.35c-.2.21-.47.5-.71.8l-.12.14-.42-.19a4.4,4.4,0,0,0-.48-.16l-.19-.06h-.05l-.14,0L24,2,23.7,2l-.46-.05,0-.17c-.06-.38-.15-.77-.22-1s-.12-.48-.12-.48-.08-.13-.2-.17a1.25,1.25,0,0,0-.5-.06l-.38,0a1.72,1.72,0,0,0-.48.14c-.11.07-.18.14-.16.21s0,.2,0,.49,0,.69,0,1.07c0,.06,0,.12,0,.18l-.45.13-.47.18L20,2.51l-.05,0-.13.06-.19.1-.25.15L19.07,3l-.1.07L18.84,3c-.29-.25-.61-.49-.84-.66L17.6,2s-.14,0-.27,0l-.2.1L17,2.21l-.1.09-.14.13a.75.75,0,0,0-.09.09l-.05,0-.17.22a1.24,1.24,0,0,0-.1.2c-.05.12-.05.22,0,.26s.11.17.29.4.41.55.66.85l.12.13c-.1.14-.18.27-.26.39s-.19.33-.24.44l-.07.13,0,0-.08.18a.63.63,0,0,1,0,.09s0,.07,0,.11-.07.17-.1.27-.09.29-.13.45h-.17c-.39,0-.78,0-1.07,0l-.5,0c-.06,0-.14,0-.2.16l-.09.21a2.56,2.56,0,0,0,0,.27l0,.19,0,.19a1.22,1.22,0,0,0,0,.27,1.19,1.19,0,0,0,.05.22c0,.13.11.2.18.2l.47.13c.29.07.67.15,1.06.22l.17,0c0,.16,0,.32.05.46l.06.28,0,.12,0,.1,0,.19a.16.16,0,0,0,0,0,1.27,1.27,0,0,1,0,.14c0,.12.09.29.17.48a3.15,3.15,0,0,0,.19.43l-.14.11c-.3.25-.58.51-.8.71l-.35.35c-.06,0-.07.13,0,.26a1,1,0,0,0,.06.21,1.49,1.49,0,0,0,.14.24l0,.05.07.11.11.16a.76.76,0,0,0,.08.11l.1.09a.73.73,0,0,0,.18.14c.11.07.21.09.26.05L17,13.5A9.18,9.18,0,0,0,18,13l.15-.09.09.09c.09.08.17.17.25.23s.15.14.22.19l.18.14.11.08,0,0,.16.11.44.26.42.21,0,.17c-.07.38-.13.77-.16,1.06s0,.49,0,.49,0,.14.13.23a1.5,1.5,0,0,0,.44.22l.37.11a1.48,1.48,0,0,0,.5,0c.13,0,.21-.07.22-.14s.09-.17.21-.44.27-.64.39-1l.06-.17.46,0h.71l.19,0,.51-.08c.14,0,.29-.06.45-.11a1.09,1.09,0,0,1,.08.15c.19.34.4.67.57.92s.28.4.28.4.11.09.25.09A1.25,1.25,0,0,0,26.1,16l.35-.15a1.33,1.33,0,0,0,.4-.29c.09-.1.12-.19.09-.25a.93.93,0,0,0,0-.13c0-.09,0-.2-.09-.35s-.21-.65-.34-1l-.07-.16a4.43,4.43,0,0,0,.37-.28l.12-.09.1-.09.17-.15.14-.14,0,0,.09-.11a5.07,5.07,0,0,0,.34-.38l.28-.37.16.06,1,.34.48.13c.06,0,.15,0,.25-.09a1.29,1.29,0,0,0,.15-.17,1.76,1.76,0,0,0,.14-.23l.09-.17.08-.17A1.25,1.25,0,0,0,30.53,11.26Zm-4.46.66L26,12l-.08.07-.09.07a3.53,3.53,0,0,1-.35.25l-.07,0-.17.11-.09.05-.1,0-.1.06-.11,0-.12.05-.1.05-.2.07-.14,0-.05,0-.08,0a4.19,4.19,0,0,1-.42.1l-.38.06h-.68l-.44,0h-.13l-.15,0h-.1l-.11,0-.11,0-.12,0-.12,0-.11,0-.2-.07-.14,0,0,0h0l-.08,0-.39-.19-.33-.2-.12-.08,0,0-.09-.06-.13-.1L19.5,12l-.31-.3s0-.05-.06-.07L19,11.52c-.08-.1-.18-.22-.28-.36a5.51,5.51,0,0,1-.34-.56.25.25,0,0,0,0-.07c-.07-.14-.13-.28-.18-.4s-.1-.27-.12-.36a.3.3,0,0,1,0-.11v0a1,1,0,0,1,0-.14.24.24,0,0,0,0-.08s0-.06,0-.09,0-.13,0-.21,0-.28-.05-.44V8.54a.74.74,0,0,1,0-.15V8.18c0-.08,0-.16,0-.24l0-.24a2.11,2.11,0,0,0,0-.21,1.31,1.31,0,0,0,0-.15l0,0s0,0,0-.08.08-.3.12-.42.05-.14.07-.2l0-.09,0-.07a.87.87,0,0,1,.06-.13v0l.05-.09c0-.09.11-.2.19-.34s.15-.23.24-.36l0-.06s.2-.26.43-.5l.34-.3.16-.13.06-.05a2.8,2.8,0,0,1,.36-.24l.19-.11L20.52,4l.1,0h0l.13-.06.36-.14.42-.12h.14l.14,0,.21,0h1l.44,0,.22,0,.16,0,.11,0h0l.14,0,.37.13a3.09,3.09,0,0,1,.39.17L25,4l.06,0,.12.07.19.11.1.06.1.07.1.07.09.08.09.06a.46.46,0,0,0,.07.07l.16.13.06.06a4.24,4.24,0,0,1,.3.31l.08.09.06.08.11.13.08.12,0,0a.35.35,0,0,1,.06.09A2.18,2.18,0,0,1,27,6a3.13,3.13,0,0,1,.2.41.14.14,0,0,1,0,.06l0,0a1,1,0,0,1,.06.14l.07.2c0,.07,0,.15.07.23s0,.16,0,.23,0,.15,0,.21l0,.2s0,0,0,.07,0,.31,0,.44,0,.3,0,.39,0,.15,0,.15a.72.72,0,0,1,0,.14,2.49,2.49,0,0,1-.06.39c0,.13-.06.27-.1.43l0,.06s0,.08-.06.2l-.08.19a2,2,0,0,1-.09.22l-.11.22a1.45,1.45,0,0,1-.1.18,1.05,1.05,0,0,1-.08.13l0,0,0,.05c-.09.14-.18.26-.26.37l-.26.29-.07.08,0,0Zm-3.87-8a4.52,4.52,0,1,0,5.07,3.93A4.53,4.53,0,0,0,22.2,3.88Zm1,8.38a3.92,3.92,0,1,1,3.45-4.37A3.95,3.95,0,0,1,23.23,12.26ZM17.71,38.83c0-.13,0-.22-.09-.25l-.41-.28c-.25-.16-.58-.37-.92-.56l-.15-.09c0-.16.08-.31.11-.45s.06-.38.07-.5l0-.19v-.2c0-.12,0-.3,0-.51s0-.3,0-.46l.16-.06c.37-.13.73-.27,1-.39l.44-.21c.07,0,.12-.09.14-.22a1.47,1.47,0,0,0,0-.5l0-.19c0-.09-.05-.18-.05-.18a2,2,0,0,0-.1-.26,1.57,1.57,0,0,0-.12-.19c-.09-.1-.17-.15-.23-.13l-.5.05c-.29,0-.68.08-1.06.15l-.17,0a4.1,4.1,0,0,0-.21-.42l-.27-.44-.08-.12,0,0-.11-.15a1,1,0,0,0-.14-.18l-.08-.11-.1-.11c-.09-.11-.2-.22-.32-.34l.09-.15c.19-.33.38-.67.51-.94l.15-.32.05-.12s0-.15,0-.26a1.27,1.27,0,0,0-.34-.37L14.55,29a1.16,1.16,0,0,0-.45-.2c-.14,0-.23,0-.26,0a4.61,4.61,0,0,0-.35.35c-.21.21-.47.5-.72.8l-.11.14a3.7,3.7,0,0,0-.42-.19c-.2-.08-.37-.13-.49-.17l-.18,0h-.05l-.14,0-.22,0-.28-.05-.47-.06a.88.88,0,0,0,0-.16c-.07-.39-.15-.77-.22-1.06l-.12-.47c0-.07-.08-.13-.21-.17a1.2,1.2,0,0,0-.49-.06l-.38,0a1.72,1.72,0,0,0-.48.14c-.12.07-.18.14-.17.21s0,.19,0,.49,0,.69,0,1.07a1.09,1.09,0,0,0,0,.18l-.45.13L7.33,30l-.17.08,0,0L7,30.16l-.19.1-.25.15c-.1.05-.19.12-.29.18l-.1.07L6,30.55c-.3-.25-.61-.49-.84-.67l-.4-.28c0-.05-.15-.05-.27,0l-.2.1-.11.08-.1.09L4,30l-.1.09,0,0-.17.21a1.06,1.06,0,0,0-.11.21c0,.12,0,.22,0,.26s.11.17.28.4.42.55.67.85l.12.13c-.1.14-.19.27-.26.39s-.19.33-.25.44-.05.1-.06.13l0,.05L4,33.38a.39.39,0,0,0,0,.09s0,.07,0,.11-.07.17-.1.27a4.07,4.07,0,0,0-.13.45H3.46c-.39,0-.77,0-1.07,0l-.49,0c-.07,0-.14.05-.2.16a2.2,2.2,0,0,0-.09.21,1.86,1.86,0,0,0-.05.27l0,.19v.19a1.22,1.22,0,0,0,0,.27,1.19,1.19,0,0,0,.05.22c0,.13.1.2.17.2l.48.13,1,.22.18,0c0,.17,0,.33,0,.46s0,.2,0,.29l0,.12a.36.36,0,0,0,0,.1l0,.18a.18.18,0,0,0,0,0l0,.14a3.59,3.59,0,0,0,.17.48c0,.13.11.28.18.43l-.13.11c-.3.24-.59.51-.8.71l-.35.35c-.06,0-.07.12,0,.26l.07.21c0,.08.08.16.13.24l0,.05a.49.49,0,0,0,.07.11l.1.16.09.11.09.09.18.14c.12.07.22.09.27,0l.44-.21c.26-.12.61-.31,1-.51l.15-.09.08.09.26.23c.08.07.15.14.22.19l.17.14.12.08,0,0,.16.11c.11.06.25.16.44.26l.42.21a1,1,0,0,0,0,.17c-.07.38-.12.77-.15,1.06s0,.49,0,.49,0,.14.12.23a1.71,1.71,0,0,0,.45.22l.37.11a1.47,1.47,0,0,0,.5,0c.13,0,.21-.07.22-.14s.09-.17.21-.44.26-.64.39-1l.06-.17.46,0h.71l.19,0,.51-.08c.13,0,.29-.06.45-.11a1.09,1.09,0,0,0,.08.15c.19.34.4.67.57.92s.28.4.28.4.11.09.24.09a1.25,1.25,0,0,0,.49-.12l.35-.15a1.48,1.48,0,0,0,.4-.29c.09-.1.12-.2.09-.25l0-.13a2.89,2.89,0,0,0-.1-.35c-.08-.28-.2-.66-.34-1l-.06-.16L14,41l.12-.1.1-.08.17-.15.14-.14,0,0,.1-.11c.09-.09.2-.22.34-.38s.18-.24.28-.38l.15.07c.37.13.74.25,1,.33l.48.14c.06,0,.15,0,.25-.09a1.29,1.29,0,0,0,.15-.17,1.76,1.76,0,0,0,.14-.23l.09-.17.08-.17A1.29,1.29,0,0,0,17.71,38.83Zm-4.46.66-.12.12-.08.07-.09.07a3.53,3.53,0,0,1-.35.25l-.07,0-.18.11-.08.05-.1,0-.11.06-.11,0-.11,0-.11.05-.19.07-.14,0-.06,0-.08,0-.41.1-.38.06H9.8l-.44,0-.08,0H9.22l-.14,0H9l-.11,0-.12,0-.11,0-.12,0-.11,0-.2-.07-.14,0,0,0H8l-.08,0-.39-.19L7.22,40l-.12-.08,0,0L7,39.85l-.13-.1-.17-.14-.31-.3-.06-.07-.13-.15c-.08-.1-.19-.23-.28-.36a5.51,5.51,0,0,1-.34-.56.43.43,0,0,0,0-.07c-.07-.14-.13-.28-.18-.4s-.1-.27-.12-.36l0-.11v0s0-.06,0-.15a.64.64,0,0,1,0-.07.29.29,0,0,0,0-.09,1.18,1.18,0,0,1,0-.21c0-.13,0-.28-.05-.44v-.13S5,36,5,36s0-.14,0-.21,0-.16,0-.24l0-.24q0-.12,0-.21a1.31,1.31,0,0,0,0-.15v0l0-.08a2.32,2.32,0,0,1,.12-.42c0-.08.05-.14.07-.2l0-.09a.21.21,0,0,0,0-.07l.06-.13,0,0,0-.09c0-.09.1-.2.18-.34A3.38,3.38,0,0,1,6,33L6,33a5.14,5.14,0,0,1,.43-.5l.33-.3.16-.13L7,32a2.8,2.8,0,0,1,.36-.24l.19-.11.15-.08.09-.05h0L8,31.45l.36-.14.42-.12.08,0h0l.15,0,.21,0h1l.44.05.21,0,.17,0,.1,0h0l.14,0a2.82,2.82,0,0,1,.37.13,3.09,3.09,0,0,1,.39.17l.07,0,0,0,.13.07.18.11.1.06.1.07.1.07.1.07.08.07.08.07.15.13.07,0,.3.32.07.09a.27.27,0,0,1,.07.08.91.91,0,0,1,.1.13l.09.12,0,0a.35.35,0,0,1,.06.09,3.5,3.5,0,0,1,.2.33,3.13,3.13,0,0,1,.2.41l0,.06,0,0a.64.64,0,0,1,.06.14l.07.2c0,.07,0,.15.07.23l.05.23c0,.08,0,.15,0,.21l0,.2s0,0,0,.07,0,.31,0,.44,0,.3,0,.39v.15s0,.05,0,.14,0,.23-.06.39-.06.27-.1.43l0,.06s0,.08-.06.2l-.08.19-.09.22-.11.22c0,.06-.07.13-.1.18l-.08.13,0,0,0,.06a2.81,2.81,0,0,1-.27.36,3.26,3.26,0,0,1-.25.3l-.07.07,0,0Zm-3.88-8a4.52,4.52,0,1,0,5.08,3.93A4.53,4.53,0,0,0,9.37,31.45Zm1,8.38a3.92,3.92,0,1,1,3.44-4.37A4,4,0,0,1,10.41,39.83Zm21.66-11c0-.13,0-.23-.09-.25l-.41-.28c-.24-.16-.57-.37-.92-.56l-.15-.09c0-.16.08-.31.11-.45s.06-.38.07-.5l0-.2v-.19c0-.12,0-.3,0-.51a3.8,3.8,0,0,0,0-.46l.16-.06c.37-.13.73-.27,1-.39l.44-.21c.07,0,.12-.09.14-.23a1.21,1.21,0,0,0,0-.49l0-.19c0-.09,0-.18,0-.18a1.29,1.29,0,0,0-.22-.45C32,23,31.93,23,31.87,23l-.5,0c-.29,0-.67.09-1.06.16l-.17,0c-.07-.15-.14-.29-.21-.41s-.2-.34-.27-.44a.88.88,0,0,1-.07-.12l0,0-.12-.16a1.53,1.53,0,0,0-.14-.17.76.76,0,0,0-.08-.11l-.1-.11c-.09-.11-.2-.22-.32-.34l.09-.15c.19-.33.38-.68.51-.94l.15-.32a.52.52,0,0,1,.06-.12s0-.15-.05-.27a1.39,1.39,0,0,0-.34-.36L28.91,19a1.16,1.16,0,0,0-.45-.2c-.13,0-.23,0-.26,0s-.15.13-.35.34-.47.51-.71.81l-.12.13-.42-.18-.48-.17-.19,0h-.05l-.14,0-.22,0-.28-.05c-.14,0-.3,0-.46-.06l0-.17c-.07-.38-.15-.76-.22-1.05l-.12-.47c0-.07-.08-.13-.2-.17a1.27,1.27,0,0,0-.5-.06l-.38,0a1.44,1.44,0,0,0-.48.14c-.12.07-.18.14-.17.21s0,.19,0,.49,0,.68,0,1.07c0,.06,0,.12,0,.18l-.45.13-.48.18-.17.08-.05,0-.13.07-.19.1-.25.14-.29.19-.1.07-.13-.11c-.29-.25-.61-.5-.84-.67l-.4-.28c-.05-.05-.15-.05-.27,0a1.36,1.36,0,0,0-.2.11l-.11.08-.1.09-.14.13-.1.09,0,0-.17.21a.75.75,0,0,0-.1.2c-.05.13-.05.23,0,.27l.28.4c.18.24.42.55.67.85l.12.13c-.1.13-.18.27-.26.39a4.3,4.3,0,0,0-.24.44l-.07.13,0,.05-.08.17,0,.1s0,.07,0,.11-.07.17-.1.27a3.88,3.88,0,0,0-.13.44h-.17c-.4,0-.78,0-1.08,0l-.49,0c-.06,0-.14.06-.2.17l-.09.21a1.86,1.86,0,0,0-.05.27l0,.19,0,.18a1.31,1.31,0,0,0,0,.28,1.19,1.19,0,0,0,0,.22c0,.13.11.2.17.2l.48.13c.29.07.67.15,1.06.21l.17,0c0,.17,0,.32.05.46s0,.2.05.29l0,.12s0,.06,0,.09l.05.19a.18.18,0,0,0,0,0s0,.08,0,.14a4.16,4.16,0,0,0,.17.48c.05.13.11.28.18.43l-.13.11c-.3.24-.58.5-.8.71s-.35.35-.35.35-.07.12-.05.25,0,.14.07.22a1.49,1.49,0,0,0,.14.24l0,.05.07.11.11.16a.76.76,0,0,0,.08.11l.1.09a1,1,0,0,0,.17.14c.12.07.22.09.27,0l.44-.21a10.33,10.33,0,0,0,1-.51l.15-.09.08.09.26.23.22.19.17.13.12.09,0,0,.16.11.44.26c.12.07.27.14.42.21,0,.05,0,.11,0,.17-.07.38-.12.77-.15,1.06s0,.49,0,.49,0,.14.13.23a1.5,1.5,0,0,0,.44.22l.37.11a1.47,1.47,0,0,0,.5,0c.13,0,.21-.07.22-.14l.21-.44c.12-.28.26-.64.39-1l.06-.16.46,0H25l.51-.08.45-.11.08.15a10.6,10.6,0,0,0,.57.91c.16.25.28.4.28.4s.11.1.25.1a1.25,1.25,0,0,0,.48-.12l.35-.15a1.48,1.48,0,0,0,.4-.29c.09-.11.12-.2.09-.25a1,1,0,0,1,0-.14c0-.08-.05-.2-.09-.34s-.21-.66-.34-1a1.22,1.22,0,0,1-.07-.17,4,4,0,0,0,.37-.27l.12-.1.1-.09a.86.86,0,0,0,.17-.15l.14-.13,0,0,.1-.1a5.07,5.07,0,0,0,.34-.38c.09-.11.18-.24.28-.38l.16.06c.36.14.73.26,1,.34l.48.13c.06,0,.15,0,.25-.08a1.29,1.29,0,0,0,.15-.17,1.38,1.38,0,0,0,.14-.24l.09-.16.08-.18A1.21,1.21,0,0,0,32.07,28.83Zm-4.46.66a1.35,1.35,0,0,1-.12.12l-.08.06-.09.08L27,30l-.07,0-.18.11-.08.05-.1.05-.1.06-.12.05-.11.05-.11,0-.19.08-.14,0-.06,0-.07,0c-.15.05-.3.08-.42.11l-.38.06h-.68l-.44,0-.08,0h-.05l-.15,0h-.1l-.11,0-.11,0-.12,0-.12,0-.11,0-.2-.07-.14-.05,0,0h0l-.08,0-.39-.19-.33-.2-.12-.09,0,0-.09-.06-.13-.1L21,29.61l-.31-.3a.2.2,0,0,0-.06-.07l-.13-.15c-.08-.1-.19-.23-.28-.36a5.51,5.51,0,0,1-.34-.56.43.43,0,0,0,0-.07c-.07-.14-.13-.28-.18-.4a3.8,3.8,0,0,1-.12-.37.22.22,0,0,1,0-.1.08.08,0,0,1,0,0l0-.15a.25.25,0,0,0,0-.07s0-.06,0-.09a1.43,1.43,0,0,1,0-.22,4.28,4.28,0,0,1-.05-.43v-.13a.74.74,0,0,1,0-.15v-.21c0-.08,0-.16,0-.25l0-.24,0-.2c0-.07,0-.11,0-.15a.21.21,0,0,0,0-.06s0-.05,0-.07a3.56,3.56,0,0,1,.12-.42c0-.08.05-.14.07-.21l0-.08,0-.07a1.11,1.11,0,0,1,.05-.13l0,0,.05-.09a2.07,2.07,0,0,1,.19-.34,2.25,2.25,0,0,1,.24-.36l.05-.06a5.14,5.14,0,0,1,.43-.5l.34-.3.16-.13.06-.06a4.18,4.18,0,0,1,.36-.23l.19-.11.15-.08.1-.05h0l.13-.07.36-.13a2.58,2.58,0,0,1,.42-.12l.08,0h.05l.15,0,.21,0,.11,0h.86l.44.05.21,0,.17,0,.1,0h0l.14,0c.09,0,.22.06.37.12l.39.18.07,0,.05,0,.13.08a.87.87,0,0,1,.18.11l.1.06.1.07.1.07.1.07.09.07.07.07a1.31,1.31,0,0,1,.16.13l.06,0,.3.32a.6.6,0,0,0,.08.08l.06.09a.91.91,0,0,1,.1.13l.09.12,0,0a.35.35,0,0,1,.06.09,3.5,3.5,0,0,1,.2.33,3,3,0,0,1,.2.4.25.25,0,0,1,0,.07l0,.05a.64.64,0,0,1,.06.14l.07.2c0,.07,0,.15.07.23s0,.15.05.23a1.55,1.55,0,0,1,0,.21l0,.2a.15.15,0,0,1,0,.07c0,.16,0,.31,0,.44s0,.29,0,.39,0,.14,0,.14,0,.06,0,.15,0,.23-.06.38-.06.28-.1.44l0,.06s0,.08-.06.2l-.08.19-.09.22c0,.07-.07.15-.11.22l-.1.18-.08.13,0,0,0,.06a4.28,4.28,0,0,1-.26.36,2.92,2.92,0,0,1-.26.29l-.07.08,0,0Zm-3.88-8a4.52,4.52,0,1,0,5.08,3.93A4.52,4.52,0,0,0,23.73,21.45Zm1,8.38a3.92,3.92,0,1,1,3.45-4.37A3.94,3.94,0,0,1,24.77,29.83ZM16.2,21.35c0-.13,0-.23-.1-.25l-.4-.28c-.25-.16-.58-.37-.92-.56l-.15-.09c0-.16.08-.31.1-.45a5.08,5.08,0,0,0,.08-.51c0-.12,0-.19,0-.19a1.49,1.49,0,0,0,0-.19,4,4,0,0,0,0-.51c0-.14,0-.3,0-.47L15,17.8c.37-.13.72-.28,1-.4s.45-.2.45-.2.12-.1.14-.23a1.29,1.29,0,0,0,0-.5l0-.18,0-.19a1.45,1.45,0,0,0-.09-.25,1,1,0,0,0-.13-.19c-.08-.11-.17-.16-.23-.13l-.49,0c-.29,0-.68.09-1.06.16l-.18,0-.2-.41c-.11-.19-.2-.34-.27-.44l-.08-.12,0,0-.11-.16-.14-.17-.09-.11-.1-.12-.31-.33a1.09,1.09,0,0,1,.08-.15c.2-.33.38-.68.51-.94l.16-.32.05-.13c0-.05,0-.14,0-.26a1.59,1.59,0,0,0-.34-.36L13,11.48a1.41,1.41,0,0,0-.46-.21c-.13,0-.23,0-.26.05l-.34.35c-.21.22-.47.51-.72.81l-.11.13-.43-.18c-.19-.08-.36-.13-.48-.17l-.19,0H10l-.13,0-.22-.05-.29,0L8.9,12l0-.17c-.06-.38-.14-.76-.21-1.05s-.13-.47-.13-.47-.07-.13-.2-.18a1.42,1.42,0,0,0-.49-.05l-.38,0a1.14,1.14,0,0,0-.48.14c-.12.06-.18.14-.17.2s0,.2,0,.49,0,.69,0,1.08v.18a3.88,3.88,0,0,0-.44.13,4.62,4.62,0,0,0-.48.18l-.18.08,0,0-.13.07-.2.1L5,12.92l-.29.19-.1.07-.12-.11c-.3-.25-.61-.5-.85-.67l-.4-.28s-.14-.06-.26,0a1.36,1.36,0,0,0-.2.11l-.11.08a.87.87,0,0,0-.11.09l-.14.13-.09.09,0,0a1,1,0,0,0-.17.21,1.36,1.36,0,0,0-.11.2q-.07.19,0,.27l.29.4c.18.24.41.55.67.84l.11.14c-.09.13-.18.26-.25.38s-.2.34-.25.45l-.06.13s0,0,0,0l-.08.18,0,.09,0,.12c0,.08-.07.17-.1.27s-.09.28-.13.44H2c-.39,0-.78,0-1.07,0l-.49,0c-.07,0-.14.05-.21.17a1,1,0,0,0-.08.21,1.08,1.08,0,0,0,0,.27s0,.09,0,.18l0,.19a2.26,2.26,0,0,0,0,.27,1.32,1.32,0,0,0,0,.23c0,.12.1.2.17.2l.48.12c.29.07.66.16,1.05.22l.18,0c0,.17,0,.32.05.46s0,.2.05.28l0,.12,0,.1c0,.12,0,.19,0,.19l0,.05,0,.14c0,.12.09.28.16.48l.19.43-.13.1c-.3.25-.59.51-.8.72l-.35.34c-.06,0-.08.13-.05.26a1.11,1.11,0,0,0,.07.22,1.41,1.41,0,0,0,.13.24l0,0,.07.11.11.15.09.11.09.1a1.1,1.1,0,0,0,.18.14c.11.07.21.08.26,0l.45-.21c.26-.13.61-.31.94-.51L3.79,23l.08.09.25.23.22.19.18.13.12.09,0,0,.16.11c.1.06.25.16.44.26l.41.21,0,.16c-.07.38-.12.77-.15,1.07l0,.48c0,.07,0,.15.13.24A1.57,1.57,0,0,0,6,26.5l.36.11a1.48,1.48,0,0,0,.5,0c.13,0,.22-.07.23-.14s.09-.18.2-.45.27-.63.4-1l.06-.16.46,0h.9l.5-.08.45-.11.09.15c.19.33.4.67.56.91l.28.4c0,.07.12.1.25.1a1.29,1.29,0,0,0,.49-.12l.34-.15a1.24,1.24,0,0,0,.41-.3c.08-.1.12-.19.08-.25l0-.13c0-.08-.06-.2-.1-.34s-.2-.66-.34-1l-.06-.17.37-.27.12-.1.1-.09c.06-.06.12-.1.16-.15L13,23l0,0,.1-.1.34-.39c.08-.11.18-.23.27-.37l.16.06c.37.14.74.26,1,.34l.47.13c.06,0,.16,0,.25-.09a1.21,1.21,0,0,0,.16-.16,2.55,2.55,0,0,0,.14-.24L16,22l.08-.17A1.4,1.4,0,0,0,16.2,21.35ZM11.74,22l-.13.11-.07.07-.09.07-.35.26-.07,0-.18.11-.09,0-.09.05-.11.05-.11.06-.11.05-.11,0-.2.08-.14.05H9.84l-.08,0a2.53,2.53,0,0,1-.42.1A2.24,2.24,0,0,1,9,23.3l-.14,0H8.28l-.44,0H7.71l-.15,0-.09,0-.11,0-.12,0a.53.53,0,0,1-.12,0l-.12,0-.11,0L6.69,23,6.55,23l0,0h0l-.07,0a3.5,3.5,0,0,1-.39-.2c-.14-.07-.25-.15-.33-.19l-.12-.09,0,0-.08-.06-.14-.11-.16-.14a2.74,2.74,0,0,1-.31-.29l-.06-.07-.14-.16a3.93,3.93,0,0,1-.27-.35,3.77,3.77,0,0,1-.34-.57l0-.06-.18-.4c-.06-.15-.1-.28-.13-.37a.62.62,0,0,0,0-.1.1.1,0,0,1,0,0l0-.14,0-.07s0-.06,0-.09,0-.14,0-.22,0-.27,0-.43v-.5c0-.07,0-.15,0-.24l0-.24,0-.21a1.06,1.06,0,0,1,0-.14v-.06a.17.17,0,0,0,0-.07q.06-.24.12-.42l.08-.21,0-.08,0-.07L4,16.38l0,0s0-.06,0-.1.11-.2.19-.33a3.45,3.45,0,0,1,.25-.37l0-.06A4.23,4.23,0,0,1,4.93,15a4.09,4.09,0,0,1,.33-.3l.16-.13.07-.06.36-.24L6,14.16l.15-.07.1-.05,0,0L6.45,14c.09,0,.21-.09.36-.13a3.49,3.49,0,0,1,.42-.13h.13l.15,0,.2,0,.12,0h.86l.44.05.21,0,.17,0,.1,0h0l.14,0,.36.12.4.18.07,0,.05,0,.13.08.18.1.1.07.1.07.1.07.09.07.09.07.08.06.15.14.06.05c.12.11.22.22.31.32l.07.08.07.08.1.14.09.12,0,0,.06.09c0,.07.12.19.2.33s.13.25.2.4a.14.14,0,0,0,0,.06.32.32,0,0,1,0,.06l.05.13A1.18,1.18,0,0,1,13,17c0,.08.05.16.07.23l.06.24c0,.07,0,.14,0,.2l0,.21s0,0,0,.06a3.77,3.77,0,0,1,0,.45c0,.16,0,.29,0,.39v.14s0,.06,0,.15,0,.22-.06.38-.06.28-.11.43a.64.64,0,0,1,0,.07L13,20.1c0,.06,0,.13-.07.2l-.1.22-.1.21-.11.19a.63.63,0,0,1-.07.12l0,.05,0,.06a3.75,3.75,0,0,1-.27.36,3.1,3.1,0,0,1-.25.29l-.08.08,0,0ZM7.86,14a4.51,4.51,0,1,0,5.08,3.93A4.51,4.51,0,0,0,7.86,14Zm1,8.37A3.92,3.92,0,1,1,12.34,18,3.94,3.94,0,0,1,8.9,22.34Z"/></g></g></svg>
