<svg xmlns="http://www.w3.org/2000/svg" viewBox="0 0 23.9 44.13"><defs><style>.cls-1{fill:#3c3e3e;}</style></defs><g id="Capa_2" data-name="Capa 2"><g id="Capa_1-2" data-name="Capa 1"><path class="cls-1" d="M18.14,26.51l1.7,17.62H4.73l1.7-17S-1,27.28.12,20.53H23.86S24.75,26.9,18.14,26.51ZM7.66,6.41l.11,0A4.56,4.56,0,0,0,12,10.27a4.55,4.55,0,0,0,4.22-3.92.46.46,0,0,0,.23.06c.37,0,.67-.46.67-1s-.3-1-.67-1l-.15,0C16,1.9,14.17,0,12,0S8,1.89,7.69,4.35h0c-.37,0-.67.46-.67,1S7.29,6.41,7.66,6.41Zm3,5.59.67,1.17h1.36L13.4,12l-.67-1.16H11.37Zm10.43,2.62c-1.83-3.46-6-3.62-6-3.62L12.8,15.07h-.08v-1.8H11.38v1.8h-.12L9.47,11a8.37,8.37,0,0,0-6.54,3.42v4.11h18.2Z"/></g></g></svg>
