<svg xmlns="http://www.w3.org/2000/svg" viewBox="0 0 44.5 34.44"><defs><style>.cls-1{fill:#3c3e3e;}</style></defs><g id="Capa_2" data-name="Capa 2"><g id="Capa_1-2" data-name="Capa 1"><path class="cls-1" d="M13.23,11.5c6.16,0,11.17,3.46,11.17,7.72S19.39,27,13.23,27a16,16,0,0,1-2.13-.15l-1.55-.21L8.93,28a6.16,6.16,0,0,0-.33,1,5.15,5.15,0,0,1-.13-1.38l0-1.37-1.25-.56C4,24.26,2.06,21.83,2.06,19.22c0-4.26,5-7.72,11.17-7.72Zm0-2.05C5.92,9.45,0,13.83,0,19.22c0,3.55,2.57,6.65,6.4,8.36,0,1.65.42,5.36,5.28,6.86,0,0-1.92-3.13-.85-5.61a18.84,18.84,0,0,0,2.4.16c7.31,0,13.23-4.37,13.23-9.77S20.54,9.45,13.23,9.45ZM44.5,11.13C44.5,5,37.75,0,29.43,0,22.27,0,16.28,3.68,14.74,8.62a18.94,18.94,0,0,1,2.41.21c1.46-3.74,6.41-6.5,12.28-6.5,7,0,12.72,4,12.72,8.8,0,3-2.21,5.74-5.91,7.4l-1.43.63,0,1.55a6.28,6.28,0,0,1-.16,1.58,7.2,7.2,0,0,0-.37-1.14l-.71-1.63-1.77.24a18.72,18.72,0,0,1-2.42.17,18.19,18.19,0,0,1-2-.11,7.76,7.76,0,0,1-.84,2.25,21.77,21.77,0,0,0,2.82.19,20.67,20.67,0,0,0,2.74-.19c1.21,2.82-1,6.39-1,6.39,5.54-1.71,6.07-5.93,6-7.81C41.57,18.7,44.5,15.17,44.5,11.13Z"/></g></g></svg>
