<svg xmlns="http://www.w3.org/2000/svg" viewBox="0 0 34.06 40.98"><defs><style>.cls-1{fill:#3c3e3e;}</style></defs><g id="Capa_2" data-name="Capa 2"><g id="Capa_1-2" data-name="Capa 1"><path class="cls-1" d="M4.23,23.77a4.54,4.54,0,0,1,4.44-4.62A4.47,4.47,0,1,1,9,28.08,4.55,4.55,0,0,1,4.23,23.77Zm8.89,6.58-3.76,6-4.28-5.9C2,31.62-.09,34.06,0,36.82L.26,41H18.38l-.27-4.77C18,33.6,16,31.41,13.12,30.35ZM34.06,8.27c0,4.57-5,8.27-11.2,8.27a14.88,14.88,0,0,1-3.17-.33L14,21.12l.7-7.15a7.24,7.24,0,0,1-3-5.7c0-4.57,5-8.27,11.2-8.27S34.06,3.7,34.06,8.27Zm-2.38,0c0-3.59-3.95-6.51-8.82-6.51S14,4.68,14,8.27a5.91,5.91,0,0,0,2.9,4.83l-.17,1.07-.29,2.24,2.64-2.28v0a15.4,15.4,0,0,0,3.72.65C27.73,14.78,31.68,11.87,31.68,8.27Z"/></g></g></svg>
