<svg xmlns="http://www.w3.org/2000/svg" viewBox="0 0 42.01 30.14"><defs><style>.cls-1{fill:#3c3e3e;}</style></defs><g id="Capa_2" data-name="Capa 2"><g id="Capa_1-2" data-name="Capa 1"><path class="cls-1" d="M6.29,2.59h0C5,3.32,3.14,4.28,3.14,4.28l-.27,1-.15.92L0,29.61s1,.68,1.49.5c12.63-4.89,19.33-1.68,19.33-1.68V.82A36.93,36.93,0,0,0,16.53.05C14.36-.15,10.81.13,6.29,2.59ZM18.56,25.83a14.25,14.25,0,0,0-4.44-.45,29.86,29.86,0,0,0-6.35,1,51,51,0,0,0-5.44,1.79L4.84,5.53C5.69,5.12,7,4.4,7.39,4.16h0c4-2.17,7-2.42,8.86-2.25a8.09,8.09,0,0,1,2.49.6ZM39.29,6.19l-.15-.92-.27-1S37,3.32,35.73,2.6h0C31.2.13,27.65-.15,25.48.05a36.93,36.93,0,0,0-4.29.77V28.43s6.7-3.21,19.33,1.68c.48.18,1.49-.5,1.49-.5Zm-5,20.23a29.86,29.86,0,0,0-6.35-1,14.25,14.25,0,0,0-4.44.45L23.27,2.51a8.17,8.17,0,0,1,2.48-.6h0l.31,6.76a.2.2,0,0,0,.1.18.11.11,0,0,0,.16,0l1.29-1.52L29,8.7a.17.17,0,0,0,.11,0l.06,0a.22.22,0,0,0,.09-.19l-.3-6.46a18.74,18.74,0,0,1,5.69,2.09h0c.42.24,1.7,1,2.56,1.37l2.5,22.68A51,51,0,0,0,34.24,26.42Z"/></g></g></svg>
