<svg xmlns="http://www.w3.org/2000/svg" viewBox="0 0 24.77 40.6"><defs><style>.cls-1{fill:#3c3e3e;}</style></defs><g id="Capa_2" data-name="Capa 2"><g id="Capa_1-2" data-name="Capa 1"><path class="cls-1" d="M23.44,22.32a2.44,2.44,0,0,1-.14.34.76.76,0,0,1,0,.15A7.22,7.22,0,0,1,23,25.55a5.49,5.49,0,0,1-.44.91A9.67,9.67,0,0,1,22.7,28,10.42,10.42,0,0,1,12.38,38.5,10.42,10.42,0,0,1,2.06,28a10,10,0,0,1,.06-1.1,3,3,0,0,1-1-1.65,16.32,16.32,0,0,1-.2-1.95A12.84,12.84,0,0,0,0,28,12.5,12.5,0,0,0,12.38,40.6,12.51,12.51,0,0,0,24.77,28,12.66,12.66,0,0,0,23.44,22.32Z"/><path class="cls-1" d="M12.22,34.87a3.91,3.91,0,0,1-.49,0V37H13V34.8A4.32,4.32,0,0,1,12.22,34.87Z"/><path class="cls-1" d="M12.22,29.75a3.89,3.89,0,0,1-.49,0v2.12H13V29.67A3.5,3.5,0,0,1,12.22,29.75Z"/><path class="cls-1" d="M12.22,24.62a3.91,3.91,0,0,1-.49,0v2.12H13V24.55A4.32,4.32,0,0,1,12.22,24.62Z"/><path class="cls-1" d="M23.75,12.72a3,3,0,0,1-.43,1.11h0a3,3,0,0,1-.47,1.63,3.77,3.77,0,0,1-.23,1,11.41,11.41,0,0,1,.08,1.32,10.41,10.41,0,0,1-10.32,10.5A10.41,10.41,0,0,1,2.06,17.74a9.71,9.71,0,0,1,.08-1.21,3.83,3.83,0,0,1-.4-2.19,11.74,11.74,0,0,1-.06-2.65c0-.13,0-.25.05-.37A12.66,12.66,0,0,0,0,17.74,12.5,12.5,0,0,0,12.38,30.35,12.51,12.51,0,0,0,24.77,17.74,12.9,12.9,0,0,0,23.75,12.72Z"/><path class="cls-1" d="M23.37,17s0,.06,0,.1A3,3,0,0,1,22,19a10.79,10.79,0,0,1,.7,3.82A10.41,10.41,0,0,1,12.38,33.37,10.41,10.41,0,0,1,2.06,22.86a10.56,10.56,0,0,1,1.11-4.73A3.66,3.66,0,0,1,2,16.07,12.74,12.74,0,0,0,0,22.86,12.49,12.49,0,0,0,12.38,35.47,12.5,12.5,0,0,0,24.77,22.86,12.75,12.75,0,0,0,23.37,17Z"/><path class="cls-1" d="M12.38,0A12.5,12.5,0,0,0,0,12.61,12.49,12.49,0,0,0,12.38,25.22,12.5,12.5,0,0,0,24.77,12.61,12.51,12.51,0,0,0,12.38,0Zm0,23.12A10.41,10.41,0,0,1,2.06,12.61,10.42,10.42,0,0,1,12.38,2.1,10.42,10.42,0,0,1,22.7,12.61,10.41,10.41,0,0,1,12.38,23.12Z"/><path class="cls-1" d="M17.53,15.58A3.75,3.75,0,0,0,16.62,13a7.13,7.13,0,0,0-3.52-1.68l-.14,0V6.79l.26.11a2.28,2.28,0,0,1,1.4,1.61L17,8.22A4,4,0,0,0,15.72,6,4.43,4.43,0,0,0,13.13,5L13,5V3.64H11.73V5l-.17,0A4.56,4.56,0,0,0,8.64,6.24,3.69,3.69,0,0,0,7.55,9a4.06,4.06,0,0,0,1,2.73,6.18,6.18,0,0,0,3.09,1.69l.13,0v4.75L11.47,18a3.19,3.19,0,0,1-1.15-.92,3.39,3.39,0,0,1-.66-1.33L7.23,16a5.07,5.07,0,0,0,1.44,2.85,4.79,4.79,0,0,0,2.9,1.28l.16,0v1.4H13V20.13l.16,0a5.33,5.33,0,0,0,3.26-1.51A4.25,4.25,0,0,0,17.53,15.58Zm-5.8-4.7-.25-.11A2.55,2.55,0,0,1,10.33,10a1.82,1.82,0,0,1-.39-1.12,2,2,0,0,1,.42-1.21,2.32,2.32,0,0,1,1.13-.76l.24-.08Zm2.9,6.54a2.45,2.45,0,0,1-1.45.77l-.22,0V13.75l.24.06a3.09,3.09,0,0,1,1.52.83A1.91,1.91,0,0,1,15.2,16,2.12,2.12,0,0,1,14.63,17.42Z"/></g></g></svg>
