<svg xmlns="http://www.w3.org/2000/svg" viewBox="0 0 32.52 39.73"><defs><style>.cls-1{fill:#3c3e3e;}</style></defs><g id="Capa_2" data-name="Capa 2"><g id="Capa_1-2" data-name="Capa 1"><path class="cls-1" d="M0,18.74C1.51,20.53,3.18,22.15,4.6,24s3,3.74,4.26,5.76,3.62,3.6,4.34,5.31a5.88,5.88,0,0,1,.37,4.65H24.66c-.15-4.2-.56-4.38-.35-5,3.52-10.27,3-4.75,4.42-14.19a9.84,9.84,0,0,1,1.39-2.69c.73-1.4,4.49-9.3.81-9.14-1.57.82-1.74,2.74-2.29,4.27-.84,2.31-1.44,2.84-3.21,4.54.3-1.63.73-3.22,1.06-4.83s.19-1.6.45-3.19a21.61,21.61,0,0,0,.53-4.09c0-1.08.07-2.64-1.34-2.7-1.17-.14-1.47,1-1.76,1.88-.41,1.3-.69,2.63-1,4a33.64,33.64,0,0,1-1.93,6.59L21,15.06c.06-2.61.11-3.62.17-6.23,0-1.16.05-2.32.07-3.49,0-.78.1-1.56.07-2.34,0-1.08.13-2.44-1-2.94L19.55,0C18.28.5,18.11,1.59,18,2.83c-.17,1.53-.39,3-.61,4.56-.45,3.14-.53,4.72-.91,7.87a2.86,2.86,0,0,1-.7-.17A20,20,0,0,1,14.25,9c-.12-1.41-.46-2.8-.46-4.22,0-3.42-1.9-3.29-1.9-3.29C10.24,2,10.32,4.82,10.3,6.23A73,73,0,0,0,11,13.65c.45,3,.39,6.5-1.51,9H9.46C5.57,21.17,4.69,18.7,2.27,17.7-.29,16.39,0,18.62,0,18.74Zm11.34,3.87a3.78,3.78,0,0,1,1.31-2.91,4.45,4.45,0,0,1,3.05-1.12,3.36,3.36,0,0,1,3.31,2,3.33,3.33,0,0,1,3.3-2,4.45,4.45,0,0,1,3.05,1.12,3.78,3.78,0,0,1,1.31,2.91c0,5.3-7.29,9.27-7.66,9.38C18.64,31.88,11.35,27.91,11.35,22.61Z"/></g></g></svg>
