<svg xmlns="http://www.w3.org/2000/svg" viewBox="0 0 30.01 37.83"><defs><style>.cls-1{fill:#3c3e3e;}</style></defs><g id="Capa_2" data-name="Capa 2"><g id="Capa_1-2" data-name="Capa 1"><path class="cls-1" d="M26.62,3.71H23.05v1l0,.71H24.8a2.51,2.51,0,0,1,2.52,2.5V32.17a2.51,2.51,0,0,1-2.52,2.5H13.33a2.58,2.58,0,0,1-2.58-2.48l-.12-4.4a1.37,1.37,0,0,0-1.37-1.32l-4.11.06a2.5,2.5,0,0,1-2.53-2.48V7.9A2.51,2.51,0,0,1,5.14,5.4H6.32V3.71H3.39A3.35,3.35,0,0,0,0,7V34.55a3.35,3.35,0,0,0,3.39,3.28H26.62A3.35,3.35,0,0,0,30,34.55V7A3.35,3.35,0,0,0,26.62,3.71ZM8.41,32.44,5.1,28.83c-.72-.78-2.18-2.6-1.94-2.6a6.09,6.09,0,0,0,3.45,1.14l1.16,0a1.91,1.91,0,0,1,1.94,1.89v1.58c0,1.92,1.27,2.77,1.27,3.08S9.12,33.22,8.41,32.44ZM24.75,12.7a.84.84,0,0,1-.85.84H6.19a.84.84,0,1,1,0-1.68H23.9A.85.85,0,0,1,24.75,12.7Zm0,4.46a.85.85,0,0,1-.85.84H6.19a.84.84,0,1,1,0-1.68H23.9A.84.84,0,0,1,24.75,17.16Zm0,4.41a.85.85,0,0,1-.85.84H6.19a.84.84,0,1,1,0-1.68H23.9A.85.85,0,0,1,24.75,21.57Zm0,4.37a.84.84,0,0,1-.85.84H13.82a.84.84,0,1,1,0-1.68H23.9A.85.85,0,0,1,24.75,25.94ZM22,4.15v-.6A1.61,1.61,0,0,0,20.41,2H17.64C17.51.86,15.87,0,14.73,0s-2.79.86-2.91,2H9.05a1.61,1.61,0,0,0-1.61,1.6V6.89H22Zm-7.34-.71a1.19,1.19,0,1,1,1.2-1.19A1.19,1.19,0,0,1,14.68,3.44Z"/></g></g></svg>
