<svg xmlns="http://www.w3.org/2000/svg" viewBox="0 0 39.25 28.9"><defs><style>.cls-1{fill:#3c3e3e;}</style></defs><g id="Capa_2" data-name="Capa 2"><g id="Capa_1-2" data-name="Capa 1"><path class="cls-1" d="M39.25,3.58v12.1s-2.54.52-3.06.58-2.17.61-3.36-.56C31,13.91,24.48,7.31,24.48,7.31a2.45,2.45,0,0,0-2.93-.15c-1.65.89-4.11,2.19-5.13,2.7A2.36,2.36,0,0,1,12.87,8a2.46,2.46,0,0,1,1.47-2.14c2.34-1.45,7.27-4.26,9.32-5.37,1.25-.68,2.15-.74,3.86.73,2.11,1.81,4,3.46,4,3.46A1.94,1.94,0,0,0,33.09,5C35.49,4.44,39.25,3.58,39.25,3.58Z"/><path class="cls-1" d="M13.31,24.09a2.26,2.26,0,0,0-.39-2.39,2.21,2.21,0,0,0-2.1-.54A2.18,2.18,0,0,0,10.37,19a2.16,2.16,0,0,0-2.09-.54,2.2,2.2,0,0,0-.46-2.15,2.34,2.34,0,0,0-3.31.09c-1,.95-1.59,2.66-.72,3.67s1.85.39,2.61.22c-.21.76-.84,1.47-.07,2.47s1.86.39,2.61.22c-.21.76-.81,1.54-.06,2.47s2,.43,2.8.18c-.32.82-1,1.7-.13,2.7s2.86.54,3.83-.41a2.39,2.39,0,0,0,.21-3.34A2.17,2.17,0,0,0,13.31,24.09Z"/><path class="cls-1" d="M31.08,17.79l-7.52-7.66a2.43,2.43,0,0,0-2.64-.48c-1.05.47-2.4,1.11-3.42,1.6a5.8,5.8,0,0,1-2.31.78,4,4,0,0,1-2.07-7.38c1.57-1.1,5.16-3.05,5.16-3.05A4.46,4.46,0,0,0,14.79.18c-2.41,0-7.43,3.35-7.43,3.35a3.84,3.84,0,0,1-3.45.09L0,2.24V16.08s1.12.33,2.12.75a4.55,4.55,0,0,1,1.1-1.77,4.28,4.28,0,0,1,5.94,0,3.88,3.88,0,0,1,.94,1.69,3.68,3.68,0,0,1,1.6,1,3.78,3.78,0,0,1,.94,1.69,3.85,3.85,0,0,1,2.6,2.86,3.84,3.84,0,0,1,1.68,1,4.07,4.07,0,0,1,1,3.49h0s.56.65.9,1a1.71,1.71,0,0,0,2.44,0,1.79,1.79,0,0,0,0-2.49s-2.42-2.57-2.23-2.77,3.25,3,3.31,3.1a1.71,1.71,0,0,0,2.44,0,1.8,1.8,0,0,0,0-2.49,2.28,2.28,0,0,1-.23-.22s-3-2.74-2.79-3,4,3.34,4,3.34a1.68,1.68,0,0,0,2.36-.05,1.76,1.76,0,0,0,.09-2.35s-2.87-3.07-2.64-3.3,3.05,2.73,3.05,2.74a1.71,1.71,0,0,0,2.44,0,1.79,1.79,0,0,0,0-2.49Z"/></g></g></svg>
