<svg xmlns="http://www.w3.org/2000/svg" viewBox="0 0 46.17 25.54"><defs><style>.cls-1{fill:#3c3e3e;}</style></defs><g id="Capa_2" data-name="Capa 2"><g id="Capa_1-2" data-name="Capa 1"><path class="cls-1" d="M0,13.34c2.6,7,12.59,12.2,23.08,12.2,10.8,0,19.69-5.17,23.09-12.2C42.77,5.66,33.88,0,23.08,0,12.59,0,2.6,5.66,0,13.34Zm31.48-.57a8.4,8.4,0,1,1-8.4-8.32A8.38,8.38,0,0,1,31.48,12.77ZM25.78,22a9.57,9.57,0,0,0,0-18.42c7,.79,13.76,4.55,16,9.54C39.58,17.68,32.8,21.25,25.78,22ZM4.12,13.26c1.67-5,9.15-8.82,16.16-9.67A9.57,9.57,0,0,0,20.39,22C13.34,21.26,5.8,17.82,4.12,13.26Zm19,4.34a4.83,4.83,0,1,1,0-9.66,5,5,0,0,1,2.26.54l-2.26,4.29,4.44-2a4.7,4.7,0,0,1,.46,2A4.86,4.86,0,0,1,23.08,17.6Z"/></g></g></svg>
